G04 EAGLE Gerber RS-274X export*
G75*
%MOIN*%
%FSLAX34Y34*%
%LPD*%
%INTop Copper*%
%IPPOS*%
%AMOC8*
5,1,8,0,0,1.08239X$1,22.5*%
G01*
%ADD10C,0.120000*%
%ADD11R,0.082677X0.082677*%
%ADD12R,0.094488X0.094488*%
%ADD13R,0.078740X0.098425*%
%ADD14R,0.098425X0.078740*%
%ADD15R,0.056220X0.056220*%
%ADD16C,0.056220*%
%ADD17C,0.060000*%
%ADD18P,0.064943X8X112.500000*%
%ADD19C,0.106299*%
%ADD20C,0.040000*%
%ADD21C,0.059055*%
%ADD22C,0.024000*%
%ADD23C,0.043307*%
%ADD24C,0.010000*%

G36*
X54672Y198D02*
X54672Y198D01*
X54685Y198D01*
X54699Y199D01*
X54700Y199D01*
X54713Y202D01*
X54727Y204D01*
X54728Y204D01*
X54741Y208D01*
X54754Y212D01*
X54767Y217D01*
X54780Y222D01*
X54780Y223D01*
X54792Y229D01*
X54804Y236D01*
X54805Y236D01*
X54816Y244D01*
X54827Y252D01*
X54828Y253D01*
X54838Y262D01*
X54848Y271D01*
X54857Y282D01*
X54866Y292D01*
X54867Y292D01*
X54875Y303D01*
X54883Y315D01*
X54889Y327D01*
X54896Y339D01*
X54896Y340D01*
X54902Y353D01*
X54907Y365D01*
X54907Y366D01*
X54911Y379D01*
X54914Y392D01*
X54915Y393D01*
X54917Y406D01*
X54919Y420D01*
X54921Y447D01*
X54921Y31049D01*
X54920Y31050D01*
X54921Y31050D01*
X54920Y31063D01*
X54919Y31077D01*
X54919Y31078D01*
X54917Y31091D01*
X54914Y31105D01*
X54914Y31106D01*
X54910Y31119D01*
X54906Y31132D01*
X54901Y31145D01*
X54896Y31158D01*
X54895Y31158D01*
X54889Y31170D01*
X54882Y31182D01*
X54882Y31183D01*
X54874Y31194D01*
X54866Y31205D01*
X54865Y31205D01*
X54856Y31216D01*
X54847Y31226D01*
X54836Y31235D01*
X54826Y31244D01*
X54826Y31245D01*
X54815Y31253D01*
X54803Y31261D01*
X54791Y31267D01*
X54779Y31274D01*
X54778Y31274D01*
X54765Y31280D01*
X54753Y31285D01*
X54752Y31285D01*
X54739Y31289D01*
X54726Y31292D01*
X54725Y31293D01*
X54712Y31295D01*
X54698Y31297D01*
X54671Y31298D01*
X25753Y31298D01*
X25747Y31298D01*
X25740Y31298D01*
X25733Y31297D01*
X25725Y31297D01*
X25719Y31296D01*
X25712Y31295D01*
X25705Y31293D01*
X25698Y31292D01*
X25691Y31290D01*
X25685Y31289D01*
X25678Y31286D01*
X25671Y31284D01*
X25665Y31282D01*
X25659Y31280D01*
X25652Y31277D01*
X25645Y31274D01*
X25639Y31270D01*
X25633Y31268D01*
X25627Y31264D01*
X25621Y31260D01*
X25615Y31256D01*
X25610Y31253D01*
X25604Y31248D01*
X25598Y31244D01*
X25593Y31239D01*
X25588Y31235D01*
X25582Y31230D01*
X25577Y31225D01*
X25572Y31220D01*
X25568Y31216D01*
X25563Y31210D01*
X25558Y31204D01*
X25554Y31199D01*
X25550Y31194D01*
X25546Y31187D01*
X25542Y31181D01*
X25539Y31176D01*
X25535Y31170D01*
X25532Y31163D01*
X25529Y31157D01*
X25526Y31151D01*
X25523Y31145D01*
X25521Y31138D01*
X25518Y31131D01*
X25516Y31125D01*
X25514Y31118D01*
X25512Y31111D01*
X25510Y31104D01*
X25509Y31098D01*
X25508Y31091D01*
X25507Y31084D01*
X25506Y31076D01*
X25505Y31070D01*
X25505Y31063D01*
X25505Y31056D01*
X25504Y31048D01*
X25505Y31042D01*
X25505Y31035D01*
X25505Y31028D01*
X25506Y31020D01*
X25507Y31014D01*
X25508Y31007D01*
X25509Y31000D01*
X25511Y30993D01*
X25512Y30987D01*
X25514Y30980D01*
X25516Y30973D01*
X25518Y30966D01*
X25521Y30960D01*
X25523Y30954D01*
X25526Y30947D01*
X25529Y30940D01*
X25532Y30934D01*
X25535Y30928D01*
X25539Y30922D01*
X25543Y30916D01*
X25547Y30910D01*
X25550Y30905D01*
X25555Y30899D01*
X25559Y30893D01*
X25564Y30888D01*
X25568Y30883D01*
X25573Y30878D01*
X25578Y30872D01*
X25583Y30868D01*
X25588Y30863D01*
X25593Y30858D01*
X25599Y30854D01*
X25604Y30850D01*
X25610Y30846D01*
X25616Y30842D01*
X25622Y30837D01*
X25628Y30834D01*
X25633Y30831D01*
X25640Y30828D01*
X25646Y30824D01*
X25653Y30822D01*
X25659Y30819D01*
X25666Y30816D01*
X25672Y30813D01*
X25679Y30812D01*
X25685Y30810D01*
X25693Y30808D01*
X25699Y30806D01*
X25705Y30805D01*
X25711Y30804D01*
X28364Y30343D01*
X28372Y30342D01*
X28380Y30341D01*
X28386Y30340D01*
X28392Y30340D01*
X28399Y30340D01*
X28406Y30339D01*
X28441Y30339D01*
X28455Y30333D01*
X28456Y30333D01*
X28468Y30329D01*
X28482Y30324D01*
X28508Y30318D01*
X28523Y30315D01*
X28552Y30297D01*
X28559Y30293D01*
X28566Y30289D01*
X28572Y30286D01*
X28577Y30283D01*
X28583Y30281D01*
X28590Y30277D01*
X28622Y30264D01*
X28633Y30253D01*
X28644Y30244D01*
X28654Y30235D01*
X28654Y30234D01*
X28676Y30219D01*
X28689Y30210D01*
X28693Y30205D01*
X28698Y30199D01*
X28703Y30192D01*
X28707Y30188D01*
X28710Y30183D01*
X28716Y30177D01*
X28721Y30171D01*
X28726Y30167D01*
X28730Y30163D01*
X28736Y30158D01*
X28742Y30153D01*
X28747Y30149D01*
X28752Y30146D01*
X28759Y30141D01*
X28765Y30137D01*
X28770Y30134D01*
X28776Y30131D01*
X28783Y30127D01*
X28790Y30123D01*
X28795Y30121D01*
X28801Y30118D01*
X28808Y30116D01*
X28816Y30113D01*
X28821Y30111D01*
X28827Y30109D01*
X28835Y30107D01*
X28843Y30105D01*
X28849Y30104D01*
X28854Y30103D01*
X28862Y30102D01*
X28870Y30101D01*
X28877Y30100D01*
X28882Y30100D01*
X28889Y30100D01*
X28897Y30099D01*
X28964Y30099D01*
X29232Y29988D01*
X29437Y29783D01*
X29548Y29515D01*
X29548Y29225D01*
X29437Y28957D01*
X29232Y28752D01*
X28964Y28641D01*
X28674Y28641D01*
X28406Y28752D01*
X28201Y28957D01*
X28080Y29248D01*
X28080Y29250D01*
X28078Y29256D01*
X28076Y29263D01*
X28073Y29269D01*
X28071Y29276D01*
X28068Y29282D01*
X28065Y29289D01*
X28062Y29295D01*
X28059Y29301D01*
X28055Y29307D01*
X28051Y29313D01*
X28047Y29319D01*
X28044Y29325D01*
X28039Y29330D01*
X28035Y29336D01*
X28031Y29341D01*
X28026Y29347D01*
X28021Y29352D01*
X28017Y29357D01*
X28011Y29362D01*
X28006Y29367D01*
X28001Y29371D01*
X27996Y29376D01*
X27990Y29380D01*
X27984Y29384D01*
X27978Y29388D01*
X27973Y29392D01*
X27967Y29395D01*
X27961Y29399D01*
X27954Y29402D01*
X27948Y29405D01*
X27942Y29408D01*
X27935Y29411D01*
X27929Y29413D01*
X27922Y29416D01*
X27916Y29418D01*
X27909Y29420D01*
X27902Y29422D01*
X27895Y29424D01*
X27890Y29425D01*
X27883Y29426D01*
X24878Y29948D01*
X24875Y29948D01*
X24873Y29949D01*
X24862Y29950D01*
X24851Y29951D01*
X24848Y29951D01*
X24845Y29951D01*
X24834Y29951D01*
X24823Y29951D01*
X24820Y29951D01*
X24817Y29951D01*
X24806Y29949D01*
X24795Y29948D01*
X24792Y29947D01*
X24789Y29947D01*
X24778Y29944D01*
X24767Y29942D01*
X24765Y29941D01*
X24762Y29940D01*
X24751Y29936D01*
X24741Y29933D01*
X24738Y29931D01*
X24736Y29930D01*
X24726Y29925D01*
X24716Y29920D01*
X24713Y29919D01*
X24711Y29918D01*
X24701Y29911D01*
X24692Y29906D01*
X24690Y29904D01*
X24687Y29902D01*
X24679Y29895D01*
X24670Y29888D01*
X24668Y29886D01*
X24666Y29884D01*
X24658Y29876D01*
X24650Y29868D01*
X24648Y29866D01*
X24646Y29864D01*
X24640Y29855D01*
X24633Y29847D01*
X24631Y29844D01*
X24629Y29842D01*
X24624Y29832D01*
X24618Y29823D01*
X24617Y29820D01*
X24615Y29818D01*
X24610Y29808D01*
X24606Y29798D01*
X24605Y29795D01*
X24603Y29792D01*
X24600Y29782D01*
X24596Y29771D01*
X24596Y29768D01*
X24595Y29765D01*
X24593Y29755D01*
X24590Y29744D01*
X24590Y29741D01*
X24589Y29738D01*
X24588Y29727D01*
X24587Y29716D01*
X24587Y29713D01*
X24587Y29710D01*
X24587Y29699D01*
X24587Y29688D01*
X24587Y29685D01*
X24587Y29682D01*
X24589Y29671D01*
X24590Y29660D01*
X24591Y29657D01*
X24591Y29654D01*
X24594Y29644D01*
X24596Y29633D01*
X24597Y29630D01*
X24598Y29627D01*
X24602Y29617D01*
X24606Y29607D01*
X24607Y29604D01*
X24608Y29601D01*
X24614Y29590D01*
X24618Y29581D01*
X24619Y29579D01*
X24620Y29577D01*
X24623Y29572D01*
X24636Y29541D01*
X24055Y29541D01*
X23305Y29541D01*
X23294Y29547D01*
X23281Y29554D01*
X23268Y29559D01*
X23255Y29564D01*
X23242Y29568D01*
X23228Y29572D01*
X23215Y29574D01*
X23201Y29577D01*
X23200Y29577D01*
X23187Y29577D01*
X23173Y29578D01*
X23172Y29578D01*
X23158Y29577D01*
X23145Y29576D01*
X23144Y29576D01*
X23131Y29574D01*
X23117Y29572D01*
X23104Y29568D01*
X23090Y29564D01*
X23077Y29558D01*
X23065Y29553D01*
X23064Y29553D01*
X23052Y29546D01*
X23040Y29539D01*
X23029Y29531D01*
X23017Y29523D01*
X22997Y29505D01*
X22889Y29396D01*
X22888Y29396D01*
X22879Y29386D01*
X22870Y29376D01*
X22870Y29375D01*
X22869Y29375D01*
X22862Y29364D01*
X22854Y29353D01*
X22854Y29352D01*
X22853Y29352D01*
X22847Y29340D01*
X22840Y29328D01*
X22840Y29327D01*
X22835Y29315D01*
X22830Y29302D01*
X22829Y29302D01*
X22829Y29301D01*
X22826Y29288D01*
X22822Y29275D01*
X22822Y29274D01*
X22819Y29261D01*
X22817Y29248D01*
X22817Y29247D01*
X22816Y29220D01*
X22816Y29146D01*
X22705Y28878D01*
X22500Y28673D01*
X22232Y28562D01*
X21942Y28562D01*
X21674Y28673D01*
X21621Y28725D01*
X21621Y28726D01*
X21611Y28735D01*
X21601Y28744D01*
X21600Y28744D01*
X21600Y28745D01*
X21589Y28753D01*
X21578Y28760D01*
X21577Y28761D01*
X21565Y28767D01*
X21553Y28774D01*
X21552Y28774D01*
X21540Y28779D01*
X21527Y28785D01*
X21526Y28785D01*
X21513Y28789D01*
X21500Y28792D01*
X21499Y28793D01*
X21486Y28795D01*
X21473Y28797D01*
X21472Y28797D01*
X21445Y28798D01*
X7945Y28798D01*
X7944Y28798D01*
X7931Y28798D01*
X7917Y28797D01*
X7916Y28797D01*
X7903Y28794D01*
X7890Y28792D01*
X7889Y28792D01*
X7888Y28792D01*
X7876Y28788D01*
X7863Y28784D01*
X7862Y28784D01*
X7849Y28779D01*
X7837Y28774D01*
X7836Y28773D01*
X7824Y28767D01*
X7812Y28760D01*
X7811Y28759D01*
X7800Y28752D01*
X7790Y28744D01*
X7789Y28743D01*
X7769Y28725D01*
X6471Y27428D01*
X6471Y27427D01*
X6462Y27417D01*
X6453Y27407D01*
X6452Y27407D01*
X6452Y27406D01*
X6444Y27395D01*
X6437Y27384D01*
X6436Y27384D01*
X6436Y27383D01*
X6429Y27371D01*
X6423Y27360D01*
X6423Y27359D01*
X6422Y27359D01*
X6417Y27346D01*
X6412Y27334D01*
X6412Y27333D01*
X6408Y27320D01*
X6405Y27307D01*
X6404Y27306D01*
X6402Y27292D01*
X6400Y27279D01*
X6400Y27278D01*
X6398Y27252D01*
X6398Y26450D01*
X6399Y26445D01*
X6399Y26440D01*
X6399Y26431D01*
X6400Y26422D01*
X6401Y26417D01*
X6401Y26412D01*
X6403Y26403D01*
X6405Y26394D01*
X6406Y26389D01*
X6407Y26384D01*
X6410Y26376D01*
X6412Y26367D01*
X6414Y26363D01*
X6416Y26358D01*
X6420Y26350D01*
X6423Y26342D01*
X6426Y26337D01*
X6428Y26332D01*
X6432Y26325D01*
X6437Y26317D01*
X6440Y26313D01*
X6442Y26308D01*
X6448Y26301D01*
X6453Y26294D01*
X6456Y26290D01*
X6460Y26286D01*
X6466Y26280D01*
X6472Y26273D01*
X6476Y26270D01*
X6479Y26266D01*
X6486Y26261D01*
X6493Y26255D01*
X6497Y26252D01*
X6501Y26248D01*
X6509Y26243D01*
X6515Y26239D01*
X6519Y26237D01*
X6523Y26234D01*
X6564Y26210D01*
X6713Y26062D01*
X6818Y25880D01*
X6872Y25677D01*
X6872Y25467D01*
X6818Y25264D01*
X6713Y25082D01*
X6564Y24934D01*
X6519Y24908D01*
X6515Y24905D01*
X6511Y24903D01*
X6503Y24898D01*
X6496Y24893D01*
X6492Y24890D01*
X6488Y24886D01*
X6481Y24881D01*
X6474Y24875D01*
X6471Y24871D01*
X6467Y24868D01*
X6461Y24861D01*
X6455Y24855D01*
X6452Y24851D01*
X6448Y24847D01*
X6443Y24840D01*
X6438Y24833D01*
X6435Y24828D01*
X6432Y24824D01*
X6428Y24816D01*
X6424Y24809D01*
X6421Y24804D01*
X6419Y24799D01*
X6416Y24791D01*
X6412Y24783D01*
X6410Y24778D01*
X6408Y24773D01*
X6406Y24765D01*
X6403Y24756D01*
X6402Y24751D01*
X6401Y24746D01*
X6399Y24738D01*
X6398Y24729D01*
X6397Y24724D01*
X6396Y24719D01*
X6396Y24709D01*
X6395Y24701D01*
X6395Y24697D01*
X6395Y24692D01*
X6395Y20465D01*
X6332Y20313D01*
X6083Y20064D01*
X5600Y19581D01*
X5599Y19581D01*
X5590Y19570D01*
X5581Y19560D01*
X5573Y19548D01*
X5565Y19537D01*
X5558Y19525D01*
X5551Y19513D01*
X5551Y19512D01*
X5546Y19499D01*
X5541Y19487D01*
X5540Y19486D01*
X5537Y19473D01*
X5533Y19460D01*
X5530Y19445D01*
X5528Y19432D01*
X5527Y19418D01*
X5527Y19404D01*
X5528Y19390D01*
X5528Y19376D01*
X5531Y19362D01*
X5533Y19349D01*
X5533Y19348D01*
X5537Y19335D01*
X5541Y19322D01*
X5541Y19321D01*
X5547Y19308D01*
X5552Y19296D01*
X5559Y19283D01*
X5565Y19272D01*
X5565Y19271D01*
X5574Y19260D01*
X5582Y19249D01*
X5582Y19248D01*
X5591Y19238D01*
X5600Y19228D01*
X5601Y19228D01*
X5611Y19219D01*
X5621Y19209D01*
X5622Y19209D01*
X5633Y19201D01*
X5644Y19193D01*
X5656Y19186D01*
X5669Y19180D01*
X5682Y19174D01*
X5695Y19169D01*
X5709Y19165D01*
X5722Y19161D01*
X5736Y19159D01*
X5749Y19157D01*
X5750Y19157D01*
X5776Y19155D01*
X6144Y19155D01*
X6296Y19092D01*
X7202Y18187D01*
X7265Y18035D01*
X7265Y17627D01*
X7265Y17626D01*
X7266Y17613D01*
X7266Y17599D01*
X7267Y17599D01*
X7267Y17598D01*
X7269Y17585D01*
X7271Y17572D01*
X7271Y17571D01*
X7271Y17570D01*
X7275Y17558D01*
X7279Y17545D01*
X7279Y17544D01*
X7284Y17531D01*
X7290Y17519D01*
X7290Y17518D01*
X7297Y17506D01*
X7303Y17494D01*
X7304Y17494D01*
X7304Y17493D01*
X7312Y17482D01*
X7319Y17472D01*
X7320Y17471D01*
X7338Y17451D01*
X7412Y17377D01*
X7442Y17304D01*
X7442Y16220D01*
X7442Y16219D01*
X7443Y16205D01*
X7444Y16192D01*
X7444Y16191D01*
X7446Y16178D01*
X7448Y16164D01*
X7448Y16163D01*
X7452Y16150D01*
X7456Y16137D01*
X7456Y16136D01*
X7462Y16124D01*
X7467Y16111D01*
X7474Y16099D01*
X7480Y16087D01*
X7481Y16087D01*
X7481Y16086D01*
X7489Y16075D01*
X7497Y16064D01*
X7497Y16063D01*
X7506Y16053D01*
X7515Y16043D01*
X7516Y16043D01*
X7526Y16034D01*
X7536Y16025D01*
X7537Y16024D01*
X7548Y16016D01*
X7559Y16008D01*
X7560Y16008D01*
X7572Y16001D01*
X7584Y15995D01*
X7597Y15989D01*
X7610Y15984D01*
X7623Y15980D01*
X7636Y15977D01*
X7637Y15976D01*
X7651Y15974D01*
X7664Y15972D01*
X7665Y15972D01*
X7691Y15970D01*
X8352Y15970D01*
X8353Y15970D01*
X8366Y15971D01*
X8380Y15972D01*
X8394Y15974D01*
X8407Y15977D01*
X8408Y15977D01*
X8421Y15981D01*
X8434Y15984D01*
X8435Y15985D01*
X8448Y15990D01*
X8460Y15995D01*
X8461Y15996D01*
X8473Y16002D01*
X8485Y16009D01*
X8496Y16017D01*
X8507Y16025D01*
X8508Y16025D01*
X8508Y16026D01*
X8518Y16035D01*
X8528Y16044D01*
X8529Y16044D01*
X8538Y16054D01*
X8547Y16065D01*
X8555Y16076D01*
X8563Y16088D01*
X8570Y16100D01*
X8577Y16112D01*
X8577Y16113D01*
X8582Y16125D01*
X8587Y16138D01*
X8587Y16139D01*
X8591Y16152D01*
X8595Y16165D01*
X8595Y16166D01*
X8597Y16179D01*
X8599Y16193D01*
X8600Y16193D01*
X8601Y16220D01*
X8601Y16305D01*
X8631Y16378D01*
X8687Y16433D01*
X8759Y16463D01*
X9783Y16463D01*
X9855Y16433D01*
X9911Y16378D01*
X9949Y16286D01*
X9949Y16285D01*
X9952Y16275D01*
X9955Y16265D01*
X9956Y16262D01*
X9958Y16259D01*
X9962Y16249D01*
X9966Y16239D01*
X9968Y16236D01*
X9969Y16233D01*
X9974Y16224D01*
X9979Y16215D01*
X9981Y16212D01*
X9983Y16209D01*
X9990Y16201D01*
X9996Y16192D01*
X9998Y16189D01*
X10000Y16187D01*
X10007Y16179D01*
X10014Y16171D01*
X10017Y16169D01*
X10019Y16166D01*
X10027Y16160D01*
X10035Y16153D01*
X10038Y16151D01*
X10041Y16148D01*
X10050Y16142D01*
X10058Y16136D01*
X10061Y16135D01*
X10064Y16133D01*
X10074Y16128D01*
X10083Y16123D01*
X10086Y16122D01*
X10089Y16120D01*
X10099Y16116D01*
X10109Y16112D01*
X10112Y16111D01*
X10115Y16110D01*
X10125Y16107D01*
X10136Y16105D01*
X10139Y16104D01*
X10142Y16103D01*
X10153Y16102D01*
X10163Y16100D01*
X10167Y16100D01*
X10170Y16099D01*
X10181Y16099D01*
X10191Y16098D01*
X10195Y16099D01*
X10198Y16099D01*
X10209Y16100D01*
X10219Y16100D01*
X10223Y16101D01*
X10226Y16101D01*
X10236Y16103D01*
X10247Y16105D01*
X10250Y16106D01*
X10254Y16107D01*
X10264Y16110D01*
X10274Y16113D01*
X10277Y16114D01*
X10280Y16115D01*
X10290Y16120D01*
X10299Y16124D01*
X10302Y16125D01*
X10306Y16127D01*
X10315Y16132D01*
X10324Y16137D01*
X10327Y16139D01*
X10330Y16141D01*
X10338Y16147D01*
X10347Y16154D01*
X10349Y16156D01*
X10352Y16158D01*
X10360Y16165D01*
X10367Y16172D01*
X10370Y16175D01*
X10372Y16177D01*
X10379Y16185D01*
X10386Y16193D01*
X10388Y16196D01*
X10390Y16199D01*
X10396Y16208D01*
X10402Y16216D01*
X10404Y16219D01*
X10406Y16222D01*
X10410Y16232D01*
X10415Y16241D01*
X10417Y16244D01*
X10418Y16247D01*
X10422Y16257D01*
X10426Y16267D01*
X10427Y16270D01*
X10428Y16273D01*
X10431Y16285D01*
X10434Y16294D01*
X10434Y16295D01*
X10442Y16313D01*
X10453Y16330D01*
X10467Y16344D01*
X10483Y16355D01*
X10501Y16363D01*
X10521Y16366D01*
X10754Y16366D01*
X10754Y15793D01*
X10754Y15220D01*
X10521Y15220D01*
X10501Y15224D01*
X10483Y15232D01*
X10467Y15243D01*
X10453Y15257D01*
X10442Y15273D01*
X10434Y15292D01*
X10433Y15294D01*
X10430Y15305D01*
X10428Y15315D01*
X10427Y15318D01*
X10426Y15321D01*
X10422Y15331D01*
X10418Y15341D01*
X10416Y15344D01*
X10415Y15347D01*
X10410Y15356D01*
X10405Y15366D01*
X10403Y15369D01*
X10401Y15372D01*
X10395Y15380D01*
X10389Y15389D01*
X10387Y15392D01*
X10385Y15395D01*
X10378Y15402D01*
X10371Y15410D01*
X10369Y15413D01*
X10366Y15415D01*
X10358Y15422D01*
X10351Y15430D01*
X10348Y15432D01*
X10345Y15434D01*
X10337Y15440D01*
X10328Y15446D01*
X10325Y15448D01*
X10322Y15450D01*
X10313Y15455D01*
X10304Y15461D01*
X10301Y15462D01*
X10298Y15464D01*
X10288Y15468D01*
X10279Y15472D01*
X10275Y15473D01*
X10272Y15474D01*
X10262Y15477D01*
X10252Y15480D01*
X10249Y15481D01*
X10245Y15482D01*
X10235Y15484D01*
X10225Y15486D01*
X10221Y15486D01*
X10217Y15487D01*
X10207Y15487D01*
X10197Y15488D01*
X10193Y15488D01*
X10190Y15488D01*
X10179Y15488D01*
X10169Y15487D01*
X10165Y15487D01*
X10162Y15486D01*
X10151Y15485D01*
X10141Y15483D01*
X10137Y15482D01*
X10134Y15482D01*
X10124Y15479D01*
X10114Y15476D01*
X10110Y15475D01*
X10107Y15474D01*
X10097Y15470D01*
X10088Y15466D01*
X10085Y15464D01*
X10081Y15463D01*
X10072Y15458D01*
X10063Y15453D01*
X10060Y15451D01*
X10057Y15449D01*
X10048Y15443D01*
X10040Y15437D01*
X10037Y15435D01*
X10034Y15433D01*
X10026Y15426D01*
X10018Y15419D01*
X10016Y15417D01*
X10013Y15414D01*
X10006Y15406D01*
X9999Y15399D01*
X9997Y15396D01*
X9995Y15393D01*
X9989Y15385D01*
X9982Y15376D01*
X9981Y15373D01*
X9979Y15370D01*
X9974Y15361D01*
X9968Y15352D01*
X9967Y15349D01*
X9965Y15346D01*
X9961Y15336D01*
X9957Y15327D01*
X9956Y15323D01*
X9955Y15320D01*
X9952Y15310D01*
X9949Y15300D01*
X9911Y15209D01*
X9855Y15153D01*
X9783Y15123D01*
X8759Y15123D01*
X8680Y15156D01*
X8672Y15159D01*
X8665Y15162D01*
X8659Y15163D01*
X8653Y15166D01*
X8646Y15167D01*
X8638Y15169D01*
X8632Y15170D01*
X8626Y15172D01*
X8618Y15173D01*
X8611Y15174D01*
X8604Y15174D01*
X8598Y15175D01*
X8592Y15175D01*
X8584Y15175D01*
X7664Y15175D01*
X7656Y15175D01*
X7649Y15175D01*
X7643Y15174D01*
X7636Y15174D01*
X7629Y15172D01*
X7621Y15172D01*
X7615Y15170D01*
X7608Y15169D01*
X7601Y15167D01*
X7594Y15165D01*
X7588Y15163D01*
X7582Y15161D01*
X7575Y15158D01*
X7568Y15156D01*
X7562Y15153D01*
X7556Y15150D01*
X7549Y15147D01*
X7542Y15144D01*
X7537Y15140D01*
X7531Y15137D01*
X7525Y15133D01*
X7519Y15129D01*
X7514Y15124D01*
X7508Y15121D01*
X7503Y15116D01*
X7497Y15111D01*
X7492Y15106D01*
X7487Y15102D01*
X7482Y15096D01*
X7477Y15091D01*
X7473Y15086D01*
X7469Y15081D01*
X7465Y15075D01*
X7460Y15069D01*
X7456Y15063D01*
X7453Y15058D01*
X7449Y15052D01*
X7445Y15045D01*
X7442Y15039D01*
X7439Y15034D01*
X7437Y15028D01*
X7434Y15021D01*
X7412Y14969D01*
X7356Y14913D01*
X7284Y14883D01*
X6418Y14883D01*
X6345Y14913D01*
X6289Y14969D01*
X6259Y15041D01*
X6259Y16112D01*
X6261Y16118D01*
X6264Y16131D01*
X6264Y16132D01*
X6265Y16146D01*
X6267Y16159D01*
X6267Y16160D01*
X6267Y16174D01*
X6267Y16187D01*
X6267Y16188D01*
X6265Y16202D01*
X6264Y16215D01*
X6264Y16216D01*
X6260Y16229D01*
X6259Y16234D01*
X6259Y17304D01*
X6289Y17377D01*
X6364Y17451D01*
X6364Y17452D01*
X6373Y17462D01*
X6382Y17472D01*
X6383Y17472D01*
X6383Y17473D01*
X6391Y17484D01*
X6398Y17495D01*
X6399Y17495D01*
X6399Y17496D01*
X6405Y17507D01*
X6412Y17519D01*
X6412Y17520D01*
X6418Y17533D01*
X6423Y17545D01*
X6423Y17546D01*
X6427Y17559D01*
X6430Y17572D01*
X6430Y17573D01*
X6431Y17573D01*
X6433Y17586D01*
X6435Y17600D01*
X6435Y17601D01*
X6437Y17627D01*
X6437Y17678D01*
X6437Y17679D01*
X6436Y17692D01*
X6435Y17706D01*
X6435Y17707D01*
X6433Y17720D01*
X6430Y17733D01*
X6430Y17734D01*
X6426Y17747D01*
X6423Y17760D01*
X6422Y17761D01*
X6417Y17774D01*
X6412Y17786D01*
X6412Y17787D01*
X6411Y17787D01*
X6405Y17799D01*
X6398Y17811D01*
X6398Y17812D01*
X6390Y17822D01*
X6382Y17833D01*
X6382Y17834D01*
X6381Y17834D01*
X6364Y17854D01*
X5963Y18254D01*
X5963Y18255D01*
X5962Y18255D01*
X5952Y18264D01*
X5942Y18273D01*
X5941Y18274D01*
X5930Y18281D01*
X5920Y18289D01*
X5919Y18289D01*
X5919Y18290D01*
X5907Y18296D01*
X5895Y18303D01*
X5894Y18303D01*
X5881Y18308D01*
X5869Y18313D01*
X5868Y18314D01*
X5855Y18317D01*
X5842Y18321D01*
X5841Y18321D01*
X5828Y18323D01*
X5815Y18326D01*
X5814Y18326D01*
X5813Y18326D01*
X5787Y18327D01*
X5428Y18327D01*
X5421Y18330D01*
X5415Y18332D01*
X5409Y18334D01*
X5401Y18336D01*
X5394Y18338D01*
X5388Y18339D01*
X5382Y18340D01*
X5374Y18341D01*
X5366Y18342D01*
X5360Y18343D01*
X5354Y18343D01*
X5347Y18343D01*
X5340Y18344D01*
X3470Y18344D01*
X3469Y18344D01*
X3456Y18343D01*
X3442Y18342D01*
X3441Y18342D01*
X3428Y18340D01*
X3414Y18337D01*
X3413Y18337D01*
X3400Y18333D01*
X3387Y18330D01*
X3387Y18329D01*
X3386Y18329D01*
X3374Y18324D01*
X3362Y18319D01*
X3361Y18319D01*
X3360Y18318D01*
X3349Y18312D01*
X3337Y18305D01*
X3336Y18305D01*
X3325Y18297D01*
X3314Y18289D01*
X3313Y18288D01*
X3294Y18271D01*
X3204Y18181D01*
X3199Y18176D01*
X3194Y18170D01*
X3190Y18165D01*
X3185Y18160D01*
X3181Y18154D01*
X3177Y18149D01*
X3173Y18143D01*
X3169Y18137D01*
X3165Y18131D01*
X3162Y18125D01*
X3159Y18119D01*
X3155Y18113D01*
X3153Y18106D01*
X3150Y18100D01*
X3147Y18093D01*
X3145Y18087D01*
X3143Y18080D01*
X3140Y18073D01*
X3139Y18066D01*
X3137Y18060D01*
X3136Y18053D01*
X3134Y18046D01*
X3133Y18039D01*
X3132Y18032D01*
X3132Y18025D01*
X3131Y18018D01*
X3131Y18011D01*
X3131Y18004D01*
X3131Y17997D01*
X3131Y17990D01*
X3132Y17983D01*
X3132Y17976D01*
X3134Y17969D01*
X3134Y17962D01*
X3136Y17955D01*
X3137Y17949D01*
X3139Y17942D01*
X3141Y17935D01*
X3143Y17928D01*
X3145Y17922D01*
X3148Y17915D01*
X3150Y17908D01*
X3153Y17902D01*
X3156Y17896D01*
X3159Y17890D01*
X3162Y17883D01*
X3166Y17877D01*
X3169Y17871D01*
X3173Y17866D01*
X3177Y17860D01*
X3182Y17854D01*
X3186Y17849D01*
X3190Y17843D01*
X3195Y17838D01*
X3200Y17833D01*
X3204Y17828D01*
X3210Y17823D01*
X3215Y17818D01*
X3220Y17814D01*
X3225Y17809D01*
X3231Y17805D01*
X3237Y17801D01*
X3243Y17797D01*
X3248Y17793D01*
X3254Y17790D01*
X3260Y17786D01*
X3267Y17783D01*
X3273Y17780D01*
X3279Y17777D01*
X3286Y17774D01*
X3292Y17772D01*
X3299Y17769D01*
X3305Y17767D01*
X3312Y17765D01*
X3319Y17763D01*
X3326Y17761D01*
X3333Y17760D01*
X3340Y17759D01*
X3346Y17758D01*
X3353Y17757D01*
X3360Y17756D01*
X3367Y17756D01*
X3374Y17756D01*
X3381Y17755D01*
X3388Y17756D01*
X3395Y17756D01*
X3402Y17757D01*
X3409Y17757D01*
X3416Y17758D01*
X3423Y17759D01*
X3430Y17761D01*
X3437Y17762D01*
X3444Y17764D01*
X3450Y17765D01*
X3457Y17768D01*
X3464Y17770D01*
X3469Y17772D01*
X3475Y17774D01*
X3551Y17805D01*
X3749Y17805D01*
X3931Y17730D01*
X4071Y17590D01*
X4147Y17407D01*
X4147Y16609D01*
X4066Y16413D01*
X4064Y16406D01*
X4061Y16399D01*
X4059Y16393D01*
X4057Y16387D01*
X4055Y16379D01*
X4053Y16372D01*
X4052Y16366D01*
X4051Y16360D01*
X4050Y16352D01*
X4049Y16344D01*
X4048Y16338D01*
X4048Y16332D01*
X4048Y16325D01*
X4047Y16318D01*
X4047Y15595D01*
X4048Y15587D01*
X4048Y15580D01*
X4048Y15573D01*
X4049Y15567D01*
X4050Y15559D01*
X4051Y15552D01*
X4052Y15546D01*
X4053Y15539D01*
X4056Y15532D01*
X4057Y15524D01*
X4060Y15518D01*
X4061Y15512D01*
X4064Y15506D01*
X4066Y15500D01*
X4108Y15399D01*
X4108Y14601D01*
X4027Y14405D01*
X4024Y14398D01*
X4021Y14391D01*
X4020Y14385D01*
X4018Y14379D01*
X4016Y14371D01*
X4014Y14364D01*
X4013Y14358D01*
X4011Y14352D01*
X4010Y14344D01*
X4009Y14336D01*
X4009Y14330D01*
X4008Y14324D01*
X4008Y14317D01*
X4008Y14310D01*
X4008Y14135D01*
X4008Y14134D01*
X4008Y14133D01*
X4009Y14120D01*
X4009Y14107D01*
X4010Y14106D01*
X4010Y14105D01*
X4012Y14092D01*
X4014Y14079D01*
X4014Y14078D01*
X4018Y14065D01*
X4022Y14052D01*
X4022Y14051D01*
X4028Y14039D01*
X4033Y14026D01*
X4033Y14025D01*
X4040Y14013D01*
X4046Y14002D01*
X4047Y14001D01*
X4055Y13990D01*
X4062Y13979D01*
X4063Y13978D01*
X4081Y13958D01*
X4150Y13889D01*
X4226Y13706D01*
X4226Y12908D01*
X4150Y12725D01*
X4010Y12585D01*
X3827Y12509D01*
X3629Y12509D01*
X3446Y12585D01*
X3405Y12627D01*
X3404Y12627D01*
X3404Y12628D01*
X3394Y12637D01*
X3384Y12646D01*
X3383Y12646D01*
X3372Y12654D01*
X3361Y12662D01*
X3360Y12662D01*
X3348Y12669D01*
X3336Y12676D01*
X3323Y12681D01*
X3310Y12686D01*
X3296Y12690D01*
X3284Y12694D01*
X3283Y12694D01*
X3269Y12696D01*
X3256Y12699D01*
X3255Y12699D01*
X3241Y12699D01*
X3228Y12700D01*
X3227Y12700D01*
X3214Y12699D01*
X3200Y12699D01*
X3200Y12698D01*
X3199Y12698D01*
X3186Y12696D01*
X3172Y12694D01*
X3159Y12690D01*
X3145Y12686D01*
X3132Y12680D01*
X3120Y12675D01*
X3119Y12675D01*
X3107Y12668D01*
X3095Y12662D01*
X3095Y12661D01*
X3094Y12661D01*
X3083Y12653D01*
X3072Y12645D01*
X3052Y12627D01*
X3012Y12587D01*
X3010Y12585D01*
X2827Y12509D01*
X2629Y12509D01*
X2536Y12548D01*
X2529Y12550D01*
X2523Y12553D01*
X2516Y12555D01*
X2510Y12557D01*
X2503Y12559D01*
X2496Y12561D01*
X2489Y12562D01*
X2483Y12563D01*
X2475Y12564D01*
X2468Y12566D01*
X2461Y12566D01*
X2455Y12567D01*
X2447Y12567D01*
X2440Y12567D01*
X2433Y12567D01*
X2427Y12567D01*
X2419Y12566D01*
X2412Y12565D01*
X2406Y12564D01*
X2399Y12563D01*
X2392Y12562D01*
X2385Y12561D01*
X2378Y12559D01*
X2372Y12557D01*
X2365Y12555D01*
X2358Y12553D01*
X2352Y12550D01*
X2345Y12548D01*
X2339Y12545D01*
X2332Y12542D01*
X2326Y12539D01*
X2320Y12536D01*
X2314Y12532D01*
X2307Y12528D01*
X2302Y12524D01*
X2296Y12521D01*
X2291Y12516D01*
X2285Y12512D01*
X2280Y12507D01*
X2274Y12503D01*
X2269Y12498D01*
X2264Y12493D01*
X2259Y12488D01*
X2255Y12483D01*
X2250Y12478D01*
X2245Y12472D01*
X2241Y12467D01*
X2237Y12461D01*
X2233Y12455D01*
X2229Y12449D01*
X2226Y12443D01*
X2222Y12438D01*
X2219Y12431D01*
X2216Y12425D01*
X2213Y12418D01*
X2210Y12412D01*
X2208Y12406D01*
X2205Y12399D01*
X2203Y12392D01*
X2201Y12386D01*
X2200Y12379D01*
X2198Y12372D01*
X2197Y12365D01*
X2195Y12359D01*
X2194Y12351D01*
X2193Y12344D01*
X2193Y12337D01*
X2192Y12331D01*
X2192Y12325D01*
X2192Y12318D01*
X2192Y5171D01*
X2192Y5161D01*
X2192Y5152D01*
X2193Y5148D01*
X2193Y5143D01*
X2195Y5134D01*
X2196Y5124D01*
X2197Y5120D01*
X2198Y5116D01*
X2201Y5106D01*
X2203Y5097D01*
X2205Y5093D01*
X2206Y5089D01*
X2209Y5080D01*
X2213Y5071D01*
X2215Y5067D01*
X2216Y5063D01*
X2221Y5054D01*
X2225Y5046D01*
X2228Y5042D01*
X2230Y5038D01*
X2236Y5030D01*
X2241Y5022D01*
X2244Y5019D01*
X2246Y5015D01*
X2253Y5008D01*
X2259Y5001D01*
X2262Y4998D01*
X2265Y4995D01*
X2272Y4988D01*
X2279Y4982D01*
X2283Y4979D01*
X2286Y4976D01*
X2294Y4970D01*
X2301Y4965D01*
X2305Y4962D01*
X2309Y4960D01*
X2317Y4955D01*
X2325Y4950D01*
X2329Y4948D01*
X2333Y4946D01*
X2342Y4943D01*
X2351Y4939D01*
X2355Y4937D01*
X2359Y4936D01*
X2368Y4933D01*
X2378Y4930D01*
X2382Y4929D01*
X2386Y4928D01*
X2396Y4926D01*
X2405Y4924D01*
X2409Y4924D01*
X2414Y4923D01*
X2423Y4923D01*
X2433Y4922D01*
X2437Y4922D01*
X2442Y4922D01*
X2451Y4922D01*
X2461Y4923D01*
X2465Y4923D01*
X2470Y4923D01*
X2479Y4925D01*
X2489Y4926D01*
X2493Y4928D01*
X2497Y4928D01*
X2507Y4931D01*
X2516Y4933D01*
X2520Y4935D01*
X2524Y4936D01*
X2533Y4940D01*
X2542Y4943D01*
X2546Y4945D01*
X2550Y4947D01*
X2557Y4951D01*
X2566Y4955D01*
X2592Y4971D01*
X2818Y5031D01*
X3051Y5031D01*
X3277Y4971D01*
X3479Y4854D01*
X3644Y4689D01*
X3761Y4487D01*
X3821Y4261D01*
X3821Y4028D01*
X3761Y3802D01*
X3644Y3600D01*
X3479Y3435D01*
X3277Y3318D01*
X3051Y3258D01*
X2818Y3258D01*
X2592Y3318D01*
X2566Y3334D01*
X2557Y3338D01*
X2549Y3343D01*
X2545Y3344D01*
X2541Y3346D01*
X2532Y3350D01*
X2523Y3353D01*
X2518Y3355D01*
X2514Y3356D01*
X2505Y3358D01*
X2496Y3361D01*
X2491Y3362D01*
X2487Y3363D01*
X2478Y3364D01*
X2468Y3366D01*
X2464Y3366D01*
X2459Y3367D01*
X2450Y3367D01*
X2440Y3367D01*
X2436Y3367D01*
X2431Y3367D01*
X2422Y3366D01*
X2412Y3366D01*
X2408Y3365D01*
X2403Y3364D01*
X2394Y3362D01*
X2385Y3361D01*
X2380Y3360D01*
X2376Y3359D01*
X2367Y3356D01*
X2358Y3353D01*
X2354Y3351D01*
X2349Y3350D01*
X2341Y3346D01*
X2332Y3342D01*
X2328Y3340D01*
X2324Y3338D01*
X2316Y3333D01*
X2307Y3328D01*
X2304Y3326D01*
X2300Y3324D01*
X2292Y3318D01*
X2285Y3312D01*
X2281Y3309D01*
X2278Y3306D01*
X2271Y3300D01*
X2264Y3293D01*
X2261Y3290D01*
X2258Y3287D01*
X2252Y3280D01*
X2245Y3272D01*
X2243Y3269D01*
X2240Y3265D01*
X2235Y3257D01*
X2229Y3249D01*
X2227Y3246D01*
X2225Y3242D01*
X2220Y3233D01*
X2216Y3225D01*
X2214Y3221D01*
X2212Y3217D01*
X2209Y3208D01*
X2205Y3199D01*
X2204Y3195D01*
X2203Y3191D01*
X2200Y3181D01*
X2198Y3172D01*
X2197Y3168D01*
X2196Y3163D01*
X2195Y3154D01*
X2193Y3144D01*
X2193Y3140D01*
X2192Y3136D01*
X2192Y3127D01*
X2192Y3118D01*
X2192Y2149D01*
X2192Y2139D01*
X2192Y2129D01*
X2193Y2125D01*
X2193Y2121D01*
X2195Y2112D01*
X2196Y2102D01*
X2197Y2098D01*
X2198Y2094D01*
X2201Y2084D01*
X2203Y2075D01*
X2205Y2071D01*
X2206Y2067D01*
X2210Y2058D01*
X2213Y2048D01*
X2215Y2045D01*
X2216Y2041D01*
X2221Y2034D01*
X2225Y2025D01*
X2309Y1879D01*
X2363Y1679D01*
X2363Y1471D01*
X2301Y1241D01*
X2299Y1229D01*
X2296Y1217D01*
X2296Y1215D01*
X2296Y1214D01*
X2295Y1202D01*
X2293Y1189D01*
X2293Y1188D01*
X2293Y1186D01*
X2293Y1174D01*
X2293Y1161D01*
X2294Y1160D01*
X2294Y1158D01*
X2295Y1146D01*
X2297Y1134D01*
X2297Y1132D01*
X2297Y1130D01*
X2300Y1118D01*
X2303Y1106D01*
X2304Y1105D01*
X2304Y1103D01*
X2307Y1094D01*
X2312Y1081D01*
X2319Y1065D01*
X2319Y1059D01*
X2320Y1053D01*
X2321Y1047D01*
X2322Y1043D01*
X2319Y1025D01*
X2319Y1023D01*
X2319Y1020D01*
X2318Y1007D01*
X2317Y997D01*
X2317Y996D01*
X2317Y994D01*
X2317Y976D01*
X2315Y970D01*
X2314Y965D01*
X2312Y959D01*
X2311Y950D01*
X2309Y943D01*
X2309Y938D01*
X2308Y933D01*
X2254Y504D01*
X2254Y502D01*
X2253Y500D01*
X2253Y488D01*
X2252Y476D01*
X2252Y474D01*
X2252Y472D01*
X2252Y460D01*
X2253Y448D01*
X2253Y446D01*
X2253Y444D01*
X2255Y432D01*
X2257Y420D01*
X2258Y418D01*
X2258Y416D01*
X2262Y405D01*
X2265Y393D01*
X2265Y391D01*
X2266Y389D01*
X2271Y378D01*
X2275Y367D01*
X2276Y365D01*
X2277Y363D01*
X2283Y353D01*
X2288Y342D01*
X2289Y341D01*
X2290Y339D01*
X2297Y329D01*
X2304Y319D01*
X2306Y318D01*
X2307Y316D01*
X2315Y307D01*
X2323Y298D01*
X2324Y297D01*
X2326Y295D01*
X2335Y287D01*
X2343Y279D01*
X2345Y278D01*
X2347Y277D01*
X2356Y270D01*
X2366Y263D01*
X2368Y262D01*
X2369Y261D01*
X2380Y255D01*
X2390Y249D01*
X2392Y248D01*
X2394Y247D01*
X2405Y243D01*
X2416Y238D01*
X2418Y237D01*
X2420Y237D01*
X2432Y233D01*
X2443Y230D01*
X2445Y230D01*
X2447Y229D01*
X2459Y227D01*
X2471Y225D01*
X2473Y225D01*
X2475Y225D01*
X2490Y224D01*
X2499Y223D01*
X2500Y223D01*
X2501Y223D01*
X2781Y223D01*
X2797Y217D01*
X2804Y214D01*
X2811Y211D01*
X2817Y209D01*
X2823Y207D01*
X2831Y206D01*
X2838Y204D01*
X2844Y203D01*
X2850Y201D01*
X2858Y200D01*
X2866Y199D01*
X2872Y199D01*
X2878Y198D01*
X2885Y198D01*
X2892Y198D01*
X54671Y198D01*
X54672Y198D01*
G37*
%LPC*%
G36*
X7935Y1082D02*
X7935Y1082D01*
X7754Y1157D01*
X6209Y2702D01*
X6199Y2711D01*
X6189Y2720D01*
X6188Y2721D01*
X6177Y2729D01*
X6166Y2736D01*
X6165Y2737D01*
X6153Y2743D01*
X6141Y2750D01*
X6140Y2750D01*
X6128Y2756D01*
X6115Y2761D01*
X6114Y2761D01*
X6101Y2765D01*
X6088Y2768D01*
X6087Y2769D01*
X6074Y2771D01*
X6061Y2773D01*
X6060Y2773D01*
X6033Y2775D01*
X5931Y2775D01*
X5728Y2829D01*
X5546Y2934D01*
X5398Y3082D01*
X5293Y3264D01*
X5238Y3467D01*
X5238Y3677D01*
X5293Y3880D01*
X5398Y4062D01*
X5470Y4134D01*
X5470Y4135D01*
X5471Y4135D01*
X5480Y4145D01*
X5489Y4155D01*
X5489Y4156D01*
X5497Y4167D01*
X5505Y4178D01*
X5505Y4179D01*
X5506Y4179D01*
X5512Y4191D01*
X5518Y4203D01*
X5519Y4203D01*
X5519Y4204D01*
X5524Y4216D01*
X5529Y4228D01*
X5529Y4229D01*
X5530Y4230D01*
X5533Y4243D01*
X5537Y4255D01*
X5537Y4256D01*
X5539Y4270D01*
X5542Y4283D01*
X5542Y4284D01*
X5543Y4311D01*
X5543Y8102D01*
X5618Y8284D01*
X6414Y9079D01*
X6595Y9154D01*
X7842Y9154D01*
X7843Y9154D01*
X7844Y9154D01*
X7857Y9155D01*
X7870Y9156D01*
X7871Y9156D01*
X7872Y9156D01*
X7885Y9158D01*
X7898Y9161D01*
X7899Y9161D01*
X7912Y9165D01*
X7925Y9168D01*
X7925Y9169D01*
X7926Y9169D01*
X7938Y9174D01*
X7951Y9179D01*
X7952Y9180D01*
X7964Y9186D01*
X7975Y9193D01*
X7976Y9193D01*
X7987Y9201D01*
X7998Y9209D01*
X7999Y9209D01*
X7999Y9210D01*
X8019Y9227D01*
X8057Y9266D01*
X8130Y9296D01*
X9035Y9296D01*
X9108Y9266D01*
X9164Y9210D01*
X9194Y9138D01*
X9194Y8232D01*
X9164Y8160D01*
X9108Y8104D01*
X9035Y8074D01*
X8130Y8074D01*
X8055Y8105D01*
X8045Y8114D01*
X8045Y8115D01*
X8044Y8115D01*
X8033Y8123D01*
X8022Y8130D01*
X8022Y8131D01*
X8021Y8131D01*
X8009Y8137D01*
X7998Y8144D01*
X7997Y8144D01*
X7984Y8150D01*
X7972Y8155D01*
X7971Y8155D01*
X7958Y8159D01*
X7945Y8162D01*
X7944Y8162D01*
X7944Y8163D01*
X7930Y8165D01*
X7917Y8167D01*
X7916Y8167D01*
X7890Y8169D01*
X7000Y8169D01*
X6999Y8169D01*
X6986Y8168D01*
X6972Y8167D01*
X6971Y8167D01*
X6958Y8165D01*
X6945Y8162D01*
X6944Y8162D01*
X6931Y8158D01*
X6918Y8154D01*
X6917Y8154D01*
X6904Y8149D01*
X6892Y8144D01*
X6891Y8143D01*
X6879Y8137D01*
X6867Y8130D01*
X6866Y8130D01*
X6856Y8122D01*
X6845Y8114D01*
X6844Y8114D01*
X6844Y8113D01*
X6824Y8096D01*
X6602Y7873D01*
X6601Y7873D01*
X6601Y7872D01*
X6592Y7862D01*
X6583Y7852D01*
X6582Y7851D01*
X6575Y7840D01*
X6567Y7830D01*
X6567Y7829D01*
X6566Y7829D01*
X6560Y7817D01*
X6553Y7805D01*
X6553Y7804D01*
X6548Y7791D01*
X6543Y7779D01*
X6542Y7778D01*
X6539Y7765D01*
X6535Y7752D01*
X6535Y7751D01*
X6533Y7738D01*
X6530Y7725D01*
X6530Y7724D01*
X6530Y7723D01*
X6529Y7697D01*
X6529Y4311D01*
X6529Y4310D01*
X6529Y4309D01*
X6530Y4296D01*
X6530Y4283D01*
X6530Y4282D01*
X6531Y4281D01*
X6533Y4268D01*
X6535Y4255D01*
X6535Y4254D01*
X6539Y4241D01*
X6543Y4228D01*
X6543Y4227D01*
X6548Y4214D01*
X6554Y4202D01*
X6554Y4201D01*
X6561Y4189D01*
X6567Y4178D01*
X6567Y4177D01*
X6568Y4177D01*
X6576Y4166D01*
X6583Y4155D01*
X6584Y4154D01*
X6602Y4134D01*
X6674Y4062D01*
X6779Y3880D01*
X6834Y3677D01*
X6834Y3575D01*
X6834Y3574D01*
X6834Y3560D01*
X6835Y3547D01*
X6835Y3546D01*
X6838Y3533D01*
X6840Y3519D01*
X6840Y3518D01*
X6844Y3505D01*
X6848Y3492D01*
X6848Y3491D01*
X6853Y3479D01*
X6858Y3467D01*
X6859Y3466D01*
X6859Y3465D01*
X6865Y3454D01*
X6872Y3442D01*
X6873Y3441D01*
X6880Y3430D01*
X6888Y3419D01*
X6889Y3419D01*
X6889Y3418D01*
X6907Y3399D01*
X8164Y2141D01*
X8165Y2140D01*
X8175Y2131D01*
X8185Y2122D01*
X8186Y2122D01*
X8186Y2121D01*
X8197Y2114D01*
X8208Y2106D01*
X8209Y2106D01*
X8209Y2105D01*
X8221Y2099D01*
X8233Y2092D01*
X8234Y2092D01*
X8246Y2087D01*
X8259Y2082D01*
X8259Y2081D01*
X8260Y2081D01*
X8273Y2078D01*
X8286Y2074D01*
X8287Y2074D01*
X8300Y2071D01*
X8313Y2069D01*
X8314Y2069D01*
X8341Y2068D01*
X16622Y2068D01*
X16623Y2068D01*
X16636Y2068D01*
X16650Y2069D01*
X16651Y2069D01*
X16664Y2072D01*
X16677Y2074D01*
X16678Y2074D01*
X16691Y2078D01*
X16704Y2082D01*
X16705Y2082D01*
X16718Y2087D01*
X16730Y2092D01*
X16731Y2093D01*
X16743Y2100D01*
X16755Y2106D01*
X16756Y2107D01*
X16766Y2115D01*
X16777Y2122D01*
X16778Y2123D01*
X16798Y2141D01*
X16870Y2213D01*
X17044Y2386D01*
X17225Y2461D01*
X22724Y2461D01*
X22725Y2461D01*
X22739Y2462D01*
X22752Y2463D01*
X22753Y2463D01*
X22766Y2465D01*
X22780Y2468D01*
X22781Y2468D01*
X22794Y2472D01*
X22807Y2475D01*
X22807Y2476D01*
X22808Y2476D01*
X22820Y2481D01*
X22832Y2486D01*
X22833Y2486D01*
X22834Y2487D01*
X22845Y2493D01*
X22857Y2500D01*
X22858Y2500D01*
X22869Y2508D01*
X22880Y2516D01*
X22881Y2517D01*
X22900Y2534D01*
X24151Y3785D01*
X24158Y3792D01*
X24164Y3800D01*
X24167Y3803D01*
X24170Y3806D01*
X24175Y3814D01*
X24181Y3822D01*
X24183Y3825D01*
X24186Y3829D01*
X24191Y3837D01*
X24196Y3846D01*
X24197Y3850D01*
X24199Y3853D01*
X24203Y3862D01*
X24206Y3868D01*
X24315Y4057D01*
X24463Y4205D01*
X24645Y4310D01*
X24848Y4365D01*
X25058Y4365D01*
X25261Y4310D01*
X25442Y4205D01*
X25515Y4133D01*
X25515Y4132D01*
X25516Y4132D01*
X25526Y4123D01*
X25536Y4114D01*
X25537Y4113D01*
X25548Y4106D01*
X25559Y4098D01*
X25560Y4097D01*
X25571Y4091D01*
X25583Y4084D01*
X25584Y4084D01*
X25597Y4079D01*
X25609Y4074D01*
X25610Y4074D01*
X25610Y4073D01*
X25623Y4070D01*
X25636Y4066D01*
X25637Y4066D01*
X25650Y4064D01*
X25664Y4061D01*
X25665Y4061D01*
X25691Y4060D01*
X25838Y4060D01*
X26019Y3985D01*
X27667Y2338D01*
X27667Y2337D01*
X27677Y2328D01*
X27687Y2319D01*
X27688Y2319D01*
X27688Y2318D01*
X27699Y2310D01*
X27710Y2303D01*
X27711Y2302D01*
X27723Y2296D01*
X27735Y2289D01*
X27736Y2289D01*
X27748Y2284D01*
X27761Y2278D01*
X27762Y2278D01*
X27775Y2274D01*
X27788Y2271D01*
X27789Y2270D01*
X27802Y2268D01*
X27815Y2266D01*
X27816Y2266D01*
X27843Y2265D01*
X40637Y2265D01*
X40638Y2265D01*
X40639Y2265D01*
X40652Y2265D01*
X40665Y2266D01*
X40666Y2266D01*
X40667Y2266D01*
X40680Y2269D01*
X40693Y2271D01*
X40694Y2271D01*
X40707Y2275D01*
X40720Y2279D01*
X40721Y2279D01*
X40733Y2284D01*
X40746Y2289D01*
X40746Y2290D01*
X40747Y2290D01*
X40759Y2296D01*
X40770Y2303D01*
X40771Y2303D01*
X40771Y2304D01*
X40782Y2311D01*
X40793Y2319D01*
X40794Y2320D01*
X40814Y2338D01*
X42461Y3985D01*
X42642Y4060D01*
X42994Y4060D01*
X42995Y4060D01*
X43008Y4061D01*
X43022Y4061D01*
X43023Y4062D01*
X43036Y4064D01*
X43050Y4066D01*
X43051Y4066D01*
X43064Y4070D01*
X43076Y4074D01*
X43077Y4074D01*
X43078Y4074D01*
X43090Y4079D01*
X43102Y4085D01*
X43103Y4085D01*
X43115Y4092D01*
X43127Y4098D01*
X43127Y4099D01*
X43128Y4099D01*
X43139Y4107D01*
X43150Y4114D01*
X43150Y4115D01*
X43151Y4115D01*
X43170Y4133D01*
X43243Y4205D01*
X43424Y4310D01*
X43627Y4365D01*
X43837Y4365D01*
X44040Y4310D01*
X44222Y4205D01*
X44371Y4057D01*
X44476Y3875D01*
X44530Y3672D01*
X44530Y3462D01*
X44476Y3259D01*
X44371Y3077D01*
X44222Y2929D01*
X44040Y2824D01*
X43837Y2769D01*
X43627Y2769D01*
X43424Y2824D01*
X43243Y2929D01*
X43197Y2974D01*
X43197Y2975D01*
X43196Y2975D01*
X43186Y2984D01*
X43176Y2993D01*
X43175Y2993D01*
X43164Y3001D01*
X43153Y3009D01*
X43153Y3010D01*
X43141Y3016D01*
X43129Y3023D01*
X43128Y3023D01*
X43116Y3028D01*
X43103Y3033D01*
X43102Y3033D01*
X43102Y3034D01*
X43089Y3037D01*
X43076Y3041D01*
X43075Y3041D01*
X43062Y3043D01*
X43048Y3046D01*
X43034Y3046D01*
X43020Y3047D01*
X43006Y3046D01*
X42992Y3046D01*
X42978Y3043D01*
X42965Y3041D01*
X42964Y3041D01*
X42951Y3037D01*
X42938Y3033D01*
X42937Y3033D01*
X42925Y3028D01*
X42912Y3022D01*
X42911Y3022D01*
X42899Y3015D01*
X42888Y3009D01*
X42887Y3008D01*
X42876Y3000D01*
X42865Y2992D01*
X42864Y2992D01*
X42845Y2974D01*
X41989Y2118D01*
X41739Y1869D01*
X41490Y1620D01*
X41241Y1371D01*
X41224Y1354D01*
X41043Y1279D01*
X27437Y1279D01*
X27256Y1354D01*
X25729Y2881D01*
X25722Y2887D01*
X25715Y2894D01*
X25711Y2897D01*
X25708Y2900D01*
X25700Y2905D01*
X25692Y2911D01*
X25689Y2913D01*
X25685Y2916D01*
X25677Y2920D01*
X25668Y2926D01*
X25665Y2927D01*
X25661Y2929D01*
X25652Y2933D01*
X25643Y2937D01*
X25639Y2938D01*
X25635Y2940D01*
X25626Y2943D01*
X25616Y2946D01*
X25612Y2947D01*
X25608Y2948D01*
X25598Y2949D01*
X25589Y2951D01*
X25585Y2952D01*
X25580Y2952D01*
X25571Y2953D01*
X25561Y2954D01*
X25557Y2954D01*
X25553Y2954D01*
X25543Y2953D01*
X25533Y2953D01*
X25529Y2953D01*
X25525Y2952D01*
X25515Y2951D01*
X25505Y2949D01*
X25501Y2948D01*
X25497Y2948D01*
X25488Y2945D01*
X25478Y2942D01*
X25474Y2941D01*
X25470Y2940D01*
X25461Y2936D01*
X25452Y2932D01*
X25448Y2930D01*
X25444Y2929D01*
X25437Y2925D01*
X25428Y2920D01*
X25261Y2824D01*
X25058Y2769D01*
X24848Y2769D01*
X24736Y2799D01*
X24731Y2800D01*
X24726Y2802D01*
X24717Y2803D01*
X24708Y2805D01*
X24703Y2806D01*
X24698Y2806D01*
X24689Y2807D01*
X24680Y2808D01*
X24675Y2808D01*
X24670Y2808D01*
X24661Y2807D01*
X24652Y2807D01*
X24647Y2806D01*
X24642Y2806D01*
X24633Y2805D01*
X24625Y2803D01*
X24620Y2802D01*
X24614Y2801D01*
X24606Y2799D01*
X24597Y2797D01*
X24593Y2795D01*
X24588Y2793D01*
X24579Y2790D01*
X24571Y2787D01*
X24567Y2785D01*
X24562Y2783D01*
X24554Y2778D01*
X24546Y2774D01*
X24542Y2771D01*
X24537Y2769D01*
X24530Y2764D01*
X24523Y2759D01*
X24519Y2756D01*
X24515Y2753D01*
X24507Y2746D01*
X24501Y2741D01*
X24498Y2738D01*
X24495Y2735D01*
X23878Y2118D01*
X23629Y1869D01*
X23380Y1620D01*
X23311Y1551D01*
X23130Y1476D01*
X17630Y1476D01*
X17629Y1476D01*
X17616Y1475D01*
X17602Y1474D01*
X17601Y1474D01*
X17588Y1472D01*
X17575Y1469D01*
X17574Y1469D01*
X17561Y1465D01*
X17548Y1462D01*
X17547Y1461D01*
X17534Y1456D01*
X17522Y1451D01*
X17521Y1451D01*
X17521Y1450D01*
X17509Y1444D01*
X17497Y1437D01*
X17496Y1437D01*
X17486Y1429D01*
X17475Y1421D01*
X17474Y1421D01*
X17474Y1420D01*
X17454Y1403D01*
X17422Y1371D01*
X17382Y1331D01*
X17208Y1157D01*
X17027Y1082D01*
X7935Y1082D01*
G37*
%LPD*%
%LPC*%
G36*
X43390Y7493D02*
X43390Y7493D01*
X43099Y7493D01*
X43107Y7502D01*
X43116Y7512D01*
X43116Y7513D01*
X43124Y7524D01*
X43132Y7535D01*
X43132Y7536D01*
X43139Y7548D01*
X43146Y7560D01*
X43151Y7573D01*
X43156Y7586D01*
X43160Y7599D01*
X43164Y7613D01*
X43166Y7627D01*
X43169Y7640D01*
X43169Y7641D01*
X43169Y7655D01*
X43170Y7668D01*
X43170Y7669D01*
X43169Y7683D01*
X43169Y7696D01*
X43168Y7696D01*
X43168Y7697D01*
X43166Y7710D01*
X43164Y7724D01*
X43160Y7738D01*
X43156Y7751D01*
X43150Y7764D01*
X43145Y7776D01*
X43145Y7777D01*
X43138Y7789D01*
X43132Y7801D01*
X43131Y7801D01*
X43131Y7802D01*
X43123Y7813D01*
X43115Y7824D01*
X43097Y7844D01*
X42984Y7957D01*
X42911Y8133D01*
X42911Y8324D01*
X42995Y8527D01*
X42996Y8528D01*
X43000Y8541D01*
X43004Y8553D01*
X43005Y8554D01*
X43008Y8567D01*
X43011Y8580D01*
X43011Y8581D01*
X43011Y8582D01*
X43012Y8595D01*
X43014Y8608D01*
X43014Y8609D01*
X43014Y8623D01*
X43014Y8636D01*
X43014Y8637D01*
X43012Y8651D01*
X43011Y8664D01*
X43010Y8665D01*
X43007Y8678D01*
X43004Y8691D01*
X43004Y8692D01*
X43004Y8693D01*
X42995Y8717D01*
X42911Y8921D01*
X42911Y9111D01*
X43001Y9329D01*
X43004Y9336D01*
X43005Y9338D01*
X43007Y9343D01*
X43009Y9349D01*
X43011Y9356D01*
X43012Y9363D01*
X43014Y9370D01*
X43015Y9377D01*
X43017Y9383D01*
X43018Y9390D01*
X43019Y9398D01*
X43019Y9404D01*
X43020Y9411D01*
X43020Y9418D01*
X43020Y9426D01*
X43020Y9432D01*
X43020Y9439D01*
X43019Y9446D01*
X43019Y9454D01*
X43018Y9460D01*
X43017Y9467D01*
X43015Y9474D01*
X43014Y9481D01*
X43012Y9487D01*
X43011Y9494D01*
X43008Y9501D01*
X43006Y9508D01*
X43003Y9514D01*
X43001Y9520D01*
X42998Y9527D01*
X42995Y9534D01*
X42992Y9540D01*
X42989Y9545D01*
X42985Y9552D01*
X42981Y9558D01*
X42978Y9564D01*
X42974Y9569D01*
X42969Y9575D01*
X42965Y9581D01*
X42960Y9586D01*
X42957Y9591D01*
X42952Y9595D01*
X42947Y9601D01*
X42941Y9607D01*
X42911Y9680D01*
X42911Y10342D01*
X42912Y10349D01*
X42913Y10363D01*
X42913Y10377D01*
X42913Y10391D01*
X42912Y10405D01*
X42910Y10418D01*
X42910Y10419D01*
X42907Y10432D01*
X42904Y10446D01*
X42899Y10459D01*
X42895Y10472D01*
X42894Y10473D01*
X42888Y10485D01*
X42882Y10497D01*
X42882Y10498D01*
X42875Y10509D01*
X42867Y10521D01*
X42859Y10532D01*
X42850Y10543D01*
X42840Y10553D01*
X42830Y10563D01*
X42819Y10572D01*
X42808Y10580D01*
X42796Y10588D01*
X42784Y10595D01*
X42772Y10601D01*
X42759Y10607D01*
X42746Y10612D01*
X42733Y10616D01*
X42732Y10616D01*
X42719Y10619D01*
X42705Y10622D01*
X42691Y10624D01*
X42678Y10625D01*
X42677Y10625D01*
X42663Y10625D01*
X42650Y10625D01*
X42649Y10625D01*
X42635Y10624D01*
X42622Y10622D01*
X42621Y10622D01*
X42608Y10619D01*
X42594Y10616D01*
X42569Y10607D01*
X42452Y10558D01*
X42193Y10558D01*
X41954Y10657D01*
X41771Y10840D01*
X41672Y11079D01*
X41672Y11338D01*
X41771Y11577D01*
X41954Y11760D01*
X42193Y11859D01*
X42452Y11859D01*
X42728Y11745D01*
X42734Y11743D01*
X42741Y11740D01*
X42748Y11738D01*
X42754Y11736D01*
X42761Y11734D01*
X42768Y11732D01*
X42775Y11731D01*
X42781Y11730D01*
X42789Y11729D01*
X42796Y11727D01*
X42802Y11727D01*
X42809Y11726D01*
X42816Y11726D01*
X42824Y11726D01*
X42830Y11726D01*
X42837Y11726D01*
X42844Y11727D01*
X42852Y11728D01*
X42858Y11729D01*
X42865Y11730D01*
X42872Y11731D01*
X42879Y11732D01*
X42886Y11734D01*
X42892Y11736D01*
X42899Y11738D01*
X42906Y11740D01*
X42912Y11743D01*
X42919Y11745D01*
X42925Y11748D01*
X42932Y11751D01*
X42938Y11754D01*
X42944Y11757D01*
X42950Y11761D01*
X42956Y11765D01*
X42962Y11769D01*
X42968Y11772D01*
X42973Y11777D01*
X42979Y11781D01*
X42984Y11786D01*
X42989Y11790D01*
X42995Y11795D01*
X43000Y11800D01*
X43004Y11805D01*
X43009Y11810D01*
X43014Y11815D01*
X43019Y11821D01*
X43022Y11826D01*
X43027Y11832D01*
X43030Y11838D01*
X43035Y11844D01*
X43038Y11850D01*
X43041Y11855D01*
X43045Y11862D01*
X43048Y11868D01*
X43051Y11875D01*
X43053Y11881D01*
X43056Y11887D01*
X43059Y11894D01*
X43060Y11901D01*
X43063Y11907D01*
X43064Y11914D01*
X43066Y11921D01*
X43067Y11928D01*
X43069Y11934D01*
X43070Y11942D01*
X43071Y11949D01*
X43071Y11956D01*
X43072Y11962D01*
X43072Y11968D01*
X43072Y11975D01*
X43072Y13881D01*
X43072Y13882D01*
X43071Y13895D01*
X43071Y13909D01*
X43070Y13909D01*
X43070Y13910D01*
X43068Y13923D01*
X43066Y13936D01*
X43066Y13937D01*
X43062Y13950D01*
X43058Y13963D01*
X43058Y13964D01*
X43052Y13977D01*
X43047Y13989D01*
X43047Y13990D01*
X43040Y14002D01*
X43034Y14014D01*
X43033Y14014D01*
X43033Y14015D01*
X43025Y14025D01*
X43018Y14036D01*
X43017Y14037D01*
X42999Y14057D01*
X42975Y14082D01*
X42944Y14154D01*
X42944Y15020D01*
X42975Y15093D01*
X43030Y15148D01*
X43114Y15183D01*
X43123Y15185D01*
X43124Y15185D01*
X43137Y15189D01*
X43150Y15193D01*
X43151Y15193D01*
X43163Y15198D01*
X43176Y15203D01*
X43176Y15204D01*
X43188Y15210D01*
X43200Y15217D01*
X43201Y15217D01*
X43212Y15225D01*
X43223Y15233D01*
X43224Y15234D01*
X43234Y15243D01*
X43244Y15252D01*
X43253Y15263D01*
X43262Y15273D01*
X43263Y15273D01*
X43271Y15284D01*
X43279Y15296D01*
X43285Y15308D01*
X43292Y15320D01*
X43292Y15321D01*
X43298Y15334D01*
X43303Y15346D01*
X43303Y15347D01*
X43307Y15360D01*
X43310Y15373D01*
X43311Y15373D01*
X43311Y15374D01*
X43313Y15387D01*
X43315Y15401D01*
X43317Y15428D01*
X43317Y17577D01*
X43317Y17578D01*
X43316Y17591D01*
X43315Y17605D01*
X43315Y17606D01*
X43313Y17620D01*
X43310Y17633D01*
X43310Y17634D01*
X43306Y17647D01*
X43303Y17660D01*
X43302Y17660D01*
X43302Y17661D01*
X43297Y17673D01*
X43292Y17686D01*
X43291Y17687D01*
X43285Y17698D01*
X43278Y17710D01*
X43278Y17711D01*
X43270Y17722D01*
X43262Y17733D01*
X43261Y17734D01*
X43244Y17754D01*
X43215Y17782D01*
X43215Y18194D01*
X43322Y18301D01*
X43322Y18302D01*
X43323Y18302D01*
X43332Y18312D01*
X43341Y18322D01*
X43341Y18323D01*
X43349Y18334D01*
X43357Y18345D01*
X43357Y18346D01*
X43364Y18358D01*
X43370Y18370D01*
X43371Y18370D01*
X43371Y18371D01*
X43376Y18383D01*
X43381Y18395D01*
X43381Y18396D01*
X43381Y18397D01*
X43385Y18410D01*
X43389Y18422D01*
X43389Y18423D01*
X43389Y18424D01*
X43391Y18437D01*
X43393Y18450D01*
X43394Y18451D01*
X43395Y18478D01*
X43395Y18499D01*
X43395Y18500D01*
X43394Y18513D01*
X43393Y18527D01*
X43393Y18528D01*
X43391Y18541D01*
X43389Y18554D01*
X43389Y18555D01*
X43388Y18556D01*
X43385Y18568D01*
X43381Y18581D01*
X43381Y18582D01*
X43375Y18595D01*
X43370Y18607D01*
X43370Y18608D01*
X43363Y18620D01*
X43357Y18632D01*
X43356Y18632D01*
X43356Y18633D01*
X43348Y18643D01*
X43340Y18655D01*
X43322Y18675D01*
X43215Y18782D01*
X43215Y19194D01*
X43322Y19301D01*
X43322Y19302D01*
X43323Y19302D01*
X43332Y19312D01*
X43341Y19322D01*
X43341Y19323D01*
X43349Y19334D01*
X43357Y19345D01*
X43357Y19346D01*
X43364Y19358D01*
X43370Y19370D01*
X43371Y19370D01*
X43371Y19371D01*
X43376Y19383D01*
X43381Y19395D01*
X43381Y19396D01*
X43381Y19397D01*
X43385Y19409D01*
X43389Y19422D01*
X43389Y19423D01*
X43389Y19424D01*
X43391Y19437D01*
X43393Y19450D01*
X43394Y19451D01*
X43395Y19478D01*
X43395Y19499D01*
X43395Y19500D01*
X43394Y19513D01*
X43393Y19527D01*
X43393Y19528D01*
X43391Y19541D01*
X43389Y19554D01*
X43389Y19555D01*
X43388Y19556D01*
X43385Y19568D01*
X43381Y19581D01*
X43381Y19582D01*
X43375Y19595D01*
X43370Y19607D01*
X43370Y19608D01*
X43363Y19620D01*
X43357Y19632D01*
X43356Y19632D01*
X43356Y19633D01*
X43348Y19644D01*
X43340Y19655D01*
X43322Y19675D01*
X43215Y19782D01*
X43215Y20194D01*
X43322Y20301D01*
X43322Y20302D01*
X43323Y20302D01*
X43332Y20312D01*
X43341Y20322D01*
X43341Y20323D01*
X43349Y20334D01*
X43357Y20345D01*
X43357Y20346D01*
X43364Y20358D01*
X43370Y20370D01*
X43371Y20370D01*
X43371Y20371D01*
X43376Y20383D01*
X43381Y20395D01*
X43381Y20396D01*
X43381Y20397D01*
X43385Y20409D01*
X43389Y20422D01*
X43389Y20423D01*
X43389Y20424D01*
X43391Y20437D01*
X43393Y20450D01*
X43394Y20451D01*
X43395Y20478D01*
X43395Y20499D01*
X43395Y20500D01*
X43394Y20513D01*
X43393Y20527D01*
X43393Y20528D01*
X43391Y20541D01*
X43389Y20554D01*
X43389Y20555D01*
X43388Y20556D01*
X43385Y20568D01*
X43381Y20581D01*
X43381Y20582D01*
X43375Y20595D01*
X43370Y20607D01*
X43370Y20608D01*
X43363Y20620D01*
X43357Y20632D01*
X43356Y20632D01*
X43356Y20633D01*
X43348Y20644D01*
X43340Y20655D01*
X43322Y20675D01*
X43215Y20782D01*
X43215Y21194D01*
X43342Y21321D01*
X43343Y21322D01*
X43351Y21332D01*
X43360Y21342D01*
X43361Y21342D01*
X43361Y21343D01*
X43369Y21354D01*
X43377Y21365D01*
X43377Y21366D01*
X43384Y21378D01*
X43390Y21389D01*
X43390Y21390D01*
X43391Y21390D01*
X43396Y21403D01*
X43401Y21415D01*
X43401Y21416D01*
X43405Y21429D01*
X43408Y21442D01*
X43409Y21443D01*
X43411Y21456D01*
X43413Y21470D01*
X43413Y21471D01*
X43415Y21497D01*
X43415Y22843D01*
X43414Y22850D01*
X43414Y22858D01*
X43413Y22864D01*
X43413Y22871D01*
X43412Y22878D01*
X43411Y22886D01*
X43409Y22892D01*
X43408Y22898D01*
X43406Y22906D01*
X43405Y22913D01*
X43402Y22919D01*
X43401Y22925D01*
X43398Y22931D01*
X43396Y22938D01*
X43383Y22968D01*
X43383Y23095D01*
X43396Y23125D01*
X43398Y23132D01*
X43401Y23139D01*
X43403Y23145D01*
X43405Y23151D01*
X43407Y23159D01*
X43409Y23166D01*
X43410Y23172D01*
X43411Y23179D01*
X43412Y23186D01*
X43413Y23194D01*
X43414Y23201D01*
X43414Y23206D01*
X43414Y23213D01*
X43415Y23220D01*
X43415Y24685D01*
X43414Y24691D01*
X43414Y24696D01*
X43414Y24705D01*
X43413Y24713D01*
X43412Y24718D01*
X43412Y24724D01*
X43410Y24732D01*
X43408Y24741D01*
X43407Y24746D01*
X43406Y24751D01*
X43403Y24759D01*
X43401Y24768D01*
X43399Y24773D01*
X43397Y24778D01*
X43393Y24786D01*
X43390Y24794D01*
X43387Y24798D01*
X43385Y24803D01*
X43381Y24811D01*
X43376Y24818D01*
X43373Y24822D01*
X43371Y24827D01*
X43365Y24834D01*
X43360Y24841D01*
X43357Y24845D01*
X43353Y24849D01*
X43347Y24855D01*
X43341Y24862D01*
X43338Y24865D01*
X43334Y24869D01*
X43327Y24875D01*
X43320Y24881D01*
X43316Y24884D01*
X43312Y24887D01*
X43304Y24892D01*
X43298Y24897D01*
X43294Y24899D01*
X43290Y24901D01*
X43243Y24929D01*
X43094Y25077D01*
X42989Y25259D01*
X42935Y25462D01*
X42935Y25672D01*
X42989Y25875D01*
X43094Y26057D01*
X43243Y26205D01*
X43424Y26310D01*
X43627Y26365D01*
X43837Y26365D01*
X44040Y26310D01*
X44222Y26205D01*
X44371Y26057D01*
X44476Y25875D01*
X44530Y25672D01*
X44530Y25462D01*
X44476Y25259D01*
X44371Y25077D01*
X44222Y24929D01*
X44175Y24901D01*
X44170Y24898D01*
X44166Y24896D01*
X44158Y24891D01*
X44151Y24886D01*
X44147Y24883D01*
X44143Y24880D01*
X44136Y24874D01*
X44130Y24868D01*
X44126Y24864D01*
X44122Y24861D01*
X44116Y24854D01*
X44110Y24848D01*
X44107Y24844D01*
X44103Y24840D01*
X44098Y24833D01*
X44093Y24826D01*
X44090Y24821D01*
X44087Y24817D01*
X44083Y24809D01*
X44079Y24802D01*
X44076Y24797D01*
X44074Y24792D01*
X44071Y24784D01*
X44067Y24776D01*
X44065Y24771D01*
X44063Y24766D01*
X44061Y24758D01*
X44058Y24750D01*
X44057Y24744D01*
X44056Y24739D01*
X44054Y24731D01*
X44053Y24722D01*
X44052Y24717D01*
X44051Y24712D01*
X44051Y24702D01*
X44050Y24694D01*
X44050Y24690D01*
X44050Y24685D01*
X44050Y21494D01*
X44051Y21480D01*
X44051Y21466D01*
X44052Y21466D01*
X44054Y21452D01*
X44056Y21438D01*
X44060Y21425D01*
X44064Y21411D01*
X44069Y21398D01*
X44075Y21386D01*
X44075Y21385D01*
X44082Y21373D01*
X44088Y21361D01*
X44096Y21350D01*
X44104Y21338D01*
X44105Y21338D01*
X44114Y21328D01*
X44123Y21317D01*
X44134Y21308D01*
X44144Y21299D01*
X44156Y21291D01*
X44167Y21283D01*
X44167Y21282D01*
X44179Y21276D01*
X44191Y21269D01*
X44192Y21269D01*
X44205Y21264D01*
X44217Y21258D01*
X44218Y21258D01*
X44231Y21255D01*
X44244Y21251D01*
X44245Y21251D01*
X44258Y21249D01*
X44272Y21246D01*
X44286Y21245D01*
X44300Y21245D01*
X44314Y21246D01*
X44328Y21246D01*
X44342Y21249D01*
X44355Y21251D01*
X44356Y21251D01*
X44369Y21255D01*
X44382Y21259D01*
X44383Y21259D01*
X44396Y21265D01*
X44408Y21270D01*
X44409Y21270D01*
X44421Y21277D01*
X44433Y21283D01*
X44433Y21284D01*
X44444Y21292D01*
X44455Y21300D01*
X44456Y21300D01*
X44463Y21307D01*
X44463Y20988D01*
X44463Y19988D01*
X44463Y18988D01*
X44463Y17988D01*
X44463Y17671D01*
X44457Y17677D01*
X44447Y17686D01*
X44436Y17695D01*
X44436Y17696D01*
X44425Y17704D01*
X44414Y17712D01*
X44413Y17712D01*
X44401Y17719D01*
X44389Y17725D01*
X44388Y17725D01*
X44376Y17731D01*
X44363Y17736D01*
X44362Y17736D01*
X44349Y17740D01*
X44336Y17744D01*
X44335Y17744D01*
X44322Y17746D01*
X44309Y17748D01*
X44308Y17748D01*
X44294Y17749D01*
X44281Y17750D01*
X44280Y17750D01*
X44266Y17749D01*
X44253Y17748D01*
X44252Y17748D01*
X44239Y17746D01*
X44225Y17743D01*
X44224Y17743D01*
X44211Y17739D01*
X44198Y17736D01*
X44198Y17735D01*
X44197Y17735D01*
X44185Y17730D01*
X44172Y17725D01*
X44172Y17724D01*
X44160Y17718D01*
X44148Y17711D01*
X44147Y17711D01*
X44136Y17703D01*
X44125Y17695D01*
X44124Y17694D01*
X44105Y17677D01*
X44025Y17597D01*
X44024Y17596D01*
X44015Y17586D01*
X44006Y17576D01*
X44006Y17575D01*
X44005Y17575D01*
X43998Y17564D01*
X43990Y17553D01*
X43990Y17552D01*
X43989Y17552D01*
X43983Y17540D01*
X43976Y17528D01*
X43976Y17527D01*
X43971Y17515D01*
X43966Y17503D01*
X43966Y17502D01*
X43965Y17501D01*
X43962Y17488D01*
X43958Y17476D01*
X43958Y17475D01*
X43958Y17474D01*
X43956Y17461D01*
X43953Y17448D01*
X43953Y17447D01*
X43952Y17420D01*
X43952Y15428D01*
X43952Y15427D01*
X43953Y15414D01*
X43953Y15400D01*
X43953Y15399D01*
X43956Y15386D01*
X43958Y15372D01*
X43958Y15371D01*
X43962Y15358D01*
X43966Y15345D01*
X43971Y15332D01*
X43977Y15319D01*
X43984Y15307D01*
X43990Y15295D01*
X43991Y15294D01*
X43998Y15283D01*
X44006Y15272D01*
X44007Y15272D01*
X44016Y15261D01*
X44025Y15251D01*
X44026Y15251D01*
X44036Y15242D01*
X44046Y15233D01*
X44046Y15232D01*
X44047Y15232D01*
X44058Y15224D01*
X44069Y15216D01*
X44070Y15216D01*
X44081Y15210D01*
X44093Y15203D01*
X44094Y15203D01*
X44107Y15197D01*
X44119Y15192D01*
X44120Y15192D01*
X44133Y15188D01*
X44146Y15185D01*
X44147Y15185D01*
X44147Y15184D01*
X44159Y15182D01*
X44165Y15180D01*
X44166Y15180D01*
X44179Y15177D01*
X44193Y15174D01*
X44194Y15174D01*
X44207Y15173D01*
X44220Y15171D01*
X44221Y15171D01*
X44222Y15171D01*
X44235Y15171D01*
X44248Y15171D01*
X44249Y15171D01*
X44250Y15171D01*
X44263Y15173D01*
X44276Y15174D01*
X44277Y15174D01*
X44290Y15178D01*
X44295Y15179D01*
X45366Y15179D01*
X45438Y15148D01*
X45494Y15093D01*
X45508Y15059D01*
X45511Y15052D01*
X45514Y15045D01*
X45517Y15039D01*
X45520Y15033D01*
X45524Y15027D01*
X45528Y15021D01*
X45532Y15015D01*
X45535Y15010D01*
X45540Y15004D01*
X45544Y14998D01*
X45548Y14993D01*
X45553Y14988D01*
X45558Y14983D01*
X45563Y14977D01*
X45568Y14973D01*
X45572Y14968D01*
X45578Y14963D01*
X45584Y14958D01*
X45589Y14955D01*
X45594Y14951D01*
X45601Y14947D01*
X45607Y14942D01*
X45612Y14939D01*
X45618Y14936D01*
X45625Y14933D01*
X45631Y14929D01*
X45637Y14926D01*
X45643Y14924D01*
X45650Y14921D01*
X45657Y14918D01*
X45664Y14917D01*
X45670Y14914D01*
X45677Y14913D01*
X45684Y14911D01*
X45691Y14910D01*
X45697Y14908D01*
X45704Y14907D01*
X45712Y14906D01*
X45719Y14906D01*
X45725Y14905D01*
X45731Y14905D01*
X45738Y14905D01*
X47260Y14905D01*
X47267Y14905D01*
X47275Y14905D01*
X47281Y14906D01*
X47287Y14906D01*
X47295Y14908D01*
X47302Y14909D01*
X47309Y14910D01*
X47315Y14911D01*
X47322Y14913D01*
X47330Y14915D01*
X47336Y14917D01*
X47342Y14919D01*
X47349Y14922D01*
X47356Y14924D01*
X47362Y14927D01*
X47368Y14930D01*
X47374Y14933D01*
X47381Y14937D01*
X47387Y14940D01*
X47392Y14943D01*
X47398Y14948D01*
X47405Y14952D01*
X47410Y14956D01*
X47415Y14959D01*
X47421Y14964D01*
X47427Y14969D01*
X47431Y14974D01*
X47436Y14978D01*
X47441Y14984D01*
X47446Y14989D01*
X47450Y14994D01*
X47455Y14999D01*
X47459Y15005D01*
X47464Y15011D01*
X47467Y15017D01*
X47471Y15022D01*
X47474Y15028D01*
X47478Y15035D01*
X47481Y15041D01*
X47484Y15046D01*
X47487Y15052D01*
X47490Y15059D01*
X47518Y15126D01*
X47573Y15182D01*
X47646Y15212D01*
X48670Y15212D01*
X48742Y15182D01*
X48798Y15126D01*
X48836Y15035D01*
X48836Y15034D01*
X48839Y15024D01*
X48842Y15014D01*
X48843Y15011D01*
X48844Y15007D01*
X48849Y14998D01*
X48853Y14988D01*
X48854Y14985D01*
X48856Y14982D01*
X48861Y14973D01*
X48866Y14964D01*
X48868Y14961D01*
X48870Y14958D01*
X48876Y14949D01*
X48882Y14941D01*
X48885Y14938D01*
X48887Y14935D01*
X48894Y14928D01*
X48901Y14920D01*
X48904Y14918D01*
X48906Y14915D01*
X48914Y14908D01*
X48922Y14901D01*
X48925Y14899D01*
X48928Y14897D01*
X48936Y14891D01*
X48945Y14885D01*
X48948Y14883D01*
X48951Y14881D01*
X48960Y14877D01*
X48969Y14872D01*
X48973Y14870D01*
X48976Y14869D01*
X48986Y14865D01*
X48995Y14861D01*
X48999Y14860D01*
X49002Y14859D01*
X49012Y14856D01*
X49022Y14853D01*
X49026Y14853D01*
X49029Y14852D01*
X49040Y14850D01*
X49050Y14849D01*
X49053Y14848D01*
X49057Y14848D01*
X49067Y14848D01*
X49078Y14847D01*
X49081Y14847D01*
X49085Y14847D01*
X49095Y14848D01*
X49106Y14849D01*
X49109Y14849D01*
X49113Y14850D01*
X49123Y14852D01*
X49133Y14854D01*
X49137Y14855D01*
X49140Y14855D01*
X49150Y14859D01*
X49160Y14862D01*
X49164Y14863D01*
X49167Y14864D01*
X49176Y14868D01*
X49186Y14872D01*
X49189Y14874D01*
X49193Y14876D01*
X49201Y14881D01*
X49211Y14886D01*
X49214Y14888D01*
X49217Y14890D01*
X49225Y14896D01*
X49233Y14902D01*
X49236Y14905D01*
X49239Y14907D01*
X49246Y14914D01*
X49254Y14921D01*
X49257Y14924D01*
X49259Y14926D01*
X49266Y14934D01*
X49273Y14942D01*
X49275Y14945D01*
X49277Y14948D01*
X49283Y14956D01*
X49289Y14965D01*
X49291Y14968D01*
X49292Y14971D01*
X49297Y14980D01*
X49302Y14990D01*
X49304Y14993D01*
X49305Y14996D01*
X49309Y15006D01*
X49313Y15015D01*
X49314Y15019D01*
X49315Y15022D01*
X49318Y15034D01*
X49320Y15042D01*
X49321Y15043D01*
X49328Y15062D01*
X49339Y15079D01*
X49353Y15093D01*
X49370Y15104D01*
X49388Y15111D01*
X49408Y15115D01*
X49641Y15115D01*
X49641Y14542D01*
X49641Y13969D01*
X49408Y13969D01*
X49388Y13973D01*
X49370Y13980D01*
X49353Y13991D01*
X49339Y14005D01*
X49328Y14022D01*
X49320Y14041D01*
X49320Y14043D01*
X49317Y14053D01*
X49315Y14063D01*
X49313Y14067D01*
X49312Y14070D01*
X49308Y14080D01*
X49305Y14090D01*
X49303Y14093D01*
X49302Y14096D01*
X49296Y14105D01*
X49292Y14114D01*
X49290Y14117D01*
X49288Y14120D01*
X49282Y14129D01*
X49276Y14138D01*
X49274Y14140D01*
X49272Y14143D01*
X49265Y14151D01*
X49258Y14159D01*
X49255Y14162D01*
X49253Y14164D01*
X49245Y14171D01*
X49238Y14178D01*
X49235Y14180D01*
X49232Y14183D01*
X49224Y14189D01*
X49215Y14195D01*
X49212Y14197D01*
X49209Y14199D01*
X49200Y14204D01*
X49191Y14209D01*
X49188Y14211D01*
X49185Y14212D01*
X49175Y14216D01*
X49166Y14221D01*
X49162Y14222D01*
X49159Y14223D01*
X49149Y14226D01*
X49139Y14229D01*
X49135Y14230D01*
X49132Y14231D01*
X49122Y14233D01*
X49111Y14235D01*
X49108Y14235D01*
X49104Y14235D01*
X49094Y14236D01*
X49083Y14237D01*
X49080Y14237D01*
X49076Y14237D01*
X49066Y14236D01*
X49055Y14236D01*
X49052Y14235D01*
X49048Y14235D01*
X49038Y14233D01*
X49028Y14232D01*
X49024Y14231D01*
X49021Y14230D01*
X49011Y14228D01*
X49001Y14225D01*
X48997Y14224D01*
X48994Y14223D01*
X48984Y14219D01*
X48974Y14215D01*
X48971Y14213D01*
X48968Y14212D01*
X48959Y14207D01*
X48950Y14202D01*
X48947Y14200D01*
X48944Y14198D01*
X48935Y14192D01*
X48926Y14186D01*
X48924Y14184D01*
X48921Y14182D01*
X48913Y14175D01*
X48905Y14168D01*
X48903Y14165D01*
X48900Y14163D01*
X48893Y14155D01*
X48886Y14148D01*
X48884Y14145D01*
X48881Y14142D01*
X48875Y14134D01*
X48869Y14125D01*
X48867Y14122D01*
X48865Y14119D01*
X48860Y14110D01*
X48855Y14101D01*
X48854Y14098D01*
X48852Y14095D01*
X48848Y14085D01*
X48844Y14075D01*
X48843Y14072D01*
X48841Y14069D01*
X48839Y14059D01*
X48835Y14049D01*
X48798Y13958D01*
X48742Y13902D01*
X48670Y13872D01*
X47646Y13872D01*
X47573Y13902D01*
X47518Y13958D01*
X47487Y14032D01*
X47487Y14034D01*
X47486Y14048D01*
X47486Y14049D01*
X47484Y14062D01*
X47481Y14076D01*
X47481Y14077D01*
X47478Y14090D01*
X47474Y14103D01*
X47473Y14104D01*
X47468Y14116D01*
X47463Y14129D01*
X47456Y14141D01*
X47449Y14153D01*
X47449Y14154D01*
X47441Y14165D01*
X47433Y14176D01*
X47433Y14177D01*
X47424Y14187D01*
X47414Y14197D01*
X47404Y14206D01*
X47394Y14216D01*
X47393Y14216D01*
X47382Y14224D01*
X47371Y14232D01*
X47370Y14232D01*
X47358Y14239D01*
X47346Y14245D01*
X47345Y14246D01*
X47333Y14251D01*
X47320Y14256D01*
X47319Y14256D01*
X47306Y14260D01*
X47293Y14264D01*
X47279Y14266D01*
X47266Y14268D01*
X47265Y14268D01*
X47239Y14270D01*
X45738Y14270D01*
X45731Y14269D01*
X45723Y14269D01*
X45717Y14268D01*
X45710Y14268D01*
X45703Y14267D01*
X45695Y14266D01*
X45689Y14264D01*
X45683Y14263D01*
X45675Y14261D01*
X45668Y14260D01*
X45662Y14257D01*
X45656Y14256D01*
X45649Y14253D01*
X45642Y14250D01*
X45636Y14247D01*
X45630Y14245D01*
X45623Y14241D01*
X45617Y14238D01*
X45611Y14234D01*
X45605Y14231D01*
X45599Y14227D01*
X45593Y14223D01*
X45588Y14219D01*
X45583Y14215D01*
X45577Y14210D01*
X45571Y14205D01*
X45567Y14201D01*
X45562Y14196D01*
X45557Y14191D01*
X45551Y14185D01*
X45547Y14180D01*
X45543Y14175D01*
X45539Y14169D01*
X45534Y14163D01*
X45531Y14158D01*
X45527Y14153D01*
X45523Y14146D01*
X45519Y14140D01*
X45516Y14133D01*
X45513Y14128D01*
X45511Y14122D01*
X45508Y14116D01*
X45494Y14082D01*
X45438Y14026D01*
X45366Y13996D01*
X44295Y13996D01*
X44289Y13997D01*
X44276Y14000D01*
X44275Y14000D01*
X44275Y14001D01*
X44261Y14002D01*
X44248Y14003D01*
X44247Y14003D01*
X44233Y14003D01*
X44220Y14003D01*
X44219Y14003D01*
X44205Y14002D01*
X44192Y14000D01*
X44191Y14000D01*
X44178Y13997D01*
X44173Y13996D01*
X43989Y13996D01*
X43988Y13996D01*
X43975Y13995D01*
X43961Y13994D01*
X43960Y13994D01*
X43947Y13992D01*
X43933Y13990D01*
X43932Y13989D01*
X43919Y13986D01*
X43906Y13982D01*
X43905Y13982D01*
X43893Y13976D01*
X43881Y13971D01*
X43880Y13971D01*
X43868Y13964D01*
X43856Y13958D01*
X43856Y13957D01*
X43855Y13957D01*
X43844Y13949D01*
X43833Y13941D01*
X43832Y13941D01*
X43813Y13923D01*
X43780Y13891D01*
X43780Y13890D01*
X43771Y13880D01*
X43762Y13870D01*
X43761Y13869D01*
X43753Y13858D01*
X43746Y13847D01*
X43745Y13846D01*
X43738Y13834D01*
X43732Y13822D01*
X43731Y13821D01*
X43726Y13809D01*
X43721Y13796D01*
X43721Y13795D01*
X43717Y13782D01*
X43714Y13770D01*
X43713Y13769D01*
X43713Y13768D01*
X43711Y13755D01*
X43709Y13742D01*
X43709Y13741D01*
X43707Y13714D01*
X43707Y10627D01*
X43707Y10626D01*
X43708Y10613D01*
X43709Y10599D01*
X43709Y10598D01*
X43711Y10585D01*
X43714Y10572D01*
X43714Y10571D01*
X43718Y10558D01*
X43721Y10545D01*
X43722Y10544D01*
X43727Y10531D01*
X43732Y10519D01*
X43732Y10518D01*
X43733Y10518D01*
X43739Y10506D01*
X43746Y10494D01*
X43746Y10493D01*
X43754Y10483D01*
X43762Y10472D01*
X43762Y10471D01*
X43763Y10471D01*
X43780Y10451D01*
X43838Y10393D01*
X43868Y10320D01*
X43868Y9680D01*
X43838Y9607D01*
X43832Y9601D01*
X43827Y9595D01*
X43822Y9590D01*
X43818Y9585D01*
X43813Y9580D01*
X43809Y9574D01*
X43804Y9568D01*
X43801Y9562D01*
X43797Y9557D01*
X43794Y9550D01*
X43790Y9544D01*
X43787Y9538D01*
X43784Y9532D01*
X43781Y9526D01*
X43778Y9519D01*
X43776Y9513D01*
X43773Y9507D01*
X43771Y9499D01*
X43769Y9492D01*
X43767Y9486D01*
X43765Y9480D01*
X43764Y9472D01*
X43762Y9465D01*
X43762Y9458D01*
X43761Y9452D01*
X43760Y9445D01*
X43759Y9437D01*
X43759Y9431D01*
X43759Y9424D01*
X43760Y9417D01*
X43760Y9409D01*
X43760Y9403D01*
X43761Y9396D01*
X43762Y9389D01*
X43763Y9381D01*
X43764Y9375D01*
X43766Y9369D01*
X43768Y9361D01*
X43769Y9354D01*
X43772Y9348D01*
X43773Y9342D01*
X43775Y9337D01*
X43776Y9335D01*
X43778Y9329D01*
X43868Y9111D01*
X43868Y8921D01*
X43784Y8717D01*
X43784Y8716D01*
X43780Y8704D01*
X43775Y8691D01*
X43775Y8690D01*
X43772Y8677D01*
X43769Y8664D01*
X43769Y8663D01*
X43767Y8649D01*
X43766Y8636D01*
X43766Y8635D01*
X43766Y8621D01*
X43766Y8608D01*
X43766Y8607D01*
X43767Y8593D01*
X43769Y8580D01*
X43769Y8579D01*
X43772Y8566D01*
X43775Y8553D01*
X43775Y8552D01*
X43776Y8552D01*
X43784Y8527D01*
X43868Y8324D01*
X43868Y8133D01*
X43796Y7957D01*
X43682Y7844D01*
X43682Y7843D01*
X43673Y7833D01*
X43664Y7823D01*
X43663Y7823D01*
X43663Y7822D01*
X43655Y7811D01*
X43648Y7800D01*
X43647Y7800D01*
X43641Y7788D01*
X43634Y7776D01*
X43634Y7775D01*
X43629Y7762D01*
X43623Y7750D01*
X43623Y7749D01*
X43619Y7736D01*
X43616Y7723D01*
X43615Y7722D01*
X43613Y7709D01*
X43611Y7695D01*
X43610Y7681D01*
X43609Y7667D01*
X43610Y7653D01*
X43611Y7639D01*
X43613Y7625D01*
X43616Y7612D01*
X43616Y7611D01*
X43620Y7598D01*
X43624Y7585D01*
X43624Y7584D01*
X43629Y7572D01*
X43634Y7559D01*
X43635Y7559D01*
X43635Y7558D01*
X43641Y7546D01*
X43648Y7535D01*
X43648Y7534D01*
X43656Y7523D01*
X43664Y7512D01*
X43664Y7511D01*
X43665Y7511D01*
X43680Y7494D01*
X43681Y7493D01*
X43390Y7493D01*
X43390Y7493D01*
G37*
%LPD*%
%LPC*%
G36*
X23701Y14422D02*
X23701Y14422D01*
X23128Y14422D01*
X23128Y14656D01*
X23131Y14675D01*
X23139Y14693D01*
X23150Y14710D01*
X23164Y14724D01*
X23181Y14735D01*
X23200Y14743D01*
X23202Y14743D01*
X23212Y14746D01*
X23222Y14749D01*
X23225Y14750D01*
X23229Y14751D01*
X23238Y14755D01*
X23248Y14759D01*
X23251Y14760D01*
X23255Y14762D01*
X23264Y14767D01*
X23273Y14772D01*
X23276Y14774D01*
X23279Y14775D01*
X23288Y14781D01*
X23296Y14787D01*
X23299Y14789D01*
X23302Y14792D01*
X23310Y14799D01*
X23318Y14805D01*
X23320Y14808D01*
X23323Y14810D01*
X23330Y14818D01*
X23337Y14826D01*
X23339Y14829D01*
X23342Y14831D01*
X23348Y14840D01*
X23354Y14848D01*
X23356Y14851D01*
X23358Y14854D01*
X23363Y14863D01*
X23368Y14872D01*
X23369Y14875D01*
X23371Y14879D01*
X23375Y14888D01*
X23379Y14898D01*
X23380Y14901D01*
X23382Y14904D01*
X23385Y14915D01*
X23388Y14924D01*
X23389Y14928D01*
X23390Y14931D01*
X23391Y14942D01*
X23393Y14952D01*
X23394Y14956D01*
X23394Y14959D01*
X23395Y14969D01*
X23396Y14980D01*
X23395Y14983D01*
X23396Y14987D01*
X23395Y14997D01*
X23395Y15008D01*
X23394Y15011D01*
X23394Y15015D01*
X23392Y15025D01*
X23391Y15036D01*
X23390Y15039D01*
X23389Y15043D01*
X23386Y15053D01*
X23384Y15063D01*
X23382Y15066D01*
X23381Y15069D01*
X23377Y15079D01*
X23374Y15089D01*
X23372Y15092D01*
X23371Y15095D01*
X23365Y15104D01*
X23361Y15114D01*
X23359Y15117D01*
X23357Y15120D01*
X23351Y15128D01*
X23345Y15137D01*
X23343Y15140D01*
X23341Y15143D01*
X23334Y15150D01*
X23327Y15158D01*
X23324Y15161D01*
X23322Y15163D01*
X23314Y15170D01*
X23306Y15177D01*
X23303Y15180D01*
X23301Y15182D01*
X23292Y15188D01*
X23284Y15194D01*
X23281Y15196D01*
X23278Y15198D01*
X23269Y15203D01*
X23260Y15208D01*
X23256Y15210D01*
X23253Y15211D01*
X23244Y15215D01*
X23234Y15220D01*
X23231Y15221D01*
X23227Y15222D01*
X23217Y15225D01*
X23207Y15228D01*
X23116Y15266D01*
X23061Y15321D01*
X23031Y15394D01*
X23031Y16417D01*
X23061Y16490D01*
X23116Y16545D01*
X23189Y16576D01*
X24213Y16576D01*
X24285Y16545D01*
X24341Y16490D01*
X24357Y16452D01*
X24360Y16445D01*
X24363Y16438D01*
X24366Y16433D01*
X24369Y16426D01*
X24373Y16420D01*
X24376Y16414D01*
X24380Y16408D01*
X24384Y16403D01*
X24388Y16397D01*
X24392Y16391D01*
X24397Y16386D01*
X24401Y16381D01*
X24406Y16376D01*
X24411Y16370D01*
X24416Y16366D01*
X24421Y16361D01*
X24427Y16357D01*
X24432Y16352D01*
X24438Y16348D01*
X24443Y16344D01*
X24449Y16340D01*
X24455Y16336D01*
X24461Y16332D01*
X24467Y16329D01*
X24473Y16326D01*
X24480Y16322D01*
X24486Y16320D01*
X24492Y16317D01*
X24499Y16314D01*
X24505Y16312D01*
X24512Y16310D01*
X24518Y16307D01*
X24525Y16306D01*
X24532Y16304D01*
X24539Y16303D01*
X24546Y16301D01*
X24553Y16300D01*
X24560Y16299D01*
X24567Y16299D01*
X24573Y16298D01*
X24581Y16298D01*
X24588Y16298D01*
X24595Y16298D01*
X24601Y16298D01*
X24609Y16299D01*
X24616Y16300D01*
X24623Y16301D01*
X24629Y16301D01*
X24636Y16303D01*
X24644Y16304D01*
X24650Y16306D01*
X24657Y16308D01*
X24663Y16310D01*
X24670Y16312D01*
X24677Y16315D01*
X24683Y16317D01*
X24690Y16320D01*
X24696Y16323D01*
X24702Y16326D01*
X24708Y16329D01*
X24714Y16333D01*
X24721Y16337D01*
X24726Y16341D01*
X24732Y16344D01*
X24737Y16349D01*
X24743Y16353D01*
X24749Y16358D01*
X24754Y16362D01*
X24758Y16366D01*
X24763Y16371D01*
X24780Y16388D01*
X24853Y16418D01*
X25923Y16418D01*
X25930Y16417D01*
X25943Y16414D01*
X25944Y16414D01*
X25957Y16412D01*
X25970Y16411D01*
X25971Y16411D01*
X25972Y16411D01*
X25985Y16411D01*
X25998Y16411D01*
X25999Y16411D01*
X26000Y16411D01*
X26013Y16412D01*
X26026Y16414D01*
X26027Y16414D01*
X26041Y16417D01*
X26054Y16420D01*
X26055Y16420D01*
X26059Y16422D01*
X26073Y16424D01*
X26074Y16425D01*
X26087Y16428D01*
X26100Y16432D01*
X26101Y16432D01*
X26113Y16438D01*
X26126Y16443D01*
X26138Y16450D01*
X26150Y16456D01*
X26151Y16457D01*
X26162Y16465D01*
X26173Y16473D01*
X26174Y16473D01*
X26184Y16482D01*
X26194Y16491D01*
X26194Y16492D01*
X26203Y16502D01*
X26213Y16512D01*
X26213Y16513D01*
X26221Y16524D01*
X26229Y16535D01*
X26229Y16536D01*
X26236Y16548D01*
X26242Y16560D01*
X26243Y16560D01*
X26248Y16573D01*
X26253Y16586D01*
X26257Y16599D01*
X26261Y16613D01*
X26263Y16627D01*
X26265Y16640D01*
X26265Y16641D01*
X26267Y16667D01*
X26267Y19061D01*
X26267Y19062D01*
X26266Y19075D01*
X26265Y19089D01*
X26265Y19090D01*
X26263Y19103D01*
X26260Y19117D01*
X26256Y19130D01*
X26253Y19144D01*
X26252Y19144D01*
X26247Y19157D01*
X26242Y19169D01*
X26242Y19170D01*
X26235Y19182D01*
X26228Y19194D01*
X26228Y19195D01*
X26220Y19206D01*
X26212Y19217D01*
X26202Y19227D01*
X26193Y19238D01*
X26183Y19247D01*
X26172Y19256D01*
X26172Y19257D01*
X26161Y19264D01*
X26150Y19272D01*
X26149Y19273D01*
X26137Y19279D01*
X26125Y19286D01*
X26124Y19286D01*
X26112Y19291D01*
X26099Y19296D01*
X26099Y19297D01*
X26098Y19297D01*
X26085Y19300D01*
X26072Y19304D01*
X26071Y19304D01*
X26058Y19307D01*
X26045Y19309D01*
X26044Y19309D01*
X26017Y19310D01*
X25949Y19310D01*
X25876Y19340D01*
X25821Y19396D01*
X25791Y19469D01*
X25791Y20374D01*
X25821Y20447D01*
X25908Y20534D01*
X25909Y20534D01*
X25909Y20535D01*
X25918Y20545D01*
X25927Y20555D01*
X25927Y20556D01*
X25935Y20567D01*
X25943Y20578D01*
X25944Y20579D01*
X25950Y20591D01*
X25957Y20602D01*
X25957Y20603D01*
X25962Y20616D01*
X25967Y20628D01*
X25967Y20629D01*
X25968Y20629D01*
X25971Y20642D01*
X25975Y20655D01*
X25975Y20656D01*
X25977Y20669D01*
X25980Y20683D01*
X25980Y20684D01*
X25981Y20697D01*
X25981Y20711D01*
X25981Y20712D01*
X25980Y20725D01*
X25980Y20739D01*
X25980Y20740D01*
X25977Y20753D01*
X25975Y20766D01*
X25975Y20767D01*
X25971Y20780D01*
X25967Y20793D01*
X25967Y20794D01*
X25962Y20807D01*
X25956Y20819D01*
X25956Y20820D01*
X25949Y20832D01*
X25943Y20844D01*
X25942Y20844D01*
X25934Y20855D01*
X25926Y20866D01*
X25926Y20867D01*
X25908Y20887D01*
X24731Y22064D01*
X24682Y22181D01*
X24682Y24658D01*
X24682Y24663D01*
X24682Y24669D01*
X24681Y24677D01*
X24681Y24686D01*
X24680Y24691D01*
X24679Y24696D01*
X24678Y24705D01*
X24676Y24714D01*
X24675Y24719D01*
X24674Y24724D01*
X24671Y24732D01*
X24668Y24741D01*
X24666Y24745D01*
X24665Y24750D01*
X24661Y24758D01*
X24658Y24766D01*
X24655Y24771D01*
X24653Y24776D01*
X24648Y24783D01*
X24644Y24791D01*
X24641Y24795D01*
X24638Y24800D01*
X24633Y24807D01*
X24628Y24814D01*
X24624Y24818D01*
X24621Y24822D01*
X24615Y24828D01*
X24609Y24835D01*
X24605Y24838D01*
X24602Y24842D01*
X24595Y24847D01*
X24588Y24853D01*
X24584Y24856D01*
X24580Y24860D01*
X24572Y24865D01*
X24565Y24869D01*
X24562Y24871D01*
X24558Y24874D01*
X24463Y24929D01*
X24315Y25077D01*
X24210Y25259D01*
X24155Y25462D01*
X24155Y25672D01*
X24210Y25875D01*
X24315Y26057D01*
X24463Y26205D01*
X24645Y26310D01*
X24848Y26365D01*
X25058Y26365D01*
X25261Y26310D01*
X25442Y26205D01*
X25591Y26057D01*
X25696Y25875D01*
X25750Y25672D01*
X25750Y25462D01*
X25696Y25259D01*
X25591Y25077D01*
X25442Y24929D01*
X25438Y24926D01*
X25433Y24923D01*
X25426Y24918D01*
X25419Y24913D01*
X25415Y24910D01*
X25411Y24907D01*
X25404Y24901D01*
X25397Y24895D01*
X25394Y24892D01*
X25390Y24888D01*
X25384Y24881D01*
X25378Y24875D01*
X25375Y24871D01*
X25371Y24867D01*
X25366Y24860D01*
X25361Y24853D01*
X25358Y24848D01*
X25355Y24844D01*
X25351Y24836D01*
X25346Y24829D01*
X25344Y24824D01*
X25342Y24820D01*
X25338Y24811D01*
X25335Y24803D01*
X25333Y24798D01*
X25331Y24794D01*
X25329Y24785D01*
X25326Y24777D01*
X25325Y24772D01*
X25324Y24767D01*
X25322Y24758D01*
X25320Y24749D01*
X25320Y24744D01*
X25319Y24739D01*
X25318Y24730D01*
X25318Y24721D01*
X25318Y24717D01*
X25318Y24713D01*
X25318Y22479D01*
X25318Y22478D01*
X25318Y22464D01*
X25319Y22451D01*
X25319Y22450D01*
X25322Y22437D01*
X25324Y22423D01*
X25324Y22422D01*
X25328Y22409D01*
X25332Y22396D01*
X25332Y22395D01*
X25337Y22383D01*
X25342Y22371D01*
X25343Y22370D01*
X25343Y22369D01*
X25349Y22358D01*
X25356Y22346D01*
X25357Y22345D01*
X25364Y22334D01*
X25372Y22323D01*
X25373Y22323D01*
X25373Y22322D01*
X25391Y22303D01*
X26671Y21022D01*
X26719Y20906D01*
X26719Y20755D01*
X26720Y20747D01*
X26720Y20740D01*
X26720Y20733D01*
X26721Y20727D01*
X26722Y20719D01*
X26723Y20712D01*
X26724Y20706D01*
X26725Y20699D01*
X26728Y20692D01*
X26729Y20685D01*
X26731Y20679D01*
X26733Y20672D01*
X26736Y20665D01*
X26739Y20658D01*
X26741Y20652D01*
X26744Y20646D01*
X26748Y20640D01*
X26751Y20633D01*
X26754Y20628D01*
X26758Y20622D01*
X26762Y20616D01*
X26766Y20609D01*
X26770Y20604D01*
X26774Y20599D01*
X26779Y20593D01*
X26783Y20588D01*
X26788Y20583D01*
X26792Y20578D01*
X26798Y20573D01*
X26803Y20568D01*
X26809Y20564D01*
X26813Y20560D01*
X26819Y20555D01*
X26825Y20551D01*
X26831Y20547D01*
X26836Y20543D01*
X26843Y20540D01*
X26849Y20536D01*
X26855Y20533D01*
X26861Y20530D01*
X26867Y20528D01*
X26873Y20524D01*
X26927Y20502D01*
X26982Y20447D01*
X27005Y20393D01*
X27008Y20386D01*
X27011Y20379D01*
X27014Y20373D01*
X27017Y20367D01*
X27021Y20361D01*
X27025Y20355D01*
X27028Y20349D01*
X27032Y20344D01*
X27037Y20338D01*
X27041Y20332D01*
X27045Y20327D01*
X27049Y20322D01*
X27055Y20317D01*
X27060Y20311D01*
X27065Y20307D01*
X27069Y20302D01*
X27075Y20297D01*
X27081Y20292D01*
X27086Y20289D01*
X27091Y20285D01*
X27097Y20281D01*
X27104Y20276D01*
X27109Y20273D01*
X27115Y20270D01*
X27122Y20267D01*
X27128Y20263D01*
X27134Y20260D01*
X27140Y20258D01*
X27147Y20255D01*
X27154Y20252D01*
X27160Y20251D01*
X27166Y20248D01*
X27174Y20247D01*
X27181Y20245D01*
X27187Y20244D01*
X27194Y20242D01*
X27201Y20241D01*
X27209Y20240D01*
X27216Y20240D01*
X27222Y20239D01*
X27228Y20239D01*
X27235Y20239D01*
X29179Y20239D01*
X29180Y20239D01*
X29193Y20240D01*
X29207Y20240D01*
X29208Y20241D01*
X29221Y20243D01*
X29235Y20245D01*
X29249Y20249D01*
X29262Y20253D01*
X29275Y20258D01*
X29287Y20264D01*
X29288Y20264D01*
X29300Y20271D01*
X29312Y20277D01*
X29313Y20278D01*
X29324Y20286D01*
X29335Y20293D01*
X29335Y20294D01*
X29346Y20303D01*
X29356Y20312D01*
X29356Y20313D01*
X29365Y20323D01*
X29374Y20333D01*
X29375Y20333D01*
X29375Y20334D01*
X29383Y20345D01*
X29390Y20356D01*
X29391Y20356D01*
X29391Y20357D01*
X29397Y20369D01*
X29404Y20380D01*
X29404Y20381D01*
X29409Y20394D01*
X29415Y20406D01*
X29415Y20407D01*
X29419Y20420D01*
X29422Y20433D01*
X29422Y20434D01*
X29424Y20441D01*
X29458Y20525D01*
X29514Y20581D01*
X29587Y20611D01*
X30492Y20611D01*
X30565Y20581D01*
X30620Y20525D01*
X30650Y20453D01*
X30650Y19547D01*
X30620Y19475D01*
X30565Y19419D01*
X30492Y19389D01*
X29587Y19389D01*
X29514Y19419D01*
X29454Y19479D01*
X29453Y19481D01*
X29449Y19488D01*
X29445Y19493D01*
X29442Y19499D01*
X29437Y19505D01*
X29433Y19511D01*
X29428Y19516D01*
X29424Y19521D01*
X29419Y19526D01*
X29414Y19531D01*
X29409Y19536D01*
X29404Y19540D01*
X29399Y19545D01*
X29393Y19550D01*
X29388Y19554D01*
X29383Y19558D01*
X29376Y19562D01*
X29370Y19566D01*
X29364Y19569D01*
X29359Y19573D01*
X29352Y19576D01*
X29345Y19580D01*
X29339Y19582D01*
X29334Y19585D01*
X29326Y19587D01*
X29319Y19590D01*
X29313Y19592D01*
X29307Y19594D01*
X29300Y19596D01*
X29293Y19598D01*
X29286Y19599D01*
X29280Y19600D01*
X29272Y19601D01*
X29265Y19602D01*
X29258Y19603D01*
X29252Y19603D01*
X29246Y19603D01*
X29238Y19604D01*
X27235Y19604D01*
X27228Y19603D01*
X27220Y19603D01*
X27214Y19602D01*
X27207Y19602D01*
X27200Y19601D01*
X27192Y19600D01*
X27186Y19598D01*
X27179Y19597D01*
X27172Y19595D01*
X27165Y19594D01*
X27159Y19591D01*
X27153Y19590D01*
X27146Y19587D01*
X27139Y19584D01*
X27133Y19581D01*
X27127Y19579D01*
X27120Y19575D01*
X27113Y19572D01*
X27108Y19568D01*
X27102Y19565D01*
X27096Y19561D01*
X27090Y19557D01*
X27085Y19553D01*
X27079Y19549D01*
X27074Y19544D01*
X27068Y19539D01*
X27063Y19535D01*
X27059Y19530D01*
X27054Y19525D01*
X27048Y19519D01*
X27044Y19514D01*
X27040Y19509D01*
X27036Y19503D01*
X27031Y19497D01*
X27028Y19492D01*
X27024Y19487D01*
X27020Y19480D01*
X27016Y19474D01*
X27013Y19467D01*
X27010Y19462D01*
X27008Y19456D01*
X27005Y19450D01*
X26982Y19396D01*
X26975Y19388D01*
X26974Y19388D01*
X26974Y19387D01*
X26965Y19377D01*
X26956Y19367D01*
X26955Y19367D01*
X26948Y19356D01*
X26940Y19345D01*
X26940Y19344D01*
X26939Y19344D01*
X26933Y19332D01*
X26926Y19320D01*
X26926Y19319D01*
X26921Y19306D01*
X26916Y19294D01*
X26915Y19293D01*
X26912Y19280D01*
X26908Y19267D01*
X26908Y19266D01*
X26906Y19253D01*
X26903Y19240D01*
X26903Y19239D01*
X26903Y19238D01*
X26902Y19212D01*
X26902Y16667D01*
X26903Y16653D01*
X26903Y16639D01*
X26904Y16639D01*
X26906Y16625D01*
X26908Y16612D01*
X26908Y16611D01*
X26912Y16598D01*
X26916Y16585D01*
X26916Y16584D01*
X26921Y16571D01*
X26927Y16559D01*
X26927Y16558D01*
X26934Y16546D01*
X26940Y16534D01*
X26941Y16534D01*
X26949Y16523D01*
X26956Y16512D01*
X26957Y16511D01*
X26966Y16501D01*
X26975Y16491D01*
X26976Y16490D01*
X26986Y16481D01*
X26996Y16472D01*
X26997Y16472D01*
X27008Y16464D01*
X27019Y16456D01*
X27020Y16456D01*
X27031Y16449D01*
X27043Y16443D01*
X27044Y16442D01*
X27057Y16437D01*
X27069Y16432D01*
X27070Y16432D01*
X27083Y16428D01*
X27096Y16424D01*
X27097Y16424D01*
X27104Y16423D01*
X27188Y16388D01*
X27244Y16332D01*
X27274Y16260D01*
X27274Y15394D01*
X27244Y15321D01*
X27188Y15266D01*
X27116Y15235D01*
X26045Y15235D01*
X26039Y15237D01*
X26026Y15240D01*
X26025Y15240D01*
X26011Y15241D01*
X25998Y15243D01*
X25997Y15243D01*
X25983Y15243D01*
X25970Y15243D01*
X25969Y15243D01*
X25955Y15241D01*
X25942Y15240D01*
X25941Y15240D01*
X25928Y15237D01*
X25924Y15235D01*
X24853Y15235D01*
X24780Y15266D01*
X24709Y15337D01*
X24708Y15337D01*
X24698Y15346D01*
X24688Y15355D01*
X24688Y15356D01*
X24687Y15356D01*
X24676Y15364D01*
X24665Y15372D01*
X24653Y15379D01*
X24641Y15385D01*
X24640Y15385D01*
X24640Y15386D01*
X24627Y15391D01*
X24615Y15396D01*
X24614Y15396D01*
X24601Y15400D01*
X24588Y15404D01*
X24587Y15404D01*
X24574Y15406D01*
X24560Y15408D01*
X24559Y15408D01*
X24546Y15409D01*
X24532Y15410D01*
X24531Y15410D01*
X24518Y15409D01*
X24504Y15408D01*
X24490Y15406D01*
X24477Y15403D01*
X24476Y15403D01*
X24463Y15399D01*
X24450Y15396D01*
X24449Y15396D01*
X24449Y15395D01*
X24436Y15390D01*
X24424Y15385D01*
X24423Y15385D01*
X24411Y15378D01*
X24399Y15371D01*
X24388Y15363D01*
X24377Y15355D01*
X24376Y15355D01*
X24376Y15354D01*
X24356Y15337D01*
X24285Y15266D01*
X24194Y15228D01*
X24193Y15228D01*
X24183Y15224D01*
X24173Y15221D01*
X24169Y15220D01*
X24166Y15219D01*
X24156Y15215D01*
X24147Y15211D01*
X24144Y15209D01*
X24140Y15208D01*
X24131Y15202D01*
X24122Y15197D01*
X24119Y15195D01*
X24116Y15193D01*
X24108Y15187D01*
X24100Y15181D01*
X24097Y15179D01*
X24094Y15176D01*
X24086Y15169D01*
X24079Y15162D01*
X24076Y15160D01*
X24074Y15157D01*
X24067Y15149D01*
X24060Y15141D01*
X24058Y15138D01*
X24056Y15136D01*
X24050Y15127D01*
X24044Y15118D01*
X24042Y15115D01*
X24040Y15112D01*
X24035Y15103D01*
X24030Y15094D01*
X24029Y15091D01*
X24027Y15087D01*
X24024Y15078D01*
X24020Y15068D01*
X24019Y15065D01*
X24017Y15061D01*
X24015Y15051D01*
X24012Y15041D01*
X24011Y15038D01*
X24011Y15034D01*
X24009Y15024D01*
X24007Y15013D01*
X24007Y15010D01*
X24007Y15006D01*
X24006Y14996D01*
X24006Y14985D01*
X24006Y14982D01*
X24006Y14978D01*
X24007Y14968D01*
X24008Y14957D01*
X24008Y14954D01*
X24009Y14950D01*
X24011Y14940D01*
X24012Y14930D01*
X24013Y14926D01*
X24014Y14923D01*
X24017Y14913D01*
X24020Y14903D01*
X24022Y14900D01*
X24023Y14896D01*
X24027Y14887D01*
X24031Y14877D01*
X24033Y14874D01*
X24034Y14871D01*
X24040Y14862D01*
X24045Y14853D01*
X24047Y14850D01*
X24049Y14847D01*
X24055Y14838D01*
X24061Y14830D01*
X24063Y14827D01*
X24066Y14824D01*
X24073Y14817D01*
X24080Y14809D01*
X24082Y14807D01*
X24085Y14804D01*
X24093Y14798D01*
X24101Y14791D01*
X24104Y14789D01*
X24106Y14786D01*
X24115Y14780D01*
X24124Y14774D01*
X24127Y14773D01*
X24130Y14771D01*
X24139Y14766D01*
X24148Y14761D01*
X24152Y14760D01*
X24155Y14758D01*
X24165Y14754D01*
X24174Y14750D01*
X24178Y14750D01*
X24181Y14748D01*
X24192Y14745D01*
X24201Y14743D01*
X24202Y14743D01*
X24221Y14735D01*
X24237Y14724D01*
X24251Y14710D01*
X24263Y14693D01*
X24270Y14675D01*
X24274Y14656D01*
X24274Y14422D01*
X23701Y14422D01*
X23701Y14422D01*
G37*
%LPD*%
%LPC*%
G36*
X15023Y3237D02*
X15023Y3237D01*
X14797Y3297D01*
X14595Y3414D01*
X14430Y3579D01*
X14313Y3781D01*
X14253Y4007D01*
X14253Y4240D01*
X14313Y4465D01*
X14430Y4668D01*
X14595Y4833D01*
X14797Y4949D01*
X15023Y5010D01*
X15256Y5010D01*
X15481Y4949D01*
X15684Y4833D01*
X15849Y4668D01*
X15965Y4465D01*
X16026Y4240D01*
X16026Y4007D01*
X15965Y3781D01*
X15849Y3579D01*
X15684Y3414D01*
X15481Y3297D01*
X15256Y3237D01*
X15023Y3237D01*
G37*
%LPD*%
%LPC*%
G36*
X33938Y3247D02*
X33938Y3247D01*
X33713Y3308D01*
X33511Y3424D01*
X33346Y3589D01*
X33229Y3792D01*
X33169Y4017D01*
X33169Y4251D01*
X33229Y4476D01*
X33346Y4678D01*
X33511Y4843D01*
X33713Y4960D01*
X33938Y5020D01*
X34172Y5020D01*
X34397Y4960D01*
X34599Y4843D01*
X34765Y4678D01*
X34881Y4476D01*
X34942Y4251D01*
X34942Y4017D01*
X34881Y3792D01*
X34765Y3589D01*
X34599Y3424D01*
X34397Y3308D01*
X34172Y3247D01*
X33938Y3247D01*
G37*
%LPD*%
%LPC*%
G36*
X40513Y3247D02*
X40513Y3247D01*
X40288Y3308D01*
X40086Y3424D01*
X39920Y3589D01*
X39804Y3792D01*
X39743Y4017D01*
X39743Y4251D01*
X39804Y4476D01*
X39920Y4678D01*
X40086Y4843D01*
X40288Y4960D01*
X40513Y5020D01*
X40747Y5020D01*
X40972Y4960D01*
X41174Y4843D01*
X41339Y4678D01*
X41456Y4476D01*
X41516Y4251D01*
X41516Y4017D01*
X41456Y3792D01*
X41339Y3589D01*
X41174Y3424D01*
X40972Y3308D01*
X40747Y3247D01*
X40513Y3247D01*
G37*
%LPD*%
%LPC*%
G36*
X21734Y3247D02*
X21734Y3247D01*
X21508Y3308D01*
X21306Y3424D01*
X21141Y3589D01*
X21024Y3792D01*
X20964Y4017D01*
X20964Y4251D01*
X21024Y4476D01*
X21141Y4678D01*
X21306Y4843D01*
X21508Y4960D01*
X21734Y5020D01*
X21967Y5020D01*
X22193Y4960D01*
X22395Y4843D01*
X22560Y4678D01*
X22677Y4476D01*
X22737Y4251D01*
X22737Y4017D01*
X22677Y3792D01*
X22560Y3589D01*
X22395Y3424D01*
X22193Y3308D01*
X21967Y3247D01*
X21734Y3247D01*
G37*
%LPD*%
%LPC*%
G36*
X52718Y3247D02*
X52718Y3247D01*
X52492Y3308D01*
X52290Y3424D01*
X52125Y3589D01*
X52008Y3792D01*
X51948Y4017D01*
X51948Y4251D01*
X52008Y4476D01*
X52125Y4678D01*
X52290Y4843D01*
X52492Y4960D01*
X52718Y5020D01*
X52951Y5020D01*
X53177Y4960D01*
X53379Y4843D01*
X53544Y4678D01*
X53661Y4476D01*
X53721Y4251D01*
X53721Y4017D01*
X53661Y3792D01*
X53544Y3589D01*
X53379Y3424D01*
X53177Y3308D01*
X52951Y3247D01*
X52718Y3247D01*
G37*
%LPD*%
%LPC*%
G36*
X15059Y24103D02*
X15059Y24103D01*
X14833Y24163D01*
X14631Y24280D01*
X14466Y24445D01*
X14350Y24647D01*
X14289Y24873D01*
X14289Y25106D01*
X14350Y25332D01*
X14466Y25534D01*
X14631Y25699D01*
X14833Y25815D01*
X15059Y25876D01*
X15292Y25876D01*
X15518Y25815D01*
X15720Y25699D01*
X15885Y25534D01*
X16002Y25332D01*
X16062Y25106D01*
X16062Y24873D01*
X16002Y24647D01*
X15885Y24445D01*
X15720Y24280D01*
X15518Y24163D01*
X15292Y24103D01*
X15059Y24103D01*
G37*
%LPD*%
%LPC*%
G36*
X33938Y24113D02*
X33938Y24113D01*
X33713Y24174D01*
X33511Y24291D01*
X33346Y24456D01*
X33229Y24658D01*
X33169Y24883D01*
X33169Y25117D01*
X33229Y25342D01*
X33346Y25544D01*
X33511Y25709D01*
X33713Y25826D01*
X33938Y25887D01*
X34172Y25887D01*
X34397Y25826D01*
X34599Y25709D01*
X34765Y25544D01*
X34881Y25342D01*
X34942Y25117D01*
X34942Y24883D01*
X34881Y24658D01*
X34765Y24456D01*
X34599Y24291D01*
X34397Y24174D01*
X34172Y24113D01*
X33938Y24113D01*
G37*
%LPD*%
%LPC*%
G36*
X40513Y24113D02*
X40513Y24113D01*
X40288Y24174D01*
X40086Y24291D01*
X39920Y24456D01*
X39804Y24658D01*
X39743Y24883D01*
X39743Y25117D01*
X39804Y25342D01*
X39920Y25544D01*
X40086Y25709D01*
X40288Y25826D01*
X40513Y25887D01*
X40747Y25887D01*
X40972Y25826D01*
X41174Y25709D01*
X41339Y25544D01*
X41456Y25342D01*
X41516Y25117D01*
X41516Y24883D01*
X41456Y24658D01*
X41339Y24456D01*
X41174Y24291D01*
X40972Y24174D01*
X40747Y24113D01*
X40513Y24113D01*
G37*
%LPD*%
%LPC*%
G36*
X21734Y24113D02*
X21734Y24113D01*
X21508Y24174D01*
X21306Y24291D01*
X21141Y24456D01*
X21024Y24658D01*
X20964Y24883D01*
X20964Y25117D01*
X21024Y25342D01*
X21141Y25544D01*
X21306Y25709D01*
X21508Y25826D01*
X21734Y25887D01*
X21967Y25887D01*
X22193Y25826D01*
X22395Y25709D01*
X22560Y25544D01*
X22677Y25342D01*
X22737Y25117D01*
X22737Y24883D01*
X22677Y24658D01*
X22560Y24456D01*
X22395Y24291D01*
X22193Y24174D01*
X21967Y24113D01*
X21734Y24113D01*
G37*
%LPD*%
%LPC*%
G36*
X52718Y24113D02*
X52718Y24113D01*
X52492Y24174D01*
X52290Y24291D01*
X52125Y24456D01*
X52008Y24658D01*
X51948Y24883D01*
X51948Y25117D01*
X52008Y25342D01*
X52125Y25544D01*
X52290Y25709D01*
X52492Y25826D01*
X52718Y25887D01*
X52951Y25887D01*
X53177Y25826D01*
X53379Y25709D01*
X53544Y25544D01*
X53661Y25342D01*
X53721Y25117D01*
X53721Y24883D01*
X53661Y24658D01*
X53544Y24456D01*
X53379Y24291D01*
X53177Y24174D01*
X52951Y24113D01*
X52718Y24113D01*
G37*
%LPD*%
%LPC*%
G36*
X53440Y29133D02*
X53440Y29133D01*
X53239Y29187D01*
X53059Y29291D01*
X52913Y29437D01*
X52809Y29617D01*
X52755Y29817D01*
X52755Y30025D01*
X52809Y30225D01*
X52913Y30405D01*
X53059Y30552D01*
X53239Y30656D01*
X53440Y30709D01*
X53647Y30709D01*
X53848Y30656D01*
X54027Y30552D01*
X54174Y30405D01*
X54278Y30225D01*
X54331Y30025D01*
X54331Y29817D01*
X54278Y29617D01*
X54174Y29437D01*
X54027Y29291D01*
X53848Y29187D01*
X53647Y29133D01*
X53440Y29133D01*
G37*
%LPD*%
%LPC*%
G36*
X53440Y787D02*
X53440Y787D01*
X53239Y840D01*
X53059Y944D01*
X52913Y1091D01*
X52809Y1271D01*
X52755Y1471D01*
X52755Y1679D01*
X52809Y1879D01*
X52913Y2059D01*
X53059Y2205D01*
X53239Y2309D01*
X53440Y2363D01*
X53647Y2363D01*
X53848Y2309D01*
X54027Y2205D01*
X54174Y2059D01*
X54278Y1879D01*
X54331Y1679D01*
X54331Y1471D01*
X54278Y1271D01*
X54174Y1091D01*
X54027Y944D01*
X53848Y840D01*
X53647Y787D01*
X53440Y787D01*
G37*
%LPD*%
%LPC*%
G36*
X42193Y5385D02*
X42193Y5385D01*
X41954Y5484D01*
X41771Y5667D01*
X41672Y5906D01*
X41672Y6165D01*
X41771Y6404D01*
X41954Y6587D01*
X42193Y6686D01*
X42452Y6686D01*
X42691Y6587D01*
X42874Y6404D01*
X42973Y6165D01*
X42973Y5906D01*
X42874Y5667D01*
X42691Y5484D01*
X42452Y5385D01*
X42193Y5385D01*
G37*
%LPD*%
%LPC*%
G36*
X12324Y25810D02*
X12324Y25810D01*
X12325Y26216D01*
X12343Y26210D01*
X12414Y26176D01*
X12480Y26134D01*
X12542Y26085D01*
X12598Y26029D01*
X12647Y25968D01*
X12689Y25901D01*
X12723Y25830D01*
X12730Y25810D01*
X12324Y25810D01*
G37*
%LPD*%
%LPC*%
G36*
X12286Y3811D02*
X12286Y3811D01*
X12286Y4217D01*
X12305Y4210D01*
X12375Y4176D01*
X12442Y4134D01*
X12504Y4085D01*
X12559Y4029D01*
X12608Y3968D01*
X12650Y3901D01*
X12684Y3830D01*
X12692Y3810D01*
X12286Y3811D01*
G37*
%LPD*%
%LPC*%
G36*
X12323Y25312D02*
X12323Y25312D01*
X12729Y25311D01*
X12723Y25293D01*
X12689Y25222D01*
X12647Y25156D01*
X12598Y25094D01*
X12542Y25038D01*
X12480Y24989D01*
X12414Y24947D01*
X12343Y24913D01*
X12322Y24906D01*
X12323Y25312D01*
G37*
%LPD*%
%LPC*%
G36*
X11420Y25812D02*
X11420Y25812D01*
X11426Y25830D01*
X11460Y25901D01*
X11502Y25968D01*
X11551Y26029D01*
X11607Y26085D01*
X11668Y26134D01*
X11735Y26176D01*
X11806Y26210D01*
X11826Y26217D01*
X11825Y25811D01*
X11420Y25812D01*
G37*
%LPD*%
%LPC*%
G36*
X11381Y3812D02*
X11381Y3812D01*
X11387Y3830D01*
X11422Y3901D01*
X11464Y3968D01*
X11513Y4029D01*
X11568Y4085D01*
X11630Y4134D01*
X11696Y4176D01*
X11767Y4210D01*
X11788Y4217D01*
X11787Y3811D01*
X11381Y3812D01*
G37*
%LPD*%
%LPC*%
G36*
X12285Y3312D02*
X12285Y3312D01*
X12691Y3311D01*
X12684Y3293D01*
X12650Y3222D01*
X12608Y3156D01*
X12559Y3094D01*
X12504Y3038D01*
X12442Y2989D01*
X12375Y2947D01*
X12305Y2913D01*
X12284Y2906D01*
X12285Y3312D01*
G37*
%LPD*%
%LPC*%
G36*
X11806Y24913D02*
X11806Y24913D01*
X11735Y24947D01*
X11668Y24989D01*
X11607Y25038D01*
X11551Y25094D01*
X11502Y25156D01*
X11460Y25222D01*
X11426Y25293D01*
X11419Y25314D01*
X11825Y25313D01*
X11824Y24907D01*
X11806Y24913D01*
G37*
%LPD*%
%LPC*%
G36*
X11767Y2913D02*
X11767Y2913D01*
X11696Y2947D01*
X11630Y2989D01*
X11568Y3038D01*
X11513Y3094D01*
X11464Y3156D01*
X11422Y3222D01*
X11387Y3293D01*
X11380Y3314D01*
X11786Y3313D01*
X11786Y2907D01*
X11767Y2913D01*
G37*
%LPD*%
%LPC*%
G36*
X49077Y3816D02*
X49077Y3816D01*
X49084Y3836D01*
X49118Y3906D01*
X49160Y3973D01*
X49206Y4031D01*
X49209Y4035D01*
X49265Y4090D01*
X49326Y4139D01*
X49393Y4181D01*
X49464Y4215D01*
X49483Y4222D01*
X49483Y3816D01*
X49077Y3816D01*
G37*
%LPD*%
%LPC*%
G36*
X30298Y3816D02*
X30298Y3816D01*
X30304Y3836D01*
X30338Y3906D01*
X30380Y3973D01*
X30426Y4031D01*
X30429Y4035D01*
X30485Y4090D01*
X30547Y4139D01*
X30613Y4181D01*
X30684Y4215D01*
X30703Y4222D01*
X30703Y3816D01*
X30298Y3816D01*
G37*
%LPD*%
%LPC*%
G36*
X30684Y2919D02*
X30684Y2919D01*
X30613Y2953D01*
X30547Y2995D01*
X30485Y3044D01*
X30429Y3099D01*
X30380Y3161D01*
X30338Y3227D01*
X30304Y3298D01*
X30298Y3318D01*
X30703Y3318D01*
X30703Y2912D01*
X30684Y2919D01*
G37*
%LPD*%
%LPC*%
G36*
X49982Y25816D02*
X49982Y25816D01*
X49982Y26222D01*
X50001Y26215D01*
X50072Y26181D01*
X50138Y26139D01*
X50200Y26090D01*
X50256Y26035D01*
X50305Y25973D01*
X50347Y25906D01*
X50381Y25836D01*
X50387Y25816D01*
X49982Y25816D01*
G37*
%LPD*%
%LPC*%
G36*
X49982Y3816D02*
X49982Y3816D01*
X49982Y4222D01*
X50001Y4215D01*
X50072Y4181D01*
X50138Y4139D01*
X50200Y4090D01*
X50256Y4035D01*
X50305Y3973D01*
X50347Y3906D01*
X50381Y3836D01*
X50387Y3816D01*
X49982Y3816D01*
G37*
%LPD*%
%LPC*%
G36*
X31202Y3816D02*
X31202Y3816D01*
X31202Y4222D01*
X31221Y4215D01*
X31292Y4181D01*
X31359Y4139D01*
X31420Y4090D01*
X31476Y4035D01*
X31525Y3973D01*
X31567Y3906D01*
X31601Y3836D01*
X31608Y3816D01*
X31202Y3816D01*
G37*
%LPD*%
%LPC*%
G36*
X49982Y3318D02*
X49982Y3318D01*
X50387Y3318D01*
X50381Y3298D01*
X50347Y3227D01*
X50305Y3161D01*
X50256Y3099D01*
X50200Y3044D01*
X50138Y2995D01*
X50072Y2953D01*
X50001Y2919D01*
X49982Y2912D01*
X49982Y3318D01*
G37*
%LPD*%
%LPC*%
G36*
X49464Y2919D02*
X49464Y2919D01*
X49393Y2953D01*
X49326Y2995D01*
X49265Y3044D01*
X49209Y3099D01*
X49160Y3161D01*
X49118Y3227D01*
X49084Y3298D01*
X49077Y3318D01*
X49483Y3318D01*
X49483Y2912D01*
X49464Y2919D01*
G37*
%LPD*%
%LPC*%
G36*
X31202Y3318D02*
X31202Y3318D01*
X31608Y3318D01*
X31601Y3298D01*
X31567Y3227D01*
X31525Y3161D01*
X31476Y3099D01*
X31420Y3044D01*
X31359Y2995D01*
X31292Y2953D01*
X31221Y2919D01*
X31202Y2912D01*
X31202Y3318D01*
G37*
%LPD*%
%LPC*%
G36*
X31202Y25318D02*
X31202Y25318D01*
X31608Y25318D01*
X31601Y25298D01*
X31567Y25227D01*
X31525Y25161D01*
X31476Y25099D01*
X31420Y25044D01*
X31359Y24995D01*
X31292Y24953D01*
X31221Y24919D01*
X31202Y24912D01*
X31202Y25318D01*
G37*
%LPD*%
%LPC*%
G36*
X49464Y24919D02*
X49464Y24919D01*
X49393Y24953D01*
X49326Y24995D01*
X49265Y25044D01*
X49209Y25099D01*
X49160Y25161D01*
X49118Y25227D01*
X49084Y25298D01*
X49077Y25318D01*
X49483Y25318D01*
X49483Y24912D01*
X49464Y24919D01*
G37*
%LPD*%
%LPC*%
G36*
X30684Y24919D02*
X30684Y24919D01*
X30613Y24953D01*
X30547Y24995D01*
X30485Y25044D01*
X30429Y25099D01*
X30380Y25161D01*
X30338Y25227D01*
X30304Y25298D01*
X30298Y25318D01*
X30703Y25318D01*
X30703Y24912D01*
X30684Y24919D01*
G37*
%LPD*%
%LPC*%
G36*
X49982Y25318D02*
X49982Y25318D01*
X50387Y25318D01*
X50381Y25298D01*
X50347Y25227D01*
X50305Y25161D01*
X50256Y25099D01*
X50200Y25044D01*
X50138Y24995D01*
X50072Y24953D01*
X50001Y24919D01*
X49982Y24912D01*
X49982Y25318D01*
G37*
%LPD*%
%LPC*%
G36*
X49077Y25816D02*
X49077Y25816D01*
X49084Y25836D01*
X49118Y25906D01*
X49160Y25973D01*
X49209Y26035D01*
X49265Y26090D01*
X49326Y26139D01*
X49393Y26181D01*
X49464Y26215D01*
X49483Y26222D01*
X49483Y25816D01*
X49077Y25816D01*
G37*
%LPD*%
%LPC*%
G36*
X30298Y25816D02*
X30298Y25816D01*
X30304Y25836D01*
X30338Y25906D01*
X30380Y25973D01*
X30429Y26035D01*
X30485Y26090D01*
X30547Y26139D01*
X30613Y26181D01*
X30684Y26215D01*
X30703Y26222D01*
X30703Y25816D01*
X30298Y25816D01*
G37*
%LPD*%
%LPC*%
G36*
X31202Y25816D02*
X31202Y25816D01*
X31202Y26222D01*
X31221Y26215D01*
X31292Y26181D01*
X31359Y26139D01*
X31420Y26090D01*
X31476Y26035D01*
X31525Y25973D01*
X31567Y25906D01*
X31601Y25836D01*
X31608Y25816D01*
X31202Y25816D01*
G37*
%LPD*%
%LPC*%
G36*
X50139Y14791D02*
X50139Y14791D01*
X50139Y15115D01*
X50372Y15115D01*
X50392Y15111D01*
X50410Y15104D01*
X50427Y15093D01*
X50441Y15079D01*
X50452Y15062D01*
X50459Y15044D01*
X50463Y15024D01*
X50463Y14791D01*
X50139Y14791D01*
G37*
%LPD*%
%LPC*%
G36*
X11253Y16043D02*
X11253Y16043D01*
X11253Y16366D01*
X11486Y16366D01*
X11505Y16363D01*
X11523Y16355D01*
X11540Y16344D01*
X11554Y16330D01*
X11565Y16313D01*
X11573Y16295D01*
X11576Y16276D01*
X11576Y16043D01*
X11253Y16043D01*
G37*
%LPD*%
%LPC*%
G36*
X11253Y15220D02*
X11253Y15220D01*
X11253Y15544D01*
X11576Y15544D01*
X11576Y15311D01*
X11573Y15291D01*
X11565Y15273D01*
X11554Y15257D01*
X11540Y15243D01*
X11523Y15232D01*
X11505Y15224D01*
X11486Y15220D01*
X11253Y15220D01*
G37*
%LPD*%
%LPC*%
G36*
X50139Y13969D02*
X50139Y13969D01*
X50139Y14293D01*
X50463Y14293D01*
X50463Y14060D01*
X50459Y14040D01*
X50452Y14022D01*
X50441Y14005D01*
X50427Y13991D01*
X50410Y13980D01*
X50392Y13973D01*
X50372Y13969D01*
X50139Y13969D01*
G37*
%LPD*%
%LPC*%
G36*
X23950Y13600D02*
X23950Y13600D01*
X23950Y13924D01*
X24274Y13924D01*
X24274Y13691D01*
X24270Y13671D01*
X24263Y13653D01*
X24251Y13637D01*
X24237Y13623D01*
X24221Y13612D01*
X24203Y13604D01*
X24183Y13600D01*
X23950Y13600D01*
G37*
%LPD*%
%LPC*%
G36*
X23218Y13600D02*
X23218Y13600D01*
X23199Y13604D01*
X23181Y13612D01*
X23164Y13623D01*
X23150Y13637D01*
X23139Y13653D01*
X23131Y13671D01*
X23128Y13691D01*
X23128Y13924D01*
X23452Y13924D01*
X23452Y13600D01*
X23218Y13600D01*
G37*
%LPD*%
%LPC*%
G36*
X30206Y29619D02*
X30206Y29619D01*
X30219Y29650D01*
X30261Y29722D01*
X30311Y29788D01*
X30370Y29846D01*
X30435Y29897D01*
X30507Y29938D01*
X30538Y29951D01*
X30538Y29619D01*
X30206Y29619D01*
G37*
%LPD*%
%LPC*%
G36*
X31037Y29619D02*
X31037Y29619D01*
X31037Y29951D01*
X31068Y29938D01*
X31139Y29897D01*
X31205Y29846D01*
X31264Y29788D01*
X31314Y29722D01*
X31356Y29650D01*
X31368Y29619D01*
X31037Y29619D01*
G37*
%LPD*%
%LPC*%
G36*
X30507Y28802D02*
X30507Y28802D01*
X30435Y28843D01*
X30370Y28894D01*
X30311Y28952D01*
X30261Y29018D01*
X30219Y29090D01*
X30206Y29121D01*
X30538Y29121D01*
X30538Y28789D01*
X30507Y28802D01*
G37*
%LPD*%
%LPC*%
G36*
X31037Y29121D02*
X31037Y29121D01*
X31368Y29121D01*
X31356Y29090D01*
X31314Y29018D01*
X31264Y28952D01*
X31205Y28894D01*
X31139Y28843D01*
X31068Y28802D01*
X31037Y28789D01*
X31037Y29121D01*
G37*
%LPD*%
%LPC*%
G36*
X23775Y28723D02*
X23775Y28723D01*
X23703Y28765D01*
X23637Y28815D01*
X23579Y28874D01*
X23528Y28939D01*
X23487Y29011D01*
X23474Y29042D01*
X23806Y29042D01*
X23806Y28710D01*
X23775Y28723D01*
G37*
%LPD*%
%LPC*%
G36*
X24304Y29042D02*
X24304Y29042D01*
X24636Y29042D01*
X24623Y29011D01*
X24582Y28939D01*
X24531Y28874D01*
X24473Y28815D01*
X24407Y28765D01*
X24335Y28723D01*
X24304Y28710D01*
X24304Y29042D01*
G37*
%LPD*%
%LPC*%
G36*
X31942Y20249D02*
X31942Y20249D01*
X31942Y20514D01*
X32116Y20514D01*
X32136Y20510D01*
X32154Y20503D01*
X32171Y20492D01*
X32185Y20478D01*
X32196Y20461D01*
X32203Y20443D01*
X32207Y20423D01*
X32207Y20249D01*
X31942Y20249D01*
G37*
%LPD*%
%LPC*%
G36*
X24997Y20171D02*
X24997Y20171D01*
X24997Y20435D01*
X25171Y20435D01*
X25191Y20432D01*
X25209Y20424D01*
X25226Y20413D01*
X25240Y20399D01*
X25251Y20382D01*
X25258Y20364D01*
X25262Y20345D01*
X25262Y20171D01*
X24997Y20171D01*
G37*
%LPD*%
%LPC*%
G36*
X10485Y8171D02*
X10485Y8171D01*
X10485Y8436D01*
X10750Y8436D01*
X10750Y8262D01*
X10746Y8242D01*
X10739Y8224D01*
X10728Y8207D01*
X10714Y8193D01*
X10697Y8182D01*
X10679Y8175D01*
X10660Y8171D01*
X10485Y8171D01*
G37*
%LPD*%
%LPC*%
G36*
X10485Y8934D02*
X10485Y8934D01*
X10485Y9199D01*
X10660Y9199D01*
X10679Y9195D01*
X10697Y9188D01*
X10714Y9177D01*
X10728Y9163D01*
X10739Y9146D01*
X10746Y9128D01*
X10750Y9108D01*
X10750Y8934D01*
X10485Y8934D01*
G37*
%LPD*%
%LPC*%
G36*
X24234Y20171D02*
X24234Y20171D01*
X24234Y20345D01*
X24238Y20364D01*
X24245Y20382D01*
X24256Y20399D01*
X24270Y20413D01*
X24287Y20424D01*
X24305Y20432D01*
X24325Y20435D01*
X24499Y20435D01*
X24499Y20171D01*
X24234Y20171D01*
G37*
%LPD*%
%LPC*%
G36*
X9722Y8934D02*
X9722Y8934D01*
X9722Y9108D01*
X9726Y9128D01*
X9734Y9146D01*
X9745Y9163D01*
X9759Y9177D01*
X9775Y9188D01*
X9793Y9195D01*
X9813Y9199D01*
X9987Y9199D01*
X9987Y8934D01*
X9722Y8934D01*
G37*
%LPD*%
%LPC*%
G36*
X31179Y20249D02*
X31179Y20249D01*
X31179Y20423D01*
X31183Y20443D01*
X31190Y20461D01*
X31201Y20478D01*
X31215Y20492D01*
X31232Y20503D01*
X31250Y20510D01*
X31270Y20514D01*
X31444Y20514D01*
X31444Y20249D01*
X31179Y20249D01*
G37*
%LPD*%
%LPC*%
G36*
X31942Y19486D02*
X31942Y19486D01*
X31942Y19751D01*
X32207Y19751D01*
X32207Y19577D01*
X32203Y19557D01*
X32196Y19539D01*
X32185Y19522D01*
X32171Y19508D01*
X32154Y19497D01*
X32136Y19490D01*
X32116Y19486D01*
X31942Y19486D01*
G37*
%LPD*%
%LPC*%
G36*
X24997Y19407D02*
X24997Y19407D01*
X24997Y19672D01*
X25262Y19672D01*
X25262Y19498D01*
X25258Y19478D01*
X25251Y19460D01*
X25240Y19444D01*
X25226Y19430D01*
X25209Y19419D01*
X25191Y19411D01*
X25171Y19407D01*
X24997Y19407D01*
G37*
%LPD*%
%LPC*%
G36*
X24325Y19407D02*
X24325Y19407D01*
X24305Y19411D01*
X24287Y19419D01*
X24270Y19430D01*
X24256Y19444D01*
X24245Y19460D01*
X24238Y19478D01*
X24234Y19498D01*
X24234Y19672D01*
X24499Y19672D01*
X24499Y19407D01*
X24325Y19407D01*
G37*
%LPD*%
%LPC*%
G36*
X31270Y19486D02*
X31270Y19486D01*
X31250Y19490D01*
X31232Y19497D01*
X31215Y19508D01*
X31201Y19522D01*
X31190Y19539D01*
X31183Y19557D01*
X31179Y19577D01*
X31179Y19751D01*
X31444Y19751D01*
X31444Y19486D01*
X31270Y19486D01*
G37*
%LPD*%
%LPC*%
G36*
X9813Y8171D02*
X9813Y8171D01*
X9793Y8175D01*
X9775Y8182D01*
X9759Y8193D01*
X9745Y8207D01*
X9734Y8224D01*
X9726Y8242D01*
X9722Y8262D01*
X9722Y8436D01*
X9987Y8436D01*
X9987Y8171D01*
X9813Y8171D01*
G37*
%LPD*%
%LPC*%
G36*
X44962Y20739D02*
X44962Y20739D01*
X45030Y20739D01*
X44962Y20671D01*
X44962Y20739D01*
G37*
%LPD*%
%LPC*%
G36*
X44962Y18739D02*
X44962Y18739D01*
X45030Y18739D01*
X44962Y18671D01*
X44962Y18739D01*
G37*
%LPD*%
%LPC*%
G36*
X44962Y19237D02*
X44962Y19237D01*
X44962Y19306D01*
X45030Y19237D01*
X44962Y19237D01*
G37*
%LPD*%
%LPC*%
G36*
X44962Y21237D02*
X44962Y21237D01*
X44962Y21306D01*
X45030Y21237D01*
X44962Y21237D01*
G37*
%LPD*%
%LPC*%
G36*
X44962Y17739D02*
X44962Y17739D01*
X45030Y17739D01*
X44962Y17671D01*
X44962Y17739D01*
G37*
%LPD*%
%LPC*%
G36*
X44962Y19739D02*
X44962Y19739D01*
X45030Y19739D01*
X44962Y19671D01*
X44962Y19739D01*
G37*
%LPD*%
%LPC*%
G36*
X44962Y20237D02*
X44962Y20237D01*
X44962Y20306D01*
X45030Y20237D01*
X44962Y20237D01*
G37*
%LPD*%
%LPC*%
G36*
X44962Y18237D02*
X44962Y18237D01*
X44962Y18306D01*
X45030Y18237D01*
X44962Y18237D01*
G37*
%LPD*%
%LPC*%
G36*
X43639Y6995D02*
X43639Y6995D01*
X43681Y6995D01*
X43639Y6953D01*
X43639Y6995D01*
G37*
%LPD*%
%LPC*%
G36*
X43099Y6995D02*
X43099Y6995D01*
X43141Y6995D01*
X43141Y6953D01*
X43099Y6995D01*
G37*
%LPD*%
D10*
X6036Y3572D03*
X12036Y3562D03*
X6074Y25572D03*
X12074Y25562D03*
X24953Y3567D03*
X30953Y3567D03*
X24953Y25567D03*
X30953Y25567D03*
X43732Y3567D03*
X49732Y3567D03*
X43732Y25567D03*
X49732Y25567D03*
D11*
X10236Y8685D03*
X8583Y8685D03*
X24748Y19921D03*
X26402Y19921D03*
D12*
X11003Y15793D03*
X9271Y15793D03*
X49890Y14542D03*
X48158Y14542D03*
D13*
X6851Y16773D03*
X6851Y15573D03*
D14*
X43634Y14587D03*
X44834Y14587D03*
D15*
X43390Y10000D03*
D16*
X43390Y9016D03*
X43390Y8228D03*
X43390Y7244D03*
D17*
X2610Y14700D02*
X2610Y15300D01*
X3610Y15300D02*
X3610Y14700D01*
X2728Y13607D02*
X2728Y13007D01*
X3728Y13007D02*
X3728Y13607D01*
X2650Y16708D02*
X2650Y17308D01*
X3650Y17308D02*
X3650Y16708D01*
D18*
X44713Y17988D03*
X43713Y17988D03*
X44713Y18988D03*
X43713Y18988D03*
X44713Y19988D03*
X43713Y19988D03*
X44713Y20988D03*
X43713Y20988D03*
D19*
X22087Y29291D03*
X24055Y29291D03*
X28819Y29370D03*
X30787Y29370D03*
D11*
X31693Y20000D03*
X30039Y20000D03*
D12*
X23701Y14173D03*
X23701Y15906D03*
D14*
X26584Y15827D03*
X25384Y15827D03*
D20*
X12074Y23124D02*
X12074Y25562D01*
D21*
X22178Y27559D02*
X24055Y29291D01*
X22178Y27559D02*
X14072Y27559D01*
X25567Y27779D02*
X28660Y27242D01*
X25567Y27779D02*
X24055Y29291D01*
X28660Y27242D02*
X30787Y29370D01*
D20*
X30984Y27205D01*
X30984Y25598D01*
X23701Y14173D02*
X23701Y10551D01*
X30953Y8614D02*
X30953Y3567D01*
X24213Y10039D02*
X23701Y10551D01*
X24213Y10039D02*
X29528Y10039D01*
X30953Y8614D01*
X12356Y15793D02*
X11003Y15793D01*
X12356Y15793D02*
X12402Y15748D01*
X12894Y16240D01*
X12894Y22305D01*
X12074Y23124D01*
X11003Y15793D02*
X11003Y8705D01*
X10236Y8685D02*
X10216Y8705D01*
X12036Y8043D02*
X12036Y3562D01*
X11373Y8705D02*
X11003Y8705D01*
X10216Y8705D01*
X11373Y8705D02*
X12036Y8043D01*
D22*
X21654Y14173D02*
X23701Y14173D01*
X21654Y14173D02*
X20472Y15354D01*
X20472Y18898D01*
X21496Y19921D02*
X24748Y19921D01*
X21496Y19921D02*
X20472Y18898D01*
X30953Y23575D02*
X30953Y23622D01*
X30512Y14173D02*
X23701Y14173D01*
X31693Y15354D02*
X31693Y20000D01*
X31693Y15354D02*
X30512Y14173D01*
X49732Y21780D02*
X49732Y25567D01*
X48941Y20988D02*
X44713Y20988D01*
X48941Y20988D02*
X49732Y21780D01*
X44713Y20988D02*
X44713Y19988D01*
X44713Y18988D01*
X44713Y17988D01*
X44787Y17913D01*
X49890Y16055D02*
X49890Y14542D01*
X48031Y17913D02*
X44787Y17913D01*
X48031Y17913D02*
X49890Y16055D01*
X49890Y14542D02*
X49890Y3725D01*
X49732Y3567D01*
X47087Y7244D02*
X43390Y7244D01*
X47441Y6890D02*
X47441Y4134D01*
X48008Y3567D01*
X49732Y3567D01*
X47441Y6890D02*
X47087Y7244D01*
X30953Y23181D02*
X30953Y25567D01*
X30953Y23181D02*
X31693Y22441D01*
X31693Y20000D01*
X30953Y25567D02*
X32654Y25567D01*
X34252Y27165D02*
X48622Y27165D01*
X49732Y26055D01*
X49732Y25567D01*
X34252Y27165D02*
X32654Y25567D01*
D21*
X14072Y27559D02*
X12074Y25562D01*
D20*
X8583Y8685D02*
X8559Y8661D01*
D21*
X6693Y8661D01*
X6036Y8004D01*
X6036Y3572D01*
X16929Y1575D02*
X17323Y1969D01*
X23031Y1969D01*
D20*
X24630Y3567D02*
X24953Y3567D01*
D21*
X24630Y3567D02*
X23031Y1969D01*
X27535Y1772D02*
X40945Y1772D01*
X25740Y3567D02*
X24953Y3567D01*
X25740Y3567D02*
X27535Y1772D01*
X42740Y3567D02*
X43732Y3567D01*
X42740Y3567D02*
X40945Y1772D01*
X16929Y1575D02*
X8033Y1575D01*
X6036Y3572D01*
D20*
X6851Y15573D02*
X9051Y15573D01*
X9271Y15793D01*
D22*
X44834Y14587D02*
X48113Y14587D01*
X48158Y14542D01*
D20*
X23031Y30315D02*
X22087Y29291D01*
D21*
X23485Y30690D01*
X28342Y29846D01*
X28819Y29370D01*
D20*
X2650Y18189D02*
X2650Y17008D01*
X2650Y18189D02*
X3202Y18741D01*
X5512Y18741D02*
X5670Y18741D01*
X5512Y18741D02*
X3202Y18741D01*
X2650Y17008D02*
X2650Y15039D01*
X2610Y15000D01*
X2610Y13425D01*
X2728Y13307D01*
D21*
X7638Y29291D02*
X22087Y29291D01*
X7638Y29291D02*
X5906Y27559D01*
X5906Y25741D01*
X6074Y25572D01*
D23*
X6062Y18741D02*
X5512Y18741D01*
X6851Y17952D02*
X6851Y16773D01*
X6851Y17952D02*
X6062Y18741D01*
X5981Y25479D02*
X6074Y25572D01*
X5981Y25479D02*
X5981Y20548D01*
X4331Y18898D01*
D22*
X24953Y25567D02*
X25000Y25520D01*
X25000Y22244D01*
X26402Y20843D02*
X26402Y19921D01*
X26402Y20843D02*
X25000Y22244D01*
X26584Y19739D02*
X26584Y15827D01*
X26584Y19739D02*
X26402Y19921D01*
X26378Y16142D02*
X26378Y16033D01*
X26584Y15827D01*
X26402Y19921D02*
X29961Y19921D01*
X30039Y20000D01*
X43701Y23031D02*
X43732Y23063D01*
X43732Y21008D02*
X43732Y25567D01*
X43732Y21008D02*
X43713Y20988D01*
X43713Y19988D01*
X43713Y18988D01*
X43713Y17988D01*
X43634Y14587D02*
X43634Y14194D01*
X43634Y14587D02*
X43634Y17910D01*
X43713Y17988D01*
X43634Y14587D02*
X43390Y14343D01*
X43390Y10000D01*
D20*
X3650Y15039D02*
X3650Y17008D01*
X3650Y15039D02*
X3610Y15000D01*
X3610Y13425D01*
X3728Y13307D01*
D22*
X23701Y15906D02*
X25306Y15906D01*
X25384Y15827D01*
X23898Y16102D02*
X23701Y15906D01*
D24*
X0Y0D02*
X55118Y0D01*
X55118Y31496D01*
X0Y31496D01*
X0Y0D01*
X2165Y29900D02*
X2162Y29858D01*
X2156Y29816D01*
X2147Y29775D01*
X2135Y29735D01*
X2121Y29695D01*
X2103Y29657D01*
X2083Y29620D01*
X2060Y29584D01*
X2035Y29550D01*
X2007Y29519D01*
X1977Y29489D01*
X1946Y29461D01*
X1912Y29436D01*
X1876Y29413D01*
X1839Y29393D01*
X1801Y29375D01*
X1761Y29361D01*
X1721Y29349D01*
X1680Y29340D01*
X1638Y29334D01*
X1596Y29331D01*
X1554Y29331D01*
X1512Y29334D01*
X1470Y29340D01*
X1429Y29349D01*
X1388Y29361D01*
X1349Y29375D01*
X1310Y29393D01*
X1273Y29413D01*
X1238Y29436D01*
X1204Y29461D01*
X1172Y29489D01*
X1142Y29519D01*
X1115Y29550D01*
X1089Y29584D01*
X1067Y29620D01*
X1046Y29657D01*
X1029Y29695D01*
X1014Y29735D01*
X1002Y29775D01*
X993Y29816D01*
X987Y29858D01*
X984Y29900D01*
X984Y29942D01*
X987Y29984D01*
X993Y30026D01*
X1002Y30067D01*
X1014Y30108D01*
X1029Y30147D01*
X1046Y30186D01*
X1067Y30223D01*
X1089Y30258D01*
X1115Y30292D01*
X1142Y30324D01*
X1172Y30354D01*
X1204Y30381D01*
X1238Y30407D01*
X1273Y30429D01*
X1310Y30450D01*
X1349Y30467D01*
X1388Y30482D01*
X1429Y30494D01*
X1470Y30503D01*
X1512Y30509D01*
X1554Y30512D01*
X1596Y30512D01*
X1638Y30509D01*
X1680Y30503D01*
X1721Y30494D01*
X1761Y30482D01*
X1801Y30467D01*
X1839Y30450D01*
X1876Y30429D01*
X1912Y30407D01*
X1946Y30381D01*
X1977Y30354D01*
X2007Y30324D01*
X2035Y30292D01*
X2060Y30258D01*
X2083Y30223D01*
X2103Y30186D01*
X2121Y30147D01*
X2135Y30108D01*
X2147Y30067D01*
X2156Y30026D01*
X2162Y29984D01*
X2165Y29942D01*
X2165Y29900D01*
X2165Y1554D02*
X2162Y1512D01*
X2156Y1470D01*
X2147Y1429D01*
X2135Y1388D01*
X2121Y1349D01*
X2103Y1310D01*
X2083Y1273D01*
X2060Y1238D01*
X2035Y1204D01*
X2007Y1172D01*
X1977Y1142D01*
X1946Y1115D01*
X1912Y1089D01*
X1876Y1067D01*
X1839Y1046D01*
X1801Y1029D01*
X1761Y1014D01*
X1721Y1002D01*
X1680Y993D01*
X1638Y987D01*
X1596Y984D01*
X1554Y984D01*
X1512Y987D01*
X1470Y993D01*
X1429Y1002D01*
X1388Y1014D01*
X1349Y1029D01*
X1310Y1046D01*
X1273Y1067D01*
X1238Y1089D01*
X1204Y1115D01*
X1172Y1142D01*
X1142Y1172D01*
X1115Y1204D01*
X1089Y1238D01*
X1067Y1273D01*
X1046Y1310D01*
X1029Y1349D01*
X1014Y1388D01*
X1002Y1429D01*
X993Y1470D01*
X987Y1512D01*
X984Y1554D01*
X984Y1596D01*
X987Y1638D01*
X993Y1680D01*
X1002Y1721D01*
X1014Y1761D01*
X1029Y1801D01*
X1046Y1839D01*
X1067Y1876D01*
X1089Y1912D01*
X1115Y1946D01*
X1142Y1977D01*
X1172Y2007D01*
X1204Y2035D01*
X1238Y2060D01*
X1273Y2083D01*
X1310Y2103D01*
X1349Y2121D01*
X1388Y2135D01*
X1429Y2147D01*
X1470Y2156D01*
X1512Y2162D01*
X1554Y2165D01*
X1596Y2165D01*
X1638Y2162D01*
X1680Y2156D01*
X1721Y2147D01*
X1761Y2135D01*
X1801Y2121D01*
X1839Y2103D01*
X1876Y2083D01*
X1912Y2060D01*
X1946Y2035D01*
X1977Y2007D01*
X2007Y1977D01*
X2035Y1946D01*
X2060Y1912D01*
X2083Y1876D01*
X2103Y1839D01*
X2121Y1801D01*
X2135Y1761D01*
X2147Y1721D01*
X2156Y1680D01*
X2162Y1638D01*
X2165Y1596D01*
X2165Y1554D01*
X54134Y29900D02*
X54131Y29858D01*
X54125Y29816D01*
X54116Y29775D01*
X54104Y29735D01*
X54089Y29695D01*
X54072Y29657D01*
X54052Y29620D01*
X54029Y29584D01*
X54003Y29550D01*
X53976Y29519D01*
X53946Y29489D01*
X53914Y29461D01*
X53880Y29436D01*
X53845Y29413D01*
X53808Y29393D01*
X53769Y29375D01*
X53730Y29361D01*
X53689Y29349D01*
X53648Y29340D01*
X53606Y29334D01*
X53564Y29331D01*
X53522Y29331D01*
X53480Y29334D01*
X53438Y29340D01*
X53397Y29349D01*
X53357Y29361D01*
X53317Y29375D01*
X53279Y29393D01*
X53242Y29413D01*
X53206Y29436D01*
X53173Y29461D01*
X53141Y29489D01*
X53111Y29519D01*
X53083Y29550D01*
X53058Y29584D01*
X53035Y29620D01*
X53015Y29657D01*
X52997Y29695D01*
X52983Y29735D01*
X52971Y29775D01*
X52962Y29816D01*
X52956Y29858D01*
X52953Y29900D01*
X52953Y29942D01*
X52956Y29984D01*
X52962Y30026D01*
X52971Y30067D01*
X52983Y30108D01*
X52997Y30147D01*
X53015Y30186D01*
X53035Y30223D01*
X53058Y30258D01*
X53083Y30292D01*
X53111Y30324D01*
X53141Y30354D01*
X53173Y30381D01*
X53206Y30407D01*
X53242Y30429D01*
X53279Y30450D01*
X53317Y30467D01*
X53357Y30482D01*
X53397Y30494D01*
X53438Y30503D01*
X53480Y30509D01*
X53522Y30512D01*
X53564Y30512D01*
X53606Y30509D01*
X53648Y30503D01*
X53689Y30494D01*
X53730Y30482D01*
X53769Y30467D01*
X53808Y30450D01*
X53845Y30429D01*
X53880Y30407D01*
X53914Y30381D01*
X53946Y30354D01*
X53976Y30324D01*
X54003Y30292D01*
X54029Y30258D01*
X54052Y30223D01*
X54072Y30186D01*
X54089Y30147D01*
X54104Y30108D01*
X54116Y30067D01*
X54125Y30026D01*
X54131Y29984D01*
X54134Y29942D01*
X54134Y29900D01*
X54134Y1554D02*
X54131Y1512D01*
X54125Y1470D01*
X54116Y1429D01*
X54104Y1388D01*
X54089Y1349D01*
X54072Y1310D01*
X54052Y1273D01*
X54029Y1238D01*
X54003Y1204D01*
X53976Y1172D01*
X53946Y1142D01*
X53914Y1115D01*
X53880Y1089D01*
X53845Y1067D01*
X53808Y1046D01*
X53769Y1029D01*
X53730Y1014D01*
X53689Y1002D01*
X53648Y993D01*
X53606Y987D01*
X53564Y984D01*
X53522Y984D01*
X53480Y987D01*
X53438Y993D01*
X53397Y1002D01*
X53357Y1014D01*
X53317Y1029D01*
X53279Y1046D01*
X53242Y1067D01*
X53206Y1089D01*
X53173Y1115D01*
X53141Y1142D01*
X53111Y1172D01*
X53083Y1204D01*
X53058Y1238D01*
X53035Y1273D01*
X53015Y1310D01*
X52997Y1349D01*
X52983Y1388D01*
X52971Y1429D01*
X52962Y1470D01*
X52956Y1512D01*
X52953Y1554D01*
X52953Y1596D01*
X52956Y1638D01*
X52962Y1680D01*
X52971Y1721D01*
X52983Y1761D01*
X52997Y1801D01*
X53015Y1839D01*
X53035Y1876D01*
X53058Y1912D01*
X53083Y1946D01*
X53111Y1977D01*
X53141Y2007D01*
X53173Y2035D01*
X53206Y2060D01*
X53242Y2083D01*
X53279Y2103D01*
X53317Y2121D01*
X53357Y2135D01*
X53397Y2147D01*
X53438Y2156D01*
X53480Y2162D01*
X53522Y2165D01*
X53564Y2165D01*
X53606Y2162D01*
X53648Y2156D01*
X53689Y2147D01*
X53730Y2135D01*
X53769Y2121D01*
X53808Y2103D01*
X53845Y2083D01*
X53880Y2060D01*
X53914Y2035D01*
X53946Y2007D01*
X53976Y1977D01*
X54003Y1946D01*
X54029Y1912D01*
X54052Y1876D01*
X54072Y1839D01*
X54089Y1801D01*
X54104Y1761D01*
X54116Y1721D01*
X54125Y1680D01*
X54131Y1638D01*
X54134Y1596D01*
X54134Y1554D01*
X2958Y4833D02*
X3003Y4830D01*
X3048Y4824D01*
X3092Y4816D01*
X3136Y4804D01*
X3179Y4789D01*
X3220Y4772D01*
X3261Y4752D01*
X3300Y4729D01*
X3337Y4704D01*
X3373Y4677D01*
X3407Y4647D01*
X3439Y4615D01*
X3468Y4581D01*
X3496Y4545D01*
X3521Y4508D01*
X3543Y4468D01*
X3563Y4428D01*
X3580Y4386D01*
X3595Y4343D01*
X3606Y4300D01*
X3615Y4256D01*
X3621Y4211D01*
X3624Y4166D01*
X3623Y4121D01*
X3620Y4076D01*
X3614Y4031D01*
X3606Y3987D01*
X3594Y3943D01*
X3579Y3901D01*
X3562Y3859D01*
X3542Y3819D01*
X3519Y3779D01*
X3494Y3742D01*
X3467Y3706D01*
X3437Y3672D01*
X3405Y3641D01*
X3371Y3611D01*
X3335Y3583D01*
X3298Y3558D01*
X3258Y3536D01*
X3218Y3516D01*
X3176Y3499D01*
X3134Y3485D01*
X3090Y3473D01*
X3046Y3464D01*
X3001Y3458D01*
X2956Y3456D01*
X2911Y3456D01*
X2866Y3459D01*
X2821Y3465D01*
X2777Y3473D01*
X2733Y3485D01*
X2691Y3500D01*
X2649Y3517D01*
X2609Y3537D01*
X2570Y3560D01*
X2532Y3585D01*
X2496Y3612D01*
X2462Y3642D01*
X2431Y3674D01*
X2401Y3708D01*
X2374Y3744D01*
X2349Y3782D01*
X2326Y3821D01*
X2306Y3861D01*
X2289Y3903D01*
X2275Y3946D01*
X2263Y3989D01*
X2254Y4033D01*
X2248Y4078D01*
X2246Y4123D01*
X2246Y4168D01*
X2249Y4213D01*
X2255Y4258D01*
X2263Y4302D01*
X2275Y4346D01*
X2290Y4388D01*
X2307Y4430D01*
X2327Y4471D01*
X2350Y4510D01*
X2375Y4547D01*
X2402Y4583D01*
X2432Y4617D01*
X2464Y4648D01*
X2498Y4678D01*
X2534Y4706D01*
X2572Y4731D01*
X2611Y4753D01*
X2651Y4773D01*
X2693Y4790D01*
X2736Y4805D01*
X2779Y4816D01*
X2823Y4825D01*
X2868Y4831D01*
X2913Y4834D01*
X2958Y4833D01*
X2995Y25700D02*
X3040Y25697D01*
X3084Y25691D01*
X3129Y25682D01*
X3172Y25670D01*
X3215Y25655D01*
X3257Y25638D01*
X3297Y25618D01*
X3336Y25595D01*
X3373Y25570D01*
X3409Y25543D01*
X3443Y25513D01*
X3475Y25481D01*
X3505Y25447D01*
X3532Y25411D01*
X3557Y25374D01*
X3579Y25335D01*
X3599Y25294D01*
X3617Y25252D01*
X3631Y25210D01*
X3643Y25166D01*
X3651Y25122D01*
X3657Y25077D01*
X3660Y25032D01*
X3660Y24987D01*
X3657Y24942D01*
X3651Y24897D01*
X3642Y24853D01*
X3630Y24809D01*
X3616Y24767D01*
X3598Y24725D01*
X3578Y24685D01*
X3556Y24646D01*
X3531Y24608D01*
X3503Y24572D01*
X3473Y24539D01*
X3441Y24507D01*
X3407Y24477D01*
X3372Y24450D01*
X3334Y24425D01*
X3295Y24402D01*
X3254Y24382D01*
X3213Y24365D01*
X3170Y24351D01*
X3126Y24339D01*
X3082Y24330D01*
X3037Y24324D01*
X2992Y24322D01*
X2947Y24322D01*
X2902Y24325D01*
X2857Y24331D01*
X2813Y24340D01*
X2770Y24351D01*
X2727Y24366D01*
X2685Y24383D01*
X2645Y24403D01*
X2606Y24426D01*
X2568Y24451D01*
X2533Y24479D01*
X2499Y24508D01*
X2467Y24540D01*
X2437Y24574D01*
X2410Y24610D01*
X2385Y24648D01*
X2362Y24687D01*
X2343Y24727D01*
X2325Y24769D01*
X2311Y24812D01*
X2299Y24855D01*
X2291Y24900D01*
X2285Y24944D01*
X2282Y24989D01*
X2282Y25034D01*
X2285Y25079D01*
X2291Y25124D01*
X2300Y25168D01*
X2312Y25212D01*
X2326Y25255D01*
X2344Y25296D01*
X2364Y25337D01*
X2386Y25376D01*
X2411Y25413D01*
X2439Y25449D01*
X2469Y25483D01*
X2501Y25515D01*
X2535Y25544D01*
X2570Y25572D01*
X2608Y25597D01*
X2647Y25619D01*
X2688Y25639D01*
X2729Y25656D01*
X2772Y25671D01*
X2816Y25682D01*
X2860Y25691D01*
X2905Y25697D01*
X2950Y25700D01*
X2995Y25700D01*
X15199Y25678D02*
X15244Y25675D01*
X15289Y25669D01*
X15333Y25660D01*
X15377Y25649D01*
X15420Y25634D01*
X15461Y25617D01*
X15502Y25597D01*
X15541Y25574D01*
X15578Y25549D01*
X15614Y25521D01*
X15648Y25492D01*
X15680Y25460D01*
X15709Y25426D01*
X15737Y25390D01*
X15762Y25352D01*
X15784Y25313D01*
X15804Y25273D01*
X15821Y25231D01*
X15836Y25188D01*
X15847Y25145D01*
X15856Y25100D01*
X15862Y25056D01*
X15865Y25011D01*
X15865Y24966D01*
X15862Y24921D01*
X15856Y24876D01*
X15847Y24832D01*
X15835Y24788D01*
X15820Y24745D01*
X15803Y24704D01*
X15783Y24663D01*
X15760Y24624D01*
X15735Y24587D01*
X15708Y24551D01*
X15678Y24517D01*
X15646Y24485D01*
X15612Y24456D01*
X15576Y24428D01*
X15539Y24403D01*
X15500Y24381D01*
X15459Y24361D01*
X15417Y24344D01*
X15375Y24329D01*
X15331Y24318D01*
X15287Y24309D01*
X15242Y24303D01*
X15197Y24300D01*
X15152Y24300D01*
X15107Y24303D01*
X15062Y24309D01*
X15018Y24318D01*
X14974Y24330D01*
X14932Y24345D01*
X14890Y24362D01*
X14850Y24382D01*
X14811Y24405D01*
X14773Y24430D01*
X14737Y24457D01*
X14704Y24487D01*
X14672Y24519D01*
X14642Y24553D01*
X14615Y24589D01*
X14590Y24626D01*
X14567Y24665D01*
X14547Y24706D01*
X14530Y24748D01*
X14516Y24790D01*
X14504Y24834D01*
X14495Y24878D01*
X14490Y24923D01*
X14487Y24968D01*
X14487Y25013D01*
X14490Y25058D01*
X14496Y25103D01*
X14505Y25147D01*
X14516Y25191D01*
X14531Y25233D01*
X14548Y25275D01*
X14568Y25315D01*
X14591Y25354D01*
X14616Y25392D01*
X14644Y25428D01*
X14673Y25461D01*
X14705Y25493D01*
X14739Y25523D01*
X14775Y25550D01*
X14813Y25575D01*
X14852Y25598D01*
X14892Y25618D01*
X14934Y25635D01*
X14977Y25649D01*
X15020Y25661D01*
X15065Y25670D01*
X15109Y25675D01*
X15154Y25678D01*
X15199Y25678D01*
X15163Y4812D02*
X15208Y4809D01*
X15253Y4803D01*
X15297Y4794D01*
X15341Y4783D01*
X15383Y4768D01*
X15425Y4751D01*
X15465Y4731D01*
X15504Y4708D01*
X15542Y4683D01*
X15578Y4655D01*
X15611Y4626D01*
X15643Y4594D01*
X15673Y4560D01*
X15700Y4524D01*
X15725Y4486D01*
X15748Y4447D01*
X15768Y4407D01*
X15785Y4365D01*
X15799Y4322D01*
X15811Y4279D01*
X15820Y4234D01*
X15825Y4190D01*
X15828Y4145D01*
X15828Y4099D01*
X15825Y4054D01*
X15819Y4010D01*
X15810Y3966D01*
X15799Y3922D01*
X15784Y3879D01*
X15767Y3838D01*
X15747Y3797D01*
X15724Y3758D01*
X15699Y3721D01*
X15671Y3685D01*
X15642Y3651D01*
X15610Y3619D01*
X15576Y3590D01*
X15540Y3562D01*
X15502Y3537D01*
X15463Y3515D01*
X15423Y3495D01*
X15381Y3478D01*
X15338Y3463D01*
X15295Y3452D01*
X15250Y3443D01*
X15206Y3437D01*
X15161Y3434D01*
X15116Y3434D01*
X15070Y3437D01*
X15026Y3443D01*
X14982Y3452D01*
X14938Y3464D01*
X14895Y3478D01*
X14854Y3496D01*
X14813Y3516D01*
X14774Y3538D01*
X14737Y3564D01*
X14701Y3591D01*
X14667Y3621D01*
X14635Y3653D01*
X14606Y3687D01*
X14578Y3723D01*
X14553Y3760D01*
X14531Y3799D01*
X14511Y3840D01*
X14494Y3882D01*
X14479Y3924D01*
X14468Y3968D01*
X14459Y4012D01*
X14453Y4057D01*
X14450Y4102D01*
X14450Y4147D01*
X14453Y4192D01*
X14459Y4237D01*
X14468Y4281D01*
X14480Y4324D01*
X14495Y4367D01*
X14512Y4409D01*
X14532Y4449D01*
X14555Y4488D01*
X14580Y4526D01*
X14607Y4561D01*
X14637Y4595D01*
X14669Y4627D01*
X14703Y4657D01*
X14739Y4684D01*
X14776Y4709D01*
X14815Y4732D01*
X14856Y4752D01*
X14898Y4769D01*
X14940Y4783D01*
X14984Y4795D01*
X15028Y4804D01*
X15073Y4809D01*
X15118Y4812D01*
X15163Y4812D01*
X21873Y4823D02*
X21918Y4820D01*
X21963Y4814D01*
X22007Y4805D01*
X22051Y4794D01*
X22093Y4779D01*
X22135Y4762D01*
X22175Y4742D01*
X22214Y4719D01*
X22252Y4694D01*
X22288Y4667D01*
X22322Y4637D01*
X22354Y4605D01*
X22383Y4571D01*
X22411Y4535D01*
X22436Y4498D01*
X22458Y4459D01*
X22478Y4418D01*
X22496Y4377D01*
X22510Y4334D01*
X22522Y4290D01*
X22531Y4246D01*
X22536Y4201D01*
X22539Y4156D01*
X22539Y4111D01*
X22536Y4066D01*
X22531Y4022D01*
X22522Y3977D01*
X22510Y3934D01*
X22496Y3891D01*
X22478Y3849D01*
X22458Y3809D01*
X22436Y3770D01*
X22411Y3732D01*
X22383Y3697D01*
X22354Y3663D01*
X22322Y3631D01*
X22288Y3601D01*
X22252Y3574D01*
X22214Y3548D01*
X22175Y3526D01*
X22135Y3506D01*
X22093Y3489D01*
X22051Y3474D01*
X22007Y3463D01*
X21963Y3454D01*
X21918Y3448D01*
X21873Y3445D01*
X21828Y3445D01*
X21783Y3448D01*
X21738Y3454D01*
X21694Y3463D01*
X21650Y3474D01*
X21608Y3489D01*
X21566Y3506D01*
X21525Y3526D01*
X21486Y3548D01*
X21449Y3574D01*
X21413Y3601D01*
X21379Y3631D01*
X21347Y3663D01*
X21318Y3697D01*
X21290Y3732D01*
X21265Y3770D01*
X21242Y3809D01*
X21222Y3849D01*
X21205Y3891D01*
X21191Y3934D01*
X21179Y3977D01*
X21170Y4022D01*
X21164Y4066D01*
X21161Y4111D01*
X21161Y4156D01*
X21164Y4201D01*
X21170Y4246D01*
X21179Y4290D01*
X21191Y4334D01*
X21205Y4377D01*
X21222Y4418D01*
X21242Y4459D01*
X21265Y4498D01*
X21290Y4535D01*
X21318Y4571D01*
X21347Y4605D01*
X21379Y4637D01*
X21413Y4667D01*
X21449Y4694D01*
X21486Y4719D01*
X21525Y4742D01*
X21566Y4762D01*
X21608Y4779D01*
X21650Y4794D01*
X21694Y4805D01*
X21738Y4814D01*
X21783Y4820D01*
X21828Y4823D01*
X21873Y4823D01*
X21873Y25689D02*
X21918Y25686D01*
X21963Y25680D01*
X22007Y25671D01*
X22051Y25660D01*
X22093Y25645D01*
X22135Y25628D01*
X22175Y25608D01*
X22214Y25585D01*
X22252Y25560D01*
X22288Y25533D01*
X22322Y25503D01*
X22354Y25471D01*
X22383Y25437D01*
X22411Y25402D01*
X22436Y25364D01*
X22458Y25325D01*
X22478Y25284D01*
X22496Y25243D01*
X22510Y25200D01*
X22522Y25157D01*
X22531Y25112D01*
X22536Y25068D01*
X22539Y25023D01*
X22539Y24977D01*
X22536Y24932D01*
X22531Y24888D01*
X22522Y24843D01*
X22510Y24800D01*
X22496Y24757D01*
X22478Y24716D01*
X22458Y24675D01*
X22436Y24636D01*
X22411Y24598D01*
X22383Y24563D01*
X22354Y24529D01*
X22322Y24497D01*
X22288Y24467D01*
X22252Y24440D01*
X22214Y24415D01*
X22175Y24392D01*
X22135Y24372D01*
X22093Y24355D01*
X22051Y24340D01*
X22007Y24329D01*
X21963Y24320D01*
X21918Y24314D01*
X21873Y24311D01*
X21828Y24311D01*
X21783Y24314D01*
X21738Y24320D01*
X21694Y24329D01*
X21650Y24340D01*
X21608Y24355D01*
X21566Y24372D01*
X21525Y24392D01*
X21486Y24415D01*
X21449Y24440D01*
X21413Y24467D01*
X21379Y24497D01*
X21347Y24529D01*
X21318Y24563D01*
X21290Y24598D01*
X21265Y24636D01*
X21242Y24675D01*
X21222Y24716D01*
X21205Y24757D01*
X21191Y24800D01*
X21179Y24843D01*
X21170Y24888D01*
X21164Y24932D01*
X21161Y24977D01*
X21161Y25023D01*
X21164Y25068D01*
X21170Y25112D01*
X21179Y25157D01*
X21191Y25200D01*
X21205Y25243D01*
X21222Y25284D01*
X21242Y25325D01*
X21265Y25364D01*
X21290Y25402D01*
X21318Y25437D01*
X21347Y25471D01*
X21379Y25503D01*
X21413Y25533D01*
X21449Y25560D01*
X21486Y25585D01*
X21525Y25608D01*
X21566Y25628D01*
X21608Y25645D01*
X21650Y25660D01*
X21694Y25671D01*
X21738Y25680D01*
X21783Y25686D01*
X21828Y25689D01*
X21873Y25689D01*
X34078Y25689D02*
X34123Y25686D01*
X34167Y25680D01*
X34212Y25671D01*
X34255Y25660D01*
X34298Y25645D01*
X34340Y25628D01*
X34380Y25608D01*
X34419Y25585D01*
X34457Y25560D01*
X34492Y25533D01*
X34526Y25503D01*
X34558Y25471D01*
X34588Y25437D01*
X34615Y25402D01*
X34641Y25364D01*
X34663Y25325D01*
X34683Y25284D01*
X34700Y25243D01*
X34715Y25200D01*
X34726Y25157D01*
X34735Y25112D01*
X34741Y25068D01*
X34744Y25023D01*
X34744Y24977D01*
X34741Y24932D01*
X34735Y24888D01*
X34726Y24843D01*
X34715Y24800D01*
X34700Y24757D01*
X34683Y24716D01*
X34663Y24675D01*
X34641Y24636D01*
X34615Y24598D01*
X34588Y24563D01*
X34558Y24529D01*
X34526Y24497D01*
X34492Y24467D01*
X34457Y24440D01*
X34419Y24415D01*
X34380Y24392D01*
X34340Y24372D01*
X34298Y24355D01*
X34255Y24340D01*
X34212Y24329D01*
X34167Y24320D01*
X34123Y24314D01*
X34078Y24311D01*
X34033Y24311D01*
X33988Y24314D01*
X33943Y24320D01*
X33899Y24329D01*
X33855Y24340D01*
X33812Y24355D01*
X33771Y24372D01*
X33730Y24392D01*
X33691Y24415D01*
X33654Y24440D01*
X33618Y24467D01*
X33584Y24497D01*
X33552Y24529D01*
X33522Y24563D01*
X33495Y24598D01*
X33470Y24636D01*
X33447Y24675D01*
X33427Y24716D01*
X33410Y24757D01*
X33395Y24800D01*
X33384Y24843D01*
X33375Y24888D01*
X33369Y24932D01*
X33366Y24977D01*
X33366Y25023D01*
X33369Y25068D01*
X33375Y25112D01*
X33384Y25157D01*
X33395Y25200D01*
X33410Y25243D01*
X33427Y25284D01*
X33447Y25325D01*
X33470Y25364D01*
X33495Y25402D01*
X33522Y25437D01*
X33552Y25471D01*
X33584Y25503D01*
X33618Y25533D01*
X33654Y25560D01*
X33691Y25585D01*
X33730Y25608D01*
X33771Y25628D01*
X33812Y25645D01*
X33855Y25660D01*
X33899Y25671D01*
X33943Y25680D01*
X33988Y25686D01*
X34033Y25689D01*
X34078Y25689D01*
X34078Y4823D02*
X34123Y4820D01*
X34167Y4814D01*
X34212Y4805D01*
X34255Y4794D01*
X34298Y4779D01*
X34340Y4762D01*
X34380Y4742D01*
X34419Y4719D01*
X34457Y4694D01*
X34492Y4667D01*
X34526Y4637D01*
X34558Y4605D01*
X34588Y4571D01*
X34615Y4535D01*
X34641Y4498D01*
X34663Y4459D01*
X34683Y4418D01*
X34700Y4377D01*
X34715Y4334D01*
X34726Y4290D01*
X34735Y4246D01*
X34741Y4201D01*
X34744Y4156D01*
X34744Y4111D01*
X34741Y4066D01*
X34735Y4022D01*
X34726Y3977D01*
X34715Y3934D01*
X34700Y3891D01*
X34683Y3849D01*
X34663Y3809D01*
X34641Y3770D01*
X34615Y3732D01*
X34588Y3697D01*
X34558Y3663D01*
X34526Y3631D01*
X34492Y3601D01*
X34457Y3574D01*
X34419Y3548D01*
X34380Y3526D01*
X34340Y3506D01*
X34298Y3489D01*
X34255Y3474D01*
X34212Y3463D01*
X34167Y3454D01*
X34123Y3448D01*
X34078Y3445D01*
X34033Y3445D01*
X33988Y3448D01*
X33943Y3454D01*
X33899Y3463D01*
X33855Y3474D01*
X33812Y3489D01*
X33771Y3506D01*
X33730Y3526D01*
X33691Y3548D01*
X33654Y3574D01*
X33618Y3601D01*
X33584Y3631D01*
X33552Y3663D01*
X33522Y3697D01*
X33495Y3732D01*
X33470Y3770D01*
X33447Y3809D01*
X33427Y3849D01*
X33410Y3891D01*
X33395Y3934D01*
X33384Y3977D01*
X33375Y4022D01*
X33369Y4066D01*
X33366Y4111D01*
X33366Y4156D01*
X33369Y4201D01*
X33375Y4246D01*
X33384Y4290D01*
X33395Y4334D01*
X33410Y4377D01*
X33427Y4418D01*
X33447Y4459D01*
X33470Y4498D01*
X33495Y4535D01*
X33522Y4571D01*
X33552Y4605D01*
X33584Y4637D01*
X33618Y4667D01*
X33654Y4694D01*
X33691Y4719D01*
X33730Y4742D01*
X33771Y4762D01*
X33812Y4779D01*
X33855Y4794D01*
X33899Y4805D01*
X33943Y4814D01*
X33988Y4820D01*
X34033Y4823D01*
X34078Y4823D01*
X40652Y4823D02*
X40697Y4820D01*
X40742Y4814D01*
X40786Y4805D01*
X40830Y4794D01*
X40873Y4779D01*
X40914Y4762D01*
X40955Y4742D01*
X40994Y4719D01*
X41031Y4694D01*
X41067Y4667D01*
X41101Y4637D01*
X41133Y4605D01*
X41163Y4571D01*
X41190Y4535D01*
X41215Y4498D01*
X41238Y4459D01*
X41258Y4418D01*
X41275Y4377D01*
X41290Y4334D01*
X41301Y4290D01*
X41310Y4246D01*
X41316Y4201D01*
X41319Y4156D01*
X41319Y4111D01*
X41316Y4066D01*
X41310Y4022D01*
X41301Y3977D01*
X41290Y3934D01*
X41275Y3891D01*
X41258Y3849D01*
X41238Y3809D01*
X41215Y3770D01*
X41190Y3732D01*
X41163Y3697D01*
X41133Y3663D01*
X41101Y3631D01*
X41067Y3601D01*
X41031Y3574D01*
X40994Y3548D01*
X40955Y3526D01*
X40914Y3506D01*
X40873Y3489D01*
X40830Y3474D01*
X40786Y3463D01*
X40742Y3454D01*
X40697Y3448D01*
X40652Y3445D01*
X40607Y3445D01*
X40562Y3448D01*
X40518Y3454D01*
X40473Y3463D01*
X40430Y3474D01*
X40387Y3489D01*
X40345Y3506D01*
X40305Y3526D01*
X40266Y3548D01*
X40228Y3574D01*
X40193Y3601D01*
X40159Y3631D01*
X40127Y3663D01*
X40097Y3697D01*
X40070Y3732D01*
X40045Y3770D01*
X40022Y3809D01*
X40002Y3849D01*
X39985Y3891D01*
X39970Y3934D01*
X39959Y3977D01*
X39950Y4022D01*
X39944Y4066D01*
X39941Y4111D01*
X39941Y4156D01*
X39944Y4201D01*
X39950Y4246D01*
X39959Y4290D01*
X39970Y4334D01*
X39985Y4377D01*
X40002Y4418D01*
X40022Y4459D01*
X40045Y4498D01*
X40070Y4535D01*
X40097Y4571D01*
X40127Y4605D01*
X40159Y4637D01*
X40193Y4667D01*
X40228Y4694D01*
X40266Y4719D01*
X40305Y4742D01*
X40345Y4762D01*
X40387Y4779D01*
X40430Y4794D01*
X40473Y4805D01*
X40518Y4814D01*
X40562Y4820D01*
X40607Y4823D01*
X40652Y4823D01*
X40652Y25689D02*
X40697Y25686D01*
X40742Y25680D01*
X40786Y25671D01*
X40830Y25660D01*
X40873Y25645D01*
X40914Y25628D01*
X40955Y25608D01*
X40994Y25585D01*
X41031Y25560D01*
X41067Y25533D01*
X41101Y25503D01*
X41133Y25471D01*
X41163Y25437D01*
X41190Y25402D01*
X41215Y25364D01*
X41238Y25325D01*
X41258Y25284D01*
X41275Y25243D01*
X41290Y25200D01*
X41301Y25157D01*
X41310Y25112D01*
X41316Y25068D01*
X41319Y25023D01*
X41319Y24977D01*
X41316Y24932D01*
X41310Y24888D01*
X41301Y24843D01*
X41290Y24800D01*
X41275Y24757D01*
X41258Y24716D01*
X41238Y24675D01*
X41215Y24636D01*
X41190Y24598D01*
X41163Y24563D01*
X41133Y24529D01*
X41101Y24497D01*
X41067Y24467D01*
X41031Y24440D01*
X40994Y24415D01*
X40955Y24392D01*
X40914Y24372D01*
X40873Y24355D01*
X40830Y24340D01*
X40786Y24329D01*
X40742Y24320D01*
X40697Y24314D01*
X40652Y24311D01*
X40607Y24311D01*
X40562Y24314D01*
X40518Y24320D01*
X40473Y24329D01*
X40430Y24340D01*
X40387Y24355D01*
X40345Y24372D01*
X40305Y24392D01*
X40266Y24415D01*
X40228Y24440D01*
X40193Y24467D01*
X40159Y24497D01*
X40127Y24529D01*
X40097Y24563D01*
X40070Y24598D01*
X40045Y24636D01*
X40022Y24675D01*
X40002Y24716D01*
X39985Y24757D01*
X39970Y24800D01*
X39959Y24843D01*
X39950Y24888D01*
X39944Y24932D01*
X39941Y24977D01*
X39941Y25023D01*
X39944Y25068D01*
X39950Y25112D01*
X39959Y25157D01*
X39970Y25200D01*
X39985Y25243D01*
X40002Y25284D01*
X40022Y25325D01*
X40045Y25364D01*
X40070Y25402D01*
X40097Y25437D01*
X40127Y25471D01*
X40159Y25503D01*
X40193Y25533D01*
X40228Y25560D01*
X40266Y25585D01*
X40305Y25608D01*
X40345Y25628D01*
X40387Y25645D01*
X40430Y25660D01*
X40473Y25671D01*
X40518Y25680D01*
X40562Y25686D01*
X40607Y25689D01*
X40652Y25689D01*
X52857Y25689D02*
X52902Y25686D01*
X52947Y25680D01*
X52991Y25671D01*
X53035Y25660D01*
X53077Y25645D01*
X53119Y25628D01*
X53160Y25608D01*
X53199Y25585D01*
X53236Y25560D01*
X53272Y25533D01*
X53306Y25503D01*
X53338Y25471D01*
X53368Y25437D01*
X53395Y25402D01*
X53420Y25364D01*
X53443Y25325D01*
X53463Y25284D01*
X53480Y25243D01*
X53494Y25200D01*
X53506Y25157D01*
X53515Y25112D01*
X53521Y25068D01*
X53524Y25023D01*
X53524Y24977D01*
X53521Y24932D01*
X53515Y24888D01*
X53506Y24843D01*
X53494Y24800D01*
X53480Y24757D01*
X53463Y24716D01*
X53443Y24675D01*
X53420Y24636D01*
X53395Y24598D01*
X53368Y24563D01*
X53338Y24529D01*
X53306Y24497D01*
X53272Y24467D01*
X53236Y24440D01*
X53199Y24415D01*
X53160Y24392D01*
X53119Y24372D01*
X53077Y24355D01*
X53035Y24340D01*
X52991Y24329D01*
X52947Y24320D01*
X52902Y24314D01*
X52857Y24311D01*
X52812Y24311D01*
X52767Y24314D01*
X52722Y24320D01*
X52678Y24329D01*
X52635Y24340D01*
X52592Y24355D01*
X52550Y24372D01*
X52510Y24392D01*
X52471Y24415D01*
X52433Y24440D01*
X52397Y24467D01*
X52363Y24497D01*
X52332Y24529D01*
X52302Y24563D01*
X52274Y24598D01*
X52249Y24636D01*
X52227Y24675D01*
X52207Y24716D01*
X52189Y24757D01*
X52175Y24800D01*
X52163Y24843D01*
X52155Y24888D01*
X52149Y24932D01*
X52146Y24977D01*
X52146Y25023D01*
X52149Y25068D01*
X52155Y25112D01*
X52163Y25157D01*
X52175Y25200D01*
X52189Y25243D01*
X52207Y25284D01*
X52227Y25325D01*
X52249Y25364D01*
X52274Y25402D01*
X52302Y25437D01*
X52332Y25471D01*
X52363Y25503D01*
X52397Y25533D01*
X52433Y25560D01*
X52471Y25585D01*
X52510Y25608D01*
X52550Y25628D01*
X52592Y25645D01*
X52635Y25660D01*
X52678Y25671D01*
X52722Y25680D01*
X52767Y25686D01*
X52812Y25689D01*
X52857Y25689D01*
X52857Y4823D02*
X52902Y4820D01*
X52947Y4814D01*
X52991Y4805D01*
X53035Y4794D01*
X53077Y4779D01*
X53119Y4762D01*
X53160Y4742D01*
X53199Y4719D01*
X53236Y4694D01*
X53272Y4667D01*
X53306Y4637D01*
X53338Y4605D01*
X53368Y4571D01*
X53395Y4535D01*
X53420Y4498D01*
X53443Y4459D01*
X53463Y4418D01*
X53480Y4377D01*
X53494Y4334D01*
X53506Y4290D01*
X53515Y4246D01*
X53521Y4201D01*
X53524Y4156D01*
X53524Y4111D01*
X53521Y4066D01*
X53515Y4022D01*
X53506Y3977D01*
X53494Y3934D01*
X53480Y3891D01*
X53463Y3849D01*
X53443Y3809D01*
X53420Y3770D01*
X53395Y3732D01*
X53368Y3697D01*
X53338Y3663D01*
X53306Y3631D01*
X53272Y3601D01*
X53236Y3574D01*
X53199Y3548D01*
X53160Y3526D01*
X53119Y3506D01*
X53077Y3489D01*
X53035Y3474D01*
X52991Y3463D01*
X52947Y3454D01*
X52902Y3448D01*
X52857Y3445D01*
X52812Y3445D01*
X52767Y3448D01*
X52722Y3454D01*
X52678Y3463D01*
X52635Y3474D01*
X52592Y3489D01*
X52550Y3506D01*
X52510Y3526D01*
X52471Y3548D01*
X52433Y3574D01*
X52397Y3601D01*
X52363Y3631D01*
X52332Y3663D01*
X52302Y3697D01*
X52274Y3732D01*
X52249Y3770D01*
X52227Y3809D01*
X52207Y3849D01*
X52189Y3891D01*
X52175Y3934D01*
X52163Y3977D01*
X52155Y4022D01*
X52149Y4066D01*
X52146Y4111D01*
X52146Y4156D01*
X52149Y4201D01*
X52155Y4246D01*
X52163Y4290D01*
X52175Y4334D01*
X52189Y4377D01*
X52207Y4418D01*
X52227Y4459D01*
X52249Y4498D01*
X52274Y4535D01*
X52302Y4571D01*
X52332Y4605D01*
X52363Y4637D01*
X52397Y4667D01*
X52433Y4694D01*
X52471Y4719D01*
X52510Y4742D01*
X52550Y4762D01*
X52592Y4779D01*
X52635Y4794D01*
X52678Y4805D01*
X52722Y4814D01*
X52767Y4820D01*
X52812Y4823D01*
X52857Y4823D01*
X42305Y10756D02*
X42270Y10759D01*
X42234Y10764D01*
X42200Y10773D01*
X42166Y10784D01*
X42133Y10797D01*
X42101Y10813D01*
X42071Y10832D01*
X42042Y10853D01*
X42015Y10876D01*
X41990Y10901D01*
X41967Y10928D01*
X41946Y10957D01*
X41928Y10987D01*
X41911Y11019D01*
X41898Y11052D01*
X41887Y11086D01*
X41878Y11120D01*
X41873Y11155D01*
X41870Y11191D01*
X41870Y11226D01*
X41873Y11262D01*
X41878Y11297D01*
X41887Y11332D01*
X41898Y11365D01*
X41911Y11398D01*
X41928Y11430D01*
X41946Y11460D01*
X41967Y11489D01*
X41990Y11516D01*
X42015Y11541D01*
X42042Y11564D01*
X42071Y11585D01*
X42101Y11604D01*
X42133Y11620D01*
X42166Y11634D01*
X42200Y11645D01*
X42234Y11653D01*
X42270Y11659D01*
X42305Y11661D01*
X42341Y11661D01*
X42376Y11659D01*
X42411Y11653D01*
X42446Y11645D01*
X42480Y11634D01*
X42513Y11620D01*
X42544Y11604D01*
X42575Y11585D01*
X42603Y11564D01*
X42630Y11541D01*
X42656Y11516D01*
X42679Y11489D01*
X42700Y11460D01*
X42718Y11430D01*
X42734Y11398D01*
X42748Y11365D01*
X42759Y11332D01*
X42767Y11297D01*
X42773Y11262D01*
X42776Y11226D01*
X42776Y11191D01*
X42773Y11155D01*
X42767Y11120D01*
X42759Y11086D01*
X42748Y11052D01*
X42734Y11019D01*
X42718Y10987D01*
X42700Y10957D01*
X42679Y10928D01*
X42656Y10901D01*
X42630Y10876D01*
X42603Y10853D01*
X42575Y10832D01*
X42544Y10813D01*
X42513Y10797D01*
X42480Y10784D01*
X42446Y10773D01*
X42411Y10764D01*
X42376Y10759D01*
X42341Y10756D01*
X42305Y10756D01*
X42305Y5583D02*
X42270Y5585D01*
X42234Y5591D01*
X42200Y5599D01*
X42166Y5610D01*
X42133Y5624D01*
X42101Y5640D01*
X42071Y5659D01*
X42042Y5680D01*
X42015Y5703D01*
X41990Y5728D01*
X41967Y5755D01*
X41946Y5784D01*
X41928Y5814D01*
X41911Y5846D01*
X41898Y5879D01*
X41887Y5912D01*
X41878Y5947D01*
X41873Y5982D01*
X41870Y6018D01*
X41870Y6053D01*
X41873Y6089D01*
X41878Y6124D01*
X41887Y6158D01*
X41898Y6192D01*
X41911Y6225D01*
X41928Y6257D01*
X41946Y6287D01*
X41967Y6316D01*
X41990Y6343D01*
X42015Y6368D01*
X42042Y6391D01*
X42071Y6412D01*
X42101Y6431D01*
X42133Y6447D01*
X42166Y6461D01*
X42200Y6472D01*
X42234Y6480D01*
X42270Y6485D01*
X42305Y6488D01*
X42341Y6488D01*
X42376Y6485D01*
X42411Y6480D01*
X42446Y6472D01*
X42480Y6461D01*
X42513Y6447D01*
X42544Y6431D01*
X42575Y6412D01*
X42603Y6391D01*
X42630Y6368D01*
X42656Y6343D01*
X42679Y6316D01*
X42700Y6287D01*
X42718Y6257D01*
X42734Y6225D01*
X42748Y6192D01*
X42759Y6158D01*
X42767Y6124D01*
X42773Y6089D01*
X42776Y6053D01*
X42776Y6018D01*
X42773Y5982D01*
X42767Y5947D01*
X42759Y5912D01*
X42748Y5879D01*
X42734Y5846D01*
X42718Y5814D01*
X42700Y5784D01*
X42679Y5755D01*
X42656Y5728D01*
X42630Y5703D01*
X42603Y5680D01*
X42575Y5659D01*
X42544Y5640D01*
X42513Y5624D01*
X42480Y5610D01*
X42446Y5599D01*
X42411Y5591D01*
X42376Y5585D01*
X42341Y5583D01*
X42305Y5583D01*
M02*
