G04 EAGLE Gerber RS-274X export*
G75*
%MOIN*%
%FSLAX34Y34*%
%LPD*%
%INBottom Copper*%
%IPPOS*%
%AMOC8*
5,1,8,0,0,1.08239X$1,22.5*%
G01*
%ADD10C,0.006000*%
%ADD11C,0.120000*%
%ADD12R,0.082677X0.082677*%
%ADD13R,0.056220X0.056220*%
%ADD14C,0.056220*%
%ADD15C,0.060000*%
%ADD16P,0.064943X8X112.500000*%
%ADD17C,0.106299*%
%ADD18C,0.010000*%


D10*
X38449Y9257D02*
X38427Y9255D01*
X38405Y9250D01*
X38385Y9242D01*
X38366Y9230D01*
X38349Y9215D01*
X38334Y9198D01*
X38322Y9179D01*
X38314Y9159D01*
X38309Y9137D01*
X38307Y9115D01*
X38309Y9081D01*
X38315Y9048D01*
X38324Y9015D01*
X38337Y8984D01*
X38353Y8955D01*
X38373Y8927D01*
X38396Y8902D01*
X38804Y8920D02*
X38826Y8922D01*
X38848Y8927D01*
X38868Y8935D01*
X38887Y8947D01*
X38904Y8962D01*
X38919Y8979D01*
X38931Y8998D01*
X38939Y9018D01*
X38944Y9040D01*
X38946Y9062D01*
X38947Y9062D02*
X38945Y9091D01*
X38941Y9119D01*
X38933Y9146D01*
X38923Y9173D01*
X38910Y9198D01*
X38894Y9222D01*
X38680Y8991D02*
X38692Y8973D01*
X38707Y8958D01*
X38723Y8945D01*
X38742Y8934D01*
X38762Y8926D01*
X38783Y8922D01*
X38804Y8920D01*
X38573Y9186D02*
X38561Y9204D01*
X38546Y9219D01*
X38530Y9232D01*
X38511Y9243D01*
X38491Y9251D01*
X38470Y9255D01*
X38449Y9257D01*
X38573Y9186D02*
X38680Y8990D01*
X38306Y9598D02*
X38306Y9775D01*
X38306Y9598D02*
X38308Y9579D01*
X38312Y9561D01*
X38320Y9545D01*
X38331Y9529D01*
X38344Y9516D01*
X38360Y9505D01*
X38376Y9497D01*
X38394Y9493D01*
X38413Y9491D01*
X38591Y9491D01*
X38613Y9493D01*
X38635Y9498D01*
X38655Y9506D01*
X38674Y9518D01*
X38691Y9533D01*
X38706Y9550D01*
X38718Y9569D01*
X38726Y9589D01*
X38731Y9611D01*
X38733Y9633D01*
X38731Y9655D01*
X38726Y9677D01*
X38718Y9697D01*
X38706Y9716D01*
X38691Y9733D01*
X38674Y9748D01*
X38655Y9760D01*
X38635Y9768D01*
X38613Y9773D01*
X38591Y9775D01*
X38520Y9775D01*
X38520Y9491D01*
X38306Y10048D02*
X38946Y10048D01*
X38306Y10048D02*
X38306Y10225D01*
X38308Y10244D01*
X38312Y10262D01*
X38320Y10278D01*
X38331Y10294D01*
X38344Y10307D01*
X38359Y10318D01*
X38376Y10326D01*
X38394Y10330D01*
X38413Y10332D01*
X38626Y10332D01*
X38645Y10330D01*
X38663Y10326D01*
X38680Y10318D01*
X38695Y10307D01*
X38708Y10294D01*
X38719Y10279D01*
X38727Y10262D01*
X38731Y10244D01*
X38733Y10225D01*
X38733Y10048D01*
X38555Y10700D02*
X38555Y10860D01*
X38555Y10700D02*
X38553Y10680D01*
X38548Y10660D01*
X38540Y10641D01*
X38529Y10624D01*
X38515Y10609D01*
X38499Y10596D01*
X38481Y10586D01*
X38461Y10580D01*
X38441Y10576D01*
X38421Y10576D01*
X38401Y10580D01*
X38381Y10586D01*
X38363Y10596D01*
X38347Y10609D01*
X38333Y10624D01*
X38322Y10641D01*
X38314Y10660D01*
X38309Y10680D01*
X38307Y10700D01*
X38306Y10700D02*
X38306Y10860D01*
X38626Y10860D01*
X38645Y10858D01*
X38663Y10854D01*
X38680Y10846D01*
X38695Y10835D01*
X38708Y10822D01*
X38719Y10807D01*
X38727Y10790D01*
X38731Y10772D01*
X38733Y10753D01*
X38733Y10611D01*
X38555Y11185D02*
X38484Y11363D01*
X38556Y11186D02*
X38564Y11170D01*
X38575Y11155D01*
X38589Y11144D01*
X38605Y11135D01*
X38623Y11130D01*
X38641Y11128D01*
X38659Y11130D01*
X38676Y11135D01*
X38692Y11144D01*
X38706Y11155D01*
X38718Y11170D01*
X38726Y11186D01*
X38731Y11203D01*
X38733Y11221D01*
X38731Y11254D01*
X38727Y11286D01*
X38719Y11319D01*
X38710Y11350D01*
X38697Y11381D01*
X38484Y11363D02*
X38476Y11379D01*
X38465Y11394D01*
X38451Y11405D01*
X38435Y11414D01*
X38417Y11419D01*
X38399Y11421D01*
X38381Y11419D01*
X38364Y11414D01*
X38348Y11405D01*
X38334Y11394D01*
X38322Y11379D01*
X38314Y11363D01*
X38309Y11346D01*
X38307Y11328D01*
X38306Y11327D02*
X38308Y11288D01*
X38312Y11248D01*
X38320Y11209D01*
X38329Y11170D01*
X38342Y11132D01*
X38733Y11614D02*
X38733Y11828D01*
X38946Y11685D02*
X38413Y11685D01*
X38394Y11687D01*
X38376Y11691D01*
X38360Y11699D01*
X38344Y11710D01*
X38331Y11723D01*
X38320Y11739D01*
X38312Y11755D01*
X38308Y11773D01*
X38306Y11792D01*
X38306Y11828D01*
X38306Y12054D02*
X38733Y12054D01*
X38911Y12036D02*
X38946Y12036D01*
X38946Y12072D01*
X38911Y12072D01*
X38911Y12036D01*
X38555Y12423D02*
X38555Y12583D01*
X38555Y12423D02*
X38553Y12403D01*
X38548Y12383D01*
X38540Y12364D01*
X38529Y12347D01*
X38515Y12332D01*
X38499Y12319D01*
X38481Y12309D01*
X38461Y12303D01*
X38441Y12299D01*
X38421Y12299D01*
X38401Y12303D01*
X38381Y12309D01*
X38363Y12319D01*
X38347Y12332D01*
X38333Y12347D01*
X38322Y12364D01*
X38314Y12383D01*
X38309Y12403D01*
X38307Y12423D01*
X38306Y12423D02*
X38306Y12583D01*
X38626Y12583D01*
X38645Y12581D01*
X38663Y12577D01*
X38680Y12569D01*
X38695Y12558D01*
X38708Y12545D01*
X38719Y12530D01*
X38727Y12513D01*
X38731Y12495D01*
X38733Y12476D01*
X38733Y12334D01*
X38733Y12876D02*
X38306Y12876D01*
X38733Y12876D02*
X38733Y13053D01*
X38731Y13072D01*
X38727Y13090D01*
X38719Y13107D01*
X38708Y13122D01*
X38695Y13135D01*
X38680Y13146D01*
X38663Y13154D01*
X38645Y13158D01*
X38626Y13160D01*
X38306Y13160D01*
X38662Y14033D02*
X38662Y14139D01*
X38306Y14139D01*
X38306Y13926D01*
X38307Y13926D02*
X38309Y13904D01*
X38314Y13882D01*
X38322Y13862D01*
X38334Y13843D01*
X38349Y13826D01*
X38366Y13811D01*
X38385Y13799D01*
X38405Y13791D01*
X38427Y13786D01*
X38449Y13784D01*
X38804Y13784D01*
X38826Y13786D01*
X38848Y13791D01*
X38868Y13799D01*
X38887Y13811D01*
X38904Y13826D01*
X38919Y13843D01*
X38931Y13862D01*
X38939Y13882D01*
X38944Y13904D01*
X38946Y13926D01*
X38946Y14139D01*
X38733Y14435D02*
X38413Y14435D01*
X38413Y14434D02*
X38394Y14436D01*
X38376Y14440D01*
X38360Y14448D01*
X38344Y14459D01*
X38331Y14472D01*
X38320Y14488D01*
X38312Y14504D01*
X38308Y14522D01*
X38306Y14541D01*
X38306Y14719D01*
X38733Y14719D01*
X38555Y15110D02*
X38555Y15270D01*
X38555Y15110D02*
X38553Y15090D01*
X38548Y15070D01*
X38540Y15051D01*
X38529Y15034D01*
X38515Y15019D01*
X38499Y15006D01*
X38481Y14996D01*
X38461Y14990D01*
X38441Y14986D01*
X38421Y14986D01*
X38401Y14990D01*
X38381Y14996D01*
X38363Y15006D01*
X38347Y15019D01*
X38333Y15034D01*
X38322Y15051D01*
X38314Y15070D01*
X38309Y15090D01*
X38307Y15110D01*
X38306Y15110D02*
X38306Y15270D01*
X38626Y15270D01*
X38645Y15268D01*
X38663Y15264D01*
X38680Y15256D01*
X38695Y15245D01*
X38708Y15232D01*
X38719Y15217D01*
X38727Y15200D01*
X38731Y15182D01*
X38733Y15163D01*
X38733Y15021D01*
X38093Y15522D02*
X38093Y15593D01*
X38733Y15806D01*
X38733Y15522D02*
X38306Y15664D01*
X38555Y16156D02*
X38555Y16316D01*
X38555Y16156D02*
X38553Y16136D01*
X38548Y16116D01*
X38540Y16097D01*
X38529Y16080D01*
X38515Y16065D01*
X38499Y16052D01*
X38481Y16042D01*
X38461Y16036D01*
X38441Y16032D01*
X38421Y16032D01*
X38401Y16036D01*
X38381Y16042D01*
X38363Y16052D01*
X38347Y16065D01*
X38333Y16080D01*
X38322Y16097D01*
X38314Y16116D01*
X38309Y16136D01*
X38307Y16156D01*
X38306Y16156D02*
X38306Y16316D01*
X38626Y16316D01*
X38626Y16317D02*
X38645Y16315D01*
X38663Y16311D01*
X38680Y16303D01*
X38695Y16292D01*
X38708Y16279D01*
X38719Y16264D01*
X38727Y16247D01*
X38731Y16229D01*
X38733Y16210D01*
X38733Y16067D01*
X38306Y16696D02*
X38306Y16838D01*
X38306Y16696D02*
X38308Y16677D01*
X38312Y16659D01*
X38320Y16643D01*
X38331Y16627D01*
X38344Y16614D01*
X38360Y16603D01*
X38376Y16595D01*
X38394Y16591D01*
X38413Y16589D01*
X38626Y16589D01*
X38645Y16591D01*
X38663Y16595D01*
X38680Y16603D01*
X38695Y16614D01*
X38708Y16627D01*
X38719Y16643D01*
X38727Y16659D01*
X38731Y16677D01*
X38733Y16696D01*
X38733Y16838D01*
X38555Y17182D02*
X38555Y17342D01*
X38555Y17182D02*
X38553Y17162D01*
X38548Y17142D01*
X38540Y17123D01*
X38529Y17106D01*
X38515Y17091D01*
X38499Y17078D01*
X38481Y17068D01*
X38461Y17062D01*
X38441Y17058D01*
X38421Y17058D01*
X38401Y17062D01*
X38381Y17068D01*
X38363Y17078D01*
X38347Y17091D01*
X38333Y17106D01*
X38322Y17123D01*
X38314Y17142D01*
X38309Y17162D01*
X38307Y17182D01*
X38306Y17182D02*
X38306Y17342D01*
X38626Y17342D01*
X38645Y17340D01*
X38663Y17336D01*
X38680Y17328D01*
X38695Y17317D01*
X38708Y17304D01*
X38719Y17289D01*
X38727Y17272D01*
X38731Y17254D01*
X38733Y17235D01*
X38733Y17093D01*
X38733Y17635D02*
X38306Y17635D01*
X38733Y17635D02*
X38733Y17813D01*
X38731Y17832D01*
X38727Y17850D01*
X38719Y17867D01*
X38708Y17882D01*
X38695Y17895D01*
X38680Y17906D01*
X38663Y17914D01*
X38645Y17918D01*
X38626Y17920D01*
X38626Y17919D02*
X38306Y17919D01*
X37896Y8902D02*
X37256Y8902D01*
X37256Y9186D01*
X37505Y9529D02*
X37505Y9689D01*
X37505Y9529D02*
X37503Y9509D01*
X37498Y9489D01*
X37490Y9470D01*
X37479Y9453D01*
X37465Y9438D01*
X37449Y9425D01*
X37431Y9415D01*
X37411Y9409D01*
X37391Y9405D01*
X37371Y9405D01*
X37351Y9409D01*
X37331Y9415D01*
X37313Y9425D01*
X37297Y9438D01*
X37283Y9453D01*
X37272Y9470D01*
X37264Y9489D01*
X37259Y9509D01*
X37257Y9529D01*
X37256Y9529D02*
X37256Y9689D01*
X37576Y9689D01*
X37576Y9690D02*
X37595Y9688D01*
X37613Y9684D01*
X37630Y9676D01*
X37645Y9665D01*
X37658Y9652D01*
X37669Y9637D01*
X37677Y9620D01*
X37681Y9602D01*
X37683Y9583D01*
X37683Y9440D01*
X37683Y9982D02*
X37363Y9982D01*
X37344Y9984D01*
X37326Y9988D01*
X37310Y9996D01*
X37294Y10007D01*
X37281Y10020D01*
X37270Y10036D01*
X37262Y10052D01*
X37258Y10070D01*
X37256Y10089D01*
X37256Y10267D01*
X37683Y10267D01*
X37683Y10560D02*
X37256Y10560D01*
X37683Y10560D02*
X37683Y10773D01*
X37612Y10773D01*
X37505Y11088D02*
X37505Y11248D01*
X37505Y11088D02*
X37503Y11068D01*
X37498Y11048D01*
X37490Y11029D01*
X37479Y11012D01*
X37465Y10997D01*
X37449Y10984D01*
X37431Y10974D01*
X37411Y10968D01*
X37391Y10964D01*
X37371Y10964D01*
X37351Y10968D01*
X37331Y10974D01*
X37313Y10984D01*
X37297Y10997D01*
X37283Y11012D01*
X37272Y11029D01*
X37264Y11048D01*
X37259Y11068D01*
X37257Y11088D01*
X37256Y11088D02*
X37256Y11248D01*
X37576Y11248D01*
X37576Y11249D02*
X37595Y11247D01*
X37613Y11243D01*
X37630Y11235D01*
X37645Y11224D01*
X37658Y11211D01*
X37669Y11196D01*
X37677Y11179D01*
X37681Y11161D01*
X37683Y11142D01*
X37683Y10999D01*
X37896Y11876D02*
X37256Y11876D01*
X37256Y12160D01*
X37505Y12504D02*
X37505Y12664D01*
X37505Y12504D02*
X37503Y12484D01*
X37498Y12464D01*
X37490Y12445D01*
X37479Y12428D01*
X37465Y12413D01*
X37449Y12400D01*
X37431Y12390D01*
X37411Y12384D01*
X37391Y12380D01*
X37371Y12380D01*
X37351Y12384D01*
X37331Y12390D01*
X37313Y12400D01*
X37297Y12413D01*
X37283Y12428D01*
X37272Y12445D01*
X37264Y12464D01*
X37259Y12484D01*
X37257Y12504D01*
X37256Y12504D02*
X37256Y12664D01*
X37576Y12664D01*
X37595Y12662D01*
X37613Y12658D01*
X37630Y12650D01*
X37645Y12639D01*
X37658Y12626D01*
X37669Y12611D01*
X37677Y12594D01*
X37681Y12576D01*
X37683Y12557D01*
X37683Y12415D01*
X37683Y12960D02*
X37256Y12960D01*
X37683Y12960D02*
X37683Y13173D01*
X37612Y13173D01*
X37505Y13488D02*
X37505Y13648D01*
X37505Y13488D02*
X37503Y13468D01*
X37498Y13448D01*
X37490Y13429D01*
X37479Y13412D01*
X37465Y13397D01*
X37449Y13384D01*
X37431Y13374D01*
X37411Y13368D01*
X37391Y13364D01*
X37371Y13364D01*
X37351Y13368D01*
X37331Y13374D01*
X37313Y13384D01*
X37297Y13397D01*
X37283Y13412D01*
X37272Y13429D01*
X37264Y13448D01*
X37259Y13468D01*
X37257Y13488D01*
X37256Y13488D02*
X37256Y13648D01*
X37576Y13648D01*
X37576Y13649D02*
X37595Y13647D01*
X37613Y13643D01*
X37630Y13635D01*
X37645Y13624D01*
X37658Y13611D01*
X37669Y13596D01*
X37677Y13579D01*
X37681Y13561D01*
X37683Y13542D01*
X37683Y13399D01*
X36846Y8902D02*
X36206Y8902D01*
X36846Y8902D02*
X36846Y9079D01*
X36847Y9079D02*
X36845Y9104D01*
X36840Y9129D01*
X36831Y9153D01*
X36819Y9175D01*
X36804Y9196D01*
X36786Y9214D01*
X36765Y9229D01*
X36743Y9241D01*
X36719Y9250D01*
X36694Y9255D01*
X36669Y9257D01*
X36644Y9255D01*
X36619Y9250D01*
X36595Y9241D01*
X36573Y9229D01*
X36552Y9214D01*
X36534Y9196D01*
X36519Y9175D01*
X36507Y9153D01*
X36498Y9129D01*
X36493Y9104D01*
X36491Y9079D01*
X36491Y8902D01*
X36491Y9115D02*
X36206Y9257D01*
X36349Y9508D02*
X36491Y9508D01*
X36513Y9510D01*
X36535Y9515D01*
X36555Y9523D01*
X36574Y9535D01*
X36591Y9550D01*
X36606Y9567D01*
X36618Y9586D01*
X36626Y9606D01*
X36631Y9628D01*
X36633Y9650D01*
X36631Y9672D01*
X36626Y9694D01*
X36618Y9714D01*
X36606Y9733D01*
X36591Y9750D01*
X36574Y9765D01*
X36555Y9777D01*
X36535Y9785D01*
X36513Y9790D01*
X36491Y9792D01*
X36349Y9792D01*
X36327Y9790D01*
X36305Y9785D01*
X36285Y9777D01*
X36266Y9765D01*
X36249Y9750D01*
X36234Y9733D01*
X36222Y9714D01*
X36214Y9694D01*
X36209Y9672D01*
X36207Y9650D01*
X36209Y9628D01*
X36214Y9606D01*
X36222Y9586D01*
X36234Y9567D01*
X36249Y9550D01*
X36266Y9535D01*
X36285Y9523D01*
X36305Y9515D01*
X36327Y9510D01*
X36349Y9508D01*
X36206Y10065D02*
X36846Y10065D01*
X36206Y10065D02*
X36206Y10242D01*
X36208Y10261D01*
X36212Y10279D01*
X36220Y10295D01*
X36231Y10311D01*
X36244Y10324D01*
X36259Y10335D01*
X36276Y10343D01*
X36294Y10347D01*
X36313Y10349D01*
X36526Y10349D01*
X36545Y10347D01*
X36563Y10343D01*
X36580Y10335D01*
X36595Y10324D01*
X36608Y10311D01*
X36619Y10296D01*
X36627Y10279D01*
X36631Y10261D01*
X36633Y10242D01*
X36633Y10065D01*
X36491Y10595D02*
X36349Y10595D01*
X36491Y10595D02*
X36513Y10597D01*
X36535Y10602D01*
X36555Y10610D01*
X36574Y10622D01*
X36591Y10637D01*
X36606Y10654D01*
X36618Y10673D01*
X36626Y10693D01*
X36631Y10715D01*
X36633Y10737D01*
X36631Y10759D01*
X36626Y10781D01*
X36618Y10801D01*
X36606Y10820D01*
X36591Y10837D01*
X36574Y10852D01*
X36555Y10864D01*
X36535Y10872D01*
X36513Y10877D01*
X36491Y10879D01*
X36491Y10880D02*
X36349Y10880D01*
X36349Y10879D02*
X36327Y10877D01*
X36305Y10872D01*
X36285Y10864D01*
X36266Y10852D01*
X36249Y10837D01*
X36234Y10820D01*
X36222Y10801D01*
X36214Y10781D01*
X36209Y10759D01*
X36207Y10737D01*
X36209Y10715D01*
X36214Y10693D01*
X36222Y10673D01*
X36234Y10654D01*
X36249Y10637D01*
X36266Y10622D01*
X36285Y10610D01*
X36305Y10602D01*
X36327Y10597D01*
X36349Y10595D01*
X36206Y11236D02*
X36206Y11378D01*
X36206Y11236D02*
X36208Y11217D01*
X36212Y11199D01*
X36220Y11183D01*
X36231Y11167D01*
X36244Y11154D01*
X36260Y11143D01*
X36276Y11135D01*
X36294Y11131D01*
X36313Y11129D01*
X36526Y11129D01*
X36545Y11131D01*
X36563Y11135D01*
X36580Y11143D01*
X36595Y11154D01*
X36608Y11167D01*
X36619Y11183D01*
X36627Y11199D01*
X36631Y11217D01*
X36633Y11236D01*
X36633Y11378D01*
X36491Y11600D02*
X36349Y11600D01*
X36491Y11600D02*
X36513Y11602D01*
X36535Y11607D01*
X36555Y11615D01*
X36574Y11627D01*
X36591Y11642D01*
X36606Y11659D01*
X36618Y11678D01*
X36626Y11698D01*
X36631Y11720D01*
X36633Y11742D01*
X36631Y11764D01*
X36626Y11786D01*
X36618Y11806D01*
X36606Y11825D01*
X36591Y11842D01*
X36574Y11857D01*
X36555Y11869D01*
X36535Y11877D01*
X36513Y11882D01*
X36491Y11884D01*
X36491Y11885D02*
X36349Y11885D01*
X36349Y11884D02*
X36327Y11882D01*
X36305Y11877D01*
X36285Y11869D01*
X36266Y11857D01*
X36249Y11842D01*
X36234Y11825D01*
X36222Y11806D01*
X36214Y11786D01*
X36209Y11764D01*
X36207Y11742D01*
X36209Y11720D01*
X36214Y11698D01*
X36222Y11678D01*
X36234Y11659D01*
X36249Y11642D01*
X36266Y11627D01*
X36285Y11615D01*
X36305Y11607D01*
X36327Y11602D01*
X36349Y11600D01*
X36313Y12143D02*
X36846Y12143D01*
X36313Y12143D02*
X36294Y12145D01*
X36276Y12149D01*
X36260Y12157D01*
X36244Y12168D01*
X36231Y12181D01*
X36220Y12197D01*
X36212Y12213D01*
X36208Y12231D01*
X36206Y12250D01*
X36455Y12473D02*
X36455Y12899D01*
X36206Y13191D02*
X36846Y13191D01*
X36491Y13404D01*
X36846Y13617D01*
X36206Y13617D01*
X36349Y13898D02*
X36491Y13898D01*
X36513Y13900D01*
X36535Y13905D01*
X36555Y13913D01*
X36574Y13925D01*
X36591Y13940D01*
X36606Y13957D01*
X36618Y13976D01*
X36626Y13996D01*
X36631Y14018D01*
X36633Y14040D01*
X36631Y14062D01*
X36626Y14084D01*
X36618Y14104D01*
X36606Y14123D01*
X36591Y14140D01*
X36574Y14155D01*
X36555Y14167D01*
X36535Y14175D01*
X36513Y14180D01*
X36491Y14182D01*
X36349Y14182D01*
X36327Y14180D01*
X36305Y14175D01*
X36285Y14167D01*
X36266Y14155D01*
X36249Y14140D01*
X36234Y14123D01*
X36222Y14104D01*
X36214Y14084D01*
X36209Y14062D01*
X36207Y14040D01*
X36209Y14018D01*
X36214Y13996D01*
X36222Y13976D01*
X36234Y13957D01*
X36249Y13940D01*
X36266Y13925D01*
X36285Y13913D01*
X36305Y13905D01*
X36327Y13900D01*
X36349Y13898D01*
X36633Y14380D02*
X36633Y14593D01*
X36846Y14451D02*
X36313Y14451D01*
X36294Y14453D01*
X36276Y14457D01*
X36260Y14465D01*
X36244Y14476D01*
X36231Y14489D01*
X36220Y14505D01*
X36212Y14521D01*
X36208Y14539D01*
X36206Y14558D01*
X36206Y14593D01*
X36206Y14819D02*
X36633Y14819D01*
X36811Y14802D02*
X36846Y14802D01*
X36846Y14837D01*
X36811Y14837D01*
X36811Y14802D01*
X36491Y15067D02*
X36349Y15067D01*
X36491Y15067D02*
X36513Y15069D01*
X36535Y15074D01*
X36555Y15082D01*
X36574Y15094D01*
X36591Y15109D01*
X36606Y15126D01*
X36618Y15145D01*
X36626Y15165D01*
X36631Y15187D01*
X36633Y15209D01*
X36631Y15231D01*
X36626Y15253D01*
X36618Y15273D01*
X36606Y15292D01*
X36591Y15309D01*
X36574Y15324D01*
X36555Y15336D01*
X36535Y15344D01*
X36513Y15349D01*
X36491Y15351D01*
X36349Y15351D01*
X36327Y15349D01*
X36305Y15344D01*
X36285Y15336D01*
X36266Y15324D01*
X36249Y15309D01*
X36234Y15292D01*
X36222Y15273D01*
X36214Y15253D01*
X36209Y15231D01*
X36207Y15209D01*
X36209Y15187D01*
X36214Y15165D01*
X36222Y15145D01*
X36234Y15126D01*
X36249Y15109D01*
X36266Y15094D01*
X36285Y15082D01*
X36305Y15074D01*
X36327Y15069D01*
X36349Y15067D01*
X36206Y15621D02*
X36633Y15621D01*
X36633Y15799D01*
X36631Y15818D01*
X36627Y15836D01*
X36619Y15853D01*
X36608Y15868D01*
X36595Y15881D01*
X36580Y15892D01*
X36563Y15900D01*
X36545Y15904D01*
X36526Y15906D01*
X36526Y15905D02*
X36206Y15905D01*
X36846Y16704D02*
X36844Y16727D01*
X36840Y16749D01*
X36832Y16770D01*
X36821Y16791D01*
X36807Y16809D01*
X36791Y16825D01*
X36773Y16839D01*
X36752Y16850D01*
X36731Y16858D01*
X36709Y16862D01*
X36686Y16864D01*
X36847Y16704D02*
X36845Y16678D01*
X36841Y16653D01*
X36833Y16628D01*
X36821Y16605D01*
X36808Y16583D01*
X36791Y16563D01*
X36772Y16545D01*
X36751Y16530D01*
X36729Y16518D01*
X36704Y16508D01*
X36561Y16811D02*
X36579Y16826D01*
X36598Y16840D01*
X36618Y16850D01*
X36640Y16858D01*
X36663Y16862D01*
X36686Y16864D01*
X36562Y16811D02*
X36206Y16508D01*
X36206Y16864D01*
X36526Y17124D02*
X36566Y17126D01*
X36605Y17130D01*
X36645Y17137D01*
X36683Y17148D01*
X36720Y17161D01*
X36757Y17177D01*
X36758Y17177D02*
X36777Y17185D01*
X36794Y17196D01*
X36809Y17210D01*
X36822Y17225D01*
X36833Y17243D01*
X36841Y17262D01*
X36845Y17282D01*
X36847Y17302D01*
X36845Y17322D01*
X36841Y17342D01*
X36833Y17361D01*
X36822Y17379D01*
X36809Y17394D01*
X36794Y17408D01*
X36777Y17419D01*
X36758Y17427D01*
X36757Y17426D02*
X36720Y17442D01*
X36683Y17455D01*
X36645Y17466D01*
X36605Y17473D01*
X36566Y17477D01*
X36526Y17479D01*
X36526Y17124D02*
X36486Y17126D01*
X36447Y17130D01*
X36408Y17137D01*
X36369Y17148D01*
X36332Y17161D01*
X36295Y17177D01*
X36276Y17185D01*
X36259Y17196D01*
X36244Y17210D01*
X36231Y17225D01*
X36220Y17243D01*
X36212Y17262D01*
X36208Y17282D01*
X36206Y17302D01*
X36295Y17426D02*
X36332Y17442D01*
X36369Y17455D01*
X36408Y17466D01*
X36447Y17473D01*
X36486Y17477D01*
X36526Y17479D01*
X36295Y17427D02*
X36276Y17419D01*
X36259Y17408D01*
X36244Y17394D01*
X36231Y17379D01*
X36220Y17361D01*
X36212Y17342D01*
X36208Y17322D01*
X36206Y17302D01*
X36349Y17159D02*
X36704Y17444D01*
X36846Y17935D02*
X36844Y17958D01*
X36840Y17980D01*
X36832Y18001D01*
X36821Y18022D01*
X36807Y18040D01*
X36791Y18056D01*
X36773Y18070D01*
X36752Y18081D01*
X36731Y18089D01*
X36709Y18093D01*
X36686Y18095D01*
X36847Y17935D02*
X36845Y17909D01*
X36841Y17884D01*
X36833Y17859D01*
X36821Y17836D01*
X36808Y17814D01*
X36791Y17794D01*
X36772Y17776D01*
X36751Y17761D01*
X36729Y17749D01*
X36704Y17739D01*
X36561Y18042D02*
X36579Y18057D01*
X36598Y18071D01*
X36618Y18081D01*
X36640Y18089D01*
X36663Y18093D01*
X36686Y18095D01*
X36562Y18041D02*
X36206Y17739D01*
X36206Y18095D01*
X36206Y18355D02*
X36206Y18532D01*
X36208Y18557D01*
X36213Y18582D01*
X36222Y18606D01*
X36234Y18628D01*
X36249Y18649D01*
X36267Y18667D01*
X36288Y18682D01*
X36310Y18694D01*
X36334Y18703D01*
X36359Y18708D01*
X36384Y18710D01*
X36409Y18708D01*
X36434Y18703D01*
X36458Y18694D01*
X36480Y18682D01*
X36501Y18667D01*
X36519Y18649D01*
X36534Y18628D01*
X36546Y18606D01*
X36555Y18582D01*
X36560Y18557D01*
X36562Y18532D01*
X36846Y18568D02*
X36846Y18355D01*
X36846Y18568D02*
X36844Y18590D01*
X36839Y18612D01*
X36831Y18632D01*
X36819Y18651D01*
X36804Y18668D01*
X36787Y18683D01*
X36768Y18695D01*
X36748Y18703D01*
X36726Y18708D01*
X36704Y18710D01*
X36682Y18708D01*
X36660Y18703D01*
X36640Y18695D01*
X36621Y18683D01*
X36604Y18668D01*
X36589Y18651D01*
X36577Y18632D01*
X36569Y18612D01*
X36564Y18590D01*
X36562Y18568D01*
X36562Y18426D01*
D11*
X6036Y3572D03*
X12036Y3562D03*
X6074Y25572D03*
X12074Y25562D03*
X24953Y3567D03*
X30953Y3567D03*
X24953Y25567D03*
X30953Y25567D03*
X43732Y3567D03*
X49732Y3567D03*
X43732Y25567D03*
X49732Y25567D03*
D12*
X10236Y8685D03*
X8583Y8685D03*
X24748Y19921D03*
X26402Y19921D03*
D13*
X43390Y10000D03*
D14*
X43390Y9016D03*
X43390Y8228D03*
X43390Y7244D03*
D15*
X2610Y14700D02*
X2610Y15300D01*
X3610Y15300D02*
X3610Y14700D01*
X2728Y13607D02*
X2728Y13007D01*
X3728Y13007D02*
X3728Y13607D01*
X2650Y16708D02*
X2650Y17308D01*
X3650Y17308D02*
X3650Y16708D01*
D16*
X44713Y17988D03*
X43713Y17988D03*
X44713Y18988D03*
X43713Y18988D03*
X44713Y19988D03*
X43713Y19988D03*
X44713Y20988D03*
X43713Y20988D03*
D17*
X22087Y29291D03*
X24055Y29291D03*
X28819Y29370D03*
X30787Y29370D03*
D12*
X31693Y20000D03*
X30039Y20000D03*
D18*
X0Y0D02*
X55118Y0D01*
X55118Y31496D01*
X0Y31496D01*
X0Y0D01*
X2165Y29900D02*
X2162Y29858D01*
X2156Y29816D01*
X2147Y29775D01*
X2135Y29735D01*
X2121Y29695D01*
X2103Y29657D01*
X2083Y29620D01*
X2060Y29584D01*
X2035Y29550D01*
X2007Y29519D01*
X1977Y29489D01*
X1946Y29461D01*
X1912Y29436D01*
X1876Y29413D01*
X1839Y29393D01*
X1801Y29375D01*
X1761Y29361D01*
X1721Y29349D01*
X1680Y29340D01*
X1638Y29334D01*
X1596Y29331D01*
X1554Y29331D01*
X1512Y29334D01*
X1470Y29340D01*
X1429Y29349D01*
X1388Y29361D01*
X1349Y29375D01*
X1310Y29393D01*
X1273Y29413D01*
X1238Y29436D01*
X1204Y29461D01*
X1172Y29489D01*
X1142Y29519D01*
X1115Y29550D01*
X1089Y29584D01*
X1067Y29620D01*
X1046Y29657D01*
X1029Y29695D01*
X1014Y29735D01*
X1002Y29775D01*
X993Y29816D01*
X987Y29858D01*
X984Y29900D01*
X984Y29942D01*
X987Y29984D01*
X993Y30026D01*
X1002Y30067D01*
X1014Y30108D01*
X1029Y30147D01*
X1046Y30186D01*
X1067Y30223D01*
X1089Y30258D01*
X1115Y30292D01*
X1142Y30324D01*
X1172Y30354D01*
X1204Y30381D01*
X1238Y30407D01*
X1273Y30429D01*
X1310Y30450D01*
X1349Y30467D01*
X1388Y30482D01*
X1429Y30494D01*
X1470Y30503D01*
X1512Y30509D01*
X1554Y30512D01*
X1596Y30512D01*
X1638Y30509D01*
X1680Y30503D01*
X1721Y30494D01*
X1761Y30482D01*
X1801Y30467D01*
X1839Y30450D01*
X1876Y30429D01*
X1912Y30407D01*
X1946Y30381D01*
X1977Y30354D01*
X2007Y30324D01*
X2035Y30292D01*
X2060Y30258D01*
X2083Y30223D01*
X2103Y30186D01*
X2121Y30147D01*
X2135Y30108D01*
X2147Y30067D01*
X2156Y30026D01*
X2162Y29984D01*
X2165Y29942D01*
X2165Y29900D01*
X2165Y1554D02*
X2162Y1512D01*
X2156Y1470D01*
X2147Y1429D01*
X2135Y1388D01*
X2121Y1349D01*
X2103Y1310D01*
X2083Y1273D01*
X2060Y1238D01*
X2035Y1204D01*
X2007Y1172D01*
X1977Y1142D01*
X1946Y1115D01*
X1912Y1089D01*
X1876Y1067D01*
X1839Y1046D01*
X1801Y1029D01*
X1761Y1014D01*
X1721Y1002D01*
X1680Y993D01*
X1638Y987D01*
X1596Y984D01*
X1554Y984D01*
X1512Y987D01*
X1470Y993D01*
X1429Y1002D01*
X1388Y1014D01*
X1349Y1029D01*
X1310Y1046D01*
X1273Y1067D01*
X1238Y1089D01*
X1204Y1115D01*
X1172Y1142D01*
X1142Y1172D01*
X1115Y1204D01*
X1089Y1238D01*
X1067Y1273D01*
X1046Y1310D01*
X1029Y1349D01*
X1014Y1388D01*
X1002Y1429D01*
X993Y1470D01*
X987Y1512D01*
X984Y1554D01*
X984Y1596D01*
X987Y1638D01*
X993Y1680D01*
X1002Y1721D01*
X1014Y1761D01*
X1029Y1801D01*
X1046Y1839D01*
X1067Y1876D01*
X1089Y1912D01*
X1115Y1946D01*
X1142Y1977D01*
X1172Y2007D01*
X1204Y2035D01*
X1238Y2060D01*
X1273Y2083D01*
X1310Y2103D01*
X1349Y2121D01*
X1388Y2135D01*
X1429Y2147D01*
X1470Y2156D01*
X1512Y2162D01*
X1554Y2165D01*
X1596Y2165D01*
X1638Y2162D01*
X1680Y2156D01*
X1721Y2147D01*
X1761Y2135D01*
X1801Y2121D01*
X1839Y2103D01*
X1876Y2083D01*
X1912Y2060D01*
X1946Y2035D01*
X1977Y2007D01*
X2007Y1977D01*
X2035Y1946D01*
X2060Y1912D01*
X2083Y1876D01*
X2103Y1839D01*
X2121Y1801D01*
X2135Y1761D01*
X2147Y1721D01*
X2156Y1680D01*
X2162Y1638D01*
X2165Y1596D01*
X2165Y1554D01*
X54134Y29900D02*
X54131Y29858D01*
X54125Y29816D01*
X54116Y29775D01*
X54104Y29735D01*
X54089Y29695D01*
X54072Y29657D01*
X54052Y29620D01*
X54029Y29584D01*
X54003Y29550D01*
X53976Y29519D01*
X53946Y29489D01*
X53914Y29461D01*
X53880Y29436D01*
X53845Y29413D01*
X53808Y29393D01*
X53769Y29375D01*
X53730Y29361D01*
X53689Y29349D01*
X53648Y29340D01*
X53606Y29334D01*
X53564Y29331D01*
X53522Y29331D01*
X53480Y29334D01*
X53438Y29340D01*
X53397Y29349D01*
X53357Y29361D01*
X53317Y29375D01*
X53279Y29393D01*
X53242Y29413D01*
X53206Y29436D01*
X53173Y29461D01*
X53141Y29489D01*
X53111Y29519D01*
X53083Y29550D01*
X53058Y29584D01*
X53035Y29620D01*
X53015Y29657D01*
X52997Y29695D01*
X52983Y29735D01*
X52971Y29775D01*
X52962Y29816D01*
X52956Y29858D01*
X52953Y29900D01*
X52953Y29942D01*
X52956Y29984D01*
X52962Y30026D01*
X52971Y30067D01*
X52983Y30108D01*
X52997Y30147D01*
X53015Y30186D01*
X53035Y30223D01*
X53058Y30258D01*
X53083Y30292D01*
X53111Y30324D01*
X53141Y30354D01*
X53173Y30381D01*
X53206Y30407D01*
X53242Y30429D01*
X53279Y30450D01*
X53317Y30467D01*
X53357Y30482D01*
X53397Y30494D01*
X53438Y30503D01*
X53480Y30509D01*
X53522Y30512D01*
X53564Y30512D01*
X53606Y30509D01*
X53648Y30503D01*
X53689Y30494D01*
X53730Y30482D01*
X53769Y30467D01*
X53808Y30450D01*
X53845Y30429D01*
X53880Y30407D01*
X53914Y30381D01*
X53946Y30354D01*
X53976Y30324D01*
X54003Y30292D01*
X54029Y30258D01*
X54052Y30223D01*
X54072Y30186D01*
X54089Y30147D01*
X54104Y30108D01*
X54116Y30067D01*
X54125Y30026D01*
X54131Y29984D01*
X54134Y29942D01*
X54134Y29900D01*
X54134Y1554D02*
X54131Y1512D01*
X54125Y1470D01*
X54116Y1429D01*
X54104Y1388D01*
X54089Y1349D01*
X54072Y1310D01*
X54052Y1273D01*
X54029Y1238D01*
X54003Y1204D01*
X53976Y1172D01*
X53946Y1142D01*
X53914Y1115D01*
X53880Y1089D01*
X53845Y1067D01*
X53808Y1046D01*
X53769Y1029D01*
X53730Y1014D01*
X53689Y1002D01*
X53648Y993D01*
X53606Y987D01*
X53564Y984D01*
X53522Y984D01*
X53480Y987D01*
X53438Y993D01*
X53397Y1002D01*
X53357Y1014D01*
X53317Y1029D01*
X53279Y1046D01*
X53242Y1067D01*
X53206Y1089D01*
X53173Y1115D01*
X53141Y1142D01*
X53111Y1172D01*
X53083Y1204D01*
X53058Y1238D01*
X53035Y1273D01*
X53015Y1310D01*
X52997Y1349D01*
X52983Y1388D01*
X52971Y1429D01*
X52962Y1470D01*
X52956Y1512D01*
X52953Y1554D01*
X52953Y1596D01*
X52956Y1638D01*
X52962Y1680D01*
X52971Y1721D01*
X52983Y1761D01*
X52997Y1801D01*
X53015Y1839D01*
X53035Y1876D01*
X53058Y1912D01*
X53083Y1946D01*
X53111Y1977D01*
X53141Y2007D01*
X53173Y2035D01*
X53206Y2060D01*
X53242Y2083D01*
X53279Y2103D01*
X53317Y2121D01*
X53357Y2135D01*
X53397Y2147D01*
X53438Y2156D01*
X53480Y2162D01*
X53522Y2165D01*
X53564Y2165D01*
X53606Y2162D01*
X53648Y2156D01*
X53689Y2147D01*
X53730Y2135D01*
X53769Y2121D01*
X53808Y2103D01*
X53845Y2083D01*
X53880Y2060D01*
X53914Y2035D01*
X53946Y2007D01*
X53976Y1977D01*
X54003Y1946D01*
X54029Y1912D01*
X54052Y1876D01*
X54072Y1839D01*
X54089Y1801D01*
X54104Y1761D01*
X54116Y1721D01*
X54125Y1680D01*
X54131Y1638D01*
X54134Y1596D01*
X54134Y1554D01*
X2958Y4833D02*
X3003Y4830D01*
X3048Y4824D01*
X3092Y4816D01*
X3136Y4804D01*
X3179Y4789D01*
X3220Y4772D01*
X3261Y4752D01*
X3300Y4729D01*
X3337Y4704D01*
X3373Y4677D01*
X3407Y4647D01*
X3439Y4615D01*
X3468Y4581D01*
X3496Y4545D01*
X3521Y4508D01*
X3543Y4468D01*
X3563Y4428D01*
X3580Y4386D01*
X3595Y4343D01*
X3606Y4300D01*
X3615Y4256D01*
X3621Y4211D01*
X3624Y4166D01*
X3623Y4121D01*
X3620Y4076D01*
X3614Y4031D01*
X3606Y3987D01*
X3594Y3943D01*
X3579Y3901D01*
X3562Y3859D01*
X3542Y3819D01*
X3519Y3779D01*
X3494Y3742D01*
X3467Y3706D01*
X3437Y3672D01*
X3405Y3641D01*
X3371Y3611D01*
X3335Y3583D01*
X3298Y3558D01*
X3258Y3536D01*
X3218Y3516D01*
X3176Y3499D01*
X3134Y3485D01*
X3090Y3473D01*
X3046Y3464D01*
X3001Y3458D01*
X2956Y3456D01*
X2911Y3456D01*
X2866Y3459D01*
X2821Y3465D01*
X2777Y3473D01*
X2733Y3485D01*
X2691Y3500D01*
X2649Y3517D01*
X2609Y3537D01*
X2570Y3560D01*
X2532Y3585D01*
X2496Y3612D01*
X2462Y3642D01*
X2431Y3674D01*
X2401Y3708D01*
X2374Y3744D01*
X2349Y3782D01*
X2326Y3821D01*
X2306Y3861D01*
X2289Y3903D01*
X2275Y3946D01*
X2263Y3989D01*
X2254Y4033D01*
X2248Y4078D01*
X2246Y4123D01*
X2246Y4168D01*
X2249Y4213D01*
X2255Y4258D01*
X2263Y4302D01*
X2275Y4346D01*
X2290Y4388D01*
X2307Y4430D01*
X2327Y4471D01*
X2350Y4510D01*
X2375Y4547D01*
X2402Y4583D01*
X2432Y4617D01*
X2464Y4648D01*
X2498Y4678D01*
X2534Y4706D01*
X2572Y4731D01*
X2611Y4753D01*
X2651Y4773D01*
X2693Y4790D01*
X2736Y4805D01*
X2779Y4816D01*
X2823Y4825D01*
X2868Y4831D01*
X2913Y4834D01*
X2958Y4833D01*
X2995Y25700D02*
X3040Y25697D01*
X3084Y25691D01*
X3129Y25682D01*
X3172Y25670D01*
X3215Y25655D01*
X3257Y25638D01*
X3297Y25618D01*
X3336Y25595D01*
X3373Y25570D01*
X3409Y25543D01*
X3443Y25513D01*
X3475Y25481D01*
X3505Y25447D01*
X3532Y25411D01*
X3557Y25374D01*
X3579Y25335D01*
X3599Y25294D01*
X3617Y25252D01*
X3631Y25210D01*
X3643Y25166D01*
X3651Y25122D01*
X3657Y25077D01*
X3660Y25032D01*
X3660Y24987D01*
X3657Y24942D01*
X3651Y24897D01*
X3642Y24853D01*
X3630Y24809D01*
X3616Y24767D01*
X3598Y24725D01*
X3578Y24685D01*
X3556Y24646D01*
X3531Y24608D01*
X3503Y24572D01*
X3473Y24539D01*
X3441Y24507D01*
X3407Y24477D01*
X3372Y24450D01*
X3334Y24425D01*
X3295Y24402D01*
X3254Y24382D01*
X3213Y24365D01*
X3170Y24351D01*
X3126Y24339D01*
X3082Y24330D01*
X3037Y24324D01*
X2992Y24322D01*
X2947Y24322D01*
X2902Y24325D01*
X2857Y24331D01*
X2813Y24340D01*
X2770Y24351D01*
X2727Y24366D01*
X2685Y24383D01*
X2645Y24403D01*
X2606Y24426D01*
X2568Y24451D01*
X2533Y24479D01*
X2499Y24508D01*
X2467Y24540D01*
X2437Y24574D01*
X2410Y24610D01*
X2385Y24648D01*
X2362Y24687D01*
X2343Y24727D01*
X2325Y24769D01*
X2311Y24812D01*
X2299Y24855D01*
X2291Y24900D01*
X2285Y24944D01*
X2282Y24989D01*
X2282Y25034D01*
X2285Y25079D01*
X2291Y25124D01*
X2300Y25168D01*
X2312Y25212D01*
X2326Y25255D01*
X2344Y25296D01*
X2364Y25337D01*
X2386Y25376D01*
X2411Y25413D01*
X2439Y25449D01*
X2469Y25483D01*
X2501Y25515D01*
X2535Y25544D01*
X2570Y25572D01*
X2608Y25597D01*
X2647Y25619D01*
X2688Y25639D01*
X2729Y25656D01*
X2772Y25671D01*
X2816Y25682D01*
X2860Y25691D01*
X2905Y25697D01*
X2950Y25700D01*
X2995Y25700D01*
X15199Y25678D02*
X15244Y25675D01*
X15289Y25669D01*
X15333Y25660D01*
X15377Y25649D01*
X15420Y25634D01*
X15461Y25617D01*
X15502Y25597D01*
X15541Y25574D01*
X15578Y25549D01*
X15614Y25521D01*
X15648Y25492D01*
X15680Y25460D01*
X15709Y25426D01*
X15737Y25390D01*
X15762Y25352D01*
X15784Y25313D01*
X15804Y25273D01*
X15821Y25231D01*
X15836Y25188D01*
X15847Y25145D01*
X15856Y25100D01*
X15862Y25056D01*
X15865Y25011D01*
X15865Y24966D01*
X15862Y24921D01*
X15856Y24876D01*
X15847Y24832D01*
X15835Y24788D01*
X15820Y24745D01*
X15803Y24704D01*
X15783Y24663D01*
X15760Y24624D01*
X15735Y24587D01*
X15708Y24551D01*
X15678Y24517D01*
X15646Y24485D01*
X15612Y24456D01*
X15576Y24428D01*
X15539Y24403D01*
X15500Y24381D01*
X15459Y24361D01*
X15417Y24344D01*
X15375Y24329D01*
X15331Y24318D01*
X15287Y24309D01*
X15242Y24303D01*
X15197Y24300D01*
X15152Y24300D01*
X15107Y24303D01*
X15062Y24309D01*
X15018Y24318D01*
X14974Y24330D01*
X14932Y24345D01*
X14890Y24362D01*
X14850Y24382D01*
X14811Y24405D01*
X14773Y24430D01*
X14737Y24457D01*
X14704Y24487D01*
X14672Y24519D01*
X14642Y24553D01*
X14615Y24589D01*
X14590Y24626D01*
X14567Y24665D01*
X14547Y24706D01*
X14530Y24748D01*
X14516Y24790D01*
X14504Y24834D01*
X14495Y24878D01*
X14490Y24923D01*
X14487Y24968D01*
X14487Y25013D01*
X14490Y25058D01*
X14496Y25103D01*
X14505Y25147D01*
X14516Y25191D01*
X14531Y25233D01*
X14548Y25275D01*
X14568Y25315D01*
X14591Y25354D01*
X14616Y25392D01*
X14644Y25428D01*
X14673Y25461D01*
X14705Y25493D01*
X14739Y25523D01*
X14775Y25550D01*
X14813Y25575D01*
X14852Y25598D01*
X14892Y25618D01*
X14934Y25635D01*
X14977Y25649D01*
X15020Y25661D01*
X15065Y25670D01*
X15109Y25675D01*
X15154Y25678D01*
X15199Y25678D01*
X15163Y4812D02*
X15208Y4809D01*
X15253Y4803D01*
X15297Y4794D01*
X15341Y4783D01*
X15383Y4768D01*
X15425Y4751D01*
X15465Y4731D01*
X15504Y4708D01*
X15542Y4683D01*
X15578Y4655D01*
X15611Y4626D01*
X15643Y4594D01*
X15673Y4560D01*
X15700Y4524D01*
X15725Y4486D01*
X15748Y4447D01*
X15768Y4407D01*
X15785Y4365D01*
X15799Y4322D01*
X15811Y4279D01*
X15820Y4234D01*
X15825Y4190D01*
X15828Y4145D01*
X15828Y4099D01*
X15825Y4054D01*
X15819Y4010D01*
X15810Y3966D01*
X15799Y3922D01*
X15784Y3879D01*
X15767Y3838D01*
X15747Y3797D01*
X15724Y3758D01*
X15699Y3721D01*
X15671Y3685D01*
X15642Y3651D01*
X15610Y3619D01*
X15576Y3590D01*
X15540Y3562D01*
X15502Y3537D01*
X15463Y3515D01*
X15423Y3495D01*
X15381Y3478D01*
X15338Y3463D01*
X15295Y3452D01*
X15250Y3443D01*
X15206Y3437D01*
X15161Y3434D01*
X15116Y3434D01*
X15070Y3437D01*
X15026Y3443D01*
X14982Y3452D01*
X14938Y3464D01*
X14895Y3478D01*
X14854Y3496D01*
X14813Y3516D01*
X14774Y3538D01*
X14737Y3564D01*
X14701Y3591D01*
X14667Y3621D01*
X14635Y3653D01*
X14606Y3687D01*
X14578Y3723D01*
X14553Y3760D01*
X14531Y3799D01*
X14511Y3840D01*
X14494Y3882D01*
X14479Y3924D01*
X14468Y3968D01*
X14459Y4012D01*
X14453Y4057D01*
X14450Y4102D01*
X14450Y4147D01*
X14453Y4192D01*
X14459Y4237D01*
X14468Y4281D01*
X14480Y4324D01*
X14495Y4367D01*
X14512Y4409D01*
X14532Y4449D01*
X14555Y4488D01*
X14580Y4526D01*
X14607Y4561D01*
X14637Y4595D01*
X14669Y4627D01*
X14703Y4657D01*
X14739Y4684D01*
X14776Y4709D01*
X14815Y4732D01*
X14856Y4752D01*
X14898Y4769D01*
X14940Y4783D01*
X14984Y4795D01*
X15028Y4804D01*
X15073Y4809D01*
X15118Y4812D01*
X15163Y4812D01*
X21873Y4823D02*
X21918Y4820D01*
X21963Y4814D01*
X22007Y4805D01*
X22051Y4794D01*
X22093Y4779D01*
X22135Y4762D01*
X22175Y4742D01*
X22214Y4719D01*
X22252Y4694D01*
X22288Y4667D01*
X22322Y4637D01*
X22354Y4605D01*
X22383Y4571D01*
X22411Y4535D01*
X22436Y4498D01*
X22458Y4459D01*
X22478Y4418D01*
X22496Y4377D01*
X22510Y4334D01*
X22522Y4290D01*
X22531Y4246D01*
X22536Y4201D01*
X22539Y4156D01*
X22539Y4111D01*
X22536Y4066D01*
X22531Y4022D01*
X22522Y3977D01*
X22510Y3934D01*
X22496Y3891D01*
X22478Y3849D01*
X22458Y3809D01*
X22436Y3770D01*
X22411Y3732D01*
X22383Y3697D01*
X22354Y3663D01*
X22322Y3631D01*
X22288Y3601D01*
X22252Y3574D01*
X22214Y3548D01*
X22175Y3526D01*
X22135Y3506D01*
X22093Y3489D01*
X22051Y3474D01*
X22007Y3463D01*
X21963Y3454D01*
X21918Y3448D01*
X21873Y3445D01*
X21828Y3445D01*
X21783Y3448D01*
X21738Y3454D01*
X21694Y3463D01*
X21650Y3474D01*
X21608Y3489D01*
X21566Y3506D01*
X21525Y3526D01*
X21486Y3548D01*
X21449Y3574D01*
X21413Y3601D01*
X21379Y3631D01*
X21347Y3663D01*
X21318Y3697D01*
X21290Y3732D01*
X21265Y3770D01*
X21242Y3809D01*
X21222Y3849D01*
X21205Y3891D01*
X21191Y3934D01*
X21179Y3977D01*
X21170Y4022D01*
X21164Y4066D01*
X21161Y4111D01*
X21161Y4156D01*
X21164Y4201D01*
X21170Y4246D01*
X21179Y4290D01*
X21191Y4334D01*
X21205Y4377D01*
X21222Y4418D01*
X21242Y4459D01*
X21265Y4498D01*
X21290Y4535D01*
X21318Y4571D01*
X21347Y4605D01*
X21379Y4637D01*
X21413Y4667D01*
X21449Y4694D01*
X21486Y4719D01*
X21525Y4742D01*
X21566Y4762D01*
X21608Y4779D01*
X21650Y4794D01*
X21694Y4805D01*
X21738Y4814D01*
X21783Y4820D01*
X21828Y4823D01*
X21873Y4823D01*
X21873Y25689D02*
X21918Y25686D01*
X21963Y25680D01*
X22007Y25671D01*
X22051Y25660D01*
X22093Y25645D01*
X22135Y25628D01*
X22175Y25608D01*
X22214Y25585D01*
X22252Y25560D01*
X22288Y25533D01*
X22322Y25503D01*
X22354Y25471D01*
X22383Y25437D01*
X22411Y25402D01*
X22436Y25364D01*
X22458Y25325D01*
X22478Y25284D01*
X22496Y25243D01*
X22510Y25200D01*
X22522Y25157D01*
X22531Y25112D01*
X22536Y25068D01*
X22539Y25023D01*
X22539Y24977D01*
X22536Y24932D01*
X22531Y24888D01*
X22522Y24843D01*
X22510Y24800D01*
X22496Y24757D01*
X22478Y24716D01*
X22458Y24675D01*
X22436Y24636D01*
X22411Y24598D01*
X22383Y24563D01*
X22354Y24529D01*
X22322Y24497D01*
X22288Y24467D01*
X22252Y24440D01*
X22214Y24415D01*
X22175Y24392D01*
X22135Y24372D01*
X22093Y24355D01*
X22051Y24340D01*
X22007Y24329D01*
X21963Y24320D01*
X21918Y24314D01*
X21873Y24311D01*
X21828Y24311D01*
X21783Y24314D01*
X21738Y24320D01*
X21694Y24329D01*
X21650Y24340D01*
X21608Y24355D01*
X21566Y24372D01*
X21525Y24392D01*
X21486Y24415D01*
X21449Y24440D01*
X21413Y24467D01*
X21379Y24497D01*
X21347Y24529D01*
X21318Y24563D01*
X21290Y24598D01*
X21265Y24636D01*
X21242Y24675D01*
X21222Y24716D01*
X21205Y24757D01*
X21191Y24800D01*
X21179Y24843D01*
X21170Y24888D01*
X21164Y24932D01*
X21161Y24977D01*
X21161Y25023D01*
X21164Y25068D01*
X21170Y25112D01*
X21179Y25157D01*
X21191Y25200D01*
X21205Y25243D01*
X21222Y25284D01*
X21242Y25325D01*
X21265Y25364D01*
X21290Y25402D01*
X21318Y25437D01*
X21347Y25471D01*
X21379Y25503D01*
X21413Y25533D01*
X21449Y25560D01*
X21486Y25585D01*
X21525Y25608D01*
X21566Y25628D01*
X21608Y25645D01*
X21650Y25660D01*
X21694Y25671D01*
X21738Y25680D01*
X21783Y25686D01*
X21828Y25689D01*
X21873Y25689D01*
X34078Y25689D02*
X34123Y25686D01*
X34167Y25680D01*
X34212Y25671D01*
X34255Y25660D01*
X34298Y25645D01*
X34340Y25628D01*
X34380Y25608D01*
X34419Y25585D01*
X34457Y25560D01*
X34492Y25533D01*
X34526Y25503D01*
X34558Y25471D01*
X34588Y25437D01*
X34615Y25402D01*
X34641Y25364D01*
X34663Y25325D01*
X34683Y25284D01*
X34700Y25243D01*
X34715Y25200D01*
X34726Y25157D01*
X34735Y25112D01*
X34741Y25068D01*
X34744Y25023D01*
X34744Y24977D01*
X34741Y24932D01*
X34735Y24888D01*
X34726Y24843D01*
X34715Y24800D01*
X34700Y24757D01*
X34683Y24716D01*
X34663Y24675D01*
X34641Y24636D01*
X34615Y24598D01*
X34588Y24563D01*
X34558Y24529D01*
X34526Y24497D01*
X34492Y24467D01*
X34457Y24440D01*
X34419Y24415D01*
X34380Y24392D01*
X34340Y24372D01*
X34298Y24355D01*
X34255Y24340D01*
X34212Y24329D01*
X34167Y24320D01*
X34123Y24314D01*
X34078Y24311D01*
X34033Y24311D01*
X33988Y24314D01*
X33943Y24320D01*
X33899Y24329D01*
X33855Y24340D01*
X33812Y24355D01*
X33771Y24372D01*
X33730Y24392D01*
X33691Y24415D01*
X33654Y24440D01*
X33618Y24467D01*
X33584Y24497D01*
X33552Y24529D01*
X33522Y24563D01*
X33495Y24598D01*
X33470Y24636D01*
X33447Y24675D01*
X33427Y24716D01*
X33410Y24757D01*
X33395Y24800D01*
X33384Y24843D01*
X33375Y24888D01*
X33369Y24932D01*
X33366Y24977D01*
X33366Y25023D01*
X33369Y25068D01*
X33375Y25112D01*
X33384Y25157D01*
X33395Y25200D01*
X33410Y25243D01*
X33427Y25284D01*
X33447Y25325D01*
X33470Y25364D01*
X33495Y25402D01*
X33522Y25437D01*
X33552Y25471D01*
X33584Y25503D01*
X33618Y25533D01*
X33654Y25560D01*
X33691Y25585D01*
X33730Y25608D01*
X33771Y25628D01*
X33812Y25645D01*
X33855Y25660D01*
X33899Y25671D01*
X33943Y25680D01*
X33988Y25686D01*
X34033Y25689D01*
X34078Y25689D01*
X34078Y4823D02*
X34123Y4820D01*
X34167Y4814D01*
X34212Y4805D01*
X34255Y4794D01*
X34298Y4779D01*
X34340Y4762D01*
X34380Y4742D01*
X34419Y4719D01*
X34457Y4694D01*
X34492Y4667D01*
X34526Y4637D01*
X34558Y4605D01*
X34588Y4571D01*
X34615Y4535D01*
X34641Y4498D01*
X34663Y4459D01*
X34683Y4418D01*
X34700Y4377D01*
X34715Y4334D01*
X34726Y4290D01*
X34735Y4246D01*
X34741Y4201D01*
X34744Y4156D01*
X34744Y4111D01*
X34741Y4066D01*
X34735Y4022D01*
X34726Y3977D01*
X34715Y3934D01*
X34700Y3891D01*
X34683Y3849D01*
X34663Y3809D01*
X34641Y3770D01*
X34615Y3732D01*
X34588Y3697D01*
X34558Y3663D01*
X34526Y3631D01*
X34492Y3601D01*
X34457Y3574D01*
X34419Y3548D01*
X34380Y3526D01*
X34340Y3506D01*
X34298Y3489D01*
X34255Y3474D01*
X34212Y3463D01*
X34167Y3454D01*
X34123Y3448D01*
X34078Y3445D01*
X34033Y3445D01*
X33988Y3448D01*
X33943Y3454D01*
X33899Y3463D01*
X33855Y3474D01*
X33812Y3489D01*
X33771Y3506D01*
X33730Y3526D01*
X33691Y3548D01*
X33654Y3574D01*
X33618Y3601D01*
X33584Y3631D01*
X33552Y3663D01*
X33522Y3697D01*
X33495Y3732D01*
X33470Y3770D01*
X33447Y3809D01*
X33427Y3849D01*
X33410Y3891D01*
X33395Y3934D01*
X33384Y3977D01*
X33375Y4022D01*
X33369Y4066D01*
X33366Y4111D01*
X33366Y4156D01*
X33369Y4201D01*
X33375Y4246D01*
X33384Y4290D01*
X33395Y4334D01*
X33410Y4377D01*
X33427Y4418D01*
X33447Y4459D01*
X33470Y4498D01*
X33495Y4535D01*
X33522Y4571D01*
X33552Y4605D01*
X33584Y4637D01*
X33618Y4667D01*
X33654Y4694D01*
X33691Y4719D01*
X33730Y4742D01*
X33771Y4762D01*
X33812Y4779D01*
X33855Y4794D01*
X33899Y4805D01*
X33943Y4814D01*
X33988Y4820D01*
X34033Y4823D01*
X34078Y4823D01*
X40652Y4823D02*
X40697Y4820D01*
X40742Y4814D01*
X40786Y4805D01*
X40830Y4794D01*
X40873Y4779D01*
X40914Y4762D01*
X40955Y4742D01*
X40994Y4719D01*
X41031Y4694D01*
X41067Y4667D01*
X41101Y4637D01*
X41133Y4605D01*
X41163Y4571D01*
X41190Y4535D01*
X41215Y4498D01*
X41238Y4459D01*
X41258Y4418D01*
X41275Y4377D01*
X41290Y4334D01*
X41301Y4290D01*
X41310Y4246D01*
X41316Y4201D01*
X41319Y4156D01*
X41319Y4111D01*
X41316Y4066D01*
X41310Y4022D01*
X41301Y3977D01*
X41290Y3934D01*
X41275Y3891D01*
X41258Y3849D01*
X41238Y3809D01*
X41215Y3770D01*
X41190Y3732D01*
X41163Y3697D01*
X41133Y3663D01*
X41101Y3631D01*
X41067Y3601D01*
X41031Y3574D01*
X40994Y3548D01*
X40955Y3526D01*
X40914Y3506D01*
X40873Y3489D01*
X40830Y3474D01*
X40786Y3463D01*
X40742Y3454D01*
X40697Y3448D01*
X40652Y3445D01*
X40607Y3445D01*
X40562Y3448D01*
X40518Y3454D01*
X40473Y3463D01*
X40430Y3474D01*
X40387Y3489D01*
X40345Y3506D01*
X40305Y3526D01*
X40266Y3548D01*
X40228Y3574D01*
X40193Y3601D01*
X40159Y3631D01*
X40127Y3663D01*
X40097Y3697D01*
X40070Y3732D01*
X40045Y3770D01*
X40022Y3809D01*
X40002Y3849D01*
X39985Y3891D01*
X39970Y3934D01*
X39959Y3977D01*
X39950Y4022D01*
X39944Y4066D01*
X39941Y4111D01*
X39941Y4156D01*
X39944Y4201D01*
X39950Y4246D01*
X39959Y4290D01*
X39970Y4334D01*
X39985Y4377D01*
X40002Y4418D01*
X40022Y4459D01*
X40045Y4498D01*
X40070Y4535D01*
X40097Y4571D01*
X40127Y4605D01*
X40159Y4637D01*
X40193Y4667D01*
X40228Y4694D01*
X40266Y4719D01*
X40305Y4742D01*
X40345Y4762D01*
X40387Y4779D01*
X40430Y4794D01*
X40473Y4805D01*
X40518Y4814D01*
X40562Y4820D01*
X40607Y4823D01*
X40652Y4823D01*
X40652Y25689D02*
X40697Y25686D01*
X40742Y25680D01*
X40786Y25671D01*
X40830Y25660D01*
X40873Y25645D01*
X40914Y25628D01*
X40955Y25608D01*
X40994Y25585D01*
X41031Y25560D01*
X41067Y25533D01*
X41101Y25503D01*
X41133Y25471D01*
X41163Y25437D01*
X41190Y25402D01*
X41215Y25364D01*
X41238Y25325D01*
X41258Y25284D01*
X41275Y25243D01*
X41290Y25200D01*
X41301Y25157D01*
X41310Y25112D01*
X41316Y25068D01*
X41319Y25023D01*
X41319Y24977D01*
X41316Y24932D01*
X41310Y24888D01*
X41301Y24843D01*
X41290Y24800D01*
X41275Y24757D01*
X41258Y24716D01*
X41238Y24675D01*
X41215Y24636D01*
X41190Y24598D01*
X41163Y24563D01*
X41133Y24529D01*
X41101Y24497D01*
X41067Y24467D01*
X41031Y24440D01*
X40994Y24415D01*
X40955Y24392D01*
X40914Y24372D01*
X40873Y24355D01*
X40830Y24340D01*
X40786Y24329D01*
X40742Y24320D01*
X40697Y24314D01*
X40652Y24311D01*
X40607Y24311D01*
X40562Y24314D01*
X40518Y24320D01*
X40473Y24329D01*
X40430Y24340D01*
X40387Y24355D01*
X40345Y24372D01*
X40305Y24392D01*
X40266Y24415D01*
X40228Y24440D01*
X40193Y24467D01*
X40159Y24497D01*
X40127Y24529D01*
X40097Y24563D01*
X40070Y24598D01*
X40045Y24636D01*
X40022Y24675D01*
X40002Y24716D01*
X39985Y24757D01*
X39970Y24800D01*
X39959Y24843D01*
X39950Y24888D01*
X39944Y24932D01*
X39941Y24977D01*
X39941Y25023D01*
X39944Y25068D01*
X39950Y25112D01*
X39959Y25157D01*
X39970Y25200D01*
X39985Y25243D01*
X40002Y25284D01*
X40022Y25325D01*
X40045Y25364D01*
X40070Y25402D01*
X40097Y25437D01*
X40127Y25471D01*
X40159Y25503D01*
X40193Y25533D01*
X40228Y25560D01*
X40266Y25585D01*
X40305Y25608D01*
X40345Y25628D01*
X40387Y25645D01*
X40430Y25660D01*
X40473Y25671D01*
X40518Y25680D01*
X40562Y25686D01*
X40607Y25689D01*
X40652Y25689D01*
X52857Y25689D02*
X52902Y25686D01*
X52947Y25680D01*
X52991Y25671D01*
X53035Y25660D01*
X53077Y25645D01*
X53119Y25628D01*
X53160Y25608D01*
X53199Y25585D01*
X53236Y25560D01*
X53272Y25533D01*
X53306Y25503D01*
X53338Y25471D01*
X53368Y25437D01*
X53395Y25402D01*
X53420Y25364D01*
X53443Y25325D01*
X53463Y25284D01*
X53480Y25243D01*
X53494Y25200D01*
X53506Y25157D01*
X53515Y25112D01*
X53521Y25068D01*
X53524Y25023D01*
X53524Y24977D01*
X53521Y24932D01*
X53515Y24888D01*
X53506Y24843D01*
X53494Y24800D01*
X53480Y24757D01*
X53463Y24716D01*
X53443Y24675D01*
X53420Y24636D01*
X53395Y24598D01*
X53368Y24563D01*
X53338Y24529D01*
X53306Y24497D01*
X53272Y24467D01*
X53236Y24440D01*
X53199Y24415D01*
X53160Y24392D01*
X53119Y24372D01*
X53077Y24355D01*
X53035Y24340D01*
X52991Y24329D01*
X52947Y24320D01*
X52902Y24314D01*
X52857Y24311D01*
X52812Y24311D01*
X52767Y24314D01*
X52722Y24320D01*
X52678Y24329D01*
X52635Y24340D01*
X52592Y24355D01*
X52550Y24372D01*
X52510Y24392D01*
X52471Y24415D01*
X52433Y24440D01*
X52397Y24467D01*
X52363Y24497D01*
X52332Y24529D01*
X52302Y24563D01*
X52274Y24598D01*
X52249Y24636D01*
X52227Y24675D01*
X52207Y24716D01*
X52189Y24757D01*
X52175Y24800D01*
X52163Y24843D01*
X52155Y24888D01*
X52149Y24932D01*
X52146Y24977D01*
X52146Y25023D01*
X52149Y25068D01*
X52155Y25112D01*
X52163Y25157D01*
X52175Y25200D01*
X52189Y25243D01*
X52207Y25284D01*
X52227Y25325D01*
X52249Y25364D01*
X52274Y25402D01*
X52302Y25437D01*
X52332Y25471D01*
X52363Y25503D01*
X52397Y25533D01*
X52433Y25560D01*
X52471Y25585D01*
X52510Y25608D01*
X52550Y25628D01*
X52592Y25645D01*
X52635Y25660D01*
X52678Y25671D01*
X52722Y25680D01*
X52767Y25686D01*
X52812Y25689D01*
X52857Y25689D01*
X52857Y4823D02*
X52902Y4820D01*
X52947Y4814D01*
X52991Y4805D01*
X53035Y4794D01*
X53077Y4779D01*
X53119Y4762D01*
X53160Y4742D01*
X53199Y4719D01*
X53236Y4694D01*
X53272Y4667D01*
X53306Y4637D01*
X53338Y4605D01*
X53368Y4571D01*
X53395Y4535D01*
X53420Y4498D01*
X53443Y4459D01*
X53463Y4418D01*
X53480Y4377D01*
X53494Y4334D01*
X53506Y4290D01*
X53515Y4246D01*
X53521Y4201D01*
X53524Y4156D01*
X53524Y4111D01*
X53521Y4066D01*
X53515Y4022D01*
X53506Y3977D01*
X53494Y3934D01*
X53480Y3891D01*
X53463Y3849D01*
X53443Y3809D01*
X53420Y3770D01*
X53395Y3732D01*
X53368Y3697D01*
X53338Y3663D01*
X53306Y3631D01*
X53272Y3601D01*
X53236Y3574D01*
X53199Y3548D01*
X53160Y3526D01*
X53119Y3506D01*
X53077Y3489D01*
X53035Y3474D01*
X52991Y3463D01*
X52947Y3454D01*
X52902Y3448D01*
X52857Y3445D01*
X52812Y3445D01*
X52767Y3448D01*
X52722Y3454D01*
X52678Y3463D01*
X52635Y3474D01*
X52592Y3489D01*
X52550Y3506D01*
X52510Y3526D01*
X52471Y3548D01*
X52433Y3574D01*
X52397Y3601D01*
X52363Y3631D01*
X52332Y3663D01*
X52302Y3697D01*
X52274Y3732D01*
X52249Y3770D01*
X52227Y3809D01*
X52207Y3849D01*
X52189Y3891D01*
X52175Y3934D01*
X52163Y3977D01*
X52155Y4022D01*
X52149Y4066D01*
X52146Y4111D01*
X52146Y4156D01*
X52149Y4201D01*
X52155Y4246D01*
X52163Y4290D01*
X52175Y4334D01*
X52189Y4377D01*
X52207Y4418D01*
X52227Y4459D01*
X52249Y4498D01*
X52274Y4535D01*
X52302Y4571D01*
X52332Y4605D01*
X52363Y4637D01*
X52397Y4667D01*
X52433Y4694D01*
X52471Y4719D01*
X52510Y4742D01*
X52550Y4762D01*
X52592Y4779D01*
X52635Y4794D01*
X52678Y4805D01*
X52722Y4814D01*
X52767Y4820D01*
X52812Y4823D01*
X52857Y4823D01*
X42305Y10756D02*
X42270Y10759D01*
X42234Y10764D01*
X42200Y10773D01*
X42166Y10784D01*
X42133Y10797D01*
X42101Y10813D01*
X42071Y10832D01*
X42042Y10853D01*
X42015Y10876D01*
X41990Y10901D01*
X41967Y10928D01*
X41946Y10957D01*
X41928Y10987D01*
X41911Y11019D01*
X41898Y11052D01*
X41887Y11086D01*
X41878Y11120D01*
X41873Y11155D01*
X41870Y11191D01*
X41870Y11226D01*
X41873Y11262D01*
X41878Y11297D01*
X41887Y11332D01*
X41898Y11365D01*
X41911Y11398D01*
X41928Y11430D01*
X41946Y11460D01*
X41967Y11489D01*
X41990Y11516D01*
X42015Y11541D01*
X42042Y11564D01*
X42071Y11585D01*
X42101Y11604D01*
X42133Y11620D01*
X42166Y11634D01*
X42200Y11645D01*
X42234Y11653D01*
X42270Y11659D01*
X42305Y11661D01*
X42341Y11661D01*
X42376Y11659D01*
X42411Y11653D01*
X42446Y11645D01*
X42480Y11634D01*
X42513Y11620D01*
X42544Y11604D01*
X42575Y11585D01*
X42603Y11564D01*
X42630Y11541D01*
X42656Y11516D01*
X42679Y11489D01*
X42700Y11460D01*
X42718Y11430D01*
X42734Y11398D01*
X42748Y11365D01*
X42759Y11332D01*
X42767Y11297D01*
X42773Y11262D01*
X42776Y11226D01*
X42776Y11191D01*
X42773Y11155D01*
X42767Y11120D01*
X42759Y11086D01*
X42748Y11052D01*
X42734Y11019D01*
X42718Y10987D01*
X42700Y10957D01*
X42679Y10928D01*
X42656Y10901D01*
X42630Y10876D01*
X42603Y10853D01*
X42575Y10832D01*
X42544Y10813D01*
X42513Y10797D01*
X42480Y10784D01*
X42446Y10773D01*
X42411Y10764D01*
X42376Y10759D01*
X42341Y10756D01*
X42305Y10756D01*
X42305Y5583D02*
X42270Y5585D01*
X42234Y5591D01*
X42200Y5599D01*
X42166Y5610D01*
X42133Y5624D01*
X42101Y5640D01*
X42071Y5659D01*
X42042Y5680D01*
X42015Y5703D01*
X41990Y5728D01*
X41967Y5755D01*
X41946Y5784D01*
X41928Y5814D01*
X41911Y5846D01*
X41898Y5879D01*
X41887Y5912D01*
X41878Y5947D01*
X41873Y5982D01*
X41870Y6018D01*
X41870Y6053D01*
X41873Y6089D01*
X41878Y6124D01*
X41887Y6158D01*
X41898Y6192D01*
X41911Y6225D01*
X41928Y6257D01*
X41946Y6287D01*
X41967Y6316D01*
X41990Y6343D01*
X42015Y6368D01*
X42042Y6391D01*
X42071Y6412D01*
X42101Y6431D01*
X42133Y6447D01*
X42166Y6461D01*
X42200Y6472D01*
X42234Y6480D01*
X42270Y6485D01*
X42305Y6488D01*
X42341Y6488D01*
X42376Y6485D01*
X42411Y6480D01*
X42446Y6472D01*
X42480Y6461D01*
X42513Y6447D01*
X42544Y6431D01*
X42575Y6412D01*
X42603Y6391D01*
X42630Y6368D01*
X42656Y6343D01*
X42679Y6316D01*
X42700Y6287D01*
X42718Y6257D01*
X42734Y6225D01*
X42748Y6192D01*
X42759Y6158D01*
X42767Y6124D01*
X42773Y6089D01*
X42776Y6053D01*
X42776Y6018D01*
X42773Y5982D01*
X42767Y5947D01*
X42759Y5912D01*
X42748Y5879D01*
X42734Y5846D01*
X42718Y5814D01*
X42700Y5784D01*
X42679Y5755D01*
X42656Y5728D01*
X42630Y5703D01*
X42603Y5680D01*
X42575Y5659D01*
X42544Y5640D01*
X42513Y5624D01*
X42480Y5610D01*
X42446Y5599D01*
X42411Y5591D01*
X42376Y5585D01*
X42341Y5583D01*
X42305Y5583D01*
M02*
