G04 EAGLE Gerber RS-274X export*
G75*
%MOIN*%
%FSLAX34Y34*%
%LPD*%
%IN*%
%IPPOS*%
%AMOC8*
5,1,8,0,0,1.08239X$1,22.5*%
G01*
%ADD10C,0.010000*%


D10*
X0Y0D02*
X55118Y0D01*
X55118Y31496D01*
X0Y31496D01*
X0Y0D01*
X2165Y29900D02*
X2162Y29858D01*
X2156Y29816D01*
X2147Y29775D01*
X2135Y29735D01*
X2121Y29695D01*
X2103Y29657D01*
X2083Y29620D01*
X2060Y29584D01*
X2035Y29550D01*
X2007Y29519D01*
X1977Y29489D01*
X1946Y29461D01*
X1912Y29436D01*
X1876Y29413D01*
X1839Y29393D01*
X1801Y29375D01*
X1761Y29361D01*
X1721Y29349D01*
X1680Y29340D01*
X1638Y29334D01*
X1596Y29331D01*
X1554Y29331D01*
X1512Y29334D01*
X1470Y29340D01*
X1429Y29349D01*
X1388Y29361D01*
X1349Y29375D01*
X1310Y29393D01*
X1273Y29413D01*
X1238Y29436D01*
X1204Y29461D01*
X1172Y29489D01*
X1142Y29519D01*
X1115Y29550D01*
X1089Y29584D01*
X1067Y29620D01*
X1046Y29657D01*
X1029Y29695D01*
X1014Y29735D01*
X1002Y29775D01*
X993Y29816D01*
X987Y29858D01*
X984Y29900D01*
X984Y29942D01*
X987Y29984D01*
X993Y30026D01*
X1002Y30067D01*
X1014Y30108D01*
X1029Y30147D01*
X1046Y30186D01*
X1067Y30223D01*
X1089Y30258D01*
X1115Y30292D01*
X1142Y30324D01*
X1172Y30354D01*
X1204Y30381D01*
X1238Y30407D01*
X1273Y30429D01*
X1310Y30450D01*
X1349Y30467D01*
X1388Y30482D01*
X1429Y30494D01*
X1470Y30503D01*
X1512Y30509D01*
X1554Y30512D01*
X1596Y30512D01*
X1638Y30509D01*
X1680Y30503D01*
X1721Y30494D01*
X1761Y30482D01*
X1801Y30467D01*
X1839Y30450D01*
X1876Y30429D01*
X1912Y30407D01*
X1946Y30381D01*
X1977Y30354D01*
X2007Y30324D01*
X2035Y30292D01*
X2060Y30258D01*
X2083Y30223D01*
X2103Y30186D01*
X2121Y30147D01*
X2135Y30108D01*
X2147Y30067D01*
X2156Y30026D01*
X2162Y29984D01*
X2165Y29942D01*
X2165Y29900D01*
X2165Y1554D02*
X2162Y1512D01*
X2156Y1470D01*
X2147Y1429D01*
X2135Y1388D01*
X2121Y1349D01*
X2103Y1310D01*
X2083Y1273D01*
X2060Y1238D01*
X2035Y1204D01*
X2007Y1172D01*
X1977Y1142D01*
X1946Y1115D01*
X1912Y1089D01*
X1876Y1067D01*
X1839Y1046D01*
X1801Y1029D01*
X1761Y1014D01*
X1721Y1002D01*
X1680Y993D01*
X1638Y987D01*
X1596Y984D01*
X1554Y984D01*
X1512Y987D01*
X1470Y993D01*
X1429Y1002D01*
X1388Y1014D01*
X1349Y1029D01*
X1310Y1046D01*
X1273Y1067D01*
X1238Y1089D01*
X1204Y1115D01*
X1172Y1142D01*
X1142Y1172D01*
X1115Y1204D01*
X1089Y1238D01*
X1067Y1273D01*
X1046Y1310D01*
X1029Y1349D01*
X1014Y1388D01*
X1002Y1429D01*
X993Y1470D01*
X987Y1512D01*
X984Y1554D01*
X984Y1596D01*
X987Y1638D01*
X993Y1680D01*
X1002Y1721D01*
X1014Y1761D01*
X1029Y1801D01*
X1046Y1839D01*
X1067Y1876D01*
X1089Y1912D01*
X1115Y1946D01*
X1142Y1977D01*
X1172Y2007D01*
X1204Y2035D01*
X1238Y2060D01*
X1273Y2083D01*
X1310Y2103D01*
X1349Y2121D01*
X1388Y2135D01*
X1429Y2147D01*
X1470Y2156D01*
X1512Y2162D01*
X1554Y2165D01*
X1596Y2165D01*
X1638Y2162D01*
X1680Y2156D01*
X1721Y2147D01*
X1761Y2135D01*
X1801Y2121D01*
X1839Y2103D01*
X1876Y2083D01*
X1912Y2060D01*
X1946Y2035D01*
X1977Y2007D01*
X2007Y1977D01*
X2035Y1946D01*
X2060Y1912D01*
X2083Y1876D01*
X2103Y1839D01*
X2121Y1801D01*
X2135Y1761D01*
X2147Y1721D01*
X2156Y1680D01*
X2162Y1638D01*
X2165Y1596D01*
X2165Y1554D01*
X54134Y29900D02*
X54131Y29858D01*
X54125Y29816D01*
X54116Y29775D01*
X54104Y29735D01*
X54089Y29695D01*
X54072Y29657D01*
X54052Y29620D01*
X54029Y29584D01*
X54003Y29550D01*
X53976Y29519D01*
X53946Y29489D01*
X53914Y29461D01*
X53880Y29436D01*
X53845Y29413D01*
X53808Y29393D01*
X53769Y29375D01*
X53730Y29361D01*
X53689Y29349D01*
X53648Y29340D01*
X53606Y29334D01*
X53564Y29331D01*
X53522Y29331D01*
X53480Y29334D01*
X53438Y29340D01*
X53397Y29349D01*
X53357Y29361D01*
X53317Y29375D01*
X53279Y29393D01*
X53242Y29413D01*
X53206Y29436D01*
X53173Y29461D01*
X53141Y29489D01*
X53111Y29519D01*
X53083Y29550D01*
X53058Y29584D01*
X53035Y29620D01*
X53015Y29657D01*
X52997Y29695D01*
X52983Y29735D01*
X52971Y29775D01*
X52962Y29816D01*
X52956Y29858D01*
X52953Y29900D01*
X52953Y29942D01*
X52956Y29984D01*
X52962Y30026D01*
X52971Y30067D01*
X52983Y30108D01*
X52997Y30147D01*
X53015Y30186D01*
X53035Y30223D01*
X53058Y30258D01*
X53083Y30292D01*
X53111Y30324D01*
X53141Y30354D01*
X53173Y30381D01*
X53206Y30407D01*
X53242Y30429D01*
X53279Y30450D01*
X53317Y30467D01*
X53357Y30482D01*
X53397Y30494D01*
X53438Y30503D01*
X53480Y30509D01*
X53522Y30512D01*
X53564Y30512D01*
X53606Y30509D01*
X53648Y30503D01*
X53689Y30494D01*
X53730Y30482D01*
X53769Y30467D01*
X53808Y30450D01*
X53845Y30429D01*
X53880Y30407D01*
X53914Y30381D01*
X53946Y30354D01*
X53976Y30324D01*
X54003Y30292D01*
X54029Y30258D01*
X54052Y30223D01*
X54072Y30186D01*
X54089Y30147D01*
X54104Y30108D01*
X54116Y30067D01*
X54125Y30026D01*
X54131Y29984D01*
X54134Y29942D01*
X54134Y29900D01*
X54134Y1554D02*
X54131Y1512D01*
X54125Y1470D01*
X54116Y1429D01*
X54104Y1388D01*
X54089Y1349D01*
X54072Y1310D01*
X54052Y1273D01*
X54029Y1238D01*
X54003Y1204D01*
X53976Y1172D01*
X53946Y1142D01*
X53914Y1115D01*
X53880Y1089D01*
X53845Y1067D01*
X53808Y1046D01*
X53769Y1029D01*
X53730Y1014D01*
X53689Y1002D01*
X53648Y993D01*
X53606Y987D01*
X53564Y984D01*
X53522Y984D01*
X53480Y987D01*
X53438Y993D01*
X53397Y1002D01*
X53357Y1014D01*
X53317Y1029D01*
X53279Y1046D01*
X53242Y1067D01*
X53206Y1089D01*
X53173Y1115D01*
X53141Y1142D01*
X53111Y1172D01*
X53083Y1204D01*
X53058Y1238D01*
X53035Y1273D01*
X53015Y1310D01*
X52997Y1349D01*
X52983Y1388D01*
X52971Y1429D01*
X52962Y1470D01*
X52956Y1512D01*
X52953Y1554D01*
X52953Y1596D01*
X52956Y1638D01*
X52962Y1680D01*
X52971Y1721D01*
X52983Y1761D01*
X52997Y1801D01*
X53015Y1839D01*
X53035Y1876D01*
X53058Y1912D01*
X53083Y1946D01*
X53111Y1977D01*
X53141Y2007D01*
X53173Y2035D01*
X53206Y2060D01*
X53242Y2083D01*
X53279Y2103D01*
X53317Y2121D01*
X53357Y2135D01*
X53397Y2147D01*
X53438Y2156D01*
X53480Y2162D01*
X53522Y2165D01*
X53564Y2165D01*
X53606Y2162D01*
X53648Y2156D01*
X53689Y2147D01*
X53730Y2135D01*
X53769Y2121D01*
X53808Y2103D01*
X53845Y2083D01*
X53880Y2060D01*
X53914Y2035D01*
X53946Y2007D01*
X53976Y1977D01*
X54003Y1946D01*
X54029Y1912D01*
X54052Y1876D01*
X54072Y1839D01*
X54089Y1801D01*
X54104Y1761D01*
X54116Y1721D01*
X54125Y1680D01*
X54131Y1638D01*
X54134Y1596D01*
X54134Y1554D01*
X2958Y4833D02*
X3003Y4830D01*
X3048Y4824D01*
X3092Y4816D01*
X3136Y4804D01*
X3179Y4789D01*
X3220Y4772D01*
X3261Y4752D01*
X3300Y4729D01*
X3337Y4704D01*
X3373Y4677D01*
X3407Y4647D01*
X3439Y4615D01*
X3468Y4581D01*
X3496Y4545D01*
X3521Y4508D01*
X3543Y4468D01*
X3563Y4428D01*
X3580Y4386D01*
X3595Y4343D01*
X3606Y4300D01*
X3615Y4256D01*
X3621Y4211D01*
X3624Y4166D01*
X3623Y4121D01*
X3620Y4076D01*
X3614Y4031D01*
X3606Y3987D01*
X3594Y3943D01*
X3579Y3901D01*
X3562Y3859D01*
X3542Y3819D01*
X3519Y3779D01*
X3494Y3742D01*
X3467Y3706D01*
X3437Y3672D01*
X3405Y3641D01*
X3371Y3611D01*
X3335Y3583D01*
X3298Y3558D01*
X3258Y3536D01*
X3218Y3516D01*
X3176Y3499D01*
X3134Y3485D01*
X3090Y3473D01*
X3046Y3464D01*
X3001Y3458D01*
X2956Y3456D01*
X2911Y3456D01*
X2866Y3459D01*
X2821Y3465D01*
X2777Y3473D01*
X2733Y3485D01*
X2691Y3500D01*
X2649Y3517D01*
X2609Y3537D01*
X2570Y3560D01*
X2532Y3585D01*
X2496Y3612D01*
X2462Y3642D01*
X2431Y3674D01*
X2401Y3708D01*
X2374Y3744D01*
X2349Y3782D01*
X2326Y3821D01*
X2306Y3861D01*
X2289Y3903D01*
X2275Y3946D01*
X2263Y3989D01*
X2254Y4033D01*
X2248Y4078D01*
X2246Y4123D01*
X2246Y4168D01*
X2249Y4213D01*
X2255Y4258D01*
X2263Y4302D01*
X2275Y4346D01*
X2290Y4388D01*
X2307Y4430D01*
X2327Y4471D01*
X2350Y4510D01*
X2375Y4547D01*
X2402Y4583D01*
X2432Y4617D01*
X2464Y4648D01*
X2498Y4678D01*
X2534Y4706D01*
X2572Y4731D01*
X2611Y4753D01*
X2651Y4773D01*
X2693Y4790D01*
X2736Y4805D01*
X2779Y4816D01*
X2823Y4825D01*
X2868Y4831D01*
X2913Y4834D01*
X2958Y4833D01*
X2995Y25700D02*
X3040Y25697D01*
X3084Y25691D01*
X3129Y25682D01*
X3172Y25670D01*
X3215Y25655D01*
X3257Y25638D01*
X3297Y25618D01*
X3336Y25595D01*
X3373Y25570D01*
X3409Y25543D01*
X3443Y25513D01*
X3475Y25481D01*
X3505Y25447D01*
X3532Y25411D01*
X3557Y25374D01*
X3579Y25335D01*
X3599Y25294D01*
X3617Y25252D01*
X3631Y25210D01*
X3643Y25166D01*
X3651Y25122D01*
X3657Y25077D01*
X3660Y25032D01*
X3660Y24987D01*
X3657Y24942D01*
X3651Y24897D01*
X3642Y24853D01*
X3630Y24809D01*
X3616Y24767D01*
X3598Y24725D01*
X3578Y24685D01*
X3556Y24646D01*
X3531Y24608D01*
X3503Y24572D01*
X3473Y24539D01*
X3441Y24507D01*
X3407Y24477D01*
X3372Y24450D01*
X3334Y24425D01*
X3295Y24402D01*
X3254Y24382D01*
X3213Y24365D01*
X3170Y24351D01*
X3126Y24339D01*
X3082Y24330D01*
X3037Y24324D01*
X2992Y24322D01*
X2947Y24322D01*
X2902Y24325D01*
X2857Y24331D01*
X2813Y24340D01*
X2770Y24351D01*
X2727Y24366D01*
X2685Y24383D01*
X2645Y24403D01*
X2606Y24426D01*
X2568Y24451D01*
X2533Y24479D01*
X2499Y24508D01*
X2467Y24540D01*
X2437Y24574D01*
X2410Y24610D01*
X2385Y24648D01*
X2362Y24687D01*
X2343Y24727D01*
X2325Y24769D01*
X2311Y24812D01*
X2299Y24855D01*
X2291Y24900D01*
X2285Y24944D01*
X2282Y24989D01*
X2282Y25034D01*
X2285Y25079D01*
X2291Y25124D01*
X2300Y25168D01*
X2312Y25212D01*
X2326Y25255D01*
X2344Y25296D01*
X2364Y25337D01*
X2386Y25376D01*
X2411Y25413D01*
X2439Y25449D01*
X2469Y25483D01*
X2501Y25515D01*
X2535Y25544D01*
X2570Y25572D01*
X2608Y25597D01*
X2647Y25619D01*
X2688Y25639D01*
X2729Y25656D01*
X2772Y25671D01*
X2816Y25682D01*
X2860Y25691D01*
X2905Y25697D01*
X2950Y25700D01*
X2995Y25700D01*
X15199Y25678D02*
X15244Y25675D01*
X15289Y25669D01*
X15333Y25660D01*
X15377Y25649D01*
X15420Y25634D01*
X15461Y25617D01*
X15502Y25597D01*
X15541Y25574D01*
X15578Y25549D01*
X15614Y25521D01*
X15648Y25492D01*
X15680Y25460D01*
X15709Y25426D01*
X15737Y25390D01*
X15762Y25352D01*
X15784Y25313D01*
X15804Y25273D01*
X15821Y25231D01*
X15836Y25188D01*
X15847Y25145D01*
X15856Y25100D01*
X15862Y25056D01*
X15865Y25011D01*
X15865Y24966D01*
X15862Y24921D01*
X15856Y24876D01*
X15847Y24832D01*
X15835Y24788D01*
X15820Y24745D01*
X15803Y24704D01*
X15783Y24663D01*
X15760Y24624D01*
X15735Y24587D01*
X15708Y24551D01*
X15678Y24517D01*
X15646Y24485D01*
X15612Y24456D01*
X15576Y24428D01*
X15539Y24403D01*
X15500Y24381D01*
X15459Y24361D01*
X15417Y24344D01*
X15375Y24329D01*
X15331Y24318D01*
X15287Y24309D01*
X15242Y24303D01*
X15197Y24300D01*
X15152Y24300D01*
X15107Y24303D01*
X15062Y24309D01*
X15018Y24318D01*
X14974Y24330D01*
X14932Y24345D01*
X14890Y24362D01*
X14850Y24382D01*
X14811Y24405D01*
X14773Y24430D01*
X14737Y24457D01*
X14704Y24487D01*
X14672Y24519D01*
X14642Y24553D01*
X14615Y24589D01*
X14590Y24626D01*
X14567Y24665D01*
X14547Y24706D01*
X14530Y24748D01*
X14516Y24790D01*
X14504Y24834D01*
X14495Y24878D01*
X14490Y24923D01*
X14487Y24968D01*
X14487Y25013D01*
X14490Y25058D01*
X14496Y25103D01*
X14505Y25147D01*
X14516Y25191D01*
X14531Y25233D01*
X14548Y25275D01*
X14568Y25315D01*
X14591Y25354D01*
X14616Y25392D01*
X14644Y25428D01*
X14673Y25461D01*
X14705Y25493D01*
X14739Y25523D01*
X14775Y25550D01*
X14813Y25575D01*
X14852Y25598D01*
X14892Y25618D01*
X14934Y25635D01*
X14977Y25649D01*
X15020Y25661D01*
X15065Y25670D01*
X15109Y25675D01*
X15154Y25678D01*
X15199Y25678D01*
X15163Y4812D02*
X15208Y4809D01*
X15253Y4803D01*
X15297Y4794D01*
X15341Y4783D01*
X15383Y4768D01*
X15425Y4751D01*
X15465Y4731D01*
X15504Y4708D01*
X15542Y4683D01*
X15578Y4655D01*
X15611Y4626D01*
X15643Y4594D01*
X15673Y4560D01*
X15700Y4524D01*
X15725Y4486D01*
X15748Y4447D01*
X15768Y4407D01*
X15785Y4365D01*
X15799Y4322D01*
X15811Y4279D01*
X15820Y4234D01*
X15825Y4190D01*
X15828Y4145D01*
X15828Y4099D01*
X15825Y4054D01*
X15819Y4010D01*
X15810Y3966D01*
X15799Y3922D01*
X15784Y3879D01*
X15767Y3838D01*
X15747Y3797D01*
X15724Y3758D01*
X15699Y3721D01*
X15671Y3685D01*
X15642Y3651D01*
X15610Y3619D01*
X15576Y3590D01*
X15540Y3562D01*
X15502Y3537D01*
X15463Y3515D01*
X15423Y3495D01*
X15381Y3478D01*
X15338Y3463D01*
X15295Y3452D01*
X15250Y3443D01*
X15206Y3437D01*
X15161Y3434D01*
X15116Y3434D01*
X15070Y3437D01*
X15026Y3443D01*
X14982Y3452D01*
X14938Y3464D01*
X14895Y3478D01*
X14854Y3496D01*
X14813Y3516D01*
X14774Y3538D01*
X14737Y3564D01*
X14701Y3591D01*
X14667Y3621D01*
X14635Y3653D01*
X14606Y3687D01*
X14578Y3723D01*
X14553Y3760D01*
X14531Y3799D01*
X14511Y3840D01*
X14494Y3882D01*
X14479Y3924D01*
X14468Y3968D01*
X14459Y4012D01*
X14453Y4057D01*
X14450Y4102D01*
X14450Y4147D01*
X14453Y4192D01*
X14459Y4237D01*
X14468Y4281D01*
X14480Y4324D01*
X14495Y4367D01*
X14512Y4409D01*
X14532Y4449D01*
X14555Y4488D01*
X14580Y4526D01*
X14607Y4561D01*
X14637Y4595D01*
X14669Y4627D01*
X14703Y4657D01*
X14739Y4684D01*
X14776Y4709D01*
X14815Y4732D01*
X14856Y4752D01*
X14898Y4769D01*
X14940Y4783D01*
X14984Y4795D01*
X15028Y4804D01*
X15073Y4809D01*
X15118Y4812D01*
X15163Y4812D01*
X21873Y4823D02*
X21918Y4820D01*
X21963Y4814D01*
X22007Y4805D01*
X22051Y4794D01*
X22093Y4779D01*
X22135Y4762D01*
X22175Y4742D01*
X22214Y4719D01*
X22252Y4694D01*
X22288Y4667D01*
X22322Y4637D01*
X22354Y4605D01*
X22383Y4571D01*
X22411Y4535D01*
X22436Y4498D01*
X22458Y4459D01*
X22478Y4418D01*
X22496Y4377D01*
X22510Y4334D01*
X22522Y4290D01*
X22531Y4246D01*
X22536Y4201D01*
X22539Y4156D01*
X22539Y4111D01*
X22536Y4066D01*
X22531Y4022D01*
X22522Y3977D01*
X22510Y3934D01*
X22496Y3891D01*
X22478Y3849D01*
X22458Y3809D01*
X22436Y3770D01*
X22411Y3732D01*
X22383Y3697D01*
X22354Y3663D01*
X22322Y3631D01*
X22288Y3601D01*
X22252Y3574D01*
X22214Y3548D01*
X22175Y3526D01*
X22135Y3506D01*
X22093Y3489D01*
X22051Y3474D01*
X22007Y3463D01*
X21963Y3454D01*
X21918Y3448D01*
X21873Y3445D01*
X21828Y3445D01*
X21783Y3448D01*
X21738Y3454D01*
X21694Y3463D01*
X21650Y3474D01*
X21608Y3489D01*
X21566Y3506D01*
X21525Y3526D01*
X21486Y3548D01*
X21449Y3574D01*
X21413Y3601D01*
X21379Y3631D01*
X21347Y3663D01*
X21318Y3697D01*
X21290Y3732D01*
X21265Y3770D01*
X21242Y3809D01*
X21222Y3849D01*
X21205Y3891D01*
X21191Y3934D01*
X21179Y3977D01*
X21170Y4022D01*
X21164Y4066D01*
X21161Y4111D01*
X21161Y4156D01*
X21164Y4201D01*
X21170Y4246D01*
X21179Y4290D01*
X21191Y4334D01*
X21205Y4377D01*
X21222Y4418D01*
X21242Y4459D01*
X21265Y4498D01*
X21290Y4535D01*
X21318Y4571D01*
X21347Y4605D01*
X21379Y4637D01*
X21413Y4667D01*
X21449Y4694D01*
X21486Y4719D01*
X21525Y4742D01*
X21566Y4762D01*
X21608Y4779D01*
X21650Y4794D01*
X21694Y4805D01*
X21738Y4814D01*
X21783Y4820D01*
X21828Y4823D01*
X21873Y4823D01*
X21873Y25689D02*
X21918Y25686D01*
X21963Y25680D01*
X22007Y25671D01*
X22051Y25660D01*
X22093Y25645D01*
X22135Y25628D01*
X22175Y25608D01*
X22214Y25585D01*
X22252Y25560D01*
X22288Y25533D01*
X22322Y25503D01*
X22354Y25471D01*
X22383Y25437D01*
X22411Y25402D01*
X22436Y25364D01*
X22458Y25325D01*
X22478Y25284D01*
X22496Y25243D01*
X22510Y25200D01*
X22522Y25157D01*
X22531Y25112D01*
X22536Y25068D01*
X22539Y25023D01*
X22539Y24977D01*
X22536Y24932D01*
X22531Y24888D01*
X22522Y24843D01*
X22510Y24800D01*
X22496Y24757D01*
X22478Y24716D01*
X22458Y24675D01*
X22436Y24636D01*
X22411Y24598D01*
X22383Y24563D01*
X22354Y24529D01*
X22322Y24497D01*
X22288Y24467D01*
X22252Y24440D01*
X22214Y24415D01*
X22175Y24392D01*
X22135Y24372D01*
X22093Y24355D01*
X22051Y24340D01*
X22007Y24329D01*
X21963Y24320D01*
X21918Y24314D01*
X21873Y24311D01*
X21828Y24311D01*
X21783Y24314D01*
X21738Y24320D01*
X21694Y24329D01*
X21650Y24340D01*
X21608Y24355D01*
X21566Y24372D01*
X21525Y24392D01*
X21486Y24415D01*
X21449Y24440D01*
X21413Y24467D01*
X21379Y24497D01*
X21347Y24529D01*
X21318Y24563D01*
X21290Y24598D01*
X21265Y24636D01*
X21242Y24675D01*
X21222Y24716D01*
X21205Y24757D01*
X21191Y24800D01*
X21179Y24843D01*
X21170Y24888D01*
X21164Y24932D01*
X21161Y24977D01*
X21161Y25023D01*
X21164Y25068D01*
X21170Y25112D01*
X21179Y25157D01*
X21191Y25200D01*
X21205Y25243D01*
X21222Y25284D01*
X21242Y25325D01*
X21265Y25364D01*
X21290Y25402D01*
X21318Y25437D01*
X21347Y25471D01*
X21379Y25503D01*
X21413Y25533D01*
X21449Y25560D01*
X21486Y25585D01*
X21525Y25608D01*
X21566Y25628D01*
X21608Y25645D01*
X21650Y25660D01*
X21694Y25671D01*
X21738Y25680D01*
X21783Y25686D01*
X21828Y25689D01*
X21873Y25689D01*
X34078Y25689D02*
X34123Y25686D01*
X34167Y25680D01*
X34212Y25671D01*
X34255Y25660D01*
X34298Y25645D01*
X34340Y25628D01*
X34380Y25608D01*
X34419Y25585D01*
X34457Y25560D01*
X34492Y25533D01*
X34526Y25503D01*
X34558Y25471D01*
X34588Y25437D01*
X34615Y25402D01*
X34641Y25364D01*
X34663Y25325D01*
X34683Y25284D01*
X34700Y25243D01*
X34715Y25200D01*
X34726Y25157D01*
X34735Y25112D01*
X34741Y25068D01*
X34744Y25023D01*
X34744Y24977D01*
X34741Y24932D01*
X34735Y24888D01*
X34726Y24843D01*
X34715Y24800D01*
X34700Y24757D01*
X34683Y24716D01*
X34663Y24675D01*
X34641Y24636D01*
X34615Y24598D01*
X34588Y24563D01*
X34558Y24529D01*
X34526Y24497D01*
X34492Y24467D01*
X34457Y24440D01*
X34419Y24415D01*
X34380Y24392D01*
X34340Y24372D01*
X34298Y24355D01*
X34255Y24340D01*
X34212Y24329D01*
X34167Y24320D01*
X34123Y24314D01*
X34078Y24311D01*
X34033Y24311D01*
X33988Y24314D01*
X33943Y24320D01*
X33899Y24329D01*
X33855Y24340D01*
X33812Y24355D01*
X33771Y24372D01*
X33730Y24392D01*
X33691Y24415D01*
X33654Y24440D01*
X33618Y24467D01*
X33584Y24497D01*
X33552Y24529D01*
X33522Y24563D01*
X33495Y24598D01*
X33470Y24636D01*
X33447Y24675D01*
X33427Y24716D01*
X33410Y24757D01*
X33395Y24800D01*
X33384Y24843D01*
X33375Y24888D01*
X33369Y24932D01*
X33366Y24977D01*
X33366Y25023D01*
X33369Y25068D01*
X33375Y25112D01*
X33384Y25157D01*
X33395Y25200D01*
X33410Y25243D01*
X33427Y25284D01*
X33447Y25325D01*
X33470Y25364D01*
X33495Y25402D01*
X33522Y25437D01*
X33552Y25471D01*
X33584Y25503D01*
X33618Y25533D01*
X33654Y25560D01*
X33691Y25585D01*
X33730Y25608D01*
X33771Y25628D01*
X33812Y25645D01*
X33855Y25660D01*
X33899Y25671D01*
X33943Y25680D01*
X33988Y25686D01*
X34033Y25689D01*
X34078Y25689D01*
X34078Y4823D02*
X34123Y4820D01*
X34167Y4814D01*
X34212Y4805D01*
X34255Y4794D01*
X34298Y4779D01*
X34340Y4762D01*
X34380Y4742D01*
X34419Y4719D01*
X34457Y4694D01*
X34492Y4667D01*
X34526Y4637D01*
X34558Y4605D01*
X34588Y4571D01*
X34615Y4535D01*
X34641Y4498D01*
X34663Y4459D01*
X34683Y4418D01*
X34700Y4377D01*
X34715Y4334D01*
X34726Y4290D01*
X34735Y4246D01*
X34741Y4201D01*
X34744Y4156D01*
X34744Y4111D01*
X34741Y4066D01*
X34735Y4022D01*
X34726Y3977D01*
X34715Y3934D01*
X34700Y3891D01*
X34683Y3849D01*
X34663Y3809D01*
X34641Y3770D01*
X34615Y3732D01*
X34588Y3697D01*
X34558Y3663D01*
X34526Y3631D01*
X34492Y3601D01*
X34457Y3574D01*
X34419Y3548D01*
X34380Y3526D01*
X34340Y3506D01*
X34298Y3489D01*
X34255Y3474D01*
X34212Y3463D01*
X34167Y3454D01*
X34123Y3448D01*
X34078Y3445D01*
X34033Y3445D01*
X33988Y3448D01*
X33943Y3454D01*
X33899Y3463D01*
X33855Y3474D01*
X33812Y3489D01*
X33771Y3506D01*
X33730Y3526D01*
X33691Y3548D01*
X33654Y3574D01*
X33618Y3601D01*
X33584Y3631D01*
X33552Y3663D01*
X33522Y3697D01*
X33495Y3732D01*
X33470Y3770D01*
X33447Y3809D01*
X33427Y3849D01*
X33410Y3891D01*
X33395Y3934D01*
X33384Y3977D01*
X33375Y4022D01*
X33369Y4066D01*
X33366Y4111D01*
X33366Y4156D01*
X33369Y4201D01*
X33375Y4246D01*
X33384Y4290D01*
X33395Y4334D01*
X33410Y4377D01*
X33427Y4418D01*
X33447Y4459D01*
X33470Y4498D01*
X33495Y4535D01*
X33522Y4571D01*
X33552Y4605D01*
X33584Y4637D01*
X33618Y4667D01*
X33654Y4694D01*
X33691Y4719D01*
X33730Y4742D01*
X33771Y4762D01*
X33812Y4779D01*
X33855Y4794D01*
X33899Y4805D01*
X33943Y4814D01*
X33988Y4820D01*
X34033Y4823D01*
X34078Y4823D01*
X40652Y4823D02*
X40697Y4820D01*
X40742Y4814D01*
X40786Y4805D01*
X40830Y4794D01*
X40873Y4779D01*
X40914Y4762D01*
X40955Y4742D01*
X40994Y4719D01*
X41031Y4694D01*
X41067Y4667D01*
X41101Y4637D01*
X41133Y4605D01*
X41163Y4571D01*
X41190Y4535D01*
X41215Y4498D01*
X41238Y4459D01*
X41258Y4418D01*
X41275Y4377D01*
X41290Y4334D01*
X41301Y4290D01*
X41310Y4246D01*
X41316Y4201D01*
X41319Y4156D01*
X41319Y4111D01*
X41316Y4066D01*
X41310Y4022D01*
X41301Y3977D01*
X41290Y3934D01*
X41275Y3891D01*
X41258Y3849D01*
X41238Y3809D01*
X41215Y3770D01*
X41190Y3732D01*
X41163Y3697D01*
X41133Y3663D01*
X41101Y3631D01*
X41067Y3601D01*
X41031Y3574D01*
X40994Y3548D01*
X40955Y3526D01*
X40914Y3506D01*
X40873Y3489D01*
X40830Y3474D01*
X40786Y3463D01*
X40742Y3454D01*
X40697Y3448D01*
X40652Y3445D01*
X40607Y3445D01*
X40562Y3448D01*
X40518Y3454D01*
X40473Y3463D01*
X40430Y3474D01*
X40387Y3489D01*
X40345Y3506D01*
X40305Y3526D01*
X40266Y3548D01*
X40228Y3574D01*
X40193Y3601D01*
X40159Y3631D01*
X40127Y3663D01*
X40097Y3697D01*
X40070Y3732D01*
X40045Y3770D01*
X40022Y3809D01*
X40002Y3849D01*
X39985Y3891D01*
X39970Y3934D01*
X39959Y3977D01*
X39950Y4022D01*
X39944Y4066D01*
X39941Y4111D01*
X39941Y4156D01*
X39944Y4201D01*
X39950Y4246D01*
X39959Y4290D01*
X39970Y4334D01*
X39985Y4377D01*
X40002Y4418D01*
X40022Y4459D01*
X40045Y4498D01*
X40070Y4535D01*
X40097Y4571D01*
X40127Y4605D01*
X40159Y4637D01*
X40193Y4667D01*
X40228Y4694D01*
X40266Y4719D01*
X40305Y4742D01*
X40345Y4762D01*
X40387Y4779D01*
X40430Y4794D01*
X40473Y4805D01*
X40518Y4814D01*
X40562Y4820D01*
X40607Y4823D01*
X40652Y4823D01*
X40652Y25689D02*
X40697Y25686D01*
X40742Y25680D01*
X40786Y25671D01*
X40830Y25660D01*
X40873Y25645D01*
X40914Y25628D01*
X40955Y25608D01*
X40994Y25585D01*
X41031Y25560D01*
X41067Y25533D01*
X41101Y25503D01*
X41133Y25471D01*
X41163Y25437D01*
X41190Y25402D01*
X41215Y25364D01*
X41238Y25325D01*
X41258Y25284D01*
X41275Y25243D01*
X41290Y25200D01*
X41301Y25157D01*
X41310Y25112D01*
X41316Y25068D01*
X41319Y25023D01*
X41319Y24977D01*
X41316Y24932D01*
X41310Y24888D01*
X41301Y24843D01*
X41290Y24800D01*
X41275Y24757D01*
X41258Y24716D01*
X41238Y24675D01*
X41215Y24636D01*
X41190Y24598D01*
X41163Y24563D01*
X41133Y24529D01*
X41101Y24497D01*
X41067Y24467D01*
X41031Y24440D01*
X40994Y24415D01*
X40955Y24392D01*
X40914Y24372D01*
X40873Y24355D01*
X40830Y24340D01*
X40786Y24329D01*
X40742Y24320D01*
X40697Y24314D01*
X40652Y24311D01*
X40607Y24311D01*
X40562Y24314D01*
X40518Y24320D01*
X40473Y24329D01*
X40430Y24340D01*
X40387Y24355D01*
X40345Y24372D01*
X40305Y24392D01*
X40266Y24415D01*
X40228Y24440D01*
X40193Y24467D01*
X40159Y24497D01*
X40127Y24529D01*
X40097Y24563D01*
X40070Y24598D01*
X40045Y24636D01*
X40022Y24675D01*
X40002Y24716D01*
X39985Y24757D01*
X39970Y24800D01*
X39959Y24843D01*
X39950Y24888D01*
X39944Y24932D01*
X39941Y24977D01*
X39941Y25023D01*
X39944Y25068D01*
X39950Y25112D01*
X39959Y25157D01*
X39970Y25200D01*
X39985Y25243D01*
X40002Y25284D01*
X40022Y25325D01*
X40045Y25364D01*
X40070Y25402D01*
X40097Y25437D01*
X40127Y25471D01*
X40159Y25503D01*
X40193Y25533D01*
X40228Y25560D01*
X40266Y25585D01*
X40305Y25608D01*
X40345Y25628D01*
X40387Y25645D01*
X40430Y25660D01*
X40473Y25671D01*
X40518Y25680D01*
X40562Y25686D01*
X40607Y25689D01*
X40652Y25689D01*
X52857Y25689D02*
X52902Y25686D01*
X52947Y25680D01*
X52991Y25671D01*
X53035Y25660D01*
X53077Y25645D01*
X53119Y25628D01*
X53160Y25608D01*
X53199Y25585D01*
X53236Y25560D01*
X53272Y25533D01*
X53306Y25503D01*
X53338Y25471D01*
X53368Y25437D01*
X53395Y25402D01*
X53420Y25364D01*
X53443Y25325D01*
X53463Y25284D01*
X53480Y25243D01*
X53494Y25200D01*
X53506Y25157D01*
X53515Y25112D01*
X53521Y25068D01*
X53524Y25023D01*
X53524Y24977D01*
X53521Y24932D01*
X53515Y24888D01*
X53506Y24843D01*
X53494Y24800D01*
X53480Y24757D01*
X53463Y24716D01*
X53443Y24675D01*
X53420Y24636D01*
X53395Y24598D01*
X53368Y24563D01*
X53338Y24529D01*
X53306Y24497D01*
X53272Y24467D01*
X53236Y24440D01*
X53199Y24415D01*
X53160Y24392D01*
X53119Y24372D01*
X53077Y24355D01*
X53035Y24340D01*
X52991Y24329D01*
X52947Y24320D01*
X52902Y24314D01*
X52857Y24311D01*
X52812Y24311D01*
X52767Y24314D01*
X52722Y24320D01*
X52678Y24329D01*
X52635Y24340D01*
X52592Y24355D01*
X52550Y24372D01*
X52510Y24392D01*
X52471Y24415D01*
X52433Y24440D01*
X52397Y24467D01*
X52363Y24497D01*
X52332Y24529D01*
X52302Y24563D01*
X52274Y24598D01*
X52249Y24636D01*
X52227Y24675D01*
X52207Y24716D01*
X52189Y24757D01*
X52175Y24800D01*
X52163Y24843D01*
X52155Y24888D01*
X52149Y24932D01*
X52146Y24977D01*
X52146Y25023D01*
X52149Y25068D01*
X52155Y25112D01*
X52163Y25157D01*
X52175Y25200D01*
X52189Y25243D01*
X52207Y25284D01*
X52227Y25325D01*
X52249Y25364D01*
X52274Y25402D01*
X52302Y25437D01*
X52332Y25471D01*
X52363Y25503D01*
X52397Y25533D01*
X52433Y25560D01*
X52471Y25585D01*
X52510Y25608D01*
X52550Y25628D01*
X52592Y25645D01*
X52635Y25660D01*
X52678Y25671D01*
X52722Y25680D01*
X52767Y25686D01*
X52812Y25689D01*
X52857Y25689D01*
X52857Y4823D02*
X52902Y4820D01*
X52947Y4814D01*
X52991Y4805D01*
X53035Y4794D01*
X53077Y4779D01*
X53119Y4762D01*
X53160Y4742D01*
X53199Y4719D01*
X53236Y4694D01*
X53272Y4667D01*
X53306Y4637D01*
X53338Y4605D01*
X53368Y4571D01*
X53395Y4535D01*
X53420Y4498D01*
X53443Y4459D01*
X53463Y4418D01*
X53480Y4377D01*
X53494Y4334D01*
X53506Y4290D01*
X53515Y4246D01*
X53521Y4201D01*
X53524Y4156D01*
X53524Y4111D01*
X53521Y4066D01*
X53515Y4022D01*
X53506Y3977D01*
X53494Y3934D01*
X53480Y3891D01*
X53463Y3849D01*
X53443Y3809D01*
X53420Y3770D01*
X53395Y3732D01*
X53368Y3697D01*
X53338Y3663D01*
X53306Y3631D01*
X53272Y3601D01*
X53236Y3574D01*
X53199Y3548D01*
X53160Y3526D01*
X53119Y3506D01*
X53077Y3489D01*
X53035Y3474D01*
X52991Y3463D01*
X52947Y3454D01*
X52902Y3448D01*
X52857Y3445D01*
X52812Y3445D01*
X52767Y3448D01*
X52722Y3454D01*
X52678Y3463D01*
X52635Y3474D01*
X52592Y3489D01*
X52550Y3506D01*
X52510Y3526D01*
X52471Y3548D01*
X52433Y3574D01*
X52397Y3601D01*
X52363Y3631D01*
X52332Y3663D01*
X52302Y3697D01*
X52274Y3732D01*
X52249Y3770D01*
X52227Y3809D01*
X52207Y3849D01*
X52189Y3891D01*
X52175Y3934D01*
X52163Y3977D01*
X52155Y4022D01*
X52149Y4066D01*
X52146Y4111D01*
X52146Y4156D01*
X52149Y4201D01*
X52155Y4246D01*
X52163Y4290D01*
X52175Y4334D01*
X52189Y4377D01*
X52207Y4418D01*
X52227Y4459D01*
X52249Y4498D01*
X52274Y4535D01*
X52302Y4571D01*
X52332Y4605D01*
X52363Y4637D01*
X52397Y4667D01*
X52433Y4694D01*
X52471Y4719D01*
X52510Y4742D01*
X52550Y4762D01*
X52592Y4779D01*
X52635Y4794D01*
X52678Y4805D01*
X52722Y4814D01*
X52767Y4820D01*
X52812Y4823D01*
X52857Y4823D01*
X42305Y10756D02*
X42270Y10759D01*
X42234Y10764D01*
X42200Y10773D01*
X42166Y10784D01*
X42133Y10797D01*
X42101Y10813D01*
X42071Y10832D01*
X42042Y10853D01*
X42015Y10876D01*
X41990Y10901D01*
X41967Y10928D01*
X41946Y10957D01*
X41928Y10987D01*
X41911Y11019D01*
X41898Y11052D01*
X41887Y11086D01*
X41878Y11120D01*
X41873Y11155D01*
X41870Y11191D01*
X41870Y11226D01*
X41873Y11262D01*
X41878Y11297D01*
X41887Y11332D01*
X41898Y11365D01*
X41911Y11398D01*
X41928Y11430D01*
X41946Y11460D01*
X41967Y11489D01*
X41990Y11516D01*
X42015Y11541D01*
X42042Y11564D01*
X42071Y11585D01*
X42101Y11604D01*
X42133Y11620D01*
X42166Y11634D01*
X42200Y11645D01*
X42234Y11653D01*
X42270Y11659D01*
X42305Y11661D01*
X42341Y11661D01*
X42376Y11659D01*
X42411Y11653D01*
X42446Y11645D01*
X42480Y11634D01*
X42513Y11620D01*
X42544Y11604D01*
X42575Y11585D01*
X42603Y11564D01*
X42630Y11541D01*
X42656Y11516D01*
X42679Y11489D01*
X42700Y11460D01*
X42718Y11430D01*
X42734Y11398D01*
X42748Y11365D01*
X42759Y11332D01*
X42767Y11297D01*
X42773Y11262D01*
X42776Y11226D01*
X42776Y11191D01*
X42773Y11155D01*
X42767Y11120D01*
X42759Y11086D01*
X42748Y11052D01*
X42734Y11019D01*
X42718Y10987D01*
X42700Y10957D01*
X42679Y10928D01*
X42656Y10901D01*
X42630Y10876D01*
X42603Y10853D01*
X42575Y10832D01*
X42544Y10813D01*
X42513Y10797D01*
X42480Y10784D01*
X42446Y10773D01*
X42411Y10764D01*
X42376Y10759D01*
X42341Y10756D01*
X42305Y10756D01*
X42305Y5583D02*
X42270Y5585D01*
X42234Y5591D01*
X42200Y5599D01*
X42166Y5610D01*
X42133Y5624D01*
X42101Y5640D01*
X42071Y5659D01*
X42042Y5680D01*
X42015Y5703D01*
X41990Y5728D01*
X41967Y5755D01*
X41946Y5784D01*
X41928Y5814D01*
X41911Y5846D01*
X41898Y5879D01*
X41887Y5912D01*
X41878Y5947D01*
X41873Y5982D01*
X41870Y6018D01*
X41870Y6053D01*
X41873Y6089D01*
X41878Y6124D01*
X41887Y6158D01*
X41898Y6192D01*
X41911Y6225D01*
X41928Y6257D01*
X41946Y6287D01*
X41967Y6316D01*
X41990Y6343D01*
X42015Y6368D01*
X42042Y6391D01*
X42071Y6412D01*
X42101Y6431D01*
X42133Y6447D01*
X42166Y6461D01*
X42200Y6472D01*
X42234Y6480D01*
X42270Y6485D01*
X42305Y6488D01*
X42341Y6488D01*
X42376Y6485D01*
X42411Y6480D01*
X42446Y6472D01*
X42480Y6461D01*
X42513Y6447D01*
X42544Y6431D01*
X42575Y6412D01*
X42603Y6391D01*
X42630Y6368D01*
X42656Y6343D01*
X42679Y6316D01*
X42700Y6287D01*
X42718Y6257D01*
X42734Y6225D01*
X42748Y6192D01*
X42759Y6158D01*
X42767Y6124D01*
X42773Y6089D01*
X42776Y6053D01*
X42776Y6018D01*
X42773Y5982D01*
X42767Y5947D01*
X42759Y5912D01*
X42748Y5879D01*
X42734Y5846D01*
X42718Y5814D01*
X42700Y5784D01*
X42679Y5755D01*
X42656Y5728D01*
X42630Y5703D01*
X42603Y5680D01*
X42575Y5659D01*
X42544Y5640D01*
X42513Y5624D01*
X42480Y5610D01*
X42446Y5599D01*
X42411Y5591D01*
X42376Y5585D01*
X42341Y5583D01*
X42305Y5583D01*
M02*
