G04 EAGLE Gerber RS-274X export*
G75*
%MOIN*%
%FSLAX34Y34*%
%LPD*%
%INSilkscreen Top*%
%IPPOS*%
%AMOC8*
5,1,8,0,0,1.08239X$1,22.5*%
G01*
%ADD10C,0.005000*%
%ADD11C,0.003000*%
%ADD12C,0.015000*%
%ADD13C,0.007000*%
%ADD14C,0.032000*%
%ADD15C,0.010000*%
%ADD16C,0.004000*%
%ADD17C,0.008000*%
%ADD18C,0.007874*%
%ADD19C,0.006000*%


D10*
X1554Y2769D02*
X1559Y5525D01*
X1591Y23635D01*
X1595Y26391D01*
X4351Y26386D01*
X7107Y26381D01*
X11044Y26374D01*
X13800Y26370D01*
X16556Y26365D01*
X16551Y23609D01*
X16520Y5499D01*
X16515Y2743D01*
X13759Y2748D01*
X11003Y2752D01*
X7066Y2759D01*
X4310Y2764D01*
X1554Y2769D01*
X16134Y10224D02*
X16150Y19279D01*
X11032Y19288D01*
X11016Y10233D01*
X16134Y10224D01*
X15738Y9043D02*
X15734Y6681D01*
X15738Y9043D02*
X13376Y9048D01*
X13372Y6685D01*
X15734Y6681D01*
X13768Y7864D02*
X13770Y7920D01*
X13776Y7975D01*
X13786Y8029D01*
X13799Y8083D01*
X13817Y8136D01*
X13838Y8187D01*
X13862Y8237D01*
X13890Y8285D01*
X13922Y8331D01*
X13956Y8375D01*
X13994Y8416D01*
X14034Y8454D01*
X14077Y8489D01*
X14122Y8521D01*
X14170Y8550D01*
X14219Y8576D01*
X14270Y8598D01*
X14322Y8616D01*
X14376Y8630D01*
X14431Y8641D01*
X14486Y8648D01*
X14541Y8651D01*
X14597Y8650D01*
X14652Y8645D01*
X14707Y8636D01*
X14761Y8624D01*
X14814Y8607D01*
X14866Y8587D01*
X14916Y8563D01*
X14964Y8536D01*
X15011Y8506D01*
X15055Y8472D01*
X15097Y8435D01*
X15135Y8395D01*
X15172Y8353D01*
X15205Y8308D01*
X15234Y8262D01*
X15261Y8213D01*
X15283Y8162D01*
X15303Y8110D01*
X15318Y8056D01*
X15330Y8002D01*
X15338Y7947D01*
X15342Y7892D01*
X15342Y7836D01*
X15338Y7781D01*
X15330Y7726D01*
X15318Y7672D01*
X15303Y7618D01*
X15283Y7566D01*
X15261Y7515D01*
X15234Y7466D01*
X15205Y7420D01*
X15172Y7375D01*
X15135Y7333D01*
X15097Y7293D01*
X15055Y7256D01*
X15011Y7222D01*
X14964Y7192D01*
X14916Y7165D01*
X14866Y7141D01*
X14814Y7121D01*
X14761Y7104D01*
X14707Y7092D01*
X14652Y7083D01*
X14597Y7078D01*
X14541Y7077D01*
X14486Y7080D01*
X14431Y7087D01*
X14376Y7098D01*
X14322Y7112D01*
X14270Y7130D01*
X14219Y7152D01*
X14170Y7178D01*
X14122Y7207D01*
X14077Y7239D01*
X14034Y7274D01*
X13994Y7312D01*
X13956Y7353D01*
X13922Y7397D01*
X13890Y7443D01*
X13862Y7491D01*
X13838Y7541D01*
X13817Y7592D01*
X13799Y7645D01*
X13786Y7699D01*
X13776Y7753D01*
X13770Y7808D01*
X13768Y7864D01*
X15758Y20067D02*
X15762Y22429D01*
X15758Y20067D02*
X13395Y20071D01*
X13400Y22433D01*
X15762Y22429D01*
X13792Y21250D02*
X13794Y21306D01*
X13800Y21361D01*
X13810Y21415D01*
X13823Y21469D01*
X13841Y21522D01*
X13862Y21573D01*
X13886Y21623D01*
X13914Y21671D01*
X13946Y21717D01*
X13980Y21761D01*
X14018Y21802D01*
X14058Y21840D01*
X14101Y21875D01*
X14146Y21907D01*
X14194Y21936D01*
X14243Y21962D01*
X14294Y21984D01*
X14346Y22002D01*
X14400Y22016D01*
X14455Y22027D01*
X14510Y22034D01*
X14565Y22037D01*
X14621Y22036D01*
X14676Y22031D01*
X14731Y22022D01*
X14785Y22010D01*
X14838Y21993D01*
X14890Y21973D01*
X14940Y21949D01*
X14988Y21922D01*
X15035Y21892D01*
X15079Y21858D01*
X15121Y21821D01*
X15159Y21781D01*
X15196Y21739D01*
X15229Y21694D01*
X15258Y21648D01*
X15285Y21599D01*
X15307Y21548D01*
X15327Y21496D01*
X15342Y21442D01*
X15354Y21388D01*
X15362Y21333D01*
X15366Y21278D01*
X15366Y21222D01*
X15362Y21167D01*
X15354Y21112D01*
X15342Y21058D01*
X15327Y21004D01*
X15307Y20952D01*
X15285Y20901D01*
X15258Y20852D01*
X15229Y20806D01*
X15196Y20761D01*
X15159Y20719D01*
X15121Y20679D01*
X15079Y20642D01*
X15035Y20608D01*
X14988Y20578D01*
X14940Y20551D01*
X14890Y20527D01*
X14838Y20507D01*
X14785Y20490D01*
X14731Y20478D01*
X14676Y20469D01*
X14621Y20464D01*
X14565Y20463D01*
X14510Y20466D01*
X14455Y20473D01*
X14400Y20484D01*
X14346Y20498D01*
X14294Y20516D01*
X14243Y20538D01*
X14194Y20564D01*
X14146Y20593D01*
X14101Y20625D01*
X14058Y20660D01*
X14018Y20698D01*
X13980Y20739D01*
X13946Y20783D01*
X13914Y20829D01*
X13886Y20877D01*
X13862Y20927D01*
X13841Y20978D01*
X13823Y21031D01*
X13810Y21085D01*
X13800Y21139D01*
X13794Y21194D01*
X13792Y21250D01*
X9842Y14172D02*
X9835Y10235D01*
X9842Y14172D02*
X3936Y14182D01*
X3929Y10245D01*
X9835Y10235D01*
X4864Y16933D02*
X4866Y17027D01*
X4872Y17121D01*
X4882Y17214D01*
X4896Y17307D01*
X4913Y17399D01*
X4935Y17490D01*
X4960Y17581D01*
X4990Y17670D01*
X5022Y17758D01*
X5059Y17845D01*
X5099Y17929D01*
X5143Y18012D01*
X5190Y18094D01*
X5241Y18173D01*
X5295Y18250D01*
X5352Y18324D01*
X5412Y18396D01*
X5475Y18466D01*
X5541Y18532D01*
X5610Y18596D01*
X5682Y18657D01*
X5756Y18715D01*
X5832Y18770D01*
X5910Y18821D01*
X5991Y18869D01*
X6074Y18914D01*
X6158Y18955D01*
X6244Y18993D01*
X6332Y19027D01*
X6421Y19057D01*
X6511Y19083D01*
X6602Y19106D01*
X6694Y19124D01*
X6787Y19139D01*
X6880Y19150D01*
X6974Y19157D01*
X7068Y19160D01*
X7161Y19159D01*
X7255Y19154D01*
X7349Y19145D01*
X7442Y19132D01*
X7534Y19115D01*
X7626Y19095D01*
X7716Y19070D01*
X7806Y19042D01*
X7894Y19010D01*
X7981Y18974D01*
X8066Y18935D01*
X8150Y18892D01*
X8231Y18846D01*
X8311Y18796D01*
X8389Y18743D01*
X8464Y18687D01*
X8536Y18627D01*
X8607Y18565D01*
X8674Y18499D01*
X8739Y18431D01*
X8800Y18360D01*
X8859Y18287D01*
X8915Y18211D01*
X8967Y18133D01*
X9016Y18053D01*
X9061Y17971D01*
X9103Y17887D01*
X9142Y17801D01*
X9176Y17714D01*
X9208Y17626D01*
X9235Y17536D01*
X9258Y17445D01*
X9278Y17353D01*
X9294Y17260D01*
X9306Y17167D01*
X9314Y17074D01*
X9318Y16980D01*
X9318Y16886D01*
X9314Y16792D01*
X9306Y16699D01*
X9294Y16606D01*
X9278Y16513D01*
X9258Y16421D01*
X9235Y16330D01*
X9208Y16240D01*
X9176Y16152D01*
X9142Y16065D01*
X9103Y15979D01*
X9061Y15895D01*
X9016Y15813D01*
X8967Y15733D01*
X8915Y15655D01*
X8859Y15579D01*
X8800Y15506D01*
X8739Y15435D01*
X8674Y15367D01*
X8607Y15301D01*
X8536Y15239D01*
X8464Y15179D01*
X8389Y15123D01*
X8311Y15070D01*
X8231Y15020D01*
X8150Y14974D01*
X8066Y14931D01*
X7981Y14892D01*
X7894Y14856D01*
X7806Y14824D01*
X7716Y14796D01*
X7626Y14771D01*
X7534Y14751D01*
X7442Y14734D01*
X7349Y14721D01*
X7255Y14712D01*
X7161Y14707D01*
X7068Y14706D01*
X6974Y14709D01*
X6880Y14716D01*
X6787Y14727D01*
X6694Y14742D01*
X6602Y14760D01*
X6511Y14783D01*
X6421Y14809D01*
X6332Y14839D01*
X6244Y14873D01*
X6158Y14911D01*
X6074Y14952D01*
X5991Y14997D01*
X5910Y15045D01*
X5832Y15096D01*
X5756Y15151D01*
X5682Y15209D01*
X5610Y15270D01*
X5541Y15334D01*
X5475Y15400D01*
X5412Y15470D01*
X5352Y15542D01*
X5295Y15616D01*
X5241Y15693D01*
X5190Y15772D01*
X5143Y15854D01*
X5099Y15937D01*
X5059Y16021D01*
X5022Y16108D01*
X4990Y16196D01*
X4960Y16285D01*
X4935Y16376D01*
X4913Y16467D01*
X4896Y16559D01*
X4882Y16652D01*
X4872Y16745D01*
X4866Y16839D01*
X4864Y16933D01*
X2719Y20768D02*
X2721Y20848D01*
X2727Y20928D01*
X2737Y21008D01*
X2751Y21087D01*
X2768Y21165D01*
X2790Y21243D01*
X2815Y21319D01*
X2844Y21394D01*
X2877Y21467D01*
X2914Y21539D01*
X2953Y21608D01*
X2997Y21676D01*
X3043Y21741D01*
X3093Y21804D01*
X3146Y21865D01*
X3201Y21923D01*
X3260Y21978D01*
X3321Y22030D01*
X3385Y22079D01*
X3451Y22124D01*
X3519Y22167D01*
X3589Y22206D01*
X3661Y22241D01*
X3735Y22273D01*
X3810Y22301D01*
X3886Y22326D01*
X3964Y22346D01*
X4043Y22363D01*
X4122Y22376D01*
X4202Y22385D01*
X4282Y22390D01*
X4362Y22391D01*
X4442Y22388D01*
X4522Y22381D01*
X4602Y22370D01*
X4681Y22355D01*
X4759Y22337D01*
X4836Y22314D01*
X4912Y22288D01*
X4986Y22258D01*
X5059Y22224D01*
X5130Y22187D01*
X5199Y22146D01*
X5267Y22102D01*
X5331Y22055D01*
X5394Y22004D01*
X5454Y21951D01*
X5511Y21894D01*
X5565Y21835D01*
X5616Y21773D01*
X5664Y21709D01*
X5709Y21642D01*
X5751Y21574D01*
X5789Y21503D01*
X5824Y21431D01*
X5855Y21356D01*
X5882Y21281D01*
X5905Y21204D01*
X5925Y21126D01*
X5941Y21048D01*
X5953Y20968D01*
X5961Y20888D01*
X5965Y20808D01*
X5965Y20728D01*
X5961Y20648D01*
X5953Y20568D01*
X5941Y20488D01*
X5925Y20410D01*
X5905Y20332D01*
X5882Y20255D01*
X5855Y20180D01*
X5824Y20105D01*
X5789Y20033D01*
X5751Y19962D01*
X5709Y19894D01*
X5664Y19827D01*
X5616Y19763D01*
X5565Y19701D01*
X5511Y19642D01*
X5454Y19585D01*
X5394Y19532D01*
X5331Y19481D01*
X5267Y19434D01*
X5199Y19390D01*
X5130Y19349D01*
X5059Y19312D01*
X4986Y19278D01*
X4912Y19248D01*
X4836Y19222D01*
X4759Y19199D01*
X4681Y19181D01*
X4602Y19166D01*
X4522Y19155D01*
X4442Y19148D01*
X4362Y19145D01*
X4282Y19146D01*
X4202Y19151D01*
X4122Y19160D01*
X4043Y19173D01*
X3964Y19190D01*
X3886Y19210D01*
X3810Y19235D01*
X3735Y19263D01*
X3661Y19295D01*
X3589Y19330D01*
X3519Y19369D01*
X3451Y19412D01*
X3385Y19457D01*
X3321Y19506D01*
X3260Y19558D01*
X3201Y19613D01*
X3146Y19671D01*
X3093Y19732D01*
X3043Y19795D01*
X2997Y19860D01*
X2953Y19928D01*
X2914Y19997D01*
X2877Y20069D01*
X2844Y20142D01*
X2815Y20217D01*
X2790Y20293D01*
X2768Y20371D01*
X2751Y20449D01*
X2737Y20528D01*
X2727Y20608D01*
X2721Y20688D01*
X2719Y20768D01*
X2744Y7882D02*
X2746Y7961D01*
X2752Y8040D01*
X2762Y8119D01*
X2776Y8197D01*
X2793Y8274D01*
X2815Y8350D01*
X2840Y8425D01*
X2870Y8498D01*
X2902Y8570D01*
X2939Y8641D01*
X2979Y8709D01*
X3022Y8775D01*
X3068Y8839D01*
X3118Y8901D01*
X3171Y8960D01*
X3226Y9016D01*
X3285Y9070D01*
X3346Y9120D01*
X3409Y9168D01*
X3475Y9212D01*
X3543Y9253D01*
X3613Y9290D01*
X3684Y9324D01*
X3758Y9354D01*
X3832Y9380D01*
X3908Y9402D01*
X3985Y9421D01*
X4063Y9436D01*
X4141Y9447D01*
X4220Y9454D01*
X4299Y9457D01*
X4378Y9456D01*
X4457Y9451D01*
X4536Y9442D01*
X4614Y9429D01*
X4691Y9412D01*
X4768Y9392D01*
X4843Y9367D01*
X4917Y9339D01*
X4990Y9307D01*
X5060Y9272D01*
X5129Y9233D01*
X5196Y9190D01*
X5261Y9144D01*
X5323Y9096D01*
X5383Y9044D01*
X5440Y8989D01*
X5494Y8931D01*
X5545Y8871D01*
X5593Y8808D01*
X5638Y8743D01*
X5680Y8675D01*
X5718Y8606D01*
X5752Y8535D01*
X5783Y8462D01*
X5811Y8387D01*
X5834Y8312D01*
X5854Y8235D01*
X5870Y8158D01*
X5882Y8079D01*
X5890Y8001D01*
X5894Y7922D01*
X5894Y7842D01*
X5890Y7763D01*
X5882Y7685D01*
X5870Y7606D01*
X5854Y7529D01*
X5834Y7452D01*
X5811Y7377D01*
X5783Y7302D01*
X5752Y7229D01*
X5718Y7158D01*
X5680Y7089D01*
X5638Y7021D01*
X5593Y6956D01*
X5545Y6893D01*
X5494Y6833D01*
X5440Y6775D01*
X5383Y6720D01*
X5323Y6668D01*
X5261Y6620D01*
X5196Y6574D01*
X5129Y6531D01*
X5060Y6492D01*
X4990Y6457D01*
X4917Y6425D01*
X4843Y6397D01*
X4768Y6372D01*
X4691Y6352D01*
X4614Y6335D01*
X4536Y6322D01*
X4457Y6313D01*
X4378Y6308D01*
X4299Y6307D01*
X4220Y6310D01*
X4141Y6317D01*
X4063Y6328D01*
X3985Y6343D01*
X3908Y6362D01*
X3832Y6384D01*
X3758Y6410D01*
X3684Y6440D01*
X3613Y6474D01*
X3543Y6511D01*
X3475Y6552D01*
X3409Y6596D01*
X3346Y6644D01*
X3285Y6694D01*
X3226Y6748D01*
X3171Y6804D01*
X3118Y6863D01*
X3068Y6925D01*
X3022Y6989D01*
X2979Y7055D01*
X2939Y7123D01*
X2902Y7194D01*
X2870Y7266D01*
X2840Y7339D01*
X2815Y7414D01*
X2793Y7490D01*
X2776Y7567D01*
X2762Y7645D01*
X2752Y7724D01*
X2746Y7803D01*
X2744Y7882D01*
X3938Y15363D02*
X3944Y18513D01*
X2369Y18516D01*
X2364Y15366D01*
X3938Y15363D01*
X2758Y16152D02*
X2760Y16191D01*
X2766Y16230D01*
X2776Y16268D01*
X2789Y16305D01*
X2806Y16340D01*
X2826Y16374D01*
X2850Y16405D01*
X2877Y16434D01*
X2906Y16460D01*
X2938Y16483D01*
X2972Y16503D01*
X3008Y16519D01*
X3045Y16531D01*
X3084Y16540D01*
X3123Y16545D01*
X3162Y16546D01*
X3201Y16543D01*
X3240Y16536D01*
X3277Y16525D01*
X3314Y16511D01*
X3349Y16493D01*
X3382Y16472D01*
X3413Y16447D01*
X3441Y16420D01*
X3466Y16390D01*
X3488Y16357D01*
X3507Y16323D01*
X3522Y16287D01*
X3534Y16249D01*
X3542Y16211D01*
X3546Y16172D01*
X3546Y16132D01*
X3542Y16093D01*
X3534Y16055D01*
X3522Y16017D01*
X3507Y15981D01*
X3488Y15947D01*
X3466Y15914D01*
X3441Y15884D01*
X3413Y15857D01*
X3382Y15832D01*
X3349Y15811D01*
X3314Y15793D01*
X3277Y15779D01*
X3240Y15768D01*
X3201Y15761D01*
X3162Y15758D01*
X3123Y15759D01*
X3084Y15764D01*
X3045Y15773D01*
X3008Y15785D01*
X2972Y15801D01*
X2938Y15821D01*
X2906Y15844D01*
X2877Y15870D01*
X2850Y15899D01*
X2826Y15930D01*
X2806Y15964D01*
X2789Y15999D01*
X2776Y16036D01*
X2766Y16074D01*
X2760Y16113D01*
X2758Y16152D01*
D11*
X4364Y10837D02*
X4733Y10589D01*
X4734Y10836D02*
X4363Y10590D01*
X4364Y10983D02*
X4734Y10983D01*
X4734Y11147D01*
X4652Y11282D02*
X4365Y11365D01*
X4652Y11282D02*
X4653Y11488D01*
X4735Y11426D02*
X4570Y11426D01*
X4550Y11642D02*
X4516Y11644D01*
X4482Y11650D01*
X4449Y11660D01*
X4417Y11673D01*
X4416Y11673D02*
X4402Y11680D01*
X4389Y11689D01*
X4379Y11701D01*
X4371Y11715D01*
X4367Y11730D01*
X4365Y11745D01*
X4367Y11761D01*
X4371Y11776D01*
X4379Y11789D01*
X4390Y11801D01*
X4402Y11810D01*
X4416Y11817D01*
X4417Y11817D02*
X4449Y11831D01*
X4482Y11840D01*
X4516Y11846D01*
X4551Y11848D01*
X4550Y11642D02*
X4585Y11644D01*
X4619Y11650D01*
X4652Y11659D01*
X4684Y11673D01*
X4698Y11680D01*
X4710Y11689D01*
X4721Y11701D01*
X4729Y11714D01*
X4733Y11729D01*
X4735Y11745D01*
X4684Y11817D02*
X4652Y11830D01*
X4619Y11840D01*
X4585Y11846D01*
X4551Y11848D01*
X4684Y11817D02*
X4698Y11810D01*
X4711Y11801D01*
X4721Y11789D01*
X4729Y11775D01*
X4733Y11760D01*
X4735Y11745D01*
X4653Y11663D02*
X4448Y11828D01*
X4448Y12003D02*
X4366Y12105D01*
X4736Y12105D01*
X4736Y12002D02*
X4736Y12208D01*
X4736Y12362D02*
X4736Y12485D01*
X4734Y12501D01*
X4730Y12516D01*
X4722Y12530D01*
X4712Y12543D01*
X4700Y12553D01*
X4686Y12561D01*
X4670Y12565D01*
X4654Y12567D01*
X4654Y12568D02*
X4613Y12568D01*
X4597Y12566D01*
X4582Y12562D01*
X4568Y12554D01*
X4555Y12544D01*
X4545Y12532D01*
X4537Y12518D01*
X4533Y12502D01*
X4531Y12486D01*
X4531Y12362D01*
X4366Y12363D01*
X4367Y12568D01*
X10463Y10479D02*
X10833Y10479D01*
X10463Y10479D02*
X10463Y10582D01*
X10465Y10602D01*
X10471Y10622D01*
X10480Y10639D01*
X10493Y10655D01*
X10509Y10668D01*
X10527Y10677D01*
X10546Y10683D01*
X10566Y10685D01*
X10731Y10685D01*
X10730Y10685D02*
X10748Y10683D01*
X10765Y10679D01*
X10782Y10671D01*
X10796Y10661D01*
X10809Y10648D01*
X10819Y10633D01*
X10827Y10617D01*
X10831Y10600D01*
X10833Y10582D01*
X10833Y10479D01*
X10834Y10882D02*
X10464Y10882D01*
X10834Y10840D02*
X10834Y10923D01*
X10464Y10923D02*
X10464Y10841D01*
X10834Y11178D02*
X10832Y11194D01*
X10828Y11209D01*
X10820Y11223D01*
X10810Y11236D01*
X10798Y11246D01*
X10784Y11254D01*
X10768Y11258D01*
X10752Y11260D01*
X10834Y11178D02*
X10832Y11155D01*
X10828Y11132D01*
X10820Y11111D01*
X10810Y11090D01*
X10797Y11071D01*
X10782Y11054D01*
X10546Y11066D02*
X10530Y11068D01*
X10514Y11072D01*
X10500Y11080D01*
X10488Y11090D01*
X10478Y11103D01*
X10470Y11117D01*
X10466Y11132D01*
X10464Y11148D01*
X10465Y11168D01*
X10469Y11187D01*
X10475Y11206D01*
X10484Y11224D01*
X10495Y11241D01*
X10618Y11106D02*
X10608Y11092D01*
X10595Y11081D01*
X10580Y11072D01*
X10563Y11067D01*
X10546Y11065D01*
X10680Y11220D02*
X10690Y11234D01*
X10703Y11245D01*
X10718Y11254D01*
X10735Y11259D01*
X10752Y11261D01*
X10680Y11220D02*
X10618Y11107D01*
X10465Y11421D02*
X10835Y11420D01*
X10465Y11421D02*
X10465Y11523D01*
X10467Y11543D01*
X10473Y11563D01*
X10482Y11580D01*
X10495Y11596D01*
X10511Y11609D01*
X10529Y11618D01*
X10548Y11624D01*
X10568Y11626D01*
X10588Y11624D01*
X10608Y11618D01*
X10625Y11609D01*
X10641Y11596D01*
X10654Y11580D01*
X10663Y11562D01*
X10669Y11543D01*
X10671Y11523D01*
X10670Y11523D02*
X10670Y11420D01*
X10835Y11775D02*
X10465Y11776D01*
X10835Y11775D02*
X10836Y11940D01*
X10836Y12054D02*
X10466Y12178D01*
X10836Y12301D01*
X10744Y12270D02*
X10743Y12085D01*
X10466Y12415D02*
X10641Y12538D01*
X10467Y12662D01*
X10641Y12538D02*
X10837Y12538D01*
X12656Y6617D02*
X13026Y6616D01*
X13026Y6575D02*
X13026Y6657D01*
X12656Y6658D02*
X12656Y6576D01*
X12657Y6814D02*
X13027Y6813D01*
X13027Y7019D02*
X12657Y6814D01*
X12657Y7020D02*
X13027Y7019D01*
X13047Y20175D02*
X12883Y20175D01*
X12863Y20177D01*
X12843Y20183D01*
X12826Y20192D01*
X12810Y20205D01*
X12797Y20221D01*
X12788Y20239D01*
X12782Y20258D01*
X12780Y20278D01*
X12782Y20298D01*
X12788Y20318D01*
X12797Y20335D01*
X12810Y20351D01*
X12826Y20364D01*
X12844Y20373D01*
X12863Y20379D01*
X12883Y20381D01*
X13047Y20381D01*
X13067Y20379D01*
X13087Y20373D01*
X13104Y20364D01*
X13120Y20351D01*
X13133Y20335D01*
X13142Y20317D01*
X13148Y20298D01*
X13150Y20278D01*
X13148Y20258D01*
X13142Y20238D01*
X13133Y20221D01*
X13120Y20205D01*
X13104Y20192D01*
X13086Y20183D01*
X13067Y20177D01*
X13047Y20175D01*
X13048Y20547D02*
X12781Y20547D01*
X13048Y20547D02*
X13067Y20549D01*
X13085Y20554D01*
X13102Y20562D01*
X13117Y20574D01*
X13130Y20588D01*
X13140Y20604D01*
X13147Y20622D01*
X13151Y20640D01*
X13151Y20659D01*
X13147Y20678D01*
X13140Y20696D01*
X13130Y20712D01*
X13118Y20726D01*
X13102Y20737D01*
X13085Y20746D01*
X13067Y20751D01*
X13048Y20753D01*
X12781Y20753D01*
X12781Y20998D02*
X13151Y20998D01*
X12782Y21101D02*
X12781Y20895D01*
X3044Y16716D02*
X2674Y16593D01*
X2674Y16840D02*
X3044Y16716D01*
X3085Y16957D02*
X3086Y17122D01*
X3045Y17240D02*
X2675Y17364D01*
X3045Y17487D01*
X2953Y17456D02*
X2952Y17271D01*
X3045Y17633D02*
X2675Y17634D01*
X2676Y17736D01*
X2675Y17736D02*
X2677Y17756D01*
X2683Y17776D01*
X2692Y17793D01*
X2705Y17809D01*
X2721Y17822D01*
X2739Y17831D01*
X2758Y17837D01*
X2778Y17839D01*
X2779Y17839D02*
X2943Y17839D01*
X2961Y17837D01*
X2978Y17833D01*
X2995Y17825D01*
X3009Y17815D01*
X3022Y17802D01*
X3032Y17787D01*
X3040Y17771D01*
X3044Y17754D01*
X3046Y17736D01*
X3045Y17633D01*
X2964Y18092D02*
X2676Y18093D01*
X2964Y18092D02*
X2980Y18090D01*
X2996Y18086D01*
X3010Y18078D01*
X3022Y18068D01*
X3032Y18055D01*
X3040Y18041D01*
X3044Y18026D01*
X3046Y18010D01*
X3046Y17969D01*
D10*
X3458Y16377D02*
X2857Y15878D01*
X5846Y16933D02*
X5848Y17003D01*
X5854Y17074D01*
X5864Y17143D01*
X5878Y17212D01*
X5896Y17281D01*
X5917Y17348D01*
X5942Y17414D01*
X5971Y17478D01*
X6004Y17540D01*
X6040Y17601D01*
X6080Y17659D01*
X6122Y17715D01*
X6168Y17769D01*
X6217Y17820D01*
X6268Y17868D01*
X6323Y17913D01*
X6379Y17955D01*
X6438Y17993D01*
X6499Y18028D01*
X6562Y18060D01*
X6627Y18088D01*
X6693Y18113D01*
X6760Y18133D01*
X6829Y18150D01*
X6898Y18163D01*
X6968Y18172D01*
X7038Y18177D01*
X7109Y18178D01*
X7179Y18175D01*
X7249Y18168D01*
X7319Y18157D01*
X7388Y18142D01*
X7456Y18123D01*
X7522Y18101D01*
X7588Y18075D01*
X7652Y18045D01*
X7714Y18011D01*
X7774Y17974D01*
X7831Y17934D01*
X7887Y17890D01*
X7940Y17844D01*
X7990Y17794D01*
X8037Y17742D01*
X8081Y17687D01*
X8122Y17630D01*
X8160Y17571D01*
X8195Y17509D01*
X8225Y17446D01*
X8253Y17381D01*
X8276Y17314D01*
X8296Y17247D01*
X8312Y17178D01*
X8324Y17109D01*
X8332Y17039D01*
X8336Y16968D01*
X8336Y16898D01*
X8332Y16827D01*
X8324Y16757D01*
X8312Y16688D01*
X8296Y16619D01*
X8276Y16552D01*
X8253Y16485D01*
X8225Y16420D01*
X8195Y16357D01*
X8160Y16295D01*
X8122Y16236D01*
X8081Y16179D01*
X8037Y16124D01*
X7990Y16072D01*
X7940Y16022D01*
X7887Y15976D01*
X7831Y15932D01*
X7774Y15892D01*
X7713Y15855D01*
X7652Y15821D01*
X7588Y15791D01*
X7522Y15765D01*
X7456Y15743D01*
X7388Y15724D01*
X7319Y15709D01*
X7249Y15698D01*
X7179Y15691D01*
X7109Y15688D01*
X7038Y15689D01*
X6968Y15694D01*
X6898Y15703D01*
X6829Y15716D01*
X6760Y15733D01*
X6693Y15753D01*
X6627Y15778D01*
X6562Y15806D01*
X6499Y15838D01*
X6438Y15873D01*
X6379Y15911D01*
X6323Y15953D01*
X6268Y15998D01*
X6217Y16046D01*
X6168Y16097D01*
X6122Y16151D01*
X6080Y16207D01*
X6040Y16265D01*
X6004Y16326D01*
X5971Y16388D01*
X5942Y16452D01*
X5917Y16518D01*
X5896Y16585D01*
X5878Y16654D01*
X5864Y16723D01*
X5854Y16792D01*
X5848Y16863D01*
X5846Y16933D01*
X2246Y4145D02*
X2248Y4197D01*
X2254Y4249D01*
X2264Y4300D01*
X2277Y4350D01*
X2295Y4400D01*
X2316Y4447D01*
X2340Y4493D01*
X2369Y4537D01*
X2400Y4579D01*
X2434Y4618D01*
X2471Y4655D01*
X2511Y4688D01*
X2554Y4719D01*
X2598Y4746D01*
X2644Y4770D01*
X2693Y4790D01*
X2742Y4806D01*
X2793Y4819D01*
X2844Y4828D01*
X2896Y4833D01*
X2948Y4834D01*
X3000Y4831D01*
X3052Y4824D01*
X3103Y4813D01*
X3153Y4799D01*
X3202Y4780D01*
X3249Y4758D01*
X3294Y4733D01*
X3338Y4704D01*
X3379Y4672D01*
X3418Y4637D01*
X3453Y4599D01*
X3486Y4558D01*
X3516Y4516D01*
X3542Y4471D01*
X3565Y4424D01*
X3584Y4375D01*
X3600Y4325D01*
X3612Y4275D01*
X3620Y4223D01*
X3624Y4171D01*
X3624Y4119D01*
X3620Y4067D01*
X3612Y4015D01*
X3600Y3965D01*
X3584Y3915D01*
X3565Y3866D01*
X3542Y3819D01*
X3516Y3774D01*
X3486Y3732D01*
X3453Y3691D01*
X3418Y3653D01*
X3379Y3618D01*
X3338Y3586D01*
X3294Y3557D01*
X3249Y3532D01*
X3202Y3510D01*
X3153Y3491D01*
X3103Y3477D01*
X3052Y3466D01*
X3000Y3459D01*
X2948Y3456D01*
X2896Y3457D01*
X2844Y3462D01*
X2793Y3471D01*
X2742Y3484D01*
X2693Y3500D01*
X2644Y3520D01*
X2598Y3544D01*
X2554Y3571D01*
X2511Y3602D01*
X2471Y3635D01*
X2434Y3672D01*
X2400Y3711D01*
X2369Y3753D01*
X2340Y3797D01*
X2316Y3843D01*
X2295Y3890D01*
X2277Y3940D01*
X2264Y3990D01*
X2254Y4041D01*
X2248Y4093D01*
X2246Y4145D01*
X14450Y4123D02*
X14452Y4175D01*
X14458Y4227D01*
X14468Y4278D01*
X14481Y4328D01*
X14499Y4378D01*
X14520Y4425D01*
X14544Y4471D01*
X14573Y4515D01*
X14604Y4557D01*
X14638Y4596D01*
X14675Y4633D01*
X14715Y4666D01*
X14758Y4697D01*
X14802Y4724D01*
X14848Y4748D01*
X14897Y4768D01*
X14946Y4784D01*
X14997Y4797D01*
X15048Y4806D01*
X15100Y4811D01*
X15152Y4812D01*
X15204Y4809D01*
X15256Y4802D01*
X15307Y4791D01*
X15357Y4777D01*
X15406Y4758D01*
X15453Y4736D01*
X15498Y4711D01*
X15542Y4682D01*
X15583Y4650D01*
X15622Y4615D01*
X15657Y4577D01*
X15690Y4536D01*
X15720Y4494D01*
X15746Y4449D01*
X15769Y4402D01*
X15788Y4353D01*
X15804Y4303D01*
X15816Y4253D01*
X15824Y4201D01*
X15828Y4149D01*
X15828Y4097D01*
X15824Y4045D01*
X15816Y3993D01*
X15804Y3943D01*
X15788Y3893D01*
X15769Y3844D01*
X15746Y3797D01*
X15720Y3752D01*
X15690Y3710D01*
X15657Y3669D01*
X15622Y3631D01*
X15583Y3596D01*
X15542Y3564D01*
X15498Y3535D01*
X15453Y3510D01*
X15406Y3488D01*
X15357Y3469D01*
X15307Y3455D01*
X15256Y3444D01*
X15204Y3437D01*
X15152Y3434D01*
X15100Y3435D01*
X15048Y3440D01*
X14997Y3449D01*
X14946Y3462D01*
X14897Y3478D01*
X14848Y3498D01*
X14802Y3522D01*
X14758Y3549D01*
X14715Y3580D01*
X14675Y3613D01*
X14638Y3650D01*
X14604Y3689D01*
X14573Y3731D01*
X14544Y3775D01*
X14520Y3821D01*
X14499Y3868D01*
X14481Y3918D01*
X14468Y3968D01*
X14458Y4019D01*
X14452Y4071D01*
X14450Y4123D01*
X14480Y24989D02*
X14482Y25042D01*
X14488Y25094D01*
X14498Y25146D01*
X14512Y25197D01*
X14529Y25246D01*
X14551Y25294D01*
X14575Y25341D01*
X14604Y25385D01*
X14635Y25427D01*
X14670Y25467D01*
X14708Y25504D01*
X14748Y25538D01*
X14791Y25569D01*
X14836Y25596D01*
X14883Y25620D01*
X14931Y25640D01*
X14981Y25657D01*
X15032Y25670D01*
X15084Y25679D01*
X15137Y25684D01*
X15189Y25685D01*
X15242Y25682D01*
X15294Y25675D01*
X15346Y25664D01*
X15396Y25649D01*
X15445Y25631D01*
X15493Y25609D01*
X15539Y25583D01*
X15583Y25554D01*
X15625Y25521D01*
X15663Y25486D01*
X15700Y25447D01*
X15733Y25407D01*
X15763Y25363D01*
X15789Y25318D01*
X15813Y25270D01*
X15832Y25222D01*
X15848Y25171D01*
X15860Y25120D01*
X15868Y25068D01*
X15872Y25015D01*
X15872Y24963D01*
X15868Y24910D01*
X15860Y24858D01*
X15848Y24807D01*
X15832Y24756D01*
X15813Y24708D01*
X15789Y24660D01*
X15763Y24615D01*
X15733Y24571D01*
X15700Y24531D01*
X15663Y24492D01*
X15625Y24457D01*
X15583Y24424D01*
X15539Y24395D01*
X15493Y24369D01*
X15445Y24347D01*
X15396Y24329D01*
X15346Y24314D01*
X15294Y24303D01*
X15242Y24296D01*
X15189Y24293D01*
X15137Y24294D01*
X15084Y24299D01*
X15032Y24308D01*
X14981Y24321D01*
X14931Y24338D01*
X14883Y24358D01*
X14836Y24382D01*
X14791Y24409D01*
X14748Y24440D01*
X14708Y24474D01*
X14670Y24511D01*
X14635Y24551D01*
X14604Y24593D01*
X14575Y24637D01*
X14551Y24684D01*
X14529Y24732D01*
X14512Y24781D01*
X14498Y24832D01*
X14488Y24884D01*
X14482Y24936D01*
X14480Y24989D01*
X2282Y25011D02*
X2284Y25063D01*
X2290Y25115D01*
X2300Y25166D01*
X2313Y25216D01*
X2331Y25266D01*
X2352Y25313D01*
X2376Y25359D01*
X2405Y25403D01*
X2436Y25445D01*
X2470Y25484D01*
X2507Y25521D01*
X2547Y25554D01*
X2590Y25585D01*
X2634Y25612D01*
X2680Y25636D01*
X2729Y25656D01*
X2778Y25672D01*
X2829Y25685D01*
X2880Y25694D01*
X2932Y25699D01*
X2984Y25700D01*
X3036Y25697D01*
X3088Y25690D01*
X3139Y25679D01*
X3189Y25665D01*
X3238Y25646D01*
X3285Y25624D01*
X3330Y25599D01*
X3374Y25570D01*
X3415Y25538D01*
X3454Y25503D01*
X3489Y25465D01*
X3522Y25424D01*
X3552Y25382D01*
X3578Y25337D01*
X3601Y25290D01*
X3620Y25241D01*
X3636Y25191D01*
X3648Y25141D01*
X3656Y25089D01*
X3660Y25037D01*
X3660Y24985D01*
X3656Y24933D01*
X3648Y24881D01*
X3636Y24831D01*
X3620Y24781D01*
X3601Y24732D01*
X3578Y24685D01*
X3552Y24640D01*
X3522Y24598D01*
X3489Y24557D01*
X3454Y24519D01*
X3415Y24484D01*
X3374Y24452D01*
X3330Y24423D01*
X3285Y24398D01*
X3238Y24376D01*
X3189Y24357D01*
X3139Y24343D01*
X3088Y24332D01*
X3036Y24325D01*
X2984Y24322D01*
X2932Y24323D01*
X2880Y24328D01*
X2829Y24337D01*
X2778Y24350D01*
X2729Y24366D01*
X2680Y24386D01*
X2634Y24410D01*
X2590Y24437D01*
X2547Y24468D01*
X2507Y24501D01*
X2470Y24538D01*
X2436Y24577D01*
X2405Y24619D01*
X2376Y24663D01*
X2352Y24709D01*
X2331Y24756D01*
X2313Y24806D01*
X2300Y24856D01*
X2290Y24907D01*
X2284Y24959D01*
X2282Y25011D01*
X4315Y5520D02*
X4310Y2764D01*
X4315Y5520D02*
X1559Y5525D01*
X13764Y5504D02*
X13759Y2748D01*
X13764Y5504D02*
X16520Y5499D01*
X16551Y23609D02*
X13795Y23614D01*
X13800Y26370D01*
X4351Y26386D02*
X4347Y23630D01*
X1591Y23635D01*
X5368Y21973D02*
X5364Y19573D01*
X5346Y9073D02*
X5341Y6673D01*
D11*
X4080Y20404D02*
X4082Y20422D01*
X4087Y20440D01*
X4096Y20456D01*
X4107Y20470D01*
X4121Y20481D01*
X4138Y20490D01*
X4155Y20495D01*
X4173Y20497D01*
X4080Y20403D02*
X4081Y20385D01*
X4086Y20366D01*
X4093Y20349D01*
X4103Y20333D01*
X4115Y20319D01*
X4129Y20307D01*
X4145Y20297D01*
X4162Y20290D01*
X4245Y20465D02*
X4233Y20476D01*
X4219Y20484D01*
X4205Y20491D01*
X4189Y20495D01*
X4173Y20496D01*
X4245Y20465D02*
X4450Y20290D01*
X4450Y20496D01*
X4173Y20857D02*
X4155Y20855D01*
X4138Y20850D01*
X4121Y20841D01*
X4107Y20830D01*
X4096Y20816D01*
X4087Y20800D01*
X4082Y20782D01*
X4080Y20764D01*
X4081Y20763D02*
X4082Y20745D01*
X4087Y20726D01*
X4094Y20709D01*
X4104Y20693D01*
X4116Y20679D01*
X4130Y20667D01*
X4146Y20657D01*
X4163Y20650D01*
X4245Y20825D02*
X4233Y20836D01*
X4219Y20844D01*
X4205Y20851D01*
X4189Y20855D01*
X4173Y20856D01*
X4245Y20825D02*
X4451Y20650D01*
X4451Y20856D01*
X4266Y21010D02*
X4232Y21012D01*
X4198Y21018D01*
X4165Y21028D01*
X4133Y21041D01*
X4119Y21048D01*
X4106Y21057D01*
X4096Y21069D01*
X4088Y21083D01*
X4084Y21098D01*
X4082Y21113D01*
X4084Y21129D01*
X4088Y21144D01*
X4096Y21157D01*
X4107Y21169D01*
X4119Y21178D01*
X4133Y21185D01*
X4165Y21199D01*
X4198Y21208D01*
X4232Y21214D01*
X4267Y21216D01*
X4266Y21010D02*
X4301Y21012D01*
X4335Y21018D01*
X4368Y21027D01*
X4400Y21041D01*
X4414Y21048D01*
X4426Y21057D01*
X4437Y21069D01*
X4445Y21082D01*
X4449Y21097D01*
X4451Y21113D01*
X4400Y21185D02*
X4368Y21198D01*
X4335Y21208D01*
X4301Y21214D01*
X4267Y21216D01*
X4400Y21185D02*
X4414Y21178D01*
X4427Y21169D01*
X4437Y21157D01*
X4445Y21143D01*
X4449Y21128D01*
X4451Y21113D01*
X4369Y21031D02*
X4164Y21195D01*
X4058Y7493D02*
X4140Y7390D01*
X4058Y7493D02*
X4428Y7493D01*
X4428Y7390D02*
X4428Y7596D01*
X4243Y7750D02*
X4209Y7752D01*
X4175Y7758D01*
X4142Y7768D01*
X4110Y7781D01*
X4109Y7781D02*
X4095Y7788D01*
X4082Y7797D01*
X4072Y7809D01*
X4064Y7823D01*
X4060Y7838D01*
X4058Y7853D01*
X4060Y7869D01*
X4064Y7884D01*
X4072Y7897D01*
X4083Y7909D01*
X4095Y7918D01*
X4109Y7925D01*
X4110Y7925D02*
X4142Y7939D01*
X4175Y7948D01*
X4209Y7954D01*
X4244Y7956D01*
X4243Y7750D02*
X4278Y7752D01*
X4312Y7758D01*
X4345Y7767D01*
X4377Y7781D01*
X4391Y7788D01*
X4403Y7797D01*
X4414Y7809D01*
X4422Y7822D01*
X4426Y7837D01*
X4428Y7853D01*
X4377Y7925D02*
X4345Y7938D01*
X4312Y7948D01*
X4278Y7954D01*
X4244Y7956D01*
X4377Y7925D02*
X4391Y7918D01*
X4404Y7909D01*
X4414Y7897D01*
X4422Y7883D01*
X4426Y7868D01*
X4428Y7853D01*
X4346Y7771D02*
X4141Y7935D01*
X4243Y8110D02*
X4209Y8112D01*
X4175Y8118D01*
X4142Y8128D01*
X4110Y8141D01*
X4096Y8148D01*
X4083Y8157D01*
X4073Y8169D01*
X4065Y8183D01*
X4061Y8198D01*
X4059Y8213D01*
X4061Y8229D01*
X4065Y8244D01*
X4073Y8257D01*
X4084Y8269D01*
X4096Y8278D01*
X4110Y8285D01*
X4111Y8285D02*
X4143Y8299D01*
X4176Y8308D01*
X4210Y8314D01*
X4245Y8316D01*
X4243Y8110D02*
X4278Y8112D01*
X4312Y8118D01*
X4345Y8127D01*
X4377Y8141D01*
X4378Y8141D02*
X4392Y8148D01*
X4404Y8157D01*
X4415Y8169D01*
X4423Y8182D01*
X4427Y8197D01*
X4429Y8213D01*
X4378Y8285D02*
X4346Y8298D01*
X4313Y8308D01*
X4279Y8314D01*
X4245Y8316D01*
X4378Y8285D02*
X4392Y8278D01*
X4405Y8269D01*
X4415Y8257D01*
X4423Y8243D01*
X4427Y8228D01*
X4429Y8213D01*
X4347Y8131D02*
X4141Y8295D01*
D10*
X13601Y6959D02*
X13603Y6982D01*
X13609Y7005D01*
X13618Y7026D01*
X13631Y7046D01*
X13647Y7063D01*
X13665Y7077D01*
X13685Y7088D01*
X13707Y7096D01*
X13730Y7100D01*
X13754Y7100D01*
X13777Y7096D01*
X13799Y7088D01*
X13819Y7077D01*
X13837Y7063D01*
X13853Y7046D01*
X13866Y7026D01*
X13875Y7005D01*
X13881Y6982D01*
X13883Y6959D01*
X13881Y6936D01*
X13875Y6913D01*
X13866Y6892D01*
X13853Y6872D01*
X13837Y6855D01*
X13819Y6841D01*
X13799Y6830D01*
X13777Y6822D01*
X13754Y6818D01*
X13730Y6818D01*
X13707Y6822D01*
X13685Y6830D01*
X13665Y6841D01*
X13647Y6855D01*
X13631Y6872D01*
X13618Y6892D01*
X13609Y6913D01*
X13603Y6936D01*
X13601Y6959D01*
X13604Y8759D02*
X13606Y8782D01*
X13612Y8805D01*
X13621Y8826D01*
X13634Y8846D01*
X13650Y8863D01*
X13668Y8877D01*
X13688Y8888D01*
X13710Y8896D01*
X13733Y8900D01*
X13757Y8900D01*
X13780Y8896D01*
X13802Y8888D01*
X13822Y8877D01*
X13840Y8863D01*
X13856Y8846D01*
X13869Y8826D01*
X13878Y8805D01*
X13884Y8782D01*
X13886Y8759D01*
X13884Y8736D01*
X13878Y8713D01*
X13869Y8692D01*
X13856Y8672D01*
X13840Y8655D01*
X13822Y8641D01*
X13802Y8630D01*
X13780Y8622D01*
X13757Y8618D01*
X13733Y8618D01*
X13710Y8622D01*
X13688Y8630D01*
X13668Y8641D01*
X13650Y8655D01*
X13634Y8672D01*
X13621Y8692D01*
X13612Y8713D01*
X13606Y8736D01*
X13604Y8759D01*
X15301Y6956D02*
X15303Y6979D01*
X15309Y7002D01*
X15318Y7023D01*
X15331Y7043D01*
X15347Y7060D01*
X15365Y7074D01*
X15385Y7085D01*
X15407Y7093D01*
X15430Y7097D01*
X15454Y7097D01*
X15477Y7093D01*
X15499Y7085D01*
X15519Y7074D01*
X15537Y7060D01*
X15553Y7043D01*
X15566Y7023D01*
X15575Y7002D01*
X15581Y6979D01*
X15583Y6956D01*
X15581Y6933D01*
X15575Y6910D01*
X15566Y6889D01*
X15553Y6869D01*
X15537Y6852D01*
X15519Y6838D01*
X15499Y6827D01*
X15477Y6819D01*
X15454Y6815D01*
X15430Y6815D01*
X15407Y6819D01*
X15385Y6827D01*
X15365Y6838D01*
X15347Y6852D01*
X15331Y6869D01*
X15318Y6889D01*
X15309Y6910D01*
X15303Y6933D01*
X15301Y6956D01*
X15304Y8756D02*
X15306Y8779D01*
X15312Y8802D01*
X15321Y8823D01*
X15334Y8843D01*
X15350Y8860D01*
X15368Y8874D01*
X15388Y8885D01*
X15410Y8893D01*
X15433Y8897D01*
X15457Y8897D01*
X15480Y8893D01*
X15502Y8885D01*
X15522Y8874D01*
X15540Y8860D01*
X15556Y8843D01*
X15569Y8823D01*
X15578Y8802D01*
X15584Y8779D01*
X15586Y8756D01*
X15584Y8733D01*
X15578Y8710D01*
X15569Y8689D01*
X15556Y8669D01*
X15540Y8652D01*
X15522Y8638D01*
X15502Y8627D01*
X15480Y8619D01*
X15457Y8615D01*
X15433Y8615D01*
X15410Y8619D01*
X15388Y8627D01*
X15368Y8638D01*
X15350Y8652D01*
X15334Y8669D01*
X15321Y8689D01*
X15312Y8710D01*
X15306Y8733D01*
X15304Y8756D01*
X15324Y20356D02*
X15326Y20379D01*
X15332Y20402D01*
X15341Y20423D01*
X15354Y20443D01*
X15370Y20460D01*
X15388Y20474D01*
X15408Y20485D01*
X15430Y20493D01*
X15453Y20497D01*
X15477Y20497D01*
X15500Y20493D01*
X15522Y20485D01*
X15542Y20474D01*
X15560Y20460D01*
X15576Y20443D01*
X15589Y20423D01*
X15598Y20402D01*
X15604Y20379D01*
X15606Y20356D01*
X15604Y20333D01*
X15598Y20310D01*
X15589Y20289D01*
X15576Y20269D01*
X15560Y20252D01*
X15542Y20238D01*
X15522Y20227D01*
X15500Y20219D01*
X15477Y20215D01*
X15453Y20215D01*
X15430Y20219D01*
X15408Y20227D01*
X15388Y20238D01*
X15370Y20252D01*
X15354Y20269D01*
X15341Y20289D01*
X15332Y20310D01*
X15326Y20333D01*
X15324Y20356D01*
X13524Y20359D02*
X13526Y20382D01*
X13532Y20405D01*
X13541Y20426D01*
X13554Y20446D01*
X13570Y20463D01*
X13588Y20477D01*
X13608Y20488D01*
X13630Y20496D01*
X13653Y20500D01*
X13677Y20500D01*
X13700Y20496D01*
X13722Y20488D01*
X13742Y20477D01*
X13760Y20463D01*
X13776Y20446D01*
X13789Y20426D01*
X13798Y20405D01*
X13804Y20382D01*
X13806Y20359D01*
X13804Y20336D01*
X13798Y20313D01*
X13789Y20292D01*
X13776Y20272D01*
X13760Y20255D01*
X13742Y20241D01*
X13722Y20230D01*
X13700Y20222D01*
X13677Y20218D01*
X13653Y20218D01*
X13630Y20222D01*
X13608Y20230D01*
X13588Y20241D01*
X13570Y20255D01*
X13554Y20272D01*
X13541Y20292D01*
X13532Y20313D01*
X13526Y20336D01*
X13524Y20359D01*
X13527Y22159D02*
X13529Y22182D01*
X13535Y22205D01*
X13544Y22226D01*
X13557Y22246D01*
X13573Y22263D01*
X13591Y22277D01*
X13611Y22288D01*
X13633Y22296D01*
X13656Y22300D01*
X13680Y22300D01*
X13703Y22296D01*
X13725Y22288D01*
X13745Y22277D01*
X13763Y22263D01*
X13779Y22246D01*
X13792Y22226D01*
X13801Y22205D01*
X13807Y22182D01*
X13809Y22159D01*
X13807Y22136D01*
X13801Y22113D01*
X13792Y22092D01*
X13779Y22072D01*
X13763Y22055D01*
X13745Y22041D01*
X13725Y22030D01*
X13703Y22022D01*
X13680Y22018D01*
X13656Y22018D01*
X13633Y22022D01*
X13611Y22030D01*
X13591Y22041D01*
X13573Y22055D01*
X13557Y22072D01*
X13544Y22092D01*
X13535Y22113D01*
X13529Y22136D01*
X13527Y22159D01*
X15327Y22156D02*
X15329Y22179D01*
X15335Y22202D01*
X15344Y22223D01*
X15357Y22243D01*
X15373Y22260D01*
X15391Y22274D01*
X15411Y22285D01*
X15433Y22293D01*
X15456Y22297D01*
X15480Y22297D01*
X15503Y22293D01*
X15525Y22285D01*
X15545Y22274D01*
X15563Y22260D01*
X15579Y22243D01*
X15592Y22223D01*
X15601Y22202D01*
X15607Y22179D01*
X15609Y22156D01*
X15607Y22133D01*
X15601Y22110D01*
X15592Y22089D01*
X15579Y22069D01*
X15563Y22052D01*
X15545Y22038D01*
X15525Y22027D01*
X15503Y22019D01*
X15480Y22015D01*
X15456Y22015D01*
X15433Y22019D01*
X15411Y22027D01*
X15391Y22038D01*
X15373Y22052D01*
X15357Y22069D01*
X15344Y22089D01*
X15335Y22110D01*
X15329Y22133D01*
X15327Y22156D01*
D12*
X13849Y11159D02*
X15249Y10956D01*
X13649Y11259D02*
X13652Y12659D01*
X15451Y12456D02*
X15449Y11056D01*
X15252Y12556D02*
X13852Y12759D01*
X13452Y12859D02*
X12052Y13062D01*
X12050Y11462D02*
X13449Y11259D01*
X11850Y11562D02*
X11852Y12962D01*
X13854Y13959D02*
X15254Y13756D01*
X13654Y14059D02*
X13657Y15459D01*
X15456Y15256D02*
X15454Y13856D01*
X15257Y15356D02*
X13857Y15559D01*
X13457Y15659D02*
X12057Y15862D01*
X12055Y14262D02*
X13454Y14059D01*
X11855Y14362D02*
X11857Y15762D01*
X13859Y16659D02*
X15258Y16456D01*
X13659Y16759D02*
X13661Y18159D01*
X15461Y17956D02*
X15459Y16556D01*
X15261Y18056D02*
X13862Y18259D01*
X13462Y18359D02*
X12062Y18562D01*
X12059Y16962D02*
X13459Y16759D01*
X11859Y17062D02*
X11862Y18462D01*
D13*
X11773Y4678D02*
X12503Y4677D01*
X12503Y4596D02*
X12503Y4758D01*
X11773Y4759D02*
X11773Y4597D01*
X11774Y5049D02*
X12504Y5048D01*
X12504Y5453D02*
X11774Y5049D01*
X11774Y5454D02*
X12504Y5453D01*
X12221Y5764D02*
X12222Y6251D01*
X6503Y4687D02*
X5773Y4689D01*
X6503Y4606D02*
X6503Y4769D01*
X5773Y4770D02*
X5773Y4608D01*
X5774Y5059D02*
X6504Y5058D01*
X6504Y5464D02*
X5774Y5059D01*
X5774Y5465D02*
X6504Y5464D01*
X6221Y5775D02*
X6222Y6262D01*
X6465Y6018D02*
X5978Y6019D01*
X6006Y22107D02*
X6330Y22107D01*
X6006Y22107D02*
X5978Y22109D01*
X5951Y22115D01*
X5925Y22124D01*
X5900Y22137D01*
X5878Y22153D01*
X5857Y22172D01*
X5840Y22193D01*
X5826Y22217D01*
X5815Y22242D01*
X5807Y22269D01*
X5803Y22297D01*
X5803Y22324D01*
X5807Y22352D01*
X5815Y22378D01*
X5826Y22404D01*
X5840Y22427D01*
X5858Y22449D01*
X5878Y22468D01*
X5901Y22484D01*
X5925Y22496D01*
X5952Y22506D01*
X5979Y22511D01*
X6006Y22513D01*
X6007Y22513D02*
X6331Y22512D01*
X6359Y22510D01*
X6386Y22504D01*
X6412Y22495D01*
X6437Y22482D01*
X6459Y22466D01*
X6480Y22447D01*
X6497Y22426D01*
X6511Y22402D01*
X6522Y22377D01*
X6530Y22350D01*
X6534Y22322D01*
X6534Y22295D01*
X6530Y22267D01*
X6522Y22241D01*
X6511Y22215D01*
X6497Y22192D01*
X6479Y22170D01*
X6459Y22151D01*
X6436Y22135D01*
X6412Y22123D01*
X6385Y22113D01*
X6358Y22108D01*
X6331Y22106D01*
X6332Y22818D02*
X5805Y22819D01*
X6332Y22817D02*
X6359Y22819D01*
X6386Y22824D01*
X6413Y22834D01*
X6437Y22846D01*
X6460Y22862D01*
X6480Y22881D01*
X6498Y22903D01*
X6512Y22926D01*
X6523Y22952D01*
X6531Y22978D01*
X6535Y23006D01*
X6535Y23033D01*
X6531Y23061D01*
X6523Y23088D01*
X6512Y23113D01*
X6498Y23137D01*
X6481Y23158D01*
X6460Y23177D01*
X6438Y23193D01*
X6413Y23206D01*
X6387Y23215D01*
X6360Y23221D01*
X6332Y23223D01*
X5805Y23224D01*
X5806Y23687D02*
X6536Y23685D01*
X5806Y23484D02*
X5806Y23889D01*
X6253Y24131D02*
X6254Y24617D01*
X6497Y24373D02*
X6010Y24374D01*
X12006Y22097D02*
X12330Y22096D01*
X12006Y22097D02*
X11978Y22099D01*
X11951Y22105D01*
X11925Y22114D01*
X11900Y22127D01*
X11878Y22143D01*
X11857Y22162D01*
X11840Y22183D01*
X11826Y22207D01*
X11815Y22232D01*
X11807Y22259D01*
X11803Y22287D01*
X11803Y22314D01*
X11807Y22342D01*
X11815Y22368D01*
X11826Y22394D01*
X11840Y22417D01*
X11858Y22439D01*
X11878Y22458D01*
X11901Y22474D01*
X11925Y22486D01*
X11952Y22496D01*
X11979Y22501D01*
X12006Y22503D01*
X12007Y22502D02*
X12331Y22502D01*
X12359Y22500D01*
X12386Y22494D01*
X12412Y22485D01*
X12437Y22472D01*
X12459Y22456D01*
X12480Y22437D01*
X12497Y22416D01*
X12511Y22392D01*
X12522Y22367D01*
X12530Y22340D01*
X12534Y22312D01*
X12534Y22285D01*
X12530Y22257D01*
X12522Y22231D01*
X12511Y22205D01*
X12497Y22182D01*
X12479Y22160D01*
X12459Y22141D01*
X12436Y22125D01*
X12412Y22113D01*
X12385Y22103D01*
X12358Y22098D01*
X12331Y22096D01*
X12332Y22807D02*
X11805Y22808D01*
X12332Y22807D02*
X12359Y22809D01*
X12386Y22814D01*
X12413Y22824D01*
X12437Y22836D01*
X12460Y22852D01*
X12480Y22871D01*
X12498Y22893D01*
X12512Y22916D01*
X12523Y22942D01*
X12531Y22968D01*
X12535Y22996D01*
X12535Y23023D01*
X12531Y23051D01*
X12523Y23078D01*
X12512Y23103D01*
X12498Y23127D01*
X12481Y23148D01*
X12460Y23167D01*
X12438Y23183D01*
X12413Y23196D01*
X12387Y23205D01*
X12360Y23211D01*
X12332Y23213D01*
X11805Y23214D01*
X11806Y23676D02*
X12536Y23675D01*
X11806Y23473D02*
X11806Y23879D01*
X12253Y24120D02*
X12254Y24607D01*
D10*
X11004Y3146D02*
X11003Y2752D01*
X11004Y3146D02*
X11008Y5508D01*
X11009Y5902D01*
X7071Y5909D01*
X7071Y5515D01*
X7067Y3153D01*
X7066Y2759D01*
X11044Y25981D02*
X11044Y26374D01*
X11044Y25981D02*
X11039Y23619D01*
X11039Y23225D01*
X7102Y23232D01*
X7102Y23625D01*
X9235Y4329D02*
X9237Y4385D01*
X9243Y4440D01*
X9253Y4494D01*
X9266Y4548D01*
X9284Y4601D01*
X9305Y4652D01*
X9329Y4702D01*
X9357Y4750D01*
X9389Y4796D01*
X9423Y4840D01*
X9461Y4881D01*
X9501Y4919D01*
X9544Y4954D01*
X9589Y4986D01*
X9637Y5015D01*
X9686Y5041D01*
X9737Y5063D01*
X9789Y5081D01*
X9843Y5095D01*
X9898Y5106D01*
X9953Y5113D01*
X10008Y5116D01*
X10064Y5115D01*
X10119Y5110D01*
X10174Y5101D01*
X10228Y5089D01*
X10281Y5072D01*
X10333Y5052D01*
X10383Y5028D01*
X10431Y5001D01*
X10478Y4971D01*
X10522Y4937D01*
X10564Y4900D01*
X10602Y4860D01*
X10639Y4818D01*
X10672Y4773D01*
X10701Y4727D01*
X10728Y4678D01*
X10750Y4627D01*
X10770Y4575D01*
X10785Y4521D01*
X10797Y4467D01*
X10805Y4412D01*
X10809Y4357D01*
X10809Y4301D01*
X10805Y4246D01*
X10797Y4191D01*
X10785Y4137D01*
X10770Y4083D01*
X10750Y4031D01*
X10728Y3980D01*
X10701Y3931D01*
X10672Y3885D01*
X10639Y3840D01*
X10602Y3798D01*
X10564Y3758D01*
X10522Y3721D01*
X10478Y3687D01*
X10431Y3657D01*
X10383Y3630D01*
X10333Y3606D01*
X10281Y3586D01*
X10228Y3569D01*
X10174Y3557D01*
X10119Y3548D01*
X10064Y3543D01*
X10008Y3542D01*
X9953Y3545D01*
X9898Y3552D01*
X9843Y3563D01*
X9789Y3577D01*
X9737Y3595D01*
X9686Y3617D01*
X9637Y3643D01*
X9589Y3672D01*
X9544Y3704D01*
X9501Y3739D01*
X9461Y3777D01*
X9423Y3818D01*
X9389Y3862D01*
X9357Y3908D01*
X9329Y3956D01*
X9305Y4006D01*
X9284Y4057D01*
X9266Y4110D01*
X9253Y4164D01*
X9243Y4218D01*
X9237Y4273D01*
X9235Y4329D01*
X7266Y4332D02*
X7268Y4388D01*
X7274Y4443D01*
X7284Y4497D01*
X7297Y4551D01*
X7315Y4604D01*
X7336Y4655D01*
X7360Y4705D01*
X7388Y4753D01*
X7420Y4799D01*
X7454Y4843D01*
X7492Y4884D01*
X7532Y4922D01*
X7575Y4957D01*
X7620Y4989D01*
X7668Y5018D01*
X7717Y5044D01*
X7768Y5066D01*
X7820Y5084D01*
X7874Y5098D01*
X7929Y5109D01*
X7984Y5116D01*
X8039Y5119D01*
X8095Y5118D01*
X8150Y5113D01*
X8205Y5104D01*
X8259Y5092D01*
X8312Y5075D01*
X8364Y5055D01*
X8414Y5031D01*
X8462Y5004D01*
X8509Y4974D01*
X8553Y4940D01*
X8595Y4903D01*
X8633Y4863D01*
X8670Y4821D01*
X8703Y4776D01*
X8732Y4730D01*
X8759Y4681D01*
X8781Y4630D01*
X8801Y4578D01*
X8816Y4524D01*
X8828Y4470D01*
X8836Y4415D01*
X8840Y4360D01*
X8840Y4304D01*
X8836Y4249D01*
X8828Y4194D01*
X8816Y4140D01*
X8801Y4086D01*
X8781Y4034D01*
X8759Y3983D01*
X8732Y3934D01*
X8703Y3888D01*
X8670Y3843D01*
X8633Y3801D01*
X8595Y3761D01*
X8553Y3724D01*
X8509Y3690D01*
X8462Y3660D01*
X8414Y3633D01*
X8364Y3609D01*
X8312Y3589D01*
X8259Y3572D01*
X8205Y3560D01*
X8150Y3551D01*
X8095Y3546D01*
X8039Y3545D01*
X7984Y3548D01*
X7929Y3555D01*
X7874Y3566D01*
X7820Y3580D01*
X7768Y3598D01*
X7717Y3620D01*
X7668Y3646D01*
X7620Y3675D01*
X7575Y3707D01*
X7532Y3742D01*
X7492Y3780D01*
X7454Y3821D01*
X7420Y3865D01*
X7388Y3911D01*
X7360Y3959D01*
X7336Y4009D01*
X7315Y4060D01*
X7297Y4113D01*
X7284Y4167D01*
X7274Y4221D01*
X7268Y4276D01*
X7266Y4332D01*
X7102Y23625D02*
X7107Y25988D01*
X7107Y26381D01*
X7067Y3153D02*
X11004Y3146D01*
X11008Y5508D02*
X7071Y5515D01*
D14*
X9627Y3936D02*
X10416Y4722D01*
X10415Y3935D02*
X9628Y4723D01*
X8446Y3938D02*
X7660Y4727D01*
X8447Y4725D02*
X7659Y3939D01*
D10*
X9270Y24801D02*
X9272Y24857D01*
X9278Y24912D01*
X9288Y24966D01*
X9301Y25020D01*
X9319Y25073D01*
X9340Y25124D01*
X9364Y25174D01*
X9392Y25222D01*
X9424Y25268D01*
X9458Y25312D01*
X9496Y25353D01*
X9536Y25391D01*
X9579Y25426D01*
X9624Y25458D01*
X9672Y25487D01*
X9721Y25513D01*
X9772Y25535D01*
X9824Y25553D01*
X9878Y25567D01*
X9933Y25578D01*
X9988Y25585D01*
X10043Y25588D01*
X10099Y25587D01*
X10154Y25582D01*
X10209Y25573D01*
X10263Y25561D01*
X10316Y25544D01*
X10368Y25524D01*
X10418Y25500D01*
X10466Y25473D01*
X10513Y25443D01*
X10557Y25409D01*
X10599Y25372D01*
X10637Y25332D01*
X10674Y25290D01*
X10707Y25245D01*
X10736Y25199D01*
X10763Y25150D01*
X10785Y25099D01*
X10805Y25047D01*
X10820Y24993D01*
X10832Y24939D01*
X10840Y24884D01*
X10844Y24829D01*
X10844Y24773D01*
X10840Y24718D01*
X10832Y24663D01*
X10820Y24609D01*
X10805Y24555D01*
X10785Y24503D01*
X10763Y24452D01*
X10736Y24403D01*
X10707Y24357D01*
X10674Y24312D01*
X10637Y24270D01*
X10599Y24230D01*
X10557Y24193D01*
X10513Y24159D01*
X10466Y24129D01*
X10418Y24102D01*
X10368Y24078D01*
X10316Y24058D01*
X10263Y24041D01*
X10209Y24029D01*
X10154Y24020D01*
X10099Y24015D01*
X10043Y24014D01*
X9988Y24017D01*
X9933Y24024D01*
X9878Y24035D01*
X9824Y24049D01*
X9772Y24067D01*
X9721Y24089D01*
X9672Y24115D01*
X9624Y24144D01*
X9579Y24176D01*
X9536Y24211D01*
X9496Y24249D01*
X9458Y24290D01*
X9424Y24334D01*
X9392Y24380D01*
X9364Y24428D01*
X9340Y24478D01*
X9319Y24529D01*
X9301Y24582D01*
X9288Y24636D01*
X9278Y24690D01*
X9272Y24745D01*
X9270Y24801D01*
X7302Y24805D02*
X7304Y24861D01*
X7310Y24916D01*
X7320Y24970D01*
X7333Y25024D01*
X7351Y25077D01*
X7372Y25128D01*
X7396Y25178D01*
X7424Y25226D01*
X7456Y25272D01*
X7490Y25316D01*
X7528Y25357D01*
X7568Y25395D01*
X7611Y25430D01*
X7656Y25462D01*
X7704Y25491D01*
X7753Y25517D01*
X7804Y25539D01*
X7856Y25557D01*
X7910Y25571D01*
X7965Y25582D01*
X8020Y25589D01*
X8075Y25592D01*
X8131Y25591D01*
X8186Y25586D01*
X8241Y25577D01*
X8295Y25565D01*
X8348Y25548D01*
X8400Y25528D01*
X8450Y25504D01*
X8498Y25477D01*
X8545Y25447D01*
X8589Y25413D01*
X8631Y25376D01*
X8669Y25336D01*
X8706Y25294D01*
X8739Y25249D01*
X8768Y25203D01*
X8795Y25154D01*
X8817Y25103D01*
X8837Y25051D01*
X8852Y24997D01*
X8864Y24943D01*
X8872Y24888D01*
X8876Y24833D01*
X8876Y24777D01*
X8872Y24722D01*
X8864Y24667D01*
X8852Y24613D01*
X8837Y24559D01*
X8817Y24507D01*
X8795Y24456D01*
X8768Y24407D01*
X8739Y24361D01*
X8706Y24316D01*
X8669Y24274D01*
X8631Y24234D01*
X8589Y24197D01*
X8545Y24163D01*
X8498Y24133D01*
X8450Y24106D01*
X8400Y24082D01*
X8348Y24062D01*
X8295Y24045D01*
X8241Y24033D01*
X8186Y24024D01*
X8131Y24019D01*
X8075Y24018D01*
X8020Y24021D01*
X7965Y24028D01*
X7910Y24039D01*
X7856Y24053D01*
X7804Y24071D01*
X7753Y24093D01*
X7704Y24119D01*
X7656Y24148D01*
X7611Y24180D01*
X7568Y24215D01*
X7528Y24253D01*
X7490Y24294D01*
X7456Y24338D01*
X7424Y24384D01*
X7396Y24432D01*
X7372Y24482D01*
X7351Y24533D01*
X7333Y24586D01*
X7320Y24640D01*
X7310Y24694D01*
X7304Y24749D01*
X7302Y24805D01*
D14*
X9663Y24408D02*
X10452Y25194D01*
X10450Y24407D02*
X9664Y25196D01*
X8482Y24410D02*
X7696Y25199D01*
X7694Y24412D02*
X8483Y25198D01*
D10*
X7102Y23625D02*
X11039Y23619D01*
X11044Y25981D02*
X7107Y25988D01*
X20472Y5512D02*
X20472Y2756D01*
X20472Y5512D02*
X20472Y23622D01*
X20472Y26378D01*
X23228Y26378D01*
X25984Y26378D01*
X29921Y26378D01*
X32677Y26378D01*
X35433Y26378D01*
X35433Y23622D01*
X35433Y5512D01*
X35433Y2756D01*
X32677Y2756D01*
X29921Y2756D01*
X25984Y2756D01*
X23228Y2756D01*
X20472Y2756D01*
X35039Y10236D02*
X35039Y19291D01*
X29921Y19291D01*
X29921Y10236D01*
X35039Y10236D01*
X34646Y9055D02*
X34646Y6693D01*
X34646Y9055D02*
X32283Y9055D01*
X32283Y6693D01*
X34646Y6693D01*
X32678Y7874D02*
X32680Y7930D01*
X32686Y7985D01*
X32696Y8039D01*
X32709Y8093D01*
X32727Y8146D01*
X32748Y8197D01*
X32772Y8247D01*
X32800Y8295D01*
X32832Y8341D01*
X32866Y8385D01*
X32904Y8426D01*
X32944Y8464D01*
X32987Y8499D01*
X33032Y8531D01*
X33080Y8560D01*
X33129Y8586D01*
X33180Y8608D01*
X33232Y8626D01*
X33286Y8640D01*
X33341Y8651D01*
X33396Y8658D01*
X33451Y8661D01*
X33507Y8660D01*
X33562Y8655D01*
X33617Y8646D01*
X33671Y8634D01*
X33724Y8617D01*
X33776Y8597D01*
X33826Y8573D01*
X33874Y8546D01*
X33921Y8516D01*
X33965Y8482D01*
X34007Y8445D01*
X34045Y8405D01*
X34082Y8363D01*
X34115Y8318D01*
X34144Y8272D01*
X34171Y8223D01*
X34193Y8172D01*
X34213Y8120D01*
X34228Y8066D01*
X34240Y8012D01*
X34248Y7957D01*
X34252Y7902D01*
X34252Y7846D01*
X34248Y7791D01*
X34240Y7736D01*
X34228Y7682D01*
X34213Y7628D01*
X34193Y7576D01*
X34171Y7525D01*
X34144Y7476D01*
X34115Y7430D01*
X34082Y7385D01*
X34045Y7343D01*
X34007Y7303D01*
X33965Y7266D01*
X33921Y7232D01*
X33874Y7202D01*
X33826Y7175D01*
X33776Y7151D01*
X33724Y7131D01*
X33671Y7114D01*
X33617Y7102D01*
X33562Y7093D01*
X33507Y7088D01*
X33451Y7087D01*
X33396Y7090D01*
X33341Y7097D01*
X33286Y7108D01*
X33232Y7122D01*
X33180Y7140D01*
X33129Y7162D01*
X33080Y7188D01*
X33032Y7217D01*
X32987Y7249D01*
X32944Y7284D01*
X32904Y7322D01*
X32866Y7363D01*
X32832Y7407D01*
X32800Y7453D01*
X32772Y7501D01*
X32748Y7551D01*
X32727Y7602D01*
X32709Y7655D01*
X32696Y7709D01*
X32686Y7763D01*
X32680Y7818D01*
X32678Y7874D01*
X34646Y20079D02*
X34646Y22441D01*
X34646Y20079D02*
X32283Y20079D01*
X32283Y22441D01*
X34646Y22441D01*
X32678Y21260D02*
X32680Y21316D01*
X32686Y21371D01*
X32696Y21425D01*
X32709Y21479D01*
X32727Y21532D01*
X32748Y21583D01*
X32772Y21633D01*
X32800Y21681D01*
X32832Y21727D01*
X32866Y21771D01*
X32904Y21812D01*
X32944Y21850D01*
X32987Y21885D01*
X33032Y21917D01*
X33080Y21946D01*
X33129Y21972D01*
X33180Y21994D01*
X33232Y22012D01*
X33286Y22026D01*
X33341Y22037D01*
X33396Y22044D01*
X33451Y22047D01*
X33507Y22046D01*
X33562Y22041D01*
X33617Y22032D01*
X33671Y22020D01*
X33724Y22003D01*
X33776Y21983D01*
X33826Y21959D01*
X33874Y21932D01*
X33921Y21902D01*
X33965Y21868D01*
X34007Y21831D01*
X34045Y21791D01*
X34082Y21749D01*
X34115Y21704D01*
X34144Y21658D01*
X34171Y21609D01*
X34193Y21558D01*
X34213Y21506D01*
X34228Y21452D01*
X34240Y21398D01*
X34248Y21343D01*
X34252Y21288D01*
X34252Y21232D01*
X34248Y21177D01*
X34240Y21122D01*
X34228Y21068D01*
X34213Y21014D01*
X34193Y20962D01*
X34171Y20911D01*
X34144Y20862D01*
X34115Y20816D01*
X34082Y20771D01*
X34045Y20729D01*
X34007Y20689D01*
X33965Y20652D01*
X33921Y20618D01*
X33874Y20588D01*
X33826Y20561D01*
X33776Y20537D01*
X33724Y20517D01*
X33671Y20500D01*
X33617Y20488D01*
X33562Y20479D01*
X33507Y20474D01*
X33451Y20473D01*
X33396Y20476D01*
X33341Y20483D01*
X33286Y20494D01*
X33232Y20508D01*
X33180Y20526D01*
X33129Y20548D01*
X33080Y20574D01*
X33032Y20603D01*
X32987Y20635D01*
X32944Y20670D01*
X32904Y20708D01*
X32866Y20749D01*
X32832Y20793D01*
X32800Y20839D01*
X32772Y20887D01*
X32748Y20937D01*
X32727Y20988D01*
X32709Y21041D01*
X32696Y21095D01*
X32686Y21149D01*
X32680Y21204D01*
X32678Y21260D01*
X28740Y14173D02*
X28740Y10236D01*
X28740Y14173D02*
X22835Y14173D01*
X22835Y10236D01*
X28740Y10236D01*
X23757Y16929D02*
X23759Y17023D01*
X23765Y17117D01*
X23775Y17210D01*
X23789Y17303D01*
X23806Y17395D01*
X23828Y17486D01*
X23853Y17577D01*
X23883Y17666D01*
X23915Y17754D01*
X23952Y17841D01*
X23992Y17925D01*
X24036Y18008D01*
X24083Y18090D01*
X24134Y18169D01*
X24188Y18246D01*
X24245Y18320D01*
X24305Y18392D01*
X24368Y18462D01*
X24434Y18528D01*
X24503Y18592D01*
X24575Y18653D01*
X24649Y18711D01*
X24725Y18766D01*
X24803Y18817D01*
X24884Y18865D01*
X24967Y18910D01*
X25051Y18951D01*
X25137Y18989D01*
X25225Y19023D01*
X25314Y19053D01*
X25404Y19079D01*
X25495Y19102D01*
X25587Y19120D01*
X25680Y19135D01*
X25773Y19146D01*
X25867Y19153D01*
X25961Y19156D01*
X26054Y19155D01*
X26148Y19150D01*
X26242Y19141D01*
X26335Y19128D01*
X26427Y19111D01*
X26519Y19091D01*
X26609Y19066D01*
X26699Y19038D01*
X26787Y19006D01*
X26874Y18970D01*
X26959Y18931D01*
X27043Y18888D01*
X27124Y18842D01*
X27204Y18792D01*
X27282Y18739D01*
X27357Y18683D01*
X27429Y18623D01*
X27500Y18561D01*
X27567Y18495D01*
X27632Y18427D01*
X27693Y18356D01*
X27752Y18283D01*
X27808Y18207D01*
X27860Y18129D01*
X27909Y18049D01*
X27954Y17967D01*
X27996Y17883D01*
X28035Y17797D01*
X28069Y17710D01*
X28101Y17622D01*
X28128Y17532D01*
X28151Y17441D01*
X28171Y17349D01*
X28187Y17256D01*
X28199Y17163D01*
X28207Y17070D01*
X28211Y16976D01*
X28211Y16882D01*
X28207Y16788D01*
X28199Y16695D01*
X28187Y16602D01*
X28171Y16509D01*
X28151Y16417D01*
X28128Y16326D01*
X28101Y16236D01*
X28069Y16148D01*
X28035Y16061D01*
X27996Y15975D01*
X27954Y15891D01*
X27909Y15809D01*
X27860Y15729D01*
X27808Y15651D01*
X27752Y15575D01*
X27693Y15502D01*
X27632Y15431D01*
X27567Y15363D01*
X27500Y15297D01*
X27429Y15235D01*
X27357Y15175D01*
X27282Y15119D01*
X27204Y15066D01*
X27124Y15016D01*
X27043Y14970D01*
X26959Y14927D01*
X26874Y14888D01*
X26787Y14852D01*
X26699Y14820D01*
X26609Y14792D01*
X26519Y14767D01*
X26427Y14747D01*
X26335Y14730D01*
X26242Y14717D01*
X26148Y14708D01*
X26054Y14703D01*
X25961Y14702D01*
X25867Y14705D01*
X25773Y14712D01*
X25680Y14723D01*
X25587Y14738D01*
X25495Y14756D01*
X25404Y14779D01*
X25314Y14805D01*
X25225Y14835D01*
X25137Y14869D01*
X25051Y14907D01*
X24967Y14948D01*
X24884Y14993D01*
X24803Y15041D01*
X24725Y15092D01*
X24649Y15147D01*
X24575Y15205D01*
X24503Y15266D01*
X24434Y15330D01*
X24368Y15396D01*
X24305Y15466D01*
X24245Y15538D01*
X24188Y15612D01*
X24134Y15689D01*
X24083Y15768D01*
X24036Y15850D01*
X23992Y15933D01*
X23952Y16017D01*
X23915Y16104D01*
X23883Y16192D01*
X23853Y16281D01*
X23828Y16372D01*
X23806Y16463D01*
X23789Y16555D01*
X23775Y16648D01*
X23765Y16741D01*
X23759Y16835D01*
X23757Y16929D01*
X21605Y20760D02*
X21607Y20840D01*
X21613Y20920D01*
X21623Y21000D01*
X21637Y21079D01*
X21654Y21157D01*
X21676Y21235D01*
X21701Y21311D01*
X21730Y21386D01*
X21763Y21459D01*
X21800Y21531D01*
X21839Y21600D01*
X21883Y21668D01*
X21929Y21733D01*
X21979Y21796D01*
X22032Y21857D01*
X22087Y21915D01*
X22146Y21970D01*
X22207Y22022D01*
X22271Y22071D01*
X22337Y22116D01*
X22405Y22159D01*
X22475Y22198D01*
X22547Y22233D01*
X22621Y22265D01*
X22696Y22293D01*
X22772Y22318D01*
X22850Y22338D01*
X22929Y22355D01*
X23008Y22368D01*
X23088Y22377D01*
X23168Y22382D01*
X23248Y22383D01*
X23328Y22380D01*
X23408Y22373D01*
X23488Y22362D01*
X23567Y22347D01*
X23645Y22329D01*
X23722Y22306D01*
X23798Y22280D01*
X23872Y22250D01*
X23945Y22216D01*
X24016Y22179D01*
X24085Y22138D01*
X24153Y22094D01*
X24217Y22047D01*
X24280Y21996D01*
X24340Y21943D01*
X24397Y21886D01*
X24451Y21827D01*
X24502Y21765D01*
X24550Y21701D01*
X24595Y21634D01*
X24637Y21566D01*
X24675Y21495D01*
X24710Y21423D01*
X24741Y21348D01*
X24768Y21273D01*
X24791Y21196D01*
X24811Y21118D01*
X24827Y21040D01*
X24839Y20960D01*
X24847Y20880D01*
X24851Y20800D01*
X24851Y20720D01*
X24847Y20640D01*
X24839Y20560D01*
X24827Y20480D01*
X24811Y20402D01*
X24791Y20324D01*
X24768Y20247D01*
X24741Y20172D01*
X24710Y20097D01*
X24675Y20025D01*
X24637Y19954D01*
X24595Y19886D01*
X24550Y19819D01*
X24502Y19755D01*
X24451Y19693D01*
X24397Y19634D01*
X24340Y19577D01*
X24280Y19524D01*
X24217Y19473D01*
X24153Y19426D01*
X24085Y19382D01*
X24016Y19341D01*
X23945Y19304D01*
X23872Y19270D01*
X23798Y19240D01*
X23722Y19214D01*
X23645Y19191D01*
X23567Y19173D01*
X23488Y19158D01*
X23408Y19147D01*
X23328Y19140D01*
X23248Y19137D01*
X23168Y19138D01*
X23088Y19143D01*
X23008Y19152D01*
X22929Y19165D01*
X22850Y19182D01*
X22772Y19202D01*
X22696Y19227D01*
X22621Y19255D01*
X22547Y19287D01*
X22475Y19322D01*
X22405Y19361D01*
X22337Y19404D01*
X22271Y19449D01*
X22207Y19498D01*
X22146Y19550D01*
X22087Y19605D01*
X22032Y19663D01*
X21979Y19724D01*
X21929Y19787D01*
X21883Y19852D01*
X21839Y19920D01*
X21800Y19989D01*
X21763Y20061D01*
X21730Y20134D01*
X21701Y20209D01*
X21676Y20285D01*
X21654Y20363D01*
X21637Y20441D01*
X21623Y20520D01*
X21613Y20600D01*
X21607Y20680D01*
X21605Y20760D01*
X21653Y7874D02*
X21655Y7953D01*
X21661Y8032D01*
X21671Y8111D01*
X21685Y8189D01*
X21702Y8266D01*
X21724Y8342D01*
X21749Y8417D01*
X21779Y8490D01*
X21811Y8562D01*
X21848Y8633D01*
X21888Y8701D01*
X21931Y8767D01*
X21977Y8831D01*
X22027Y8893D01*
X22080Y8952D01*
X22135Y9008D01*
X22194Y9062D01*
X22255Y9112D01*
X22318Y9160D01*
X22384Y9204D01*
X22452Y9245D01*
X22522Y9282D01*
X22593Y9316D01*
X22667Y9346D01*
X22741Y9372D01*
X22817Y9394D01*
X22894Y9413D01*
X22972Y9428D01*
X23050Y9439D01*
X23129Y9446D01*
X23208Y9449D01*
X23287Y9448D01*
X23366Y9443D01*
X23445Y9434D01*
X23523Y9421D01*
X23600Y9404D01*
X23677Y9384D01*
X23752Y9359D01*
X23826Y9331D01*
X23899Y9299D01*
X23969Y9264D01*
X24038Y9225D01*
X24105Y9182D01*
X24170Y9136D01*
X24232Y9088D01*
X24292Y9036D01*
X24349Y8981D01*
X24403Y8923D01*
X24454Y8863D01*
X24502Y8800D01*
X24547Y8735D01*
X24589Y8667D01*
X24627Y8598D01*
X24661Y8527D01*
X24692Y8454D01*
X24720Y8379D01*
X24743Y8304D01*
X24763Y8227D01*
X24779Y8150D01*
X24791Y8071D01*
X24799Y7993D01*
X24803Y7914D01*
X24803Y7834D01*
X24799Y7755D01*
X24791Y7677D01*
X24779Y7598D01*
X24763Y7521D01*
X24743Y7444D01*
X24720Y7369D01*
X24692Y7294D01*
X24661Y7221D01*
X24627Y7150D01*
X24589Y7081D01*
X24547Y7013D01*
X24502Y6948D01*
X24454Y6885D01*
X24403Y6825D01*
X24349Y6767D01*
X24292Y6712D01*
X24232Y6660D01*
X24170Y6612D01*
X24105Y6566D01*
X24038Y6523D01*
X23969Y6484D01*
X23899Y6449D01*
X23826Y6417D01*
X23752Y6389D01*
X23677Y6364D01*
X23600Y6344D01*
X23523Y6327D01*
X23445Y6314D01*
X23366Y6305D01*
X23287Y6300D01*
X23208Y6299D01*
X23129Y6302D01*
X23050Y6309D01*
X22972Y6320D01*
X22894Y6335D01*
X22817Y6354D01*
X22741Y6376D01*
X22667Y6402D01*
X22593Y6432D01*
X22522Y6466D01*
X22452Y6503D01*
X22384Y6544D01*
X22318Y6588D01*
X22255Y6636D01*
X22194Y6686D01*
X22135Y6740D01*
X22080Y6796D01*
X22027Y6855D01*
X21977Y6917D01*
X21931Y6981D01*
X21888Y7047D01*
X21848Y7115D01*
X21811Y7186D01*
X21779Y7258D01*
X21749Y7331D01*
X21724Y7406D01*
X21702Y7482D01*
X21685Y7559D01*
X21671Y7637D01*
X21661Y7716D01*
X21655Y7795D01*
X21653Y7874D01*
X22835Y15354D02*
X22835Y18504D01*
X21260Y18504D01*
X21260Y15354D01*
X22835Y15354D01*
X21653Y16142D02*
X21655Y16181D01*
X21661Y16220D01*
X21671Y16258D01*
X21684Y16295D01*
X21701Y16330D01*
X21721Y16364D01*
X21745Y16395D01*
X21772Y16424D01*
X21801Y16450D01*
X21833Y16473D01*
X21867Y16493D01*
X21903Y16509D01*
X21940Y16521D01*
X21979Y16530D01*
X22018Y16535D01*
X22057Y16536D01*
X22096Y16533D01*
X22135Y16526D01*
X22172Y16515D01*
X22209Y16501D01*
X22244Y16483D01*
X22277Y16462D01*
X22308Y16437D01*
X22336Y16410D01*
X22361Y16380D01*
X22383Y16347D01*
X22402Y16313D01*
X22417Y16277D01*
X22429Y16239D01*
X22437Y16201D01*
X22441Y16162D01*
X22441Y16122D01*
X22437Y16083D01*
X22429Y16045D01*
X22417Y16007D01*
X22402Y15971D01*
X22383Y15937D01*
X22361Y15904D01*
X22336Y15874D01*
X22308Y15847D01*
X22277Y15822D01*
X22244Y15801D01*
X22209Y15783D01*
X22172Y15769D01*
X22135Y15758D01*
X22096Y15751D01*
X22057Y15748D01*
X22018Y15749D01*
X21979Y15754D01*
X21940Y15763D01*
X21903Y15775D01*
X21867Y15791D01*
X21833Y15811D01*
X21801Y15834D01*
X21772Y15860D01*
X21745Y15889D01*
X21721Y15920D01*
X21701Y15954D01*
X21684Y15989D01*
X21671Y16026D01*
X21661Y16064D01*
X21655Y16103D01*
X21653Y16142D01*
D11*
X23268Y10829D02*
X23638Y10582D01*
X23638Y10829D02*
X23268Y10582D01*
X23268Y10975D02*
X23638Y10975D01*
X23638Y11140D01*
X23556Y11274D02*
X23268Y11357D01*
X23556Y11274D02*
X23556Y11480D01*
X23638Y11418D02*
X23473Y11418D01*
X23453Y11634D02*
X23418Y11636D01*
X23384Y11642D01*
X23351Y11651D01*
X23319Y11665D01*
X23305Y11672D01*
X23293Y11681D01*
X23282Y11693D01*
X23274Y11706D01*
X23270Y11721D01*
X23268Y11737D01*
X23270Y11753D01*
X23274Y11768D01*
X23282Y11781D01*
X23293Y11793D01*
X23305Y11802D01*
X23319Y11809D01*
X23351Y11823D01*
X23384Y11832D01*
X23418Y11838D01*
X23453Y11840D01*
X23453Y11634D02*
X23488Y11636D01*
X23522Y11642D01*
X23555Y11651D01*
X23587Y11665D01*
X23601Y11672D01*
X23613Y11681D01*
X23624Y11693D01*
X23632Y11706D01*
X23636Y11721D01*
X23638Y11737D01*
X23587Y11809D02*
X23555Y11823D01*
X23522Y11832D01*
X23488Y11838D01*
X23453Y11840D01*
X23587Y11809D02*
X23601Y11802D01*
X23613Y11793D01*
X23624Y11781D01*
X23632Y11768D01*
X23636Y11753D01*
X23638Y11737D01*
X23556Y11655D02*
X23350Y11819D01*
X23350Y11994D02*
X23268Y12097D01*
X23638Y12097D01*
X23638Y11994D02*
X23638Y12200D01*
X23638Y12354D02*
X23638Y12478D01*
X23636Y12494D01*
X23632Y12509D01*
X23624Y12524D01*
X23614Y12536D01*
X23602Y12546D01*
X23587Y12554D01*
X23572Y12558D01*
X23556Y12560D01*
X23514Y12560D01*
X23498Y12558D01*
X23483Y12554D01*
X23468Y12546D01*
X23456Y12536D01*
X23446Y12524D01*
X23438Y12509D01*
X23434Y12494D01*
X23432Y12478D01*
X23432Y12354D01*
X23268Y12354D01*
X23268Y12560D01*
X29368Y10482D02*
X29738Y10482D01*
X29368Y10482D02*
X29368Y10585D01*
X29370Y10603D01*
X29374Y10620D01*
X29382Y10637D01*
X29392Y10651D01*
X29405Y10664D01*
X29420Y10674D01*
X29436Y10682D01*
X29453Y10686D01*
X29471Y10688D01*
X29471Y10687D02*
X29635Y10687D01*
X29635Y10688D02*
X29653Y10686D01*
X29670Y10682D01*
X29687Y10674D01*
X29701Y10664D01*
X29714Y10651D01*
X29724Y10636D01*
X29732Y10620D01*
X29736Y10603D01*
X29738Y10585D01*
X29738Y10482D01*
X29738Y10885D02*
X29368Y10885D01*
X29738Y10844D02*
X29738Y10926D01*
X29368Y10926D02*
X29368Y10844D01*
X29738Y11181D02*
X29736Y11197D01*
X29732Y11212D01*
X29724Y11227D01*
X29714Y11239D01*
X29702Y11249D01*
X29687Y11257D01*
X29672Y11261D01*
X29656Y11263D01*
X29738Y11181D02*
X29736Y11158D01*
X29732Y11136D01*
X29725Y11114D01*
X29714Y11094D01*
X29702Y11075D01*
X29687Y11057D01*
X29450Y11068D02*
X29434Y11070D01*
X29419Y11074D01*
X29404Y11082D01*
X29392Y11092D01*
X29382Y11104D01*
X29374Y11119D01*
X29370Y11134D01*
X29368Y11150D01*
X29369Y11170D01*
X29373Y11189D01*
X29379Y11208D01*
X29388Y11226D01*
X29399Y11242D01*
X29450Y11068D02*
X29467Y11070D01*
X29484Y11075D01*
X29499Y11084D01*
X29512Y11095D01*
X29522Y11109D01*
X29584Y11223D02*
X29594Y11237D01*
X29607Y11248D01*
X29622Y11257D01*
X29639Y11262D01*
X29656Y11264D01*
X29584Y11222D02*
X29522Y11109D01*
X29368Y11423D02*
X29738Y11423D01*
X29368Y11423D02*
X29368Y11526D01*
X29370Y11545D01*
X29375Y11563D01*
X29383Y11580D01*
X29395Y11595D01*
X29409Y11608D01*
X29425Y11618D01*
X29443Y11625D01*
X29461Y11629D01*
X29481Y11629D01*
X29499Y11625D01*
X29517Y11618D01*
X29533Y11608D01*
X29547Y11595D01*
X29559Y11580D01*
X29567Y11563D01*
X29572Y11545D01*
X29574Y11526D01*
X29573Y11526D02*
X29573Y11423D01*
X29738Y11779D02*
X29368Y11779D01*
X29738Y11779D02*
X29738Y11943D01*
X29738Y12057D02*
X29368Y12181D01*
X29738Y12304D01*
X29645Y12273D02*
X29645Y12088D01*
X29368Y12417D02*
X29542Y12541D01*
X29368Y12664D01*
X29542Y12541D02*
X29738Y12541D01*
X31568Y6623D02*
X31938Y6623D01*
X31938Y6582D02*
X31938Y6664D01*
X31568Y6664D02*
X31568Y6582D01*
X31568Y6820D02*
X31938Y6820D01*
X31938Y7026D02*
X31568Y6820D01*
X31568Y7026D02*
X31938Y7026D01*
X31935Y20182D02*
X31771Y20182D01*
X31752Y20184D01*
X31734Y20189D01*
X31717Y20197D01*
X31702Y20209D01*
X31689Y20223D01*
X31679Y20239D01*
X31672Y20257D01*
X31668Y20275D01*
X31668Y20295D01*
X31672Y20313D01*
X31679Y20331D01*
X31689Y20347D01*
X31702Y20361D01*
X31717Y20373D01*
X31734Y20381D01*
X31752Y20386D01*
X31771Y20388D01*
X31771Y20387D02*
X31935Y20387D01*
X31935Y20388D02*
X31954Y20386D01*
X31972Y20381D01*
X31989Y20373D01*
X32004Y20361D01*
X32017Y20347D01*
X32027Y20331D01*
X32034Y20313D01*
X32038Y20295D01*
X32038Y20275D01*
X32034Y20257D01*
X32027Y20239D01*
X32017Y20223D01*
X32004Y20209D01*
X31989Y20197D01*
X31972Y20189D01*
X31954Y20184D01*
X31935Y20182D01*
X31935Y20554D02*
X31668Y20554D01*
X31935Y20554D02*
X31954Y20556D01*
X31972Y20561D01*
X31989Y20569D01*
X32004Y20581D01*
X32017Y20595D01*
X32027Y20611D01*
X32034Y20629D01*
X32038Y20647D01*
X32038Y20667D01*
X32034Y20685D01*
X32027Y20703D01*
X32017Y20719D01*
X32004Y20733D01*
X31989Y20745D01*
X31972Y20753D01*
X31954Y20758D01*
X31935Y20760D01*
X31935Y20759D02*
X31668Y20759D01*
X31668Y21005D02*
X32038Y21005D01*
X31668Y21107D02*
X31668Y20902D01*
X21938Y16705D02*
X21568Y16582D01*
X21568Y16829D02*
X21938Y16705D01*
X21979Y16947D02*
X21979Y17111D01*
X21938Y17230D02*
X21568Y17353D01*
X21938Y17477D01*
X21845Y17446D02*
X21845Y17261D01*
X21938Y17622D02*
X21568Y17622D01*
X21568Y17725D01*
X21570Y17743D01*
X21574Y17760D01*
X21582Y17777D01*
X21592Y17791D01*
X21605Y17804D01*
X21620Y17814D01*
X21636Y17822D01*
X21653Y17826D01*
X21671Y17828D01*
X21835Y17828D01*
X21853Y17826D01*
X21870Y17822D01*
X21887Y17814D01*
X21901Y17804D01*
X21914Y17791D01*
X21924Y17776D01*
X21932Y17760D01*
X21936Y17743D01*
X21938Y17725D01*
X21938Y17622D01*
X21856Y18081D02*
X21568Y18081D01*
X21856Y18081D02*
X21872Y18079D01*
X21887Y18075D01*
X21902Y18067D01*
X21914Y18057D01*
X21924Y18045D01*
X21932Y18030D01*
X21936Y18015D01*
X21938Y17999D01*
X21938Y17958D01*
D10*
X22353Y16367D02*
X21753Y15867D01*
X24739Y16929D02*
X24741Y16999D01*
X24747Y17070D01*
X24757Y17139D01*
X24771Y17208D01*
X24789Y17277D01*
X24810Y17344D01*
X24835Y17410D01*
X24864Y17474D01*
X24897Y17536D01*
X24933Y17597D01*
X24973Y17655D01*
X25015Y17711D01*
X25061Y17765D01*
X25110Y17816D01*
X25161Y17864D01*
X25216Y17909D01*
X25272Y17951D01*
X25331Y17989D01*
X25392Y18024D01*
X25455Y18056D01*
X25520Y18084D01*
X25586Y18109D01*
X25653Y18129D01*
X25722Y18146D01*
X25791Y18159D01*
X25861Y18168D01*
X25931Y18173D01*
X26002Y18174D01*
X26072Y18171D01*
X26142Y18164D01*
X26212Y18153D01*
X26281Y18138D01*
X26349Y18119D01*
X26415Y18097D01*
X26481Y18071D01*
X26545Y18041D01*
X26607Y18007D01*
X26667Y17970D01*
X26724Y17930D01*
X26780Y17886D01*
X26833Y17840D01*
X26883Y17790D01*
X26930Y17738D01*
X26974Y17683D01*
X27015Y17626D01*
X27053Y17567D01*
X27088Y17505D01*
X27118Y17442D01*
X27146Y17377D01*
X27169Y17310D01*
X27189Y17243D01*
X27205Y17174D01*
X27217Y17105D01*
X27225Y17035D01*
X27229Y16964D01*
X27229Y16894D01*
X27225Y16823D01*
X27217Y16753D01*
X27205Y16684D01*
X27189Y16615D01*
X27169Y16548D01*
X27146Y16481D01*
X27118Y16416D01*
X27088Y16353D01*
X27053Y16291D01*
X27015Y16232D01*
X26974Y16175D01*
X26930Y16120D01*
X26883Y16068D01*
X26833Y16018D01*
X26780Y15972D01*
X26724Y15928D01*
X26667Y15888D01*
X26606Y15851D01*
X26545Y15817D01*
X26481Y15787D01*
X26415Y15761D01*
X26349Y15739D01*
X26281Y15720D01*
X26212Y15705D01*
X26142Y15694D01*
X26072Y15687D01*
X26002Y15684D01*
X25931Y15685D01*
X25861Y15690D01*
X25791Y15699D01*
X25722Y15712D01*
X25653Y15729D01*
X25586Y15749D01*
X25520Y15774D01*
X25455Y15802D01*
X25392Y15834D01*
X25331Y15869D01*
X25272Y15907D01*
X25216Y15949D01*
X25161Y15994D01*
X25110Y16042D01*
X25061Y16093D01*
X25015Y16147D01*
X24973Y16203D01*
X24933Y16261D01*
X24897Y16322D01*
X24864Y16384D01*
X24835Y16448D01*
X24810Y16514D01*
X24789Y16581D01*
X24771Y16650D01*
X24757Y16719D01*
X24747Y16788D01*
X24741Y16859D01*
X24739Y16929D01*
X21161Y4134D02*
X21163Y4186D01*
X21169Y4238D01*
X21179Y4289D01*
X21192Y4339D01*
X21210Y4389D01*
X21231Y4436D01*
X21255Y4482D01*
X21284Y4526D01*
X21315Y4568D01*
X21349Y4607D01*
X21386Y4644D01*
X21426Y4677D01*
X21469Y4708D01*
X21513Y4735D01*
X21559Y4759D01*
X21608Y4779D01*
X21657Y4795D01*
X21708Y4808D01*
X21759Y4817D01*
X21811Y4822D01*
X21863Y4823D01*
X21915Y4820D01*
X21967Y4813D01*
X22018Y4802D01*
X22068Y4788D01*
X22117Y4769D01*
X22164Y4747D01*
X22209Y4722D01*
X22253Y4693D01*
X22294Y4661D01*
X22333Y4626D01*
X22368Y4588D01*
X22401Y4547D01*
X22431Y4505D01*
X22457Y4460D01*
X22480Y4413D01*
X22499Y4364D01*
X22515Y4314D01*
X22527Y4264D01*
X22535Y4212D01*
X22539Y4160D01*
X22539Y4108D01*
X22535Y4056D01*
X22527Y4004D01*
X22515Y3954D01*
X22499Y3904D01*
X22480Y3855D01*
X22457Y3808D01*
X22431Y3763D01*
X22401Y3721D01*
X22368Y3680D01*
X22333Y3642D01*
X22294Y3607D01*
X22253Y3575D01*
X22209Y3546D01*
X22164Y3521D01*
X22117Y3499D01*
X22068Y3480D01*
X22018Y3466D01*
X21967Y3455D01*
X21915Y3448D01*
X21863Y3445D01*
X21811Y3446D01*
X21759Y3451D01*
X21708Y3460D01*
X21657Y3473D01*
X21608Y3489D01*
X21559Y3509D01*
X21513Y3533D01*
X21469Y3560D01*
X21426Y3591D01*
X21386Y3624D01*
X21349Y3661D01*
X21315Y3700D01*
X21284Y3742D01*
X21255Y3786D01*
X21231Y3832D01*
X21210Y3879D01*
X21192Y3929D01*
X21179Y3979D01*
X21169Y4030D01*
X21163Y4082D01*
X21161Y4134D01*
X33366Y4134D02*
X33368Y4186D01*
X33374Y4238D01*
X33384Y4289D01*
X33397Y4339D01*
X33415Y4389D01*
X33436Y4436D01*
X33460Y4482D01*
X33489Y4526D01*
X33520Y4568D01*
X33554Y4607D01*
X33591Y4644D01*
X33631Y4677D01*
X33674Y4708D01*
X33718Y4735D01*
X33764Y4759D01*
X33813Y4779D01*
X33862Y4795D01*
X33913Y4808D01*
X33964Y4817D01*
X34016Y4822D01*
X34068Y4823D01*
X34120Y4820D01*
X34172Y4813D01*
X34223Y4802D01*
X34273Y4788D01*
X34322Y4769D01*
X34369Y4747D01*
X34414Y4722D01*
X34458Y4693D01*
X34499Y4661D01*
X34538Y4626D01*
X34573Y4588D01*
X34606Y4547D01*
X34636Y4505D01*
X34662Y4460D01*
X34685Y4413D01*
X34704Y4364D01*
X34720Y4314D01*
X34732Y4264D01*
X34740Y4212D01*
X34744Y4160D01*
X34744Y4108D01*
X34740Y4056D01*
X34732Y4004D01*
X34720Y3954D01*
X34704Y3904D01*
X34685Y3855D01*
X34662Y3808D01*
X34636Y3763D01*
X34606Y3721D01*
X34573Y3680D01*
X34538Y3642D01*
X34499Y3607D01*
X34458Y3575D01*
X34414Y3546D01*
X34369Y3521D01*
X34322Y3499D01*
X34273Y3480D01*
X34223Y3466D01*
X34172Y3455D01*
X34120Y3448D01*
X34068Y3445D01*
X34016Y3446D01*
X33964Y3451D01*
X33913Y3460D01*
X33862Y3473D01*
X33813Y3489D01*
X33764Y3509D01*
X33718Y3533D01*
X33674Y3560D01*
X33631Y3591D01*
X33591Y3624D01*
X33554Y3661D01*
X33520Y3700D01*
X33489Y3742D01*
X33460Y3786D01*
X33436Y3832D01*
X33415Y3879D01*
X33397Y3929D01*
X33384Y3979D01*
X33374Y4030D01*
X33368Y4082D01*
X33366Y4134D01*
X33359Y25000D02*
X33361Y25053D01*
X33367Y25105D01*
X33377Y25157D01*
X33391Y25208D01*
X33408Y25257D01*
X33430Y25305D01*
X33454Y25352D01*
X33483Y25396D01*
X33514Y25438D01*
X33549Y25478D01*
X33587Y25515D01*
X33627Y25549D01*
X33670Y25580D01*
X33715Y25607D01*
X33762Y25631D01*
X33810Y25651D01*
X33860Y25668D01*
X33911Y25681D01*
X33963Y25690D01*
X34016Y25695D01*
X34068Y25696D01*
X34121Y25693D01*
X34173Y25686D01*
X34225Y25675D01*
X34275Y25660D01*
X34324Y25642D01*
X34372Y25620D01*
X34418Y25594D01*
X34462Y25565D01*
X34504Y25532D01*
X34542Y25497D01*
X34579Y25458D01*
X34612Y25418D01*
X34642Y25374D01*
X34668Y25329D01*
X34692Y25281D01*
X34711Y25233D01*
X34727Y25182D01*
X34739Y25131D01*
X34747Y25079D01*
X34751Y25026D01*
X34751Y24974D01*
X34747Y24921D01*
X34739Y24869D01*
X34727Y24818D01*
X34711Y24767D01*
X34692Y24719D01*
X34668Y24671D01*
X34642Y24626D01*
X34612Y24582D01*
X34579Y24542D01*
X34542Y24503D01*
X34504Y24468D01*
X34462Y24435D01*
X34418Y24406D01*
X34372Y24380D01*
X34324Y24358D01*
X34275Y24340D01*
X34225Y24325D01*
X34173Y24314D01*
X34121Y24307D01*
X34068Y24304D01*
X34016Y24305D01*
X33963Y24310D01*
X33911Y24319D01*
X33860Y24332D01*
X33810Y24349D01*
X33762Y24369D01*
X33715Y24393D01*
X33670Y24420D01*
X33627Y24451D01*
X33587Y24485D01*
X33549Y24522D01*
X33514Y24562D01*
X33483Y24604D01*
X33454Y24648D01*
X33430Y24695D01*
X33408Y24743D01*
X33391Y24792D01*
X33377Y24843D01*
X33367Y24895D01*
X33361Y24947D01*
X33359Y25000D01*
X21161Y25000D02*
X21163Y25052D01*
X21169Y25104D01*
X21179Y25155D01*
X21192Y25205D01*
X21210Y25255D01*
X21231Y25302D01*
X21255Y25348D01*
X21284Y25392D01*
X21315Y25434D01*
X21349Y25473D01*
X21386Y25510D01*
X21426Y25543D01*
X21469Y25574D01*
X21513Y25601D01*
X21559Y25625D01*
X21608Y25645D01*
X21657Y25661D01*
X21708Y25674D01*
X21759Y25683D01*
X21811Y25688D01*
X21863Y25689D01*
X21915Y25686D01*
X21967Y25679D01*
X22018Y25668D01*
X22068Y25654D01*
X22117Y25635D01*
X22164Y25613D01*
X22209Y25588D01*
X22253Y25559D01*
X22294Y25527D01*
X22333Y25492D01*
X22368Y25454D01*
X22401Y25413D01*
X22431Y25371D01*
X22457Y25326D01*
X22480Y25279D01*
X22499Y25230D01*
X22515Y25180D01*
X22527Y25130D01*
X22535Y25078D01*
X22539Y25026D01*
X22539Y24974D01*
X22535Y24922D01*
X22527Y24870D01*
X22515Y24820D01*
X22499Y24770D01*
X22480Y24721D01*
X22457Y24674D01*
X22431Y24629D01*
X22401Y24587D01*
X22368Y24546D01*
X22333Y24508D01*
X22294Y24473D01*
X22253Y24441D01*
X22209Y24412D01*
X22164Y24387D01*
X22117Y24365D01*
X22068Y24346D01*
X22018Y24332D01*
X21967Y24321D01*
X21915Y24314D01*
X21863Y24311D01*
X21811Y24312D01*
X21759Y24317D01*
X21708Y24326D01*
X21657Y24339D01*
X21608Y24355D01*
X21559Y24375D01*
X21513Y24399D01*
X21469Y24426D01*
X21426Y24457D01*
X21386Y24490D01*
X21349Y24527D01*
X21315Y24566D01*
X21284Y24608D01*
X21255Y24652D01*
X21231Y24698D01*
X21210Y24745D01*
X21192Y24795D01*
X21179Y24845D01*
X21169Y24896D01*
X21163Y24948D01*
X21161Y25000D01*
X23228Y5512D02*
X23228Y2756D01*
X23228Y5512D02*
X20472Y5512D01*
X32677Y5512D02*
X32677Y2756D01*
X32677Y5512D02*
X35433Y5512D01*
X35433Y23622D02*
X32677Y23622D01*
X32677Y26378D01*
X23228Y26378D02*
X23228Y23622D01*
X20472Y23622D01*
X24253Y21967D02*
X24253Y19567D01*
X24253Y9067D02*
X24253Y6667D01*
D11*
X22967Y20395D02*
X22969Y20413D01*
X22974Y20431D01*
X22983Y20447D01*
X22994Y20461D01*
X23008Y20472D01*
X23024Y20481D01*
X23042Y20486D01*
X23060Y20488D01*
X22968Y20395D02*
X22969Y20376D01*
X22974Y20358D01*
X22981Y20341D01*
X22991Y20325D01*
X23003Y20311D01*
X23017Y20299D01*
X23033Y20289D01*
X23050Y20282D01*
X23132Y20456D02*
X23120Y20467D01*
X23106Y20476D01*
X23092Y20482D01*
X23076Y20486D01*
X23060Y20487D01*
X23132Y20457D02*
X23338Y20282D01*
X23338Y20487D01*
X23060Y20848D02*
X23042Y20846D01*
X23024Y20841D01*
X23008Y20832D01*
X22994Y20821D01*
X22983Y20807D01*
X22974Y20791D01*
X22969Y20773D01*
X22967Y20755D01*
X22968Y20755D02*
X22969Y20736D01*
X22974Y20718D01*
X22981Y20701D01*
X22991Y20685D01*
X23003Y20671D01*
X23017Y20659D01*
X23033Y20649D01*
X23050Y20642D01*
X23132Y20816D02*
X23120Y20827D01*
X23106Y20836D01*
X23092Y20842D01*
X23076Y20846D01*
X23060Y20847D01*
X23132Y20817D02*
X23338Y20642D01*
X23338Y20847D01*
X23153Y21002D02*
X23118Y21004D01*
X23084Y21010D01*
X23051Y21019D01*
X23019Y21033D01*
X23005Y21040D01*
X22993Y21049D01*
X22982Y21061D01*
X22974Y21074D01*
X22970Y21089D01*
X22968Y21105D01*
X22970Y21121D01*
X22974Y21136D01*
X22982Y21149D01*
X22993Y21161D01*
X23005Y21170D01*
X23019Y21177D01*
X23051Y21191D01*
X23084Y21200D01*
X23118Y21206D01*
X23153Y21208D01*
X23153Y21002D02*
X23188Y21004D01*
X23222Y21010D01*
X23255Y21019D01*
X23287Y21033D01*
X23301Y21040D01*
X23313Y21049D01*
X23324Y21061D01*
X23332Y21074D01*
X23336Y21089D01*
X23338Y21105D01*
X23287Y21177D02*
X23255Y21191D01*
X23222Y21200D01*
X23188Y21206D01*
X23153Y21208D01*
X23287Y21177D02*
X23301Y21170D01*
X23313Y21161D01*
X23324Y21149D01*
X23332Y21136D01*
X23336Y21121D01*
X23338Y21105D01*
X23256Y21022D02*
X23050Y21187D01*
X22968Y7485D02*
X23050Y7382D01*
X22968Y7485D02*
X23338Y7485D01*
X23338Y7587D02*
X23338Y7382D01*
X23153Y7742D02*
X23118Y7744D01*
X23084Y7750D01*
X23051Y7759D01*
X23019Y7773D01*
X23005Y7780D01*
X22993Y7789D01*
X22982Y7801D01*
X22974Y7814D01*
X22970Y7829D01*
X22968Y7845D01*
X22970Y7861D01*
X22974Y7876D01*
X22982Y7889D01*
X22993Y7901D01*
X23005Y7910D01*
X23019Y7917D01*
X23051Y7931D01*
X23084Y7940D01*
X23118Y7946D01*
X23153Y7948D01*
X23153Y7742D02*
X23188Y7744D01*
X23222Y7750D01*
X23255Y7759D01*
X23287Y7773D01*
X23301Y7780D01*
X23313Y7789D01*
X23324Y7801D01*
X23332Y7814D01*
X23336Y7829D01*
X23338Y7845D01*
X23287Y7917D02*
X23255Y7931D01*
X23222Y7940D01*
X23188Y7946D01*
X23153Y7948D01*
X23287Y7917D02*
X23301Y7910D01*
X23313Y7901D01*
X23324Y7889D01*
X23332Y7876D01*
X23336Y7861D01*
X23338Y7845D01*
X23256Y7762D02*
X23050Y7927D01*
X23153Y8102D02*
X23118Y8104D01*
X23084Y8110D01*
X23051Y8119D01*
X23019Y8133D01*
X23005Y8140D01*
X22993Y8149D01*
X22982Y8161D01*
X22974Y8174D01*
X22970Y8189D01*
X22968Y8205D01*
X22970Y8221D01*
X22974Y8236D01*
X22982Y8249D01*
X22993Y8261D01*
X23005Y8270D01*
X23019Y8277D01*
X23051Y8291D01*
X23084Y8300D01*
X23118Y8306D01*
X23153Y8308D01*
X23153Y8102D02*
X23188Y8104D01*
X23222Y8110D01*
X23255Y8119D01*
X23287Y8133D01*
X23301Y8140D01*
X23313Y8149D01*
X23324Y8161D01*
X23332Y8174D01*
X23336Y8189D01*
X23338Y8205D01*
X23287Y8277D02*
X23255Y8291D01*
X23222Y8300D01*
X23188Y8306D01*
X23153Y8308D01*
X23287Y8277D02*
X23301Y8270D01*
X23313Y8261D01*
X23324Y8249D01*
X23332Y8236D01*
X23336Y8221D01*
X23338Y8205D01*
X23256Y8122D02*
X23050Y8287D01*
D10*
X32512Y6967D02*
X32514Y6990D01*
X32520Y7013D01*
X32529Y7034D01*
X32542Y7054D01*
X32558Y7071D01*
X32576Y7085D01*
X32596Y7096D01*
X32618Y7104D01*
X32641Y7108D01*
X32665Y7108D01*
X32688Y7104D01*
X32710Y7096D01*
X32730Y7085D01*
X32748Y7071D01*
X32764Y7054D01*
X32777Y7034D01*
X32786Y7013D01*
X32792Y6990D01*
X32794Y6967D01*
X32792Y6944D01*
X32786Y6921D01*
X32777Y6900D01*
X32764Y6880D01*
X32748Y6863D01*
X32730Y6849D01*
X32710Y6838D01*
X32688Y6830D01*
X32665Y6826D01*
X32641Y6826D01*
X32618Y6830D01*
X32596Y6838D01*
X32576Y6849D01*
X32558Y6863D01*
X32542Y6880D01*
X32529Y6900D01*
X32520Y6921D01*
X32514Y6944D01*
X32512Y6967D01*
X32512Y8767D02*
X32514Y8790D01*
X32520Y8813D01*
X32529Y8834D01*
X32542Y8854D01*
X32558Y8871D01*
X32576Y8885D01*
X32596Y8896D01*
X32618Y8904D01*
X32641Y8908D01*
X32665Y8908D01*
X32688Y8904D01*
X32710Y8896D01*
X32730Y8885D01*
X32748Y8871D01*
X32764Y8854D01*
X32777Y8834D01*
X32786Y8813D01*
X32792Y8790D01*
X32794Y8767D01*
X32792Y8744D01*
X32786Y8721D01*
X32777Y8700D01*
X32764Y8680D01*
X32748Y8663D01*
X32730Y8649D01*
X32710Y8638D01*
X32688Y8630D01*
X32665Y8626D01*
X32641Y8626D01*
X32618Y8630D01*
X32596Y8638D01*
X32576Y8649D01*
X32558Y8663D01*
X32542Y8680D01*
X32529Y8700D01*
X32520Y8721D01*
X32514Y8744D01*
X32512Y8767D01*
X34212Y6967D02*
X34214Y6990D01*
X34220Y7013D01*
X34229Y7034D01*
X34242Y7054D01*
X34258Y7071D01*
X34276Y7085D01*
X34296Y7096D01*
X34318Y7104D01*
X34341Y7108D01*
X34365Y7108D01*
X34388Y7104D01*
X34410Y7096D01*
X34430Y7085D01*
X34448Y7071D01*
X34464Y7054D01*
X34477Y7034D01*
X34486Y7013D01*
X34492Y6990D01*
X34494Y6967D01*
X34492Y6944D01*
X34486Y6921D01*
X34477Y6900D01*
X34464Y6880D01*
X34448Y6863D01*
X34430Y6849D01*
X34410Y6838D01*
X34388Y6830D01*
X34365Y6826D01*
X34341Y6826D01*
X34318Y6830D01*
X34296Y6838D01*
X34276Y6849D01*
X34258Y6863D01*
X34242Y6880D01*
X34229Y6900D01*
X34220Y6921D01*
X34214Y6944D01*
X34212Y6967D01*
X34212Y8767D02*
X34214Y8790D01*
X34220Y8813D01*
X34229Y8834D01*
X34242Y8854D01*
X34258Y8871D01*
X34276Y8885D01*
X34296Y8896D01*
X34318Y8904D01*
X34341Y8908D01*
X34365Y8908D01*
X34388Y8904D01*
X34410Y8896D01*
X34430Y8885D01*
X34448Y8871D01*
X34464Y8854D01*
X34477Y8834D01*
X34486Y8813D01*
X34492Y8790D01*
X34494Y8767D01*
X34492Y8744D01*
X34486Y8721D01*
X34477Y8700D01*
X34464Y8680D01*
X34448Y8663D01*
X34430Y8649D01*
X34410Y8638D01*
X34388Y8630D01*
X34365Y8626D01*
X34341Y8626D01*
X34318Y8630D01*
X34296Y8638D01*
X34276Y8649D01*
X34258Y8663D01*
X34242Y8680D01*
X34229Y8700D01*
X34220Y8721D01*
X34214Y8744D01*
X34212Y8767D01*
X34212Y20367D02*
X34214Y20390D01*
X34220Y20413D01*
X34229Y20434D01*
X34242Y20454D01*
X34258Y20471D01*
X34276Y20485D01*
X34296Y20496D01*
X34318Y20504D01*
X34341Y20508D01*
X34365Y20508D01*
X34388Y20504D01*
X34410Y20496D01*
X34430Y20485D01*
X34448Y20471D01*
X34464Y20454D01*
X34477Y20434D01*
X34486Y20413D01*
X34492Y20390D01*
X34494Y20367D01*
X34492Y20344D01*
X34486Y20321D01*
X34477Y20300D01*
X34464Y20280D01*
X34448Y20263D01*
X34430Y20249D01*
X34410Y20238D01*
X34388Y20230D01*
X34365Y20226D01*
X34341Y20226D01*
X34318Y20230D01*
X34296Y20238D01*
X34276Y20249D01*
X34258Y20263D01*
X34242Y20280D01*
X34229Y20300D01*
X34220Y20321D01*
X34214Y20344D01*
X34212Y20367D01*
X32412Y20367D02*
X32414Y20390D01*
X32420Y20413D01*
X32429Y20434D01*
X32442Y20454D01*
X32458Y20471D01*
X32476Y20485D01*
X32496Y20496D01*
X32518Y20504D01*
X32541Y20508D01*
X32565Y20508D01*
X32588Y20504D01*
X32610Y20496D01*
X32630Y20485D01*
X32648Y20471D01*
X32664Y20454D01*
X32677Y20434D01*
X32686Y20413D01*
X32692Y20390D01*
X32694Y20367D01*
X32692Y20344D01*
X32686Y20321D01*
X32677Y20300D01*
X32664Y20280D01*
X32648Y20263D01*
X32630Y20249D01*
X32610Y20238D01*
X32588Y20230D01*
X32565Y20226D01*
X32541Y20226D01*
X32518Y20230D01*
X32496Y20238D01*
X32476Y20249D01*
X32458Y20263D01*
X32442Y20280D01*
X32429Y20300D01*
X32420Y20321D01*
X32414Y20344D01*
X32412Y20367D01*
X32412Y22167D02*
X32414Y22190D01*
X32420Y22213D01*
X32429Y22234D01*
X32442Y22254D01*
X32458Y22271D01*
X32476Y22285D01*
X32496Y22296D01*
X32518Y22304D01*
X32541Y22308D01*
X32565Y22308D01*
X32588Y22304D01*
X32610Y22296D01*
X32630Y22285D01*
X32648Y22271D01*
X32664Y22254D01*
X32677Y22234D01*
X32686Y22213D01*
X32692Y22190D01*
X32694Y22167D01*
X32692Y22144D01*
X32686Y22121D01*
X32677Y22100D01*
X32664Y22080D01*
X32648Y22063D01*
X32630Y22049D01*
X32610Y22038D01*
X32588Y22030D01*
X32565Y22026D01*
X32541Y22026D01*
X32518Y22030D01*
X32496Y22038D01*
X32476Y22049D01*
X32458Y22063D01*
X32442Y22080D01*
X32429Y22100D01*
X32420Y22121D01*
X32414Y22144D01*
X32412Y22167D01*
X34212Y22167D02*
X34214Y22190D01*
X34220Y22213D01*
X34229Y22234D01*
X34242Y22254D01*
X34258Y22271D01*
X34276Y22285D01*
X34296Y22296D01*
X34318Y22304D01*
X34341Y22308D01*
X34365Y22308D01*
X34388Y22304D01*
X34410Y22296D01*
X34430Y22285D01*
X34448Y22271D01*
X34464Y22254D01*
X34477Y22234D01*
X34486Y22213D01*
X34492Y22190D01*
X34494Y22167D01*
X34492Y22144D01*
X34486Y22121D01*
X34477Y22100D01*
X34464Y22080D01*
X34448Y22063D01*
X34430Y22049D01*
X34410Y22038D01*
X34388Y22030D01*
X34365Y22026D01*
X34341Y22026D01*
X34318Y22030D01*
X34296Y22038D01*
X34276Y22049D01*
X34258Y22063D01*
X34242Y22080D01*
X34229Y22100D01*
X34220Y22121D01*
X34214Y22144D01*
X34212Y22167D01*
D12*
X32753Y11167D02*
X34153Y10967D01*
X32553Y11267D02*
X32553Y12667D01*
X34353Y12467D02*
X34353Y11067D01*
X34153Y12567D02*
X32753Y12767D01*
X32353Y12867D02*
X30953Y13067D01*
X30953Y11467D02*
X32353Y11267D01*
X30753Y11567D02*
X30753Y12967D01*
X32753Y13967D02*
X34153Y13767D01*
X32553Y14067D02*
X32553Y15467D01*
X34353Y15267D02*
X34353Y13867D01*
X34153Y15367D02*
X32753Y15567D01*
X32353Y15667D02*
X30953Y15867D01*
X30953Y14267D02*
X32353Y14067D01*
X30753Y14367D02*
X30753Y15767D01*
X32753Y16667D02*
X34153Y16467D01*
X32553Y16767D02*
X32553Y18167D01*
X34353Y17967D02*
X34353Y16567D01*
X34153Y18067D02*
X32753Y18267D01*
X32353Y18367D02*
X30953Y18567D01*
X30953Y16967D02*
X32353Y16767D01*
X30753Y17067D02*
X30753Y18467D01*
D13*
X30688Y4683D02*
X31418Y4683D01*
X31418Y4602D02*
X31418Y4764D01*
X30688Y4764D02*
X30688Y4602D01*
X30688Y5054D02*
X31418Y5054D01*
X31418Y5459D02*
X30688Y5054D01*
X30688Y5459D02*
X31418Y5459D01*
X31134Y5770D02*
X31134Y6257D01*
X25418Y4683D02*
X24688Y4683D01*
X25418Y4602D02*
X25418Y4764D01*
X24688Y4764D02*
X24688Y4602D01*
X24688Y5054D02*
X25418Y5054D01*
X25418Y5459D02*
X24688Y5054D01*
X24688Y5459D02*
X25418Y5459D01*
X25134Y5770D02*
X25134Y6257D01*
X25377Y6013D02*
X24891Y6013D01*
X24891Y22102D02*
X25215Y22102D01*
X24891Y22102D02*
X24863Y22104D01*
X24836Y22110D01*
X24810Y22119D01*
X24786Y22132D01*
X24763Y22148D01*
X24743Y22166D01*
X24725Y22188D01*
X24711Y22212D01*
X24700Y22237D01*
X24692Y22264D01*
X24688Y22291D01*
X24688Y22319D01*
X24692Y22346D01*
X24700Y22373D01*
X24711Y22398D01*
X24725Y22422D01*
X24743Y22444D01*
X24763Y22462D01*
X24786Y22478D01*
X24810Y22491D01*
X24836Y22500D01*
X24863Y22506D01*
X24891Y22508D01*
X24891Y22507D02*
X25215Y22507D01*
X25215Y22508D02*
X25243Y22506D01*
X25270Y22500D01*
X25296Y22491D01*
X25320Y22478D01*
X25343Y22462D01*
X25363Y22444D01*
X25381Y22422D01*
X25395Y22398D01*
X25406Y22373D01*
X25414Y22346D01*
X25418Y22319D01*
X25418Y22291D01*
X25414Y22264D01*
X25406Y22237D01*
X25395Y22212D01*
X25381Y22188D01*
X25363Y22166D01*
X25343Y22148D01*
X25320Y22132D01*
X25296Y22119D01*
X25270Y22110D01*
X25243Y22104D01*
X25215Y22102D01*
X25215Y22813D02*
X24688Y22813D01*
X25215Y22813D02*
X25243Y22815D01*
X25270Y22821D01*
X25296Y22830D01*
X25320Y22843D01*
X25343Y22859D01*
X25363Y22877D01*
X25381Y22899D01*
X25395Y22923D01*
X25406Y22948D01*
X25414Y22975D01*
X25418Y23002D01*
X25418Y23030D01*
X25414Y23057D01*
X25406Y23084D01*
X25395Y23109D01*
X25381Y23133D01*
X25363Y23155D01*
X25343Y23173D01*
X25320Y23189D01*
X25296Y23202D01*
X25270Y23211D01*
X25243Y23217D01*
X25215Y23219D01*
X25215Y23218D02*
X24688Y23218D01*
X24688Y23681D02*
X25418Y23681D01*
X24688Y23478D02*
X24688Y23884D01*
X25134Y24126D02*
X25134Y24612D01*
X25377Y24369D02*
X24891Y24369D01*
X30891Y22102D02*
X31215Y22102D01*
X30891Y22102D02*
X30863Y22104D01*
X30836Y22110D01*
X30810Y22119D01*
X30786Y22132D01*
X30763Y22148D01*
X30743Y22166D01*
X30725Y22188D01*
X30711Y22212D01*
X30700Y22237D01*
X30692Y22264D01*
X30688Y22291D01*
X30688Y22319D01*
X30692Y22346D01*
X30700Y22373D01*
X30711Y22398D01*
X30725Y22422D01*
X30743Y22444D01*
X30763Y22462D01*
X30786Y22478D01*
X30810Y22491D01*
X30836Y22500D01*
X30863Y22506D01*
X30891Y22508D01*
X30891Y22507D02*
X31215Y22507D01*
X31215Y22508D02*
X31243Y22506D01*
X31270Y22500D01*
X31296Y22491D01*
X31320Y22478D01*
X31343Y22462D01*
X31363Y22444D01*
X31381Y22422D01*
X31395Y22398D01*
X31406Y22373D01*
X31414Y22346D01*
X31418Y22319D01*
X31418Y22291D01*
X31414Y22264D01*
X31406Y22237D01*
X31395Y22212D01*
X31381Y22188D01*
X31363Y22166D01*
X31343Y22148D01*
X31320Y22132D01*
X31296Y22119D01*
X31270Y22110D01*
X31243Y22104D01*
X31215Y22102D01*
X31215Y22813D02*
X30688Y22813D01*
X31215Y22813D02*
X31243Y22815D01*
X31270Y22821D01*
X31296Y22830D01*
X31320Y22843D01*
X31343Y22859D01*
X31363Y22877D01*
X31381Y22899D01*
X31395Y22923D01*
X31406Y22948D01*
X31414Y22975D01*
X31418Y23002D01*
X31418Y23030D01*
X31414Y23057D01*
X31406Y23084D01*
X31395Y23109D01*
X31381Y23133D01*
X31363Y23155D01*
X31343Y23173D01*
X31320Y23189D01*
X31296Y23202D01*
X31270Y23211D01*
X31243Y23217D01*
X31215Y23219D01*
X31215Y23218D02*
X30688Y23218D01*
X30688Y23681D02*
X31418Y23681D01*
X30688Y23478D02*
X30688Y23884D01*
X31134Y24126D02*
X31134Y24612D01*
D10*
X29921Y3150D02*
X29921Y2756D01*
X29921Y3150D02*
X29921Y5512D01*
X29921Y5906D01*
X25984Y5906D01*
X25984Y5512D01*
X25984Y3150D01*
X25984Y2756D01*
X29921Y25984D02*
X29921Y26378D01*
X29921Y25984D02*
X29921Y23622D01*
X29921Y23228D01*
X25984Y23228D01*
X25984Y23622D01*
X28150Y4331D02*
X28152Y4387D01*
X28158Y4442D01*
X28168Y4496D01*
X28181Y4550D01*
X28199Y4603D01*
X28220Y4654D01*
X28244Y4704D01*
X28272Y4752D01*
X28304Y4798D01*
X28338Y4842D01*
X28376Y4883D01*
X28416Y4921D01*
X28459Y4956D01*
X28504Y4988D01*
X28552Y5017D01*
X28601Y5043D01*
X28652Y5065D01*
X28704Y5083D01*
X28758Y5097D01*
X28813Y5108D01*
X28868Y5115D01*
X28923Y5118D01*
X28979Y5117D01*
X29034Y5112D01*
X29089Y5103D01*
X29143Y5091D01*
X29196Y5074D01*
X29248Y5054D01*
X29298Y5030D01*
X29346Y5003D01*
X29393Y4973D01*
X29437Y4939D01*
X29479Y4902D01*
X29517Y4862D01*
X29554Y4820D01*
X29587Y4775D01*
X29616Y4729D01*
X29643Y4680D01*
X29665Y4629D01*
X29685Y4577D01*
X29700Y4523D01*
X29712Y4469D01*
X29720Y4414D01*
X29724Y4359D01*
X29724Y4303D01*
X29720Y4248D01*
X29712Y4193D01*
X29700Y4139D01*
X29685Y4085D01*
X29665Y4033D01*
X29643Y3982D01*
X29616Y3933D01*
X29587Y3887D01*
X29554Y3842D01*
X29517Y3800D01*
X29479Y3760D01*
X29437Y3723D01*
X29393Y3689D01*
X29346Y3659D01*
X29298Y3632D01*
X29248Y3608D01*
X29196Y3588D01*
X29143Y3571D01*
X29089Y3559D01*
X29034Y3550D01*
X28979Y3545D01*
X28923Y3544D01*
X28868Y3547D01*
X28813Y3554D01*
X28758Y3565D01*
X28704Y3579D01*
X28652Y3597D01*
X28601Y3619D01*
X28552Y3645D01*
X28504Y3674D01*
X28459Y3706D01*
X28416Y3741D01*
X28376Y3779D01*
X28338Y3820D01*
X28304Y3864D01*
X28272Y3910D01*
X28244Y3958D01*
X28220Y4008D01*
X28199Y4059D01*
X28181Y4112D01*
X28168Y4166D01*
X28158Y4220D01*
X28152Y4275D01*
X28150Y4331D01*
X26182Y4331D02*
X26184Y4387D01*
X26190Y4442D01*
X26200Y4496D01*
X26213Y4550D01*
X26231Y4603D01*
X26252Y4654D01*
X26276Y4704D01*
X26304Y4752D01*
X26336Y4798D01*
X26370Y4842D01*
X26408Y4883D01*
X26448Y4921D01*
X26491Y4956D01*
X26536Y4988D01*
X26584Y5017D01*
X26633Y5043D01*
X26684Y5065D01*
X26736Y5083D01*
X26790Y5097D01*
X26845Y5108D01*
X26900Y5115D01*
X26955Y5118D01*
X27011Y5117D01*
X27066Y5112D01*
X27121Y5103D01*
X27175Y5091D01*
X27228Y5074D01*
X27280Y5054D01*
X27330Y5030D01*
X27378Y5003D01*
X27425Y4973D01*
X27469Y4939D01*
X27511Y4902D01*
X27549Y4862D01*
X27586Y4820D01*
X27619Y4775D01*
X27648Y4729D01*
X27675Y4680D01*
X27697Y4629D01*
X27717Y4577D01*
X27732Y4523D01*
X27744Y4469D01*
X27752Y4414D01*
X27756Y4359D01*
X27756Y4303D01*
X27752Y4248D01*
X27744Y4193D01*
X27732Y4139D01*
X27717Y4085D01*
X27697Y4033D01*
X27675Y3982D01*
X27648Y3933D01*
X27619Y3887D01*
X27586Y3842D01*
X27549Y3800D01*
X27511Y3760D01*
X27469Y3723D01*
X27425Y3689D01*
X27378Y3659D01*
X27330Y3632D01*
X27280Y3608D01*
X27228Y3588D01*
X27175Y3571D01*
X27121Y3559D01*
X27066Y3550D01*
X27011Y3545D01*
X26955Y3544D01*
X26900Y3547D01*
X26845Y3554D01*
X26790Y3565D01*
X26736Y3579D01*
X26684Y3597D01*
X26633Y3619D01*
X26584Y3645D01*
X26536Y3674D01*
X26491Y3706D01*
X26448Y3741D01*
X26408Y3779D01*
X26370Y3820D01*
X26336Y3864D01*
X26304Y3910D01*
X26276Y3958D01*
X26252Y4008D01*
X26231Y4059D01*
X26213Y4112D01*
X26200Y4166D01*
X26190Y4220D01*
X26184Y4275D01*
X26182Y4331D01*
X25984Y23622D02*
X25984Y25984D01*
X25984Y26378D01*
X25984Y3150D02*
X29921Y3150D01*
X29921Y5512D02*
X25984Y5512D01*
D14*
X28543Y3937D02*
X29331Y4724D01*
X29331Y3937D02*
X28543Y4724D01*
X27362Y3937D02*
X26575Y4724D01*
X26575Y3937D02*
X27362Y4724D01*
D10*
X28150Y24803D02*
X28152Y24859D01*
X28158Y24914D01*
X28168Y24968D01*
X28181Y25022D01*
X28199Y25075D01*
X28220Y25126D01*
X28244Y25176D01*
X28272Y25224D01*
X28304Y25270D01*
X28338Y25314D01*
X28376Y25355D01*
X28416Y25393D01*
X28459Y25428D01*
X28504Y25460D01*
X28552Y25489D01*
X28601Y25515D01*
X28652Y25537D01*
X28704Y25555D01*
X28758Y25569D01*
X28813Y25580D01*
X28868Y25587D01*
X28923Y25590D01*
X28979Y25589D01*
X29034Y25584D01*
X29089Y25575D01*
X29143Y25563D01*
X29196Y25546D01*
X29248Y25526D01*
X29298Y25502D01*
X29346Y25475D01*
X29393Y25445D01*
X29437Y25411D01*
X29479Y25374D01*
X29517Y25334D01*
X29554Y25292D01*
X29587Y25247D01*
X29616Y25201D01*
X29643Y25152D01*
X29665Y25101D01*
X29685Y25049D01*
X29700Y24995D01*
X29712Y24941D01*
X29720Y24886D01*
X29724Y24831D01*
X29724Y24775D01*
X29720Y24720D01*
X29712Y24665D01*
X29700Y24611D01*
X29685Y24557D01*
X29665Y24505D01*
X29643Y24454D01*
X29616Y24405D01*
X29587Y24359D01*
X29554Y24314D01*
X29517Y24272D01*
X29479Y24232D01*
X29437Y24195D01*
X29393Y24161D01*
X29346Y24131D01*
X29298Y24104D01*
X29248Y24080D01*
X29196Y24060D01*
X29143Y24043D01*
X29089Y24031D01*
X29034Y24022D01*
X28979Y24017D01*
X28923Y24016D01*
X28868Y24019D01*
X28813Y24026D01*
X28758Y24037D01*
X28704Y24051D01*
X28652Y24069D01*
X28601Y24091D01*
X28552Y24117D01*
X28504Y24146D01*
X28459Y24178D01*
X28416Y24213D01*
X28376Y24251D01*
X28338Y24292D01*
X28304Y24336D01*
X28272Y24382D01*
X28244Y24430D01*
X28220Y24480D01*
X28199Y24531D01*
X28181Y24584D01*
X28168Y24638D01*
X28158Y24692D01*
X28152Y24747D01*
X28150Y24803D01*
X26182Y24803D02*
X26184Y24859D01*
X26190Y24914D01*
X26200Y24968D01*
X26213Y25022D01*
X26231Y25075D01*
X26252Y25126D01*
X26276Y25176D01*
X26304Y25224D01*
X26336Y25270D01*
X26370Y25314D01*
X26408Y25355D01*
X26448Y25393D01*
X26491Y25428D01*
X26536Y25460D01*
X26584Y25489D01*
X26633Y25515D01*
X26684Y25537D01*
X26736Y25555D01*
X26790Y25569D01*
X26845Y25580D01*
X26900Y25587D01*
X26955Y25590D01*
X27011Y25589D01*
X27066Y25584D01*
X27121Y25575D01*
X27175Y25563D01*
X27228Y25546D01*
X27280Y25526D01*
X27330Y25502D01*
X27378Y25475D01*
X27425Y25445D01*
X27469Y25411D01*
X27511Y25374D01*
X27549Y25334D01*
X27586Y25292D01*
X27619Y25247D01*
X27648Y25201D01*
X27675Y25152D01*
X27697Y25101D01*
X27717Y25049D01*
X27732Y24995D01*
X27744Y24941D01*
X27752Y24886D01*
X27756Y24831D01*
X27756Y24775D01*
X27752Y24720D01*
X27744Y24665D01*
X27732Y24611D01*
X27717Y24557D01*
X27697Y24505D01*
X27675Y24454D01*
X27648Y24405D01*
X27619Y24359D01*
X27586Y24314D01*
X27549Y24272D01*
X27511Y24232D01*
X27469Y24195D01*
X27425Y24161D01*
X27378Y24131D01*
X27330Y24104D01*
X27280Y24080D01*
X27228Y24060D01*
X27175Y24043D01*
X27121Y24031D01*
X27066Y24022D01*
X27011Y24017D01*
X26955Y24016D01*
X26900Y24019D01*
X26845Y24026D01*
X26790Y24037D01*
X26736Y24051D01*
X26684Y24069D01*
X26633Y24091D01*
X26584Y24117D01*
X26536Y24146D01*
X26491Y24178D01*
X26448Y24213D01*
X26408Y24251D01*
X26370Y24292D01*
X26336Y24336D01*
X26304Y24382D01*
X26276Y24430D01*
X26252Y24480D01*
X26231Y24531D01*
X26213Y24584D01*
X26200Y24638D01*
X26190Y24692D01*
X26184Y24747D01*
X26182Y24803D01*
D14*
X28543Y24409D02*
X29331Y25197D01*
X29331Y24409D02*
X28543Y25197D01*
X27362Y24409D02*
X26575Y25197D01*
X27362Y25197D02*
X26575Y24409D01*
D10*
X25984Y23622D02*
X29921Y23622D01*
X29921Y25984D02*
X25984Y25984D01*
X39252Y5512D02*
X39252Y2756D01*
X39252Y5512D02*
X39252Y23622D01*
X39252Y26378D01*
X42008Y26378D01*
X44764Y26378D01*
X48701Y26378D01*
X51457Y26378D01*
X54213Y26378D01*
X54213Y23622D01*
X54213Y5512D01*
X54213Y2756D01*
X51457Y2756D01*
X48701Y2756D01*
X44764Y2756D01*
X42008Y2756D01*
X39252Y2756D01*
X53819Y10236D02*
X53819Y19291D01*
X48701Y19291D01*
X48701Y10236D01*
X53819Y10236D01*
X53425Y9055D02*
X53425Y6693D01*
X53425Y9055D02*
X51063Y9055D01*
X51063Y6693D01*
X53425Y6693D01*
X51457Y7874D02*
X51459Y7930D01*
X51465Y7985D01*
X51475Y8039D01*
X51488Y8093D01*
X51506Y8146D01*
X51527Y8197D01*
X51551Y8247D01*
X51579Y8295D01*
X51611Y8341D01*
X51645Y8385D01*
X51683Y8426D01*
X51723Y8464D01*
X51766Y8499D01*
X51811Y8531D01*
X51859Y8560D01*
X51908Y8586D01*
X51959Y8608D01*
X52011Y8626D01*
X52065Y8640D01*
X52120Y8651D01*
X52175Y8658D01*
X52230Y8661D01*
X52286Y8660D01*
X52341Y8655D01*
X52396Y8646D01*
X52450Y8634D01*
X52503Y8617D01*
X52555Y8597D01*
X52605Y8573D01*
X52653Y8546D01*
X52700Y8516D01*
X52744Y8482D01*
X52786Y8445D01*
X52824Y8405D01*
X52861Y8363D01*
X52894Y8318D01*
X52923Y8272D01*
X52950Y8223D01*
X52972Y8172D01*
X52992Y8120D01*
X53007Y8066D01*
X53019Y8012D01*
X53027Y7957D01*
X53031Y7902D01*
X53031Y7846D01*
X53027Y7791D01*
X53019Y7736D01*
X53007Y7682D01*
X52992Y7628D01*
X52972Y7576D01*
X52950Y7525D01*
X52923Y7476D01*
X52894Y7430D01*
X52861Y7385D01*
X52824Y7343D01*
X52786Y7303D01*
X52744Y7266D01*
X52700Y7232D01*
X52653Y7202D01*
X52605Y7175D01*
X52555Y7151D01*
X52503Y7131D01*
X52450Y7114D01*
X52396Y7102D01*
X52341Y7093D01*
X52286Y7088D01*
X52230Y7087D01*
X52175Y7090D01*
X52120Y7097D01*
X52065Y7108D01*
X52011Y7122D01*
X51959Y7140D01*
X51908Y7162D01*
X51859Y7188D01*
X51811Y7217D01*
X51766Y7249D01*
X51723Y7284D01*
X51683Y7322D01*
X51645Y7363D01*
X51611Y7407D01*
X51579Y7453D01*
X51551Y7501D01*
X51527Y7551D01*
X51506Y7602D01*
X51488Y7655D01*
X51475Y7709D01*
X51465Y7763D01*
X51459Y7818D01*
X51457Y7874D01*
X53425Y20079D02*
X53425Y22441D01*
X53425Y20079D02*
X51063Y20079D01*
X51063Y22441D01*
X53425Y22441D01*
X51457Y21260D02*
X51459Y21316D01*
X51465Y21371D01*
X51475Y21425D01*
X51488Y21479D01*
X51506Y21532D01*
X51527Y21583D01*
X51551Y21633D01*
X51579Y21681D01*
X51611Y21727D01*
X51645Y21771D01*
X51683Y21812D01*
X51723Y21850D01*
X51766Y21885D01*
X51811Y21917D01*
X51859Y21946D01*
X51908Y21972D01*
X51959Y21994D01*
X52011Y22012D01*
X52065Y22026D01*
X52120Y22037D01*
X52175Y22044D01*
X52230Y22047D01*
X52286Y22046D01*
X52341Y22041D01*
X52396Y22032D01*
X52450Y22020D01*
X52503Y22003D01*
X52555Y21983D01*
X52605Y21959D01*
X52653Y21932D01*
X52700Y21902D01*
X52744Y21868D01*
X52786Y21831D01*
X52824Y21791D01*
X52861Y21749D01*
X52894Y21704D01*
X52923Y21658D01*
X52950Y21609D01*
X52972Y21558D01*
X52992Y21506D01*
X53007Y21452D01*
X53019Y21398D01*
X53027Y21343D01*
X53031Y21288D01*
X53031Y21232D01*
X53027Y21177D01*
X53019Y21122D01*
X53007Y21068D01*
X52992Y21014D01*
X52972Y20962D01*
X52950Y20911D01*
X52923Y20862D01*
X52894Y20816D01*
X52861Y20771D01*
X52824Y20729D01*
X52786Y20689D01*
X52744Y20652D01*
X52700Y20618D01*
X52653Y20588D01*
X52605Y20561D01*
X52555Y20537D01*
X52503Y20517D01*
X52450Y20500D01*
X52396Y20488D01*
X52341Y20479D01*
X52286Y20474D01*
X52230Y20473D01*
X52175Y20476D01*
X52120Y20483D01*
X52065Y20494D01*
X52011Y20508D01*
X51959Y20526D01*
X51908Y20548D01*
X51859Y20574D01*
X51811Y20603D01*
X51766Y20635D01*
X51723Y20670D01*
X51683Y20708D01*
X51645Y20749D01*
X51611Y20793D01*
X51579Y20839D01*
X51551Y20887D01*
X51527Y20937D01*
X51506Y20988D01*
X51488Y21041D01*
X51475Y21095D01*
X51465Y21149D01*
X51459Y21204D01*
X51457Y21260D01*
X47520Y14173D02*
X47520Y10236D01*
X47520Y14173D02*
X41614Y14173D01*
X41614Y10236D01*
X47520Y10236D01*
X42537Y16929D02*
X42539Y17023D01*
X42545Y17117D01*
X42555Y17210D01*
X42569Y17303D01*
X42586Y17395D01*
X42608Y17486D01*
X42633Y17577D01*
X42663Y17666D01*
X42695Y17754D01*
X42732Y17841D01*
X42772Y17925D01*
X42816Y18008D01*
X42863Y18090D01*
X42914Y18169D01*
X42968Y18246D01*
X43025Y18320D01*
X43085Y18392D01*
X43148Y18462D01*
X43214Y18528D01*
X43283Y18592D01*
X43355Y18653D01*
X43429Y18711D01*
X43505Y18766D01*
X43583Y18817D01*
X43664Y18865D01*
X43747Y18910D01*
X43831Y18951D01*
X43917Y18989D01*
X44005Y19023D01*
X44094Y19053D01*
X44184Y19079D01*
X44275Y19102D01*
X44367Y19120D01*
X44460Y19135D01*
X44553Y19146D01*
X44647Y19153D01*
X44741Y19156D01*
X44834Y19155D01*
X44928Y19150D01*
X45022Y19141D01*
X45115Y19128D01*
X45207Y19111D01*
X45299Y19091D01*
X45389Y19066D01*
X45479Y19038D01*
X45567Y19006D01*
X45654Y18970D01*
X45739Y18931D01*
X45823Y18888D01*
X45904Y18842D01*
X45984Y18792D01*
X46062Y18739D01*
X46137Y18683D01*
X46209Y18623D01*
X46280Y18561D01*
X46347Y18495D01*
X46412Y18427D01*
X46473Y18356D01*
X46532Y18283D01*
X46588Y18207D01*
X46640Y18129D01*
X46689Y18049D01*
X46734Y17967D01*
X46776Y17883D01*
X46815Y17797D01*
X46849Y17710D01*
X46881Y17622D01*
X46908Y17532D01*
X46931Y17441D01*
X46951Y17349D01*
X46967Y17256D01*
X46979Y17163D01*
X46987Y17070D01*
X46991Y16976D01*
X46991Y16882D01*
X46987Y16788D01*
X46979Y16695D01*
X46967Y16602D01*
X46951Y16509D01*
X46931Y16417D01*
X46908Y16326D01*
X46881Y16236D01*
X46849Y16148D01*
X46815Y16061D01*
X46776Y15975D01*
X46734Y15891D01*
X46689Y15809D01*
X46640Y15729D01*
X46588Y15651D01*
X46532Y15575D01*
X46473Y15502D01*
X46412Y15431D01*
X46347Y15363D01*
X46280Y15297D01*
X46209Y15235D01*
X46137Y15175D01*
X46062Y15119D01*
X45984Y15066D01*
X45904Y15016D01*
X45823Y14970D01*
X45739Y14927D01*
X45654Y14888D01*
X45567Y14852D01*
X45479Y14820D01*
X45389Y14792D01*
X45299Y14767D01*
X45207Y14747D01*
X45115Y14730D01*
X45022Y14717D01*
X44928Y14708D01*
X44834Y14703D01*
X44741Y14702D01*
X44647Y14705D01*
X44553Y14712D01*
X44460Y14723D01*
X44367Y14738D01*
X44275Y14756D01*
X44184Y14779D01*
X44094Y14805D01*
X44005Y14835D01*
X43917Y14869D01*
X43831Y14907D01*
X43747Y14948D01*
X43664Y14993D01*
X43583Y15041D01*
X43505Y15092D01*
X43429Y15147D01*
X43355Y15205D01*
X43283Y15266D01*
X43214Y15330D01*
X43148Y15396D01*
X43085Y15466D01*
X43025Y15538D01*
X42968Y15612D01*
X42914Y15689D01*
X42863Y15768D01*
X42816Y15850D01*
X42772Y15933D01*
X42732Y16017D01*
X42695Y16104D01*
X42663Y16192D01*
X42633Y16281D01*
X42608Y16372D01*
X42586Y16463D01*
X42569Y16555D01*
X42555Y16648D01*
X42545Y16741D01*
X42539Y16835D01*
X42537Y16929D01*
X40385Y20760D02*
X40387Y20840D01*
X40393Y20920D01*
X40403Y21000D01*
X40417Y21079D01*
X40434Y21157D01*
X40456Y21235D01*
X40481Y21311D01*
X40510Y21386D01*
X40543Y21459D01*
X40580Y21531D01*
X40619Y21600D01*
X40663Y21668D01*
X40709Y21733D01*
X40759Y21796D01*
X40812Y21857D01*
X40867Y21915D01*
X40926Y21970D01*
X40987Y22022D01*
X41051Y22071D01*
X41117Y22116D01*
X41185Y22159D01*
X41255Y22198D01*
X41327Y22233D01*
X41401Y22265D01*
X41476Y22293D01*
X41552Y22318D01*
X41630Y22338D01*
X41709Y22355D01*
X41788Y22368D01*
X41868Y22377D01*
X41948Y22382D01*
X42028Y22383D01*
X42108Y22380D01*
X42188Y22373D01*
X42268Y22362D01*
X42347Y22347D01*
X42425Y22329D01*
X42502Y22306D01*
X42578Y22280D01*
X42652Y22250D01*
X42725Y22216D01*
X42796Y22179D01*
X42865Y22138D01*
X42933Y22094D01*
X42997Y22047D01*
X43060Y21996D01*
X43120Y21943D01*
X43177Y21886D01*
X43231Y21827D01*
X43282Y21765D01*
X43330Y21701D01*
X43375Y21634D01*
X43417Y21566D01*
X43455Y21495D01*
X43490Y21423D01*
X43521Y21348D01*
X43548Y21273D01*
X43571Y21196D01*
X43591Y21118D01*
X43607Y21040D01*
X43619Y20960D01*
X43627Y20880D01*
X43631Y20800D01*
X43631Y20720D01*
X43627Y20640D01*
X43619Y20560D01*
X43607Y20480D01*
X43591Y20402D01*
X43571Y20324D01*
X43548Y20247D01*
X43521Y20172D01*
X43490Y20097D01*
X43455Y20025D01*
X43417Y19954D01*
X43375Y19886D01*
X43330Y19819D01*
X43282Y19755D01*
X43231Y19693D01*
X43177Y19634D01*
X43120Y19577D01*
X43060Y19524D01*
X42997Y19473D01*
X42933Y19426D01*
X42865Y19382D01*
X42796Y19341D01*
X42725Y19304D01*
X42652Y19270D01*
X42578Y19240D01*
X42502Y19214D01*
X42425Y19191D01*
X42347Y19173D01*
X42268Y19158D01*
X42188Y19147D01*
X42108Y19140D01*
X42028Y19137D01*
X41948Y19138D01*
X41868Y19143D01*
X41788Y19152D01*
X41709Y19165D01*
X41630Y19182D01*
X41552Y19202D01*
X41476Y19227D01*
X41401Y19255D01*
X41327Y19287D01*
X41255Y19322D01*
X41185Y19361D01*
X41117Y19404D01*
X41051Y19449D01*
X40987Y19498D01*
X40926Y19550D01*
X40867Y19605D01*
X40812Y19663D01*
X40759Y19724D01*
X40709Y19787D01*
X40663Y19852D01*
X40619Y19920D01*
X40580Y19989D01*
X40543Y20061D01*
X40510Y20134D01*
X40481Y20209D01*
X40456Y20285D01*
X40434Y20363D01*
X40417Y20441D01*
X40403Y20520D01*
X40393Y20600D01*
X40387Y20680D01*
X40385Y20760D01*
X40433Y7874D02*
X40435Y7953D01*
X40441Y8032D01*
X40451Y8111D01*
X40465Y8189D01*
X40482Y8266D01*
X40504Y8342D01*
X40529Y8417D01*
X40559Y8490D01*
X40591Y8562D01*
X40628Y8633D01*
X40668Y8701D01*
X40711Y8767D01*
X40757Y8831D01*
X40807Y8893D01*
X40860Y8952D01*
X40915Y9008D01*
X40974Y9062D01*
X41035Y9112D01*
X41098Y9160D01*
X41164Y9204D01*
X41232Y9245D01*
X41302Y9282D01*
X41373Y9316D01*
X41447Y9346D01*
X41521Y9372D01*
X41597Y9394D01*
X41674Y9413D01*
X41752Y9428D01*
X41830Y9439D01*
X41909Y9446D01*
X41988Y9449D01*
X42067Y9448D01*
X42146Y9443D01*
X42225Y9434D01*
X42303Y9421D01*
X42380Y9404D01*
X42457Y9384D01*
X42532Y9359D01*
X42606Y9331D01*
X42679Y9299D01*
X42749Y9264D01*
X42818Y9225D01*
X42885Y9182D01*
X42950Y9136D01*
X43012Y9088D01*
X43072Y9036D01*
X43129Y8981D01*
X43183Y8923D01*
X43234Y8863D01*
X43282Y8800D01*
X43327Y8735D01*
X43369Y8667D01*
X43407Y8598D01*
X43441Y8527D01*
X43472Y8454D01*
X43500Y8379D01*
X43523Y8304D01*
X43543Y8227D01*
X43559Y8150D01*
X43571Y8071D01*
X43579Y7993D01*
X43583Y7914D01*
X43583Y7834D01*
X43579Y7755D01*
X43571Y7677D01*
X43559Y7598D01*
X43543Y7521D01*
X43523Y7444D01*
X43500Y7369D01*
X43472Y7294D01*
X43441Y7221D01*
X43407Y7150D01*
X43369Y7081D01*
X43327Y7013D01*
X43282Y6948D01*
X43234Y6885D01*
X43183Y6825D01*
X43129Y6767D01*
X43072Y6712D01*
X43012Y6660D01*
X42950Y6612D01*
X42885Y6566D01*
X42818Y6523D01*
X42749Y6484D01*
X42679Y6449D01*
X42606Y6417D01*
X42532Y6389D01*
X42457Y6364D01*
X42380Y6344D01*
X42303Y6327D01*
X42225Y6314D01*
X42146Y6305D01*
X42067Y6300D01*
X41988Y6299D01*
X41909Y6302D01*
X41830Y6309D01*
X41752Y6320D01*
X41674Y6335D01*
X41597Y6354D01*
X41521Y6376D01*
X41447Y6402D01*
X41373Y6432D01*
X41302Y6466D01*
X41232Y6503D01*
X41164Y6544D01*
X41098Y6588D01*
X41035Y6636D01*
X40974Y6686D01*
X40915Y6740D01*
X40860Y6796D01*
X40807Y6855D01*
X40757Y6917D01*
X40711Y6981D01*
X40668Y7047D01*
X40628Y7115D01*
X40591Y7186D01*
X40559Y7258D01*
X40529Y7331D01*
X40504Y7406D01*
X40482Y7482D01*
X40465Y7559D01*
X40451Y7637D01*
X40441Y7716D01*
X40435Y7795D01*
X40433Y7874D01*
X41614Y15354D02*
X41614Y18504D01*
X40039Y18504D01*
X40039Y15354D01*
X41614Y15354D01*
X40433Y16142D02*
X40435Y16181D01*
X40441Y16220D01*
X40451Y16258D01*
X40464Y16295D01*
X40481Y16330D01*
X40501Y16364D01*
X40525Y16395D01*
X40552Y16424D01*
X40581Y16450D01*
X40613Y16473D01*
X40647Y16493D01*
X40683Y16509D01*
X40720Y16521D01*
X40759Y16530D01*
X40798Y16535D01*
X40837Y16536D01*
X40876Y16533D01*
X40915Y16526D01*
X40952Y16515D01*
X40989Y16501D01*
X41024Y16483D01*
X41057Y16462D01*
X41088Y16437D01*
X41116Y16410D01*
X41141Y16380D01*
X41163Y16347D01*
X41182Y16313D01*
X41197Y16277D01*
X41209Y16239D01*
X41217Y16201D01*
X41221Y16162D01*
X41221Y16122D01*
X41217Y16083D01*
X41209Y16045D01*
X41197Y16007D01*
X41182Y15971D01*
X41163Y15937D01*
X41141Y15904D01*
X41116Y15874D01*
X41088Y15847D01*
X41057Y15822D01*
X41024Y15801D01*
X40989Y15783D01*
X40952Y15769D01*
X40915Y15758D01*
X40876Y15751D01*
X40837Y15748D01*
X40798Y15749D01*
X40759Y15754D01*
X40720Y15763D01*
X40683Y15775D01*
X40647Y15791D01*
X40613Y15811D01*
X40581Y15834D01*
X40552Y15860D01*
X40525Y15889D01*
X40501Y15920D01*
X40481Y15954D01*
X40464Y15989D01*
X40451Y16026D01*
X40441Y16064D01*
X40435Y16103D01*
X40433Y16142D01*
D11*
X42047Y10829D02*
X42417Y10582D01*
X42417Y10829D02*
X42047Y10582D01*
X42047Y10975D02*
X42417Y10975D01*
X42417Y11140D01*
X42335Y11274D02*
X42047Y11357D01*
X42335Y11274D02*
X42335Y11480D01*
X42253Y11418D02*
X42417Y11418D01*
X42232Y11634D02*
X42197Y11636D01*
X42163Y11642D01*
X42130Y11651D01*
X42098Y11665D01*
X42084Y11672D01*
X42072Y11681D01*
X42061Y11693D01*
X42053Y11706D01*
X42049Y11721D01*
X42047Y11737D01*
X42049Y11753D01*
X42053Y11768D01*
X42061Y11781D01*
X42072Y11793D01*
X42084Y11802D01*
X42098Y11809D01*
X42130Y11823D01*
X42163Y11832D01*
X42197Y11838D01*
X42232Y11840D01*
X42232Y11634D02*
X42267Y11636D01*
X42301Y11642D01*
X42334Y11651D01*
X42366Y11665D01*
X42380Y11672D01*
X42392Y11681D01*
X42403Y11693D01*
X42411Y11706D01*
X42415Y11721D01*
X42417Y11737D01*
X42366Y11809D02*
X42334Y11823D01*
X42301Y11832D01*
X42267Y11838D01*
X42232Y11840D01*
X42366Y11809D02*
X42380Y11802D01*
X42392Y11793D01*
X42403Y11781D01*
X42411Y11768D01*
X42415Y11753D01*
X42417Y11737D01*
X42335Y11655D02*
X42130Y11819D01*
X42130Y11994D02*
X42047Y12097D01*
X42417Y12097D01*
X42417Y11994D02*
X42417Y12200D01*
X42417Y12354D02*
X42417Y12478D01*
X42415Y12494D01*
X42411Y12509D01*
X42403Y12524D01*
X42393Y12536D01*
X42381Y12546D01*
X42366Y12554D01*
X42351Y12558D01*
X42335Y12560D01*
X42294Y12560D01*
X42278Y12558D01*
X42263Y12554D01*
X42248Y12546D01*
X42236Y12536D01*
X42226Y12524D01*
X42218Y12509D01*
X42214Y12494D01*
X42212Y12478D01*
X42212Y12354D01*
X42047Y12354D01*
X42047Y12560D01*
X48147Y10482D02*
X48517Y10482D01*
X48147Y10482D02*
X48147Y10585D01*
X48149Y10603D01*
X48153Y10620D01*
X48161Y10637D01*
X48171Y10651D01*
X48184Y10664D01*
X48199Y10674D01*
X48215Y10682D01*
X48232Y10686D01*
X48250Y10688D01*
X48250Y10687D02*
X48415Y10687D01*
X48415Y10688D02*
X48433Y10686D01*
X48450Y10682D01*
X48467Y10674D01*
X48481Y10664D01*
X48494Y10651D01*
X48504Y10636D01*
X48512Y10620D01*
X48516Y10603D01*
X48518Y10585D01*
X48517Y10585D02*
X48517Y10482D01*
X48517Y10885D02*
X48147Y10885D01*
X48517Y10844D02*
X48517Y10926D01*
X48147Y10926D02*
X48147Y10844D01*
X48517Y11181D02*
X48515Y11197D01*
X48511Y11212D01*
X48503Y11227D01*
X48493Y11239D01*
X48481Y11249D01*
X48466Y11257D01*
X48451Y11261D01*
X48435Y11263D01*
X48518Y11181D02*
X48516Y11158D01*
X48512Y11136D01*
X48505Y11114D01*
X48494Y11094D01*
X48482Y11075D01*
X48467Y11057D01*
X48230Y11068D02*
X48214Y11070D01*
X48199Y11074D01*
X48184Y11082D01*
X48172Y11092D01*
X48162Y11104D01*
X48154Y11119D01*
X48150Y11134D01*
X48148Y11150D01*
X48147Y11150D02*
X48148Y11170D01*
X48152Y11189D01*
X48158Y11208D01*
X48167Y11226D01*
X48178Y11242D01*
X48230Y11068D02*
X48247Y11070D01*
X48264Y11075D01*
X48279Y11084D01*
X48292Y11095D01*
X48302Y11109D01*
X48363Y11223D02*
X48373Y11237D01*
X48386Y11248D01*
X48401Y11257D01*
X48418Y11262D01*
X48435Y11264D01*
X48363Y11222D02*
X48301Y11109D01*
X48147Y11423D02*
X48517Y11423D01*
X48147Y11423D02*
X48147Y11526D01*
X48149Y11545D01*
X48154Y11563D01*
X48162Y11580D01*
X48174Y11595D01*
X48188Y11608D01*
X48204Y11618D01*
X48222Y11625D01*
X48240Y11629D01*
X48260Y11629D01*
X48278Y11625D01*
X48296Y11618D01*
X48312Y11608D01*
X48326Y11595D01*
X48338Y11580D01*
X48346Y11563D01*
X48351Y11545D01*
X48353Y11526D01*
X48353Y11423D01*
X48517Y11779D02*
X48147Y11779D01*
X48517Y11779D02*
X48517Y11943D01*
X48517Y12057D02*
X48147Y12181D01*
X48517Y12304D01*
X48425Y12273D02*
X48425Y12088D01*
X48147Y12417D02*
X48322Y12541D01*
X48147Y12664D01*
X48322Y12541D02*
X48517Y12541D01*
X50347Y6623D02*
X50717Y6623D01*
X50717Y6582D02*
X50717Y6664D01*
X50347Y6664D02*
X50347Y6582D01*
X50347Y6820D02*
X50717Y6820D01*
X50717Y7026D02*
X50347Y6820D01*
X50347Y7026D02*
X50717Y7026D01*
X50715Y20182D02*
X50550Y20182D01*
X50531Y20184D01*
X50513Y20189D01*
X50496Y20197D01*
X50481Y20209D01*
X50468Y20223D01*
X50458Y20239D01*
X50451Y20257D01*
X50447Y20275D01*
X50447Y20295D01*
X50451Y20313D01*
X50458Y20331D01*
X50468Y20347D01*
X50481Y20361D01*
X50496Y20373D01*
X50513Y20381D01*
X50531Y20386D01*
X50550Y20388D01*
X50550Y20387D02*
X50715Y20387D01*
X50715Y20388D02*
X50734Y20386D01*
X50752Y20381D01*
X50769Y20373D01*
X50784Y20361D01*
X50797Y20347D01*
X50807Y20331D01*
X50814Y20313D01*
X50818Y20295D01*
X50818Y20275D01*
X50814Y20257D01*
X50807Y20239D01*
X50797Y20223D01*
X50784Y20209D01*
X50769Y20197D01*
X50752Y20189D01*
X50734Y20184D01*
X50715Y20182D01*
X50715Y20554D02*
X50447Y20554D01*
X50715Y20554D02*
X50734Y20556D01*
X50752Y20561D01*
X50769Y20569D01*
X50784Y20581D01*
X50797Y20595D01*
X50807Y20611D01*
X50814Y20629D01*
X50818Y20647D01*
X50818Y20667D01*
X50814Y20685D01*
X50807Y20703D01*
X50797Y20719D01*
X50784Y20733D01*
X50769Y20745D01*
X50752Y20753D01*
X50734Y20758D01*
X50715Y20760D01*
X50715Y20759D02*
X50447Y20759D01*
X50447Y21005D02*
X50817Y21005D01*
X50447Y21107D02*
X50447Y20902D01*
X40717Y16705D02*
X40347Y16582D01*
X40347Y16829D02*
X40717Y16705D01*
X40758Y16947D02*
X40758Y17111D01*
X40717Y17230D02*
X40347Y17353D01*
X40717Y17477D01*
X40625Y17446D02*
X40625Y17261D01*
X40717Y17622D02*
X40347Y17622D01*
X40347Y17725D01*
X40349Y17743D01*
X40353Y17760D01*
X40361Y17777D01*
X40371Y17791D01*
X40384Y17804D01*
X40399Y17814D01*
X40415Y17822D01*
X40432Y17826D01*
X40450Y17828D01*
X40615Y17828D01*
X40633Y17826D01*
X40650Y17822D01*
X40667Y17814D01*
X40681Y17804D01*
X40694Y17791D01*
X40704Y17776D01*
X40712Y17760D01*
X40716Y17743D01*
X40718Y17725D01*
X40717Y17725D02*
X40717Y17622D01*
X40635Y18081D02*
X40347Y18081D01*
X40635Y18081D02*
X40651Y18079D01*
X40666Y18075D01*
X40681Y18067D01*
X40693Y18057D01*
X40703Y18045D01*
X40711Y18030D01*
X40715Y18015D01*
X40717Y17999D01*
X40717Y17958D01*
D10*
X41132Y16367D02*
X40532Y15867D01*
X43519Y16929D02*
X43521Y16999D01*
X43527Y17070D01*
X43537Y17139D01*
X43551Y17208D01*
X43569Y17277D01*
X43590Y17344D01*
X43615Y17410D01*
X43644Y17474D01*
X43677Y17536D01*
X43713Y17597D01*
X43753Y17655D01*
X43795Y17711D01*
X43841Y17765D01*
X43890Y17816D01*
X43941Y17864D01*
X43996Y17909D01*
X44052Y17951D01*
X44111Y17989D01*
X44172Y18024D01*
X44235Y18056D01*
X44300Y18084D01*
X44366Y18109D01*
X44433Y18129D01*
X44502Y18146D01*
X44571Y18159D01*
X44641Y18168D01*
X44711Y18173D01*
X44782Y18174D01*
X44852Y18171D01*
X44922Y18164D01*
X44992Y18153D01*
X45061Y18138D01*
X45129Y18119D01*
X45195Y18097D01*
X45261Y18071D01*
X45325Y18041D01*
X45387Y18007D01*
X45447Y17970D01*
X45504Y17930D01*
X45560Y17886D01*
X45613Y17840D01*
X45663Y17790D01*
X45710Y17738D01*
X45754Y17683D01*
X45795Y17626D01*
X45833Y17567D01*
X45868Y17505D01*
X45898Y17442D01*
X45926Y17377D01*
X45949Y17310D01*
X45969Y17243D01*
X45985Y17174D01*
X45997Y17105D01*
X46005Y17035D01*
X46009Y16964D01*
X46009Y16894D01*
X46005Y16823D01*
X45997Y16753D01*
X45985Y16684D01*
X45969Y16615D01*
X45949Y16548D01*
X45926Y16481D01*
X45898Y16416D01*
X45868Y16353D01*
X45833Y16291D01*
X45795Y16232D01*
X45754Y16175D01*
X45710Y16120D01*
X45663Y16068D01*
X45613Y16018D01*
X45560Y15972D01*
X45504Y15928D01*
X45447Y15888D01*
X45386Y15851D01*
X45325Y15817D01*
X45261Y15787D01*
X45195Y15761D01*
X45129Y15739D01*
X45061Y15720D01*
X44992Y15705D01*
X44922Y15694D01*
X44852Y15687D01*
X44782Y15684D01*
X44711Y15685D01*
X44641Y15690D01*
X44571Y15699D01*
X44502Y15712D01*
X44433Y15729D01*
X44366Y15749D01*
X44300Y15774D01*
X44235Y15802D01*
X44172Y15834D01*
X44111Y15869D01*
X44052Y15907D01*
X43996Y15949D01*
X43941Y15994D01*
X43890Y16042D01*
X43841Y16093D01*
X43795Y16147D01*
X43753Y16203D01*
X43713Y16261D01*
X43677Y16322D01*
X43644Y16384D01*
X43615Y16448D01*
X43590Y16514D01*
X43569Y16581D01*
X43551Y16650D01*
X43537Y16719D01*
X43527Y16788D01*
X43521Y16859D01*
X43519Y16929D01*
X39941Y4134D02*
X39943Y4186D01*
X39949Y4238D01*
X39959Y4289D01*
X39972Y4339D01*
X39990Y4389D01*
X40011Y4436D01*
X40035Y4482D01*
X40064Y4526D01*
X40095Y4568D01*
X40129Y4607D01*
X40166Y4644D01*
X40206Y4677D01*
X40249Y4708D01*
X40293Y4735D01*
X40339Y4759D01*
X40388Y4779D01*
X40437Y4795D01*
X40488Y4808D01*
X40539Y4817D01*
X40591Y4822D01*
X40643Y4823D01*
X40695Y4820D01*
X40747Y4813D01*
X40798Y4802D01*
X40848Y4788D01*
X40897Y4769D01*
X40944Y4747D01*
X40989Y4722D01*
X41033Y4693D01*
X41074Y4661D01*
X41113Y4626D01*
X41148Y4588D01*
X41181Y4547D01*
X41211Y4505D01*
X41237Y4460D01*
X41260Y4413D01*
X41279Y4364D01*
X41295Y4314D01*
X41307Y4264D01*
X41315Y4212D01*
X41319Y4160D01*
X41319Y4108D01*
X41315Y4056D01*
X41307Y4004D01*
X41295Y3954D01*
X41279Y3904D01*
X41260Y3855D01*
X41237Y3808D01*
X41211Y3763D01*
X41181Y3721D01*
X41148Y3680D01*
X41113Y3642D01*
X41074Y3607D01*
X41033Y3575D01*
X40989Y3546D01*
X40944Y3521D01*
X40897Y3499D01*
X40848Y3480D01*
X40798Y3466D01*
X40747Y3455D01*
X40695Y3448D01*
X40643Y3445D01*
X40591Y3446D01*
X40539Y3451D01*
X40488Y3460D01*
X40437Y3473D01*
X40388Y3489D01*
X40339Y3509D01*
X40293Y3533D01*
X40249Y3560D01*
X40206Y3591D01*
X40166Y3624D01*
X40129Y3661D01*
X40095Y3700D01*
X40064Y3742D01*
X40035Y3786D01*
X40011Y3832D01*
X39990Y3879D01*
X39972Y3929D01*
X39959Y3979D01*
X39949Y4030D01*
X39943Y4082D01*
X39941Y4134D01*
X52146Y4134D02*
X52148Y4186D01*
X52154Y4238D01*
X52164Y4289D01*
X52177Y4339D01*
X52195Y4389D01*
X52216Y4436D01*
X52240Y4482D01*
X52269Y4526D01*
X52300Y4568D01*
X52334Y4607D01*
X52371Y4644D01*
X52411Y4677D01*
X52454Y4708D01*
X52498Y4735D01*
X52544Y4759D01*
X52593Y4779D01*
X52642Y4795D01*
X52693Y4808D01*
X52744Y4817D01*
X52796Y4822D01*
X52848Y4823D01*
X52900Y4820D01*
X52952Y4813D01*
X53003Y4802D01*
X53053Y4788D01*
X53102Y4769D01*
X53149Y4747D01*
X53194Y4722D01*
X53238Y4693D01*
X53279Y4661D01*
X53318Y4626D01*
X53353Y4588D01*
X53386Y4547D01*
X53416Y4505D01*
X53442Y4460D01*
X53465Y4413D01*
X53484Y4364D01*
X53500Y4314D01*
X53512Y4264D01*
X53520Y4212D01*
X53524Y4160D01*
X53524Y4108D01*
X53520Y4056D01*
X53512Y4004D01*
X53500Y3954D01*
X53484Y3904D01*
X53465Y3855D01*
X53442Y3808D01*
X53416Y3763D01*
X53386Y3721D01*
X53353Y3680D01*
X53318Y3642D01*
X53279Y3607D01*
X53238Y3575D01*
X53194Y3546D01*
X53149Y3521D01*
X53102Y3499D01*
X53053Y3480D01*
X53003Y3466D01*
X52952Y3455D01*
X52900Y3448D01*
X52848Y3445D01*
X52796Y3446D01*
X52744Y3451D01*
X52693Y3460D01*
X52642Y3473D01*
X52593Y3489D01*
X52544Y3509D01*
X52498Y3533D01*
X52454Y3560D01*
X52411Y3591D01*
X52371Y3624D01*
X52334Y3661D01*
X52300Y3700D01*
X52269Y3742D01*
X52240Y3786D01*
X52216Y3832D01*
X52195Y3879D01*
X52177Y3929D01*
X52164Y3979D01*
X52154Y4030D01*
X52148Y4082D01*
X52146Y4134D01*
X52139Y25000D02*
X52141Y25053D01*
X52147Y25105D01*
X52157Y25157D01*
X52171Y25208D01*
X52188Y25257D01*
X52210Y25305D01*
X52234Y25352D01*
X52263Y25396D01*
X52294Y25438D01*
X52329Y25478D01*
X52367Y25515D01*
X52407Y25549D01*
X52450Y25580D01*
X52495Y25607D01*
X52542Y25631D01*
X52590Y25651D01*
X52640Y25668D01*
X52691Y25681D01*
X52743Y25690D01*
X52796Y25695D01*
X52848Y25696D01*
X52901Y25693D01*
X52953Y25686D01*
X53005Y25675D01*
X53055Y25660D01*
X53104Y25642D01*
X53152Y25620D01*
X53198Y25594D01*
X53242Y25565D01*
X53284Y25532D01*
X53322Y25497D01*
X53359Y25458D01*
X53392Y25418D01*
X53422Y25374D01*
X53448Y25329D01*
X53472Y25281D01*
X53491Y25233D01*
X53507Y25182D01*
X53519Y25131D01*
X53527Y25079D01*
X53531Y25026D01*
X53531Y24974D01*
X53527Y24921D01*
X53519Y24869D01*
X53507Y24818D01*
X53491Y24767D01*
X53472Y24719D01*
X53448Y24671D01*
X53422Y24626D01*
X53392Y24582D01*
X53359Y24542D01*
X53322Y24503D01*
X53284Y24468D01*
X53242Y24435D01*
X53198Y24406D01*
X53152Y24380D01*
X53104Y24358D01*
X53055Y24340D01*
X53005Y24325D01*
X52953Y24314D01*
X52901Y24307D01*
X52848Y24304D01*
X52796Y24305D01*
X52743Y24310D01*
X52691Y24319D01*
X52640Y24332D01*
X52590Y24349D01*
X52542Y24369D01*
X52495Y24393D01*
X52450Y24420D01*
X52407Y24451D01*
X52367Y24485D01*
X52329Y24522D01*
X52294Y24562D01*
X52263Y24604D01*
X52234Y24648D01*
X52210Y24695D01*
X52188Y24743D01*
X52171Y24792D01*
X52157Y24843D01*
X52147Y24895D01*
X52141Y24947D01*
X52139Y25000D01*
X39941Y25000D02*
X39943Y25052D01*
X39949Y25104D01*
X39959Y25155D01*
X39972Y25205D01*
X39990Y25255D01*
X40011Y25302D01*
X40035Y25348D01*
X40064Y25392D01*
X40095Y25434D01*
X40129Y25473D01*
X40166Y25510D01*
X40206Y25543D01*
X40249Y25574D01*
X40293Y25601D01*
X40339Y25625D01*
X40388Y25645D01*
X40437Y25661D01*
X40488Y25674D01*
X40539Y25683D01*
X40591Y25688D01*
X40643Y25689D01*
X40695Y25686D01*
X40747Y25679D01*
X40798Y25668D01*
X40848Y25654D01*
X40897Y25635D01*
X40944Y25613D01*
X40989Y25588D01*
X41033Y25559D01*
X41074Y25527D01*
X41113Y25492D01*
X41148Y25454D01*
X41181Y25413D01*
X41211Y25371D01*
X41237Y25326D01*
X41260Y25279D01*
X41279Y25230D01*
X41295Y25180D01*
X41307Y25130D01*
X41315Y25078D01*
X41319Y25026D01*
X41319Y24974D01*
X41315Y24922D01*
X41307Y24870D01*
X41295Y24820D01*
X41279Y24770D01*
X41260Y24721D01*
X41237Y24674D01*
X41211Y24629D01*
X41181Y24587D01*
X41148Y24546D01*
X41113Y24508D01*
X41074Y24473D01*
X41033Y24441D01*
X40989Y24412D01*
X40944Y24387D01*
X40897Y24365D01*
X40848Y24346D01*
X40798Y24332D01*
X40747Y24321D01*
X40695Y24314D01*
X40643Y24311D01*
X40591Y24312D01*
X40539Y24317D01*
X40488Y24326D01*
X40437Y24339D01*
X40388Y24355D01*
X40339Y24375D01*
X40293Y24399D01*
X40249Y24426D01*
X40206Y24457D01*
X40166Y24490D01*
X40129Y24527D01*
X40095Y24566D01*
X40064Y24608D01*
X40035Y24652D01*
X40011Y24698D01*
X39990Y24745D01*
X39972Y24795D01*
X39959Y24845D01*
X39949Y24896D01*
X39943Y24948D01*
X39941Y25000D01*
X42008Y5512D02*
X42008Y2756D01*
X42008Y5512D02*
X39252Y5512D01*
X51457Y5512D02*
X51457Y2756D01*
X51457Y5512D02*
X54213Y5512D01*
X54213Y23622D02*
X51457Y23622D01*
X51457Y26378D01*
X42008Y26378D02*
X42008Y23622D01*
X39252Y23622D01*
X43032Y21967D02*
X43032Y19567D01*
X43032Y9067D02*
X43032Y6667D01*
D11*
X41747Y20395D02*
X41749Y20413D01*
X41754Y20431D01*
X41763Y20447D01*
X41774Y20461D01*
X41788Y20472D01*
X41804Y20481D01*
X41822Y20486D01*
X41840Y20488D01*
X41747Y20395D02*
X41748Y20376D01*
X41753Y20358D01*
X41760Y20341D01*
X41770Y20325D01*
X41782Y20311D01*
X41796Y20299D01*
X41812Y20289D01*
X41829Y20282D01*
X41912Y20456D02*
X41900Y20467D01*
X41886Y20476D01*
X41872Y20482D01*
X41856Y20486D01*
X41840Y20487D01*
X41912Y20457D02*
X42117Y20282D01*
X42117Y20487D01*
X41840Y20848D02*
X41822Y20846D01*
X41804Y20841D01*
X41788Y20832D01*
X41774Y20821D01*
X41763Y20807D01*
X41754Y20791D01*
X41749Y20773D01*
X41747Y20755D01*
X41748Y20736D01*
X41753Y20718D01*
X41760Y20701D01*
X41770Y20685D01*
X41782Y20671D01*
X41796Y20659D01*
X41812Y20649D01*
X41829Y20642D01*
X41912Y20816D02*
X41900Y20827D01*
X41886Y20836D01*
X41872Y20842D01*
X41856Y20846D01*
X41840Y20847D01*
X41912Y20817D02*
X42117Y20642D01*
X42117Y20847D01*
X41932Y21002D02*
X41897Y21004D01*
X41863Y21010D01*
X41830Y21019D01*
X41798Y21033D01*
X41784Y21040D01*
X41772Y21049D01*
X41761Y21061D01*
X41753Y21074D01*
X41749Y21089D01*
X41747Y21105D01*
X41749Y21121D01*
X41753Y21136D01*
X41761Y21149D01*
X41772Y21161D01*
X41784Y21170D01*
X41798Y21177D01*
X41830Y21191D01*
X41863Y21200D01*
X41897Y21206D01*
X41932Y21208D01*
X41932Y21002D02*
X41967Y21004D01*
X42001Y21010D01*
X42034Y21019D01*
X42066Y21033D01*
X42080Y21040D01*
X42092Y21049D01*
X42103Y21061D01*
X42111Y21074D01*
X42115Y21089D01*
X42117Y21105D01*
X42066Y21177D02*
X42034Y21191D01*
X42001Y21200D01*
X41967Y21206D01*
X41932Y21208D01*
X42066Y21177D02*
X42080Y21170D01*
X42092Y21161D01*
X42103Y21149D01*
X42111Y21136D01*
X42115Y21121D01*
X42117Y21105D01*
X42035Y21022D02*
X41830Y21187D01*
X41747Y7485D02*
X41830Y7382D01*
X41747Y7485D02*
X42117Y7485D01*
X42117Y7587D02*
X42117Y7382D01*
X41932Y7742D02*
X41897Y7744D01*
X41863Y7750D01*
X41830Y7759D01*
X41798Y7773D01*
X41784Y7780D01*
X41772Y7789D01*
X41761Y7801D01*
X41753Y7814D01*
X41749Y7829D01*
X41747Y7845D01*
X41749Y7861D01*
X41753Y7876D01*
X41761Y7889D01*
X41772Y7901D01*
X41784Y7910D01*
X41798Y7917D01*
X41830Y7931D01*
X41863Y7940D01*
X41897Y7946D01*
X41932Y7948D01*
X41932Y7742D02*
X41967Y7744D01*
X42001Y7750D01*
X42034Y7759D01*
X42066Y7773D01*
X42080Y7780D01*
X42092Y7789D01*
X42103Y7801D01*
X42111Y7814D01*
X42115Y7829D01*
X42117Y7845D01*
X42066Y7917D02*
X42034Y7931D01*
X42001Y7940D01*
X41967Y7946D01*
X41932Y7948D01*
X42066Y7917D02*
X42080Y7910D01*
X42092Y7901D01*
X42103Y7889D01*
X42111Y7876D01*
X42115Y7861D01*
X42117Y7845D01*
X42035Y7762D02*
X41830Y7927D01*
X41932Y8102D02*
X41897Y8104D01*
X41863Y8110D01*
X41830Y8119D01*
X41798Y8133D01*
X41784Y8140D01*
X41772Y8149D01*
X41761Y8161D01*
X41753Y8174D01*
X41749Y8189D01*
X41747Y8205D01*
X41749Y8221D01*
X41753Y8236D01*
X41761Y8249D01*
X41772Y8261D01*
X41784Y8270D01*
X41798Y8277D01*
X41830Y8291D01*
X41863Y8300D01*
X41897Y8306D01*
X41932Y8308D01*
X41932Y8102D02*
X41967Y8104D01*
X42001Y8110D01*
X42034Y8119D01*
X42066Y8133D01*
X42080Y8140D01*
X42092Y8149D01*
X42103Y8161D01*
X42111Y8174D01*
X42115Y8189D01*
X42117Y8205D01*
X42066Y8277D02*
X42034Y8291D01*
X42001Y8300D01*
X41967Y8306D01*
X41932Y8308D01*
X42066Y8277D02*
X42080Y8270D01*
X42092Y8261D01*
X42103Y8249D01*
X42111Y8236D01*
X42115Y8221D01*
X42117Y8205D01*
X42035Y8122D02*
X41830Y8287D01*
D10*
X51291Y6967D02*
X51293Y6990D01*
X51299Y7013D01*
X51308Y7034D01*
X51321Y7054D01*
X51337Y7071D01*
X51355Y7085D01*
X51375Y7096D01*
X51397Y7104D01*
X51420Y7108D01*
X51444Y7108D01*
X51467Y7104D01*
X51489Y7096D01*
X51509Y7085D01*
X51527Y7071D01*
X51543Y7054D01*
X51556Y7034D01*
X51565Y7013D01*
X51571Y6990D01*
X51573Y6967D01*
X51571Y6944D01*
X51565Y6921D01*
X51556Y6900D01*
X51543Y6880D01*
X51527Y6863D01*
X51509Y6849D01*
X51489Y6838D01*
X51467Y6830D01*
X51444Y6826D01*
X51420Y6826D01*
X51397Y6830D01*
X51375Y6838D01*
X51355Y6849D01*
X51337Y6863D01*
X51321Y6880D01*
X51308Y6900D01*
X51299Y6921D01*
X51293Y6944D01*
X51291Y6967D01*
X51291Y8767D02*
X51293Y8790D01*
X51299Y8813D01*
X51308Y8834D01*
X51321Y8854D01*
X51337Y8871D01*
X51355Y8885D01*
X51375Y8896D01*
X51397Y8904D01*
X51420Y8908D01*
X51444Y8908D01*
X51467Y8904D01*
X51489Y8896D01*
X51509Y8885D01*
X51527Y8871D01*
X51543Y8854D01*
X51556Y8834D01*
X51565Y8813D01*
X51571Y8790D01*
X51573Y8767D01*
X51571Y8744D01*
X51565Y8721D01*
X51556Y8700D01*
X51543Y8680D01*
X51527Y8663D01*
X51509Y8649D01*
X51489Y8638D01*
X51467Y8630D01*
X51444Y8626D01*
X51420Y8626D01*
X51397Y8630D01*
X51375Y8638D01*
X51355Y8649D01*
X51337Y8663D01*
X51321Y8680D01*
X51308Y8700D01*
X51299Y8721D01*
X51293Y8744D01*
X51291Y8767D01*
X52991Y6967D02*
X52993Y6990D01*
X52999Y7013D01*
X53008Y7034D01*
X53021Y7054D01*
X53037Y7071D01*
X53055Y7085D01*
X53075Y7096D01*
X53097Y7104D01*
X53120Y7108D01*
X53144Y7108D01*
X53167Y7104D01*
X53189Y7096D01*
X53209Y7085D01*
X53227Y7071D01*
X53243Y7054D01*
X53256Y7034D01*
X53265Y7013D01*
X53271Y6990D01*
X53273Y6967D01*
X53271Y6944D01*
X53265Y6921D01*
X53256Y6900D01*
X53243Y6880D01*
X53227Y6863D01*
X53209Y6849D01*
X53189Y6838D01*
X53167Y6830D01*
X53144Y6826D01*
X53120Y6826D01*
X53097Y6830D01*
X53075Y6838D01*
X53055Y6849D01*
X53037Y6863D01*
X53021Y6880D01*
X53008Y6900D01*
X52999Y6921D01*
X52993Y6944D01*
X52991Y6967D01*
X52991Y8767D02*
X52993Y8790D01*
X52999Y8813D01*
X53008Y8834D01*
X53021Y8854D01*
X53037Y8871D01*
X53055Y8885D01*
X53075Y8896D01*
X53097Y8904D01*
X53120Y8908D01*
X53144Y8908D01*
X53167Y8904D01*
X53189Y8896D01*
X53209Y8885D01*
X53227Y8871D01*
X53243Y8854D01*
X53256Y8834D01*
X53265Y8813D01*
X53271Y8790D01*
X53273Y8767D01*
X53271Y8744D01*
X53265Y8721D01*
X53256Y8700D01*
X53243Y8680D01*
X53227Y8663D01*
X53209Y8649D01*
X53189Y8638D01*
X53167Y8630D01*
X53144Y8626D01*
X53120Y8626D01*
X53097Y8630D01*
X53075Y8638D01*
X53055Y8649D01*
X53037Y8663D01*
X53021Y8680D01*
X53008Y8700D01*
X52999Y8721D01*
X52993Y8744D01*
X52991Y8767D01*
X52991Y20367D02*
X52993Y20390D01*
X52999Y20413D01*
X53008Y20434D01*
X53021Y20454D01*
X53037Y20471D01*
X53055Y20485D01*
X53075Y20496D01*
X53097Y20504D01*
X53120Y20508D01*
X53144Y20508D01*
X53167Y20504D01*
X53189Y20496D01*
X53209Y20485D01*
X53227Y20471D01*
X53243Y20454D01*
X53256Y20434D01*
X53265Y20413D01*
X53271Y20390D01*
X53273Y20367D01*
X53271Y20344D01*
X53265Y20321D01*
X53256Y20300D01*
X53243Y20280D01*
X53227Y20263D01*
X53209Y20249D01*
X53189Y20238D01*
X53167Y20230D01*
X53144Y20226D01*
X53120Y20226D01*
X53097Y20230D01*
X53075Y20238D01*
X53055Y20249D01*
X53037Y20263D01*
X53021Y20280D01*
X53008Y20300D01*
X52999Y20321D01*
X52993Y20344D01*
X52991Y20367D01*
X51191Y20367D02*
X51193Y20390D01*
X51199Y20413D01*
X51208Y20434D01*
X51221Y20454D01*
X51237Y20471D01*
X51255Y20485D01*
X51275Y20496D01*
X51297Y20504D01*
X51320Y20508D01*
X51344Y20508D01*
X51367Y20504D01*
X51389Y20496D01*
X51409Y20485D01*
X51427Y20471D01*
X51443Y20454D01*
X51456Y20434D01*
X51465Y20413D01*
X51471Y20390D01*
X51473Y20367D01*
X51471Y20344D01*
X51465Y20321D01*
X51456Y20300D01*
X51443Y20280D01*
X51427Y20263D01*
X51409Y20249D01*
X51389Y20238D01*
X51367Y20230D01*
X51344Y20226D01*
X51320Y20226D01*
X51297Y20230D01*
X51275Y20238D01*
X51255Y20249D01*
X51237Y20263D01*
X51221Y20280D01*
X51208Y20300D01*
X51199Y20321D01*
X51193Y20344D01*
X51191Y20367D01*
X51191Y22167D02*
X51193Y22190D01*
X51199Y22213D01*
X51208Y22234D01*
X51221Y22254D01*
X51237Y22271D01*
X51255Y22285D01*
X51275Y22296D01*
X51297Y22304D01*
X51320Y22308D01*
X51344Y22308D01*
X51367Y22304D01*
X51389Y22296D01*
X51409Y22285D01*
X51427Y22271D01*
X51443Y22254D01*
X51456Y22234D01*
X51465Y22213D01*
X51471Y22190D01*
X51473Y22167D01*
X51471Y22144D01*
X51465Y22121D01*
X51456Y22100D01*
X51443Y22080D01*
X51427Y22063D01*
X51409Y22049D01*
X51389Y22038D01*
X51367Y22030D01*
X51344Y22026D01*
X51320Y22026D01*
X51297Y22030D01*
X51275Y22038D01*
X51255Y22049D01*
X51237Y22063D01*
X51221Y22080D01*
X51208Y22100D01*
X51199Y22121D01*
X51193Y22144D01*
X51191Y22167D01*
X52991Y22167D02*
X52993Y22190D01*
X52999Y22213D01*
X53008Y22234D01*
X53021Y22254D01*
X53037Y22271D01*
X53055Y22285D01*
X53075Y22296D01*
X53097Y22304D01*
X53120Y22308D01*
X53144Y22308D01*
X53167Y22304D01*
X53189Y22296D01*
X53209Y22285D01*
X53227Y22271D01*
X53243Y22254D01*
X53256Y22234D01*
X53265Y22213D01*
X53271Y22190D01*
X53273Y22167D01*
X53271Y22144D01*
X53265Y22121D01*
X53256Y22100D01*
X53243Y22080D01*
X53227Y22063D01*
X53209Y22049D01*
X53189Y22038D01*
X53167Y22030D01*
X53144Y22026D01*
X53120Y22026D01*
X53097Y22030D01*
X53075Y22038D01*
X53055Y22049D01*
X53037Y22063D01*
X53021Y22080D01*
X53008Y22100D01*
X52999Y22121D01*
X52993Y22144D01*
X52991Y22167D01*
D12*
X51532Y11167D02*
X52932Y10967D01*
X51332Y11267D02*
X51332Y12667D01*
X53132Y12467D02*
X53132Y11067D01*
X52932Y12567D02*
X51532Y12767D01*
X51132Y12867D02*
X49732Y13067D01*
X49732Y11467D02*
X51132Y11267D01*
X49532Y11567D02*
X49532Y12967D01*
X51532Y13967D02*
X52932Y13767D01*
X51332Y14067D02*
X51332Y15467D01*
X53132Y15267D02*
X53132Y13867D01*
X52932Y15367D02*
X51532Y15567D01*
X51132Y15667D02*
X49732Y15867D01*
X49732Y14267D02*
X51132Y14067D01*
X49532Y14367D02*
X49532Y15767D01*
X51532Y16667D02*
X52932Y16467D01*
X51332Y16767D02*
X51332Y18167D01*
X53132Y17967D02*
X53132Y16567D01*
X52932Y18067D02*
X51532Y18267D01*
X51132Y18367D02*
X49732Y18567D01*
X49732Y16967D02*
X51132Y16767D01*
X49532Y17067D02*
X49532Y18467D01*
D13*
X49467Y4683D02*
X50197Y4683D01*
X50197Y4602D02*
X50197Y4764D01*
X49467Y4764D02*
X49467Y4602D01*
X49467Y5054D02*
X50197Y5054D01*
X50197Y5459D02*
X49467Y5054D01*
X49467Y5459D02*
X50197Y5459D01*
X49913Y5770D02*
X49913Y6257D01*
X44197Y4683D02*
X43467Y4683D01*
X44197Y4602D02*
X44197Y4764D01*
X43467Y4764D02*
X43467Y4602D01*
X43467Y5054D02*
X44197Y5054D01*
X44197Y5459D02*
X43467Y5054D01*
X43467Y5459D02*
X44197Y5459D01*
X43913Y5770D02*
X43913Y6257D01*
X43670Y6013D02*
X44157Y6013D01*
X43995Y22102D02*
X43670Y22102D01*
X43642Y22104D01*
X43615Y22110D01*
X43589Y22119D01*
X43565Y22132D01*
X43542Y22148D01*
X43522Y22166D01*
X43504Y22188D01*
X43490Y22212D01*
X43479Y22237D01*
X43471Y22264D01*
X43467Y22291D01*
X43467Y22319D01*
X43471Y22346D01*
X43479Y22373D01*
X43490Y22398D01*
X43504Y22422D01*
X43522Y22444D01*
X43542Y22462D01*
X43565Y22478D01*
X43589Y22491D01*
X43615Y22500D01*
X43642Y22506D01*
X43670Y22508D01*
X43670Y22507D02*
X43995Y22507D01*
X43995Y22508D02*
X44023Y22506D01*
X44050Y22500D01*
X44076Y22491D01*
X44100Y22478D01*
X44123Y22462D01*
X44143Y22444D01*
X44161Y22422D01*
X44175Y22398D01*
X44186Y22373D01*
X44194Y22346D01*
X44198Y22319D01*
X44198Y22291D01*
X44194Y22264D01*
X44186Y22237D01*
X44175Y22212D01*
X44161Y22188D01*
X44143Y22166D01*
X44123Y22148D01*
X44100Y22132D01*
X44076Y22119D01*
X44050Y22110D01*
X44023Y22104D01*
X43995Y22102D01*
X43995Y22813D02*
X43467Y22813D01*
X43995Y22813D02*
X44023Y22815D01*
X44050Y22821D01*
X44076Y22830D01*
X44100Y22843D01*
X44123Y22859D01*
X44143Y22877D01*
X44161Y22899D01*
X44175Y22923D01*
X44186Y22948D01*
X44194Y22975D01*
X44198Y23002D01*
X44198Y23030D01*
X44194Y23057D01*
X44186Y23084D01*
X44175Y23109D01*
X44161Y23133D01*
X44143Y23155D01*
X44123Y23173D01*
X44100Y23189D01*
X44076Y23202D01*
X44050Y23211D01*
X44023Y23217D01*
X43995Y23219D01*
X43995Y23218D02*
X43467Y23218D01*
X43467Y23681D02*
X44197Y23681D01*
X43467Y23478D02*
X43467Y23884D01*
X43913Y24126D02*
X43913Y24612D01*
X43670Y24369D02*
X44157Y24369D01*
X49670Y22102D02*
X49995Y22102D01*
X49670Y22102D02*
X49642Y22104D01*
X49615Y22110D01*
X49589Y22119D01*
X49565Y22132D01*
X49542Y22148D01*
X49522Y22166D01*
X49504Y22188D01*
X49490Y22212D01*
X49479Y22237D01*
X49471Y22264D01*
X49467Y22291D01*
X49467Y22319D01*
X49471Y22346D01*
X49479Y22373D01*
X49490Y22398D01*
X49504Y22422D01*
X49522Y22444D01*
X49542Y22462D01*
X49565Y22478D01*
X49589Y22491D01*
X49615Y22500D01*
X49642Y22506D01*
X49670Y22508D01*
X49670Y22507D02*
X49995Y22507D01*
X49995Y22508D02*
X50023Y22506D01*
X50050Y22500D01*
X50076Y22491D01*
X50100Y22478D01*
X50123Y22462D01*
X50143Y22444D01*
X50161Y22422D01*
X50175Y22398D01*
X50186Y22373D01*
X50194Y22346D01*
X50198Y22319D01*
X50198Y22291D01*
X50194Y22264D01*
X50186Y22237D01*
X50175Y22212D01*
X50161Y22188D01*
X50143Y22166D01*
X50123Y22148D01*
X50100Y22132D01*
X50076Y22119D01*
X50050Y22110D01*
X50023Y22104D01*
X49995Y22102D01*
X49995Y22813D02*
X49467Y22813D01*
X49995Y22813D02*
X50023Y22815D01*
X50050Y22821D01*
X50076Y22830D01*
X50100Y22843D01*
X50123Y22859D01*
X50143Y22877D01*
X50161Y22899D01*
X50175Y22923D01*
X50186Y22948D01*
X50194Y22975D01*
X50198Y23002D01*
X50198Y23030D01*
X50194Y23057D01*
X50186Y23084D01*
X50175Y23109D01*
X50161Y23133D01*
X50143Y23155D01*
X50123Y23173D01*
X50100Y23189D01*
X50076Y23202D01*
X50050Y23211D01*
X50023Y23217D01*
X49995Y23219D01*
X49995Y23218D02*
X49467Y23218D01*
X49467Y23681D02*
X50197Y23681D01*
X49467Y23478D02*
X49467Y23884D01*
X49913Y24126D02*
X49913Y24612D01*
D10*
X48701Y3150D02*
X48701Y2756D01*
X48701Y3150D02*
X48701Y5512D01*
X48701Y5906D01*
X44764Y5906D01*
X44764Y5512D01*
X44764Y3150D01*
X44764Y2756D01*
X48701Y25984D02*
X48701Y26378D01*
X48701Y25984D02*
X48701Y23622D01*
X48701Y23228D01*
X44764Y23228D01*
X44764Y23622D01*
X46930Y4331D02*
X46932Y4387D01*
X46938Y4442D01*
X46948Y4496D01*
X46961Y4550D01*
X46979Y4603D01*
X47000Y4654D01*
X47024Y4704D01*
X47052Y4752D01*
X47084Y4798D01*
X47118Y4842D01*
X47156Y4883D01*
X47196Y4921D01*
X47239Y4956D01*
X47284Y4988D01*
X47332Y5017D01*
X47381Y5043D01*
X47432Y5065D01*
X47484Y5083D01*
X47538Y5097D01*
X47593Y5108D01*
X47648Y5115D01*
X47703Y5118D01*
X47759Y5117D01*
X47814Y5112D01*
X47869Y5103D01*
X47923Y5091D01*
X47976Y5074D01*
X48028Y5054D01*
X48078Y5030D01*
X48126Y5003D01*
X48173Y4973D01*
X48217Y4939D01*
X48259Y4902D01*
X48297Y4862D01*
X48334Y4820D01*
X48367Y4775D01*
X48396Y4729D01*
X48423Y4680D01*
X48445Y4629D01*
X48465Y4577D01*
X48480Y4523D01*
X48492Y4469D01*
X48500Y4414D01*
X48504Y4359D01*
X48504Y4303D01*
X48500Y4248D01*
X48492Y4193D01*
X48480Y4139D01*
X48465Y4085D01*
X48445Y4033D01*
X48423Y3982D01*
X48396Y3933D01*
X48367Y3887D01*
X48334Y3842D01*
X48297Y3800D01*
X48259Y3760D01*
X48217Y3723D01*
X48173Y3689D01*
X48126Y3659D01*
X48078Y3632D01*
X48028Y3608D01*
X47976Y3588D01*
X47923Y3571D01*
X47869Y3559D01*
X47814Y3550D01*
X47759Y3545D01*
X47703Y3544D01*
X47648Y3547D01*
X47593Y3554D01*
X47538Y3565D01*
X47484Y3579D01*
X47432Y3597D01*
X47381Y3619D01*
X47332Y3645D01*
X47284Y3674D01*
X47239Y3706D01*
X47196Y3741D01*
X47156Y3779D01*
X47118Y3820D01*
X47084Y3864D01*
X47052Y3910D01*
X47024Y3958D01*
X47000Y4008D01*
X46979Y4059D01*
X46961Y4112D01*
X46948Y4166D01*
X46938Y4220D01*
X46932Y4275D01*
X46930Y4331D01*
X44961Y4331D02*
X44963Y4387D01*
X44969Y4442D01*
X44979Y4496D01*
X44992Y4550D01*
X45010Y4603D01*
X45031Y4654D01*
X45055Y4704D01*
X45083Y4752D01*
X45115Y4798D01*
X45149Y4842D01*
X45187Y4883D01*
X45227Y4921D01*
X45270Y4956D01*
X45315Y4988D01*
X45363Y5017D01*
X45412Y5043D01*
X45463Y5065D01*
X45515Y5083D01*
X45569Y5097D01*
X45624Y5108D01*
X45679Y5115D01*
X45734Y5118D01*
X45790Y5117D01*
X45845Y5112D01*
X45900Y5103D01*
X45954Y5091D01*
X46007Y5074D01*
X46059Y5054D01*
X46109Y5030D01*
X46157Y5003D01*
X46204Y4973D01*
X46248Y4939D01*
X46290Y4902D01*
X46328Y4862D01*
X46365Y4820D01*
X46398Y4775D01*
X46427Y4729D01*
X46454Y4680D01*
X46476Y4629D01*
X46496Y4577D01*
X46511Y4523D01*
X46523Y4469D01*
X46531Y4414D01*
X46535Y4359D01*
X46535Y4303D01*
X46531Y4248D01*
X46523Y4193D01*
X46511Y4139D01*
X46496Y4085D01*
X46476Y4033D01*
X46454Y3982D01*
X46427Y3933D01*
X46398Y3887D01*
X46365Y3842D01*
X46328Y3800D01*
X46290Y3760D01*
X46248Y3723D01*
X46204Y3689D01*
X46157Y3659D01*
X46109Y3632D01*
X46059Y3608D01*
X46007Y3588D01*
X45954Y3571D01*
X45900Y3559D01*
X45845Y3550D01*
X45790Y3545D01*
X45734Y3544D01*
X45679Y3547D01*
X45624Y3554D01*
X45569Y3565D01*
X45515Y3579D01*
X45463Y3597D01*
X45412Y3619D01*
X45363Y3645D01*
X45315Y3674D01*
X45270Y3706D01*
X45227Y3741D01*
X45187Y3779D01*
X45149Y3820D01*
X45115Y3864D01*
X45083Y3910D01*
X45055Y3958D01*
X45031Y4008D01*
X45010Y4059D01*
X44992Y4112D01*
X44979Y4166D01*
X44969Y4220D01*
X44963Y4275D01*
X44961Y4331D01*
X44764Y23622D02*
X44764Y25984D01*
X44764Y26378D01*
X44764Y3150D02*
X48701Y3150D01*
X48701Y5512D02*
X44764Y5512D01*
D14*
X47323Y3937D02*
X48110Y4724D01*
X48110Y3937D02*
X47323Y4724D01*
X46142Y3937D02*
X45354Y4724D01*
X45354Y3937D02*
X46142Y4724D01*
D10*
X46930Y24803D02*
X46932Y24859D01*
X46938Y24914D01*
X46948Y24968D01*
X46961Y25022D01*
X46979Y25075D01*
X47000Y25126D01*
X47024Y25176D01*
X47052Y25224D01*
X47084Y25270D01*
X47118Y25314D01*
X47156Y25355D01*
X47196Y25393D01*
X47239Y25428D01*
X47284Y25460D01*
X47332Y25489D01*
X47381Y25515D01*
X47432Y25537D01*
X47484Y25555D01*
X47538Y25569D01*
X47593Y25580D01*
X47648Y25587D01*
X47703Y25590D01*
X47759Y25589D01*
X47814Y25584D01*
X47869Y25575D01*
X47923Y25563D01*
X47976Y25546D01*
X48028Y25526D01*
X48078Y25502D01*
X48126Y25475D01*
X48173Y25445D01*
X48217Y25411D01*
X48259Y25374D01*
X48297Y25334D01*
X48334Y25292D01*
X48367Y25247D01*
X48396Y25201D01*
X48423Y25152D01*
X48445Y25101D01*
X48465Y25049D01*
X48480Y24995D01*
X48492Y24941D01*
X48500Y24886D01*
X48504Y24831D01*
X48504Y24775D01*
X48500Y24720D01*
X48492Y24665D01*
X48480Y24611D01*
X48465Y24557D01*
X48445Y24505D01*
X48423Y24454D01*
X48396Y24405D01*
X48367Y24359D01*
X48334Y24314D01*
X48297Y24272D01*
X48259Y24232D01*
X48217Y24195D01*
X48173Y24161D01*
X48126Y24131D01*
X48078Y24104D01*
X48028Y24080D01*
X47976Y24060D01*
X47923Y24043D01*
X47869Y24031D01*
X47814Y24022D01*
X47759Y24017D01*
X47703Y24016D01*
X47648Y24019D01*
X47593Y24026D01*
X47538Y24037D01*
X47484Y24051D01*
X47432Y24069D01*
X47381Y24091D01*
X47332Y24117D01*
X47284Y24146D01*
X47239Y24178D01*
X47196Y24213D01*
X47156Y24251D01*
X47118Y24292D01*
X47084Y24336D01*
X47052Y24382D01*
X47024Y24430D01*
X47000Y24480D01*
X46979Y24531D01*
X46961Y24584D01*
X46948Y24638D01*
X46938Y24692D01*
X46932Y24747D01*
X46930Y24803D01*
X44961Y24803D02*
X44963Y24859D01*
X44969Y24914D01*
X44979Y24968D01*
X44992Y25022D01*
X45010Y25075D01*
X45031Y25126D01*
X45055Y25176D01*
X45083Y25224D01*
X45115Y25270D01*
X45149Y25314D01*
X45187Y25355D01*
X45227Y25393D01*
X45270Y25428D01*
X45315Y25460D01*
X45363Y25489D01*
X45412Y25515D01*
X45463Y25537D01*
X45515Y25555D01*
X45569Y25569D01*
X45624Y25580D01*
X45679Y25587D01*
X45734Y25590D01*
X45790Y25589D01*
X45845Y25584D01*
X45900Y25575D01*
X45954Y25563D01*
X46007Y25546D01*
X46059Y25526D01*
X46109Y25502D01*
X46157Y25475D01*
X46204Y25445D01*
X46248Y25411D01*
X46290Y25374D01*
X46328Y25334D01*
X46365Y25292D01*
X46398Y25247D01*
X46427Y25201D01*
X46454Y25152D01*
X46476Y25101D01*
X46496Y25049D01*
X46511Y24995D01*
X46523Y24941D01*
X46531Y24886D01*
X46535Y24831D01*
X46535Y24775D01*
X46531Y24720D01*
X46523Y24665D01*
X46511Y24611D01*
X46496Y24557D01*
X46476Y24505D01*
X46454Y24454D01*
X46427Y24405D01*
X46398Y24359D01*
X46365Y24314D01*
X46328Y24272D01*
X46290Y24232D01*
X46248Y24195D01*
X46204Y24161D01*
X46157Y24131D01*
X46109Y24104D01*
X46059Y24080D01*
X46007Y24060D01*
X45954Y24043D01*
X45900Y24031D01*
X45845Y24022D01*
X45790Y24017D01*
X45734Y24016D01*
X45679Y24019D01*
X45624Y24026D01*
X45569Y24037D01*
X45515Y24051D01*
X45463Y24069D01*
X45412Y24091D01*
X45363Y24117D01*
X45315Y24146D01*
X45270Y24178D01*
X45227Y24213D01*
X45187Y24251D01*
X45149Y24292D01*
X45115Y24336D01*
X45083Y24382D01*
X45055Y24430D01*
X45031Y24480D01*
X45010Y24531D01*
X44992Y24584D01*
X44979Y24638D01*
X44969Y24692D01*
X44963Y24747D01*
X44961Y24803D01*
D14*
X47323Y24409D02*
X48110Y25197D01*
X47323Y25197D02*
X48110Y24409D01*
X46142Y24409D02*
X45354Y25197D01*
X45354Y24409D02*
X46142Y25197D01*
D10*
X44764Y23622D02*
X48701Y23622D01*
X48701Y25984D02*
X44764Y25984D01*
D15*
X7638Y9709D02*
X7638Y7661D01*
X7638Y9709D02*
X10276Y9709D01*
X10709Y9709D02*
X11339Y9709D01*
X11339Y7661D01*
X7638Y7661D01*
X10275Y9709D02*
X10277Y9737D01*
X10282Y9765D01*
X10292Y9792D01*
X10304Y9818D01*
X10320Y9841D01*
X10339Y9862D01*
X10360Y9881D01*
X10384Y9897D01*
X10409Y9909D01*
X10436Y9919D01*
X10464Y9924D01*
X10492Y9926D01*
X10520Y9924D01*
X10548Y9919D01*
X10575Y9909D01*
X10601Y9897D01*
X10624Y9881D01*
X10645Y9862D01*
X10664Y9841D01*
X10680Y9818D01*
X10692Y9792D01*
X10702Y9765D01*
X10707Y9737D01*
X10709Y9709D01*
X27346Y18898D02*
X27346Y20945D01*
X27346Y18898D02*
X24709Y18898D01*
X24276Y18898D02*
X23646Y18898D01*
X23646Y20945D01*
X27346Y20945D01*
X24709Y18898D02*
X24707Y18870D01*
X24702Y18842D01*
X24692Y18815D01*
X24680Y18790D01*
X24664Y18766D01*
X24645Y18745D01*
X24624Y18726D01*
X24601Y18710D01*
X24575Y18698D01*
X24548Y18688D01*
X24520Y18683D01*
X24492Y18681D01*
X24464Y18683D01*
X24436Y18688D01*
X24409Y18698D01*
X24384Y18710D01*
X24360Y18726D01*
X24339Y18745D01*
X24320Y18766D01*
X24304Y18790D01*
X24292Y18815D01*
X24282Y18842D01*
X24277Y18870D01*
X24275Y18898D01*
D16*
X11027Y15043D02*
X9247Y15043D01*
X9247Y16543D02*
X11027Y16543D01*
D17*
X10464Y15793D02*
X10061Y15400D01*
X10464Y15793D02*
X10061Y16187D01*
X10061Y15400D01*
D16*
X48134Y13792D02*
X49914Y13792D01*
X49914Y15292D02*
X48134Y15292D01*
D17*
X48948Y14148D02*
X49351Y14542D01*
X48948Y14936D01*
X48948Y14148D01*
D18*
X41732Y11201D02*
X38268Y11201D01*
X38268Y6043D01*
X41732Y6043D01*
X42913Y11201D02*
X43819Y11201D01*
X43819Y6043D01*
X42913Y6043D01*
D16*
X39190Y11482D02*
X39190Y11942D01*
X39318Y11942D01*
X39339Y11940D01*
X39360Y11935D01*
X39379Y11927D01*
X39397Y11915D01*
X39412Y11901D01*
X39425Y11884D01*
X39435Y11865D01*
X39442Y11845D01*
X39446Y11825D01*
X39446Y11803D01*
X39442Y11783D01*
X39435Y11763D01*
X39425Y11744D01*
X39412Y11727D01*
X39397Y11713D01*
X39379Y11701D01*
X39360Y11693D01*
X39339Y11688D01*
X39318Y11686D01*
X39190Y11686D01*
X39619Y11840D02*
X39747Y11942D01*
X39747Y11482D01*
X39619Y11482D02*
X39875Y11482D01*
D19*
X2860Y15500D02*
X2360Y15500D01*
X2860Y15500D02*
X3110Y15250D01*
X3110Y14750D01*
X2860Y14500D01*
X2110Y14750D02*
X2110Y15250D01*
X2360Y15500D01*
X2110Y14750D02*
X2360Y14500D01*
X2860Y14500D01*
X3110Y15250D02*
X3360Y15500D01*
X3860Y15500D01*
X4110Y15250D01*
X4110Y14750D01*
X3860Y14500D01*
X3360Y14500D01*
X3110Y14750D01*
D10*
X2255Y15845D02*
X2255Y16195D01*
X2255Y15845D02*
X2253Y15828D01*
X2249Y15811D01*
X2242Y15795D01*
X2232Y15781D01*
X2219Y15768D01*
X2205Y15758D01*
X2189Y15751D01*
X2172Y15747D01*
X2155Y15745D01*
X2105Y15745D01*
X2491Y15745D02*
X2491Y16195D01*
X2616Y16195D01*
X2637Y16193D01*
X2657Y16188D01*
X2675Y16180D01*
X2693Y16169D01*
X2708Y16155D01*
X2721Y16138D01*
X2730Y16120D01*
X2737Y16101D01*
X2741Y16080D01*
X2741Y16060D01*
X2737Y16039D01*
X2730Y16020D01*
X2721Y16002D01*
X2708Y15985D01*
X2693Y15971D01*
X2675Y15960D01*
X2657Y15952D01*
X2637Y15947D01*
X2616Y15945D01*
X2491Y15945D01*
X2918Y16095D02*
X3043Y16195D01*
X3043Y15745D01*
X2918Y15745D02*
X3168Y15745D01*
D19*
X2978Y13807D02*
X2478Y13807D01*
X2978Y13807D02*
X3228Y13557D01*
X3228Y13057D01*
X2978Y12807D01*
X2228Y13057D02*
X2228Y13557D01*
X2478Y13807D01*
X2228Y13057D02*
X2478Y12807D01*
X2978Y12807D01*
X3228Y13557D02*
X3478Y13807D01*
X3978Y13807D01*
X4228Y13557D01*
X4228Y13057D01*
X3978Y12807D01*
X3478Y12807D01*
X3228Y13057D01*
D10*
X2373Y14152D02*
X2373Y14502D01*
X2373Y14152D02*
X2371Y14135D01*
X2367Y14118D01*
X2360Y14102D01*
X2350Y14088D01*
X2337Y14075D01*
X2323Y14065D01*
X2307Y14058D01*
X2290Y14054D01*
X2273Y14052D01*
X2223Y14052D01*
X2609Y14052D02*
X2609Y14502D01*
X2734Y14502D01*
X2755Y14500D01*
X2775Y14495D01*
X2793Y14487D01*
X2811Y14476D01*
X2826Y14462D01*
X2839Y14445D01*
X2848Y14427D01*
X2855Y14408D01*
X2859Y14387D01*
X2859Y14367D01*
X2855Y14346D01*
X2848Y14327D01*
X2839Y14309D01*
X2826Y14292D01*
X2811Y14278D01*
X2793Y14267D01*
X2775Y14259D01*
X2755Y14254D01*
X2734Y14252D01*
X2609Y14252D01*
X3174Y14503D02*
X3194Y14501D01*
X3213Y14496D01*
X3231Y14488D01*
X3247Y14477D01*
X3261Y14463D01*
X3272Y14447D01*
X3280Y14429D01*
X3285Y14410D01*
X3287Y14390D01*
X3174Y14503D02*
X3151Y14501D01*
X3129Y14496D01*
X3108Y14487D01*
X3089Y14475D01*
X3071Y14460D01*
X3057Y14443D01*
X3045Y14424D01*
X3036Y14403D01*
X3248Y14302D02*
X3261Y14317D01*
X3272Y14333D01*
X3280Y14351D01*
X3284Y14370D01*
X3286Y14390D01*
X3249Y14302D02*
X3036Y14052D01*
X3286Y14052D01*
D19*
X2900Y17508D02*
X2400Y17508D01*
X2900Y17508D02*
X3150Y17258D01*
X3150Y16758D01*
X2900Y16508D01*
X2150Y16758D02*
X2150Y17258D01*
X2400Y17508D01*
X2150Y16758D02*
X2400Y16508D01*
X2900Y16508D01*
X3150Y17258D02*
X3400Y17508D01*
X3900Y17508D01*
X4150Y17258D01*
X4150Y16758D01*
X3900Y16508D01*
X3400Y16508D01*
X3150Y16758D01*
D10*
X2610Y17932D02*
X2610Y18282D01*
X2610Y17932D02*
X2608Y17915D01*
X2604Y17898D01*
X2597Y17882D01*
X2587Y17868D01*
X2574Y17855D01*
X2560Y17845D01*
X2544Y17838D01*
X2527Y17834D01*
X2510Y17832D01*
X2460Y17832D01*
X2845Y17832D02*
X2845Y18282D01*
X2970Y18282D01*
X2991Y18280D01*
X3011Y18275D01*
X3029Y18267D01*
X3047Y18256D01*
X3062Y18242D01*
X3075Y18225D01*
X3084Y18207D01*
X3091Y18188D01*
X3095Y18167D01*
X3095Y18147D01*
X3091Y18126D01*
X3084Y18107D01*
X3075Y18089D01*
X3062Y18072D01*
X3047Y18058D01*
X3029Y18047D01*
X3011Y18039D01*
X2991Y18034D01*
X2970Y18032D01*
X2845Y18032D01*
X3273Y17832D02*
X3398Y17832D01*
X3419Y17834D01*
X3439Y17839D01*
X3457Y17847D01*
X3475Y17858D01*
X3490Y17872D01*
X3503Y17889D01*
X3512Y17907D01*
X3519Y17926D01*
X3523Y17947D01*
X3523Y17967D01*
X3519Y17988D01*
X3512Y18007D01*
X3503Y18025D01*
X3490Y18042D01*
X3475Y18056D01*
X3457Y18067D01*
X3439Y18075D01*
X3419Y18080D01*
X3398Y18082D01*
X3423Y18282D02*
X3273Y18282D01*
X3423Y18282D02*
X3441Y18280D01*
X3459Y18275D01*
X3476Y18267D01*
X3490Y18256D01*
X3503Y18242D01*
X3513Y18227D01*
X3519Y18209D01*
X3523Y18191D01*
X3523Y18173D01*
X3519Y18155D01*
X3513Y18137D01*
X3503Y18122D01*
X3490Y18108D01*
X3476Y18097D01*
X3459Y18089D01*
X3441Y18084D01*
X3423Y18082D01*
X3323Y18082D01*
D19*
X44963Y17488D02*
X45213Y17738D01*
X45213Y18238D02*
X44963Y18488D01*
X45213Y18738D01*
X45213Y19238D02*
X44963Y19488D01*
X45213Y19738D01*
X45213Y20238D02*
X44963Y20488D01*
X44963Y17488D02*
X43463Y17488D01*
X43213Y17738D01*
X43213Y18238D01*
X43463Y18488D01*
X43213Y18738D01*
X43213Y19238D01*
X43463Y19488D01*
X43213Y19738D01*
X43213Y20238D01*
X43463Y20488D01*
X43463Y18488D02*
X44963Y18488D01*
X44963Y19488D02*
X43463Y19488D01*
X43463Y20488D02*
X44963Y20488D01*
X45213Y20238D02*
X45213Y19738D01*
X45213Y19238D02*
X45213Y18738D01*
X45213Y18238D02*
X45213Y17738D01*
X44963Y20488D02*
X45213Y20738D01*
X45213Y21238D02*
X44963Y21488D01*
X43463Y20488D02*
X43213Y20738D01*
X43213Y21238D01*
X43463Y21488D01*
X44963Y21488D01*
X45213Y21238D02*
X45213Y20738D01*
D10*
X42838Y17663D02*
X42488Y17663D01*
X42838Y17663D02*
X42855Y17661D01*
X42872Y17657D01*
X42888Y17650D01*
X42902Y17640D01*
X42915Y17627D01*
X42925Y17613D01*
X42932Y17597D01*
X42936Y17580D01*
X42938Y17563D01*
X42938Y17513D01*
X42938Y17899D02*
X42488Y17899D01*
X42488Y18024D01*
X42490Y18045D01*
X42495Y18065D01*
X42503Y18083D01*
X42514Y18101D01*
X42528Y18116D01*
X42545Y18129D01*
X42563Y18138D01*
X42582Y18145D01*
X42603Y18149D01*
X42623Y18149D01*
X42644Y18145D01*
X42663Y18138D01*
X42681Y18129D01*
X42698Y18116D01*
X42712Y18101D01*
X42723Y18083D01*
X42731Y18065D01*
X42736Y18045D01*
X42738Y18024D01*
X42738Y17899D01*
X42838Y18326D02*
X42488Y18426D01*
X42838Y18326D02*
X42838Y18576D01*
X42738Y18501D02*
X42938Y18501D01*
X21063Y28268D02*
X21063Y30315D01*
X21063Y28268D02*
X24571Y28268D01*
X25079Y28791D01*
X25079Y29791D01*
X24571Y30315D01*
X21063Y30315D01*
X21321Y29429D02*
X21321Y29154D01*
X21457Y29291D02*
X21181Y29291D01*
X24671Y29291D02*
X24921Y29291D01*
X27795Y28346D02*
X27795Y30394D01*
X27795Y28346D02*
X31303Y28346D01*
X31811Y28870D01*
X31811Y29870D01*
X31303Y30394D01*
X27795Y30394D01*
X28053Y29508D02*
X28053Y29232D01*
X28189Y29370D02*
X27913Y29370D01*
X31403Y29370D02*
X31653Y29370D01*
D15*
X29094Y21024D02*
X29094Y18976D01*
X29094Y21024D02*
X31732Y21024D01*
X32165Y21024D02*
X32795Y21024D01*
X32795Y18976D01*
X29094Y18976D01*
X31732Y21024D02*
X31734Y21052D01*
X31739Y21080D01*
X31749Y21107D01*
X31761Y21133D01*
X31777Y21156D01*
X31796Y21177D01*
X31817Y21196D01*
X31841Y21212D01*
X31866Y21224D01*
X31893Y21234D01*
X31921Y21239D01*
X31949Y21241D01*
X31977Y21239D01*
X32005Y21234D01*
X32032Y21224D01*
X32058Y21212D01*
X32081Y21196D01*
X32102Y21177D01*
X32121Y21156D01*
X32137Y21133D01*
X32149Y21107D01*
X32159Y21080D01*
X32164Y21052D01*
X32166Y21024D01*
D16*
X28846Y19520D02*
X28386Y19827D01*
X28386Y19520D02*
X28846Y19827D01*
X28488Y19996D02*
X28386Y20123D01*
X28846Y20123D01*
X28846Y19996D02*
X28846Y20251D01*
X22951Y15929D02*
X22951Y14149D01*
X24451Y14149D02*
X24451Y15929D01*
D17*
X23307Y15115D02*
X23701Y14713D01*
X24094Y15115D01*
X23307Y15115D01*
D16*
X22831Y14209D02*
X22371Y14209D01*
X22371Y14337D01*
X22373Y14357D01*
X22377Y14377D01*
X22385Y14395D01*
X22395Y14412D01*
X22408Y14428D01*
X22424Y14441D01*
X22441Y14451D01*
X22459Y14459D01*
X22479Y14463D01*
X22499Y14465D01*
X22703Y14465D01*
X22723Y14463D01*
X22743Y14459D01*
X22761Y14451D01*
X22778Y14441D01*
X22794Y14428D01*
X22807Y14412D01*
X22817Y14395D01*
X22825Y14377D01*
X22829Y14357D01*
X22831Y14337D01*
X22831Y14209D01*
X22729Y14674D02*
X22371Y14777D01*
X22729Y14674D02*
X22729Y14930D01*
X22831Y14853D02*
X22626Y14853D01*
X27030Y13969D02*
X27030Y13509D01*
X27030Y13969D02*
X27158Y13969D01*
X27158Y13970D02*
X27179Y13968D01*
X27200Y13963D01*
X27219Y13955D01*
X27237Y13943D01*
X27252Y13929D01*
X27265Y13912D01*
X27275Y13893D01*
X27282Y13873D01*
X27286Y13853D01*
X27286Y13831D01*
X27282Y13811D01*
X27275Y13791D01*
X27265Y13772D01*
X27252Y13755D01*
X27237Y13741D01*
X27219Y13729D01*
X27200Y13721D01*
X27179Y13716D01*
X27158Y13714D01*
X27030Y13714D01*
X27184Y13714D02*
X27286Y13509D01*
X27477Y13612D02*
X27580Y13969D01*
X27477Y13612D02*
X27733Y13612D01*
X27656Y13714D02*
X27656Y13509D01*
M02*
