G04 EAGLE Gerber RS-274X export*
G75*
%MOIN*%
%FSLAX34Y34*%
%LPD*%
%INSoldermask Top*%
%IPPOS*%
%AMOC8*
5,1,8,0,0,1.08239X$1,22.5*%
G01*
%ADD10C,0.126110*%
%ADD11C,0.128000*%
%ADD12C,0.145795*%
%ADD13R,0.090677X0.090677*%
%ADD14R,0.102488X0.102488*%
%ADD15R,0.086740X0.106425*%
%ADD16R,0.106425X0.086740*%
%ADD17R,0.064220X0.064220*%
%ADD18C,0.064220*%
%ADD19C,0.098551*%
%ADD20C,0.068000*%
%ADD21P,0.073603X8X112.500000*%
%ADD22C,0.114299*%


D10*
X1575Y29921D03*
X1575Y1575D03*
X53543Y29921D03*
X53543Y1575D03*
D11*
X6036Y3572D03*
X12036Y3562D03*
X6074Y25572D03*
X12074Y25562D03*
D12*
X2935Y4145D03*
X2971Y25011D03*
X15176Y24989D03*
X15139Y4123D03*
D11*
X24953Y3567D03*
X30953Y3567D03*
X24953Y25567D03*
X30953Y25567D03*
D12*
X21850Y4134D03*
X21850Y25000D03*
X34055Y25000D03*
X34055Y4134D03*
D11*
X43732Y3567D03*
X49732Y3567D03*
X43732Y25567D03*
X49732Y25567D03*
D12*
X40630Y4134D03*
X40630Y25000D03*
X52835Y25000D03*
X52835Y4134D03*
D13*
X10236Y8685D03*
X8583Y8685D03*
X24748Y19921D03*
X26402Y19921D03*
D14*
X11003Y15793D03*
X9271Y15793D03*
X49890Y14542D03*
X48158Y14542D03*
D15*
X6851Y16773D03*
X6851Y15573D03*
D16*
X43634Y14587D03*
X44834Y14587D03*
D17*
X43390Y10000D03*
D18*
X43390Y9016D03*
X43390Y8228D03*
X43390Y7244D03*
D19*
X42323Y11209D03*
X42323Y6035D03*
D20*
X2610Y14700D02*
X2610Y15300D01*
X3610Y15300D02*
X3610Y14700D01*
X2728Y13607D02*
X2728Y13007D01*
X3728Y13007D02*
X3728Y13607D01*
X2650Y16708D02*
X2650Y17308D01*
X3650Y17308D02*
X3650Y16708D01*
D21*
X44713Y17988D03*
X43713Y17988D03*
X44713Y18988D03*
X43713Y18988D03*
X44713Y19988D03*
X43713Y19988D03*
X44713Y20988D03*
X43713Y20988D03*
D22*
X22087Y29291D03*
X24055Y29291D03*
X28819Y29370D03*
X30787Y29370D03*
D13*
X31693Y20000D03*
X30039Y20000D03*
D14*
X23701Y14173D03*
X23701Y15906D03*
D16*
X26584Y15827D03*
X25384Y15827D03*
M02*
