M48
FMAT,2
INCH,TZ,000.000
T9C0.036
T8C0.040
T7C0.055
T6C0.059
T5C0.071
T4C0.091
T3C0.118
T2C0.138
%
G90
M72
T2
X297Y2501
X293Y414
X5283Y413
X5283Y2500
X4063Y2500
X4063Y413
X3406Y413
X3406Y2500
X2185Y2500
X2185Y413
X1514Y412
X1518Y2499
T3
X5354Y157
X157Y2992
X157Y157
X5354Y2992
T4
X4232Y604
X4232Y1121
T5
X3079Y2937
X2882Y2937
X2406Y2929
X2209Y2929
T6
X4973Y2557
X4373Y2557
X4973Y357
X4373Y357
X2495Y2557
X3095Y357
X2495Y357
X3095Y2557
X604Y357
X1204Y356
X607Y2557
X1207Y2556
T7
X3004Y2000
X3169Y2000
X1024Y869
X858Y869
X2475Y1992
X2640Y1992
T8
X4371Y1899
X4371Y2099
X4471Y2099
X4371Y1999
X4471Y1999
X4471Y1899
X4371Y1799
X4471Y1799
X365Y1701
X265Y1701
X373Y1331
X273Y1331
X361Y1500
X261Y1500
T9
X4339Y823
X4339Y902
X4339Y1000
X4339Y724
M30
