M48
;GenerationSoftware,Autodesk,EAGLE,9.6.2*%
;CreationDate,2022-05-02T20:09:11Z*%
FMAT,2
ICI,OFF
INCH,TZ,000.000
T7C0.020
T6C0.036
T5C0.040
T4C0.044
T3C0.071
T2C0.118
%
G90
M72
T2
X7717Y157
X157Y157
X7717Y6929
X157Y6929
T3
X5809Y850
X7283Y850
X5717Y4538
X5883Y4538
X3067Y4617
X3233Y4617
X3891Y850
X4057Y850
X7047Y4878
X5974Y850
X6417Y4499
X6583Y4499
X5017Y4538
X5183Y4538
X3717Y4617
X3883Y4617
X2417Y4617
X2583Y4617
X7300Y6130
X7300Y6295
X7117Y850
X7047Y5043
X7087Y5429
X7087Y5594
X591Y5319
X591Y5154
X591Y4768
X591Y4602
X1693Y5902
X1024Y5949
X1024Y5783
X2450Y850
X2285Y850
X1067Y6689
X1067Y6524
X1693Y6067
T4
X3989Y5897
X3989Y5997
X3989Y6097
X3989Y6197
X4389Y6297
X4289Y5697
X4189Y5697
X4089Y5697
X3989Y5697
X3889Y5697
X3789Y5697
X3689Y5697
X3989Y5797
X5139Y6177
X5239Y6177
X5339Y6177
X5439Y6177
X5589Y5697
X5789Y5697
X5689Y6297
X5689Y5797
X4389Y5697
X5689Y5697
X5789Y6297
X5539Y6177
X4789Y6297
X3589Y5697
X4789Y5697
X4689Y5697
X4589Y5697
X4489Y5697
X4489Y6297
X4589Y6297
X4689Y6297
X3489Y5697
X4889Y6297
X4989Y6297
X5089Y6297
X5189Y6297
X5289Y6297
X5389Y6297
X5489Y6297
X5589Y6297
X4989Y5697
X4889Y5697
X3489Y6297
X3589Y6297
X3689Y6297
X3789Y6297
X3889Y6297
X3989Y6297
X4089Y6297
X4289Y6297
X5489Y5697
X5389Y5697
X5289Y5697
X5189Y5697
X5089Y5697
X4189Y6297
T5
X4900Y3553
X4900Y3453
X4900Y3353
X4900Y3253
X4900Y3153
X4900Y3053
X4900Y2903
X4900Y2803
X4900Y2703
X4900Y2603
X4900Y2503
X4900Y2403
X4900Y2303
X4900Y2203
X4900Y2103
X4900Y2003
X6800Y2453
X6800Y3053
X1341Y1704
X1241Y1604
X1341Y1604
X6800Y2553
X6800Y2653
X6800Y2753
X6800Y2853
X6800Y2953
X4900Y3653
X6800Y3253
X6800Y3353
X6800Y3453
X6800Y3553
X6800Y3653
X6800Y3753
X4900Y3753
X2250Y2403
X2250Y3253
X2250Y3153
X2250Y3053
X2250Y2903
X2250Y2803
X2250Y2703
X2250Y2603
X2250Y2503
X2250Y3353
X2250Y2303
X2250Y2203
X2250Y2103
X2250Y2003
X4150Y2453
X4150Y2353
X1341Y3404
X4150Y3453
X4150Y2553
X4150Y2653
X4150Y2753
X4150Y2853
X4150Y2953
X4150Y3053
X4150Y3253
X4150Y3353
X6800Y2353
X4150Y3553
X4150Y3653
X4150Y3753
X2250Y3753
X2250Y3653
X2250Y3553
X2250Y3453
X500Y2103
X600Y2603
X500Y2503
X600Y2503
X500Y2403
X600Y2403
X500Y2303
X600Y2303
X500Y2203
X600Y2203
X500Y2603
X600Y2103
X500Y2003
X600Y2003
X500Y1903
X600Y1903
X500Y1803
X600Y1803
X500Y1703
X600Y1703
X600Y3103
X500Y3503
X600Y3503
X500Y3403
X600Y3403
X500Y3303
X600Y3303
X500Y3203
X600Y3203
X500Y3103
X1341Y1804
X500Y3003
X600Y3003
X500Y2903
X600Y2903
X500Y2803
X600Y2803
X500Y2703
X600Y2703
X1341Y2204
X1241Y2604
X1341Y2604
X1241Y2504
X1341Y2504
X1241Y2404
X1341Y2404
X1241Y2304
X1341Y2304
X1241Y2204
X600Y1603
X1241Y2104
X1341Y2104
X1241Y2004
X1341Y2004
X1241Y1904
X1341Y1904
X1241Y1804
X1241Y1704
X1241Y2704
X500Y1603
X1241Y3504
X1341Y3504
X1241Y3404
X1341Y2704
X1241Y3304
X1341Y3304
X1241Y3204
X1341Y3204
X1341Y3104
X1241Y3004
X1341Y3004
X1241Y2904
X1341Y2904
X1241Y2804
X1341Y2804
X1241Y3104
T6
X1048Y855
X1148Y755
X1148Y855
X1248Y755
X1248Y855
X1048Y755
X948Y755
X948Y855
T7
X2606Y6268
X1912Y6692
X2362Y5157
X4256Y4009
X3875Y4332
X7341Y5705
X6918Y5892
X5512Y6061
X6300Y4259
X2323Y5315
X3914Y4256
X6289Y6175
X6289Y5529
X7501Y5629
X4993Y5926
X4915Y5964
X2147Y3477
X6745Y5716
M30