M48
;GenerationSoftware,Autodesk,EAGLE,9.6.2*%
;CreationDate,2023-03-10T14:20:42Z*%
FMAT,2
ICI,OFF
INCH,TZ,000.000
T10C0.014
T9C0.028
T8C0.029
T7C0.040
T6C0.052
T5C0.071
T4C0.118
T3C0.179
T2C0.236
%
G90
M72
T2
X3110Y807
X3110Y374
T3
X748Y717
X5084Y921
X5084Y638
X4283Y933
X4283Y650
X1929Y976
X1929Y693
X748Y1000
T4
X5709Y197
X197Y197
X5709Y4528
X197Y4528
T5
X5513Y1339
X189Y1161
X189Y1327
X5513Y1504
X5520Y2673
X5520Y2508
X5513Y2075
X5513Y1909
X276Y2071
X276Y1906
X5520Y3283
X5520Y3118
T6
X4253Y2226
X3833Y2226
X3633Y2226
X4453Y2226
X4253Y1654
X4453Y1654
X3633Y1654
X3833Y1654
T7
X3956Y4461
X1858Y3307
X840Y2543
X690Y1579
X790Y1579
X890Y1579
X990Y1579
X1658Y3307
X2991Y1579
X2891Y1579
X2791Y1579
X98Y2885
X198Y2885
X298Y2885
X3756Y4461
X3856Y4461
X1758Y3307
X664Y4429
X764Y4429
X864Y4429
X4823Y4461
X4923Y4461
X5023Y4461
X2691Y1579
X2591Y1579
X2043Y1579
X1943Y1579
X1843Y1579
X1743Y1579
X1643Y1579
X1090Y1579
X2841Y2543
X2912Y4272
X2812Y4272
X2712Y4272
X2008Y4272
X1908Y4272
X1808Y4272
X1708Y4272
X2941Y2543
X3012Y4272
X2741Y2543
X2641Y2543
X1993Y2543
X1893Y2543
X1793Y2543
X1693Y2543
X1040Y2543
X940Y2543
X740Y2543
X1958Y3307
X2058Y3307
X2662Y3287
X2762Y3287
X2862Y3287
X2962Y3287
X3062Y3287
T8
X5563Y988
X5563Y752
X5563Y811
X5563Y870
X5563Y929
T9
X5541Y3792
X5541Y3851
X5541Y3910
X5541Y3969
X3819Y651
X3819Y710
X3819Y770
X3819Y829
X5559Y270
X5559Y329
X5559Y388
X5559Y447
X2638Y829
X2638Y770
X2638Y710
X2638Y651
X1457Y829
X1457Y770
X1457Y710
X1457Y651
X276Y829
X276Y770
X276Y710
X276Y651
T10
X2748Y3035
X2744Y2921
X2744Y2787
X2331Y4055
M30