M48
FMAT,2
INCH,TZ,000.000
T7C0.020
T6C0.040
T5C0.044
T4C0.056
T3C0.071
T2C0.118
%
G90
M72
T2
X5394Y3729
X197Y197
X5906Y5906
X197Y5906
X5906Y197
X5512Y2598
X1102Y2598
X5512Y4528
X1102Y4528
X5158Y3729
X4280Y3729
X4517Y3729
X2145Y3808
X2382Y3808
X1158Y3808
X1394Y3808
T3
X5194Y3144
X4494Y3144
X389Y2840
X389Y2675
X4659Y3144
X1844Y3144
X2009Y3144
X385Y3507
X550Y3507
X3794Y3144
X5359Y3144
X3959Y3144
X2494Y3144
X2659Y3144
X1194Y3144
X1359Y3144
T4
X1218Y5503
X618Y5503
X1216Y4917
X616Y4917
T5
X2772Y5067
X2572Y5067
X2672Y5067
X2572Y5467
X2872Y5067
X2972Y5667
X2572Y5567
X2272Y5667
X2472Y5067
X2372Y5067
X2272Y5067
X2172Y5067
X2072Y5067
X2072Y5667
X2172Y5667
X3172Y5667
X2572Y5367
X2572Y5267
X2572Y5167
X3722Y5547
X3822Y5547
X3922Y5547
X4022Y5547
X4122Y5547
X4172Y5067
X4372Y5067
X4272Y5667
X4272Y5167
X2972Y5067
X4272Y5067
X4372Y5667
X2472Y5667
X4172Y5667
X4072Y5667
X3972Y5667
X3872Y5667
X3772Y5667
X3672Y5667
X3572Y5667
X3472Y5667
X3372Y5667
X3272Y5667
X3072Y5667
X3072Y5067
X3172Y5067
X3272Y5067
X3372Y5067
X3472Y5067
X3572Y5067
X3672Y5067
X3772Y5067
X3872Y5067
X3972Y5067
X4072Y5067
X2872Y5667
X2772Y5667
X2672Y5667
X2572Y5667
X2372Y5667
T6
X334Y506
X1043Y1935
X1043Y1085
X5593Y1735
X1043Y1835
X1043Y1735
X1043Y1635
X1043Y1535
X1043Y1435
X1043Y1285
X1043Y1185
X2943Y735
X1043Y985
X1043Y885
X1043Y785
X1043Y685
X1043Y585
X1043Y485
X1043Y385
X2943Y835
X3103Y3977
X3350Y3135
X3250Y3135
X3150Y3135
X3353Y3340
X3253Y3340
X3153Y3340
X3403Y4166
X3303Y4166
X3203Y4166
X3103Y4166
X3403Y3977
X3303Y3977
X3203Y3977
X434Y506
X3407Y3781
X3307Y3781
X3207Y3781
X3107Y3781
X3407Y3590
X3307Y3590
X3207Y3590
X3107Y3590
X434Y2278
X334Y2278
X5631Y5663
X5531Y5663
X5593Y2135
X3693Y1085
X3693Y1185
X3693Y1285
X3693Y1435
X3693Y1535
X3693Y1635
X3693Y1735
X3693Y1835
X3693Y1935
X3693Y2035
X3693Y2135
X1043Y2135
X5593Y2035
X5593Y1935
X5593Y1835
X5593Y1635
X5593Y1435
X5593Y1335
X5593Y1235
X5593Y1135
X5593Y1035
X5593Y935
X3693Y885
X1043Y2035
X2943Y2135
X2943Y2035
X2943Y1935
X2943Y1835
X2943Y1735
X2943Y1635
X2943Y1435
X2943Y1335
X2943Y1235
X2943Y1035
X3693Y985
X3693Y785
X3693Y685
X3693Y585
X3693Y485
X3693Y385
X5593Y835
X2943Y1135
X5593Y735
X2943Y935
T7
X4606Y5060
X3995Y1710
X4498Y2707
X3198Y2794
X4068Y4238
X2717Y5882
X2546Y5856
X3347Y1313
X3158Y1505
X2539Y6026
X4046Y2712
X3536Y1616
X3850Y1238
X3850Y1314
X2986Y2445
X2362Y5986
X3666Y4453
X3333Y4632
X2790Y4769
X3319Y4455
X3274Y4509
X5029Y3012
M30
