G04 EAGLE Gerber RS-274X export*
G75*
%MOIN*%
%FSLAX34Y34*%
%LPD*%
%INBottom Copper*%
%IPPOS*%
%AMOC8*
5,1,8,0,0,1.08239X$1,22.5*%
G01*
%ADD10C,0.006000*%
%ADD11C,0.060000*%
%ADD12R,0.236220X0.236220*%
%ADD13C,0.236220*%
%ADD14R,0.048740X0.048740*%
%ADD15C,0.048740*%
%ADD16C,0.314961*%
%ADD17C,0.047559*%
%ADD18R,0.106299X0.106299*%
%ADD19C,0.100000*%
%ADD20C,0.106299*%
%ADD21C,0.020000*%
%ADD22C,0.029780*%
%ADD23C,0.010000*%


D10*
X44222Y32104D02*
X44222Y32744D01*
X44044Y32744D01*
X44019Y32742D01*
X43994Y32737D01*
X43970Y32728D01*
X43948Y32716D01*
X43927Y32701D01*
X43909Y32683D01*
X43894Y32662D01*
X43882Y32640D01*
X43873Y32616D01*
X43868Y32591D01*
X43866Y32566D01*
X43868Y32541D01*
X43873Y32516D01*
X43882Y32492D01*
X43894Y32470D01*
X43909Y32449D01*
X43927Y32431D01*
X43948Y32416D01*
X43970Y32404D01*
X43994Y32395D01*
X44019Y32390D01*
X44044Y32388D01*
X44222Y32388D01*
X44009Y32388D02*
X43866Y32104D01*
X43610Y32281D02*
X43610Y32566D01*
X43608Y32591D01*
X43603Y32616D01*
X43594Y32640D01*
X43582Y32662D01*
X43567Y32683D01*
X43549Y32701D01*
X43528Y32716D01*
X43506Y32728D01*
X43482Y32737D01*
X43457Y32742D01*
X43432Y32744D01*
X43407Y32742D01*
X43382Y32737D01*
X43358Y32728D01*
X43336Y32716D01*
X43315Y32701D01*
X43297Y32683D01*
X43282Y32662D01*
X43270Y32640D01*
X43261Y32616D01*
X43256Y32591D01*
X43254Y32566D01*
X43255Y32566D02*
X43255Y32281D01*
X43254Y32281D02*
X43256Y32256D01*
X43261Y32231D01*
X43270Y32207D01*
X43282Y32185D01*
X43297Y32164D01*
X43315Y32146D01*
X43336Y32131D01*
X43358Y32119D01*
X43382Y32110D01*
X43407Y32105D01*
X43432Y32103D01*
X43457Y32105D01*
X43482Y32110D01*
X43506Y32119D01*
X43528Y32131D01*
X43549Y32146D01*
X43567Y32164D01*
X43582Y32185D01*
X43594Y32207D01*
X43603Y32231D01*
X43608Y32256D01*
X43610Y32281D01*
X42966Y32459D02*
X42788Y32459D01*
X42763Y32457D01*
X42738Y32452D01*
X42714Y32443D01*
X42692Y32431D01*
X42671Y32416D01*
X42653Y32398D01*
X42638Y32377D01*
X42626Y32355D01*
X42617Y32331D01*
X42612Y32306D01*
X42610Y32281D01*
X42612Y32256D01*
X42617Y32231D01*
X42626Y32207D01*
X42638Y32185D01*
X42653Y32164D01*
X42671Y32146D01*
X42692Y32131D01*
X42714Y32119D01*
X42738Y32110D01*
X42763Y32105D01*
X42788Y32103D01*
X42788Y32104D02*
X42966Y32104D01*
X42966Y32744D01*
X42788Y32744D01*
X42788Y32743D02*
X42766Y32741D01*
X42744Y32736D01*
X42724Y32728D01*
X42705Y32716D01*
X42688Y32701D01*
X42673Y32684D01*
X42661Y32665D01*
X42653Y32645D01*
X42648Y32623D01*
X42646Y32601D01*
X42648Y32579D01*
X42653Y32557D01*
X42661Y32537D01*
X42673Y32518D01*
X42688Y32501D01*
X42705Y32486D01*
X42724Y32474D01*
X42744Y32466D01*
X42766Y32461D01*
X42788Y32459D01*
X42379Y32566D02*
X42379Y32281D01*
X42380Y32566D02*
X42378Y32591D01*
X42373Y32616D01*
X42364Y32640D01*
X42352Y32662D01*
X42337Y32683D01*
X42319Y32701D01*
X42298Y32716D01*
X42276Y32728D01*
X42252Y32737D01*
X42227Y32742D01*
X42202Y32744D01*
X42177Y32742D01*
X42152Y32737D01*
X42128Y32728D01*
X42106Y32716D01*
X42085Y32701D01*
X42067Y32683D01*
X42052Y32662D01*
X42040Y32640D01*
X42031Y32616D01*
X42026Y32591D01*
X42024Y32566D01*
X42024Y32281D01*
X42026Y32256D01*
X42031Y32231D01*
X42040Y32207D01*
X42052Y32185D01*
X42067Y32164D01*
X42085Y32146D01*
X42106Y32131D01*
X42128Y32119D01*
X42152Y32110D01*
X42177Y32105D01*
X42202Y32103D01*
X42227Y32105D01*
X42252Y32110D01*
X42276Y32119D01*
X42298Y32131D01*
X42319Y32146D01*
X42337Y32164D01*
X42352Y32185D01*
X42364Y32207D01*
X42373Y32231D01*
X42378Y32256D01*
X42380Y32281D01*
X41623Y32104D02*
X41481Y32104D01*
X41623Y32104D02*
X41645Y32106D01*
X41667Y32111D01*
X41687Y32119D01*
X41706Y32131D01*
X41723Y32146D01*
X41738Y32163D01*
X41750Y32182D01*
X41758Y32202D01*
X41763Y32224D01*
X41765Y32246D01*
X41766Y32246D02*
X41766Y32601D01*
X41765Y32601D02*
X41763Y32623D01*
X41758Y32645D01*
X41750Y32665D01*
X41738Y32684D01*
X41723Y32701D01*
X41706Y32716D01*
X41687Y32728D01*
X41667Y32736D01*
X41645Y32741D01*
X41623Y32743D01*
X41623Y32744D02*
X41481Y32744D01*
X41251Y32566D02*
X41251Y32281D01*
X41251Y32566D02*
X41249Y32591D01*
X41244Y32616D01*
X41235Y32640D01*
X41223Y32662D01*
X41208Y32683D01*
X41190Y32701D01*
X41169Y32716D01*
X41147Y32728D01*
X41123Y32737D01*
X41098Y32742D01*
X41073Y32744D01*
X41048Y32742D01*
X41023Y32737D01*
X40999Y32728D01*
X40977Y32716D01*
X40956Y32701D01*
X40938Y32683D01*
X40923Y32662D01*
X40911Y32640D01*
X40902Y32616D01*
X40897Y32591D01*
X40895Y32566D01*
X40896Y32566D02*
X40896Y32281D01*
X40895Y32281D02*
X40897Y32256D01*
X40902Y32231D01*
X40911Y32207D01*
X40923Y32185D01*
X40938Y32164D01*
X40956Y32146D01*
X40977Y32131D01*
X40999Y32119D01*
X41023Y32110D01*
X41048Y32105D01*
X41073Y32103D01*
X41098Y32105D01*
X41123Y32110D01*
X41147Y32119D01*
X41169Y32131D01*
X41190Y32146D01*
X41208Y32164D01*
X41223Y32185D01*
X41235Y32207D01*
X41244Y32231D01*
X41249Y32256D01*
X41251Y32281D01*
X40614Y32104D02*
X40614Y32744D01*
X40614Y32104D02*
X40330Y32104D01*
X39745Y32104D02*
X39745Y32744D01*
X39568Y32744D01*
X39543Y32742D01*
X39518Y32737D01*
X39494Y32728D01*
X39472Y32716D01*
X39451Y32701D01*
X39433Y32683D01*
X39418Y32662D01*
X39406Y32640D01*
X39397Y32616D01*
X39392Y32591D01*
X39390Y32566D01*
X39392Y32541D01*
X39397Y32516D01*
X39406Y32492D01*
X39418Y32470D01*
X39433Y32449D01*
X39451Y32431D01*
X39472Y32416D01*
X39494Y32404D01*
X39518Y32395D01*
X39543Y32390D01*
X39568Y32388D01*
X39745Y32388D01*
X39159Y32281D02*
X39159Y32566D01*
X39157Y32591D01*
X39152Y32616D01*
X39143Y32640D01*
X39131Y32662D01*
X39116Y32683D01*
X39098Y32701D01*
X39077Y32716D01*
X39055Y32728D01*
X39031Y32737D01*
X39006Y32742D01*
X38981Y32744D01*
X38956Y32742D01*
X38931Y32737D01*
X38907Y32728D01*
X38885Y32716D01*
X38864Y32701D01*
X38846Y32683D01*
X38831Y32662D01*
X38819Y32640D01*
X38810Y32616D01*
X38805Y32591D01*
X38803Y32566D01*
X38803Y32281D01*
X38805Y32256D01*
X38810Y32231D01*
X38819Y32207D01*
X38831Y32185D01*
X38846Y32164D01*
X38864Y32146D01*
X38885Y32131D01*
X38907Y32119D01*
X38931Y32110D01*
X38956Y32105D01*
X38981Y32103D01*
X39006Y32105D01*
X39031Y32110D01*
X39055Y32119D01*
X39077Y32131D01*
X39098Y32146D01*
X39116Y32164D01*
X39131Y32185D01*
X39143Y32207D01*
X39152Y32231D01*
X39157Y32256D01*
X39159Y32281D01*
X38568Y32744D02*
X38426Y32104D01*
X38284Y32530D01*
X38141Y32104D01*
X37999Y32744D01*
X37742Y32104D02*
X37458Y32104D01*
X37742Y32104D02*
X37742Y32744D01*
X37458Y32744D01*
X37529Y32459D02*
X37742Y32459D01*
X37206Y32744D02*
X37206Y32104D01*
X37206Y32744D02*
X37029Y32744D01*
X37004Y32742D01*
X36979Y32737D01*
X36955Y32728D01*
X36933Y32716D01*
X36912Y32701D01*
X36894Y32683D01*
X36879Y32662D01*
X36867Y32640D01*
X36858Y32616D01*
X36853Y32591D01*
X36851Y32566D01*
X36853Y32541D01*
X36858Y32516D01*
X36867Y32492D01*
X36879Y32470D01*
X36894Y32449D01*
X36912Y32431D01*
X36933Y32416D01*
X36955Y32404D01*
X36979Y32395D01*
X37004Y32390D01*
X37029Y32388D01*
X37206Y32388D01*
X36993Y32388D02*
X36851Y32104D01*
X43867Y31196D02*
X43869Y31174D01*
X43874Y31152D01*
X43882Y31132D01*
X43894Y31113D01*
X43909Y31096D01*
X43926Y31081D01*
X43945Y31069D01*
X43965Y31061D01*
X43987Y31056D01*
X44009Y31054D01*
X44043Y31056D01*
X44076Y31062D01*
X44109Y31071D01*
X44140Y31084D01*
X44169Y31100D01*
X44197Y31120D01*
X44222Y31143D01*
X44204Y31551D02*
X44202Y31573D01*
X44197Y31595D01*
X44189Y31615D01*
X44177Y31634D01*
X44162Y31651D01*
X44145Y31666D01*
X44126Y31678D01*
X44106Y31686D01*
X44084Y31691D01*
X44062Y31693D01*
X44062Y31694D02*
X44033Y31692D01*
X44005Y31688D01*
X43978Y31680D01*
X43951Y31670D01*
X43926Y31657D01*
X43902Y31641D01*
X44133Y31427D02*
X44151Y31439D01*
X44166Y31454D01*
X44179Y31470D01*
X44190Y31489D01*
X44198Y31509D01*
X44202Y31530D01*
X44204Y31551D01*
X43938Y31320D02*
X43920Y31308D01*
X43905Y31293D01*
X43892Y31277D01*
X43881Y31258D01*
X43873Y31238D01*
X43869Y31217D01*
X43867Y31196D01*
X43938Y31320D02*
X44133Y31427D01*
X43358Y31409D02*
X43251Y31409D01*
X43251Y31054D01*
X43464Y31054D01*
X43486Y31056D01*
X43508Y31061D01*
X43528Y31069D01*
X43547Y31081D01*
X43564Y31096D01*
X43579Y31113D01*
X43591Y31132D01*
X43599Y31152D01*
X43604Y31174D01*
X43606Y31196D01*
X43607Y31196D02*
X43607Y31551D01*
X43606Y31551D02*
X43604Y31573D01*
X43599Y31595D01*
X43591Y31615D01*
X43579Y31634D01*
X43564Y31651D01*
X43547Y31666D01*
X43528Y31678D01*
X43508Y31686D01*
X43486Y31691D01*
X43464Y31693D01*
X43464Y31694D02*
X43251Y31694D01*
X42945Y31694D02*
X42945Y31054D01*
X42731Y31338D02*
X42945Y31694D01*
X42731Y31338D02*
X42518Y31694D01*
X42518Y31054D01*
X41708Y31694D02*
X41685Y31692D01*
X41663Y31688D01*
X41642Y31680D01*
X41621Y31669D01*
X41603Y31655D01*
X41587Y31639D01*
X41573Y31621D01*
X41562Y31600D01*
X41554Y31579D01*
X41550Y31557D01*
X41548Y31534D01*
X41708Y31694D02*
X41734Y31692D01*
X41759Y31688D01*
X41784Y31680D01*
X41807Y31668D01*
X41829Y31655D01*
X41849Y31638D01*
X41867Y31619D01*
X41882Y31598D01*
X41894Y31576D01*
X41904Y31551D01*
X41601Y31409D02*
X41586Y31427D01*
X41572Y31446D01*
X41562Y31466D01*
X41554Y31488D01*
X41550Y31511D01*
X41548Y31534D01*
X41602Y31409D02*
X41904Y31054D01*
X41548Y31054D01*
X41288Y31374D02*
X41286Y31414D01*
X41282Y31453D01*
X41275Y31493D01*
X41264Y31531D01*
X41251Y31568D01*
X41235Y31605D01*
X41236Y31605D02*
X41228Y31624D01*
X41217Y31641D01*
X41203Y31656D01*
X41188Y31669D01*
X41170Y31680D01*
X41151Y31688D01*
X41131Y31692D01*
X41111Y31694D01*
X41091Y31692D01*
X41071Y31688D01*
X41052Y31680D01*
X41034Y31669D01*
X41019Y31656D01*
X41005Y31641D01*
X40994Y31624D01*
X40986Y31605D01*
X40970Y31568D01*
X40957Y31531D01*
X40946Y31493D01*
X40939Y31453D01*
X40935Y31414D01*
X40933Y31374D01*
X41288Y31374D02*
X41286Y31334D01*
X41282Y31295D01*
X41275Y31256D01*
X41264Y31217D01*
X41251Y31180D01*
X41235Y31143D01*
X41236Y31142D02*
X41228Y31123D01*
X41217Y31106D01*
X41203Y31091D01*
X41188Y31078D01*
X41170Y31067D01*
X41151Y31059D01*
X41131Y31055D01*
X41111Y31053D01*
X40986Y31143D02*
X40970Y31180D01*
X40957Y31217D01*
X40946Y31256D01*
X40939Y31295D01*
X40935Y31334D01*
X40933Y31374D01*
X40986Y31142D02*
X40994Y31123D01*
X41005Y31106D01*
X41019Y31091D01*
X41034Y31078D01*
X41052Y31067D01*
X41071Y31059D01*
X41091Y31055D01*
X41111Y31053D01*
X41253Y31196D02*
X40969Y31551D01*
X40478Y31694D02*
X40455Y31692D01*
X40433Y31688D01*
X40412Y31680D01*
X40391Y31669D01*
X40373Y31655D01*
X40357Y31639D01*
X40343Y31621D01*
X40332Y31600D01*
X40324Y31579D01*
X40320Y31557D01*
X40318Y31534D01*
X40478Y31694D02*
X40504Y31692D01*
X40529Y31688D01*
X40554Y31680D01*
X40577Y31668D01*
X40599Y31655D01*
X40619Y31638D01*
X40637Y31619D01*
X40652Y31598D01*
X40664Y31576D01*
X40674Y31551D01*
X40370Y31409D02*
X40355Y31427D01*
X40341Y31446D01*
X40331Y31466D01*
X40323Y31488D01*
X40319Y31511D01*
X40317Y31534D01*
X40371Y31409D02*
X40673Y31054D01*
X40318Y31054D01*
X40058Y31054D02*
X39880Y31054D01*
X39880Y31053D02*
X39855Y31055D01*
X39830Y31060D01*
X39806Y31069D01*
X39784Y31081D01*
X39763Y31096D01*
X39745Y31114D01*
X39730Y31135D01*
X39718Y31157D01*
X39709Y31181D01*
X39704Y31206D01*
X39702Y31231D01*
X39704Y31256D01*
X39709Y31281D01*
X39718Y31305D01*
X39730Y31327D01*
X39745Y31348D01*
X39763Y31366D01*
X39784Y31381D01*
X39806Y31393D01*
X39830Y31402D01*
X39855Y31407D01*
X39880Y31409D01*
X39844Y31694D02*
X40058Y31694D01*
X39844Y31693D02*
X39822Y31691D01*
X39800Y31686D01*
X39780Y31678D01*
X39761Y31666D01*
X39744Y31651D01*
X39729Y31634D01*
X39717Y31615D01*
X39709Y31595D01*
X39704Y31573D01*
X39702Y31551D01*
X39704Y31529D01*
X39709Y31507D01*
X39717Y31487D01*
X39729Y31468D01*
X39744Y31451D01*
X39761Y31436D01*
X39780Y31424D01*
X39800Y31416D01*
X39822Y31411D01*
X39844Y31409D01*
X39987Y31409D01*
D11*
X6898Y16087D02*
X6898Y15487D01*
X7898Y15487D02*
X7898Y16087D01*
X8898Y16087D02*
X8898Y15487D01*
X9898Y15487D02*
X9898Y16087D01*
X10898Y16087D02*
X10898Y15487D01*
X16425Y15487D02*
X16425Y16087D01*
X17425Y16087D02*
X17425Y15487D01*
X18425Y15487D02*
X18425Y16087D01*
X19425Y16087D02*
X19425Y15487D01*
X20425Y15487D02*
X20425Y16087D01*
X25913Y16087D02*
X25913Y15487D01*
X26913Y15487D02*
X26913Y16087D01*
X27913Y16087D02*
X27913Y15487D01*
X28913Y15487D02*
X28913Y16087D01*
X29913Y16087D02*
X29913Y15487D01*
X16583Y32771D02*
X16583Y33371D01*
X17583Y33371D02*
X17583Y32771D01*
X18583Y32771D02*
X18583Y33371D01*
X19583Y33371D02*
X19583Y32771D01*
X20583Y32771D02*
X20583Y33371D01*
X26622Y33174D02*
X26622Y32574D01*
X27622Y32574D02*
X27622Y33174D01*
X28622Y33174D02*
X28622Y32574D01*
X29622Y32574D02*
X29622Y33174D01*
X30622Y33174D02*
X30622Y32574D01*
X7398Y25733D02*
X7398Y25133D01*
X8398Y25133D02*
X8398Y25733D01*
X9398Y25733D02*
X9398Y25133D01*
X10398Y25133D02*
X10398Y25733D01*
X16925Y25733D02*
X16925Y25133D01*
X17925Y25133D02*
X17925Y25733D01*
X18925Y25733D02*
X18925Y25133D01*
X19925Y25133D02*
X19925Y25733D01*
X26413Y25733D02*
X26413Y25133D01*
X27413Y25133D02*
X27413Y25733D01*
X28413Y25733D02*
X28413Y25133D01*
X29413Y25133D02*
X29413Y25733D01*
X17083Y42417D02*
X17083Y43017D01*
X18083Y43017D02*
X18083Y42417D01*
X19083Y42417D02*
X19083Y43017D01*
X20083Y43017D02*
X20083Y42417D01*
X27122Y42417D02*
X27122Y43017D01*
X28122Y43017D02*
X28122Y42417D01*
X29122Y42417D02*
X29122Y43017D01*
X30122Y43017D02*
X30122Y42417D01*
D12*
X7480Y7165D03*
D13*
X7480Y10000D03*
D12*
X19291Y6929D03*
D13*
X19291Y9764D03*
D12*
X42835Y6496D03*
D13*
X42835Y9331D03*
D12*
X50837Y6378D03*
D13*
X50837Y9213D03*
D14*
X55630Y7520D03*
D15*
X55630Y8110D03*
X55630Y8701D03*
X55630Y9291D03*
X55630Y9882D03*
D16*
X31102Y3740D03*
X31102Y8071D03*
D17*
X2756Y6514D03*
X2756Y7105D03*
X2756Y7695D03*
X2756Y8286D03*
X14567Y6514D03*
X14567Y7105D03*
X14567Y7695D03*
X14567Y8286D03*
X26378Y6514D03*
X26378Y7105D03*
X26378Y7695D03*
X26378Y8286D03*
D11*
X984Y28550D02*
X984Y29150D01*
X1984Y29150D02*
X1984Y28550D01*
X2984Y28550D02*
X2984Y29150D01*
X37559Y44306D02*
X37559Y44906D01*
X38559Y44906D02*
X38559Y44306D01*
X39559Y44306D02*
X39559Y44906D01*
X6640Y44591D02*
X6640Y43991D01*
X7640Y43991D02*
X7640Y44591D01*
X8640Y44591D02*
X8640Y43991D01*
X48229Y44306D02*
X48229Y44906D01*
X49229Y44906D02*
X49229Y44306D01*
X50229Y44306D02*
X50229Y44906D01*
D18*
X1892Y11614D03*
X1892Y13268D03*
X55126Y13386D03*
X55126Y15039D03*
X55205Y31181D03*
X55205Y32835D03*
X2758Y19055D03*
X2758Y20709D03*
X55126Y19094D03*
X55126Y20748D03*
X55205Y25079D03*
X55205Y26732D03*
D19*
X44533Y17039D02*
X44533Y16039D01*
X36333Y16039D02*
X36333Y17039D01*
X38333Y17039D02*
X38333Y16039D01*
X42533Y16039D02*
X42533Y17039D01*
X44529Y21764D02*
X44529Y22764D01*
X36329Y22764D02*
X36329Y21764D01*
X38329Y21764D02*
X38329Y22764D01*
X42529Y22764D02*
X42529Y21764D01*
D17*
X38189Y6514D03*
X38189Y7105D03*
X38189Y7695D03*
X38189Y8286D03*
X55591Y2697D03*
X55591Y3287D03*
X55591Y3878D03*
X55591Y4469D03*
X55411Y37921D03*
X55411Y38512D03*
X55411Y39102D03*
X55411Y39693D03*
D20*
X50193Y16539D02*
X44533Y16539D01*
X51693Y15039D02*
X55126Y15039D01*
X51693Y15039D02*
X50193Y16539D01*
X42798Y26732D02*
X38329Y22264D01*
X42798Y26732D02*
X55205Y26732D01*
D21*
X30185Y40827D02*
X29122Y41890D01*
X29122Y42717D01*
X30185Y40827D02*
X36732Y40827D01*
X39559Y43654D02*
X39559Y44606D01*
X39559Y43654D02*
X36732Y40827D01*
X39559Y43787D02*
X39559Y44606D01*
X39559Y43787D02*
X40787Y42559D01*
X49134Y42559D01*
X50229Y43654D02*
X50229Y44606D01*
X50229Y43654D02*
X49134Y42559D01*
X50229Y44606D02*
X53929Y40906D01*
X55827Y40906D01*
X56457Y40276D01*
X56457Y38189D01*
X56189Y37921D01*
X55411Y37921D01*
D20*
X42835Y6496D02*
X40906Y6496D01*
X40197Y7205D01*
X40197Y17795D01*
X41732Y19331D01*
X52992Y25079D02*
X55205Y25079D01*
X47244Y19331D02*
X41732Y19331D01*
X47244Y19331D02*
X52992Y25079D01*
D21*
X17083Y42717D02*
X16260Y42717D01*
X15709Y42165D01*
X15354Y41811D01*
X15354Y27559D01*
X15354Y26142D01*
X16063Y25433D02*
X16925Y25433D01*
X16063Y25433D02*
X15354Y26142D01*
X27122Y40906D02*
X27122Y42717D01*
X27122Y40906D02*
X25551Y39335D01*
X25551Y25984D01*
X26102Y25433D01*
X26413Y25433D01*
X7398Y25433D02*
X7398Y27161D01*
X14724Y28189D02*
X15354Y27559D01*
X8425Y28189D02*
X7398Y27161D01*
X8425Y28189D02*
X14724Y28189D01*
X28969Y38512D02*
X55411Y38512D01*
X28969Y38512D02*
X27126Y40354D01*
X27126Y42713D02*
X27122Y42717D01*
X27126Y42713D02*
X27126Y40354D01*
X17323Y40551D02*
X15709Y42165D01*
X17323Y40551D02*
X23307Y40551D01*
D22*
X23307Y40551D03*
D21*
X6898Y16457D02*
X6898Y15787D01*
X6898Y16457D02*
X6898Y22197D01*
X1984Y27110D02*
X1984Y28850D01*
X1984Y27110D02*
X6898Y22197D01*
X15402Y16811D02*
X16425Y15787D01*
X7252Y16811D02*
X6898Y16457D01*
X7252Y16811D02*
X15402Y16811D01*
X14567Y7105D02*
X13880Y7105D01*
X13307Y7677D01*
X13307Y10669D01*
X17425Y14787D02*
X17425Y15787D01*
X17425Y14787D02*
X13307Y10669D01*
X14155Y7695D02*
X14567Y7695D01*
X14155Y7695D02*
X14016Y7835D01*
X14016Y10039D01*
X18425Y14449D02*
X18425Y15787D01*
X18425Y14449D02*
X14016Y10039D01*
X14567Y9685D02*
X14567Y8286D01*
X19425Y14543D02*
X19425Y15787D01*
X19425Y14543D02*
X14567Y9685D01*
X26913Y14472D02*
X26913Y15787D01*
X26913Y14472D02*
X24606Y12165D01*
X24606Y7795D01*
X25315Y7087D01*
X26360Y7087D01*
X26378Y7105D01*
X26378Y7695D02*
X25887Y7695D01*
X25591Y7992D01*
X25591Y11890D01*
X27913Y14213D02*
X27913Y15787D01*
X27913Y14213D02*
X25591Y11890D01*
X26378Y11693D02*
X26378Y8286D01*
X28913Y14228D02*
X28913Y15787D01*
X28913Y14228D02*
X26378Y11693D01*
X36832Y7105D02*
X38189Y7105D01*
X36832Y7105D02*
X32362Y11575D01*
X32362Y24921D01*
X29409Y27874D01*
X27441Y27874D01*
D22*
X27441Y27874D03*
D21*
X37541Y7695D02*
X38189Y7695D01*
X33425Y11811D02*
X33425Y24882D01*
X29094Y29213D01*
X27441Y29213D01*
D22*
X27441Y29213D03*
D21*
X33425Y11811D02*
X37541Y7695D01*
X38189Y8286D02*
X34370Y12105D01*
X29173Y30354D02*
X27480Y30354D01*
D22*
X27480Y30354D03*
D21*
X34370Y25157D02*
X34370Y12105D01*
X34370Y25157D02*
X29173Y30354D01*
X55591Y3287D02*
X56319Y3287D01*
X56772Y3740D01*
X56772Y5039D01*
X55630Y8110D02*
X55354Y8110D01*
X54803Y7559D01*
X54803Y7008D01*
X56772Y5039D01*
X55630Y8110D02*
X55680Y8160D01*
X56320Y8160D01*
X58555Y10395D01*
X58555Y35382D02*
X56732Y37205D01*
X29803Y37205D01*
X27622Y35024D02*
X27622Y32874D01*
X58555Y35382D02*
X58555Y10395D01*
X29803Y37205D02*
X27622Y35024D01*
X55591Y3878D02*
X56122Y3878D01*
X56339Y4094D01*
X56339Y4488D01*
X55630Y8701D02*
X55161Y8701D01*
X54216Y7756D01*
X54216Y6611D01*
X56339Y4488D01*
X28622Y32874D02*
X28622Y34764D01*
X30394Y36535D01*
X56575Y36535D01*
X58071Y35039D01*
X58071Y10591D01*
X56181Y8701D02*
X55630Y8701D01*
X56181Y8701D02*
X58071Y10591D01*
X55591Y4469D02*
X55276Y4469D01*
X53780Y5965D01*
X53780Y8189D01*
X54882Y9291D01*
X55630Y9291D01*
X55641Y9302D01*
X55916Y9302D01*
X57598Y10984D01*
X57598Y34567D02*
X56417Y35748D01*
X30827Y35748D01*
X57598Y34567D02*
X57598Y10984D01*
X29622Y32874D02*
X29622Y34543D01*
X30827Y35748D01*
X55630Y9882D02*
X57087Y11339D01*
X57087Y34016D01*
X56102Y35000D01*
X31606Y35000D02*
X30622Y34016D01*
X30622Y32874D01*
X31606Y35000D02*
X56102Y35000D01*
X2756Y7105D02*
X1793Y7105D01*
X1299Y7598D01*
X1299Y8819D01*
X7283Y14803D02*
X7480Y14803D01*
X7898Y15220D01*
X7898Y15787D01*
X7283Y14803D02*
X1299Y8819D01*
X2344Y7695D02*
X2756Y7695D01*
X2344Y7695D02*
X2087Y7953D01*
X2087Y8346D01*
X8898Y15157D02*
X8898Y15787D01*
X8898Y15157D02*
X2087Y8346D01*
X2756Y8286D02*
X3443Y8286D01*
X9898Y14740D02*
X9898Y15787D01*
X9898Y14740D02*
X3443Y8286D01*
X8398Y26035D02*
X9213Y26850D01*
X14016Y26850D01*
X16654Y24213D02*
X17362Y24213D01*
X17925Y24776D01*
X16654Y24213D02*
X14016Y26850D01*
X27008Y24213D02*
X27413Y24618D01*
X27008Y24213D02*
X23701Y24213D01*
X18488Y24213D01*
X17925Y24776D01*
X18425Y41575D02*
X18083Y41917D01*
X18425Y41575D02*
X23228Y41575D01*
X25354Y43701D02*
X27795Y43701D01*
X28122Y43374D01*
X23583Y41929D02*
X23228Y41575D01*
X23583Y41929D02*
X25354Y43701D01*
X23583Y41929D02*
X24488Y41024D01*
X24488Y25000D02*
X23701Y24213D01*
X24488Y25000D02*
X24488Y41024D01*
X28122Y42717D02*
X28122Y43374D01*
X28122Y42717D02*
X28122Y41169D01*
X30189Y39102D02*
X55411Y39102D01*
X30189Y39102D02*
X28122Y41169D01*
X27413Y25433D02*
X27413Y24618D01*
X18083Y41917D02*
X18083Y42717D01*
X8398Y26035D02*
X8398Y25433D01*
X17925Y25433D02*
X17925Y24776D01*
D23*
X0Y0D02*
X59055Y0D01*
X59055Y47244D01*
X0Y47244D01*
X0Y0D01*
X2559Y45254D02*
X2556Y45212D01*
X2550Y45171D01*
X2541Y45129D01*
X2529Y45089D01*
X2514Y45049D01*
X2497Y45011D01*
X2477Y44974D01*
X2454Y44939D01*
X2429Y44905D01*
X2401Y44873D01*
X2371Y44843D01*
X2339Y44815D01*
X2306Y44790D01*
X2270Y44767D01*
X2233Y44747D01*
X2195Y44730D01*
X2155Y44715D01*
X2115Y44703D01*
X2073Y44694D01*
X2032Y44688D01*
X1990Y44685D01*
X1947Y44685D01*
X1905Y44688D01*
X1864Y44694D01*
X1822Y44703D01*
X1782Y44715D01*
X1742Y44730D01*
X1704Y44747D01*
X1667Y44767D01*
X1631Y44790D01*
X1598Y44815D01*
X1566Y44843D01*
X1536Y44873D01*
X1508Y44905D01*
X1483Y44939D01*
X1460Y44974D01*
X1440Y45011D01*
X1423Y45049D01*
X1408Y45089D01*
X1396Y45129D01*
X1387Y45171D01*
X1381Y45212D01*
X1378Y45254D01*
X1378Y45297D01*
X1381Y45339D01*
X1387Y45381D01*
X1396Y45422D01*
X1408Y45462D01*
X1423Y45502D01*
X1440Y45540D01*
X1460Y45577D01*
X1483Y45613D01*
X1508Y45646D01*
X1536Y45678D01*
X1566Y45708D01*
X1598Y45736D01*
X1631Y45761D01*
X1667Y45784D01*
X1704Y45804D01*
X1742Y45822D01*
X1782Y45836D01*
X1822Y45848D01*
X1864Y45857D01*
X1905Y45863D01*
X1947Y45866D01*
X1990Y45866D01*
X2032Y45863D01*
X2073Y45857D01*
X2115Y45848D01*
X2155Y45836D01*
X2195Y45822D01*
X2233Y45804D01*
X2270Y45784D01*
X2306Y45761D01*
X2339Y45736D01*
X2371Y45708D01*
X2401Y45678D01*
X2429Y45646D01*
X2454Y45613D01*
X2477Y45577D01*
X2497Y45540D01*
X2514Y45502D01*
X2529Y45462D01*
X2541Y45422D01*
X2550Y45381D01*
X2556Y45339D01*
X2559Y45297D01*
X2559Y45254D01*
X57677Y45254D02*
X57674Y45212D01*
X57668Y45171D01*
X57659Y45129D01*
X57647Y45089D01*
X57633Y45049D01*
X57615Y45011D01*
X57595Y44974D01*
X57572Y44939D01*
X57547Y44905D01*
X57519Y44873D01*
X57489Y44843D01*
X57457Y44815D01*
X57424Y44790D01*
X57388Y44767D01*
X57351Y44747D01*
X57313Y44730D01*
X57273Y44715D01*
X57233Y44703D01*
X57192Y44694D01*
X57150Y44688D01*
X57108Y44685D01*
X57066Y44685D01*
X57023Y44688D01*
X56982Y44694D01*
X56940Y44703D01*
X56900Y44715D01*
X56860Y44730D01*
X56822Y44747D01*
X56785Y44767D01*
X56750Y44790D01*
X56716Y44815D01*
X56684Y44843D01*
X56654Y44873D01*
X56626Y44905D01*
X56601Y44939D01*
X56578Y44974D01*
X56558Y45011D01*
X56541Y45049D01*
X56526Y45089D01*
X56514Y45129D01*
X56505Y45171D01*
X56499Y45212D01*
X56496Y45254D01*
X56496Y45297D01*
X56499Y45339D01*
X56505Y45381D01*
X56514Y45422D01*
X56526Y45462D01*
X56541Y45502D01*
X56558Y45540D01*
X56578Y45577D01*
X56601Y45613D01*
X56626Y45646D01*
X56654Y45678D01*
X56684Y45708D01*
X56716Y45736D01*
X56750Y45761D01*
X56785Y45784D01*
X56822Y45804D01*
X56860Y45822D01*
X56900Y45836D01*
X56940Y45848D01*
X56982Y45857D01*
X57023Y45863D01*
X57066Y45866D01*
X57108Y45866D01*
X57150Y45863D01*
X57192Y45857D01*
X57233Y45848D01*
X57273Y45836D01*
X57313Y45822D01*
X57351Y45804D01*
X57388Y45784D01*
X57424Y45761D01*
X57457Y45736D01*
X57489Y45708D01*
X57519Y45678D01*
X57547Y45646D01*
X57572Y45613D01*
X57595Y45577D01*
X57615Y45540D01*
X57633Y45502D01*
X57647Y45462D01*
X57659Y45422D01*
X57668Y45381D01*
X57674Y45339D01*
X57677Y45297D01*
X57677Y45254D01*
X2559Y1947D02*
X2556Y1905D01*
X2550Y1864D01*
X2541Y1822D01*
X2529Y1782D01*
X2514Y1742D01*
X2497Y1704D01*
X2477Y1667D01*
X2454Y1631D01*
X2429Y1598D01*
X2401Y1566D01*
X2371Y1536D01*
X2339Y1508D01*
X2306Y1483D01*
X2270Y1460D01*
X2233Y1440D01*
X2195Y1423D01*
X2155Y1408D01*
X2115Y1396D01*
X2073Y1387D01*
X2032Y1381D01*
X1990Y1378D01*
X1947Y1378D01*
X1905Y1381D01*
X1864Y1387D01*
X1822Y1396D01*
X1782Y1408D01*
X1742Y1423D01*
X1704Y1440D01*
X1667Y1460D01*
X1631Y1483D01*
X1598Y1508D01*
X1566Y1536D01*
X1536Y1566D01*
X1508Y1598D01*
X1483Y1631D01*
X1460Y1667D01*
X1440Y1704D01*
X1423Y1742D01*
X1408Y1782D01*
X1396Y1822D01*
X1387Y1864D01*
X1381Y1905D01*
X1378Y1947D01*
X1378Y1990D01*
X1381Y2032D01*
X1387Y2073D01*
X1396Y2115D01*
X1408Y2155D01*
X1423Y2195D01*
X1440Y2233D01*
X1460Y2270D01*
X1483Y2306D01*
X1508Y2339D01*
X1536Y2371D01*
X1566Y2401D01*
X1598Y2429D01*
X1631Y2454D01*
X1667Y2477D01*
X1704Y2497D01*
X1742Y2514D01*
X1782Y2529D01*
X1822Y2541D01*
X1864Y2550D01*
X1905Y2556D01*
X1947Y2559D01*
X1990Y2559D01*
X2032Y2556D01*
X2073Y2550D01*
X2115Y2541D01*
X2155Y2529D01*
X2195Y2514D01*
X2233Y2497D01*
X2270Y2477D01*
X2306Y2454D01*
X2339Y2429D01*
X2371Y2401D01*
X2401Y2371D01*
X2429Y2339D01*
X2454Y2306D01*
X2477Y2270D01*
X2497Y2233D01*
X2514Y2195D01*
X2529Y2155D01*
X2541Y2115D01*
X2550Y2073D01*
X2556Y2032D01*
X2559Y1990D01*
X2559Y1947D01*
X57677Y1947D02*
X57674Y1905D01*
X57668Y1864D01*
X57659Y1822D01*
X57647Y1782D01*
X57633Y1742D01*
X57615Y1704D01*
X57595Y1667D01*
X57572Y1631D01*
X57547Y1598D01*
X57519Y1566D01*
X57489Y1536D01*
X57457Y1508D01*
X57424Y1483D01*
X57388Y1460D01*
X57351Y1440D01*
X57313Y1423D01*
X57273Y1408D01*
X57233Y1396D01*
X57192Y1387D01*
X57150Y1381D01*
X57108Y1378D01*
X57066Y1378D01*
X57023Y1381D01*
X56982Y1387D01*
X56940Y1396D01*
X56900Y1408D01*
X56860Y1423D01*
X56822Y1440D01*
X56785Y1460D01*
X56750Y1483D01*
X56716Y1508D01*
X56684Y1536D01*
X56654Y1566D01*
X56626Y1598D01*
X56601Y1631D01*
X56578Y1667D01*
X56558Y1704D01*
X56541Y1742D01*
X56526Y1782D01*
X56514Y1822D01*
X56505Y1864D01*
X56499Y1905D01*
X56496Y1947D01*
X56496Y1990D01*
X56499Y2032D01*
X56505Y2073D01*
X56514Y2115D01*
X56526Y2155D01*
X56541Y2195D01*
X56558Y2233D01*
X56578Y2270D01*
X56601Y2306D01*
X56626Y2339D01*
X56654Y2371D01*
X56684Y2401D01*
X56716Y2429D01*
X56750Y2454D01*
X56785Y2477D01*
X56822Y2497D01*
X56860Y2514D01*
X56900Y2529D01*
X56940Y2541D01*
X56982Y2550D01*
X57023Y2556D01*
X57066Y2559D01*
X57108Y2559D01*
X57150Y2556D01*
X57192Y2550D01*
X57233Y2541D01*
X57273Y2529D01*
X57313Y2514D01*
X57351Y2497D01*
X57388Y2477D01*
X57424Y2454D01*
X57457Y2429D01*
X57489Y2401D01*
X57519Y2371D01*
X57547Y2339D01*
X57572Y2306D01*
X57595Y2270D01*
X57615Y2233D01*
X57633Y2195D01*
X57647Y2155D01*
X57659Y2115D01*
X57668Y2073D01*
X57674Y2032D01*
X57677Y1990D01*
X57677Y1947D01*
M02*
