G04 EAGLE Gerber RS-274X export*
G75*
%MOIN*%
%FSLAX34Y34*%
%LPD*%
%IN*%
%IPPOS*%
%AMOC8*
5,1,8,0,0,1.08239X$1,22.5*%
G01*
%ADD10C,0.010000*%


D10*
X0Y0D02*
X59055Y0D01*
X59055Y47244D01*
X0Y47244D01*
X0Y0D01*
X2559Y45254D02*
X2556Y45212D01*
X2550Y45171D01*
X2541Y45129D01*
X2529Y45089D01*
X2514Y45049D01*
X2497Y45011D01*
X2477Y44974D01*
X2454Y44939D01*
X2429Y44905D01*
X2401Y44873D01*
X2371Y44843D01*
X2339Y44815D01*
X2306Y44790D01*
X2270Y44767D01*
X2233Y44747D01*
X2195Y44730D01*
X2155Y44715D01*
X2115Y44703D01*
X2073Y44694D01*
X2032Y44688D01*
X1990Y44685D01*
X1947Y44685D01*
X1905Y44688D01*
X1864Y44694D01*
X1822Y44703D01*
X1782Y44715D01*
X1742Y44730D01*
X1704Y44747D01*
X1667Y44767D01*
X1631Y44790D01*
X1598Y44815D01*
X1566Y44843D01*
X1536Y44873D01*
X1508Y44905D01*
X1483Y44939D01*
X1460Y44974D01*
X1440Y45011D01*
X1423Y45049D01*
X1408Y45089D01*
X1396Y45129D01*
X1387Y45171D01*
X1381Y45212D01*
X1378Y45254D01*
X1378Y45297D01*
X1381Y45339D01*
X1387Y45381D01*
X1396Y45422D01*
X1408Y45462D01*
X1423Y45502D01*
X1440Y45540D01*
X1460Y45577D01*
X1483Y45613D01*
X1508Y45646D01*
X1536Y45678D01*
X1566Y45708D01*
X1598Y45736D01*
X1631Y45761D01*
X1667Y45784D01*
X1704Y45804D01*
X1742Y45822D01*
X1782Y45836D01*
X1822Y45848D01*
X1864Y45857D01*
X1905Y45863D01*
X1947Y45866D01*
X1990Y45866D01*
X2032Y45863D01*
X2073Y45857D01*
X2115Y45848D01*
X2155Y45836D01*
X2195Y45822D01*
X2233Y45804D01*
X2270Y45784D01*
X2306Y45761D01*
X2339Y45736D01*
X2371Y45708D01*
X2401Y45678D01*
X2429Y45646D01*
X2454Y45613D01*
X2477Y45577D01*
X2497Y45540D01*
X2514Y45502D01*
X2529Y45462D01*
X2541Y45422D01*
X2550Y45381D01*
X2556Y45339D01*
X2559Y45297D01*
X2559Y45254D01*
X57677Y45254D02*
X57674Y45212D01*
X57668Y45171D01*
X57659Y45129D01*
X57647Y45089D01*
X57633Y45049D01*
X57615Y45011D01*
X57595Y44974D01*
X57572Y44939D01*
X57547Y44905D01*
X57519Y44873D01*
X57489Y44843D01*
X57457Y44815D01*
X57424Y44790D01*
X57388Y44767D01*
X57351Y44747D01*
X57313Y44730D01*
X57273Y44715D01*
X57233Y44703D01*
X57192Y44694D01*
X57150Y44688D01*
X57108Y44685D01*
X57066Y44685D01*
X57023Y44688D01*
X56982Y44694D01*
X56940Y44703D01*
X56900Y44715D01*
X56860Y44730D01*
X56822Y44747D01*
X56785Y44767D01*
X56750Y44790D01*
X56716Y44815D01*
X56684Y44843D01*
X56654Y44873D01*
X56626Y44905D01*
X56601Y44939D01*
X56578Y44974D01*
X56558Y45011D01*
X56541Y45049D01*
X56526Y45089D01*
X56514Y45129D01*
X56505Y45171D01*
X56499Y45212D01*
X56496Y45254D01*
X56496Y45297D01*
X56499Y45339D01*
X56505Y45381D01*
X56514Y45422D01*
X56526Y45462D01*
X56541Y45502D01*
X56558Y45540D01*
X56578Y45577D01*
X56601Y45613D01*
X56626Y45646D01*
X56654Y45678D01*
X56684Y45708D01*
X56716Y45736D01*
X56750Y45761D01*
X56785Y45784D01*
X56822Y45804D01*
X56860Y45822D01*
X56900Y45836D01*
X56940Y45848D01*
X56982Y45857D01*
X57023Y45863D01*
X57066Y45866D01*
X57108Y45866D01*
X57150Y45863D01*
X57192Y45857D01*
X57233Y45848D01*
X57273Y45836D01*
X57313Y45822D01*
X57351Y45804D01*
X57388Y45784D01*
X57424Y45761D01*
X57457Y45736D01*
X57489Y45708D01*
X57519Y45678D01*
X57547Y45646D01*
X57572Y45613D01*
X57595Y45577D01*
X57615Y45540D01*
X57633Y45502D01*
X57647Y45462D01*
X57659Y45422D01*
X57668Y45381D01*
X57674Y45339D01*
X57677Y45297D01*
X57677Y45254D01*
X2559Y1947D02*
X2556Y1905D01*
X2550Y1864D01*
X2541Y1822D01*
X2529Y1782D01*
X2514Y1742D01*
X2497Y1704D01*
X2477Y1667D01*
X2454Y1631D01*
X2429Y1598D01*
X2401Y1566D01*
X2371Y1536D01*
X2339Y1508D01*
X2306Y1483D01*
X2270Y1460D01*
X2233Y1440D01*
X2195Y1423D01*
X2155Y1408D01*
X2115Y1396D01*
X2073Y1387D01*
X2032Y1381D01*
X1990Y1378D01*
X1947Y1378D01*
X1905Y1381D01*
X1864Y1387D01*
X1822Y1396D01*
X1782Y1408D01*
X1742Y1423D01*
X1704Y1440D01*
X1667Y1460D01*
X1631Y1483D01*
X1598Y1508D01*
X1566Y1536D01*
X1536Y1566D01*
X1508Y1598D01*
X1483Y1631D01*
X1460Y1667D01*
X1440Y1704D01*
X1423Y1742D01*
X1408Y1782D01*
X1396Y1822D01*
X1387Y1864D01*
X1381Y1905D01*
X1378Y1947D01*
X1378Y1990D01*
X1381Y2032D01*
X1387Y2073D01*
X1396Y2115D01*
X1408Y2155D01*
X1423Y2195D01*
X1440Y2233D01*
X1460Y2270D01*
X1483Y2306D01*
X1508Y2339D01*
X1536Y2371D01*
X1566Y2401D01*
X1598Y2429D01*
X1631Y2454D01*
X1667Y2477D01*
X1704Y2497D01*
X1742Y2514D01*
X1782Y2529D01*
X1822Y2541D01*
X1864Y2550D01*
X1905Y2556D01*
X1947Y2559D01*
X1990Y2559D01*
X2032Y2556D01*
X2073Y2550D01*
X2115Y2541D01*
X2155Y2529D01*
X2195Y2514D01*
X2233Y2497D01*
X2270Y2477D01*
X2306Y2454D01*
X2339Y2429D01*
X2371Y2401D01*
X2401Y2371D01*
X2429Y2339D01*
X2454Y2306D01*
X2477Y2270D01*
X2497Y2233D01*
X2514Y2195D01*
X2529Y2155D01*
X2541Y2115D01*
X2550Y2073D01*
X2556Y2032D01*
X2559Y1990D01*
X2559Y1947D01*
X57677Y1947D02*
X57674Y1905D01*
X57668Y1864D01*
X57659Y1822D01*
X57647Y1782D01*
X57633Y1742D01*
X57615Y1704D01*
X57595Y1667D01*
X57572Y1631D01*
X57547Y1598D01*
X57519Y1566D01*
X57489Y1536D01*
X57457Y1508D01*
X57424Y1483D01*
X57388Y1460D01*
X57351Y1440D01*
X57313Y1423D01*
X57273Y1408D01*
X57233Y1396D01*
X57192Y1387D01*
X57150Y1381D01*
X57108Y1378D01*
X57066Y1378D01*
X57023Y1381D01*
X56982Y1387D01*
X56940Y1396D01*
X56900Y1408D01*
X56860Y1423D01*
X56822Y1440D01*
X56785Y1460D01*
X56750Y1483D01*
X56716Y1508D01*
X56684Y1536D01*
X56654Y1566D01*
X56626Y1598D01*
X56601Y1631D01*
X56578Y1667D01*
X56558Y1704D01*
X56541Y1742D01*
X56526Y1782D01*
X56514Y1822D01*
X56505Y1864D01*
X56499Y1905D01*
X56496Y1947D01*
X56496Y1990D01*
X56499Y2032D01*
X56505Y2073D01*
X56514Y2115D01*
X56526Y2155D01*
X56541Y2195D01*
X56558Y2233D01*
X56578Y2270D01*
X56601Y2306D01*
X56626Y2339D01*
X56654Y2371D01*
X56684Y2401D01*
X56716Y2429D01*
X56750Y2454D01*
X56785Y2477D01*
X56822Y2497D01*
X56860Y2514D01*
X56900Y2529D01*
X56940Y2541D01*
X56982Y2550D01*
X57023Y2556D01*
X57066Y2559D01*
X57108Y2559D01*
X57150Y2556D01*
X57192Y2550D01*
X57233Y2541D01*
X57273Y2529D01*
X57313Y2514D01*
X57351Y2497D01*
X57388Y2477D01*
X57424Y2454D01*
X57457Y2429D01*
X57489Y2401D01*
X57519Y2371D01*
X57547Y2339D01*
X57572Y2306D01*
X57595Y2270D01*
X57615Y2233D01*
X57633Y2195D01*
X57647Y2155D01*
X57659Y2115D01*
X57668Y2073D01*
X57674Y2032D01*
X57677Y1990D01*
X57677Y1947D01*
M02*
