G04 EAGLE Gerber RS-274X export*
G75*
%MOIN*%
%FSLAX34Y34*%
%LPD*%
%INSilkscreen Top*%
%IPPOS*%
%AMOC8*
5,1,8,0,0,1.08239X$1,22.5*%
G01*
%ADD10C,0.006000*%
%ADD11C,0.005000*%
%ADD12C,0.004000*%
%ADD13C,0.007874*%
%ADD14C,0.008000*%
%ADD15C,0.010000*%
%ADD16C,0.002000*%
%ADD17R,0.025000X0.045000*%
%ADD18R,0.175000X0.020000*%
%ADD19R,0.320000X0.020000*%
%ADD20R,0.125000X0.005000*%
%ADD21R,0.160000X0.020000*%
%ADD22C,0.007000*%


D10*
X9648Y16287D02*
X10148Y16287D01*
X10398Y16037D01*
X10398Y15537D01*
X10148Y15287D01*
X8648Y16287D02*
X8398Y16037D01*
X8648Y16287D02*
X9148Y16287D01*
X9398Y16037D01*
X9398Y15537D01*
X9148Y15287D01*
X8648Y15287D01*
X8398Y15537D01*
X9398Y16037D02*
X9648Y16287D01*
X9398Y15537D02*
X9648Y15287D01*
X10148Y15287D01*
X7148Y16287D02*
X6648Y16287D01*
X7148Y16287D02*
X7398Y16037D01*
X7398Y15537D01*
X7148Y15287D01*
X7398Y16037D02*
X7648Y16287D01*
X8148Y16287D01*
X8398Y16037D01*
X8398Y15537D01*
X8148Y15287D01*
X7648Y15287D01*
X7398Y15537D01*
X6398Y15537D02*
X6398Y16037D01*
X6648Y16287D01*
X6398Y15537D02*
X6648Y15287D01*
X7148Y15287D01*
X10648Y16287D02*
X11148Y16287D01*
X11398Y16037D01*
X11398Y15537D01*
X11148Y15287D01*
X10398Y16037D02*
X10648Y16287D01*
X10398Y15537D02*
X10648Y15287D01*
X11148Y15287D01*
X19175Y16287D02*
X19675Y16287D01*
X19925Y16037D01*
X19925Y15537D01*
X19675Y15287D01*
X18175Y16287D02*
X17925Y16037D01*
X18175Y16287D02*
X18675Y16287D01*
X18925Y16037D01*
X18925Y15537D01*
X18675Y15287D01*
X18175Y15287D01*
X17925Y15537D01*
X18925Y16037D02*
X19175Y16287D01*
X18925Y15537D02*
X19175Y15287D01*
X19675Y15287D01*
X16675Y16287D02*
X16175Y16287D01*
X16675Y16287D02*
X16925Y16037D01*
X16925Y15537D01*
X16675Y15287D01*
X16925Y16037D02*
X17175Y16287D01*
X17675Y16287D01*
X17925Y16037D01*
X17925Y15537D01*
X17675Y15287D01*
X17175Y15287D01*
X16925Y15537D01*
X15925Y15537D02*
X15925Y16037D01*
X16175Y16287D01*
X15925Y15537D02*
X16175Y15287D01*
X16675Y15287D01*
X20175Y16287D02*
X20675Y16287D01*
X20925Y16037D01*
X20925Y15537D01*
X20675Y15287D01*
X19925Y16037D02*
X20175Y16287D01*
X19925Y15537D02*
X20175Y15287D01*
X20675Y15287D01*
D11*
X16070Y16982D02*
X15920Y16532D01*
X16220Y16532D02*
X16070Y16982D01*
X16183Y16645D02*
X15958Y16645D01*
X16410Y16532D02*
X16410Y16982D01*
X16535Y16982D01*
X16555Y16980D01*
X16574Y16976D01*
X16592Y16968D01*
X16608Y16958D01*
X16623Y16945D01*
X16636Y16930D01*
X16646Y16914D01*
X16654Y16896D01*
X16658Y16877D01*
X16660Y16857D01*
X16660Y16657D01*
X16658Y16637D01*
X16654Y16618D01*
X16646Y16600D01*
X16636Y16584D01*
X16623Y16569D01*
X16608Y16556D01*
X16592Y16546D01*
X16574Y16538D01*
X16555Y16534D01*
X16535Y16532D01*
X16410Y16532D01*
X16974Y16532D02*
X17074Y16532D01*
X16974Y16532D02*
X16957Y16534D01*
X16940Y16538D01*
X16924Y16545D01*
X16910Y16555D01*
X16897Y16568D01*
X16887Y16582D01*
X16880Y16598D01*
X16876Y16615D01*
X16874Y16632D01*
X16874Y16882D01*
X16876Y16899D01*
X16880Y16916D01*
X16887Y16932D01*
X16897Y16946D01*
X16910Y16959D01*
X16924Y16969D01*
X16940Y16976D01*
X16957Y16980D01*
X16974Y16982D01*
X17074Y16982D01*
X17230Y16482D02*
X17430Y16482D01*
X17645Y16532D02*
X17645Y16982D01*
X17595Y16532D02*
X17695Y16532D01*
X17695Y16982D02*
X17595Y16982D01*
X17895Y16982D02*
X17895Y16532D01*
X18145Y16532D02*
X17895Y16982D01*
X18145Y16982D02*
X18145Y16532D01*
X18498Y16983D02*
X18518Y16981D01*
X18537Y16976D01*
X18555Y16968D01*
X18571Y16957D01*
X18585Y16943D01*
X18596Y16927D01*
X18604Y16909D01*
X18609Y16890D01*
X18611Y16870D01*
X18498Y16983D02*
X18475Y16981D01*
X18453Y16976D01*
X18432Y16967D01*
X18413Y16955D01*
X18395Y16940D01*
X18381Y16923D01*
X18369Y16904D01*
X18360Y16883D01*
X18572Y16782D02*
X18585Y16797D01*
X18596Y16813D01*
X18604Y16831D01*
X18608Y16850D01*
X18610Y16870D01*
X18573Y16782D02*
X18360Y16532D01*
X18610Y16532D01*
D10*
X28663Y16287D02*
X29163Y16287D01*
X29413Y16037D01*
X29413Y15537D01*
X29163Y15287D01*
X27663Y16287D02*
X27413Y16037D01*
X27663Y16287D02*
X28163Y16287D01*
X28413Y16037D01*
X28413Y15537D01*
X28163Y15287D01*
X27663Y15287D01*
X27413Y15537D01*
X28413Y16037D02*
X28663Y16287D01*
X28413Y15537D02*
X28663Y15287D01*
X29163Y15287D01*
X26163Y16287D02*
X25663Y16287D01*
X26163Y16287D02*
X26413Y16037D01*
X26413Y15537D01*
X26163Y15287D01*
X26413Y16037D02*
X26663Y16287D01*
X27163Y16287D01*
X27413Y16037D01*
X27413Y15537D01*
X27163Y15287D01*
X26663Y15287D01*
X26413Y15537D01*
X25413Y15537D02*
X25413Y16037D01*
X25663Y16287D01*
X25413Y15537D02*
X25663Y15287D01*
X26163Y15287D01*
X29663Y16287D02*
X30163Y16287D01*
X30413Y16037D01*
X30413Y15537D01*
X30163Y15287D01*
X29413Y16037D02*
X29663Y16287D01*
X29413Y15537D02*
X29663Y15287D01*
X30163Y15287D01*
D11*
X25558Y16982D02*
X25408Y16532D01*
X25708Y16532D02*
X25558Y16982D01*
X25671Y16645D02*
X25446Y16645D01*
X25898Y16532D02*
X25898Y16982D01*
X26023Y16982D01*
X26043Y16980D01*
X26062Y16976D01*
X26080Y16968D01*
X26096Y16958D01*
X26111Y16945D01*
X26124Y16930D01*
X26134Y16914D01*
X26142Y16896D01*
X26146Y16877D01*
X26148Y16857D01*
X26148Y16657D01*
X26146Y16637D01*
X26142Y16618D01*
X26134Y16600D01*
X26124Y16584D01*
X26111Y16569D01*
X26096Y16556D01*
X26080Y16546D01*
X26062Y16538D01*
X26043Y16534D01*
X26023Y16532D01*
X25898Y16532D01*
X26462Y16532D02*
X26562Y16532D01*
X26462Y16532D02*
X26445Y16534D01*
X26428Y16538D01*
X26412Y16545D01*
X26398Y16555D01*
X26385Y16568D01*
X26375Y16582D01*
X26368Y16598D01*
X26364Y16615D01*
X26362Y16632D01*
X26362Y16882D01*
X26364Y16899D01*
X26368Y16916D01*
X26375Y16932D01*
X26385Y16946D01*
X26398Y16959D01*
X26412Y16969D01*
X26428Y16976D01*
X26445Y16980D01*
X26462Y16982D01*
X26562Y16982D01*
X26718Y16482D02*
X26918Y16482D01*
X27133Y16532D02*
X27133Y16982D01*
X27083Y16532D02*
X27183Y16532D01*
X27183Y16982D02*
X27083Y16982D01*
X27383Y16982D02*
X27383Y16532D01*
X27633Y16532D02*
X27383Y16982D01*
X27633Y16982D02*
X27633Y16532D01*
X27848Y16532D02*
X27973Y16532D01*
X27994Y16534D01*
X28014Y16539D01*
X28032Y16547D01*
X28050Y16558D01*
X28065Y16572D01*
X28078Y16589D01*
X28087Y16607D01*
X28094Y16626D01*
X28098Y16647D01*
X28098Y16667D01*
X28094Y16688D01*
X28087Y16707D01*
X28078Y16725D01*
X28065Y16742D01*
X28050Y16756D01*
X28032Y16767D01*
X28014Y16775D01*
X27994Y16780D01*
X27973Y16782D01*
X27998Y16982D02*
X27848Y16982D01*
X27998Y16982D02*
X28016Y16980D01*
X28034Y16975D01*
X28051Y16967D01*
X28065Y16956D01*
X28078Y16942D01*
X28088Y16927D01*
X28094Y16909D01*
X28098Y16891D01*
X28098Y16873D01*
X28094Y16855D01*
X28088Y16837D01*
X28078Y16822D01*
X28065Y16808D01*
X28051Y16797D01*
X28034Y16789D01*
X28016Y16784D01*
X27998Y16782D01*
X27898Y16782D01*
D10*
X19833Y33571D02*
X19333Y33571D01*
X19833Y33571D02*
X20083Y33321D01*
X20083Y32821D01*
X19833Y32571D01*
X18333Y33571D02*
X18083Y33321D01*
X18333Y33571D02*
X18833Y33571D01*
X19083Y33321D01*
X19083Y32821D01*
X18833Y32571D01*
X18333Y32571D01*
X18083Y32821D01*
X19083Y33321D02*
X19333Y33571D01*
X19083Y32821D02*
X19333Y32571D01*
X19833Y32571D01*
X16833Y33571D02*
X16333Y33571D01*
X16833Y33571D02*
X17083Y33321D01*
X17083Y32821D01*
X16833Y32571D01*
X17083Y33321D02*
X17333Y33571D01*
X17833Y33571D01*
X18083Y33321D01*
X18083Y32821D01*
X17833Y32571D01*
X17333Y32571D01*
X17083Y32821D01*
X16083Y32821D02*
X16083Y33321D01*
X16333Y33571D01*
X16083Y32821D02*
X16333Y32571D01*
X16833Y32571D01*
X20333Y33571D02*
X20833Y33571D01*
X21083Y33321D01*
X21083Y32821D01*
X20833Y32571D01*
X20083Y33321D02*
X20333Y33571D01*
X20083Y32821D02*
X20333Y32571D01*
X20833Y32571D01*
D11*
X16228Y34266D02*
X16078Y33816D01*
X16378Y33816D02*
X16228Y34266D01*
X16340Y33928D02*
X16115Y33928D01*
X16568Y33816D02*
X16568Y34266D01*
X16693Y34266D01*
X16713Y34264D01*
X16732Y34260D01*
X16750Y34252D01*
X16766Y34242D01*
X16781Y34229D01*
X16794Y34214D01*
X16804Y34198D01*
X16812Y34180D01*
X16816Y34161D01*
X16818Y34141D01*
X16818Y33941D01*
X16816Y33921D01*
X16812Y33902D01*
X16804Y33884D01*
X16794Y33868D01*
X16781Y33853D01*
X16766Y33840D01*
X16750Y33830D01*
X16732Y33822D01*
X16713Y33818D01*
X16693Y33816D01*
X16568Y33816D01*
X17131Y33816D02*
X17231Y33816D01*
X17131Y33816D02*
X17114Y33818D01*
X17097Y33822D01*
X17081Y33829D01*
X17067Y33839D01*
X17054Y33852D01*
X17044Y33866D01*
X17037Y33882D01*
X17033Y33899D01*
X17031Y33916D01*
X17031Y34166D01*
X17033Y34183D01*
X17037Y34200D01*
X17044Y34216D01*
X17054Y34230D01*
X17067Y34243D01*
X17081Y34253D01*
X17097Y34260D01*
X17114Y34264D01*
X17131Y34266D01*
X17231Y34266D01*
X17388Y33766D02*
X17588Y33766D01*
X17803Y33816D02*
X17803Y34266D01*
X17753Y33816D02*
X17853Y33816D01*
X17853Y34266D02*
X17753Y34266D01*
X18053Y34266D02*
X18053Y33816D01*
X18303Y33816D02*
X18053Y34266D01*
X18303Y34266D02*
X18303Y33816D01*
X18518Y33916D02*
X18618Y34266D01*
X18518Y33916D02*
X18768Y33916D01*
X18693Y34016D02*
X18693Y33816D01*
D10*
X29372Y33374D02*
X29872Y33374D01*
X30122Y33124D01*
X30122Y32624D01*
X29872Y32374D01*
X28372Y33374D02*
X28122Y33124D01*
X28372Y33374D02*
X28872Y33374D01*
X29122Y33124D01*
X29122Y32624D01*
X28872Y32374D01*
X28372Y32374D01*
X28122Y32624D01*
X29122Y33124D02*
X29372Y33374D01*
X29122Y32624D02*
X29372Y32374D01*
X29872Y32374D01*
X26872Y33374D02*
X26372Y33374D01*
X26872Y33374D02*
X27122Y33124D01*
X27122Y32624D01*
X26872Y32374D01*
X27122Y33124D02*
X27372Y33374D01*
X27872Y33374D01*
X28122Y33124D01*
X28122Y32624D01*
X27872Y32374D01*
X27372Y32374D01*
X27122Y32624D01*
X26122Y32624D02*
X26122Y33124D01*
X26372Y33374D01*
X26122Y32624D02*
X26372Y32374D01*
X26872Y32374D01*
X30372Y33374D02*
X30872Y33374D01*
X31122Y33124D01*
X31122Y32624D01*
X30872Y32374D01*
X30122Y33124D02*
X30372Y33374D01*
X30122Y32624D02*
X30372Y32374D01*
X30872Y32374D01*
D11*
X26267Y34069D02*
X26117Y33619D01*
X26417Y33619D02*
X26267Y34069D01*
X26380Y33732D02*
X26155Y33732D01*
X26607Y33619D02*
X26607Y34069D01*
X26732Y34069D01*
X26752Y34067D01*
X26771Y34063D01*
X26789Y34055D01*
X26805Y34045D01*
X26820Y34032D01*
X26833Y34017D01*
X26843Y34001D01*
X26851Y33983D01*
X26855Y33964D01*
X26857Y33944D01*
X26857Y33744D01*
X26855Y33724D01*
X26851Y33705D01*
X26843Y33687D01*
X26833Y33671D01*
X26820Y33656D01*
X26805Y33643D01*
X26789Y33633D01*
X26771Y33625D01*
X26752Y33621D01*
X26732Y33619D01*
X26607Y33619D01*
X27171Y33619D02*
X27271Y33619D01*
X27171Y33619D02*
X27154Y33621D01*
X27137Y33625D01*
X27121Y33632D01*
X27107Y33642D01*
X27094Y33655D01*
X27084Y33669D01*
X27077Y33685D01*
X27073Y33702D01*
X27071Y33719D01*
X27071Y33969D01*
X27073Y33986D01*
X27077Y34003D01*
X27084Y34019D01*
X27094Y34033D01*
X27107Y34046D01*
X27121Y34056D01*
X27137Y34063D01*
X27154Y34067D01*
X27171Y34069D01*
X27271Y34069D01*
X27427Y33569D02*
X27627Y33569D01*
X27842Y33619D02*
X27842Y34069D01*
X27792Y33619D02*
X27892Y33619D01*
X27892Y34069D02*
X27792Y34069D01*
X28092Y34069D02*
X28092Y33619D01*
X28342Y33619D02*
X28092Y34069D01*
X28342Y34069D02*
X28342Y33619D01*
X28557Y33619D02*
X28707Y33619D01*
X28724Y33621D01*
X28741Y33625D01*
X28757Y33632D01*
X28771Y33642D01*
X28784Y33655D01*
X28794Y33669D01*
X28801Y33685D01*
X28805Y33702D01*
X28807Y33719D01*
X28807Y33769D01*
X28805Y33786D01*
X28801Y33803D01*
X28794Y33819D01*
X28784Y33833D01*
X28771Y33846D01*
X28757Y33856D01*
X28741Y33863D01*
X28724Y33867D01*
X28707Y33869D01*
X28557Y33869D01*
X28557Y34069D01*
X28807Y34069D01*
D10*
X9148Y25933D02*
X8898Y25683D01*
X9148Y25933D02*
X9648Y25933D01*
X9898Y25683D01*
X9898Y25183D01*
X9648Y24933D01*
X9148Y24933D01*
X8898Y25183D01*
X7648Y25933D02*
X7148Y25933D01*
X7648Y25933D02*
X7898Y25683D01*
X7898Y25183D01*
X7648Y24933D01*
X7898Y25683D02*
X8148Y25933D01*
X8648Y25933D01*
X8898Y25683D01*
X8898Y25183D01*
X8648Y24933D01*
X8148Y24933D01*
X7898Y25183D01*
X6898Y25183D02*
X6898Y25683D01*
X7148Y25933D01*
X6898Y25183D02*
X7148Y24933D01*
X7648Y24933D01*
X10148Y25933D02*
X10648Y25933D01*
X10898Y25683D01*
X10898Y25183D01*
X10648Y24933D01*
X9898Y25683D02*
X10148Y25933D01*
X9898Y25183D02*
X10148Y24933D01*
X10648Y24933D01*
D11*
X6893Y26178D02*
X7043Y26628D01*
X7193Y26178D01*
X7155Y26291D02*
X6930Y26291D01*
X7383Y26178D02*
X7383Y26628D01*
X7508Y26628D01*
X7528Y26626D01*
X7547Y26622D01*
X7565Y26614D01*
X7581Y26604D01*
X7596Y26591D01*
X7609Y26576D01*
X7619Y26560D01*
X7627Y26542D01*
X7631Y26523D01*
X7633Y26503D01*
X7633Y26303D01*
X7631Y26283D01*
X7627Y26264D01*
X7619Y26246D01*
X7609Y26230D01*
X7596Y26215D01*
X7581Y26202D01*
X7565Y26192D01*
X7547Y26184D01*
X7528Y26180D01*
X7508Y26178D01*
X7383Y26178D01*
X7946Y26178D02*
X8046Y26178D01*
X7946Y26178D02*
X7929Y26180D01*
X7912Y26184D01*
X7896Y26191D01*
X7882Y26201D01*
X7869Y26214D01*
X7859Y26228D01*
X7852Y26244D01*
X7848Y26261D01*
X7846Y26278D01*
X7846Y26528D01*
X7848Y26545D01*
X7852Y26562D01*
X7859Y26578D01*
X7869Y26592D01*
X7882Y26605D01*
X7896Y26615D01*
X7912Y26622D01*
X7929Y26626D01*
X7946Y26628D01*
X8046Y26628D01*
X8203Y26128D02*
X8403Y26128D01*
X8583Y26303D02*
X8583Y26503D01*
X8585Y26524D01*
X8590Y26544D01*
X8598Y26562D01*
X8609Y26580D01*
X8623Y26595D01*
X8640Y26608D01*
X8658Y26617D01*
X8677Y26624D01*
X8698Y26628D01*
X8718Y26628D01*
X8739Y26624D01*
X8758Y26617D01*
X8776Y26608D01*
X8793Y26595D01*
X8807Y26580D01*
X8818Y26562D01*
X8826Y26544D01*
X8831Y26524D01*
X8833Y26503D01*
X8833Y26303D01*
X8831Y26282D01*
X8826Y26262D01*
X8818Y26244D01*
X8807Y26226D01*
X8793Y26211D01*
X8776Y26198D01*
X8758Y26189D01*
X8739Y26182D01*
X8718Y26178D01*
X8698Y26178D01*
X8677Y26182D01*
X8658Y26189D01*
X8640Y26198D01*
X8623Y26211D01*
X8609Y26226D01*
X8598Y26244D01*
X8590Y26262D01*
X8585Y26282D01*
X8583Y26303D01*
X9048Y26303D02*
X9048Y26628D01*
X9048Y26303D02*
X9050Y26282D01*
X9055Y26262D01*
X9063Y26244D01*
X9074Y26226D01*
X9088Y26211D01*
X9105Y26198D01*
X9123Y26189D01*
X9142Y26182D01*
X9163Y26178D01*
X9183Y26178D01*
X9204Y26182D01*
X9223Y26189D01*
X9241Y26198D01*
X9258Y26211D01*
X9272Y26226D01*
X9283Y26244D01*
X9291Y26262D01*
X9296Y26282D01*
X9298Y26303D01*
X9298Y26628D01*
X9608Y26628D02*
X9608Y26178D01*
X9483Y26628D02*
X9733Y26628D01*
X9903Y26528D02*
X10028Y26628D01*
X10028Y26178D01*
X9903Y26178D02*
X10153Y26178D01*
D10*
X18425Y25683D02*
X18675Y25933D01*
X19175Y25933D01*
X19425Y25683D01*
X19425Y25183D01*
X19175Y24933D01*
X18675Y24933D01*
X18425Y25183D01*
X17175Y25933D02*
X16675Y25933D01*
X17175Y25933D02*
X17425Y25683D01*
X17425Y25183D01*
X17175Y24933D01*
X17425Y25683D02*
X17675Y25933D01*
X18175Y25933D01*
X18425Y25683D01*
X18425Y25183D01*
X18175Y24933D01*
X17675Y24933D01*
X17425Y25183D01*
X16425Y25183D02*
X16425Y25683D01*
X16675Y25933D01*
X16425Y25183D02*
X16675Y24933D01*
X17175Y24933D01*
X19675Y25933D02*
X20175Y25933D01*
X20425Y25683D01*
X20425Y25183D01*
X20175Y24933D01*
X19425Y25683D02*
X19675Y25933D01*
X19425Y25183D02*
X19675Y24933D01*
X20175Y24933D01*
D11*
X16420Y26178D02*
X16570Y26628D01*
X16720Y26178D01*
X16683Y26291D02*
X16458Y26291D01*
X16910Y26178D02*
X16910Y26628D01*
X17035Y26628D01*
X17055Y26626D01*
X17074Y26622D01*
X17092Y26614D01*
X17108Y26604D01*
X17123Y26591D01*
X17136Y26576D01*
X17146Y26560D01*
X17154Y26542D01*
X17158Y26523D01*
X17160Y26503D01*
X17160Y26303D01*
X17158Y26283D01*
X17154Y26264D01*
X17146Y26246D01*
X17136Y26230D01*
X17123Y26215D01*
X17108Y26202D01*
X17092Y26192D01*
X17074Y26184D01*
X17055Y26180D01*
X17035Y26178D01*
X16910Y26178D01*
X17474Y26178D02*
X17574Y26178D01*
X17474Y26178D02*
X17457Y26180D01*
X17440Y26184D01*
X17424Y26191D01*
X17410Y26201D01*
X17397Y26214D01*
X17387Y26228D01*
X17380Y26244D01*
X17376Y26261D01*
X17374Y26278D01*
X17374Y26528D01*
X17376Y26545D01*
X17380Y26562D01*
X17387Y26578D01*
X17397Y26592D01*
X17410Y26605D01*
X17424Y26615D01*
X17440Y26622D01*
X17457Y26626D01*
X17474Y26628D01*
X17574Y26628D01*
X17730Y26128D02*
X17930Y26128D01*
X18110Y26303D02*
X18110Y26503D01*
X18112Y26524D01*
X18117Y26544D01*
X18125Y26562D01*
X18136Y26580D01*
X18150Y26595D01*
X18167Y26608D01*
X18185Y26617D01*
X18204Y26624D01*
X18225Y26628D01*
X18245Y26628D01*
X18266Y26624D01*
X18285Y26617D01*
X18303Y26608D01*
X18320Y26595D01*
X18334Y26580D01*
X18345Y26562D01*
X18353Y26544D01*
X18358Y26524D01*
X18360Y26503D01*
X18360Y26303D01*
X18358Y26282D01*
X18353Y26262D01*
X18345Y26244D01*
X18334Y26226D01*
X18320Y26211D01*
X18303Y26198D01*
X18285Y26189D01*
X18266Y26182D01*
X18245Y26178D01*
X18225Y26178D01*
X18204Y26182D01*
X18185Y26189D01*
X18167Y26198D01*
X18150Y26211D01*
X18136Y26226D01*
X18125Y26244D01*
X18117Y26262D01*
X18112Y26282D01*
X18110Y26303D01*
X18575Y26303D02*
X18575Y26628D01*
X18575Y26303D02*
X18577Y26282D01*
X18582Y26262D01*
X18590Y26244D01*
X18601Y26226D01*
X18615Y26211D01*
X18632Y26198D01*
X18650Y26189D01*
X18669Y26182D01*
X18690Y26178D01*
X18710Y26178D01*
X18731Y26182D01*
X18750Y26189D01*
X18768Y26198D01*
X18785Y26211D01*
X18799Y26226D01*
X18810Y26244D01*
X18818Y26262D01*
X18823Y26282D01*
X18825Y26303D01*
X18825Y26628D01*
X19135Y26628D02*
X19135Y26178D01*
X19010Y26628D02*
X19260Y26628D01*
X19568Y26629D02*
X19588Y26627D01*
X19607Y26622D01*
X19625Y26614D01*
X19641Y26603D01*
X19655Y26589D01*
X19666Y26573D01*
X19674Y26555D01*
X19679Y26536D01*
X19681Y26516D01*
X19568Y26629D02*
X19545Y26627D01*
X19523Y26622D01*
X19502Y26613D01*
X19483Y26601D01*
X19465Y26586D01*
X19451Y26569D01*
X19439Y26550D01*
X19430Y26529D01*
X19642Y26428D02*
X19655Y26443D01*
X19666Y26459D01*
X19674Y26477D01*
X19678Y26496D01*
X19680Y26516D01*
X19643Y26428D02*
X19430Y26178D01*
X19680Y26178D01*
D10*
X27913Y25683D02*
X28163Y25933D01*
X28663Y25933D01*
X28913Y25683D01*
X28913Y25183D01*
X28663Y24933D01*
X28163Y24933D01*
X27913Y25183D01*
X26663Y25933D02*
X26163Y25933D01*
X26663Y25933D02*
X26913Y25683D01*
X26913Y25183D01*
X26663Y24933D01*
X26913Y25683D02*
X27163Y25933D01*
X27663Y25933D01*
X27913Y25683D01*
X27913Y25183D01*
X27663Y24933D01*
X27163Y24933D01*
X26913Y25183D01*
X25913Y25183D02*
X25913Y25683D01*
X26163Y25933D01*
X25913Y25183D02*
X26163Y24933D01*
X26663Y24933D01*
X29163Y25933D02*
X29663Y25933D01*
X29913Y25683D01*
X29913Y25183D01*
X29663Y24933D01*
X28913Y25683D02*
X29163Y25933D01*
X28913Y25183D02*
X29163Y24933D01*
X29663Y24933D01*
D11*
X25908Y26178D02*
X26058Y26628D01*
X26208Y26178D01*
X26171Y26291D02*
X25946Y26291D01*
X26398Y26178D02*
X26398Y26628D01*
X26523Y26628D01*
X26543Y26626D01*
X26562Y26622D01*
X26580Y26614D01*
X26596Y26604D01*
X26611Y26591D01*
X26624Y26576D01*
X26634Y26560D01*
X26642Y26542D01*
X26646Y26523D01*
X26648Y26503D01*
X26648Y26303D01*
X26646Y26283D01*
X26642Y26264D01*
X26634Y26246D01*
X26624Y26230D01*
X26611Y26215D01*
X26596Y26202D01*
X26580Y26192D01*
X26562Y26184D01*
X26543Y26180D01*
X26523Y26178D01*
X26398Y26178D01*
X26962Y26178D02*
X27062Y26178D01*
X26962Y26178D02*
X26945Y26180D01*
X26928Y26184D01*
X26912Y26191D01*
X26898Y26201D01*
X26885Y26214D01*
X26875Y26228D01*
X26868Y26244D01*
X26864Y26261D01*
X26862Y26278D01*
X26862Y26528D01*
X26864Y26545D01*
X26868Y26562D01*
X26875Y26578D01*
X26885Y26592D01*
X26898Y26605D01*
X26912Y26615D01*
X26928Y26622D01*
X26945Y26626D01*
X26962Y26628D01*
X27062Y26628D01*
X27218Y26128D02*
X27418Y26128D01*
X27598Y26303D02*
X27598Y26503D01*
X27600Y26524D01*
X27605Y26544D01*
X27613Y26562D01*
X27624Y26580D01*
X27638Y26595D01*
X27655Y26608D01*
X27673Y26617D01*
X27692Y26624D01*
X27713Y26628D01*
X27733Y26628D01*
X27754Y26624D01*
X27773Y26617D01*
X27791Y26608D01*
X27808Y26595D01*
X27822Y26580D01*
X27833Y26562D01*
X27841Y26544D01*
X27846Y26524D01*
X27848Y26503D01*
X27848Y26303D01*
X27846Y26282D01*
X27841Y26262D01*
X27833Y26244D01*
X27822Y26226D01*
X27808Y26211D01*
X27791Y26198D01*
X27773Y26189D01*
X27754Y26182D01*
X27733Y26178D01*
X27713Y26178D01*
X27692Y26182D01*
X27673Y26189D01*
X27655Y26198D01*
X27638Y26211D01*
X27624Y26226D01*
X27613Y26244D01*
X27605Y26262D01*
X27600Y26282D01*
X27598Y26303D01*
X28063Y26303D02*
X28063Y26628D01*
X28063Y26303D02*
X28065Y26282D01*
X28070Y26262D01*
X28078Y26244D01*
X28089Y26226D01*
X28103Y26211D01*
X28120Y26198D01*
X28138Y26189D01*
X28157Y26182D01*
X28178Y26178D01*
X28198Y26178D01*
X28219Y26182D01*
X28238Y26189D01*
X28256Y26198D01*
X28273Y26211D01*
X28287Y26226D01*
X28298Y26244D01*
X28306Y26262D01*
X28311Y26282D01*
X28313Y26303D01*
X28313Y26628D01*
X28623Y26628D02*
X28623Y26178D01*
X28498Y26628D02*
X28748Y26628D01*
X28918Y26178D02*
X29043Y26178D01*
X29064Y26180D01*
X29084Y26185D01*
X29102Y26193D01*
X29120Y26204D01*
X29135Y26218D01*
X29148Y26235D01*
X29157Y26253D01*
X29164Y26272D01*
X29168Y26293D01*
X29168Y26313D01*
X29164Y26334D01*
X29157Y26353D01*
X29148Y26371D01*
X29135Y26388D01*
X29120Y26402D01*
X29102Y26413D01*
X29084Y26421D01*
X29064Y26426D01*
X29043Y26428D01*
X29068Y26628D02*
X28918Y26628D01*
X29068Y26628D02*
X29086Y26626D01*
X29104Y26621D01*
X29121Y26613D01*
X29135Y26602D01*
X29148Y26588D01*
X29158Y26573D01*
X29164Y26555D01*
X29168Y26537D01*
X29168Y26519D01*
X29164Y26501D01*
X29158Y26483D01*
X29148Y26468D01*
X29135Y26454D01*
X29121Y26443D01*
X29104Y26435D01*
X29086Y26430D01*
X29068Y26428D01*
X28968Y26428D01*
D10*
X18583Y42967D02*
X18833Y43217D01*
X19333Y43217D01*
X19583Y42967D01*
X19583Y42467D01*
X19333Y42217D01*
X18833Y42217D01*
X18583Y42467D01*
X17333Y43217D02*
X16833Y43217D01*
X17333Y43217D02*
X17583Y42967D01*
X17583Y42467D01*
X17333Y42217D01*
X17583Y42967D02*
X17833Y43217D01*
X18333Y43217D01*
X18583Y42967D01*
X18583Y42467D01*
X18333Y42217D01*
X17833Y42217D01*
X17583Y42467D01*
X16583Y42467D02*
X16583Y42967D01*
X16833Y43217D01*
X16583Y42467D02*
X16833Y42217D01*
X17333Y42217D01*
X19833Y43217D02*
X20333Y43217D01*
X20583Y42967D01*
X20583Y42467D01*
X20333Y42217D01*
X19583Y42967D02*
X19833Y43217D01*
X19583Y42467D02*
X19833Y42217D01*
X20333Y42217D01*
D11*
X16578Y43462D02*
X16728Y43912D01*
X16878Y43462D01*
X16840Y43574D02*
X16615Y43574D01*
X17068Y43462D02*
X17068Y43912D01*
X17193Y43912D01*
X17213Y43910D01*
X17232Y43906D01*
X17250Y43898D01*
X17266Y43888D01*
X17281Y43875D01*
X17294Y43860D01*
X17304Y43844D01*
X17312Y43826D01*
X17316Y43807D01*
X17318Y43787D01*
X17318Y43587D01*
X17316Y43567D01*
X17312Y43548D01*
X17304Y43530D01*
X17294Y43514D01*
X17281Y43499D01*
X17266Y43486D01*
X17250Y43476D01*
X17232Y43468D01*
X17213Y43464D01*
X17193Y43462D01*
X17068Y43462D01*
X17631Y43462D02*
X17731Y43462D01*
X17631Y43462D02*
X17614Y43464D01*
X17597Y43468D01*
X17581Y43475D01*
X17567Y43485D01*
X17554Y43498D01*
X17544Y43512D01*
X17537Y43528D01*
X17533Y43545D01*
X17531Y43562D01*
X17531Y43812D01*
X17533Y43829D01*
X17537Y43846D01*
X17544Y43862D01*
X17554Y43876D01*
X17567Y43889D01*
X17581Y43899D01*
X17597Y43906D01*
X17614Y43910D01*
X17631Y43912D01*
X17731Y43912D01*
X17888Y43412D02*
X18088Y43412D01*
X18268Y43587D02*
X18268Y43787D01*
X18270Y43808D01*
X18275Y43828D01*
X18283Y43846D01*
X18294Y43864D01*
X18308Y43879D01*
X18325Y43892D01*
X18343Y43901D01*
X18362Y43908D01*
X18383Y43912D01*
X18403Y43912D01*
X18424Y43908D01*
X18443Y43901D01*
X18461Y43892D01*
X18478Y43879D01*
X18492Y43864D01*
X18503Y43846D01*
X18511Y43828D01*
X18516Y43808D01*
X18518Y43787D01*
X18518Y43587D01*
X18516Y43566D01*
X18511Y43546D01*
X18503Y43528D01*
X18492Y43510D01*
X18478Y43495D01*
X18461Y43482D01*
X18443Y43473D01*
X18424Y43466D01*
X18403Y43462D01*
X18383Y43462D01*
X18362Y43466D01*
X18343Y43473D01*
X18325Y43482D01*
X18308Y43495D01*
X18294Y43510D01*
X18283Y43528D01*
X18275Y43546D01*
X18270Y43566D01*
X18268Y43587D01*
X18733Y43587D02*
X18733Y43912D01*
X18733Y43587D02*
X18735Y43566D01*
X18740Y43546D01*
X18748Y43528D01*
X18759Y43510D01*
X18773Y43495D01*
X18790Y43482D01*
X18808Y43473D01*
X18827Y43466D01*
X18848Y43462D01*
X18868Y43462D01*
X18889Y43466D01*
X18908Y43473D01*
X18926Y43482D01*
X18943Y43495D01*
X18957Y43510D01*
X18968Y43528D01*
X18976Y43546D01*
X18981Y43566D01*
X18983Y43587D01*
X18983Y43912D01*
X19293Y43912D02*
X19293Y43462D01*
X19168Y43912D02*
X19418Y43912D01*
X19688Y43912D02*
X19588Y43562D01*
X19838Y43562D01*
X19763Y43662D02*
X19763Y43462D01*
D10*
X28622Y42967D02*
X28872Y43217D01*
X29372Y43217D01*
X29622Y42967D01*
X29622Y42467D01*
X29372Y42217D01*
X28872Y42217D01*
X28622Y42467D01*
X27372Y43217D02*
X26872Y43217D01*
X27372Y43217D02*
X27622Y42967D01*
X27622Y42467D01*
X27372Y42217D01*
X27622Y42967D02*
X27872Y43217D01*
X28372Y43217D01*
X28622Y42967D01*
X28622Y42467D01*
X28372Y42217D01*
X27872Y42217D01*
X27622Y42467D01*
X26622Y42467D02*
X26622Y42967D01*
X26872Y43217D01*
X26622Y42467D02*
X26872Y42217D01*
X27372Y42217D01*
X29872Y43217D02*
X30372Y43217D01*
X30622Y42967D01*
X30622Y42467D01*
X30372Y42217D01*
X29622Y42967D02*
X29872Y43217D01*
X29622Y42467D02*
X29872Y42217D01*
X30372Y42217D01*
D11*
X26617Y43462D02*
X26767Y43912D01*
X26917Y43462D01*
X26880Y43574D02*
X26655Y43574D01*
X27107Y43462D02*
X27107Y43912D01*
X27232Y43912D01*
X27252Y43910D01*
X27271Y43906D01*
X27289Y43898D01*
X27305Y43888D01*
X27320Y43875D01*
X27333Y43860D01*
X27343Y43844D01*
X27351Y43826D01*
X27355Y43807D01*
X27357Y43787D01*
X27357Y43587D01*
X27355Y43567D01*
X27351Y43548D01*
X27343Y43530D01*
X27333Y43514D01*
X27320Y43499D01*
X27305Y43486D01*
X27289Y43476D01*
X27271Y43468D01*
X27252Y43464D01*
X27232Y43462D01*
X27107Y43462D01*
X27671Y43462D02*
X27771Y43462D01*
X27671Y43462D02*
X27654Y43464D01*
X27637Y43468D01*
X27621Y43475D01*
X27607Y43485D01*
X27594Y43498D01*
X27584Y43512D01*
X27577Y43528D01*
X27573Y43545D01*
X27571Y43562D01*
X27571Y43812D01*
X27573Y43829D01*
X27577Y43846D01*
X27584Y43862D01*
X27594Y43876D01*
X27607Y43889D01*
X27621Y43899D01*
X27637Y43906D01*
X27654Y43910D01*
X27671Y43912D01*
X27771Y43912D01*
X27927Y43412D02*
X28127Y43412D01*
X28307Y43587D02*
X28307Y43787D01*
X28309Y43808D01*
X28314Y43828D01*
X28322Y43846D01*
X28333Y43864D01*
X28347Y43879D01*
X28364Y43892D01*
X28382Y43901D01*
X28401Y43908D01*
X28422Y43912D01*
X28442Y43912D01*
X28463Y43908D01*
X28482Y43901D01*
X28500Y43892D01*
X28517Y43879D01*
X28531Y43864D01*
X28542Y43846D01*
X28550Y43828D01*
X28555Y43808D01*
X28557Y43787D01*
X28557Y43587D01*
X28555Y43566D01*
X28550Y43546D01*
X28542Y43528D01*
X28531Y43510D01*
X28517Y43495D01*
X28500Y43482D01*
X28482Y43473D01*
X28463Y43466D01*
X28442Y43462D01*
X28422Y43462D01*
X28401Y43466D01*
X28382Y43473D01*
X28364Y43482D01*
X28347Y43495D01*
X28333Y43510D01*
X28322Y43528D01*
X28314Y43546D01*
X28309Y43566D01*
X28307Y43587D01*
X28772Y43587D02*
X28772Y43912D01*
X28772Y43587D02*
X28774Y43566D01*
X28779Y43546D01*
X28787Y43528D01*
X28798Y43510D01*
X28812Y43495D01*
X28829Y43482D01*
X28847Y43473D01*
X28866Y43466D01*
X28887Y43462D01*
X28907Y43462D01*
X28928Y43466D01*
X28947Y43473D01*
X28965Y43482D01*
X28982Y43495D01*
X28996Y43510D01*
X29007Y43528D01*
X29015Y43546D01*
X29020Y43566D01*
X29022Y43587D01*
X29022Y43912D01*
X29332Y43912D02*
X29332Y43462D01*
X29207Y43912D02*
X29457Y43912D01*
X29627Y43462D02*
X29777Y43462D01*
X29794Y43464D01*
X29811Y43468D01*
X29827Y43475D01*
X29841Y43485D01*
X29854Y43498D01*
X29864Y43512D01*
X29871Y43528D01*
X29875Y43545D01*
X29877Y43562D01*
X29877Y43612D01*
X29875Y43629D01*
X29871Y43646D01*
X29864Y43662D01*
X29854Y43676D01*
X29841Y43689D01*
X29827Y43699D01*
X29811Y43706D01*
X29794Y43710D01*
X29777Y43712D01*
X29627Y43712D01*
X29627Y43912D01*
X29877Y43912D01*
X5886Y10531D02*
X5886Y5531D01*
X6850Y11634D02*
X8110Y11634D01*
X9075Y10531D02*
X9075Y5531D01*
X5886Y5531D01*
X7480Y5236D02*
X7480Y4843D01*
X7283Y5039D02*
X7677Y5039D01*
X5886Y10531D02*
X6850Y11634D01*
X8110Y11634D02*
X9075Y10531D01*
X7480Y11929D02*
X7480Y12323D01*
D12*
X5118Y5581D02*
X5118Y5453D01*
X5118Y5581D02*
X5120Y5602D01*
X5125Y5623D01*
X5133Y5642D01*
X5145Y5660D01*
X5159Y5675D01*
X5176Y5688D01*
X5195Y5698D01*
X5215Y5705D01*
X5235Y5709D01*
X5257Y5709D01*
X5277Y5705D01*
X5297Y5698D01*
X5316Y5688D01*
X5333Y5675D01*
X5347Y5660D01*
X5359Y5642D01*
X5367Y5623D01*
X5372Y5602D01*
X5374Y5581D01*
X5374Y5453D01*
X4914Y5453D01*
X4914Y5581D01*
X4916Y5600D01*
X4921Y5618D01*
X4929Y5635D01*
X4941Y5650D01*
X4955Y5662D01*
X4971Y5672D01*
X4988Y5679D01*
X5007Y5683D01*
X5025Y5683D01*
X5044Y5679D01*
X5061Y5672D01*
X5077Y5662D01*
X5091Y5650D01*
X5103Y5635D01*
X5111Y5618D01*
X5116Y5600D01*
X5118Y5581D01*
X5016Y5881D02*
X4914Y6009D01*
X5374Y6009D01*
X5374Y5881D02*
X5374Y6137D01*
D11*
X17697Y5295D02*
X17697Y10295D01*
X18661Y11398D02*
X19921Y11398D01*
X20886Y10295D02*
X20886Y5295D01*
X17697Y5295D01*
X19291Y5000D02*
X19291Y4606D01*
X19094Y4803D02*
X19488Y4803D01*
X17697Y10295D02*
X18661Y11398D01*
X19921Y11398D02*
X20886Y10295D01*
X19291Y11693D02*
X19291Y12087D01*
X41240Y9862D02*
X41240Y4862D01*
X42205Y10965D02*
X43465Y10965D01*
X44429Y9862D02*
X44429Y4862D01*
X41240Y4862D01*
X42835Y4567D02*
X42835Y4173D01*
X43031Y4370D02*
X42638Y4370D01*
X41240Y9862D02*
X42205Y10965D01*
X43465Y10965D02*
X44429Y9862D01*
X42835Y11260D02*
X42835Y11654D01*
D12*
X40472Y4912D02*
X40472Y4784D01*
X40472Y4912D02*
X40474Y4933D01*
X40479Y4954D01*
X40487Y4973D01*
X40499Y4991D01*
X40513Y5006D01*
X40530Y5019D01*
X40549Y5029D01*
X40569Y5036D01*
X40589Y5040D01*
X40611Y5040D01*
X40631Y5036D01*
X40651Y5029D01*
X40670Y5019D01*
X40687Y5006D01*
X40701Y4991D01*
X40713Y4973D01*
X40721Y4954D01*
X40726Y4933D01*
X40728Y4912D01*
X40728Y4784D01*
X40268Y4784D01*
X40268Y4912D01*
X40270Y4931D01*
X40275Y4949D01*
X40283Y4966D01*
X40295Y4981D01*
X40309Y4993D01*
X40325Y5003D01*
X40342Y5010D01*
X40361Y5014D01*
X40379Y5014D01*
X40398Y5010D01*
X40415Y5003D01*
X40431Y4993D01*
X40445Y4981D01*
X40457Y4966D01*
X40465Y4949D01*
X40470Y4931D01*
X40472Y4912D01*
X40626Y5212D02*
X40268Y5314D01*
X40626Y5212D02*
X40626Y5468D01*
X40524Y5391D02*
X40728Y5391D01*
D11*
X49242Y4744D02*
X49242Y9744D01*
X50207Y10846D02*
X51467Y10846D01*
X52431Y9744D02*
X52431Y4744D01*
X49242Y4744D01*
X50837Y4449D02*
X50837Y4055D01*
X50640Y4252D02*
X51034Y4252D01*
X49242Y9744D02*
X50207Y10846D01*
X51467Y10846D02*
X52431Y9744D01*
X50837Y11142D02*
X50837Y11535D01*
D12*
X48475Y4793D02*
X48475Y4666D01*
X48474Y4793D02*
X48476Y4814D01*
X48481Y4835D01*
X48489Y4854D01*
X48501Y4872D01*
X48515Y4887D01*
X48532Y4900D01*
X48551Y4910D01*
X48571Y4917D01*
X48591Y4921D01*
X48613Y4921D01*
X48633Y4917D01*
X48653Y4910D01*
X48672Y4900D01*
X48689Y4887D01*
X48703Y4872D01*
X48715Y4854D01*
X48723Y4835D01*
X48728Y4814D01*
X48730Y4793D01*
X48730Y4666D01*
X48270Y4666D01*
X48270Y4793D01*
X48272Y4812D01*
X48277Y4830D01*
X48285Y4847D01*
X48297Y4862D01*
X48311Y4874D01*
X48327Y4884D01*
X48344Y4891D01*
X48363Y4895D01*
X48381Y4895D01*
X48400Y4891D01*
X48417Y4884D01*
X48433Y4874D01*
X48447Y4862D01*
X48459Y4847D01*
X48467Y4830D01*
X48472Y4812D01*
X48474Y4793D01*
X48730Y5094D02*
X48730Y5247D01*
X48728Y5265D01*
X48724Y5282D01*
X48716Y5298D01*
X48706Y5313D01*
X48694Y5325D01*
X48679Y5335D01*
X48663Y5343D01*
X48646Y5347D01*
X48628Y5349D01*
X48628Y5350D02*
X48577Y5350D01*
X48577Y5349D02*
X48559Y5347D01*
X48542Y5343D01*
X48526Y5335D01*
X48511Y5325D01*
X48499Y5313D01*
X48489Y5298D01*
X48481Y5282D01*
X48477Y5265D01*
X48475Y5247D01*
X48475Y5094D01*
X48270Y5094D01*
X48270Y5350D01*
D11*
X55118Y6929D02*
X56496Y6929D01*
X56496Y10472D02*
X55118Y10472D01*
D13*
X54820Y7511D02*
X54822Y7523D01*
X54827Y7534D01*
X54836Y7543D01*
X54847Y7548D01*
X54859Y7550D01*
X54871Y7548D01*
X54882Y7543D01*
X54891Y7534D01*
X54896Y7523D01*
X54898Y7511D01*
X54896Y7499D01*
X54891Y7488D01*
X54882Y7479D01*
X54871Y7474D01*
X54859Y7472D01*
X54847Y7474D01*
X54836Y7479D01*
X54827Y7488D01*
X54822Y7499D01*
X54820Y7511D01*
D11*
X56496Y6929D02*
X56496Y10472D01*
X55118Y10472D02*
X55118Y6929D01*
X57036Y8935D02*
X57036Y9060D01*
X57038Y9081D01*
X57043Y9101D01*
X57051Y9119D01*
X57062Y9137D01*
X57076Y9152D01*
X57093Y9165D01*
X57111Y9174D01*
X57130Y9181D01*
X57151Y9185D01*
X57171Y9185D01*
X57192Y9181D01*
X57211Y9174D01*
X57229Y9165D01*
X57246Y9152D01*
X57260Y9137D01*
X57271Y9119D01*
X57279Y9101D01*
X57284Y9081D01*
X57286Y9060D01*
X57286Y8935D01*
X56836Y8935D01*
X56836Y9060D01*
X56838Y9078D01*
X56843Y9096D01*
X56851Y9113D01*
X56862Y9127D01*
X56876Y9140D01*
X56891Y9150D01*
X56909Y9156D01*
X56927Y9160D01*
X56945Y9160D01*
X56963Y9156D01*
X56981Y9150D01*
X56996Y9140D01*
X57010Y9127D01*
X57021Y9113D01*
X57029Y9096D01*
X57034Y9078D01*
X57036Y9060D01*
X57286Y9362D02*
X57286Y9512D01*
X57284Y9529D01*
X57280Y9546D01*
X57273Y9562D01*
X57263Y9576D01*
X57250Y9589D01*
X57236Y9599D01*
X57220Y9606D01*
X57203Y9610D01*
X57186Y9612D01*
X57136Y9612D01*
X57119Y9610D01*
X57102Y9606D01*
X57086Y9599D01*
X57072Y9589D01*
X57059Y9576D01*
X57049Y9562D01*
X57042Y9546D01*
X57038Y9529D01*
X57036Y9512D01*
X57036Y9362D01*
X56836Y9362D01*
X56836Y9612D01*
X57336Y9792D02*
X57336Y9992D01*
X57286Y10147D02*
X56836Y10297D01*
X57286Y10447D01*
X57174Y10410D02*
X57174Y10185D01*
D10*
X32792Y2622D02*
X32792Y2195D01*
X33005Y2409D02*
X32579Y2409D01*
X32792Y6329D02*
X32792Y6756D01*
X29134Y8858D02*
X29134Y1772D01*
X29134Y8858D02*
X30118Y10039D01*
X32087Y10039D01*
X33268Y8858D01*
X33268Y1772D01*
X29134Y1772D01*
D14*
X3583Y5963D02*
X3583Y8837D01*
X3583Y5963D02*
X2283Y5963D01*
X2283Y8837D02*
X3583Y8837D01*
X2283Y8837D02*
X2283Y5963D01*
X2303Y6120D02*
X2362Y6120D01*
X2362Y6317D01*
X2303Y6317D01*
D12*
X1890Y6071D02*
X1890Y5944D01*
X1890Y6071D02*
X1892Y6092D01*
X1897Y6113D01*
X1905Y6132D01*
X1917Y6150D01*
X1931Y6165D01*
X1948Y6178D01*
X1967Y6188D01*
X1987Y6195D01*
X2007Y6199D01*
X2029Y6199D01*
X2049Y6195D01*
X2069Y6188D01*
X2088Y6178D01*
X2105Y6165D01*
X2119Y6150D01*
X2131Y6132D01*
X2139Y6113D01*
X2144Y6092D01*
X2146Y6071D01*
X2145Y6071D02*
X2145Y5944D01*
X1685Y5944D01*
X1685Y6071D01*
X1686Y6071D02*
X1688Y6090D01*
X1693Y6108D01*
X1701Y6125D01*
X1713Y6140D01*
X1727Y6152D01*
X1743Y6162D01*
X1760Y6169D01*
X1779Y6173D01*
X1797Y6173D01*
X1816Y6169D01*
X1833Y6162D01*
X1849Y6152D01*
X1863Y6140D01*
X1875Y6125D01*
X1883Y6108D01*
X1888Y6090D01*
X1890Y6071D01*
X1788Y6372D02*
X1685Y6500D01*
X2145Y6500D01*
X2145Y6372D02*
X2145Y6628D01*
X2196Y6803D02*
X2196Y7007D01*
X2145Y7156D02*
X1685Y7310D01*
X2145Y7463D01*
X2030Y7425D02*
X2030Y7195D01*
D14*
X15394Y5963D02*
X15394Y8837D01*
X15394Y5963D02*
X14094Y5963D01*
X14094Y8837D02*
X15394Y8837D01*
X14094Y8837D02*
X14094Y5963D01*
X14114Y6120D02*
X14173Y6120D01*
X14173Y6317D01*
X14114Y6317D01*
D12*
X13701Y6071D02*
X13701Y5944D01*
X13701Y6071D02*
X13703Y6092D01*
X13708Y6113D01*
X13716Y6132D01*
X13728Y6150D01*
X13742Y6165D01*
X13759Y6178D01*
X13778Y6188D01*
X13798Y6195D01*
X13818Y6199D01*
X13840Y6199D01*
X13860Y6195D01*
X13880Y6188D01*
X13899Y6178D01*
X13916Y6165D01*
X13930Y6150D01*
X13942Y6132D01*
X13950Y6113D01*
X13955Y6092D01*
X13957Y6071D01*
X13956Y6071D02*
X13956Y5944D01*
X13496Y5944D01*
X13496Y6071D01*
X13497Y6071D02*
X13499Y6090D01*
X13504Y6108D01*
X13512Y6125D01*
X13524Y6140D01*
X13538Y6152D01*
X13554Y6162D01*
X13571Y6169D01*
X13590Y6173D01*
X13608Y6173D01*
X13627Y6169D01*
X13644Y6162D01*
X13660Y6152D01*
X13674Y6140D01*
X13686Y6125D01*
X13694Y6108D01*
X13699Y6090D01*
X13701Y6071D01*
X13496Y6513D02*
X13498Y6533D01*
X13503Y6552D01*
X13511Y6571D01*
X13523Y6587D01*
X13537Y6601D01*
X13554Y6613D01*
X13572Y6621D01*
X13591Y6626D01*
X13611Y6628D01*
X13496Y6513D02*
X13498Y6490D01*
X13503Y6467D01*
X13512Y6446D01*
X13524Y6426D01*
X13539Y6408D01*
X13557Y6393D01*
X13577Y6381D01*
X13598Y6372D01*
X13701Y6590D02*
X13686Y6603D01*
X13669Y6614D01*
X13650Y6622D01*
X13631Y6626D01*
X13611Y6628D01*
X13701Y6589D02*
X13956Y6372D01*
X13956Y6628D01*
X14007Y6803D02*
X14007Y7007D01*
X13956Y7156D02*
X13496Y7310D01*
X13956Y7463D01*
X13841Y7425D02*
X13841Y7195D01*
D14*
X27205Y5963D02*
X27205Y8837D01*
X27205Y5963D02*
X25906Y5963D01*
X25906Y8837D02*
X27205Y8837D01*
X25906Y8837D02*
X25906Y5963D01*
X25925Y6120D02*
X25984Y6120D01*
X25984Y6317D01*
X25925Y6317D01*
D12*
X25512Y6071D02*
X25512Y5944D01*
X25512Y6071D02*
X25514Y6092D01*
X25519Y6113D01*
X25527Y6132D01*
X25539Y6150D01*
X25553Y6165D01*
X25570Y6178D01*
X25589Y6188D01*
X25609Y6195D01*
X25629Y6199D01*
X25651Y6199D01*
X25671Y6195D01*
X25691Y6188D01*
X25710Y6178D01*
X25727Y6165D01*
X25741Y6150D01*
X25753Y6132D01*
X25761Y6113D01*
X25766Y6092D01*
X25768Y6071D01*
X25767Y6071D02*
X25767Y5944D01*
X25307Y5944D01*
X25307Y6071D01*
X25308Y6071D02*
X25310Y6090D01*
X25315Y6108D01*
X25323Y6125D01*
X25335Y6140D01*
X25349Y6152D01*
X25365Y6162D01*
X25382Y6169D01*
X25401Y6173D01*
X25419Y6173D01*
X25438Y6169D01*
X25455Y6162D01*
X25471Y6152D01*
X25485Y6140D01*
X25497Y6125D01*
X25505Y6108D01*
X25510Y6090D01*
X25512Y6071D01*
X25767Y6372D02*
X25767Y6500D01*
X25768Y6500D02*
X25766Y6521D01*
X25761Y6542D01*
X25753Y6561D01*
X25741Y6579D01*
X25727Y6594D01*
X25710Y6607D01*
X25691Y6617D01*
X25671Y6624D01*
X25651Y6628D01*
X25629Y6628D01*
X25609Y6624D01*
X25589Y6617D01*
X25570Y6607D01*
X25553Y6594D01*
X25539Y6579D01*
X25527Y6561D01*
X25519Y6542D01*
X25514Y6521D01*
X25512Y6500D01*
X25307Y6525D02*
X25307Y6372D01*
X25308Y6525D02*
X25310Y6544D01*
X25315Y6562D01*
X25323Y6579D01*
X25335Y6594D01*
X25349Y6606D01*
X25365Y6616D01*
X25382Y6623D01*
X25401Y6627D01*
X25419Y6627D01*
X25438Y6623D01*
X25455Y6616D01*
X25471Y6606D01*
X25485Y6594D01*
X25497Y6579D01*
X25505Y6562D01*
X25510Y6544D01*
X25512Y6525D01*
X25512Y6423D01*
X25819Y6803D02*
X25819Y7007D01*
X25767Y7156D02*
X25307Y7310D01*
X25767Y7463D01*
X25652Y7425D02*
X25652Y7195D01*
D10*
X1234Y29350D02*
X734Y29350D01*
X1234Y29350D02*
X1484Y29100D01*
X1484Y28600D01*
X1234Y28350D01*
X1484Y29100D02*
X1734Y29350D01*
X2234Y29350D01*
X2484Y29100D01*
X2484Y28600D01*
X2234Y28350D01*
X1734Y28350D01*
X1484Y28600D01*
X484Y28600D02*
X484Y29100D01*
X734Y29350D01*
X484Y28600D02*
X734Y28350D01*
X1234Y28350D01*
X2484Y29100D02*
X2734Y29350D01*
X3234Y29350D01*
X3484Y29100D01*
X3484Y28600D01*
X3234Y28350D01*
X2734Y28350D01*
X2484Y28600D01*
D11*
X604Y29845D02*
X479Y29845D01*
X604Y29845D02*
X625Y29843D01*
X645Y29838D01*
X663Y29830D01*
X681Y29819D01*
X696Y29805D01*
X709Y29788D01*
X718Y29770D01*
X725Y29751D01*
X729Y29730D01*
X729Y29710D01*
X725Y29689D01*
X718Y29670D01*
X709Y29652D01*
X696Y29635D01*
X681Y29621D01*
X663Y29610D01*
X645Y29602D01*
X625Y29597D01*
X604Y29595D01*
X479Y29595D01*
X479Y30045D01*
X604Y30045D01*
X622Y30043D01*
X640Y30038D01*
X657Y30030D01*
X671Y30019D01*
X684Y30005D01*
X694Y29990D01*
X700Y29972D01*
X704Y29954D01*
X704Y29936D01*
X700Y29918D01*
X694Y29900D01*
X684Y29885D01*
X671Y29871D01*
X657Y29860D01*
X640Y29852D01*
X622Y29847D01*
X604Y29845D01*
X922Y29720D02*
X922Y30045D01*
X922Y29720D02*
X924Y29699D01*
X929Y29679D01*
X937Y29661D01*
X948Y29643D01*
X962Y29628D01*
X979Y29615D01*
X997Y29606D01*
X1016Y29599D01*
X1037Y29595D01*
X1057Y29595D01*
X1078Y29599D01*
X1097Y29606D01*
X1115Y29615D01*
X1132Y29628D01*
X1146Y29643D01*
X1157Y29661D01*
X1165Y29679D01*
X1170Y29699D01*
X1172Y29720D01*
X1172Y30045D01*
X1372Y30045D02*
X1622Y30045D01*
X1372Y29595D01*
X1622Y29595D01*
X1792Y30045D02*
X2042Y30045D01*
X1792Y29595D01*
X2042Y29595D01*
X2243Y29595D02*
X2443Y29595D01*
X2243Y29595D02*
X2243Y30045D01*
X2443Y30045D01*
X2393Y29845D02*
X2243Y29845D01*
X2635Y30045D02*
X2635Y29595D01*
X2635Y30045D02*
X2760Y30045D01*
X2781Y30043D01*
X2801Y30038D01*
X2819Y30030D01*
X2837Y30019D01*
X2852Y30005D01*
X2865Y29988D01*
X2874Y29970D01*
X2881Y29951D01*
X2885Y29930D01*
X2885Y29910D01*
X2881Y29889D01*
X2874Y29870D01*
X2865Y29852D01*
X2852Y29835D01*
X2837Y29821D01*
X2819Y29810D01*
X2801Y29802D01*
X2781Y29797D01*
X2760Y29795D01*
X2635Y29795D01*
X2785Y29795D02*
X2885Y29595D01*
D10*
X37309Y45106D02*
X37809Y45106D01*
X38059Y44856D01*
X38059Y44356D01*
X37809Y44106D01*
X38059Y44856D02*
X38309Y45106D01*
X38809Y45106D01*
X39059Y44856D01*
X39059Y44356D01*
X38809Y44106D01*
X38309Y44106D01*
X38059Y44356D01*
X37059Y44356D02*
X37059Y44856D01*
X37309Y45106D01*
X37059Y44356D02*
X37309Y44106D01*
X37809Y44106D01*
X39059Y44856D02*
X39309Y45106D01*
X39809Y45106D01*
X40059Y44856D01*
X40059Y44356D01*
X39809Y44106D01*
X39309Y44106D01*
X39059Y44356D01*
D11*
X37054Y45351D02*
X37204Y45801D01*
X37354Y45351D01*
X37317Y45464D02*
X37092Y45464D01*
X37549Y45351D02*
X37549Y45801D01*
X37699Y45551D01*
X37849Y45801D01*
X37849Y45351D01*
X38092Y45351D02*
X38092Y45801D01*
X38217Y45801D01*
X38238Y45799D01*
X38258Y45794D01*
X38276Y45786D01*
X38294Y45775D01*
X38309Y45761D01*
X38322Y45744D01*
X38331Y45726D01*
X38338Y45707D01*
X38342Y45686D01*
X38342Y45666D01*
X38338Y45645D01*
X38331Y45626D01*
X38322Y45608D01*
X38309Y45591D01*
X38294Y45577D01*
X38276Y45566D01*
X38258Y45558D01*
X38238Y45553D01*
X38217Y45551D01*
X38092Y45551D01*
X38657Y45802D02*
X38677Y45800D01*
X38696Y45795D01*
X38714Y45787D01*
X38730Y45776D01*
X38744Y45762D01*
X38755Y45746D01*
X38763Y45728D01*
X38768Y45709D01*
X38770Y45689D01*
X38657Y45802D02*
X38634Y45800D01*
X38612Y45795D01*
X38591Y45786D01*
X38572Y45774D01*
X38554Y45759D01*
X38540Y45742D01*
X38528Y45723D01*
X38519Y45702D01*
X38731Y45601D02*
X38744Y45616D01*
X38755Y45632D01*
X38763Y45650D01*
X38767Y45669D01*
X38769Y45689D01*
X38732Y45601D02*
X38519Y45351D01*
X38769Y45351D01*
D10*
X6890Y44791D02*
X6390Y44791D01*
X6890Y44791D02*
X7140Y44541D01*
X7140Y44041D01*
X6890Y43791D01*
X7140Y44541D02*
X7390Y44791D01*
X7890Y44791D01*
X8140Y44541D01*
X8140Y44041D01*
X7890Y43791D01*
X7390Y43791D01*
X7140Y44041D01*
X6140Y44041D02*
X6140Y44541D01*
X6390Y44791D01*
X6140Y44041D02*
X6390Y43791D01*
X6890Y43791D01*
X8140Y44541D02*
X8390Y44791D01*
X8890Y44791D01*
X9140Y44541D01*
X9140Y44041D01*
X8890Y43791D01*
X8390Y43791D01*
X8140Y44041D01*
D11*
X6135Y45036D02*
X6285Y45486D01*
X6435Y45036D01*
X6397Y45149D02*
X6172Y45149D01*
X6630Y45036D02*
X6630Y45486D01*
X6780Y45236D01*
X6930Y45486D01*
X6930Y45036D01*
X7172Y45036D02*
X7172Y45486D01*
X7297Y45486D01*
X7318Y45484D01*
X7338Y45479D01*
X7356Y45471D01*
X7374Y45460D01*
X7389Y45446D01*
X7402Y45429D01*
X7411Y45411D01*
X7418Y45392D01*
X7422Y45371D01*
X7422Y45351D01*
X7418Y45330D01*
X7411Y45311D01*
X7402Y45293D01*
X7389Y45276D01*
X7374Y45262D01*
X7356Y45251D01*
X7338Y45243D01*
X7318Y45238D01*
X7297Y45236D01*
X7172Y45236D01*
X7600Y45386D02*
X7725Y45486D01*
X7725Y45036D01*
X7600Y45036D02*
X7850Y45036D01*
D10*
X47979Y45106D02*
X48479Y45106D01*
X48729Y44856D01*
X48729Y44356D01*
X48479Y44106D01*
X48729Y44856D02*
X48979Y45106D01*
X49479Y45106D01*
X49729Y44856D01*
X49729Y44356D01*
X49479Y44106D01*
X48979Y44106D01*
X48729Y44356D01*
X47729Y44356D02*
X47729Y44856D01*
X47979Y45106D01*
X47729Y44356D02*
X47979Y44106D01*
X48479Y44106D01*
X49729Y44856D02*
X49979Y45106D01*
X50479Y45106D01*
X50729Y44856D01*
X50729Y44356D01*
X50479Y44106D01*
X49979Y44106D01*
X49729Y44356D01*
D11*
X47724Y45351D02*
X47874Y45801D01*
X48024Y45351D01*
X47986Y45464D02*
X47761Y45464D01*
X48219Y45351D02*
X48219Y45801D01*
X48369Y45551D01*
X48519Y45801D01*
X48519Y45351D01*
X48761Y45351D02*
X48761Y45801D01*
X48886Y45801D01*
X48907Y45799D01*
X48927Y45794D01*
X48945Y45786D01*
X48963Y45775D01*
X48978Y45761D01*
X48991Y45744D01*
X49000Y45726D01*
X49007Y45707D01*
X49011Y45686D01*
X49011Y45666D01*
X49007Y45645D01*
X49000Y45626D01*
X48991Y45608D01*
X48978Y45591D01*
X48963Y45577D01*
X48945Y45566D01*
X48927Y45558D01*
X48907Y45553D01*
X48886Y45551D01*
X48761Y45551D01*
X49189Y45351D02*
X49314Y45351D01*
X49335Y45353D01*
X49355Y45358D01*
X49373Y45366D01*
X49391Y45377D01*
X49406Y45391D01*
X49419Y45408D01*
X49428Y45426D01*
X49435Y45445D01*
X49439Y45466D01*
X49439Y45486D01*
X49435Y45507D01*
X49428Y45526D01*
X49419Y45544D01*
X49406Y45561D01*
X49391Y45575D01*
X49373Y45586D01*
X49355Y45594D01*
X49335Y45599D01*
X49314Y45601D01*
X49339Y45801D02*
X49189Y45801D01*
X49339Y45801D02*
X49357Y45799D01*
X49375Y45794D01*
X49392Y45786D01*
X49406Y45775D01*
X49419Y45761D01*
X49429Y45746D01*
X49435Y45728D01*
X49439Y45710D01*
X49439Y45692D01*
X49435Y45674D01*
X49429Y45656D01*
X49419Y45641D01*
X49406Y45627D01*
X49392Y45616D01*
X49375Y45608D01*
X49357Y45603D01*
X49339Y45601D01*
X49239Y45601D01*
D15*
X2915Y14213D02*
X868Y14213D01*
X2915Y14213D02*
X2915Y11575D01*
X2915Y11142D02*
X2915Y10512D01*
X868Y10512D01*
X868Y14213D01*
X2915Y11575D02*
X2943Y11573D01*
X2971Y11568D01*
X2998Y11558D01*
X3024Y11546D01*
X3047Y11530D01*
X3068Y11511D01*
X3087Y11490D01*
X3103Y11467D01*
X3115Y11441D01*
X3125Y11414D01*
X3130Y11386D01*
X3132Y11358D01*
X3130Y11330D01*
X3125Y11302D01*
X3115Y11275D01*
X3103Y11250D01*
X3087Y11226D01*
X3068Y11205D01*
X3047Y11186D01*
X3024Y11170D01*
X2998Y11158D01*
X2971Y11148D01*
X2943Y11143D01*
X2915Y11141D01*
D12*
X1667Y14806D02*
X1665Y14826D01*
X1660Y14845D01*
X1652Y14864D01*
X1640Y14880D01*
X1626Y14894D01*
X1610Y14906D01*
X1591Y14914D01*
X1572Y14919D01*
X1552Y14921D01*
X1529Y14919D01*
X1506Y14914D01*
X1485Y14905D01*
X1465Y14893D01*
X1447Y14878D01*
X1432Y14860D01*
X1420Y14840D01*
X1411Y14819D01*
X1630Y14716D02*
X1643Y14731D01*
X1654Y14748D01*
X1662Y14767D01*
X1666Y14786D01*
X1668Y14806D01*
X1629Y14716D02*
X1412Y14461D01*
X1667Y14461D01*
X1862Y14563D02*
X1964Y14921D01*
X1862Y14563D02*
X2117Y14563D01*
X2041Y14665D02*
X2041Y14461D01*
X2440Y14461D02*
X2286Y14921D01*
X2593Y14921D02*
X2440Y14461D01*
X2742Y14410D02*
X2947Y14410D01*
X3138Y14461D02*
X3138Y14921D01*
X3138Y14461D02*
X3342Y14461D01*
D15*
X54102Y15984D02*
X56150Y15984D01*
X56150Y13346D01*
X56150Y12913D02*
X56150Y12283D01*
X54102Y12283D01*
X54102Y15984D01*
X56150Y13347D02*
X56178Y13345D01*
X56206Y13340D01*
X56233Y13330D01*
X56259Y13318D01*
X56282Y13302D01*
X56303Y13283D01*
X56322Y13262D01*
X56338Y13239D01*
X56350Y13213D01*
X56360Y13186D01*
X56365Y13158D01*
X56367Y13130D01*
X56365Y13102D01*
X56360Y13074D01*
X56350Y13047D01*
X56338Y13022D01*
X56322Y12998D01*
X56303Y12977D01*
X56282Y12958D01*
X56259Y12942D01*
X56233Y12930D01*
X56206Y12920D01*
X56178Y12915D01*
X56150Y12913D01*
D12*
X54902Y16578D02*
X54900Y16598D01*
X54895Y16617D01*
X54887Y16636D01*
X54875Y16652D01*
X54861Y16666D01*
X54845Y16678D01*
X54826Y16686D01*
X54807Y16691D01*
X54787Y16693D01*
X54764Y16691D01*
X54741Y16686D01*
X54720Y16677D01*
X54700Y16665D01*
X54682Y16650D01*
X54667Y16632D01*
X54655Y16612D01*
X54646Y16591D01*
X54864Y16488D02*
X54877Y16503D01*
X54888Y16520D01*
X54896Y16539D01*
X54900Y16558D01*
X54902Y16578D01*
X54863Y16488D02*
X54646Y16233D01*
X54902Y16233D01*
X55096Y16335D02*
X55198Y16693D01*
X55096Y16335D02*
X55352Y16335D01*
X55275Y16437D02*
X55275Y16233D01*
X55674Y16233D02*
X55521Y16693D01*
X55827Y16693D02*
X55674Y16233D01*
X55977Y16181D02*
X56181Y16181D01*
X56376Y16233D02*
X56376Y16693D01*
X56529Y16437D01*
X56682Y16693D01*
X56682Y16233D01*
X56911Y16233D02*
X56911Y16693D01*
X57039Y16693D01*
X57059Y16691D01*
X57079Y16687D01*
X57097Y16679D01*
X57114Y16669D01*
X57130Y16656D01*
X57143Y16640D01*
X57153Y16623D01*
X57161Y16605D01*
X57165Y16585D01*
X57167Y16565D01*
X57167Y16360D01*
X57165Y16340D01*
X57161Y16320D01*
X57153Y16302D01*
X57143Y16285D01*
X57130Y16269D01*
X57114Y16256D01*
X57097Y16246D01*
X57079Y16238D01*
X57059Y16234D01*
X57039Y16232D01*
X57039Y16233D02*
X56911Y16233D01*
D15*
X56228Y33780D02*
X54181Y33780D01*
X56228Y33780D02*
X56228Y31142D01*
X56228Y30709D02*
X56228Y30079D01*
X54181Y30079D01*
X54181Y33780D01*
X56228Y31142D02*
X56256Y31140D01*
X56284Y31135D01*
X56311Y31125D01*
X56337Y31113D01*
X56360Y31097D01*
X56381Y31078D01*
X56400Y31057D01*
X56416Y31034D01*
X56428Y31008D01*
X56438Y30981D01*
X56443Y30953D01*
X56445Y30925D01*
X56443Y30897D01*
X56438Y30869D01*
X56428Y30842D01*
X56416Y30817D01*
X56400Y30793D01*
X56381Y30772D01*
X56360Y30753D01*
X56337Y30737D01*
X56311Y30725D01*
X56284Y30715D01*
X56256Y30710D01*
X56228Y30708D01*
D12*
X54725Y34386D02*
X54853Y34488D01*
X54853Y34028D01*
X54980Y34028D02*
X54725Y34028D01*
X55315Y34488D02*
X55335Y34486D01*
X55354Y34481D01*
X55373Y34473D01*
X55389Y34461D01*
X55403Y34447D01*
X55415Y34431D01*
X55423Y34412D01*
X55428Y34393D01*
X55430Y34373D01*
X55315Y34488D02*
X55292Y34486D01*
X55269Y34481D01*
X55248Y34472D01*
X55228Y34460D01*
X55210Y34445D01*
X55195Y34427D01*
X55183Y34407D01*
X55174Y34386D01*
X55393Y34283D02*
X55406Y34298D01*
X55417Y34315D01*
X55425Y34334D01*
X55429Y34353D01*
X55431Y34373D01*
X55392Y34283D02*
X55175Y34028D01*
X55430Y34028D01*
X55753Y34028D02*
X55599Y34488D01*
X55906Y34488D02*
X55753Y34028D01*
X56055Y33977D02*
X56260Y33977D01*
X56435Y34156D02*
X56435Y34360D01*
X56437Y34381D01*
X56442Y34402D01*
X56450Y34421D01*
X56462Y34439D01*
X56476Y34454D01*
X56493Y34467D01*
X56512Y34477D01*
X56532Y34484D01*
X56552Y34488D01*
X56574Y34488D01*
X56594Y34484D01*
X56614Y34477D01*
X56633Y34467D01*
X56650Y34454D01*
X56664Y34439D01*
X56676Y34421D01*
X56684Y34402D01*
X56689Y34381D01*
X56691Y34360D01*
X56690Y34360D02*
X56690Y34156D01*
X56691Y34156D02*
X56689Y34135D01*
X56684Y34114D01*
X56676Y34095D01*
X56664Y34077D01*
X56650Y34062D01*
X56633Y34049D01*
X56614Y34039D01*
X56594Y34032D01*
X56574Y34028D01*
X56552Y34028D01*
X56532Y34032D01*
X56512Y34039D01*
X56493Y34049D01*
X56476Y34062D01*
X56462Y34077D01*
X56450Y34095D01*
X56442Y34114D01*
X56437Y34135D01*
X56435Y34156D01*
X56900Y34156D02*
X56900Y34488D01*
X56900Y34156D02*
X56902Y34135D01*
X56907Y34114D01*
X56915Y34095D01*
X56927Y34077D01*
X56941Y34062D01*
X56958Y34049D01*
X56977Y34039D01*
X56997Y34032D01*
X57017Y34028D01*
X57039Y34028D01*
X57059Y34032D01*
X57079Y34039D01*
X57098Y34049D01*
X57115Y34062D01*
X57129Y34077D01*
X57141Y34095D01*
X57149Y34114D01*
X57154Y34135D01*
X57156Y34156D01*
X57155Y34156D02*
X57155Y34488D01*
X57463Y34488D02*
X57463Y34028D01*
X57335Y34488D02*
X57590Y34488D01*
D15*
X3781Y21654D02*
X1734Y21654D01*
X3781Y21654D02*
X3781Y19016D01*
X3781Y18583D02*
X3781Y17953D01*
X1734Y17953D01*
X1734Y21654D01*
X3781Y19016D02*
X3809Y19014D01*
X3837Y19009D01*
X3864Y18999D01*
X3890Y18987D01*
X3913Y18971D01*
X3934Y18952D01*
X3953Y18931D01*
X3969Y18908D01*
X3981Y18882D01*
X3991Y18855D01*
X3996Y18827D01*
X3998Y18799D01*
X3996Y18771D01*
X3991Y18743D01*
X3981Y18716D01*
X3969Y18691D01*
X3953Y18667D01*
X3934Y18646D01*
X3913Y18627D01*
X3890Y18611D01*
X3864Y18599D01*
X3837Y18589D01*
X3809Y18584D01*
X3781Y18582D01*
D12*
X2431Y21902D02*
X2449Y21904D01*
X2466Y21908D01*
X2482Y21916D01*
X2497Y21926D01*
X2509Y21938D01*
X2519Y21953D01*
X2527Y21969D01*
X2531Y21986D01*
X2533Y22004D01*
X2431Y21902D02*
X2403Y21904D01*
X2375Y21909D01*
X2348Y21919D01*
X2322Y21931D01*
X2299Y21947D01*
X2278Y21966D01*
X2291Y22260D02*
X2293Y22278D01*
X2297Y22295D01*
X2305Y22311D01*
X2315Y22326D01*
X2327Y22338D01*
X2342Y22348D01*
X2358Y22356D01*
X2375Y22360D01*
X2393Y22362D01*
X2418Y22360D01*
X2442Y22356D01*
X2465Y22348D01*
X2488Y22337D01*
X2508Y22324D01*
X2290Y22260D02*
X2292Y22242D01*
X2296Y22225D01*
X2304Y22208D01*
X2314Y22194D01*
X2327Y22181D01*
X2341Y22170D01*
X2483Y22094D02*
X2497Y22083D01*
X2510Y22070D01*
X2520Y22056D01*
X2528Y22039D01*
X2532Y22022D01*
X2534Y22004D01*
X2482Y22094D02*
X2342Y22170D01*
X2696Y22362D02*
X2798Y21902D01*
X2901Y22209D01*
X3003Y21902D01*
X3105Y22362D01*
X3321Y22362D02*
X3321Y21902D01*
X3270Y21902D02*
X3372Y21902D01*
X3372Y22362D02*
X3270Y22362D01*
X3651Y22362D02*
X3651Y21902D01*
X3523Y22362D02*
X3778Y22362D01*
X4044Y21902D02*
X4146Y21902D01*
X4044Y21902D02*
X4026Y21904D01*
X4009Y21908D01*
X3993Y21916D01*
X3978Y21926D01*
X3966Y21938D01*
X3956Y21953D01*
X3948Y21969D01*
X3944Y21986D01*
X3942Y22004D01*
X3942Y22260D01*
X3944Y22280D01*
X3950Y22299D01*
X3959Y22317D01*
X3972Y22332D01*
X3987Y22345D01*
X4005Y22354D01*
X4024Y22360D01*
X4044Y22362D01*
X4146Y22362D01*
X4333Y22362D02*
X4333Y21902D01*
X4333Y22157D02*
X4588Y22157D01*
X4588Y22362D02*
X4588Y21902D01*
X4798Y22260D02*
X4926Y22362D01*
X4926Y21902D01*
X5053Y21902D02*
X4798Y21902D01*
D15*
X54102Y21693D02*
X56150Y21693D01*
X56150Y19055D01*
X56150Y18622D02*
X56150Y17992D01*
X54102Y17992D01*
X54102Y21693D01*
X56150Y19056D02*
X56178Y19054D01*
X56206Y19049D01*
X56233Y19039D01*
X56259Y19027D01*
X56282Y19011D01*
X56303Y18992D01*
X56322Y18971D01*
X56338Y18948D01*
X56350Y18922D01*
X56360Y18895D01*
X56365Y18867D01*
X56367Y18839D01*
X56365Y18811D01*
X56360Y18783D01*
X56350Y18756D01*
X56338Y18731D01*
X56322Y18707D01*
X56303Y18686D01*
X56282Y18667D01*
X56259Y18651D01*
X56233Y18639D01*
X56206Y18629D01*
X56178Y18624D01*
X56150Y18622D01*
D12*
X54799Y21941D02*
X54817Y21943D01*
X54834Y21947D01*
X54850Y21955D01*
X54865Y21965D01*
X54877Y21977D01*
X54887Y21992D01*
X54895Y22008D01*
X54899Y22025D01*
X54901Y22043D01*
X54799Y21941D02*
X54771Y21943D01*
X54743Y21948D01*
X54716Y21958D01*
X54690Y21970D01*
X54667Y21986D01*
X54646Y22005D01*
X54659Y22299D02*
X54661Y22317D01*
X54665Y22334D01*
X54673Y22350D01*
X54683Y22365D01*
X54695Y22377D01*
X54710Y22387D01*
X54726Y22395D01*
X54743Y22399D01*
X54761Y22401D01*
X54761Y22402D02*
X54786Y22400D01*
X54810Y22396D01*
X54833Y22388D01*
X54856Y22377D01*
X54876Y22364D01*
X54659Y22299D02*
X54661Y22281D01*
X54665Y22264D01*
X54673Y22247D01*
X54683Y22233D01*
X54696Y22220D01*
X54710Y22209D01*
X54851Y22133D02*
X54865Y22122D01*
X54878Y22109D01*
X54888Y22095D01*
X54896Y22078D01*
X54900Y22061D01*
X54902Y22043D01*
X54851Y22133D02*
X54710Y22210D01*
X55064Y22401D02*
X55167Y21941D01*
X55269Y22248D01*
X55371Y21941D01*
X55473Y22401D01*
X55689Y22401D02*
X55689Y21941D01*
X55638Y21941D02*
X55740Y21941D01*
X55740Y22401D02*
X55638Y22401D01*
X56019Y22401D02*
X56019Y21941D01*
X55891Y22401D02*
X56147Y22401D01*
X56412Y21941D02*
X56514Y21941D01*
X56412Y21941D02*
X56394Y21943D01*
X56377Y21947D01*
X56361Y21955D01*
X56346Y21965D01*
X56334Y21977D01*
X56324Y21992D01*
X56316Y22008D01*
X56312Y22025D01*
X56310Y22043D01*
X56310Y22299D01*
X56312Y22319D01*
X56318Y22338D01*
X56327Y22356D01*
X56340Y22371D01*
X56355Y22384D01*
X56373Y22393D01*
X56392Y22399D01*
X56412Y22401D01*
X56514Y22401D01*
X56701Y22401D02*
X56701Y21941D01*
X56701Y22197D02*
X56957Y22197D01*
X56957Y22401D02*
X56957Y21941D01*
X57307Y22401D02*
X57327Y22399D01*
X57346Y22394D01*
X57365Y22386D01*
X57381Y22374D01*
X57395Y22360D01*
X57407Y22344D01*
X57415Y22325D01*
X57420Y22306D01*
X57422Y22286D01*
X57307Y22402D02*
X57284Y22400D01*
X57261Y22395D01*
X57240Y22386D01*
X57220Y22374D01*
X57202Y22359D01*
X57187Y22341D01*
X57175Y22321D01*
X57166Y22300D01*
X57384Y22196D02*
X57397Y22211D01*
X57408Y22228D01*
X57416Y22247D01*
X57420Y22266D01*
X57422Y22286D01*
X57383Y22197D02*
X57166Y21941D01*
X57422Y21941D01*
D15*
X56228Y27677D02*
X54181Y27677D01*
X56228Y27677D02*
X56228Y25039D01*
X56228Y24606D02*
X56228Y23976D01*
X54181Y23976D01*
X54181Y27677D01*
X56228Y25040D02*
X56256Y25038D01*
X56284Y25033D01*
X56311Y25023D01*
X56337Y25011D01*
X56360Y24995D01*
X56381Y24976D01*
X56400Y24955D01*
X56416Y24932D01*
X56428Y24906D01*
X56438Y24879D01*
X56443Y24851D01*
X56445Y24823D01*
X56443Y24795D01*
X56438Y24767D01*
X56428Y24740D01*
X56416Y24715D01*
X56400Y24691D01*
X56381Y24670D01*
X56360Y24651D01*
X56337Y24635D01*
X56311Y24623D01*
X56284Y24613D01*
X56256Y24608D01*
X56228Y24606D01*
D12*
X54878Y27926D02*
X54896Y27928D01*
X54913Y27932D01*
X54929Y27940D01*
X54944Y27950D01*
X54956Y27962D01*
X54966Y27977D01*
X54974Y27993D01*
X54978Y28010D01*
X54980Y28028D01*
X54878Y27925D02*
X54850Y27927D01*
X54822Y27932D01*
X54795Y27942D01*
X54769Y27954D01*
X54746Y27970D01*
X54725Y27989D01*
X54738Y28283D02*
X54740Y28301D01*
X54744Y28318D01*
X54752Y28334D01*
X54762Y28349D01*
X54774Y28361D01*
X54789Y28371D01*
X54805Y28379D01*
X54822Y28383D01*
X54840Y28385D01*
X54840Y28386D02*
X54865Y28384D01*
X54889Y28380D01*
X54912Y28372D01*
X54935Y28361D01*
X54955Y28348D01*
X54737Y28283D02*
X54739Y28265D01*
X54743Y28248D01*
X54751Y28231D01*
X54761Y28217D01*
X54774Y28204D01*
X54788Y28193D01*
X54930Y28118D02*
X54944Y28107D01*
X54957Y28094D01*
X54967Y28080D01*
X54975Y28063D01*
X54979Y28046D01*
X54981Y28028D01*
X54929Y28117D02*
X54789Y28194D01*
X55143Y28386D02*
X55245Y27926D01*
X55348Y28232D01*
X55450Y27926D01*
X55552Y28386D01*
X55768Y28386D02*
X55768Y27926D01*
X55819Y27926D02*
X55716Y27926D01*
X55716Y28386D02*
X55819Y28386D01*
X56098Y28386D02*
X56098Y27926D01*
X55970Y28386D02*
X56225Y28386D01*
X56491Y27926D02*
X56593Y27926D01*
X56491Y27926D02*
X56473Y27928D01*
X56456Y27932D01*
X56440Y27940D01*
X56425Y27950D01*
X56413Y27962D01*
X56403Y27977D01*
X56395Y27993D01*
X56391Y28010D01*
X56389Y28028D01*
X56388Y28028D02*
X56388Y28283D01*
X56389Y28283D02*
X56391Y28303D01*
X56397Y28322D01*
X56406Y28340D01*
X56419Y28355D01*
X56434Y28368D01*
X56452Y28377D01*
X56471Y28383D01*
X56491Y28385D01*
X56491Y28386D02*
X56593Y28386D01*
X56780Y28386D02*
X56780Y27926D01*
X56780Y28181D02*
X57035Y28181D01*
X57035Y28386D02*
X57035Y27926D01*
X57245Y27926D02*
X57373Y27926D01*
X57373Y27925D02*
X57394Y27927D01*
X57415Y27932D01*
X57434Y27940D01*
X57452Y27952D01*
X57467Y27966D01*
X57480Y27983D01*
X57490Y28002D01*
X57497Y28022D01*
X57501Y28042D01*
X57501Y28064D01*
X57497Y28084D01*
X57490Y28104D01*
X57480Y28123D01*
X57467Y28140D01*
X57452Y28154D01*
X57434Y28166D01*
X57415Y28174D01*
X57394Y28179D01*
X57373Y28181D01*
X57398Y28386D02*
X57245Y28386D01*
X57398Y28385D02*
X57417Y28383D01*
X57435Y28378D01*
X57452Y28370D01*
X57467Y28358D01*
X57479Y28344D01*
X57489Y28328D01*
X57496Y28311D01*
X57500Y28292D01*
X57500Y28274D01*
X57496Y28255D01*
X57489Y28238D01*
X57479Y28222D01*
X57467Y28208D01*
X57452Y28196D01*
X57435Y28188D01*
X57417Y28183D01*
X57398Y28181D01*
X57296Y28181D01*
D16*
X42533Y15389D02*
X38333Y15389D01*
D10*
X39133Y16539D02*
X41733Y16539D01*
X42783Y15089D02*
X44533Y15089D01*
X44533Y17889D02*
X44533Y17989D01*
X44533Y17539D02*
X42783Y17539D01*
X44533Y15189D02*
X44533Y15089D01*
X44533Y15539D02*
X42783Y15539D01*
X42783Y17989D02*
X44533Y17989D01*
X42783Y17989D02*
X42783Y17539D01*
X44533Y17989D02*
X44783Y17989D01*
X44783Y17339D01*
X44683Y17339D02*
X44683Y17889D01*
X44533Y17889D01*
X44533Y17539D01*
X42783Y15539D02*
X42783Y15089D01*
D16*
X42533Y17689D02*
X38333Y17689D01*
D10*
X38083Y17989D02*
X36333Y17989D01*
X36333Y15189D02*
X36333Y15089D01*
X36333Y15539D02*
X38083Y15539D01*
X36333Y17889D02*
X36333Y17989D01*
X36333Y17539D02*
X38083Y17539D01*
X38083Y15089D02*
X36333Y15089D01*
X38083Y15089D02*
X38083Y15539D01*
X36333Y15089D02*
X36083Y15089D01*
X36083Y15739D01*
X36183Y15739D02*
X36183Y15189D01*
X36333Y15189D01*
X36333Y15539D01*
X38083Y17539D02*
X38083Y17989D01*
X36333Y17989D02*
X36083Y17989D01*
X36083Y17339D01*
X36183Y17339D02*
X36183Y17889D01*
X36333Y17889D01*
X36333Y17539D01*
X44533Y15089D02*
X44783Y15089D01*
X44683Y15189D02*
X44533Y15189D01*
X44533Y15539D01*
X44683Y15739D02*
X44683Y15189D01*
X44783Y15089D02*
X44783Y15739D01*
D17*
X42658Y17564D03*
X42658Y15514D03*
X38208Y15514D03*
X38208Y17564D03*
D18*
X43658Y17439D03*
D19*
X40433Y17289D03*
X40433Y15789D03*
D20*
X37358Y17314D03*
X37358Y15764D03*
D21*
X37283Y15639D03*
X37283Y17439D03*
X43583Y15639D03*
D20*
X43508Y15764D03*
X43508Y17314D03*
D22*
X39272Y15254D02*
X39272Y14624D01*
X39272Y15254D02*
X39552Y15254D01*
X39552Y14974D02*
X39272Y14974D01*
X39804Y14799D02*
X39804Y15254D01*
X39804Y14799D02*
X39806Y14774D01*
X39811Y14750D01*
X39820Y14726D01*
X39832Y14704D01*
X39847Y14684D01*
X39864Y14667D01*
X39884Y14652D01*
X39906Y14640D01*
X39930Y14631D01*
X39954Y14626D01*
X39979Y14624D01*
X40004Y14626D01*
X40028Y14631D01*
X40052Y14640D01*
X40074Y14652D01*
X40094Y14667D01*
X40111Y14684D01*
X40126Y14704D01*
X40138Y14726D01*
X40147Y14750D01*
X40152Y14774D01*
X40154Y14799D01*
X40154Y15254D01*
X40770Y14764D02*
X40768Y14742D01*
X40763Y14721D01*
X40755Y14700D01*
X40743Y14682D01*
X40729Y14665D01*
X40712Y14651D01*
X40694Y14639D01*
X40673Y14631D01*
X40652Y14626D01*
X40630Y14624D01*
X40597Y14626D01*
X40564Y14632D01*
X40532Y14641D01*
X40501Y14654D01*
X40472Y14670D01*
X40445Y14689D01*
X40420Y14712D01*
X40437Y15114D02*
X40439Y15136D01*
X40444Y15157D01*
X40452Y15178D01*
X40464Y15196D01*
X40478Y15213D01*
X40495Y15227D01*
X40513Y15239D01*
X40534Y15247D01*
X40555Y15252D01*
X40577Y15254D01*
X40577Y15255D02*
X40605Y15253D01*
X40633Y15249D01*
X40660Y15242D01*
X40686Y15231D01*
X40711Y15218D01*
X40735Y15202D01*
X40438Y15114D02*
X40440Y15093D01*
X40444Y15072D01*
X40452Y15053D01*
X40462Y15035D01*
X40475Y15018D01*
X40491Y15004D01*
X40508Y14992D01*
X40700Y14886D02*
X40717Y14874D01*
X40733Y14860D01*
X40746Y14843D01*
X40756Y14825D01*
X40764Y14806D01*
X40768Y14785D01*
X40770Y14764D01*
X40700Y14887D02*
X40507Y14992D01*
X41037Y14624D02*
X41317Y14624D01*
X41037Y14624D02*
X41037Y15254D01*
X41317Y15254D01*
X41247Y14974D02*
X41037Y14974D01*
X41548Y15114D02*
X41723Y15254D01*
X41723Y14624D01*
X41548Y14624D02*
X41898Y14624D01*
D16*
X42529Y21114D02*
X38329Y21114D01*
D10*
X39129Y22264D02*
X41729Y22264D01*
X42779Y20814D02*
X44529Y20814D01*
X44529Y23614D02*
X44529Y23714D01*
X44529Y23264D02*
X42779Y23264D01*
X44529Y20914D02*
X44529Y20814D01*
X44529Y21264D02*
X42779Y21264D01*
X42779Y23714D02*
X44529Y23714D01*
X42779Y23714D02*
X42779Y23264D01*
X44529Y23714D02*
X44779Y23714D01*
X44779Y23064D01*
X44679Y23064D02*
X44679Y23614D01*
X44529Y23614D01*
X44529Y23264D01*
X42779Y21264D02*
X42779Y20814D01*
D16*
X42529Y23414D02*
X38329Y23414D01*
D10*
X38079Y23714D02*
X36329Y23714D01*
X36329Y20914D02*
X36329Y20814D01*
X36329Y21264D02*
X38079Y21264D01*
X36329Y23614D02*
X36329Y23714D01*
X36329Y23264D02*
X38079Y23264D01*
X38079Y20814D02*
X36329Y20814D01*
X38079Y20814D02*
X38079Y21264D01*
X36329Y20814D02*
X36079Y20814D01*
X36079Y21464D01*
X36179Y21464D02*
X36179Y20914D01*
X36329Y20914D01*
X36329Y21264D01*
X38079Y23264D02*
X38079Y23714D01*
X36329Y23714D02*
X36079Y23714D01*
X36079Y23064D01*
X36179Y23064D02*
X36179Y23614D01*
X36329Y23614D01*
X36329Y23264D01*
X44529Y20814D02*
X44779Y20814D01*
X44679Y20914D02*
X44529Y20914D01*
X44529Y21264D01*
X44679Y21464D02*
X44679Y20914D01*
X44779Y20814D02*
X44779Y21464D01*
D17*
X42654Y23289D03*
X42654Y21239D03*
X38204Y21239D03*
X38204Y23289D03*
D18*
X43654Y23164D03*
D19*
X40429Y23014D03*
X40429Y21514D03*
D20*
X37354Y23039D03*
X37354Y21489D03*
D21*
X37279Y21364D03*
X37279Y23164D03*
X43579Y21364D03*
D20*
X43504Y21489D03*
X43504Y23039D03*
D22*
X39269Y20979D02*
X39269Y20349D01*
X39269Y20979D02*
X39549Y20979D01*
X39549Y20699D02*
X39269Y20699D01*
X39801Y20524D02*
X39801Y20979D01*
X39801Y20524D02*
X39803Y20499D01*
X39808Y20475D01*
X39817Y20451D01*
X39829Y20429D01*
X39844Y20409D01*
X39861Y20392D01*
X39881Y20377D01*
X39903Y20365D01*
X39927Y20356D01*
X39951Y20351D01*
X39976Y20349D01*
X40001Y20351D01*
X40025Y20356D01*
X40049Y20365D01*
X40071Y20377D01*
X40091Y20392D01*
X40108Y20409D01*
X40123Y20429D01*
X40135Y20451D01*
X40144Y20475D01*
X40149Y20499D01*
X40151Y20524D01*
X40151Y20979D01*
X40766Y20489D02*
X40764Y20467D01*
X40759Y20446D01*
X40751Y20425D01*
X40739Y20407D01*
X40725Y20390D01*
X40708Y20376D01*
X40690Y20364D01*
X40669Y20356D01*
X40648Y20351D01*
X40626Y20349D01*
X40593Y20351D01*
X40560Y20357D01*
X40528Y20366D01*
X40497Y20379D01*
X40468Y20395D01*
X40441Y20414D01*
X40416Y20437D01*
X40434Y20839D02*
X40436Y20861D01*
X40441Y20882D01*
X40449Y20903D01*
X40461Y20921D01*
X40475Y20938D01*
X40492Y20952D01*
X40510Y20964D01*
X40531Y20972D01*
X40552Y20977D01*
X40574Y20979D01*
X40602Y20977D01*
X40630Y20973D01*
X40657Y20966D01*
X40683Y20955D01*
X40708Y20942D01*
X40732Y20926D01*
X40504Y20717D02*
X40487Y20729D01*
X40471Y20743D01*
X40458Y20760D01*
X40448Y20778D01*
X40440Y20797D01*
X40436Y20818D01*
X40434Y20839D01*
X40696Y20611D02*
X40713Y20599D01*
X40729Y20585D01*
X40742Y20568D01*
X40752Y20550D01*
X40760Y20531D01*
X40764Y20510D01*
X40766Y20489D01*
X40696Y20611D02*
X40504Y20716D01*
X41033Y20349D02*
X41313Y20349D01*
X41033Y20349D02*
X41033Y20979D01*
X41313Y20979D01*
X41243Y20699D02*
X41033Y20699D01*
X41737Y20979D02*
X41759Y20977D01*
X41782Y20973D01*
X41803Y20965D01*
X41822Y20954D01*
X41840Y20940D01*
X41856Y20924D01*
X41870Y20906D01*
X41881Y20887D01*
X41889Y20866D01*
X41893Y20843D01*
X41895Y20821D01*
X41737Y20978D02*
X41712Y20976D01*
X41687Y20972D01*
X41663Y20964D01*
X41640Y20953D01*
X41618Y20939D01*
X41599Y20923D01*
X41581Y20905D01*
X41566Y20884D01*
X41554Y20862D01*
X41545Y20838D01*
X41842Y20699D02*
X41857Y20715D01*
X41870Y20734D01*
X41880Y20754D01*
X41888Y20776D01*
X41892Y20798D01*
X41894Y20821D01*
X41842Y20699D02*
X41544Y20349D01*
X41894Y20349D01*
D14*
X39016Y8837D02*
X39016Y5963D01*
X37717Y5963D01*
X37717Y8837D02*
X39016Y8837D01*
X37717Y8837D02*
X37717Y5963D01*
X37736Y6120D02*
X37795Y6120D01*
X37795Y6317D01*
X37736Y6317D01*
D12*
X37323Y6071D02*
X37323Y5944D01*
X37323Y6071D02*
X37325Y6092D01*
X37330Y6113D01*
X37338Y6132D01*
X37350Y6150D01*
X37364Y6165D01*
X37381Y6178D01*
X37400Y6188D01*
X37420Y6195D01*
X37440Y6199D01*
X37462Y6199D01*
X37482Y6195D01*
X37502Y6188D01*
X37521Y6178D01*
X37538Y6165D01*
X37552Y6150D01*
X37564Y6132D01*
X37572Y6113D01*
X37577Y6092D01*
X37579Y6071D01*
X37578Y6071D02*
X37578Y5944D01*
X37118Y5944D01*
X37118Y6071D01*
X37119Y6071D02*
X37121Y6090D01*
X37126Y6108D01*
X37134Y6125D01*
X37146Y6140D01*
X37160Y6152D01*
X37176Y6162D01*
X37193Y6169D01*
X37212Y6173D01*
X37230Y6173D01*
X37249Y6169D01*
X37266Y6162D01*
X37282Y6152D01*
X37296Y6140D01*
X37308Y6125D01*
X37316Y6108D01*
X37321Y6090D01*
X37323Y6071D01*
X37476Y6372D02*
X37118Y6474D01*
X37476Y6372D02*
X37476Y6628D01*
X37374Y6551D02*
X37578Y6551D01*
X37630Y6803D02*
X37630Y7007D01*
X37578Y7156D02*
X37118Y7310D01*
X37578Y7463D01*
X37463Y7425D02*
X37463Y7195D01*
D14*
X56417Y5020D02*
X56417Y2146D01*
X55118Y2146D01*
X55118Y5020D02*
X56417Y5020D01*
X55118Y5020D02*
X55118Y2146D01*
X55138Y2303D02*
X55197Y2303D01*
X55197Y2500D01*
X55138Y2500D01*
D12*
X54724Y2254D02*
X54724Y2126D01*
X54724Y2254D02*
X54726Y2275D01*
X54731Y2296D01*
X54739Y2315D01*
X54751Y2333D01*
X54765Y2348D01*
X54782Y2361D01*
X54801Y2371D01*
X54821Y2378D01*
X54841Y2382D01*
X54863Y2382D01*
X54883Y2378D01*
X54903Y2371D01*
X54922Y2361D01*
X54939Y2348D01*
X54953Y2333D01*
X54965Y2315D01*
X54973Y2296D01*
X54978Y2275D01*
X54980Y2254D01*
X54980Y2126D01*
X54520Y2126D01*
X54520Y2254D01*
X54522Y2273D01*
X54527Y2291D01*
X54535Y2308D01*
X54547Y2323D01*
X54561Y2335D01*
X54577Y2345D01*
X54594Y2352D01*
X54613Y2356D01*
X54631Y2356D01*
X54650Y2352D01*
X54667Y2345D01*
X54683Y2335D01*
X54697Y2323D01*
X54709Y2308D01*
X54717Y2291D01*
X54722Y2273D01*
X54724Y2254D01*
X54980Y2555D02*
X54980Y2708D01*
X54978Y2726D01*
X54974Y2743D01*
X54966Y2759D01*
X54956Y2774D01*
X54944Y2786D01*
X54929Y2796D01*
X54913Y2804D01*
X54896Y2808D01*
X54878Y2810D01*
X54827Y2810D01*
X54809Y2808D01*
X54792Y2804D01*
X54776Y2796D01*
X54761Y2786D01*
X54749Y2774D01*
X54739Y2759D01*
X54731Y2743D01*
X54727Y2726D01*
X54725Y2708D01*
X54724Y2708D02*
X54724Y2555D01*
X54520Y2555D01*
X54520Y2810D01*
X55031Y2985D02*
X55031Y3190D01*
X54980Y3339D02*
X54520Y3492D01*
X54980Y3646D01*
X54865Y3607D02*
X54865Y3377D01*
X54622Y3815D02*
X54520Y3942D01*
X54980Y3942D01*
X54980Y3815D02*
X54980Y4070D01*
D14*
X56238Y37370D02*
X56238Y40244D01*
X56238Y37370D02*
X54939Y37370D01*
X54939Y40244D02*
X56238Y40244D01*
X54939Y40244D02*
X54939Y37370D01*
X54959Y37528D02*
X55018Y37528D01*
X55018Y37724D01*
X54959Y37724D01*
D12*
X54801Y37351D02*
X54341Y37351D01*
X54341Y37478D01*
X54343Y37499D01*
X54348Y37520D01*
X54356Y37539D01*
X54368Y37557D01*
X54382Y37572D01*
X54399Y37585D01*
X54418Y37595D01*
X54438Y37602D01*
X54458Y37606D01*
X54480Y37606D01*
X54500Y37602D01*
X54520Y37595D01*
X54539Y37585D01*
X54556Y37572D01*
X54570Y37557D01*
X54582Y37539D01*
X54590Y37520D01*
X54595Y37499D01*
X54597Y37478D01*
X54597Y37351D01*
X54597Y37504D02*
X54801Y37606D01*
X54801Y37772D02*
X54341Y37926D01*
X54801Y38079D01*
X54686Y38041D02*
X54686Y37811D01*
X54801Y38386D02*
X54799Y38404D01*
X54795Y38421D01*
X54787Y38437D01*
X54777Y38452D01*
X54765Y38464D01*
X54750Y38474D01*
X54734Y38482D01*
X54717Y38486D01*
X54699Y38488D01*
X54801Y38386D02*
X54799Y38358D01*
X54794Y38330D01*
X54784Y38303D01*
X54772Y38277D01*
X54756Y38254D01*
X54737Y38233D01*
X54443Y38246D02*
X54425Y38248D01*
X54408Y38252D01*
X54392Y38260D01*
X54377Y38270D01*
X54365Y38282D01*
X54355Y38297D01*
X54347Y38313D01*
X54343Y38330D01*
X54341Y38348D01*
X54343Y38373D01*
X54347Y38397D01*
X54355Y38420D01*
X54366Y38443D01*
X54379Y38463D01*
X54443Y38245D02*
X54461Y38247D01*
X54478Y38251D01*
X54495Y38259D01*
X54509Y38269D01*
X54522Y38282D01*
X54533Y38296D01*
X54609Y38438D02*
X54620Y38452D01*
X54633Y38465D01*
X54647Y38475D01*
X54664Y38483D01*
X54681Y38487D01*
X54699Y38489D01*
X54609Y38437D02*
X54533Y38297D01*
X54341Y38689D02*
X54801Y38689D01*
X54341Y38689D02*
X54341Y38817D01*
X54343Y38838D01*
X54348Y38859D01*
X54356Y38878D01*
X54368Y38896D01*
X54382Y38911D01*
X54399Y38924D01*
X54418Y38934D01*
X54438Y38941D01*
X54458Y38945D01*
X54480Y38945D01*
X54500Y38941D01*
X54520Y38934D01*
X54539Y38924D01*
X54556Y38911D01*
X54570Y38896D01*
X54582Y38878D01*
X54590Y38859D01*
X54595Y38838D01*
X54597Y38817D01*
X54597Y38689D01*
M02*
