G04 EAGLE Gerber RS-274X export*
G75*
%MOIN*%
%FSLAX34Y34*%
%LPD*%
%INBottom Copper*%
%IPPOS*%
%AMOC8*
5,1,8,0,0,1.08239X$1,22.5*%
G01*
%ADD10R,0.106299X0.106299*%
%ADD11C,0.065551*%
%ADD12C,0.074000*%
%ADD13C,0.060000*%
%ADD14C,0.158110*%
%ADD15R,0.090000X0.090000*%
%ADD16C,0.019685*%
%ADD17C,0.035685*%
%ADD18C,0.010000*%


D10*
X3886Y26748D03*
X3886Y28402D03*
X44941Y31438D03*
X46594Y31438D03*
X18441Y31438D03*
X20094Y31438D03*
X3847Y35070D03*
X5501Y35070D03*
D11*
X41720Y56669D03*
X40720Y56669D03*
X39720Y56669D03*
X38720Y56669D03*
X37720Y56669D03*
X36720Y56669D03*
X35720Y56669D03*
X34720Y56669D03*
X33720Y56669D03*
X32720Y56669D03*
X31720Y56669D03*
X30720Y56669D03*
X30720Y50669D03*
X31720Y50669D03*
X32720Y50669D03*
X33720Y50669D03*
X34720Y50669D03*
X35720Y50669D03*
X36720Y50669D03*
X37720Y50669D03*
X38720Y50669D03*
X39720Y50669D03*
X40720Y50669D03*
X28720Y56669D03*
X27720Y56669D03*
X26720Y56669D03*
X25720Y56669D03*
X24720Y56669D03*
X23720Y56669D03*
X22720Y56669D03*
X21720Y56669D03*
X20720Y56669D03*
X20720Y50669D03*
X21720Y50669D03*
X22720Y50669D03*
X23720Y50669D03*
X24720Y50669D03*
X25720Y50669D03*
X26720Y50669D03*
X27720Y50669D03*
X28720Y50669D03*
X29720Y56669D03*
X25720Y55669D03*
X25720Y54669D03*
X25720Y53669D03*
X25720Y52669D03*
X25720Y51669D03*
X37220Y55469D03*
X38220Y55469D03*
X39220Y55469D03*
X40220Y55469D03*
X41220Y55469D03*
X41720Y50669D03*
X43720Y50669D03*
X42720Y56669D03*
X42720Y51669D03*
X29720Y50669D03*
X42720Y50669D03*
X43720Y56669D03*
D12*
X55927Y9347D03*
X55927Y10347D03*
X55927Y11347D03*
X55927Y12347D03*
X55927Y13347D03*
X55927Y14347D03*
X55927Y16347D03*
X55927Y17347D03*
X55927Y18347D03*
X55927Y19347D03*
X55927Y20347D03*
X55927Y21347D03*
X36927Y21347D03*
X36927Y20347D03*
X36927Y19347D03*
X36927Y18347D03*
X36927Y17347D03*
X36927Y16347D03*
X36927Y15347D03*
X36927Y14347D03*
X36927Y12847D03*
X36927Y11847D03*
X36927Y10847D03*
X36927Y9847D03*
X36927Y8847D03*
X36927Y7847D03*
X36927Y6847D03*
X36927Y5847D03*
X36927Y4847D03*
X36927Y3847D03*
X55927Y8347D03*
X55927Y7347D03*
X29427Y9347D03*
X29427Y10347D03*
X29427Y11347D03*
X29427Y12347D03*
X29427Y13347D03*
X29427Y14347D03*
X29427Y16347D03*
X29427Y17347D03*
X29427Y18347D03*
X29427Y19347D03*
X29427Y20347D03*
X29427Y21347D03*
X10427Y21347D03*
X10427Y20347D03*
X10427Y19347D03*
X10427Y18347D03*
X10427Y17347D03*
X10427Y16347D03*
X10427Y15347D03*
X10427Y14347D03*
X10427Y12847D03*
X10427Y11847D03*
X10427Y10847D03*
X10427Y9847D03*
X10427Y8847D03*
X10427Y7847D03*
X10427Y6847D03*
X10427Y5847D03*
X10427Y4847D03*
X10427Y3847D03*
X29427Y8347D03*
X29427Y7347D03*
D10*
X51941Y31438D03*
X53594Y31438D03*
X37941Y31438D03*
X39594Y31438D03*
X24941Y31438D03*
X26594Y31438D03*
X11941Y31438D03*
X13594Y31438D03*
D13*
X3343Y5356D02*
X3343Y4756D01*
X4343Y4756D02*
X4343Y5356D01*
X55311Y56333D02*
X55311Y56933D01*
X56311Y56933D02*
X56311Y56333D01*
X3343Y23077D02*
X3343Y22477D01*
X4343Y22477D02*
X4343Y23077D01*
D14*
X13942Y38080D03*
X11580Y38080D03*
X23815Y38080D03*
X21453Y38080D03*
X45167Y37292D03*
X42804Y37292D03*
X53945Y37292D03*
X51583Y37292D03*
D15*
X6157Y49165D03*
X12157Y49165D03*
X6181Y55031D03*
X12181Y55031D03*
D13*
X31075Y36198D02*
X31075Y35598D01*
X32075Y35598D02*
X32075Y36198D01*
X33075Y36198D02*
X33075Y35598D01*
X34075Y35598D02*
X34075Y36198D01*
X31075Y37511D02*
X31075Y38111D01*
X32075Y38111D02*
X32075Y37511D01*
X33075Y37511D02*
X33075Y38111D01*
X34075Y38111D02*
X34075Y37511D01*
X31028Y39472D02*
X31028Y40072D01*
X32028Y40072D02*
X32028Y39472D01*
X33028Y39472D02*
X33028Y40072D01*
X34028Y40072D02*
X34028Y39472D01*
X31028Y41361D02*
X31028Y41961D01*
X32028Y41961D02*
X32028Y41361D01*
X33028Y41361D02*
X33028Y41961D01*
X34028Y41961D02*
X34028Y41361D01*
X31528Y33702D02*
X31528Y33102D01*
X32528Y33102D02*
X32528Y33702D01*
X33528Y33702D02*
X33528Y33102D01*
X31504Y31646D02*
X31504Y31046D01*
X32504Y31046D02*
X32504Y31646D01*
X33504Y31646D02*
X33504Y31046D01*
D16*
X42427Y12347D02*
X36927Y6847D01*
X42427Y12347D02*
X55927Y12347D01*
X36927Y6847D02*
X35744Y6847D01*
X30244Y12347D02*
X29427Y12347D01*
X30244Y12347D02*
X35744Y6847D01*
X29427Y12347D02*
X29427Y13347D01*
X3343Y5771D02*
X3343Y5056D01*
X3343Y5771D02*
X4918Y7346D01*
X9382Y6847D02*
X10427Y6847D01*
X8882Y7346D02*
X4918Y7346D01*
X8882Y7346D02*
X9382Y6847D01*
X40720Y56669D02*
X40720Y57232D01*
X41008Y57520D01*
X46228Y57520D01*
X50496Y53252D01*
X50496Y30323D01*
X50291Y30118D01*
D17*
X50291Y30118D03*
D16*
X42543Y41811D02*
X46063Y45331D01*
X42543Y41811D02*
X42520Y41811D01*
X35278Y34569D01*
X35278Y18996D02*
X36927Y17347D01*
X35278Y18996D02*
X35278Y34569D01*
X46063Y45331D02*
X46063Y50598D01*
D17*
X46063Y50598D03*
D16*
X36720Y55996D02*
X36720Y56669D01*
X36720Y55996D02*
X36425Y55701D01*
X36425Y54850D01*
X36732Y54543D02*
X47433Y54543D01*
X49654Y52323D01*
X49654Y26804D02*
X39951Y17102D01*
D17*
X39951Y17102D03*
D16*
X36732Y54543D02*
X36425Y54850D01*
X49654Y52323D02*
X49654Y26804D01*
X35720Y54634D02*
X35720Y56669D01*
X36307Y54047D02*
X46937Y54047D01*
X48992Y51992D01*
X48992Y31063D02*
X45071Y27142D01*
X45047Y27142D01*
X44976Y27071D01*
D17*
X44976Y27071D03*
D16*
X36307Y54047D02*
X35720Y54634D01*
X48992Y51992D02*
X48992Y31063D01*
X30720Y53610D02*
X30720Y56669D01*
X32031Y52299D02*
X45205Y52299D01*
X46669Y50835D01*
X38008Y27543D02*
X38008Y9520D01*
X37335Y8847D01*
X36927Y8847D01*
X32031Y52299D02*
X30720Y53610D01*
X46669Y50835D02*
X46669Y36205D01*
X38008Y27543D01*
X11992Y15347D02*
X10427Y15347D01*
X14339Y17693D02*
X14339Y25465D01*
X17953Y29079D01*
X33756Y29079D01*
X34701Y30024D01*
X39720Y39980D02*
X39720Y50669D01*
X14339Y17693D02*
X11992Y15347D01*
X34701Y30024D02*
X34701Y34961D01*
X39720Y39980D01*
X16666Y8847D02*
X10427Y8847D01*
X23055Y15236D02*
X30969Y15236D01*
X31984Y16252D01*
X31984Y27945D01*
D17*
X31984Y27945D03*
X40677Y42378D03*
D16*
X40677Y50626D01*
X40720Y50669D01*
X23055Y15236D02*
X16666Y8847D01*
X9708Y19488D02*
X9708Y54047D01*
X13276Y57614D02*
X28087Y57614D01*
X28720Y56980D01*
X28720Y56669D01*
X13276Y57614D02*
X9708Y54047D01*
X9850Y19347D02*
X10427Y19347D01*
X9850Y19347D02*
X9708Y19488D01*
X8551Y16223D02*
X10427Y14347D01*
X8551Y16223D02*
X8551Y55465D01*
X12378Y59291D01*
X26693Y59291D02*
X27165Y58819D01*
D17*
X27165Y58819D03*
D16*
X26693Y59291D02*
X12378Y59291D01*
X9189Y18585D02*
X10427Y17347D01*
X12874Y58559D02*
X25465Y58559D01*
D17*
X25465Y58559D03*
D16*
X9189Y54874D02*
X9189Y18585D01*
X9189Y54874D02*
X12874Y58559D01*
D17*
X33472Y13134D03*
D16*
X31583Y15024D01*
X31583Y15047D01*
D17*
X31583Y15047D03*
D16*
X10427Y11847D02*
X9933Y11847D01*
X7421Y14358D01*
X7421Y56531D01*
X11220Y60331D01*
X25323Y60331D01*
X25394Y60260D01*
D17*
X25394Y60260D03*
D16*
X34720Y56669D02*
X34720Y54406D01*
X35480Y53646D02*
X46299Y53646D01*
X48331Y51614D01*
X43205Y29858D02*
X40465Y27118D01*
D17*
X40465Y27118D03*
X35362Y16157D03*
D16*
X35882Y15638D01*
X35882Y13370D01*
X36405Y12847D01*
X36927Y12847D01*
X35480Y53646D02*
X34720Y54406D01*
X48331Y51614D02*
X48331Y31346D01*
X46843Y29858D01*
X43205Y29858D01*
X33720Y53870D02*
X33720Y56669D01*
X34370Y53220D02*
X46063Y53220D01*
X47740Y51543D01*
X47740Y34843D01*
X45331Y32433D01*
X44453Y32433D01*
X39378Y27358D01*
X39378Y13252D01*
D17*
X38504Y12378D03*
D16*
X39378Y13252D01*
X34370Y53220D02*
X33720Y53870D01*
X32720Y53193D02*
X32720Y56669D01*
X32720Y53193D02*
X33118Y52795D01*
X45354Y52795D01*
X47173Y50976D01*
X47173Y35386D01*
X44929Y33142D01*
X44409Y33142D01*
X38504Y27236D02*
X38504Y13143D01*
D17*
X38504Y13143D03*
D16*
X38504Y27236D02*
X44409Y33142D01*
D17*
X29858Y24449D03*
D16*
X28677Y24449D01*
X15075Y10847D01*
X10427Y10847D01*
X10427Y12847D02*
X9500Y12847D01*
X7953Y14394D02*
X7953Y56165D01*
X11646Y59858D01*
X23622Y59858D01*
D17*
X23622Y59858D03*
D16*
X7953Y14394D02*
X9500Y12847D01*
X32028Y41661D02*
X32028Y44366D01*
X25724Y50669D02*
X25720Y50669D01*
X25724Y50669D02*
X32028Y44366D01*
X32028Y39772D02*
X32079Y39720D01*
X32079Y39236D01*
X32504Y38811D01*
X34772Y38811D01*
X35465Y39504D02*
X35465Y44071D01*
X35465Y39504D02*
X34772Y38811D01*
X35465Y44071D02*
X33773Y45763D01*
X31395Y45763D01*
X26720Y50438D01*
X26720Y50669D01*
X27720Y50669D02*
X27732Y50657D01*
X27732Y50339D01*
X32075Y37811D02*
X32075Y37398D01*
X32622Y36850D02*
X34559Y36850D01*
X32622Y36850D02*
X32075Y37398D01*
X34559Y36850D02*
X36756Y39047D01*
D17*
X36661Y44528D03*
D16*
X36756Y44433D02*
X36756Y39047D01*
X36756Y44433D02*
X36661Y44528D01*
D17*
X33331Y46323D03*
D16*
X31748Y46323D01*
X27732Y50339D01*
X32075Y36547D02*
X32075Y35898D01*
X31764Y36858D02*
X28717Y36858D01*
X31764Y36858D02*
X32075Y36547D01*
X28717Y36858D02*
X27898Y37677D01*
X27898Y47693D01*
D17*
X27898Y47693D03*
D16*
X34075Y37811D02*
X34717Y37811D01*
X35980Y39075D02*
X35980Y48638D01*
X35720Y48898D01*
X35720Y50669D01*
X35980Y39075D02*
X34717Y37811D01*
X34787Y35898D02*
X34075Y35898D01*
X37217Y38327D02*
X37217Y48850D01*
X36720Y49346D01*
X36720Y50669D01*
X37217Y38327D02*
X34787Y35898D01*
X34028Y41661D02*
X34028Y43736D01*
X33213Y44551D01*
X33189Y44551D01*
D17*
X33189Y44551D03*
D16*
X34937Y40091D02*
X34618Y39772D01*
X34028Y39772D01*
X34937Y40091D02*
X34937Y43890D01*
X33732Y45094D01*
X32740Y45094D01*
D17*
X32740Y45094D03*
D16*
X32528Y34157D02*
X32528Y33402D01*
X31772Y34913D02*
X28370Y34913D01*
X26835Y36449D01*
X26835Y47150D01*
X25417Y48567D01*
X19795Y48567D01*
X18827Y49535D01*
X18827Y54024D01*
X20126Y55323D01*
X24720Y55949D02*
X24720Y56669D01*
X31772Y34913D02*
X32528Y34157D01*
X24094Y55323D02*
X20126Y55323D01*
X24094Y55323D02*
X24720Y55949D01*
X32504Y32008D02*
X32504Y31346D01*
X32504Y32008D02*
X32197Y32315D01*
X29622Y32315D01*
X25843Y36094D01*
X25843Y45945D01*
X24047Y47740D01*
X19039Y47740D01*
X17953Y48827D01*
X17953Y54165D01*
X19654Y55866D01*
X23720Y56083D02*
X23720Y56669D01*
X23720Y56083D02*
X23504Y55866D01*
X19654Y55866D01*
D18*
X0Y0D02*
X61024Y0D01*
X61024Y61024D01*
X0Y61024D01*
X0Y0D01*
X2559Y59034D02*
X2556Y58992D01*
X2550Y58950D01*
X2541Y58909D01*
X2529Y58869D01*
X2514Y58829D01*
X2497Y58791D01*
X2477Y58754D01*
X2454Y58718D01*
X2429Y58684D01*
X2401Y58652D01*
X2371Y58623D01*
X2339Y58595D01*
X2306Y58570D01*
X2270Y58547D01*
X2233Y58527D01*
X2195Y58509D01*
X2155Y58494D01*
X2115Y58483D01*
X2073Y58474D01*
X2032Y58468D01*
X1990Y58465D01*
X1947Y58465D01*
X1905Y58468D01*
X1864Y58474D01*
X1822Y58483D01*
X1782Y58494D01*
X1742Y58509D01*
X1704Y58527D01*
X1667Y58547D01*
X1631Y58570D01*
X1598Y58595D01*
X1566Y58623D01*
X1536Y58652D01*
X1508Y58684D01*
X1483Y58718D01*
X1460Y58754D01*
X1440Y58791D01*
X1423Y58829D01*
X1408Y58869D01*
X1396Y58909D01*
X1387Y58950D01*
X1381Y58992D01*
X1378Y59034D01*
X1378Y59076D01*
X1381Y59118D01*
X1387Y59160D01*
X1396Y59201D01*
X1408Y59242D01*
X1423Y59281D01*
X1440Y59320D01*
X1460Y59357D01*
X1483Y59392D01*
X1508Y59426D01*
X1536Y59458D01*
X1566Y59488D01*
X1598Y59515D01*
X1631Y59541D01*
X1667Y59563D01*
X1704Y59584D01*
X1742Y59601D01*
X1782Y59616D01*
X1822Y59628D01*
X1864Y59637D01*
X1905Y59643D01*
X1947Y59646D01*
X1990Y59646D01*
X2032Y59643D01*
X2073Y59637D01*
X2115Y59628D01*
X2155Y59616D01*
X2195Y59601D01*
X2233Y59584D01*
X2270Y59563D01*
X2306Y59541D01*
X2339Y59515D01*
X2371Y59488D01*
X2401Y59458D01*
X2429Y59426D01*
X2454Y59392D01*
X2477Y59357D01*
X2497Y59320D01*
X2514Y59281D01*
X2529Y59242D01*
X2541Y59201D01*
X2550Y59160D01*
X2556Y59118D01*
X2559Y59076D01*
X2559Y59034D01*
X59646Y59034D02*
X59643Y58992D01*
X59637Y58950D01*
X59628Y58909D01*
X59616Y58869D01*
X59601Y58829D01*
X59584Y58791D01*
X59563Y58754D01*
X59541Y58718D01*
X59515Y58684D01*
X59488Y58652D01*
X59458Y58623D01*
X59426Y58595D01*
X59392Y58570D01*
X59357Y58547D01*
X59320Y58527D01*
X59281Y58509D01*
X59242Y58494D01*
X59201Y58483D01*
X59160Y58474D01*
X59118Y58468D01*
X59076Y58465D01*
X59034Y58465D01*
X58992Y58468D01*
X58950Y58474D01*
X58909Y58483D01*
X58869Y58494D01*
X58829Y58509D01*
X58791Y58527D01*
X58754Y58547D01*
X58718Y58570D01*
X58684Y58595D01*
X58652Y58623D01*
X58623Y58652D01*
X58595Y58684D01*
X58570Y58718D01*
X58547Y58754D01*
X58527Y58791D01*
X58509Y58829D01*
X58494Y58869D01*
X58483Y58909D01*
X58474Y58950D01*
X58468Y58992D01*
X58465Y59034D01*
X58465Y59076D01*
X58468Y59118D01*
X58474Y59160D01*
X58483Y59201D01*
X58494Y59242D01*
X58509Y59281D01*
X58527Y59320D01*
X58547Y59357D01*
X58570Y59392D01*
X58595Y59426D01*
X58623Y59458D01*
X58652Y59488D01*
X58684Y59515D01*
X58718Y59541D01*
X58754Y59563D01*
X58791Y59584D01*
X58829Y59601D01*
X58869Y59616D01*
X58909Y59628D01*
X58950Y59637D01*
X58992Y59643D01*
X59034Y59646D01*
X59076Y59646D01*
X59118Y59643D01*
X59160Y59637D01*
X59201Y59628D01*
X59242Y59616D01*
X59281Y59601D01*
X59320Y59584D01*
X59357Y59563D01*
X59392Y59541D01*
X59426Y59515D01*
X59458Y59488D01*
X59488Y59458D01*
X59515Y59426D01*
X59541Y59392D01*
X59563Y59357D01*
X59584Y59320D01*
X59601Y59281D01*
X59616Y59242D01*
X59628Y59201D01*
X59637Y59160D01*
X59643Y59118D01*
X59646Y59076D01*
X59646Y59034D01*
X2559Y1947D02*
X2556Y1905D01*
X2550Y1864D01*
X2541Y1822D01*
X2529Y1782D01*
X2514Y1742D01*
X2497Y1704D01*
X2477Y1667D01*
X2454Y1631D01*
X2429Y1598D01*
X2401Y1566D01*
X2371Y1536D01*
X2339Y1508D01*
X2306Y1483D01*
X2270Y1460D01*
X2233Y1440D01*
X2195Y1423D01*
X2155Y1408D01*
X2115Y1396D01*
X2073Y1387D01*
X2032Y1381D01*
X1990Y1378D01*
X1947Y1378D01*
X1905Y1381D01*
X1864Y1387D01*
X1822Y1396D01*
X1782Y1408D01*
X1742Y1423D01*
X1704Y1440D01*
X1667Y1460D01*
X1631Y1483D01*
X1598Y1508D01*
X1566Y1536D01*
X1536Y1566D01*
X1508Y1598D01*
X1483Y1631D01*
X1460Y1667D01*
X1440Y1704D01*
X1423Y1742D01*
X1408Y1782D01*
X1396Y1822D01*
X1387Y1864D01*
X1381Y1905D01*
X1378Y1947D01*
X1378Y1990D01*
X1381Y2032D01*
X1387Y2073D01*
X1396Y2115D01*
X1408Y2155D01*
X1423Y2195D01*
X1440Y2233D01*
X1460Y2270D01*
X1483Y2306D01*
X1508Y2339D01*
X1536Y2371D01*
X1566Y2401D01*
X1598Y2429D01*
X1631Y2454D01*
X1667Y2477D01*
X1704Y2497D01*
X1742Y2514D01*
X1782Y2529D01*
X1822Y2541D01*
X1864Y2550D01*
X1905Y2556D01*
X1947Y2559D01*
X1990Y2559D01*
X2032Y2556D01*
X2073Y2550D01*
X2115Y2541D01*
X2155Y2529D01*
X2195Y2514D01*
X2233Y2497D01*
X2270Y2477D01*
X2306Y2454D01*
X2339Y2429D01*
X2371Y2401D01*
X2401Y2371D01*
X2429Y2339D01*
X2454Y2306D01*
X2477Y2270D01*
X2497Y2233D01*
X2514Y2195D01*
X2529Y2155D01*
X2541Y2115D01*
X2550Y2073D01*
X2556Y2032D01*
X2559Y1990D01*
X2559Y1947D01*
X59646Y1947D02*
X59643Y1905D01*
X59637Y1864D01*
X59628Y1822D01*
X59616Y1782D01*
X59601Y1742D01*
X59584Y1704D01*
X59563Y1667D01*
X59541Y1631D01*
X59515Y1598D01*
X59488Y1566D01*
X59458Y1536D01*
X59426Y1508D01*
X59392Y1483D01*
X59357Y1460D01*
X59320Y1440D01*
X59281Y1423D01*
X59242Y1408D01*
X59201Y1396D01*
X59160Y1387D01*
X59118Y1381D01*
X59076Y1378D01*
X59034Y1378D01*
X58992Y1381D01*
X58950Y1387D01*
X58909Y1396D01*
X58869Y1408D01*
X58829Y1423D01*
X58791Y1440D01*
X58754Y1460D01*
X58718Y1483D01*
X58684Y1508D01*
X58652Y1536D01*
X58623Y1566D01*
X58595Y1598D01*
X58570Y1631D01*
X58547Y1667D01*
X58527Y1704D01*
X58509Y1742D01*
X58494Y1782D01*
X58483Y1822D01*
X58474Y1864D01*
X58468Y1905D01*
X58465Y1947D01*
X58465Y1990D01*
X58468Y2032D01*
X58474Y2073D01*
X58483Y2115D01*
X58494Y2155D01*
X58509Y2195D01*
X58527Y2233D01*
X58547Y2270D01*
X58570Y2306D01*
X58595Y2339D01*
X58623Y2371D01*
X58652Y2401D01*
X58684Y2429D01*
X58718Y2454D01*
X58754Y2477D01*
X58791Y2497D01*
X58829Y2514D01*
X58869Y2529D01*
X58909Y2541D01*
X58950Y2550D01*
X58992Y2556D01*
X59034Y2559D01*
X59076Y2559D01*
X59118Y2556D01*
X59160Y2550D01*
X59201Y2541D01*
X59242Y2529D01*
X59281Y2514D01*
X59320Y2497D01*
X59357Y2477D01*
X59392Y2454D01*
X59426Y2429D01*
X59458Y2401D01*
X59488Y2371D01*
X59515Y2339D01*
X59541Y2306D01*
X59563Y2270D01*
X59584Y2233D01*
X59601Y2195D01*
X59616Y2155D01*
X59628Y2115D01*
X59637Y2073D01*
X59643Y2032D01*
X59646Y1990D01*
X59646Y1947D01*
X55709Y25963D02*
X55706Y25921D01*
X55700Y25879D01*
X55691Y25838D01*
X55679Y25798D01*
X55664Y25758D01*
X55647Y25720D01*
X55626Y25683D01*
X55604Y25647D01*
X55578Y25613D01*
X55551Y25582D01*
X55521Y25552D01*
X55489Y25524D01*
X55455Y25499D01*
X55420Y25476D01*
X55383Y25456D01*
X55344Y25438D01*
X55305Y25424D01*
X55264Y25412D01*
X55223Y25403D01*
X55181Y25397D01*
X55139Y25394D01*
X55097Y25394D01*
X55055Y25397D01*
X55013Y25403D01*
X54972Y25412D01*
X54931Y25424D01*
X54892Y25438D01*
X54854Y25456D01*
X54817Y25476D01*
X54781Y25499D01*
X54747Y25524D01*
X54715Y25552D01*
X54686Y25582D01*
X54658Y25613D01*
X54633Y25647D01*
X54610Y25683D01*
X54590Y25720D01*
X54572Y25758D01*
X54557Y25798D01*
X54546Y25838D01*
X54537Y25879D01*
X54531Y25921D01*
X54528Y25963D01*
X54528Y26005D01*
X54531Y26047D01*
X54537Y26089D01*
X54546Y26130D01*
X54557Y26171D01*
X54572Y26210D01*
X54590Y26249D01*
X54610Y26286D01*
X54633Y26321D01*
X54658Y26355D01*
X54686Y26387D01*
X54715Y26417D01*
X54747Y26444D01*
X54781Y26470D01*
X54817Y26492D01*
X54854Y26513D01*
X54892Y26530D01*
X54931Y26545D01*
X54972Y26557D01*
X55013Y26566D01*
X55055Y26572D01*
X55097Y26575D01*
X55139Y26575D01*
X55181Y26572D01*
X55223Y26566D01*
X55264Y26557D01*
X55305Y26545D01*
X55344Y26530D01*
X55383Y26513D01*
X55420Y26492D01*
X55455Y26470D01*
X55489Y26444D01*
X55521Y26417D01*
X55551Y26387D01*
X55578Y26355D01*
X55604Y26321D01*
X55626Y26286D01*
X55647Y26249D01*
X55664Y26210D01*
X55679Y26171D01*
X55691Y26130D01*
X55700Y26089D01*
X55706Y26047D01*
X55709Y26005D01*
X55709Y25963D01*
X11614Y25963D02*
X11611Y25921D01*
X11605Y25879D01*
X11596Y25838D01*
X11584Y25798D01*
X11570Y25758D01*
X11552Y25720D01*
X11532Y25683D01*
X11509Y25647D01*
X11484Y25613D01*
X11456Y25582D01*
X11426Y25552D01*
X11394Y25524D01*
X11361Y25499D01*
X11325Y25476D01*
X11288Y25456D01*
X11250Y25438D01*
X11210Y25424D01*
X11170Y25412D01*
X11129Y25403D01*
X11087Y25397D01*
X11045Y25394D01*
X11003Y25394D01*
X10960Y25397D01*
X10919Y25403D01*
X10877Y25412D01*
X10837Y25424D01*
X10797Y25438D01*
X10759Y25456D01*
X10722Y25476D01*
X10687Y25499D01*
X10653Y25524D01*
X10621Y25552D01*
X10591Y25582D01*
X10564Y25613D01*
X10538Y25647D01*
X10515Y25683D01*
X10495Y25720D01*
X10478Y25758D01*
X10463Y25798D01*
X10451Y25838D01*
X10442Y25879D01*
X10436Y25921D01*
X10433Y25963D01*
X10433Y26005D01*
X10436Y26047D01*
X10442Y26089D01*
X10451Y26130D01*
X10463Y26171D01*
X10478Y26210D01*
X10495Y26249D01*
X10515Y26286D01*
X10538Y26321D01*
X10564Y26355D01*
X10591Y26387D01*
X10621Y26417D01*
X10653Y26444D01*
X10687Y26470D01*
X10722Y26492D01*
X10759Y26513D01*
X10797Y26530D01*
X10837Y26545D01*
X10877Y26557D01*
X10919Y26566D01*
X10960Y26572D01*
X11003Y26575D01*
X11045Y26575D01*
X11087Y26572D01*
X11129Y26566D01*
X11170Y26557D01*
X11210Y26545D01*
X11250Y26530D01*
X11288Y26513D01*
X11325Y26492D01*
X11361Y26470D01*
X11394Y26444D01*
X11426Y26417D01*
X11456Y26387D01*
X11484Y26355D01*
X11509Y26321D01*
X11532Y26286D01*
X11552Y26249D01*
X11570Y26210D01*
X11584Y26171D01*
X11596Y26130D01*
X11605Y26089D01*
X11611Y26047D01*
X11614Y26005D01*
X11614Y25963D01*
X55709Y45254D02*
X55706Y45212D01*
X55700Y45171D01*
X55691Y45129D01*
X55679Y45089D01*
X55664Y45049D01*
X55647Y45011D01*
X55626Y44974D01*
X55604Y44939D01*
X55578Y44905D01*
X55551Y44873D01*
X55521Y44843D01*
X55489Y44815D01*
X55455Y44790D01*
X55420Y44767D01*
X55383Y44747D01*
X55344Y44730D01*
X55305Y44715D01*
X55264Y44703D01*
X55223Y44694D01*
X55181Y44688D01*
X55139Y44685D01*
X55097Y44685D01*
X55055Y44688D01*
X55013Y44694D01*
X54972Y44703D01*
X54931Y44715D01*
X54892Y44730D01*
X54854Y44747D01*
X54817Y44767D01*
X54781Y44790D01*
X54747Y44815D01*
X54715Y44843D01*
X54686Y44873D01*
X54658Y44905D01*
X54633Y44939D01*
X54610Y44974D01*
X54590Y45011D01*
X54572Y45049D01*
X54557Y45089D01*
X54546Y45129D01*
X54537Y45171D01*
X54531Y45212D01*
X54528Y45254D01*
X54528Y45297D01*
X54531Y45339D01*
X54537Y45381D01*
X54546Y45422D01*
X54557Y45462D01*
X54572Y45502D01*
X54590Y45540D01*
X54610Y45577D01*
X54633Y45613D01*
X54658Y45646D01*
X54686Y45678D01*
X54715Y45708D01*
X54747Y45736D01*
X54781Y45761D01*
X54817Y45784D01*
X54854Y45804D01*
X54892Y45822D01*
X54931Y45836D01*
X54972Y45848D01*
X55013Y45857D01*
X55055Y45863D01*
X55097Y45866D01*
X55139Y45866D01*
X55181Y45863D01*
X55223Y45857D01*
X55264Y45848D01*
X55305Y45836D01*
X55344Y45822D01*
X55383Y45804D01*
X55420Y45784D01*
X55455Y45761D01*
X55489Y45736D01*
X55521Y45708D01*
X55551Y45678D01*
X55578Y45646D01*
X55604Y45613D01*
X55626Y45577D01*
X55647Y45540D01*
X55664Y45502D01*
X55679Y45462D01*
X55691Y45422D01*
X55700Y45381D01*
X55706Y45339D01*
X55709Y45297D01*
X55709Y45254D01*
X11614Y45254D02*
X11611Y45212D01*
X11605Y45171D01*
X11596Y45129D01*
X11584Y45089D01*
X11570Y45049D01*
X11552Y45011D01*
X11532Y44974D01*
X11509Y44939D01*
X11484Y44905D01*
X11456Y44873D01*
X11426Y44843D01*
X11394Y44815D01*
X11361Y44790D01*
X11325Y44767D01*
X11288Y44747D01*
X11250Y44730D01*
X11210Y44715D01*
X11170Y44703D01*
X11129Y44694D01*
X11087Y44688D01*
X11045Y44685D01*
X11003Y44685D01*
X10960Y44688D01*
X10919Y44694D01*
X10877Y44703D01*
X10837Y44715D01*
X10797Y44730D01*
X10759Y44747D01*
X10722Y44767D01*
X10687Y44790D01*
X10653Y44815D01*
X10621Y44843D01*
X10591Y44873D01*
X10564Y44905D01*
X10538Y44939D01*
X10515Y44974D01*
X10495Y45011D01*
X10478Y45049D01*
X10463Y45089D01*
X10451Y45129D01*
X10442Y45171D01*
X10436Y45212D01*
X10433Y45254D01*
X10433Y45297D01*
X10436Y45339D01*
X10442Y45381D01*
X10451Y45422D01*
X10463Y45462D01*
X10478Y45502D01*
X10495Y45540D01*
X10515Y45577D01*
X10538Y45613D01*
X10564Y45646D01*
X10591Y45678D01*
X10621Y45708D01*
X10653Y45736D01*
X10687Y45761D01*
X10722Y45784D01*
X10759Y45804D01*
X10797Y45822D01*
X10837Y45836D01*
X10877Y45848D01*
X10919Y45857D01*
X10960Y45863D01*
X11003Y45866D01*
X11045Y45866D01*
X11087Y45863D01*
X11129Y45857D01*
X11170Y45848D01*
X11210Y45836D01*
X11250Y45822D01*
X11288Y45804D01*
X11325Y45784D01*
X11361Y45761D01*
X11394Y45736D01*
X11426Y45708D01*
X11456Y45678D01*
X11484Y45646D01*
X11509Y45613D01*
X11532Y45577D01*
X11552Y45540D01*
X11570Y45502D01*
X11584Y45462D01*
X11596Y45422D01*
X11605Y45381D01*
X11611Y45339D01*
X11614Y45297D01*
X11614Y45254D01*
M02*
