G04 EAGLE Gerber RS-274X export*
G75*
%MOIN*%
%FSLAX34Y34*%
%LPD*%
%INSoldermask Bottom*%
%IPPOS*%
%AMOC8*
5,1,8,0,0,1.08239X$1,22.5*%
G01*
%ADD10C,0.149610*%
%ADD11R,0.137799X0.137799*%
%ADD12C,0.097051*%
%ADD13C,0.105500*%
%ADD14C,0.091500*%
%ADD15C,0.189610*%
%ADD16R,0.121500X0.121500*%
%ADD17C,0.067185*%


D10*
X1969Y59055D03*
X59055Y59055D03*
X1969Y1969D03*
X59055Y1969D03*
X55118Y25984D03*
X11024Y25984D03*
X55118Y45276D03*
X11024Y45276D03*
D11*
X3886Y26748D03*
X3886Y28402D03*
X44941Y31438D03*
X46594Y31438D03*
X18441Y31438D03*
X20094Y31438D03*
X3847Y35070D03*
X5501Y35070D03*
D12*
X41720Y56669D03*
X40720Y56669D03*
X39720Y56669D03*
X38720Y56669D03*
X37720Y56669D03*
X36720Y56669D03*
X35720Y56669D03*
X34720Y56669D03*
X33720Y56669D03*
X32720Y56669D03*
X31720Y56669D03*
X30720Y56669D03*
X30720Y50669D03*
X31720Y50669D03*
X32720Y50669D03*
X33720Y50669D03*
X34720Y50669D03*
X35720Y50669D03*
X36720Y50669D03*
X37720Y50669D03*
X38720Y50669D03*
X39720Y50669D03*
X40720Y50669D03*
X28720Y56669D03*
X27720Y56669D03*
X26720Y56669D03*
X25720Y56669D03*
X24720Y56669D03*
X23720Y56669D03*
X22720Y56669D03*
X21720Y56669D03*
X20720Y56669D03*
X20720Y50669D03*
X21720Y50669D03*
X22720Y50669D03*
X23720Y50669D03*
X24720Y50669D03*
X25720Y50669D03*
X26720Y50669D03*
X27720Y50669D03*
X28720Y50669D03*
X29720Y56669D03*
X25720Y55669D03*
X25720Y54669D03*
X25720Y53669D03*
X25720Y52669D03*
X25720Y51669D03*
X37220Y55469D03*
X38220Y55469D03*
X39220Y55469D03*
X40220Y55469D03*
X41220Y55469D03*
X41720Y50669D03*
X43720Y50669D03*
X42720Y56669D03*
X42720Y51669D03*
X29720Y50669D03*
X42720Y50669D03*
X43720Y56669D03*
D13*
X55927Y9347D03*
X55927Y10347D03*
X55927Y11347D03*
X55927Y12347D03*
X55927Y13347D03*
X55927Y14347D03*
X55927Y16347D03*
X55927Y17347D03*
X55927Y18347D03*
X55927Y19347D03*
X55927Y20347D03*
X55927Y21347D03*
X36927Y21347D03*
X36927Y20347D03*
X36927Y19347D03*
X36927Y18347D03*
X36927Y17347D03*
X36927Y16347D03*
X36927Y15347D03*
X36927Y14347D03*
X36927Y12847D03*
X36927Y11847D03*
X36927Y10847D03*
X36927Y9847D03*
X36927Y8847D03*
X36927Y7847D03*
X36927Y6847D03*
X36927Y5847D03*
X36927Y4847D03*
X36927Y3847D03*
X55927Y8347D03*
X55927Y7347D03*
X29427Y9347D03*
X29427Y10347D03*
X29427Y11347D03*
X29427Y12347D03*
X29427Y13347D03*
X29427Y14347D03*
X29427Y16347D03*
X29427Y17347D03*
X29427Y18347D03*
X29427Y19347D03*
X29427Y20347D03*
X29427Y21347D03*
X10427Y21347D03*
X10427Y20347D03*
X10427Y19347D03*
X10427Y18347D03*
X10427Y17347D03*
X10427Y16347D03*
X10427Y15347D03*
X10427Y14347D03*
X10427Y12847D03*
X10427Y11847D03*
X10427Y10847D03*
X10427Y9847D03*
X10427Y8847D03*
X10427Y7847D03*
X10427Y6847D03*
X10427Y5847D03*
X10427Y4847D03*
X10427Y3847D03*
X29427Y8347D03*
X29427Y7347D03*
D11*
X51941Y31438D03*
X53594Y31438D03*
X37941Y31438D03*
X39594Y31438D03*
X24941Y31438D03*
X26594Y31438D03*
X11941Y31438D03*
X13594Y31438D03*
D14*
X3343Y5356D02*
X3343Y4756D01*
X4343Y4756D02*
X4343Y5356D01*
X55311Y56333D02*
X55311Y56933D01*
X56311Y56933D02*
X56311Y56333D01*
X3343Y23077D02*
X3343Y22477D01*
X4343Y22477D02*
X4343Y23077D01*
D15*
X13942Y38080D03*
X11580Y38080D03*
X23815Y38080D03*
X21453Y38080D03*
X45167Y37292D03*
X42804Y37292D03*
X53945Y37292D03*
X51583Y37292D03*
D16*
X6157Y49165D03*
X12157Y49165D03*
X6181Y55031D03*
X12181Y55031D03*
D14*
X31075Y36198D02*
X31075Y35598D01*
X32075Y35598D02*
X32075Y36198D01*
X33075Y36198D02*
X33075Y35598D01*
X34075Y35598D02*
X34075Y36198D01*
X31075Y37511D02*
X31075Y38111D01*
X32075Y38111D02*
X32075Y37511D01*
X33075Y37511D02*
X33075Y38111D01*
X34075Y38111D02*
X34075Y37511D01*
X31028Y39472D02*
X31028Y40072D01*
X32028Y40072D02*
X32028Y39472D01*
X33028Y39472D02*
X33028Y40072D01*
X34028Y40072D02*
X34028Y39472D01*
X31028Y41361D02*
X31028Y41961D01*
X32028Y41961D02*
X32028Y41361D01*
X33028Y41361D02*
X33028Y41961D01*
X34028Y41961D02*
X34028Y41361D01*
X31528Y33702D02*
X31528Y33102D01*
X32528Y33102D02*
X32528Y33702D01*
X33528Y33702D02*
X33528Y33102D01*
X31504Y31646D02*
X31504Y31046D01*
X32504Y31046D02*
X32504Y31646D01*
X33504Y31646D02*
X33504Y31046D01*
D17*
X50291Y30118D03*
X46063Y50598D03*
X39951Y17102D03*
X44976Y27071D03*
X31984Y27945D03*
X40677Y42378D03*
X27165Y58819D03*
X25465Y58559D03*
X33472Y13134D03*
X31583Y15047D03*
X25394Y60260D03*
X40465Y27118D03*
X35362Y16157D03*
X38504Y12378D03*
X38504Y13143D03*
X29858Y24449D03*
X23622Y59858D03*
X36661Y44528D03*
X33331Y46323D03*
X27898Y47693D03*
X33189Y44551D03*
X32740Y45094D03*
M02*
