G04 EAGLE Gerber RS-274X export*
G75*
%MOIN*%
%FSLAX34Y34*%
%LPD*%
%INteensy_robocol_2022*%
%IPPOS*%
%AMOC8*
5,1,8,0,0,1.08239X$1,22.5*%
G01*
%ADD10R,0.106299X0.106299*%
%ADD11C,0.065551*%
%ADD12P,0.064943X8X292.500000*%
%ADD13C,0.074000*%
%ADD14P,0.060614X8X202.500000*%
%ADD15C,0.010000*%
%ADD16C,0.035685*%
%ADD17C,0.070000*%
%ADD18C,0.007874*%
%ADD19C,0.006000*%
%ADD20C,0.010000*%


D10*
X71173Y8500D03*
X72827Y8500D03*
X57173Y45382D03*
X58827Y45382D03*
X30673Y46169D03*
X32327Y46169D03*
X38913Y8500D03*
X40567Y8500D03*
X58087Y8500D03*
X59740Y8500D03*
D11*
X55894Y62969D03*
X54894Y62969D03*
X53894Y62969D03*
X52894Y62969D03*
X51894Y62969D03*
X50894Y62969D03*
X49894Y62969D03*
X48894Y62969D03*
X47894Y62969D03*
X46894Y62969D03*
X45894Y62969D03*
X44894Y62969D03*
X44894Y56969D03*
X45894Y56969D03*
X46894Y56969D03*
X47894Y56969D03*
X48894Y56969D03*
X49894Y56969D03*
X50894Y56969D03*
X51894Y56969D03*
X52894Y56969D03*
X53894Y56969D03*
X54894Y56969D03*
X42894Y62969D03*
X41894Y62969D03*
X40894Y62969D03*
X39894Y62969D03*
X38894Y62969D03*
X37894Y62969D03*
X36894Y62969D03*
X35894Y62969D03*
X34894Y62969D03*
X34894Y56969D03*
X35894Y56969D03*
X36894Y56969D03*
X37894Y56969D03*
X38894Y56969D03*
X39894Y56969D03*
X40894Y56969D03*
X41894Y56969D03*
X42894Y56969D03*
X43894Y62969D03*
X39894Y61969D03*
X39894Y60969D03*
X39894Y59969D03*
X39894Y58969D03*
X39894Y57969D03*
X51394Y61768D03*
X52394Y61768D03*
X53394Y61768D03*
X54394Y61768D03*
X55394Y61768D03*
X55894Y56969D03*
X57894Y56969D03*
X56894Y62969D03*
X56894Y57969D03*
X43894Y56969D03*
X56894Y56969D03*
X57894Y62969D03*
D12*
X5000Y35031D03*
X6000Y35031D03*
X5000Y34031D03*
X6000Y34031D03*
X5000Y33031D03*
X6000Y33031D03*
X5000Y32031D03*
X6000Y32031D03*
X5000Y31031D03*
X6000Y31031D03*
X5000Y30031D03*
X6000Y30031D03*
X5000Y29031D03*
X6000Y29031D03*
X5000Y28031D03*
X6000Y28031D03*
X5000Y27031D03*
X6000Y27031D03*
X5000Y26031D03*
X6000Y26031D03*
X5000Y25031D03*
X6000Y25031D03*
X5000Y24031D03*
X6000Y24031D03*
X5000Y23031D03*
X6000Y23031D03*
X5000Y22031D03*
X6000Y22031D03*
X5000Y21031D03*
X6000Y21031D03*
X5000Y20031D03*
X6000Y20031D03*
X5000Y19031D03*
X6000Y19031D03*
X5000Y18031D03*
X6000Y18031D03*
X5000Y17031D03*
X6000Y17031D03*
X5000Y16031D03*
X6000Y16031D03*
X12409Y35035D03*
X13409Y35035D03*
X12409Y34035D03*
X13409Y34035D03*
X12409Y33035D03*
X13409Y33035D03*
X12409Y32035D03*
X13409Y32035D03*
X12409Y31035D03*
X13409Y31035D03*
X12409Y30035D03*
X13409Y30035D03*
X12409Y29035D03*
X13409Y29035D03*
X12409Y28035D03*
X13409Y28035D03*
X12409Y27035D03*
X13409Y27035D03*
X12409Y26035D03*
X13409Y26035D03*
X12409Y25035D03*
X13409Y25035D03*
X12409Y24035D03*
X13409Y24035D03*
X12409Y23035D03*
X13409Y23035D03*
X12409Y22035D03*
X13409Y22035D03*
X12409Y21035D03*
X13409Y21035D03*
X12409Y20035D03*
X13409Y20035D03*
X12409Y19035D03*
X13409Y19035D03*
X12409Y18035D03*
X13409Y18035D03*
X12409Y17035D03*
X13409Y17035D03*
X12409Y16035D03*
X13409Y16035D03*
D13*
X68000Y25531D03*
X68000Y26531D03*
X68000Y27531D03*
X68000Y28531D03*
X68000Y29531D03*
X68000Y30531D03*
X68000Y32531D03*
X68000Y33531D03*
X68000Y34531D03*
X68000Y35531D03*
X68000Y36531D03*
X68000Y37531D03*
X49000Y37531D03*
X49000Y36531D03*
X49000Y35531D03*
X49000Y34531D03*
X49000Y33531D03*
X49000Y32531D03*
X49000Y31531D03*
X49000Y30531D03*
X49000Y29031D03*
X49000Y28031D03*
X49000Y27031D03*
X49000Y26031D03*
X49000Y25031D03*
X49000Y24031D03*
X49000Y23031D03*
X49000Y22031D03*
X49000Y21031D03*
X49000Y20031D03*
X68000Y24531D03*
X68000Y23531D03*
X41500Y25531D03*
X41500Y26531D03*
X41500Y27531D03*
X41500Y28531D03*
X41500Y29531D03*
X41500Y30531D03*
X41500Y32531D03*
X41500Y33531D03*
X41500Y34531D03*
X41500Y35531D03*
X41500Y36531D03*
X41500Y37531D03*
X22500Y37531D03*
X22500Y36531D03*
X22500Y35531D03*
X22500Y34531D03*
X22500Y33531D03*
X22500Y32531D03*
X22500Y31531D03*
X22500Y30531D03*
X22500Y29031D03*
X22500Y28031D03*
X22500Y27031D03*
X22500Y26031D03*
X22500Y25031D03*
X22500Y24031D03*
X22500Y23031D03*
X22500Y22031D03*
X22500Y21031D03*
X22500Y20031D03*
X41500Y24531D03*
X41500Y23531D03*
D10*
X64173Y44988D03*
X65827Y44988D03*
X50173Y45382D03*
X51827Y45382D03*
X37173Y46169D03*
X38827Y46169D03*
X24173Y46169D03*
X25827Y46169D03*
X73000Y61299D03*
X73000Y62953D03*
X10669Y65236D03*
X10669Y66890D03*
X22850Y8500D03*
X24504Y8500D03*
D14*
X12476Y8551D03*
X12476Y7551D03*
X11476Y8551D03*
X11476Y7551D03*
X10476Y8551D03*
X10476Y7551D03*
X9476Y7551D03*
X9476Y8551D03*
D10*
X10236Y57835D03*
X10236Y59488D03*
X16929Y59016D03*
X16929Y60669D03*
X5906Y46024D03*
X5906Y47677D03*
X5906Y51535D03*
X5906Y53189D03*
X70866Y55945D03*
X70866Y54291D03*
X70472Y50433D03*
X70472Y48780D03*
D15*
X75899Y53823D02*
X72563Y57159D01*
X75899Y53823D02*
X75899Y8899D01*
X74000Y7000D01*
X60500Y7000D01*
X59740Y7760D01*
X59740Y8500D01*
X67454Y57159D02*
X72563Y57159D01*
D16*
X67454Y57159D03*
D15*
X41500Y30531D02*
X42000Y30031D01*
X42705Y30031D01*
X42705Y29879D02*
X67348Y29879D01*
X68000Y30531D01*
X42705Y30031D02*
X42705Y29879D01*
X42705Y11705D01*
X40500Y9500D01*
X40500Y8567D01*
X40567Y8500D01*
D17*
X72827Y8500D02*
X72827Y37768D01*
X68000Y42594D01*
X63000Y42594D01*
D16*
X63000Y42594D03*
D15*
X11476Y7551D02*
X11449Y7551D01*
X10976Y8024D01*
D18*
X10976Y17507D01*
X11504Y18035D01*
X12409Y18035D01*
X12910Y18534D02*
X13409Y18035D01*
X12910Y18534D02*
X6503Y18534D01*
X6000Y18031D01*
X13409Y18035D02*
X13496Y18035D01*
X14500Y17031D01*
X14500Y10000D01*
D15*
X14000Y9500D01*
X12000Y9500D01*
X11476Y8976D01*
X11476Y8551D01*
D18*
X6000Y29031D02*
X6507Y29538D01*
X12993Y29538D01*
X13409Y29122D01*
X13409Y29035D01*
X6502Y26533D02*
X6000Y26031D01*
X6502Y26533D02*
X12998Y26533D01*
X13409Y26122D01*
X13409Y26035D01*
X6504Y21535D02*
X6000Y21031D01*
X6504Y21535D02*
X12996Y21535D01*
X13409Y21122D01*
X13409Y21035D01*
X6504Y19535D02*
X6000Y19031D01*
X6504Y19535D02*
X12996Y19535D01*
X13409Y19122D01*
X13409Y19035D01*
D19*
X56894Y56969D02*
X56901Y56961D01*
X57480Y56382D01*
X57480Y45689D02*
X57173Y45382D01*
X57480Y45689D02*
X57480Y56382D01*
X57639Y62714D02*
X57894Y62969D01*
D15*
X57639Y62714D02*
X56010Y61085D01*
X56010Y57710D01*
X56759Y56961D01*
X56901Y56961D01*
X56010Y57710D02*
X55804Y57504D01*
X44137Y56969D02*
X43894Y56969D01*
X44137Y56969D02*
X44672Y57504D01*
X55804Y57504D01*
D18*
X5000Y35031D02*
X4000Y35031D01*
X3500Y34531D01*
X3500Y9000D01*
D15*
X4000Y8500D01*
X9425Y8500D01*
X9476Y8551D01*
D18*
X5000Y32031D02*
X5500Y32531D01*
X12000Y32531D01*
X12409Y32122D01*
X12409Y32035D01*
X12908Y20536D02*
X13409Y20035D01*
X12908Y20536D02*
X6505Y20536D01*
X6000Y20031D01*
X12906Y22538D02*
X13409Y22035D01*
X12906Y22538D02*
X6507Y22538D01*
X6000Y22031D01*
X12908Y23536D02*
X13409Y23035D01*
X12908Y23536D02*
X6505Y23536D01*
X6000Y23031D01*
X12911Y24533D02*
X13409Y24035D01*
X12911Y24533D02*
X6502Y24533D01*
X6000Y24031D01*
X13000Y25445D02*
X13409Y25035D01*
X13000Y25445D02*
X13000Y25533D01*
X6502Y25533D01*
X6000Y25031D01*
X12908Y27536D02*
X13409Y27035D01*
X12908Y27536D02*
X6505Y27536D01*
X6000Y27031D01*
X12911Y28533D02*
X13409Y28035D01*
X12911Y28533D02*
X6502Y28533D01*
X6000Y28031D01*
X12907Y30537D02*
X13409Y30035D01*
X12907Y30537D02*
X6506Y30537D01*
X6000Y30031D01*
X12909Y31535D02*
X13409Y31035D01*
X12909Y31535D02*
X6504Y31535D01*
X6000Y31031D01*
X12848Y35596D02*
X13409Y35035D01*
X12848Y35596D02*
X6565Y35596D01*
X6000Y35031D01*
D15*
X54894Y62969D02*
X55894Y63969D01*
X59394Y63969D01*
X59894Y63469D01*
X59894Y38925D02*
X56500Y35531D01*
X49000Y35531D01*
X59894Y38925D02*
X59894Y63469D01*
X52894Y63469D02*
X52894Y62969D01*
X52894Y63469D02*
X53894Y64469D01*
X59894Y64469D01*
X60894Y63469D01*
X60894Y38425D01*
X56000Y33531D01*
X49000Y33531D01*
X50894Y62334D02*
X50894Y62969D01*
X50894Y62334D02*
X50550Y61990D01*
X50550Y60970D01*
X50910Y60610D02*
X55120Y60610D01*
D16*
X55120Y60610D03*
X69180Y58920D03*
D15*
X70100Y58000D01*
X72460Y58000D02*
X73410Y57050D01*
D16*
X73410Y57050D03*
D15*
X50910Y60610D02*
X50550Y60970D01*
X70100Y58000D02*
X72460Y58000D01*
X49894Y62969D02*
X49894Y63469D01*
X51394Y64969D01*
X60894Y64969D01*
X61894Y63969D01*
X61894Y37925D01*
X54500Y30531D01*
X49000Y30531D01*
X26966Y31531D02*
X22500Y31531D01*
X26966Y31531D02*
X38754Y43320D01*
D16*
X38754Y43320D03*
X42560Y40090D03*
D15*
X47880Y45410D01*
X47880Y49400D01*
X54894Y56414D01*
X54894Y56969D01*
X22000Y35531D02*
X21894Y35638D01*
X22000Y35531D02*
X22500Y35531D01*
X21894Y58514D02*
X26060Y62680D01*
D16*
X26060Y62680D03*
D15*
X21894Y58514D02*
X21894Y35638D01*
X41894Y62969D02*
X38670Y66192D01*
X27086Y66192D01*
X20500Y59606D01*
X20500Y31531D01*
X21500Y30531D01*
X22500Y30531D01*
X40894Y62969D02*
X38424Y65439D01*
X27142Y65439D01*
X21014Y59310D01*
X21014Y34518D01*
X22000Y33531D01*
X22500Y33531D01*
X47894Y55969D02*
X47894Y56969D01*
X47894Y55969D02*
X47394Y55469D01*
X44362Y55469D01*
X40380Y51486D01*
X40380Y33151D01*
X41000Y32531D01*
X41500Y32531D01*
X40880Y33841D02*
X40880Y50984D01*
X40880Y33841D02*
X41190Y33531D01*
X41500Y33531D01*
X44016Y54120D02*
X47280Y54120D01*
X48894Y55734D01*
X48894Y56969D01*
X44016Y54120D02*
X40880Y50984D01*
D17*
X24000Y10500D02*
X21000Y10500D01*
X24000Y10500D02*
X24504Y9996D01*
X24504Y8500D01*
X16535Y14965D02*
X16535Y38583D01*
X12598Y42520D01*
X3937Y42520D01*
X2756Y43701D01*
X2756Y66142D02*
X5512Y68898D01*
X16929Y68898D01*
X18898Y66929D01*
X16535Y14965D02*
X21000Y10500D01*
X2756Y43701D02*
X2756Y66142D01*
X10669Y66890D02*
X18898Y66890D01*
X18898Y66929D01*
X19090Y66890D02*
X19120Y66920D01*
D16*
X19120Y66920D03*
D17*
X19090Y66890D02*
X18898Y66890D01*
D18*
X15500Y33031D02*
X15500Y8575D01*
D15*
X14476Y7551D01*
X12476Y7551D01*
D18*
X5000Y34031D02*
X5500Y34531D01*
X12000Y34531D01*
X12409Y34122D01*
X12409Y34035D01*
X12911Y33533D01*
X14998Y33533D01*
X15500Y33031D01*
X15000Y32031D02*
X15000Y9575D01*
D15*
X13976Y8551D01*
X12476Y8551D01*
D18*
X12409Y33035D02*
X11913Y33531D01*
X5500Y33531D01*
X5000Y33031D01*
X12409Y33035D02*
X12910Y32534D01*
X14497Y32534D01*
X15000Y32031D01*
D17*
X16929Y60669D02*
X11417Y60669D01*
X10236Y59488D01*
X37173Y49835D02*
X37173Y46169D01*
X37173Y49835D02*
X35433Y51575D01*
X23622Y51575D01*
D16*
X23622Y51575D03*
D17*
X38827Y50543D02*
X38827Y46169D01*
X38827Y50543D02*
X36220Y53150D01*
X23228Y53150D01*
D16*
X23228Y53150D03*
D17*
X64173Y45669D02*
X64173Y44988D01*
X64173Y45669D02*
X64961Y46457D01*
X68110Y46457D01*
X68504Y46850D01*
X68504Y49606D01*
X69331Y50433D01*
X70472Y50433D01*
X69791Y44988D02*
X65827Y44988D01*
X69791Y44988D02*
X70472Y45669D01*
X70472Y48780D01*
D15*
X24611Y28031D02*
X22500Y28031D01*
X24611Y28031D02*
X39140Y42560D01*
D16*
X39140Y42560D03*
X62890Y61750D03*
D15*
X63270Y61370D01*
X63270Y55670D02*
X62890Y55290D01*
D16*
X62890Y55290D03*
D15*
X63270Y55670D02*
X63270Y61370D01*
D16*
X75010Y56290D03*
D15*
X65940Y65360D01*
X50740Y65360D01*
X48894Y63514D01*
X48894Y62969D01*
D16*
X49930Y59263D03*
D15*
X49840Y59263D01*
X49536Y59567D01*
X49536Y60134D01*
X47894Y61776D02*
X47894Y62969D01*
X47894Y61776D02*
X49536Y60134D01*
D16*
X49150Y59640D03*
D15*
X46894Y60686D02*
X46894Y62969D01*
X47940Y59640D02*
X49150Y59640D01*
X47940Y59640D02*
X46894Y60686D01*
X44894Y56969D02*
X39710Y51785D01*
X39710Y33060D01*
X33681Y27031D01*
X22500Y27031D01*
X39894Y62969D02*
X38262Y64600D01*
X27170Y64600D01*
X21470Y58900D01*
D16*
X21470Y34770D03*
D15*
X21470Y58900D01*
D20*
X0Y0D02*
X78740Y0D01*
X78740Y70866D01*
X0Y70866D01*
X0Y0D01*
X2165Y69270D02*
X2162Y69228D01*
X2156Y69186D01*
X2147Y69145D01*
X2135Y69105D01*
X2121Y69065D01*
X2103Y69027D01*
X2083Y68990D01*
X2060Y68954D01*
X2035Y68921D01*
X2007Y68889D01*
X1977Y68859D01*
X1946Y68831D01*
X1912Y68806D01*
X1876Y68783D01*
X1839Y68763D01*
X1801Y68745D01*
X1761Y68731D01*
X1721Y68719D01*
X1680Y68710D01*
X1638Y68704D01*
X1596Y68701D01*
X1554Y68701D01*
X1512Y68704D01*
X1470Y68710D01*
X1429Y68719D01*
X1388Y68731D01*
X1349Y68745D01*
X1310Y68763D01*
X1273Y68783D01*
X1238Y68806D01*
X1204Y68831D01*
X1172Y68859D01*
X1142Y68889D01*
X1115Y68921D01*
X1089Y68954D01*
X1067Y68990D01*
X1046Y69027D01*
X1029Y69065D01*
X1014Y69105D01*
X1002Y69145D01*
X993Y69186D01*
X987Y69228D01*
X984Y69270D01*
X984Y69312D01*
X987Y69355D01*
X993Y69396D01*
X1002Y69437D01*
X1014Y69478D01*
X1029Y69517D01*
X1046Y69556D01*
X1067Y69593D01*
X1089Y69628D01*
X1115Y69662D01*
X1142Y69694D01*
X1172Y69724D01*
X1204Y69751D01*
X1238Y69777D01*
X1273Y69800D01*
X1310Y69820D01*
X1349Y69837D01*
X1388Y69852D01*
X1429Y69864D01*
X1470Y69873D01*
X1512Y69879D01*
X1554Y69882D01*
X1596Y69882D01*
X1638Y69879D01*
X1680Y69873D01*
X1721Y69864D01*
X1761Y69852D01*
X1801Y69837D01*
X1839Y69820D01*
X1876Y69800D01*
X1912Y69777D01*
X1946Y69751D01*
X1977Y69724D01*
X2007Y69694D01*
X2035Y69662D01*
X2060Y69628D01*
X2083Y69593D01*
X2103Y69556D01*
X2121Y69517D01*
X2135Y69478D01*
X2147Y69437D01*
X2156Y69396D01*
X2162Y69355D01*
X2165Y69312D01*
X2165Y69270D01*
X77756Y69270D02*
X77753Y69228D01*
X77747Y69186D01*
X77738Y69145D01*
X77726Y69105D01*
X77711Y69065D01*
X77694Y69027D01*
X77674Y68990D01*
X77651Y68954D01*
X77625Y68921D01*
X77598Y68889D01*
X77568Y68859D01*
X77536Y68831D01*
X77502Y68806D01*
X77467Y68783D01*
X77430Y68763D01*
X77391Y68745D01*
X77352Y68731D01*
X77311Y68719D01*
X77270Y68710D01*
X77229Y68704D01*
X77186Y68701D01*
X77144Y68701D01*
X77102Y68704D01*
X77060Y68710D01*
X77019Y68719D01*
X76979Y68731D01*
X76939Y68745D01*
X76901Y68763D01*
X76864Y68783D01*
X76828Y68806D01*
X76795Y68831D01*
X76763Y68859D01*
X76733Y68889D01*
X76705Y68921D01*
X76680Y68954D01*
X76657Y68990D01*
X76637Y69027D01*
X76619Y69065D01*
X76605Y69105D01*
X76593Y69145D01*
X76584Y69186D01*
X76578Y69228D01*
X76575Y69270D01*
X76575Y69312D01*
X76578Y69355D01*
X76584Y69396D01*
X76593Y69437D01*
X76605Y69478D01*
X76619Y69517D01*
X76637Y69556D01*
X76657Y69593D01*
X76680Y69628D01*
X76705Y69662D01*
X76733Y69694D01*
X76763Y69724D01*
X76795Y69751D01*
X76828Y69777D01*
X76864Y69800D01*
X76901Y69820D01*
X76939Y69837D01*
X76979Y69852D01*
X77019Y69864D01*
X77060Y69873D01*
X77102Y69879D01*
X77144Y69882D01*
X77186Y69882D01*
X77229Y69879D01*
X77270Y69873D01*
X77311Y69864D01*
X77352Y69852D01*
X77391Y69837D01*
X77430Y69820D01*
X77467Y69800D01*
X77502Y69777D01*
X77536Y69751D01*
X77568Y69724D01*
X77598Y69694D01*
X77625Y69662D01*
X77651Y69628D01*
X77674Y69593D01*
X77694Y69556D01*
X77711Y69517D01*
X77726Y69478D01*
X77738Y69437D01*
X77747Y69396D01*
X77753Y69355D01*
X77756Y69312D01*
X77756Y69270D01*
X2165Y1554D02*
X2162Y1512D01*
X2156Y1470D01*
X2147Y1429D01*
X2135Y1388D01*
X2121Y1349D01*
X2103Y1310D01*
X2083Y1273D01*
X2060Y1238D01*
X2035Y1204D01*
X2007Y1172D01*
X1977Y1142D01*
X1946Y1115D01*
X1912Y1089D01*
X1876Y1067D01*
X1839Y1046D01*
X1801Y1029D01*
X1761Y1014D01*
X1721Y1002D01*
X1680Y993D01*
X1638Y987D01*
X1596Y984D01*
X1554Y984D01*
X1512Y987D01*
X1470Y993D01*
X1429Y1002D01*
X1388Y1014D01*
X1349Y1029D01*
X1310Y1046D01*
X1273Y1067D01*
X1238Y1089D01*
X1204Y1115D01*
X1172Y1142D01*
X1142Y1172D01*
X1115Y1204D01*
X1089Y1238D01*
X1067Y1273D01*
X1046Y1310D01*
X1029Y1349D01*
X1014Y1388D01*
X1002Y1429D01*
X993Y1470D01*
X987Y1512D01*
X984Y1554D01*
X984Y1596D01*
X987Y1638D01*
X993Y1680D01*
X1002Y1721D01*
X1014Y1761D01*
X1029Y1801D01*
X1046Y1839D01*
X1067Y1876D01*
X1089Y1912D01*
X1115Y1946D01*
X1142Y1977D01*
X1172Y2007D01*
X1204Y2035D01*
X1238Y2060D01*
X1273Y2083D01*
X1310Y2103D01*
X1349Y2121D01*
X1388Y2135D01*
X1429Y2147D01*
X1470Y2156D01*
X1512Y2162D01*
X1554Y2165D01*
X1596Y2165D01*
X1638Y2162D01*
X1680Y2156D01*
X1721Y2147D01*
X1761Y2135D01*
X1801Y2121D01*
X1839Y2103D01*
X1876Y2083D01*
X1912Y2060D01*
X1946Y2035D01*
X1977Y2007D01*
X2007Y1977D01*
X2035Y1946D01*
X2060Y1912D01*
X2083Y1876D01*
X2103Y1839D01*
X2121Y1801D01*
X2135Y1761D01*
X2147Y1721D01*
X2156Y1680D01*
X2162Y1638D01*
X2165Y1596D01*
X2165Y1554D01*
X77756Y1554D02*
X77753Y1512D01*
X77747Y1470D01*
X77738Y1429D01*
X77726Y1388D01*
X77711Y1349D01*
X77694Y1310D01*
X77674Y1273D01*
X77651Y1238D01*
X77625Y1204D01*
X77598Y1172D01*
X77568Y1142D01*
X77536Y1115D01*
X77502Y1089D01*
X77467Y1067D01*
X77430Y1046D01*
X77391Y1029D01*
X77352Y1014D01*
X77311Y1002D01*
X77270Y993D01*
X77229Y987D01*
X77186Y984D01*
X77144Y984D01*
X77102Y987D01*
X77060Y993D01*
X77019Y1002D01*
X76979Y1014D01*
X76939Y1029D01*
X76901Y1046D01*
X76864Y1067D01*
X76828Y1089D01*
X76795Y1115D01*
X76763Y1142D01*
X76733Y1172D01*
X76705Y1204D01*
X76680Y1238D01*
X76657Y1273D01*
X76637Y1310D01*
X76619Y1349D01*
X76605Y1388D01*
X76593Y1429D01*
X76584Y1470D01*
X76578Y1512D01*
X76575Y1554D01*
X76575Y1596D01*
X76578Y1638D01*
X76584Y1680D01*
X76593Y1721D01*
X76605Y1761D01*
X76619Y1801D01*
X76637Y1839D01*
X76657Y1876D01*
X76680Y1912D01*
X76705Y1946D01*
X76733Y1977D01*
X76763Y2007D01*
X76795Y2035D01*
X76828Y2060D01*
X76864Y2083D01*
X76901Y2103D01*
X76939Y2121D01*
X76979Y2135D01*
X77019Y2147D01*
X77060Y2156D01*
X77102Y2162D01*
X77144Y2165D01*
X77186Y2165D01*
X77229Y2162D01*
X77270Y2156D01*
X77311Y2147D01*
X77352Y2135D01*
X77391Y2121D01*
X77430Y2103D01*
X77467Y2083D01*
X77502Y2060D01*
X77536Y2035D01*
X77568Y2007D01*
X77598Y1977D01*
X77625Y1946D01*
X77651Y1912D01*
X77674Y1876D01*
X77694Y1839D01*
X77711Y1801D01*
X77726Y1761D01*
X77738Y1721D01*
X77747Y1680D01*
X77753Y1638D01*
X77756Y1596D01*
X77756Y1554D01*
M02*
