G04 EAGLE Gerber RS-274X export*
G75*
%MOIN*%
%FSLAX34Y34*%
%LPD*%
%IN*%
%IPPOS*%
%AMOC8*
5,1,8,0,0,1.08239X$1,22.5*%
G01*
%ADD10C,0.010000*%


D10*
X0Y0D02*
X78740Y0D01*
X78740Y70866D01*
X0Y70866D01*
X0Y0D01*
X2165Y69270D02*
X2162Y69228D01*
X2156Y69186D01*
X2147Y69145D01*
X2135Y69105D01*
X2121Y69065D01*
X2103Y69027D01*
X2083Y68990D01*
X2060Y68954D01*
X2035Y68921D01*
X2007Y68889D01*
X1977Y68859D01*
X1946Y68831D01*
X1912Y68806D01*
X1876Y68783D01*
X1839Y68763D01*
X1801Y68745D01*
X1761Y68731D01*
X1721Y68719D01*
X1680Y68710D01*
X1638Y68704D01*
X1596Y68701D01*
X1554Y68701D01*
X1512Y68704D01*
X1470Y68710D01*
X1429Y68719D01*
X1388Y68731D01*
X1349Y68745D01*
X1310Y68763D01*
X1273Y68783D01*
X1238Y68806D01*
X1204Y68831D01*
X1172Y68859D01*
X1142Y68889D01*
X1115Y68921D01*
X1089Y68954D01*
X1067Y68990D01*
X1046Y69027D01*
X1029Y69065D01*
X1014Y69105D01*
X1002Y69145D01*
X993Y69186D01*
X987Y69228D01*
X984Y69270D01*
X984Y69312D01*
X987Y69355D01*
X993Y69396D01*
X1002Y69437D01*
X1014Y69478D01*
X1029Y69517D01*
X1046Y69556D01*
X1067Y69593D01*
X1089Y69628D01*
X1115Y69662D01*
X1142Y69694D01*
X1172Y69724D01*
X1204Y69751D01*
X1238Y69777D01*
X1273Y69800D01*
X1310Y69820D01*
X1349Y69837D01*
X1388Y69852D01*
X1429Y69864D01*
X1470Y69873D01*
X1512Y69879D01*
X1554Y69882D01*
X1596Y69882D01*
X1638Y69879D01*
X1680Y69873D01*
X1721Y69864D01*
X1761Y69852D01*
X1801Y69837D01*
X1839Y69820D01*
X1876Y69800D01*
X1912Y69777D01*
X1946Y69751D01*
X1977Y69724D01*
X2007Y69694D01*
X2035Y69662D01*
X2060Y69628D01*
X2083Y69593D01*
X2103Y69556D01*
X2121Y69517D01*
X2135Y69478D01*
X2147Y69437D01*
X2156Y69396D01*
X2162Y69355D01*
X2165Y69312D01*
X2165Y69270D01*
X77756Y69270D02*
X77753Y69228D01*
X77747Y69186D01*
X77738Y69145D01*
X77726Y69105D01*
X77711Y69065D01*
X77694Y69027D01*
X77674Y68990D01*
X77651Y68954D01*
X77625Y68921D01*
X77598Y68889D01*
X77568Y68859D01*
X77536Y68831D01*
X77502Y68806D01*
X77467Y68783D01*
X77430Y68763D01*
X77391Y68745D01*
X77352Y68731D01*
X77311Y68719D01*
X77270Y68710D01*
X77229Y68704D01*
X77186Y68701D01*
X77144Y68701D01*
X77102Y68704D01*
X77060Y68710D01*
X77019Y68719D01*
X76979Y68731D01*
X76939Y68745D01*
X76901Y68763D01*
X76864Y68783D01*
X76828Y68806D01*
X76795Y68831D01*
X76763Y68859D01*
X76733Y68889D01*
X76705Y68921D01*
X76680Y68954D01*
X76657Y68990D01*
X76637Y69027D01*
X76619Y69065D01*
X76605Y69105D01*
X76593Y69145D01*
X76584Y69186D01*
X76578Y69228D01*
X76575Y69270D01*
X76575Y69312D01*
X76578Y69355D01*
X76584Y69396D01*
X76593Y69437D01*
X76605Y69478D01*
X76619Y69517D01*
X76637Y69556D01*
X76657Y69593D01*
X76680Y69628D01*
X76705Y69662D01*
X76733Y69694D01*
X76763Y69724D01*
X76795Y69751D01*
X76828Y69777D01*
X76864Y69800D01*
X76901Y69820D01*
X76939Y69837D01*
X76979Y69852D01*
X77019Y69864D01*
X77060Y69873D01*
X77102Y69879D01*
X77144Y69882D01*
X77186Y69882D01*
X77229Y69879D01*
X77270Y69873D01*
X77311Y69864D01*
X77352Y69852D01*
X77391Y69837D01*
X77430Y69820D01*
X77467Y69800D01*
X77502Y69777D01*
X77536Y69751D01*
X77568Y69724D01*
X77598Y69694D01*
X77625Y69662D01*
X77651Y69628D01*
X77674Y69593D01*
X77694Y69556D01*
X77711Y69517D01*
X77726Y69478D01*
X77738Y69437D01*
X77747Y69396D01*
X77753Y69355D01*
X77756Y69312D01*
X77756Y69270D01*
X2165Y1554D02*
X2162Y1512D01*
X2156Y1470D01*
X2147Y1429D01*
X2135Y1388D01*
X2121Y1349D01*
X2103Y1310D01*
X2083Y1273D01*
X2060Y1238D01*
X2035Y1204D01*
X2007Y1172D01*
X1977Y1142D01*
X1946Y1115D01*
X1912Y1089D01*
X1876Y1067D01*
X1839Y1046D01*
X1801Y1029D01*
X1761Y1014D01*
X1721Y1002D01*
X1680Y993D01*
X1638Y987D01*
X1596Y984D01*
X1554Y984D01*
X1512Y987D01*
X1470Y993D01*
X1429Y1002D01*
X1388Y1014D01*
X1349Y1029D01*
X1310Y1046D01*
X1273Y1067D01*
X1238Y1089D01*
X1204Y1115D01*
X1172Y1142D01*
X1142Y1172D01*
X1115Y1204D01*
X1089Y1238D01*
X1067Y1273D01*
X1046Y1310D01*
X1029Y1349D01*
X1014Y1388D01*
X1002Y1429D01*
X993Y1470D01*
X987Y1512D01*
X984Y1554D01*
X984Y1596D01*
X987Y1638D01*
X993Y1680D01*
X1002Y1721D01*
X1014Y1761D01*
X1029Y1801D01*
X1046Y1839D01*
X1067Y1876D01*
X1089Y1912D01*
X1115Y1946D01*
X1142Y1977D01*
X1172Y2007D01*
X1204Y2035D01*
X1238Y2060D01*
X1273Y2083D01*
X1310Y2103D01*
X1349Y2121D01*
X1388Y2135D01*
X1429Y2147D01*
X1470Y2156D01*
X1512Y2162D01*
X1554Y2165D01*
X1596Y2165D01*
X1638Y2162D01*
X1680Y2156D01*
X1721Y2147D01*
X1761Y2135D01*
X1801Y2121D01*
X1839Y2103D01*
X1876Y2083D01*
X1912Y2060D01*
X1946Y2035D01*
X1977Y2007D01*
X2007Y1977D01*
X2035Y1946D01*
X2060Y1912D01*
X2083Y1876D01*
X2103Y1839D01*
X2121Y1801D01*
X2135Y1761D01*
X2147Y1721D01*
X2156Y1680D01*
X2162Y1638D01*
X2165Y1596D01*
X2165Y1554D01*
X77756Y1554D02*
X77753Y1512D01*
X77747Y1470D01*
X77738Y1429D01*
X77726Y1388D01*
X77711Y1349D01*
X77694Y1310D01*
X77674Y1273D01*
X77651Y1238D01*
X77625Y1204D01*
X77598Y1172D01*
X77568Y1142D01*
X77536Y1115D01*
X77502Y1089D01*
X77467Y1067D01*
X77430Y1046D01*
X77391Y1029D01*
X77352Y1014D01*
X77311Y1002D01*
X77270Y993D01*
X77229Y987D01*
X77186Y984D01*
X77144Y984D01*
X77102Y987D01*
X77060Y993D01*
X77019Y1002D01*
X76979Y1014D01*
X76939Y1029D01*
X76901Y1046D01*
X76864Y1067D01*
X76828Y1089D01*
X76795Y1115D01*
X76763Y1142D01*
X76733Y1172D01*
X76705Y1204D01*
X76680Y1238D01*
X76657Y1273D01*
X76637Y1310D01*
X76619Y1349D01*
X76605Y1388D01*
X76593Y1429D01*
X76584Y1470D01*
X76578Y1512D01*
X76575Y1554D01*
X76575Y1596D01*
X76578Y1638D01*
X76584Y1680D01*
X76593Y1721D01*
X76605Y1761D01*
X76619Y1801D01*
X76637Y1839D01*
X76657Y1876D01*
X76680Y1912D01*
X76705Y1946D01*
X76733Y1977D01*
X76763Y2007D01*
X76795Y2035D01*
X76828Y2060D01*
X76864Y2083D01*
X76901Y2103D01*
X76939Y2121D01*
X76979Y2135D01*
X77019Y2147D01*
X77060Y2156D01*
X77102Y2162D01*
X77144Y2165D01*
X77186Y2165D01*
X77229Y2162D01*
X77270Y2156D01*
X77311Y2147D01*
X77352Y2135D01*
X77391Y2121D01*
X77430Y2103D01*
X77467Y2083D01*
X77502Y2060D01*
X77536Y2035D01*
X77568Y2007D01*
X77598Y1977D01*
X77625Y1946D01*
X77651Y1912D01*
X77674Y1876D01*
X77694Y1839D01*
X77711Y1801D01*
X77726Y1761D01*
X77738Y1721D01*
X77747Y1680D01*
X77753Y1638D01*
X77756Y1596D01*
X77756Y1554D01*
M02*
