G04 EAGLE Gerber RS-274X export*
G75*
%MOIN*%
%FSLAX34Y34*%
%LPD*%
%INSilkscreen Top*%
%IPPOS*%
%AMOC8*
5,1,8,0,0,1.08239X$1,22.5*%
G01*
%ADD10C,0.010000*%
%ADD11C,0.004000*%
%ADD12C,0.007874*%
%ADD13C,0.007874*%
%ADD14C,0.006000*%
%ADD15C,0.005000*%


D10*
X73772Y9524D02*
X73772Y7476D01*
X71134Y7476D01*
X70701Y7476D02*
X70071Y7476D01*
X70071Y9524D01*
X73772Y9524D01*
X71134Y7476D02*
X71132Y7448D01*
X71127Y7420D01*
X71117Y7393D01*
X71105Y7367D01*
X71089Y7344D01*
X71070Y7323D01*
X71049Y7304D01*
X71026Y7288D01*
X71000Y7276D01*
X70973Y7266D01*
X70945Y7261D01*
X70917Y7259D01*
X70889Y7261D01*
X70861Y7266D01*
X70834Y7276D01*
X70809Y7288D01*
X70785Y7304D01*
X70764Y7323D01*
X70745Y7344D01*
X70729Y7368D01*
X70717Y7393D01*
X70707Y7420D01*
X70702Y7448D01*
X70700Y7476D01*
D11*
X74020Y6600D02*
X74022Y6620D01*
X74027Y6639D01*
X74035Y6658D01*
X74047Y6674D01*
X74061Y6688D01*
X74078Y6700D01*
X74096Y6708D01*
X74115Y6713D01*
X74135Y6715D01*
X74020Y6600D02*
X74022Y6577D01*
X74027Y6554D01*
X74036Y6533D01*
X74048Y6513D01*
X74063Y6495D01*
X74081Y6480D01*
X74101Y6468D01*
X74122Y6459D01*
X74225Y6677D02*
X74210Y6690D01*
X74193Y6701D01*
X74174Y6709D01*
X74155Y6713D01*
X74135Y6715D01*
X74224Y6677D02*
X74480Y6459D01*
X74480Y6715D01*
X74378Y6909D02*
X74020Y7012D01*
X74378Y6909D02*
X74378Y7165D01*
X74276Y7088D02*
X74480Y7088D01*
X74480Y7487D02*
X74020Y7334D01*
X74020Y7641D02*
X74480Y7487D01*
X74531Y7790D02*
X74531Y7994D01*
X74480Y8189D02*
X74020Y8189D01*
X74276Y8342D01*
X74020Y8496D01*
X74480Y8496D01*
X74480Y8724D02*
X74020Y8724D01*
X74020Y8852D01*
X74022Y8872D01*
X74026Y8892D01*
X74034Y8910D01*
X74044Y8927D01*
X74057Y8943D01*
X74073Y8956D01*
X74090Y8966D01*
X74108Y8974D01*
X74128Y8978D01*
X74148Y8980D01*
X74352Y8980D01*
X74372Y8978D01*
X74392Y8974D01*
X74410Y8966D01*
X74427Y8956D01*
X74443Y8943D01*
X74456Y8927D01*
X74466Y8910D01*
X74474Y8892D01*
X74478Y8872D01*
X74480Y8852D01*
X74480Y8724D01*
D10*
X59772Y44358D02*
X59772Y46406D01*
X59772Y44358D02*
X57134Y44358D01*
X56701Y44358D02*
X56071Y44358D01*
X56071Y46406D01*
X59772Y46406D01*
X57134Y44358D02*
X57132Y44330D01*
X57127Y44302D01*
X57117Y44275D01*
X57105Y44250D01*
X57089Y44226D01*
X57070Y44205D01*
X57049Y44186D01*
X57026Y44170D01*
X57000Y44158D01*
X56973Y44148D01*
X56945Y44143D01*
X56917Y44141D01*
X56889Y44143D01*
X56861Y44148D01*
X56834Y44158D01*
X56809Y44170D01*
X56785Y44186D01*
X56764Y44205D01*
X56745Y44226D01*
X56729Y44250D01*
X56717Y44275D01*
X56707Y44302D01*
X56702Y44330D01*
X56700Y44358D01*
D11*
X60020Y43149D02*
X60022Y43169D01*
X60027Y43188D01*
X60035Y43207D01*
X60047Y43223D01*
X60061Y43237D01*
X60078Y43249D01*
X60096Y43257D01*
X60115Y43262D01*
X60135Y43264D01*
X60020Y43149D02*
X60022Y43126D01*
X60027Y43103D01*
X60036Y43082D01*
X60048Y43062D01*
X60063Y43044D01*
X60081Y43029D01*
X60101Y43017D01*
X60122Y43008D01*
X60225Y43226D02*
X60210Y43239D01*
X60193Y43250D01*
X60174Y43258D01*
X60155Y43262D01*
X60135Y43264D01*
X60224Y43226D02*
X60480Y43008D01*
X60480Y43264D01*
X60378Y43458D02*
X60020Y43561D01*
X60378Y43458D02*
X60378Y43714D01*
X60276Y43637D02*
X60480Y43637D01*
X60480Y44036D02*
X60020Y43883D01*
X60020Y44190D02*
X60480Y44036D01*
X60531Y44339D02*
X60531Y44543D01*
X60480Y44733D02*
X60020Y44733D01*
X60020Y44861D01*
X60022Y44881D01*
X60026Y44901D01*
X60034Y44919D01*
X60044Y44936D01*
X60057Y44952D01*
X60073Y44965D01*
X60090Y44975D01*
X60108Y44983D01*
X60128Y44987D01*
X60148Y44989D01*
X60352Y44989D01*
X60372Y44987D01*
X60392Y44983D01*
X60410Y44975D01*
X60427Y44965D01*
X60443Y44952D01*
X60456Y44936D01*
X60466Y44919D01*
X60474Y44901D01*
X60478Y44881D01*
X60480Y44861D01*
X60480Y44733D01*
X60480Y45214D02*
X60480Y45419D01*
X60480Y45214D02*
X60020Y45214D01*
X60020Y45419D01*
X60224Y45368D02*
X60224Y45214D01*
X60020Y45606D02*
X60480Y45606D01*
X60020Y45606D02*
X60020Y45734D01*
X60022Y45755D01*
X60027Y45776D01*
X60035Y45795D01*
X60047Y45813D01*
X60061Y45828D01*
X60078Y45841D01*
X60097Y45851D01*
X60117Y45858D01*
X60137Y45862D01*
X60159Y45862D01*
X60179Y45858D01*
X60199Y45851D01*
X60218Y45841D01*
X60235Y45828D01*
X60249Y45813D01*
X60261Y45795D01*
X60269Y45776D01*
X60274Y45755D01*
X60276Y45734D01*
X60276Y45606D01*
X60276Y45760D02*
X60480Y45862D01*
D10*
X33272Y45146D02*
X33272Y47193D01*
X33272Y45146D02*
X30634Y45146D01*
X30201Y45146D02*
X29571Y45146D01*
X29571Y47193D01*
X33272Y47193D01*
X30634Y45146D02*
X30632Y45118D01*
X30627Y45090D01*
X30617Y45063D01*
X30605Y45038D01*
X30589Y45014D01*
X30570Y44993D01*
X30549Y44974D01*
X30526Y44958D01*
X30500Y44946D01*
X30473Y44936D01*
X30445Y44931D01*
X30417Y44929D01*
X30389Y44931D01*
X30361Y44936D01*
X30334Y44946D01*
X30309Y44958D01*
X30285Y44974D01*
X30264Y44993D01*
X30245Y45014D01*
X30229Y45038D01*
X30217Y45063D01*
X30207Y45090D01*
X30202Y45118D01*
X30200Y45146D01*
D11*
X33520Y44057D02*
X33522Y44077D01*
X33527Y44096D01*
X33535Y44115D01*
X33547Y44131D01*
X33561Y44145D01*
X33578Y44157D01*
X33596Y44165D01*
X33615Y44170D01*
X33635Y44172D01*
X33520Y44057D02*
X33522Y44034D01*
X33527Y44011D01*
X33536Y43990D01*
X33548Y43970D01*
X33563Y43952D01*
X33581Y43937D01*
X33601Y43925D01*
X33622Y43916D01*
X33725Y44134D02*
X33710Y44147D01*
X33693Y44158D01*
X33674Y44166D01*
X33655Y44170D01*
X33635Y44172D01*
X33724Y44134D02*
X33980Y43916D01*
X33980Y44172D01*
X33878Y44366D02*
X33520Y44469D01*
X33878Y44366D02*
X33878Y44622D01*
X33776Y44545D02*
X33980Y44545D01*
X33980Y44944D02*
X33520Y44791D01*
X33520Y45097D02*
X33980Y44944D01*
X34031Y45247D02*
X34031Y45451D01*
X33980Y45664D02*
X33520Y45664D01*
X33980Y45613D02*
X33980Y45715D01*
X33520Y45715D02*
X33520Y45613D01*
X33520Y45881D02*
X33520Y46137D01*
X33980Y45881D01*
X33980Y46137D01*
X33852Y46343D02*
X33648Y46343D01*
X33648Y46342D02*
X33627Y46344D01*
X33606Y46349D01*
X33587Y46357D01*
X33569Y46369D01*
X33554Y46383D01*
X33541Y46400D01*
X33531Y46419D01*
X33524Y46439D01*
X33520Y46459D01*
X33520Y46481D01*
X33524Y46501D01*
X33531Y46521D01*
X33541Y46540D01*
X33554Y46557D01*
X33569Y46571D01*
X33587Y46583D01*
X33606Y46591D01*
X33627Y46596D01*
X33648Y46598D01*
X33852Y46598D01*
X33873Y46596D01*
X33894Y46591D01*
X33913Y46583D01*
X33931Y46571D01*
X33946Y46557D01*
X33959Y46540D01*
X33969Y46521D01*
X33976Y46501D01*
X33980Y46481D01*
X33980Y46459D01*
X33976Y46439D01*
X33969Y46419D01*
X33959Y46400D01*
X33946Y46383D01*
X33931Y46369D01*
X33913Y46357D01*
X33894Y46349D01*
X33873Y46344D01*
X33852Y46342D01*
X33878Y46547D02*
X33980Y46649D01*
D10*
X41512Y9524D02*
X41512Y7476D01*
X38874Y7476D01*
X38441Y7476D02*
X37811Y7476D01*
X37811Y9524D01*
X41512Y9524D01*
X38874Y7476D02*
X38872Y7448D01*
X38867Y7420D01*
X38857Y7393D01*
X38845Y7367D01*
X38829Y7344D01*
X38810Y7323D01*
X38789Y7304D01*
X38766Y7288D01*
X38740Y7276D01*
X38713Y7266D01*
X38685Y7261D01*
X38657Y7259D01*
X38629Y7261D01*
X38601Y7266D01*
X38574Y7276D01*
X38549Y7288D01*
X38525Y7304D01*
X38504Y7323D01*
X38485Y7344D01*
X38469Y7368D01*
X38457Y7393D01*
X38447Y7420D01*
X38442Y7448D01*
X38440Y7476D01*
D11*
X42220Y6857D02*
X42220Y6729D01*
X42220Y6857D02*
X42218Y6878D01*
X42213Y6899D01*
X42205Y6918D01*
X42193Y6936D01*
X42179Y6951D01*
X42162Y6964D01*
X42143Y6974D01*
X42123Y6981D01*
X42103Y6985D01*
X42081Y6985D01*
X42061Y6981D01*
X42041Y6974D01*
X42022Y6964D01*
X42005Y6951D01*
X41991Y6936D01*
X41979Y6918D01*
X41971Y6899D01*
X41966Y6878D01*
X41964Y6857D01*
X41760Y6883D02*
X41760Y6729D01*
X41760Y6883D02*
X41762Y6902D01*
X41767Y6920D01*
X41775Y6937D01*
X41787Y6952D01*
X41801Y6964D01*
X41817Y6974D01*
X41834Y6981D01*
X41853Y6985D01*
X41871Y6985D01*
X41890Y6981D01*
X41907Y6974D01*
X41923Y6964D01*
X41937Y6952D01*
X41949Y6937D01*
X41957Y6920D01*
X41962Y6902D01*
X41964Y6883D01*
X41965Y6883D02*
X41965Y6781D01*
X42195Y7159D02*
X42220Y7159D01*
X42195Y7159D02*
X42195Y7185D01*
X42220Y7185D01*
X42220Y7159D01*
X42220Y7359D02*
X42220Y7487D01*
X42218Y7508D01*
X42213Y7529D01*
X42205Y7548D01*
X42193Y7566D01*
X42179Y7581D01*
X42162Y7594D01*
X42143Y7604D01*
X42123Y7611D01*
X42103Y7615D01*
X42081Y7615D01*
X42061Y7611D01*
X42041Y7604D01*
X42022Y7594D01*
X42005Y7581D01*
X41991Y7566D01*
X41979Y7548D01*
X41971Y7529D01*
X41966Y7508D01*
X41964Y7487D01*
X41760Y7513D02*
X41760Y7359D01*
X41760Y7513D02*
X41762Y7532D01*
X41767Y7550D01*
X41775Y7567D01*
X41787Y7582D01*
X41801Y7594D01*
X41817Y7604D01*
X41834Y7611D01*
X41853Y7615D01*
X41871Y7615D01*
X41890Y7611D01*
X41907Y7604D01*
X41923Y7594D01*
X41937Y7582D01*
X41949Y7567D01*
X41957Y7550D01*
X41962Y7532D01*
X41964Y7513D01*
X41965Y7513D02*
X41965Y7411D01*
X42271Y7790D02*
X42271Y7994D01*
X42220Y8189D02*
X41760Y8189D01*
X42016Y8342D01*
X41760Y8496D01*
X42220Y8496D01*
X42220Y8724D02*
X41760Y8724D01*
X41760Y8852D01*
X41762Y8872D01*
X41766Y8892D01*
X41774Y8910D01*
X41784Y8927D01*
X41797Y8943D01*
X41813Y8956D01*
X41830Y8966D01*
X41848Y8974D01*
X41868Y8978D01*
X41888Y8980D01*
X42092Y8980D01*
X42112Y8978D01*
X42132Y8974D01*
X42150Y8966D01*
X42167Y8956D01*
X42183Y8943D01*
X42196Y8927D01*
X42206Y8910D01*
X42214Y8892D01*
X42218Y8872D01*
X42220Y8852D01*
X42220Y8724D01*
D10*
X60685Y9524D02*
X60685Y7476D01*
X58047Y7476D01*
X57614Y7476D02*
X56984Y7476D01*
X56984Y9524D01*
X60685Y9524D01*
X58048Y7476D02*
X58046Y7448D01*
X58041Y7420D01*
X58031Y7393D01*
X58019Y7367D01*
X58003Y7344D01*
X57984Y7323D01*
X57963Y7304D01*
X57940Y7288D01*
X57914Y7276D01*
X57887Y7266D01*
X57859Y7261D01*
X57831Y7259D01*
X57803Y7261D01*
X57775Y7266D01*
X57748Y7276D01*
X57723Y7288D01*
X57699Y7304D01*
X57678Y7323D01*
X57659Y7344D01*
X57643Y7368D01*
X57631Y7393D01*
X57621Y7420D01*
X57616Y7448D01*
X57614Y7476D01*
D11*
X61393Y5522D02*
X61393Y5369D01*
X61393Y5522D02*
X61391Y5540D01*
X61387Y5557D01*
X61379Y5573D01*
X61369Y5588D01*
X61357Y5600D01*
X61342Y5610D01*
X61326Y5618D01*
X61309Y5622D01*
X61291Y5624D01*
X61240Y5624D01*
X61222Y5622D01*
X61205Y5618D01*
X61189Y5610D01*
X61174Y5600D01*
X61162Y5588D01*
X61152Y5573D01*
X61144Y5557D01*
X61140Y5540D01*
X61138Y5522D01*
X61138Y5369D01*
X60933Y5369D01*
X60933Y5624D01*
X60933Y5793D02*
X61393Y5947D01*
X60933Y6100D01*
X61444Y6249D02*
X61444Y6454D01*
X61393Y6727D02*
X60933Y6727D01*
X60933Y6854D02*
X60933Y6599D01*
X61393Y7035D02*
X61393Y7239D01*
X61393Y7035D02*
X60933Y7035D01*
X60933Y7239D01*
X61138Y7188D02*
X61138Y7035D01*
X61393Y7425D02*
X61393Y7629D01*
X61393Y7425D02*
X60933Y7425D01*
X60933Y7629D01*
X61138Y7578D02*
X61138Y7425D01*
X60933Y7814D02*
X61393Y7814D01*
X61393Y8069D02*
X60933Y7814D01*
X60933Y8069D02*
X61393Y8069D01*
X61393Y8417D02*
X61391Y8435D01*
X61387Y8452D01*
X61379Y8468D01*
X61369Y8483D01*
X61357Y8495D01*
X61342Y8505D01*
X61326Y8513D01*
X61309Y8517D01*
X61291Y8519D01*
X61393Y8417D02*
X61391Y8389D01*
X61386Y8361D01*
X61376Y8334D01*
X61364Y8308D01*
X61348Y8285D01*
X61329Y8264D01*
X61036Y8277D02*
X61018Y8279D01*
X61001Y8283D01*
X60985Y8291D01*
X60970Y8301D01*
X60958Y8313D01*
X60948Y8328D01*
X60940Y8344D01*
X60936Y8361D01*
X60934Y8379D01*
X60933Y8379D02*
X60935Y8404D01*
X60939Y8428D01*
X60947Y8451D01*
X60958Y8474D01*
X60971Y8494D01*
X61036Y8276D02*
X61054Y8278D01*
X61071Y8282D01*
X61088Y8290D01*
X61102Y8300D01*
X61115Y8313D01*
X61126Y8327D01*
X61201Y8469D02*
X61212Y8483D01*
X61225Y8496D01*
X61239Y8506D01*
X61256Y8514D01*
X61273Y8518D01*
X61291Y8520D01*
X61202Y8468D02*
X61125Y8328D01*
X60933Y8673D02*
X61151Y8827D01*
X60933Y8980D01*
X61151Y8827D02*
X61393Y8827D01*
D12*
X58394Y63469D02*
X34394Y63469D01*
X34394Y56469D01*
X58394Y56469D01*
X58394Y63469D01*
D13*
X55894Y63717D03*
D12*
X55892Y63725D01*
X55888Y63731D01*
X55882Y63735D01*
X55874Y63737D01*
X55866Y63735D01*
X55860Y63731D01*
X55856Y63725D01*
X55854Y63717D01*
D13*
X55854Y63717D03*
D12*
X55856Y63709D01*
X55860Y63703D01*
X55866Y63699D01*
X55874Y63697D01*
X55882Y63699D01*
X55888Y63703D01*
X55892Y63709D01*
X55894Y63717D01*
D13*
X55894Y63717D03*
D12*
X55892Y63725D01*
X55888Y63731D01*
X55882Y63735D01*
X55874Y63737D01*
X55866Y63735D01*
X55860Y63731D01*
X55856Y63725D01*
X55854Y63717D01*
D11*
X45988Y60199D02*
X45988Y59739D01*
X45937Y59739D02*
X46039Y59739D01*
X46039Y60199D02*
X45937Y60199D01*
X46321Y59739D02*
X46423Y59739D01*
X46321Y59739D02*
X46303Y59741D01*
X46286Y59745D01*
X46270Y59753D01*
X46255Y59763D01*
X46243Y59775D01*
X46233Y59790D01*
X46225Y59806D01*
X46221Y59823D01*
X46219Y59841D01*
X46219Y60096D01*
X46221Y60116D01*
X46227Y60135D01*
X46236Y60153D01*
X46249Y60168D01*
X46264Y60181D01*
X46282Y60190D01*
X46301Y60196D01*
X46321Y60198D01*
X46321Y60199D02*
X46423Y60199D01*
X46595Y60096D02*
X46723Y60199D01*
X46723Y59739D01*
X46595Y59739D02*
X46851Y59739D01*
D14*
X4750Y35531D02*
X4500Y35281D01*
X4500Y34781D01*
X4750Y34531D01*
X4500Y34281D01*
X4500Y33781D01*
X4750Y33531D01*
X4500Y33281D01*
X4500Y32781D01*
X4750Y32531D01*
X4500Y32281D01*
X4500Y31781D01*
X4750Y31531D01*
X4500Y31281D01*
X4500Y30781D01*
X4750Y30531D01*
X4500Y30281D01*
X4500Y29781D01*
X4750Y29531D01*
X4750Y35531D02*
X6250Y35531D01*
X6500Y35281D01*
X6500Y34781D01*
X6250Y34531D01*
X6500Y34281D01*
X6500Y33781D01*
X6250Y33531D01*
X6500Y33281D01*
X6500Y32781D01*
X6250Y32531D01*
X6500Y32281D01*
X6500Y31781D01*
X6250Y31531D01*
X6500Y31281D01*
X6500Y30781D01*
X6250Y30531D01*
X6500Y30281D01*
X6500Y29781D01*
X6250Y29531D01*
X6500Y29281D01*
X6500Y28781D01*
X6250Y28531D01*
X6500Y28281D01*
X6500Y27781D01*
X6250Y27531D01*
X6500Y27281D01*
X6500Y26781D01*
X6250Y26531D01*
X6500Y26281D01*
X6500Y25781D01*
X6250Y25531D01*
X6500Y25281D01*
X6500Y24781D01*
X6250Y24531D01*
X6500Y24281D01*
X6500Y23781D01*
X6250Y23531D01*
X6500Y23281D01*
X6500Y22781D01*
X6250Y22531D01*
X6500Y22281D01*
X6500Y21781D01*
X6250Y21531D01*
X6500Y21281D01*
X6500Y20781D01*
X6250Y20531D01*
X6500Y20281D01*
X6500Y19781D01*
X6250Y19531D01*
X6500Y19281D01*
X6500Y18781D01*
X6250Y18531D01*
X6500Y18281D01*
X6500Y17781D01*
X6250Y17531D01*
X6500Y17281D01*
X6500Y16781D01*
X6250Y16531D01*
X4750Y16531D02*
X4500Y16781D01*
X4500Y17281D01*
X4750Y17531D01*
X4500Y17781D01*
X4500Y18281D01*
X4750Y18531D01*
X4500Y18781D01*
X4500Y19281D01*
X4750Y19531D01*
X4500Y19781D01*
X4500Y20281D01*
X4750Y20531D01*
X4500Y20781D01*
X4500Y21281D01*
X4750Y21531D01*
X4500Y21781D01*
X4500Y22281D01*
X4750Y22531D01*
X4500Y22781D01*
X4500Y23281D01*
X4750Y23531D01*
X4500Y23781D01*
X4500Y24281D01*
X4750Y24531D01*
X4500Y24781D01*
X4500Y25281D01*
X4750Y25531D01*
X4500Y25781D01*
X4500Y26281D01*
X4750Y26531D01*
X4500Y26781D01*
X4500Y27281D01*
X4750Y27531D01*
X4500Y27781D01*
X4500Y28281D01*
X4750Y28531D01*
X4500Y28781D01*
X4500Y29281D01*
X4750Y29531D01*
X4750Y34531D02*
X6250Y34531D01*
X6250Y33531D02*
X4750Y33531D01*
X4750Y32531D02*
X6250Y32531D01*
X6250Y31531D02*
X4750Y31531D01*
X4750Y30531D02*
X6250Y30531D01*
X6250Y29531D02*
X4750Y29531D01*
X4750Y28531D02*
X6250Y28531D01*
X6250Y27531D02*
X4750Y27531D01*
X4750Y26531D02*
X6250Y26531D01*
X6250Y25531D02*
X4750Y25531D01*
X4750Y24531D02*
X6250Y24531D01*
X6250Y23531D02*
X4750Y23531D01*
X4750Y22531D02*
X6250Y22531D01*
X6250Y21531D02*
X4750Y21531D01*
X4750Y20531D02*
X6250Y20531D01*
X6250Y19531D02*
X4750Y19531D01*
X4750Y18531D02*
X6250Y18531D01*
X6250Y17531D02*
X4750Y17531D01*
X4750Y16531D02*
X6250Y16531D01*
X6500Y16281D01*
X6500Y15781D01*
X6250Y15531D01*
X4750Y15531D02*
X4500Y15781D01*
X4500Y16281D01*
X4750Y16531D01*
X4750Y15531D02*
X6250Y15531D01*
D15*
X6775Y34144D02*
X7125Y34144D01*
X7142Y34142D01*
X7159Y34138D01*
X7175Y34131D01*
X7189Y34121D01*
X7202Y34108D01*
X7212Y34094D01*
X7219Y34078D01*
X7223Y34061D01*
X7225Y34044D01*
X7225Y33994D01*
X7225Y34379D02*
X6775Y34379D01*
X6775Y34504D01*
X6777Y34525D01*
X6782Y34545D01*
X6790Y34563D01*
X6801Y34581D01*
X6815Y34596D01*
X6832Y34609D01*
X6850Y34618D01*
X6869Y34625D01*
X6890Y34629D01*
X6910Y34629D01*
X6931Y34625D01*
X6950Y34618D01*
X6968Y34609D01*
X6985Y34596D01*
X6999Y34581D01*
X7010Y34563D01*
X7018Y34545D01*
X7023Y34525D01*
X7025Y34504D01*
X7025Y34379D01*
X6875Y34806D02*
X6775Y34931D01*
X7225Y34931D01*
X7225Y34806D02*
X7225Y35056D01*
X7225Y35256D02*
X7225Y35381D01*
X7223Y35402D01*
X7218Y35422D01*
X7210Y35440D01*
X7199Y35458D01*
X7185Y35473D01*
X7168Y35486D01*
X7150Y35495D01*
X7131Y35502D01*
X7110Y35506D01*
X7090Y35506D01*
X7069Y35502D01*
X7050Y35495D01*
X7032Y35486D01*
X7015Y35473D01*
X7001Y35458D01*
X6990Y35440D01*
X6982Y35422D01*
X6977Y35402D01*
X6975Y35381D01*
X6775Y35406D02*
X6775Y35256D01*
X6775Y35406D02*
X6777Y35424D01*
X6782Y35442D01*
X6790Y35459D01*
X6801Y35473D01*
X6815Y35486D01*
X6830Y35496D01*
X6848Y35502D01*
X6866Y35506D01*
X6884Y35506D01*
X6902Y35502D01*
X6920Y35496D01*
X6935Y35486D01*
X6949Y35473D01*
X6960Y35459D01*
X6968Y35442D01*
X6973Y35424D01*
X6975Y35406D01*
X6975Y35306D01*
D14*
X11909Y35285D02*
X12159Y35535D01*
X11909Y35285D02*
X11909Y34785D01*
X12159Y34535D01*
X11909Y34285D01*
X11909Y33785D01*
X12159Y33535D01*
X11909Y33285D01*
X11909Y32785D01*
X12159Y32535D01*
X11909Y32285D01*
X11909Y31785D01*
X12159Y31535D01*
X11909Y31285D01*
X11909Y30785D01*
X12159Y30535D01*
X11909Y30285D01*
X11909Y29785D01*
X12159Y29535D01*
X12159Y35535D02*
X13659Y35535D01*
X13909Y35285D01*
X13909Y34785D01*
X13659Y34535D01*
X13909Y34285D01*
X13909Y33785D01*
X13659Y33535D01*
X13909Y33285D01*
X13909Y32785D01*
X13659Y32535D01*
X13909Y32285D01*
X13909Y31785D01*
X13659Y31535D01*
X13909Y31285D01*
X13909Y30785D01*
X13659Y30535D01*
X13909Y30285D01*
X13909Y29785D01*
X13659Y29535D01*
X13909Y29285D01*
X13909Y28785D01*
X13659Y28535D01*
X13909Y28285D01*
X13909Y27785D01*
X13659Y27535D01*
X13909Y27285D01*
X13909Y26785D01*
X13659Y26535D01*
X13909Y26285D01*
X13909Y25785D01*
X13659Y25535D01*
X13909Y25285D01*
X13909Y24785D01*
X13659Y24535D01*
X13909Y24285D01*
X13909Y23785D01*
X13659Y23535D01*
X13909Y23285D01*
X13909Y22785D01*
X13659Y22535D01*
X13909Y22285D01*
X13909Y21785D01*
X13659Y21535D01*
X13909Y21285D01*
X13909Y20785D01*
X13659Y20535D01*
X13909Y20285D01*
X13909Y19785D01*
X13659Y19535D01*
X13909Y19285D01*
X13909Y18785D01*
X13659Y18535D01*
X13909Y18285D01*
X13909Y17785D01*
X13659Y17535D01*
X13909Y17285D01*
X13909Y16785D01*
X13659Y16535D01*
X12159Y16535D02*
X11909Y16785D01*
X11909Y17285D01*
X12159Y17535D01*
X11909Y17785D01*
X11909Y18285D01*
X12159Y18535D01*
X11909Y18785D01*
X11909Y19285D01*
X12159Y19535D01*
X11909Y19785D01*
X11909Y20285D01*
X12159Y20535D01*
X11909Y20785D01*
X11909Y21285D01*
X12159Y21535D01*
X11909Y21785D01*
X11909Y22285D01*
X12159Y22535D01*
X11909Y22785D01*
X11909Y23285D01*
X12159Y23535D01*
X11909Y23785D01*
X11909Y24285D01*
X12159Y24535D01*
X11909Y24785D01*
X11909Y25285D01*
X12159Y25535D01*
X11909Y25785D01*
X11909Y26285D01*
X12159Y26535D01*
X11909Y26785D01*
X11909Y27285D01*
X12159Y27535D01*
X11909Y27785D01*
X11909Y28285D01*
X12159Y28535D01*
X11909Y28785D01*
X11909Y29285D01*
X12159Y29535D01*
X12159Y34535D02*
X13659Y34535D01*
X13659Y33535D02*
X12159Y33535D01*
X12159Y32535D02*
X13659Y32535D01*
X13659Y31535D02*
X12159Y31535D01*
X12159Y30535D02*
X13659Y30535D01*
X13659Y29535D02*
X12159Y29535D01*
X12159Y28535D02*
X13659Y28535D01*
X13659Y27535D02*
X12159Y27535D01*
X12159Y26535D02*
X13659Y26535D01*
X13659Y25535D02*
X12159Y25535D01*
X12159Y24535D02*
X13659Y24535D01*
X13659Y23535D02*
X12159Y23535D01*
X12159Y22535D02*
X13659Y22535D01*
X13659Y21535D02*
X12159Y21535D01*
X12159Y20535D02*
X13659Y20535D01*
X13659Y19535D02*
X12159Y19535D01*
X12159Y18535D02*
X13659Y18535D01*
X13659Y17535D02*
X12159Y17535D01*
X12159Y16535D02*
X13659Y16535D01*
X13909Y16285D01*
X13909Y15785D01*
X13659Y15535D01*
X12159Y15535D02*
X11909Y15785D01*
X11909Y16285D01*
X12159Y16535D01*
X12159Y15535D02*
X13659Y15535D01*
D15*
X14184Y34597D02*
X14534Y34597D01*
X14551Y34595D01*
X14568Y34591D01*
X14584Y34584D01*
X14598Y34574D01*
X14611Y34561D01*
X14621Y34547D01*
X14628Y34531D01*
X14632Y34514D01*
X14634Y34497D01*
X14634Y34447D01*
X14634Y34833D02*
X14184Y34833D01*
X14184Y34958D01*
X14186Y34979D01*
X14191Y34999D01*
X14199Y35017D01*
X14210Y35035D01*
X14224Y35050D01*
X14241Y35063D01*
X14259Y35072D01*
X14278Y35079D01*
X14299Y35083D01*
X14319Y35083D01*
X14340Y35079D01*
X14359Y35072D01*
X14377Y35063D01*
X14394Y35050D01*
X14408Y35035D01*
X14419Y35017D01*
X14427Y34999D01*
X14432Y34979D01*
X14434Y34958D01*
X14434Y34833D01*
X14534Y35260D02*
X14184Y35360D01*
X14534Y35260D02*
X14534Y35510D01*
X14434Y35435D02*
X14634Y35435D01*
D14*
X66600Y28550D02*
X66657Y28550D01*
X66657Y28361D01*
X66544Y28361D01*
X66529Y28362D01*
X66515Y28367D01*
X66502Y28374D01*
X66490Y28383D01*
X66481Y28395D01*
X66474Y28408D01*
X66469Y28422D01*
X66468Y28437D01*
X66468Y28626D01*
X66470Y28643D01*
X66476Y28659D01*
X66485Y28673D01*
X66497Y28685D01*
X66511Y28694D01*
X66527Y28700D01*
X66544Y28702D01*
X66544Y28701D02*
X66657Y28701D01*
X66852Y28701D02*
X66852Y28361D01*
X67041Y28361D02*
X66852Y28701D01*
X67041Y28701D02*
X67041Y28361D01*
X67236Y28361D02*
X67236Y28701D01*
X67331Y28701D01*
X67349Y28699D01*
X67367Y28694D01*
X67383Y28685D01*
X67397Y28673D01*
X67409Y28659D01*
X67418Y28643D01*
X67423Y28625D01*
X67425Y28607D01*
X67425Y28456D01*
X67423Y28438D01*
X67418Y28420D01*
X67409Y28404D01*
X67397Y28390D01*
X67383Y28378D01*
X67367Y28369D01*
X67349Y28364D01*
X67331Y28362D01*
X67331Y28361D02*
X67236Y28361D01*
X66657Y29550D02*
X66600Y29550D01*
X66657Y29550D02*
X66657Y29361D01*
X66544Y29361D01*
X66529Y29362D01*
X66515Y29367D01*
X66502Y29374D01*
X66490Y29383D01*
X66481Y29395D01*
X66474Y29408D01*
X66469Y29422D01*
X66468Y29437D01*
X66468Y29626D01*
X66470Y29643D01*
X66476Y29659D01*
X66485Y29673D01*
X66497Y29685D01*
X66511Y29694D01*
X66527Y29700D01*
X66544Y29702D01*
X66544Y29701D02*
X66657Y29701D01*
X66852Y29701D02*
X66852Y29361D01*
X67041Y29361D02*
X66852Y29701D01*
X67041Y29701D02*
X67041Y29361D01*
X67236Y29361D02*
X67236Y29701D01*
X67331Y29701D01*
X67349Y29699D01*
X67367Y29694D01*
X67383Y29685D01*
X67397Y29673D01*
X67409Y29659D01*
X67418Y29643D01*
X67423Y29625D01*
X67425Y29607D01*
X67425Y29456D01*
X67423Y29438D01*
X67418Y29420D01*
X67409Y29404D01*
X67397Y29390D01*
X67383Y29378D01*
X67367Y29369D01*
X67349Y29364D01*
X67331Y29362D01*
X67331Y29361D02*
X67236Y29361D01*
X66681Y27494D02*
X66454Y27494D01*
X66568Y27607D02*
X66568Y27380D01*
X66857Y27361D02*
X66971Y27361D01*
X66986Y27362D01*
X67000Y27367D01*
X67013Y27374D01*
X67025Y27383D01*
X67034Y27395D01*
X67041Y27408D01*
X67046Y27422D01*
X67047Y27437D01*
X67046Y27437D02*
X67046Y27475D01*
X67047Y27475D02*
X67046Y27490D01*
X67041Y27504D01*
X67034Y27517D01*
X67025Y27529D01*
X67013Y27538D01*
X67000Y27545D01*
X66986Y27550D01*
X66971Y27551D01*
X66971Y27550D02*
X66857Y27550D01*
X66857Y27701D01*
X67046Y27701D01*
X67198Y27701D02*
X67312Y27361D01*
X67425Y27701D01*
X66567Y25701D02*
X66567Y25361D01*
X66567Y25701D02*
X66662Y25701D01*
X66680Y25699D01*
X66698Y25694D01*
X66714Y25685D01*
X66728Y25673D01*
X66740Y25659D01*
X66749Y25643D01*
X66754Y25625D01*
X66756Y25607D01*
X66754Y25589D01*
X66749Y25571D01*
X66740Y25555D01*
X66728Y25541D01*
X66714Y25529D01*
X66698Y25520D01*
X66680Y25515D01*
X66662Y25513D01*
X66567Y25513D01*
X66681Y25513D02*
X66756Y25361D01*
X67025Y25361D02*
X67042Y25363D01*
X67058Y25369D01*
X67072Y25378D01*
X67084Y25390D01*
X67093Y25404D01*
X67099Y25420D01*
X67101Y25437D01*
X67025Y25361D02*
X67004Y25362D01*
X66983Y25367D01*
X66963Y25373D01*
X66945Y25383D01*
X66927Y25394D01*
X66911Y25408D01*
X66921Y25626D02*
X66922Y25641D01*
X66927Y25655D01*
X66934Y25668D01*
X66943Y25680D01*
X66955Y25689D01*
X66968Y25696D01*
X66982Y25701D01*
X66997Y25702D01*
X67020Y25700D01*
X67042Y25695D01*
X67063Y25686D01*
X67082Y25674D01*
X66959Y25560D02*
X66946Y25569D01*
X66935Y25581D01*
X66928Y25595D01*
X66923Y25610D01*
X66921Y25626D01*
X67063Y25503D02*
X67076Y25494D01*
X67087Y25482D01*
X67094Y25468D01*
X67099Y25453D01*
X67101Y25437D01*
X67063Y25503D02*
X66959Y25560D01*
X67331Y25701D02*
X67331Y25361D01*
X67425Y25701D02*
X67236Y25701D01*
X66743Y30361D02*
X66629Y30701D01*
X66856Y30701D02*
X66743Y30361D01*
X67031Y30361D02*
X67031Y30701D01*
X66993Y30361D02*
X67068Y30361D01*
X67068Y30701D02*
X66993Y30701D01*
X67236Y30701D02*
X67236Y30361D01*
X67425Y30361D02*
X67236Y30701D01*
X67425Y30701D02*
X67425Y30361D01*
X66177Y26494D02*
X65950Y26494D01*
X66064Y26607D02*
X66064Y26380D01*
X66353Y26361D02*
X66448Y26361D01*
X66448Y26362D02*
X66466Y26364D01*
X66484Y26369D01*
X66500Y26378D01*
X66514Y26390D01*
X66526Y26404D01*
X66535Y26420D01*
X66540Y26438D01*
X66542Y26456D01*
X66540Y26474D01*
X66535Y26492D01*
X66526Y26508D01*
X66514Y26522D01*
X66500Y26534D01*
X66484Y26543D01*
X66466Y26548D01*
X66448Y26550D01*
X66467Y26701D02*
X66353Y26701D01*
X66467Y26702D02*
X66483Y26700D01*
X66498Y26695D01*
X66512Y26687D01*
X66523Y26677D01*
X66533Y26664D01*
X66539Y26649D01*
X66543Y26634D01*
X66543Y26618D01*
X66539Y26603D01*
X66533Y26588D01*
X66523Y26575D01*
X66512Y26565D01*
X66498Y26557D01*
X66483Y26552D01*
X66467Y26550D01*
X66391Y26550D01*
X66690Y26380D02*
X66690Y26361D01*
X66690Y26380D02*
X66709Y26380D01*
X66709Y26361D01*
X66690Y26361D01*
X66857Y26361D02*
X66952Y26361D01*
X66952Y26362D02*
X66970Y26364D01*
X66988Y26369D01*
X67004Y26378D01*
X67018Y26390D01*
X67030Y26404D01*
X67039Y26420D01*
X67044Y26438D01*
X67046Y26456D01*
X67044Y26474D01*
X67039Y26492D01*
X67030Y26508D01*
X67018Y26522D01*
X67004Y26534D01*
X66988Y26543D01*
X66970Y26548D01*
X66952Y26550D01*
X66971Y26701D02*
X66857Y26701D01*
X66971Y26702D02*
X66987Y26700D01*
X67002Y26695D01*
X67016Y26687D01*
X67027Y26677D01*
X67037Y26664D01*
X67043Y26649D01*
X67047Y26634D01*
X67047Y26618D01*
X67043Y26603D01*
X67037Y26588D01*
X67027Y26575D01*
X67016Y26565D01*
X67002Y26557D01*
X66987Y26552D01*
X66971Y26550D01*
X66895Y26550D01*
X67198Y26701D02*
X67312Y26361D01*
X67425Y26701D01*
X67236Y32531D02*
X67238Y32563D01*
X67243Y32594D01*
X67252Y32624D01*
X67264Y32654D01*
X67265Y32655D02*
X67271Y32668D01*
X67279Y32679D01*
X67290Y32689D01*
X67303Y32696D01*
X67317Y32701D01*
X67331Y32702D01*
X67345Y32701D01*
X67359Y32696D01*
X67372Y32689D01*
X67383Y32679D01*
X67391Y32668D01*
X67397Y32655D01*
X67397Y32654D02*
X67409Y32624D01*
X67418Y32594D01*
X67423Y32563D01*
X67425Y32531D01*
X67236Y32531D02*
X67238Y32499D01*
X67243Y32468D01*
X67252Y32438D01*
X67264Y32408D01*
X67265Y32408D02*
X67271Y32395D01*
X67279Y32384D01*
X67290Y32374D01*
X67303Y32367D01*
X67317Y32362D01*
X67331Y32361D01*
X67397Y32408D02*
X67409Y32438D01*
X67418Y32468D01*
X67423Y32499D01*
X67425Y32531D01*
X67397Y32408D02*
X67391Y32395D01*
X67383Y32384D01*
X67372Y32374D01*
X67359Y32367D01*
X67345Y32362D01*
X67331Y32361D01*
X67255Y32437D02*
X67406Y32626D01*
X67236Y33626D02*
X67331Y33701D01*
X67331Y33361D01*
X67425Y33361D02*
X67236Y33361D01*
X67425Y34616D02*
X67423Y34633D01*
X67419Y34649D01*
X67411Y34663D01*
X67400Y34676D01*
X67387Y34687D01*
X67373Y34695D01*
X67357Y34699D01*
X67340Y34701D01*
X67321Y34699D01*
X67302Y34694D01*
X67284Y34686D01*
X67268Y34674D01*
X67255Y34660D01*
X67244Y34644D01*
X67236Y34626D01*
X67397Y34550D02*
X67409Y34564D01*
X67418Y34580D01*
X67423Y34598D01*
X67425Y34616D01*
X67397Y34550D02*
X67236Y34361D01*
X67425Y34361D01*
X67331Y35361D02*
X67236Y35361D01*
X67331Y35362D02*
X67349Y35364D01*
X67367Y35369D01*
X67383Y35378D01*
X67397Y35390D01*
X67409Y35404D01*
X67418Y35420D01*
X67423Y35438D01*
X67425Y35456D01*
X67423Y35474D01*
X67418Y35492D01*
X67409Y35508D01*
X67397Y35522D01*
X67383Y35534D01*
X67367Y35543D01*
X67349Y35548D01*
X67331Y35550D01*
X67349Y35701D02*
X67236Y35701D01*
X67349Y35702D02*
X67365Y35700D01*
X67380Y35695D01*
X67394Y35687D01*
X67405Y35677D01*
X67415Y35664D01*
X67421Y35649D01*
X67425Y35634D01*
X67425Y35618D01*
X67421Y35603D01*
X67415Y35588D01*
X67405Y35575D01*
X67394Y35565D01*
X67380Y35557D01*
X67365Y35552D01*
X67349Y35550D01*
X67274Y35550D01*
X67236Y36437D02*
X67312Y36701D01*
X67236Y36437D02*
X67425Y36437D01*
X67368Y36513D02*
X67368Y36361D01*
X67349Y37361D02*
X67236Y37361D01*
X67349Y37361D02*
X67364Y37362D01*
X67378Y37367D01*
X67391Y37374D01*
X67403Y37383D01*
X67412Y37395D01*
X67419Y37408D01*
X67424Y37422D01*
X67425Y37437D01*
X67425Y37475D01*
X67424Y37490D01*
X67419Y37504D01*
X67412Y37517D01*
X67403Y37529D01*
X67391Y37538D01*
X67378Y37545D01*
X67364Y37550D01*
X67349Y37551D01*
X67349Y37550D02*
X67236Y37550D01*
X67236Y37701D01*
X67425Y37701D01*
X49719Y23050D02*
X49662Y23050D01*
X49719Y23050D02*
X49719Y22861D01*
X49606Y22861D01*
X49591Y22862D01*
X49577Y22867D01*
X49564Y22874D01*
X49552Y22883D01*
X49543Y22895D01*
X49536Y22908D01*
X49531Y22922D01*
X49530Y22937D01*
X49530Y23126D01*
X49532Y23143D01*
X49538Y23159D01*
X49547Y23173D01*
X49559Y23185D01*
X49573Y23194D01*
X49589Y23200D01*
X49606Y23202D01*
X49606Y23201D02*
X49719Y23201D01*
X49914Y23201D02*
X49914Y22861D01*
X50103Y22861D02*
X49914Y23201D01*
X50103Y23201D02*
X50103Y22861D01*
X50298Y22861D02*
X50298Y23201D01*
X50392Y23201D01*
X50410Y23199D01*
X50428Y23194D01*
X50444Y23185D01*
X50458Y23173D01*
X50470Y23159D01*
X50479Y23143D01*
X50484Y23125D01*
X50486Y23107D01*
X50487Y23107D02*
X50487Y22956D01*
X50486Y22956D02*
X50484Y22938D01*
X50479Y22920D01*
X50470Y22904D01*
X50458Y22890D01*
X50444Y22878D01*
X50428Y22869D01*
X50410Y22864D01*
X50392Y22862D01*
X50392Y22861D02*
X50298Y22861D01*
X49530Y24126D02*
X49624Y24201D01*
X49624Y23861D01*
X49530Y23861D02*
X49719Y23861D01*
X49890Y23861D02*
X49984Y23861D01*
X49984Y23862D02*
X50002Y23864D01*
X50020Y23869D01*
X50036Y23878D01*
X50050Y23890D01*
X50062Y23904D01*
X50071Y23920D01*
X50076Y23938D01*
X50078Y23956D01*
X50076Y23974D01*
X50071Y23992D01*
X50062Y24008D01*
X50050Y24022D01*
X50036Y24034D01*
X50020Y24043D01*
X50002Y24048D01*
X49984Y24050D01*
X50003Y24201D02*
X49890Y24201D01*
X50003Y24202D02*
X50019Y24200D01*
X50034Y24195D01*
X50048Y24187D01*
X50059Y24177D01*
X50069Y24164D01*
X50075Y24149D01*
X50079Y24134D01*
X50079Y24118D01*
X50075Y24103D01*
X50069Y24088D01*
X50059Y24075D01*
X50048Y24065D01*
X50034Y24057D01*
X50019Y24052D01*
X50003Y24050D01*
X49928Y24050D01*
X49530Y25126D02*
X49624Y25201D01*
X49624Y24861D01*
X49530Y24861D02*
X49719Y24861D01*
X49994Y25201D02*
X50011Y25199D01*
X50027Y25195D01*
X50041Y25187D01*
X50054Y25176D01*
X50065Y25163D01*
X50073Y25149D01*
X50077Y25133D01*
X50079Y25116D01*
X49994Y25201D02*
X49975Y25199D01*
X49956Y25194D01*
X49938Y25186D01*
X49922Y25174D01*
X49909Y25160D01*
X49898Y25144D01*
X49890Y25126D01*
X50051Y25050D02*
X50063Y25064D01*
X50072Y25080D01*
X50077Y25098D01*
X50079Y25116D01*
X50051Y25050D02*
X49890Y24861D01*
X50079Y24861D01*
X49530Y26126D02*
X49624Y26201D01*
X49624Y25861D01*
X49530Y25861D02*
X49719Y25861D01*
X49890Y26126D02*
X49984Y26201D01*
X49984Y25861D01*
X49890Y25861D02*
X50079Y25861D01*
X49643Y22201D02*
X49530Y21861D01*
X49757Y21861D02*
X49643Y22201D01*
X49728Y21946D02*
X49558Y21946D01*
X49924Y21861D02*
X49924Y22201D01*
X50019Y22201D01*
X50037Y22199D01*
X50055Y22194D01*
X50071Y22185D01*
X50085Y22173D01*
X50097Y22159D01*
X50106Y22143D01*
X50111Y22125D01*
X50113Y22107D01*
X50111Y22089D01*
X50106Y22071D01*
X50097Y22055D01*
X50085Y22041D01*
X50071Y22029D01*
X50055Y22020D01*
X50037Y22015D01*
X50019Y22013D01*
X49924Y22013D01*
X50038Y22013D02*
X50113Y21861D01*
X50294Y21861D02*
X50445Y21861D01*
X50294Y21861D02*
X50294Y22201D01*
X50445Y22201D01*
X50407Y22050D02*
X50294Y22050D01*
X50606Y22201D02*
X50606Y21861D01*
X50606Y22201D02*
X50757Y22201D01*
X50757Y22050D02*
X50606Y22050D01*
X49530Y27126D02*
X49624Y27201D01*
X49624Y26861D01*
X49530Y26861D02*
X49719Y26861D01*
X49890Y27031D02*
X49892Y27063D01*
X49897Y27094D01*
X49906Y27124D01*
X49918Y27154D01*
X49918Y27155D02*
X49924Y27168D01*
X49932Y27179D01*
X49943Y27189D01*
X49956Y27196D01*
X49970Y27201D01*
X49984Y27202D01*
X49998Y27201D01*
X50012Y27196D01*
X50025Y27189D01*
X50036Y27179D01*
X50044Y27168D01*
X50050Y27155D01*
X50051Y27154D02*
X50063Y27124D01*
X50072Y27094D01*
X50077Y27063D01*
X50079Y27031D01*
X49890Y27031D02*
X49892Y26999D01*
X49897Y26968D01*
X49906Y26938D01*
X49918Y26908D01*
X49924Y26895D01*
X49932Y26884D01*
X49943Y26874D01*
X49956Y26867D01*
X49970Y26862D01*
X49984Y26861D01*
X50051Y26908D02*
X50063Y26938D01*
X50072Y26968D01*
X50077Y26999D01*
X50079Y27031D01*
X50050Y26908D02*
X50044Y26895D01*
X50036Y26884D01*
X50025Y26874D01*
X50012Y26867D01*
X49998Y26862D01*
X49984Y26861D01*
X49909Y26937D02*
X50060Y27126D01*
X49719Y28013D02*
X49606Y28013D01*
X49606Y28012D02*
X49591Y28013D01*
X49577Y28018D01*
X49564Y28025D01*
X49552Y28034D01*
X49543Y28046D01*
X49536Y28059D01*
X49531Y28073D01*
X49530Y28088D01*
X49530Y28107D01*
X49532Y28125D01*
X49537Y28143D01*
X49546Y28159D01*
X49558Y28173D01*
X49572Y28185D01*
X49588Y28194D01*
X49606Y28199D01*
X49624Y28201D01*
X49642Y28199D01*
X49660Y28194D01*
X49676Y28185D01*
X49690Y28173D01*
X49702Y28159D01*
X49711Y28143D01*
X49716Y28125D01*
X49718Y28107D01*
X49719Y28107D02*
X49719Y28013D01*
X49717Y27989D01*
X49712Y27966D01*
X49703Y27944D01*
X49690Y27924D01*
X49675Y27906D01*
X49657Y27891D01*
X49637Y27878D01*
X49615Y27869D01*
X49592Y27864D01*
X49568Y27862D01*
X49530Y28956D02*
X49532Y28974D01*
X49537Y28992D01*
X49546Y29008D01*
X49558Y29022D01*
X49572Y29034D01*
X49588Y29043D01*
X49606Y29048D01*
X49624Y29050D01*
X49642Y29048D01*
X49660Y29043D01*
X49676Y29034D01*
X49690Y29022D01*
X49702Y29008D01*
X49711Y28992D01*
X49716Y28974D01*
X49718Y28956D01*
X49716Y28938D01*
X49711Y28920D01*
X49702Y28904D01*
X49690Y28890D01*
X49676Y28878D01*
X49660Y28869D01*
X49642Y28864D01*
X49624Y28862D01*
X49606Y28864D01*
X49588Y28869D01*
X49572Y28878D01*
X49558Y28890D01*
X49546Y28904D01*
X49537Y28920D01*
X49532Y28938D01*
X49530Y28956D01*
X49548Y29126D02*
X49550Y29142D01*
X49555Y29157D01*
X49563Y29171D01*
X49573Y29182D01*
X49586Y29192D01*
X49601Y29198D01*
X49616Y29202D01*
X49632Y29202D01*
X49647Y29198D01*
X49662Y29192D01*
X49675Y29182D01*
X49685Y29171D01*
X49693Y29157D01*
X49698Y29142D01*
X49700Y29126D01*
X49698Y29110D01*
X49693Y29095D01*
X49685Y29081D01*
X49675Y29070D01*
X49662Y29060D01*
X49647Y29054D01*
X49632Y29050D01*
X49616Y29050D01*
X49601Y29054D01*
X49586Y29060D01*
X49573Y29070D01*
X49563Y29081D01*
X49555Y29095D01*
X49550Y29110D01*
X49548Y29126D01*
X49530Y30664D02*
X49530Y30701D01*
X49719Y30701D01*
X49624Y30361D01*
X49643Y31550D02*
X49530Y31550D01*
X49643Y31551D02*
X49658Y31550D01*
X49672Y31545D01*
X49685Y31538D01*
X49697Y31529D01*
X49706Y31517D01*
X49713Y31504D01*
X49718Y31490D01*
X49719Y31475D01*
X49719Y31456D01*
X49718Y31456D02*
X49716Y31438D01*
X49711Y31420D01*
X49702Y31404D01*
X49690Y31390D01*
X49676Y31378D01*
X49660Y31369D01*
X49642Y31364D01*
X49624Y31362D01*
X49606Y31364D01*
X49588Y31369D01*
X49572Y31378D01*
X49558Y31390D01*
X49546Y31404D01*
X49537Y31420D01*
X49532Y31438D01*
X49530Y31456D01*
X49530Y31550D01*
X49532Y31574D01*
X49537Y31597D01*
X49546Y31619D01*
X49559Y31639D01*
X49574Y31657D01*
X49592Y31672D01*
X49612Y31685D01*
X49634Y31694D01*
X49657Y31699D01*
X49681Y31701D01*
X49643Y32361D02*
X49530Y32361D01*
X49643Y32361D02*
X49658Y32362D01*
X49672Y32367D01*
X49685Y32374D01*
X49697Y32383D01*
X49706Y32395D01*
X49713Y32408D01*
X49718Y32422D01*
X49719Y32437D01*
X49719Y32475D01*
X49718Y32490D01*
X49713Y32504D01*
X49706Y32517D01*
X49697Y32529D01*
X49685Y32538D01*
X49672Y32545D01*
X49658Y32550D01*
X49643Y32551D01*
X49643Y32550D02*
X49530Y32550D01*
X49530Y32701D01*
X49719Y32701D01*
X49530Y33437D02*
X49606Y33701D01*
X49530Y33437D02*
X49719Y33437D01*
X49662Y33513D02*
X49662Y33361D01*
X49624Y34361D02*
X49530Y34361D01*
X49624Y34362D02*
X49642Y34364D01*
X49660Y34369D01*
X49676Y34378D01*
X49690Y34390D01*
X49702Y34404D01*
X49711Y34420D01*
X49716Y34438D01*
X49718Y34456D01*
X49716Y34474D01*
X49711Y34492D01*
X49702Y34508D01*
X49690Y34522D01*
X49676Y34534D01*
X49660Y34543D01*
X49642Y34548D01*
X49624Y34550D01*
X49643Y34701D02*
X49530Y34701D01*
X49643Y34702D02*
X49659Y34700D01*
X49674Y34695D01*
X49688Y34687D01*
X49699Y34677D01*
X49709Y34664D01*
X49715Y34649D01*
X49719Y34634D01*
X49719Y34618D01*
X49715Y34603D01*
X49709Y34588D01*
X49699Y34575D01*
X49688Y34565D01*
X49674Y34557D01*
X49659Y34552D01*
X49643Y34550D01*
X49568Y34550D01*
X49719Y35616D02*
X49717Y35633D01*
X49713Y35649D01*
X49705Y35663D01*
X49694Y35676D01*
X49681Y35687D01*
X49667Y35695D01*
X49651Y35699D01*
X49634Y35701D01*
X49615Y35699D01*
X49596Y35694D01*
X49578Y35686D01*
X49562Y35674D01*
X49549Y35660D01*
X49538Y35644D01*
X49530Y35626D01*
X49691Y35550D02*
X49703Y35564D01*
X49712Y35580D01*
X49717Y35598D01*
X49719Y35616D01*
X49691Y35550D02*
X49530Y35361D01*
X49719Y35361D01*
X49624Y36361D02*
X49624Y36701D01*
X49530Y36701D02*
X49719Y36701D01*
X50074Y36701D02*
X49847Y36361D01*
X50074Y36361D02*
X49847Y36701D01*
X49530Y37361D02*
X49530Y37701D01*
X49624Y37701D01*
X49642Y37699D01*
X49660Y37694D01*
X49676Y37685D01*
X49690Y37673D01*
X49702Y37659D01*
X49711Y37643D01*
X49716Y37625D01*
X49718Y37607D01*
X49716Y37589D01*
X49711Y37571D01*
X49702Y37555D01*
X49690Y37541D01*
X49676Y37529D01*
X49660Y37520D01*
X49642Y37515D01*
X49624Y37513D01*
X49530Y37513D01*
X49643Y37513D02*
X49719Y37361D01*
X49868Y37361D02*
X50094Y37701D01*
X49868Y37701D02*
X50094Y37361D01*
X49719Y20937D02*
X49717Y20920D01*
X49711Y20904D01*
X49702Y20890D01*
X49690Y20878D01*
X49676Y20869D01*
X49660Y20863D01*
X49643Y20861D01*
X49622Y20862D01*
X49601Y20867D01*
X49581Y20873D01*
X49563Y20883D01*
X49545Y20894D01*
X49529Y20908D01*
X49539Y21126D02*
X49540Y21141D01*
X49545Y21155D01*
X49552Y21168D01*
X49561Y21180D01*
X49573Y21189D01*
X49586Y21196D01*
X49600Y21201D01*
X49615Y21202D01*
X49638Y21200D01*
X49660Y21195D01*
X49681Y21186D01*
X49700Y21174D01*
X49577Y21060D02*
X49564Y21069D01*
X49553Y21081D01*
X49546Y21095D01*
X49541Y21110D01*
X49539Y21126D01*
X49681Y21003D02*
X49694Y20994D01*
X49705Y20982D01*
X49712Y20968D01*
X49717Y20953D01*
X49719Y20937D01*
X49681Y21003D02*
X49577Y21060D01*
X49890Y21201D02*
X49890Y20861D01*
X49890Y21201D02*
X49984Y21201D01*
X50002Y21199D01*
X50020Y21194D01*
X50036Y21185D01*
X50050Y21173D01*
X50062Y21159D01*
X50071Y21143D01*
X50076Y21125D01*
X50078Y21107D01*
X50079Y21107D02*
X50079Y20956D01*
X50078Y20956D02*
X50076Y20938D01*
X50071Y20920D01*
X50062Y20904D01*
X50050Y20890D01*
X50036Y20878D01*
X50020Y20869D01*
X50002Y20864D01*
X49984Y20862D01*
X49984Y20861D02*
X49890Y20861D01*
X50243Y20861D02*
X50356Y21201D01*
X50470Y20861D01*
X50441Y20946D02*
X50271Y20946D01*
X49719Y19937D02*
X49717Y19920D01*
X49711Y19904D01*
X49702Y19890D01*
X49690Y19878D01*
X49676Y19869D01*
X49660Y19863D01*
X49643Y19861D01*
X49622Y19862D01*
X49601Y19867D01*
X49581Y19873D01*
X49563Y19883D01*
X49545Y19894D01*
X49529Y19908D01*
X49539Y20126D02*
X49540Y20141D01*
X49545Y20155D01*
X49552Y20168D01*
X49561Y20180D01*
X49573Y20189D01*
X49586Y20196D01*
X49600Y20201D01*
X49615Y20202D01*
X49638Y20200D01*
X49660Y20195D01*
X49681Y20186D01*
X49700Y20174D01*
X49577Y20060D02*
X49564Y20069D01*
X49553Y20081D01*
X49546Y20095D01*
X49541Y20110D01*
X49539Y20126D01*
X49681Y20003D02*
X49694Y19994D01*
X49705Y19982D01*
X49712Y19968D01*
X49717Y19953D01*
X49719Y19937D01*
X49681Y20003D02*
X49577Y20060D01*
X49952Y19861D02*
X50028Y19861D01*
X49952Y19861D02*
X49937Y19862D01*
X49923Y19867D01*
X49910Y19874D01*
X49898Y19883D01*
X49889Y19895D01*
X49882Y19908D01*
X49877Y19922D01*
X49876Y19937D01*
X49876Y20126D01*
X49878Y20143D01*
X49884Y20159D01*
X49893Y20173D01*
X49905Y20185D01*
X49919Y20194D01*
X49935Y20200D01*
X49952Y20202D01*
X49952Y20201D02*
X50028Y20201D01*
X50191Y20201D02*
X50191Y19861D01*
X50342Y19861D01*
X66023Y24361D02*
X66023Y24701D01*
X65986Y24361D02*
X66061Y24361D01*
X66061Y24701D02*
X65986Y24701D01*
X66217Y24607D02*
X66217Y24456D01*
X66217Y24607D02*
X66219Y24625D01*
X66224Y24643D01*
X66233Y24659D01*
X66245Y24673D01*
X66259Y24685D01*
X66275Y24694D01*
X66293Y24699D01*
X66311Y24701D01*
X66329Y24699D01*
X66347Y24694D01*
X66363Y24685D01*
X66377Y24673D01*
X66389Y24659D01*
X66398Y24643D01*
X66403Y24625D01*
X66405Y24607D01*
X66406Y24607D02*
X66406Y24456D01*
X66405Y24456D02*
X66403Y24438D01*
X66398Y24420D01*
X66389Y24404D01*
X66377Y24390D01*
X66363Y24378D01*
X66347Y24369D01*
X66329Y24364D01*
X66311Y24362D01*
X66293Y24364D01*
X66275Y24369D01*
X66259Y24378D01*
X66245Y24390D01*
X66233Y24404D01*
X66224Y24420D01*
X66219Y24438D01*
X66217Y24456D01*
X66592Y24361D02*
X66592Y24701D01*
X66687Y24701D01*
X66705Y24699D01*
X66723Y24694D01*
X66739Y24685D01*
X66753Y24673D01*
X66765Y24659D01*
X66774Y24643D01*
X66779Y24625D01*
X66781Y24607D01*
X66779Y24589D01*
X66774Y24571D01*
X66765Y24555D01*
X66753Y24541D01*
X66739Y24529D01*
X66723Y24520D01*
X66705Y24515D01*
X66687Y24513D01*
X66592Y24513D01*
X66706Y24513D02*
X66781Y24361D01*
X66962Y24361D02*
X67113Y24361D01*
X66962Y24361D02*
X66962Y24701D01*
X67113Y24701D01*
X67075Y24550D02*
X66962Y24550D01*
X67274Y24701D02*
X67274Y24361D01*
X67274Y24701D02*
X67425Y24701D01*
X67425Y24550D02*
X67274Y24550D01*
D15*
X58122Y39656D02*
X58122Y39846D01*
X58185Y39741D01*
X58248Y39846D01*
X58248Y39656D01*
X58377Y39656D02*
X58377Y39846D01*
X58430Y39846D01*
X58430Y39847D02*
X58444Y39845D01*
X58457Y39840D01*
X58467Y39831D01*
X58476Y39821D01*
X58481Y39808D01*
X58483Y39794D01*
X58482Y39794D02*
X58482Y39709D01*
X58483Y39709D02*
X58481Y39695D01*
X58476Y39682D01*
X58467Y39672D01*
X58456Y39663D01*
X58444Y39658D01*
X58430Y39656D01*
X58377Y39656D01*
X58589Y39635D02*
X58674Y39635D01*
X58773Y39804D02*
X58826Y39846D01*
X58826Y39656D01*
X58878Y39656D02*
X58773Y39656D01*
D14*
X40157Y28550D02*
X40100Y28550D01*
X40157Y28550D02*
X40157Y28361D01*
X40044Y28361D01*
X40029Y28362D01*
X40015Y28367D01*
X40002Y28374D01*
X39990Y28383D01*
X39981Y28395D01*
X39974Y28408D01*
X39969Y28422D01*
X39968Y28437D01*
X39968Y28626D01*
X39970Y28643D01*
X39976Y28659D01*
X39985Y28673D01*
X39997Y28685D01*
X40011Y28694D01*
X40027Y28700D01*
X40044Y28702D01*
X40044Y28701D02*
X40157Y28701D01*
X40352Y28701D02*
X40352Y28361D01*
X40541Y28361D02*
X40352Y28701D01*
X40541Y28701D02*
X40541Y28361D01*
X40736Y28361D02*
X40736Y28701D01*
X40831Y28701D01*
X40849Y28699D01*
X40867Y28694D01*
X40883Y28685D01*
X40897Y28673D01*
X40909Y28659D01*
X40918Y28643D01*
X40923Y28625D01*
X40925Y28607D01*
X40925Y28456D01*
X40923Y28438D01*
X40918Y28420D01*
X40909Y28404D01*
X40897Y28390D01*
X40883Y28378D01*
X40867Y28369D01*
X40849Y28364D01*
X40831Y28362D01*
X40831Y28361D02*
X40736Y28361D01*
X40157Y29550D02*
X40100Y29550D01*
X40157Y29550D02*
X40157Y29361D01*
X40044Y29361D01*
X40029Y29362D01*
X40015Y29367D01*
X40002Y29374D01*
X39990Y29383D01*
X39981Y29395D01*
X39974Y29408D01*
X39969Y29422D01*
X39968Y29437D01*
X39968Y29626D01*
X39970Y29643D01*
X39976Y29659D01*
X39985Y29673D01*
X39997Y29685D01*
X40011Y29694D01*
X40027Y29700D01*
X40044Y29702D01*
X40044Y29701D02*
X40157Y29701D01*
X40352Y29701D02*
X40352Y29361D01*
X40541Y29361D02*
X40352Y29701D01*
X40541Y29701D02*
X40541Y29361D01*
X40736Y29361D02*
X40736Y29701D01*
X40831Y29701D01*
X40849Y29699D01*
X40867Y29694D01*
X40883Y29685D01*
X40897Y29673D01*
X40909Y29659D01*
X40918Y29643D01*
X40923Y29625D01*
X40925Y29607D01*
X40925Y29456D01*
X40923Y29438D01*
X40918Y29420D01*
X40909Y29404D01*
X40897Y29390D01*
X40883Y29378D01*
X40867Y29369D01*
X40849Y29364D01*
X40831Y29362D01*
X40831Y29361D02*
X40736Y29361D01*
X40181Y27494D02*
X39954Y27494D01*
X40068Y27607D02*
X40068Y27380D01*
X40357Y27361D02*
X40471Y27361D01*
X40486Y27362D01*
X40500Y27367D01*
X40513Y27374D01*
X40525Y27383D01*
X40534Y27395D01*
X40541Y27408D01*
X40546Y27422D01*
X40547Y27437D01*
X40546Y27437D02*
X40546Y27475D01*
X40547Y27475D02*
X40546Y27490D01*
X40541Y27504D01*
X40534Y27517D01*
X40525Y27529D01*
X40513Y27538D01*
X40500Y27545D01*
X40486Y27550D01*
X40471Y27551D01*
X40471Y27550D02*
X40357Y27550D01*
X40357Y27701D01*
X40546Y27701D01*
X40698Y27701D02*
X40812Y27361D01*
X40925Y27701D01*
X40067Y25701D02*
X40067Y25361D01*
X40067Y25701D02*
X40162Y25701D01*
X40180Y25699D01*
X40198Y25694D01*
X40214Y25685D01*
X40228Y25673D01*
X40240Y25659D01*
X40249Y25643D01*
X40254Y25625D01*
X40256Y25607D01*
X40254Y25589D01*
X40249Y25571D01*
X40240Y25555D01*
X40228Y25541D01*
X40214Y25529D01*
X40198Y25520D01*
X40180Y25515D01*
X40162Y25513D01*
X40067Y25513D01*
X40181Y25513D02*
X40256Y25361D01*
X40525Y25361D02*
X40542Y25363D01*
X40558Y25369D01*
X40572Y25378D01*
X40584Y25390D01*
X40593Y25404D01*
X40599Y25420D01*
X40601Y25437D01*
X40525Y25361D02*
X40504Y25362D01*
X40483Y25367D01*
X40463Y25373D01*
X40445Y25383D01*
X40427Y25394D01*
X40411Y25408D01*
X40421Y25626D02*
X40422Y25641D01*
X40427Y25655D01*
X40434Y25668D01*
X40443Y25680D01*
X40455Y25689D01*
X40468Y25696D01*
X40482Y25701D01*
X40497Y25702D01*
X40520Y25700D01*
X40542Y25695D01*
X40563Y25686D01*
X40582Y25674D01*
X40459Y25560D02*
X40446Y25569D01*
X40435Y25581D01*
X40428Y25595D01*
X40423Y25610D01*
X40421Y25626D01*
X40563Y25503D02*
X40576Y25494D01*
X40587Y25482D01*
X40594Y25468D01*
X40599Y25453D01*
X40601Y25437D01*
X40563Y25503D02*
X40459Y25560D01*
X40831Y25701D02*
X40831Y25361D01*
X40925Y25701D02*
X40736Y25701D01*
X40243Y30361D02*
X40129Y30701D01*
X40356Y30701D02*
X40243Y30361D01*
X40531Y30361D02*
X40531Y30701D01*
X40493Y30361D02*
X40568Y30361D01*
X40568Y30701D02*
X40493Y30701D01*
X40736Y30701D02*
X40736Y30361D01*
X40925Y30361D02*
X40736Y30701D01*
X40925Y30701D02*
X40925Y30361D01*
X39677Y26494D02*
X39450Y26494D01*
X39564Y26607D02*
X39564Y26380D01*
X39853Y26361D02*
X39948Y26361D01*
X39948Y26362D02*
X39966Y26364D01*
X39984Y26369D01*
X40000Y26378D01*
X40014Y26390D01*
X40026Y26404D01*
X40035Y26420D01*
X40040Y26438D01*
X40042Y26456D01*
X40040Y26474D01*
X40035Y26492D01*
X40026Y26508D01*
X40014Y26522D01*
X40000Y26534D01*
X39984Y26543D01*
X39966Y26548D01*
X39948Y26550D01*
X39967Y26701D02*
X39853Y26701D01*
X39967Y26702D02*
X39983Y26700D01*
X39998Y26695D01*
X40012Y26687D01*
X40023Y26677D01*
X40033Y26664D01*
X40039Y26649D01*
X40043Y26634D01*
X40043Y26618D01*
X40039Y26603D01*
X40033Y26588D01*
X40023Y26575D01*
X40012Y26565D01*
X39998Y26557D01*
X39983Y26552D01*
X39967Y26550D01*
X39891Y26550D01*
X40190Y26380D02*
X40190Y26361D01*
X40190Y26380D02*
X40209Y26380D01*
X40209Y26361D01*
X40190Y26361D01*
X40357Y26361D02*
X40452Y26361D01*
X40452Y26362D02*
X40470Y26364D01*
X40488Y26369D01*
X40504Y26378D01*
X40518Y26390D01*
X40530Y26404D01*
X40539Y26420D01*
X40544Y26438D01*
X40546Y26456D01*
X40544Y26474D01*
X40539Y26492D01*
X40530Y26508D01*
X40518Y26522D01*
X40504Y26534D01*
X40488Y26543D01*
X40470Y26548D01*
X40452Y26550D01*
X40471Y26701D02*
X40357Y26701D01*
X40471Y26702D02*
X40487Y26700D01*
X40502Y26695D01*
X40516Y26687D01*
X40527Y26677D01*
X40537Y26664D01*
X40543Y26649D01*
X40547Y26634D01*
X40547Y26618D01*
X40543Y26603D01*
X40537Y26588D01*
X40527Y26575D01*
X40516Y26565D01*
X40502Y26557D01*
X40487Y26552D01*
X40471Y26550D01*
X40395Y26550D01*
X40698Y26701D02*
X40812Y26361D01*
X40925Y26701D01*
X40736Y32531D02*
X40738Y32563D01*
X40743Y32594D01*
X40752Y32624D01*
X40764Y32654D01*
X40765Y32655D02*
X40771Y32668D01*
X40779Y32679D01*
X40790Y32689D01*
X40803Y32696D01*
X40817Y32701D01*
X40831Y32702D01*
X40845Y32701D01*
X40859Y32696D01*
X40872Y32689D01*
X40883Y32679D01*
X40891Y32668D01*
X40897Y32655D01*
X40897Y32654D02*
X40909Y32624D01*
X40918Y32594D01*
X40923Y32563D01*
X40925Y32531D01*
X40736Y32531D02*
X40738Y32499D01*
X40743Y32468D01*
X40752Y32438D01*
X40764Y32408D01*
X40765Y32408D02*
X40771Y32395D01*
X40779Y32384D01*
X40790Y32374D01*
X40803Y32367D01*
X40817Y32362D01*
X40831Y32361D01*
X40897Y32408D02*
X40909Y32438D01*
X40918Y32468D01*
X40923Y32499D01*
X40925Y32531D01*
X40897Y32408D02*
X40891Y32395D01*
X40883Y32384D01*
X40872Y32374D01*
X40859Y32367D01*
X40845Y32362D01*
X40831Y32361D01*
X40755Y32437D02*
X40906Y32626D01*
X40736Y33626D02*
X40831Y33701D01*
X40831Y33361D01*
X40925Y33361D02*
X40736Y33361D01*
X40925Y34616D02*
X40923Y34633D01*
X40919Y34649D01*
X40911Y34663D01*
X40900Y34676D01*
X40887Y34687D01*
X40873Y34695D01*
X40857Y34699D01*
X40840Y34701D01*
X40821Y34699D01*
X40802Y34694D01*
X40784Y34686D01*
X40768Y34674D01*
X40755Y34660D01*
X40744Y34644D01*
X40736Y34626D01*
X40897Y34550D02*
X40909Y34564D01*
X40918Y34580D01*
X40923Y34598D01*
X40925Y34616D01*
X40897Y34550D02*
X40736Y34361D01*
X40925Y34361D01*
X40831Y35361D02*
X40736Y35361D01*
X40831Y35362D02*
X40849Y35364D01*
X40867Y35369D01*
X40883Y35378D01*
X40897Y35390D01*
X40909Y35404D01*
X40918Y35420D01*
X40923Y35438D01*
X40925Y35456D01*
X40923Y35474D01*
X40918Y35492D01*
X40909Y35508D01*
X40897Y35522D01*
X40883Y35534D01*
X40867Y35543D01*
X40849Y35548D01*
X40831Y35550D01*
X40849Y35701D02*
X40736Y35701D01*
X40849Y35702D02*
X40865Y35700D01*
X40880Y35695D01*
X40894Y35687D01*
X40905Y35677D01*
X40915Y35664D01*
X40921Y35649D01*
X40925Y35634D01*
X40925Y35618D01*
X40921Y35603D01*
X40915Y35588D01*
X40905Y35575D01*
X40894Y35565D01*
X40880Y35557D01*
X40865Y35552D01*
X40849Y35550D01*
X40774Y35550D01*
X40736Y36437D02*
X40812Y36701D01*
X40736Y36437D02*
X40925Y36437D01*
X40868Y36513D02*
X40868Y36361D01*
X40849Y37361D02*
X40736Y37361D01*
X40849Y37361D02*
X40864Y37362D01*
X40878Y37367D01*
X40891Y37374D01*
X40903Y37383D01*
X40912Y37395D01*
X40919Y37408D01*
X40924Y37422D01*
X40925Y37437D01*
X40925Y37475D01*
X40924Y37490D01*
X40919Y37504D01*
X40912Y37517D01*
X40903Y37529D01*
X40891Y37538D01*
X40878Y37545D01*
X40864Y37550D01*
X40849Y37551D01*
X40849Y37550D02*
X40736Y37550D01*
X40736Y37701D01*
X40925Y37701D01*
X23219Y23050D02*
X23162Y23050D01*
X23219Y23050D02*
X23219Y22861D01*
X23106Y22861D01*
X23091Y22862D01*
X23077Y22867D01*
X23064Y22874D01*
X23052Y22883D01*
X23043Y22895D01*
X23036Y22908D01*
X23031Y22922D01*
X23030Y22937D01*
X23030Y23126D01*
X23032Y23143D01*
X23038Y23159D01*
X23047Y23173D01*
X23059Y23185D01*
X23073Y23194D01*
X23089Y23200D01*
X23106Y23202D01*
X23106Y23201D02*
X23219Y23201D01*
X23414Y23201D02*
X23414Y22861D01*
X23603Y22861D02*
X23414Y23201D01*
X23603Y23201D02*
X23603Y22861D01*
X23798Y22861D02*
X23798Y23201D01*
X23892Y23201D01*
X23910Y23199D01*
X23928Y23194D01*
X23944Y23185D01*
X23958Y23173D01*
X23970Y23159D01*
X23979Y23143D01*
X23984Y23125D01*
X23986Y23107D01*
X23987Y23107D02*
X23987Y22956D01*
X23986Y22956D02*
X23984Y22938D01*
X23979Y22920D01*
X23970Y22904D01*
X23958Y22890D01*
X23944Y22878D01*
X23928Y22869D01*
X23910Y22864D01*
X23892Y22862D01*
X23892Y22861D02*
X23798Y22861D01*
X23030Y24126D02*
X23124Y24201D01*
X23124Y23861D01*
X23030Y23861D02*
X23219Y23861D01*
X23390Y23861D02*
X23484Y23861D01*
X23484Y23862D02*
X23502Y23864D01*
X23520Y23869D01*
X23536Y23878D01*
X23550Y23890D01*
X23562Y23904D01*
X23571Y23920D01*
X23576Y23938D01*
X23578Y23956D01*
X23576Y23974D01*
X23571Y23992D01*
X23562Y24008D01*
X23550Y24022D01*
X23536Y24034D01*
X23520Y24043D01*
X23502Y24048D01*
X23484Y24050D01*
X23503Y24201D02*
X23390Y24201D01*
X23503Y24202D02*
X23519Y24200D01*
X23534Y24195D01*
X23548Y24187D01*
X23559Y24177D01*
X23569Y24164D01*
X23575Y24149D01*
X23579Y24134D01*
X23579Y24118D01*
X23575Y24103D01*
X23569Y24088D01*
X23559Y24075D01*
X23548Y24065D01*
X23534Y24057D01*
X23519Y24052D01*
X23503Y24050D01*
X23428Y24050D01*
X23030Y25126D02*
X23124Y25201D01*
X23124Y24861D01*
X23030Y24861D02*
X23219Y24861D01*
X23494Y25201D02*
X23511Y25199D01*
X23527Y25195D01*
X23541Y25187D01*
X23554Y25176D01*
X23565Y25163D01*
X23573Y25149D01*
X23577Y25133D01*
X23579Y25116D01*
X23494Y25201D02*
X23475Y25199D01*
X23456Y25194D01*
X23438Y25186D01*
X23422Y25174D01*
X23409Y25160D01*
X23398Y25144D01*
X23390Y25126D01*
X23551Y25050D02*
X23563Y25064D01*
X23572Y25080D01*
X23577Y25098D01*
X23579Y25116D01*
X23551Y25050D02*
X23390Y24861D01*
X23579Y24861D01*
X23030Y26126D02*
X23124Y26201D01*
X23124Y25861D01*
X23030Y25861D02*
X23219Y25861D01*
X23390Y26126D02*
X23484Y26201D01*
X23484Y25861D01*
X23390Y25861D02*
X23579Y25861D01*
X23143Y22201D02*
X23030Y21861D01*
X23257Y21861D02*
X23143Y22201D01*
X23228Y21946D02*
X23058Y21946D01*
X23424Y21861D02*
X23424Y22201D01*
X23519Y22201D01*
X23537Y22199D01*
X23555Y22194D01*
X23571Y22185D01*
X23585Y22173D01*
X23597Y22159D01*
X23606Y22143D01*
X23611Y22125D01*
X23613Y22107D01*
X23611Y22089D01*
X23606Y22071D01*
X23597Y22055D01*
X23585Y22041D01*
X23571Y22029D01*
X23555Y22020D01*
X23537Y22015D01*
X23519Y22013D01*
X23424Y22013D01*
X23538Y22013D02*
X23613Y21861D01*
X23794Y21861D02*
X23945Y21861D01*
X23794Y21861D02*
X23794Y22201D01*
X23945Y22201D01*
X23907Y22050D02*
X23794Y22050D01*
X24106Y22201D02*
X24106Y21861D01*
X24106Y22201D02*
X24257Y22201D01*
X24257Y22050D02*
X24106Y22050D01*
X23030Y27126D02*
X23124Y27201D01*
X23124Y26861D01*
X23030Y26861D02*
X23219Y26861D01*
X23390Y27031D02*
X23392Y27063D01*
X23397Y27094D01*
X23406Y27124D01*
X23418Y27154D01*
X23418Y27155D02*
X23424Y27168D01*
X23432Y27179D01*
X23443Y27189D01*
X23456Y27196D01*
X23470Y27201D01*
X23484Y27202D01*
X23498Y27201D01*
X23512Y27196D01*
X23525Y27189D01*
X23536Y27179D01*
X23544Y27168D01*
X23550Y27155D01*
X23551Y27154D02*
X23563Y27124D01*
X23572Y27094D01*
X23577Y27063D01*
X23579Y27031D01*
X23390Y27031D02*
X23392Y26999D01*
X23397Y26968D01*
X23406Y26938D01*
X23418Y26908D01*
X23424Y26895D01*
X23432Y26884D01*
X23443Y26874D01*
X23456Y26867D01*
X23470Y26862D01*
X23484Y26861D01*
X23551Y26908D02*
X23563Y26938D01*
X23572Y26968D01*
X23577Y26999D01*
X23579Y27031D01*
X23550Y26908D02*
X23544Y26895D01*
X23536Y26884D01*
X23525Y26874D01*
X23512Y26867D01*
X23498Y26862D01*
X23484Y26861D01*
X23409Y26937D02*
X23560Y27126D01*
X23219Y28013D02*
X23106Y28013D01*
X23106Y28012D02*
X23091Y28013D01*
X23077Y28018D01*
X23064Y28025D01*
X23052Y28034D01*
X23043Y28046D01*
X23036Y28059D01*
X23031Y28073D01*
X23030Y28088D01*
X23030Y28107D01*
X23032Y28125D01*
X23037Y28143D01*
X23046Y28159D01*
X23058Y28173D01*
X23072Y28185D01*
X23088Y28194D01*
X23106Y28199D01*
X23124Y28201D01*
X23142Y28199D01*
X23160Y28194D01*
X23176Y28185D01*
X23190Y28173D01*
X23202Y28159D01*
X23211Y28143D01*
X23216Y28125D01*
X23218Y28107D01*
X23219Y28107D02*
X23219Y28013D01*
X23217Y27989D01*
X23212Y27966D01*
X23203Y27944D01*
X23190Y27924D01*
X23175Y27906D01*
X23157Y27891D01*
X23137Y27878D01*
X23115Y27869D01*
X23092Y27864D01*
X23068Y27862D01*
X23030Y28956D02*
X23032Y28974D01*
X23037Y28992D01*
X23046Y29008D01*
X23058Y29022D01*
X23072Y29034D01*
X23088Y29043D01*
X23106Y29048D01*
X23124Y29050D01*
X23142Y29048D01*
X23160Y29043D01*
X23176Y29034D01*
X23190Y29022D01*
X23202Y29008D01*
X23211Y28992D01*
X23216Y28974D01*
X23218Y28956D01*
X23216Y28938D01*
X23211Y28920D01*
X23202Y28904D01*
X23190Y28890D01*
X23176Y28878D01*
X23160Y28869D01*
X23142Y28864D01*
X23124Y28862D01*
X23106Y28864D01*
X23088Y28869D01*
X23072Y28878D01*
X23058Y28890D01*
X23046Y28904D01*
X23037Y28920D01*
X23032Y28938D01*
X23030Y28956D01*
X23048Y29126D02*
X23050Y29142D01*
X23055Y29157D01*
X23063Y29171D01*
X23073Y29182D01*
X23086Y29192D01*
X23101Y29198D01*
X23116Y29202D01*
X23132Y29202D01*
X23147Y29198D01*
X23162Y29192D01*
X23175Y29182D01*
X23185Y29171D01*
X23193Y29157D01*
X23198Y29142D01*
X23200Y29126D01*
X23198Y29110D01*
X23193Y29095D01*
X23185Y29081D01*
X23175Y29070D01*
X23162Y29060D01*
X23147Y29054D01*
X23132Y29050D01*
X23116Y29050D01*
X23101Y29054D01*
X23086Y29060D01*
X23073Y29070D01*
X23063Y29081D01*
X23055Y29095D01*
X23050Y29110D01*
X23048Y29126D01*
X23030Y30664D02*
X23030Y30701D01*
X23219Y30701D01*
X23124Y30361D01*
X23143Y31550D02*
X23030Y31550D01*
X23143Y31551D02*
X23158Y31550D01*
X23172Y31545D01*
X23185Y31538D01*
X23197Y31529D01*
X23206Y31517D01*
X23213Y31504D01*
X23218Y31490D01*
X23219Y31475D01*
X23219Y31456D01*
X23218Y31456D02*
X23216Y31438D01*
X23211Y31420D01*
X23202Y31404D01*
X23190Y31390D01*
X23176Y31378D01*
X23160Y31369D01*
X23142Y31364D01*
X23124Y31362D01*
X23106Y31364D01*
X23088Y31369D01*
X23072Y31378D01*
X23058Y31390D01*
X23046Y31404D01*
X23037Y31420D01*
X23032Y31438D01*
X23030Y31456D01*
X23030Y31550D01*
X23032Y31574D01*
X23037Y31597D01*
X23046Y31619D01*
X23059Y31639D01*
X23074Y31657D01*
X23092Y31672D01*
X23112Y31685D01*
X23134Y31694D01*
X23157Y31699D01*
X23181Y31701D01*
X23143Y32361D02*
X23030Y32361D01*
X23143Y32361D02*
X23158Y32362D01*
X23172Y32367D01*
X23185Y32374D01*
X23197Y32383D01*
X23206Y32395D01*
X23213Y32408D01*
X23218Y32422D01*
X23219Y32437D01*
X23219Y32475D01*
X23218Y32490D01*
X23213Y32504D01*
X23206Y32517D01*
X23197Y32529D01*
X23185Y32538D01*
X23172Y32545D01*
X23158Y32550D01*
X23143Y32551D01*
X23143Y32550D02*
X23030Y32550D01*
X23030Y32701D01*
X23219Y32701D01*
X23030Y33437D02*
X23106Y33701D01*
X23030Y33437D02*
X23219Y33437D01*
X23162Y33513D02*
X23162Y33361D01*
X23124Y34361D02*
X23030Y34361D01*
X23124Y34362D02*
X23142Y34364D01*
X23160Y34369D01*
X23176Y34378D01*
X23190Y34390D01*
X23202Y34404D01*
X23211Y34420D01*
X23216Y34438D01*
X23218Y34456D01*
X23216Y34474D01*
X23211Y34492D01*
X23202Y34508D01*
X23190Y34522D01*
X23176Y34534D01*
X23160Y34543D01*
X23142Y34548D01*
X23124Y34550D01*
X23143Y34701D02*
X23030Y34701D01*
X23143Y34702D02*
X23159Y34700D01*
X23174Y34695D01*
X23188Y34687D01*
X23199Y34677D01*
X23209Y34664D01*
X23215Y34649D01*
X23219Y34634D01*
X23219Y34618D01*
X23215Y34603D01*
X23209Y34588D01*
X23199Y34575D01*
X23188Y34565D01*
X23174Y34557D01*
X23159Y34552D01*
X23143Y34550D01*
X23068Y34550D01*
X23219Y35616D02*
X23217Y35633D01*
X23213Y35649D01*
X23205Y35663D01*
X23194Y35676D01*
X23181Y35687D01*
X23167Y35695D01*
X23151Y35699D01*
X23134Y35701D01*
X23115Y35699D01*
X23096Y35694D01*
X23078Y35686D01*
X23062Y35674D01*
X23049Y35660D01*
X23038Y35644D01*
X23030Y35626D01*
X23191Y35550D02*
X23203Y35564D01*
X23212Y35580D01*
X23217Y35598D01*
X23219Y35616D01*
X23191Y35550D02*
X23030Y35361D01*
X23219Y35361D01*
X23124Y36361D02*
X23124Y36701D01*
X23030Y36701D02*
X23219Y36701D01*
X23574Y36701D02*
X23347Y36361D01*
X23574Y36361D02*
X23347Y36701D01*
X23030Y37361D02*
X23030Y37701D01*
X23124Y37701D01*
X23142Y37699D01*
X23160Y37694D01*
X23176Y37685D01*
X23190Y37673D01*
X23202Y37659D01*
X23211Y37643D01*
X23216Y37625D01*
X23218Y37607D01*
X23216Y37589D01*
X23211Y37571D01*
X23202Y37555D01*
X23190Y37541D01*
X23176Y37529D01*
X23160Y37520D01*
X23142Y37515D01*
X23124Y37513D01*
X23030Y37513D01*
X23143Y37513D02*
X23219Y37361D01*
X23368Y37361D02*
X23594Y37701D01*
X23368Y37701D02*
X23594Y37361D01*
X23219Y20937D02*
X23217Y20920D01*
X23211Y20904D01*
X23202Y20890D01*
X23190Y20878D01*
X23176Y20869D01*
X23160Y20863D01*
X23143Y20861D01*
X23122Y20862D01*
X23101Y20867D01*
X23081Y20873D01*
X23063Y20883D01*
X23045Y20894D01*
X23029Y20908D01*
X23039Y21126D02*
X23040Y21141D01*
X23045Y21155D01*
X23052Y21168D01*
X23061Y21180D01*
X23073Y21189D01*
X23086Y21196D01*
X23100Y21201D01*
X23115Y21202D01*
X23138Y21200D01*
X23160Y21195D01*
X23181Y21186D01*
X23200Y21174D01*
X23077Y21060D02*
X23064Y21069D01*
X23053Y21081D01*
X23046Y21095D01*
X23041Y21110D01*
X23039Y21126D01*
X23181Y21003D02*
X23194Y20994D01*
X23205Y20982D01*
X23212Y20968D01*
X23217Y20953D01*
X23219Y20937D01*
X23181Y21003D02*
X23077Y21060D01*
X23390Y21201D02*
X23390Y20861D01*
X23390Y21201D02*
X23484Y21201D01*
X23502Y21199D01*
X23520Y21194D01*
X23536Y21185D01*
X23550Y21173D01*
X23562Y21159D01*
X23571Y21143D01*
X23576Y21125D01*
X23578Y21107D01*
X23579Y21107D02*
X23579Y20956D01*
X23578Y20956D02*
X23576Y20938D01*
X23571Y20920D01*
X23562Y20904D01*
X23550Y20890D01*
X23536Y20878D01*
X23520Y20869D01*
X23502Y20864D01*
X23484Y20862D01*
X23484Y20861D02*
X23390Y20861D01*
X23743Y20861D02*
X23856Y21201D01*
X23970Y20861D01*
X23941Y20946D02*
X23771Y20946D01*
X23219Y19937D02*
X23217Y19920D01*
X23211Y19904D01*
X23202Y19890D01*
X23190Y19878D01*
X23176Y19869D01*
X23160Y19863D01*
X23143Y19861D01*
X23122Y19862D01*
X23101Y19867D01*
X23081Y19873D01*
X23063Y19883D01*
X23045Y19894D01*
X23029Y19908D01*
X23039Y20126D02*
X23040Y20141D01*
X23045Y20155D01*
X23052Y20168D01*
X23061Y20180D01*
X23073Y20189D01*
X23086Y20196D01*
X23100Y20201D01*
X23115Y20202D01*
X23138Y20200D01*
X23160Y20195D01*
X23181Y20186D01*
X23200Y20174D01*
X23077Y20060D02*
X23064Y20069D01*
X23053Y20081D01*
X23046Y20095D01*
X23041Y20110D01*
X23039Y20126D01*
X23181Y20003D02*
X23194Y19994D01*
X23205Y19982D01*
X23212Y19968D01*
X23217Y19953D01*
X23219Y19937D01*
X23181Y20003D02*
X23077Y20060D01*
X23452Y19861D02*
X23528Y19861D01*
X23452Y19861D02*
X23437Y19862D01*
X23423Y19867D01*
X23410Y19874D01*
X23398Y19883D01*
X23389Y19895D01*
X23382Y19908D01*
X23377Y19922D01*
X23376Y19937D01*
X23376Y20126D01*
X23378Y20143D01*
X23384Y20159D01*
X23393Y20173D01*
X23405Y20185D01*
X23419Y20194D01*
X23435Y20200D01*
X23452Y20202D01*
X23452Y20201D02*
X23528Y20201D01*
X23691Y20201D02*
X23691Y19861D01*
X23842Y19861D01*
X39523Y24361D02*
X39523Y24701D01*
X39486Y24361D02*
X39561Y24361D01*
X39561Y24701D02*
X39486Y24701D01*
X39717Y24607D02*
X39717Y24456D01*
X39717Y24607D02*
X39719Y24625D01*
X39724Y24643D01*
X39733Y24659D01*
X39745Y24673D01*
X39759Y24685D01*
X39775Y24694D01*
X39793Y24699D01*
X39811Y24701D01*
X39829Y24699D01*
X39847Y24694D01*
X39863Y24685D01*
X39877Y24673D01*
X39889Y24659D01*
X39898Y24643D01*
X39903Y24625D01*
X39905Y24607D01*
X39906Y24607D02*
X39906Y24456D01*
X39905Y24456D02*
X39903Y24438D01*
X39898Y24420D01*
X39889Y24404D01*
X39877Y24390D01*
X39863Y24378D01*
X39847Y24369D01*
X39829Y24364D01*
X39811Y24362D01*
X39793Y24364D01*
X39775Y24369D01*
X39759Y24378D01*
X39745Y24390D01*
X39733Y24404D01*
X39724Y24420D01*
X39719Y24438D01*
X39717Y24456D01*
X40092Y24361D02*
X40092Y24701D01*
X40187Y24701D01*
X40205Y24699D01*
X40223Y24694D01*
X40239Y24685D01*
X40253Y24673D01*
X40265Y24659D01*
X40274Y24643D01*
X40279Y24625D01*
X40281Y24607D01*
X40279Y24589D01*
X40274Y24571D01*
X40265Y24555D01*
X40253Y24541D01*
X40239Y24529D01*
X40223Y24520D01*
X40205Y24515D01*
X40187Y24513D01*
X40092Y24513D01*
X40206Y24513D02*
X40281Y24361D01*
X40462Y24361D02*
X40613Y24361D01*
X40462Y24361D02*
X40462Y24701D01*
X40613Y24701D01*
X40575Y24550D02*
X40462Y24550D01*
X40774Y24701D02*
X40774Y24361D01*
X40774Y24701D02*
X40925Y24701D01*
X40925Y24550D02*
X40774Y24550D01*
D15*
X31622Y39656D02*
X31622Y39846D01*
X31685Y39741D01*
X31748Y39846D01*
X31748Y39656D01*
X31877Y39656D02*
X31877Y39846D01*
X31930Y39846D01*
X31930Y39847D02*
X31944Y39845D01*
X31957Y39840D01*
X31967Y39831D01*
X31976Y39821D01*
X31981Y39808D01*
X31983Y39794D01*
X31982Y39794D02*
X31982Y39709D01*
X31983Y39709D02*
X31981Y39695D01*
X31976Y39682D01*
X31967Y39672D01*
X31956Y39663D01*
X31944Y39658D01*
X31930Y39656D01*
X31877Y39656D01*
X32089Y39635D02*
X32174Y39635D01*
X32379Y39799D02*
X32377Y39811D01*
X32373Y39823D01*
X32365Y39833D01*
X32355Y39841D01*
X32343Y39845D01*
X32331Y39847D01*
X32331Y39846D02*
X32318Y39845D01*
X32306Y39841D01*
X32295Y39834D01*
X32286Y39826D01*
X32278Y39815D01*
X32273Y39804D01*
X32362Y39762D02*
X32371Y39773D01*
X32376Y39785D01*
X32378Y39799D01*
X32363Y39762D02*
X32273Y39656D01*
X32378Y39656D01*
D10*
X66772Y43965D02*
X66772Y46012D01*
X66772Y43965D02*
X64134Y43965D01*
X63701Y43965D02*
X63071Y43965D01*
X63071Y46012D01*
X66772Y46012D01*
X64134Y43965D02*
X64132Y43937D01*
X64127Y43909D01*
X64117Y43882D01*
X64105Y43857D01*
X64089Y43833D01*
X64070Y43812D01*
X64049Y43793D01*
X64026Y43777D01*
X64000Y43765D01*
X63973Y43755D01*
X63945Y43750D01*
X63917Y43748D01*
X63889Y43750D01*
X63861Y43755D01*
X63834Y43765D01*
X63809Y43777D01*
X63785Y43793D01*
X63764Y43812D01*
X63745Y43833D01*
X63729Y43857D01*
X63717Y43882D01*
X63707Y43909D01*
X63702Y43937D01*
X63700Y43965D01*
D11*
X67020Y43372D02*
X67480Y43372D01*
X67276Y43525D02*
X67020Y43372D01*
X67276Y43525D02*
X67020Y43679D01*
X67480Y43679D01*
X67352Y43893D02*
X67148Y43893D01*
X67148Y43892D02*
X67127Y43894D01*
X67106Y43899D01*
X67087Y43907D01*
X67069Y43919D01*
X67054Y43933D01*
X67041Y43950D01*
X67031Y43969D01*
X67024Y43989D01*
X67020Y44009D01*
X67020Y44031D01*
X67024Y44051D01*
X67031Y44071D01*
X67041Y44090D01*
X67054Y44107D01*
X67069Y44121D01*
X67087Y44133D01*
X67106Y44141D01*
X67127Y44146D01*
X67148Y44148D01*
X67352Y44148D01*
X67373Y44146D01*
X67394Y44141D01*
X67413Y44133D01*
X67431Y44121D01*
X67446Y44107D01*
X67459Y44090D01*
X67469Y44071D01*
X67476Y44051D01*
X67480Y44031D01*
X67480Y44009D01*
X67476Y43989D01*
X67469Y43969D01*
X67459Y43950D01*
X67446Y43933D01*
X67431Y43919D01*
X67413Y43907D01*
X67394Y43899D01*
X67373Y43894D01*
X67352Y43892D01*
X67352Y44358D02*
X67020Y44358D01*
X67352Y44357D02*
X67373Y44359D01*
X67394Y44364D01*
X67413Y44372D01*
X67431Y44384D01*
X67446Y44398D01*
X67459Y44415D01*
X67469Y44434D01*
X67476Y44454D01*
X67480Y44474D01*
X67480Y44496D01*
X67476Y44516D01*
X67469Y44536D01*
X67459Y44555D01*
X67446Y44572D01*
X67431Y44586D01*
X67413Y44598D01*
X67394Y44606D01*
X67373Y44611D01*
X67352Y44613D01*
X67020Y44613D01*
X67020Y44920D02*
X67480Y44920D01*
X67020Y44793D02*
X67020Y45048D01*
X67020Y45315D02*
X67378Y45213D01*
X67378Y45468D01*
X67276Y45392D02*
X67480Y45392D01*
D10*
X52772Y46406D02*
X52772Y44358D01*
X50134Y44358D01*
X49701Y44358D02*
X49071Y44358D01*
X49071Y46406D01*
X52772Y46406D01*
X50134Y44358D02*
X50132Y44330D01*
X50127Y44302D01*
X50117Y44275D01*
X50105Y44250D01*
X50089Y44226D01*
X50070Y44205D01*
X50049Y44186D01*
X50026Y44170D01*
X50000Y44158D01*
X49973Y44148D01*
X49945Y44143D01*
X49917Y44141D01*
X49889Y44143D01*
X49861Y44148D01*
X49834Y44158D01*
X49809Y44170D01*
X49785Y44186D01*
X49764Y44205D01*
X49745Y44226D01*
X49729Y44250D01*
X49717Y44275D01*
X49707Y44302D01*
X49702Y44330D01*
X49700Y44358D01*
D11*
X53020Y43766D02*
X53480Y43766D01*
X53276Y43919D02*
X53020Y43766D01*
X53276Y43919D02*
X53020Y44072D01*
X53480Y44072D01*
X53352Y44286D02*
X53148Y44286D01*
X53127Y44288D01*
X53106Y44293D01*
X53087Y44301D01*
X53069Y44313D01*
X53054Y44327D01*
X53041Y44344D01*
X53031Y44363D01*
X53024Y44383D01*
X53020Y44403D01*
X53020Y44425D01*
X53024Y44445D01*
X53031Y44465D01*
X53041Y44484D01*
X53054Y44501D01*
X53069Y44515D01*
X53087Y44527D01*
X53106Y44535D01*
X53127Y44540D01*
X53148Y44542D01*
X53352Y44542D01*
X53373Y44540D01*
X53394Y44535D01*
X53413Y44527D01*
X53431Y44515D01*
X53446Y44501D01*
X53459Y44484D01*
X53469Y44465D01*
X53476Y44445D01*
X53480Y44425D01*
X53480Y44403D01*
X53476Y44383D01*
X53469Y44363D01*
X53459Y44344D01*
X53446Y44327D01*
X53431Y44313D01*
X53413Y44301D01*
X53394Y44293D01*
X53373Y44288D01*
X53352Y44286D01*
X53352Y44751D02*
X53020Y44751D01*
X53352Y44751D02*
X53373Y44753D01*
X53394Y44758D01*
X53413Y44766D01*
X53431Y44778D01*
X53446Y44792D01*
X53459Y44809D01*
X53469Y44828D01*
X53476Y44848D01*
X53480Y44868D01*
X53480Y44890D01*
X53476Y44910D01*
X53469Y44930D01*
X53459Y44949D01*
X53446Y44966D01*
X53431Y44980D01*
X53413Y44992D01*
X53394Y45000D01*
X53373Y45005D01*
X53352Y45007D01*
X53020Y45007D01*
X53020Y45314D02*
X53480Y45314D01*
X53020Y45186D02*
X53020Y45442D01*
X53480Y45606D02*
X53480Y45734D01*
X53478Y45755D01*
X53473Y45776D01*
X53465Y45795D01*
X53453Y45813D01*
X53439Y45828D01*
X53422Y45841D01*
X53403Y45851D01*
X53383Y45858D01*
X53363Y45862D01*
X53341Y45862D01*
X53321Y45858D01*
X53301Y45851D01*
X53282Y45841D01*
X53265Y45828D01*
X53251Y45813D01*
X53239Y45795D01*
X53231Y45776D01*
X53226Y45755D01*
X53224Y45734D01*
X53020Y45760D02*
X53020Y45606D01*
X53020Y45760D02*
X53022Y45779D01*
X53027Y45797D01*
X53035Y45814D01*
X53047Y45829D01*
X53061Y45841D01*
X53077Y45851D01*
X53094Y45858D01*
X53113Y45862D01*
X53131Y45862D01*
X53150Y45858D01*
X53167Y45851D01*
X53183Y45841D01*
X53197Y45829D01*
X53209Y45814D01*
X53217Y45797D01*
X53222Y45779D01*
X53224Y45760D01*
X53224Y45657D01*
D10*
X39772Y45146D02*
X39772Y47193D01*
X39772Y45146D02*
X37134Y45146D01*
X36701Y45146D02*
X36071Y45146D01*
X36071Y47193D01*
X39772Y47193D01*
X37134Y45146D02*
X37132Y45118D01*
X37127Y45090D01*
X37117Y45063D01*
X37105Y45038D01*
X37089Y45014D01*
X37070Y44993D01*
X37049Y44974D01*
X37026Y44958D01*
X37000Y44946D01*
X36973Y44936D01*
X36945Y44931D01*
X36917Y44929D01*
X36889Y44931D01*
X36861Y44936D01*
X36834Y44946D01*
X36809Y44958D01*
X36785Y44974D01*
X36764Y44993D01*
X36745Y45014D01*
X36729Y45038D01*
X36717Y45063D01*
X36707Y45090D01*
X36702Y45118D01*
X36700Y45146D01*
D11*
X40020Y44553D02*
X40480Y44553D01*
X40276Y44707D02*
X40020Y44553D01*
X40276Y44707D02*
X40020Y44860D01*
X40480Y44860D01*
X40352Y45074D02*
X40148Y45074D01*
X40127Y45076D01*
X40106Y45081D01*
X40087Y45089D01*
X40069Y45101D01*
X40054Y45115D01*
X40041Y45132D01*
X40031Y45151D01*
X40024Y45171D01*
X40020Y45191D01*
X40020Y45213D01*
X40024Y45233D01*
X40031Y45253D01*
X40041Y45272D01*
X40054Y45289D01*
X40069Y45303D01*
X40087Y45315D01*
X40106Y45323D01*
X40127Y45328D01*
X40148Y45330D01*
X40148Y45329D02*
X40352Y45329D01*
X40352Y45330D02*
X40373Y45328D01*
X40394Y45323D01*
X40413Y45315D01*
X40431Y45303D01*
X40446Y45289D01*
X40459Y45272D01*
X40469Y45253D01*
X40476Y45233D01*
X40480Y45213D01*
X40480Y45191D01*
X40476Y45171D01*
X40469Y45151D01*
X40459Y45132D01*
X40446Y45115D01*
X40431Y45101D01*
X40413Y45089D01*
X40394Y45081D01*
X40373Y45076D01*
X40352Y45074D01*
X40352Y45539D02*
X40020Y45539D01*
X40352Y45539D02*
X40373Y45541D01*
X40394Y45546D01*
X40413Y45554D01*
X40431Y45566D01*
X40446Y45580D01*
X40459Y45597D01*
X40469Y45616D01*
X40476Y45636D01*
X40480Y45656D01*
X40480Y45678D01*
X40476Y45698D01*
X40469Y45718D01*
X40459Y45737D01*
X40446Y45754D01*
X40431Y45768D01*
X40413Y45780D01*
X40394Y45788D01*
X40373Y45793D01*
X40352Y45795D01*
X40352Y45794D02*
X40020Y45794D01*
X40020Y46102D02*
X40480Y46102D01*
X40020Y45974D02*
X40020Y46229D01*
X40020Y46534D02*
X40022Y46554D01*
X40027Y46573D01*
X40035Y46592D01*
X40047Y46608D01*
X40061Y46622D01*
X40078Y46634D01*
X40096Y46642D01*
X40115Y46647D01*
X40135Y46649D01*
X40020Y46534D02*
X40022Y46511D01*
X40027Y46488D01*
X40036Y46467D01*
X40048Y46447D01*
X40063Y46429D01*
X40081Y46414D01*
X40101Y46402D01*
X40122Y46393D01*
X40225Y46612D02*
X40210Y46625D01*
X40193Y46636D01*
X40174Y46644D01*
X40155Y46648D01*
X40135Y46650D01*
X40224Y46611D02*
X40480Y46394D01*
X40480Y46649D01*
D10*
X26772Y47193D02*
X26772Y45146D01*
X24134Y45146D01*
X23701Y45146D02*
X23071Y45146D01*
X23071Y47193D01*
X26772Y47193D01*
X24134Y45146D02*
X24132Y45118D01*
X24127Y45090D01*
X24117Y45063D01*
X24105Y45038D01*
X24089Y45014D01*
X24070Y44993D01*
X24049Y44974D01*
X24026Y44958D01*
X24000Y44946D01*
X23973Y44936D01*
X23945Y44931D01*
X23917Y44929D01*
X23889Y44931D01*
X23861Y44936D01*
X23834Y44946D01*
X23809Y44958D01*
X23785Y44974D01*
X23764Y44993D01*
X23745Y45014D01*
X23729Y45038D01*
X23717Y45063D01*
X23707Y45090D01*
X23702Y45118D01*
X23700Y45146D01*
D11*
X27020Y44553D02*
X27480Y44553D01*
X27276Y44707D02*
X27020Y44553D01*
X27276Y44707D02*
X27020Y44860D01*
X27480Y44860D01*
X27352Y45074D02*
X27148Y45074D01*
X27127Y45076D01*
X27106Y45081D01*
X27087Y45089D01*
X27069Y45101D01*
X27054Y45115D01*
X27041Y45132D01*
X27031Y45151D01*
X27024Y45171D01*
X27020Y45191D01*
X27020Y45213D01*
X27024Y45233D01*
X27031Y45253D01*
X27041Y45272D01*
X27054Y45289D01*
X27069Y45303D01*
X27087Y45315D01*
X27106Y45323D01*
X27127Y45328D01*
X27148Y45330D01*
X27148Y45329D02*
X27352Y45329D01*
X27352Y45330D02*
X27373Y45328D01*
X27394Y45323D01*
X27413Y45315D01*
X27431Y45303D01*
X27446Y45289D01*
X27459Y45272D01*
X27469Y45253D01*
X27476Y45233D01*
X27480Y45213D01*
X27480Y45191D01*
X27476Y45171D01*
X27469Y45151D01*
X27459Y45132D01*
X27446Y45115D01*
X27431Y45101D01*
X27413Y45089D01*
X27394Y45081D01*
X27373Y45076D01*
X27352Y45074D01*
X27352Y45539D02*
X27020Y45539D01*
X27352Y45539D02*
X27373Y45541D01*
X27394Y45546D01*
X27413Y45554D01*
X27431Y45566D01*
X27446Y45580D01*
X27459Y45597D01*
X27469Y45616D01*
X27476Y45636D01*
X27480Y45656D01*
X27480Y45678D01*
X27476Y45698D01*
X27469Y45718D01*
X27459Y45737D01*
X27446Y45754D01*
X27431Y45768D01*
X27413Y45780D01*
X27394Y45788D01*
X27373Y45793D01*
X27352Y45795D01*
X27352Y45794D02*
X27020Y45794D01*
X27020Y46102D02*
X27480Y46102D01*
X27020Y45974D02*
X27020Y46229D01*
X27122Y46394D02*
X27020Y46522D01*
X27480Y46522D01*
X27480Y46649D02*
X27480Y46394D01*
D10*
X71976Y63898D02*
X74024Y63898D01*
X74024Y61260D01*
X74024Y60827D02*
X74024Y60197D01*
X71976Y60197D01*
X71976Y63898D01*
X74024Y61260D02*
X74052Y61258D01*
X74080Y61253D01*
X74107Y61243D01*
X74133Y61231D01*
X74156Y61215D01*
X74177Y61196D01*
X74196Y61175D01*
X74212Y61152D01*
X74224Y61126D01*
X74234Y61099D01*
X74239Y61071D01*
X74241Y61043D01*
X74239Y61015D01*
X74234Y60987D01*
X74224Y60960D01*
X74212Y60935D01*
X74196Y60911D01*
X74177Y60890D01*
X74156Y60871D01*
X74133Y60855D01*
X74107Y60843D01*
X74080Y60833D01*
X74052Y60828D01*
X74024Y60826D01*
D11*
X72520Y64146D02*
X72827Y64606D01*
X72520Y64606D02*
X72827Y64146D01*
X72996Y64146D02*
X73149Y64146D01*
X73167Y64148D01*
X73184Y64152D01*
X73200Y64160D01*
X73215Y64170D01*
X73227Y64182D01*
X73237Y64197D01*
X73245Y64213D01*
X73249Y64230D01*
X73251Y64248D01*
X73251Y64299D01*
X73249Y64317D01*
X73245Y64334D01*
X73237Y64350D01*
X73227Y64365D01*
X73215Y64377D01*
X73200Y64387D01*
X73184Y64395D01*
X73167Y64399D01*
X73149Y64401D01*
X73149Y64402D02*
X72996Y64402D01*
X72996Y64606D01*
X73251Y64606D01*
D10*
X11693Y67835D02*
X9646Y67835D01*
X11693Y67835D02*
X11693Y65197D01*
X11693Y64764D02*
X11693Y64134D01*
X9646Y64134D01*
X9646Y67835D01*
X11693Y65197D02*
X11721Y65195D01*
X11749Y65190D01*
X11776Y65180D01*
X11802Y65168D01*
X11825Y65152D01*
X11846Y65133D01*
X11865Y65112D01*
X11881Y65089D01*
X11893Y65063D01*
X11903Y65036D01*
X11908Y65008D01*
X11910Y64980D01*
X11908Y64952D01*
X11903Y64924D01*
X11893Y64897D01*
X11881Y64872D01*
X11865Y64848D01*
X11846Y64827D01*
X11825Y64808D01*
X11802Y64792D01*
X11776Y64780D01*
X11749Y64770D01*
X11721Y64765D01*
X11693Y64763D01*
D11*
X10189Y68083D02*
X10496Y68543D01*
X10189Y68543D02*
X10496Y68083D01*
X10665Y68339D02*
X10818Y68339D01*
X10818Y68338D02*
X10836Y68336D01*
X10853Y68332D01*
X10869Y68324D01*
X10884Y68314D01*
X10896Y68302D01*
X10906Y68287D01*
X10914Y68271D01*
X10918Y68254D01*
X10920Y68236D01*
X10920Y68211D01*
X10921Y68211D02*
X10919Y68190D01*
X10914Y68169D01*
X10906Y68150D01*
X10894Y68132D01*
X10880Y68117D01*
X10863Y68104D01*
X10844Y68094D01*
X10824Y68087D01*
X10804Y68083D01*
X10782Y68083D01*
X10762Y68087D01*
X10742Y68094D01*
X10723Y68104D01*
X10706Y68117D01*
X10692Y68132D01*
X10680Y68150D01*
X10672Y68169D01*
X10667Y68190D01*
X10665Y68211D01*
X10665Y68339D01*
X10667Y68366D01*
X10672Y68392D01*
X10681Y68417D01*
X10692Y68441D01*
X10707Y68463D01*
X10725Y68483D01*
X10745Y68501D01*
X10767Y68516D01*
X10791Y68527D01*
X10816Y68536D01*
X10842Y68541D01*
X10869Y68543D01*
D10*
X25449Y9524D02*
X25449Y7476D01*
X22811Y7476D01*
X22378Y7476D02*
X21748Y7476D01*
X21748Y9524D01*
X25449Y9524D01*
X22811Y7476D02*
X22809Y7448D01*
X22804Y7420D01*
X22794Y7393D01*
X22782Y7367D01*
X22766Y7344D01*
X22747Y7323D01*
X22726Y7304D01*
X22703Y7288D01*
X22677Y7276D01*
X22650Y7266D01*
X22622Y7261D01*
X22594Y7259D01*
X22566Y7261D01*
X22538Y7266D01*
X22511Y7276D01*
X22486Y7288D01*
X22462Y7304D01*
X22441Y7323D01*
X22422Y7344D01*
X22406Y7368D01*
X22394Y7393D01*
X22384Y7420D01*
X22379Y7448D01*
X22377Y7476D01*
D11*
X25697Y5852D02*
X25799Y5724D01*
X25697Y5852D02*
X26157Y5852D01*
X26157Y5724D02*
X26157Y5980D01*
X25812Y6430D02*
X25792Y6428D01*
X25773Y6423D01*
X25755Y6415D01*
X25738Y6403D01*
X25724Y6389D01*
X25712Y6373D01*
X25704Y6354D01*
X25699Y6335D01*
X25697Y6315D01*
X25699Y6292D01*
X25704Y6269D01*
X25713Y6248D01*
X25725Y6228D01*
X25740Y6210D01*
X25758Y6195D01*
X25778Y6183D01*
X25799Y6174D01*
X25902Y6392D02*
X25887Y6405D01*
X25870Y6416D01*
X25851Y6424D01*
X25832Y6428D01*
X25812Y6430D01*
X25902Y6392D02*
X26157Y6174D01*
X26157Y6430D01*
X26157Y6752D02*
X25697Y6599D01*
X25697Y6906D02*
X26157Y6752D01*
X26208Y7055D02*
X26208Y7259D01*
X26157Y7562D02*
X25697Y7409D01*
X25697Y7716D02*
X26157Y7562D01*
X26157Y7900D02*
X26157Y8105D01*
X26157Y7900D02*
X25697Y7900D01*
X25697Y8105D01*
X25902Y8054D02*
X25902Y7900D01*
X25697Y8289D02*
X26157Y8289D01*
X26157Y8545D02*
X25697Y8289D01*
X25697Y8545D02*
X26157Y8545D01*
X26157Y8852D02*
X25697Y8852D01*
X25697Y8724D02*
X25697Y8980D01*
D14*
X12976Y8901D02*
X12976Y7201D01*
X12126Y7051D02*
X11976Y7201D01*
X11826Y7051D01*
X11126Y7051D01*
X10976Y7201D01*
X10826Y7051D01*
X10126Y7051D01*
X9976Y7201D01*
X9976Y8901D02*
X10126Y9051D01*
X10826Y9051D01*
X10976Y8901D01*
X11126Y9051D01*
X11826Y9051D01*
X11976Y8901D01*
X12126Y9051D01*
X8976Y8901D02*
X8976Y7201D01*
X9826Y7051D02*
X9976Y7201D01*
X9826Y7051D02*
X9126Y7051D01*
X8976Y7201D01*
X9976Y8901D02*
X9826Y9051D01*
X9126Y9051D01*
X8976Y8901D01*
X12826Y7051D02*
X12976Y7201D01*
X12826Y7051D02*
X12126Y7051D01*
X12976Y8901D02*
X12826Y9051D01*
X12126Y9051D01*
D15*
X12401Y9576D02*
X12526Y9676D01*
X12526Y9226D01*
X12401Y9226D02*
X12651Y9226D01*
X11652Y9564D02*
X11650Y9584D01*
X11645Y9603D01*
X11637Y9621D01*
X11626Y9637D01*
X11612Y9651D01*
X11596Y9662D01*
X11578Y9670D01*
X11559Y9675D01*
X11539Y9677D01*
X11516Y9675D01*
X11494Y9670D01*
X11473Y9661D01*
X11454Y9649D01*
X11436Y9634D01*
X11422Y9617D01*
X11410Y9598D01*
X11401Y9577D01*
X11614Y9476D02*
X11627Y9491D01*
X11638Y9507D01*
X11646Y9525D01*
X11650Y9544D01*
X11652Y9564D01*
X11614Y9476D02*
X11401Y9226D01*
X11651Y9226D01*
X10526Y9226D02*
X10401Y9226D01*
X10526Y9226D02*
X10547Y9228D01*
X10567Y9233D01*
X10585Y9241D01*
X10603Y9252D01*
X10618Y9266D01*
X10631Y9283D01*
X10640Y9301D01*
X10647Y9320D01*
X10651Y9341D01*
X10651Y9361D01*
X10647Y9382D01*
X10640Y9401D01*
X10631Y9419D01*
X10618Y9436D01*
X10603Y9450D01*
X10585Y9461D01*
X10567Y9469D01*
X10547Y9474D01*
X10526Y9476D01*
X10551Y9676D02*
X10401Y9676D01*
X10551Y9676D02*
X10569Y9674D01*
X10587Y9669D01*
X10604Y9661D01*
X10618Y9650D01*
X10631Y9636D01*
X10641Y9621D01*
X10647Y9603D01*
X10651Y9585D01*
X10651Y9567D01*
X10647Y9549D01*
X10641Y9531D01*
X10631Y9516D01*
X10618Y9502D01*
X10604Y9491D01*
X10587Y9483D01*
X10569Y9478D01*
X10551Y9476D01*
X10451Y9476D01*
X9501Y9676D02*
X9401Y9326D01*
X9651Y9326D01*
X9576Y9426D02*
X9576Y9226D01*
X12038Y6826D02*
X12038Y6476D01*
X12036Y6459D01*
X12032Y6442D01*
X12025Y6426D01*
X12015Y6412D01*
X12002Y6399D01*
X11988Y6389D01*
X11972Y6382D01*
X11955Y6378D01*
X11938Y6376D01*
X11888Y6376D01*
X12274Y6376D02*
X12274Y6826D01*
X12399Y6826D01*
X12420Y6824D01*
X12440Y6819D01*
X12458Y6811D01*
X12476Y6800D01*
X12491Y6786D01*
X12504Y6769D01*
X12513Y6751D01*
X12520Y6732D01*
X12524Y6711D01*
X12524Y6691D01*
X12520Y6670D01*
X12513Y6651D01*
X12504Y6633D01*
X12491Y6616D01*
X12476Y6602D01*
X12458Y6591D01*
X12440Y6583D01*
X12420Y6578D01*
X12399Y6576D01*
X12274Y6576D01*
X12839Y6827D02*
X12859Y6825D01*
X12878Y6820D01*
X12896Y6812D01*
X12912Y6801D01*
X12926Y6787D01*
X12937Y6771D01*
X12945Y6753D01*
X12950Y6734D01*
X12952Y6714D01*
X12839Y6827D02*
X12816Y6825D01*
X12794Y6820D01*
X12773Y6811D01*
X12754Y6799D01*
X12736Y6784D01*
X12722Y6767D01*
X12710Y6748D01*
X12701Y6727D01*
X12914Y6626D02*
X12927Y6641D01*
X12938Y6657D01*
X12946Y6675D01*
X12950Y6694D01*
X12952Y6714D01*
X12914Y6626D02*
X12701Y6376D01*
X12951Y6376D01*
D10*
X11260Y60433D02*
X9213Y60433D01*
X11260Y60433D02*
X11260Y57795D01*
X11260Y57362D02*
X11260Y56732D01*
X9213Y56732D01*
X9213Y60433D01*
X11260Y57796D02*
X11288Y57794D01*
X11316Y57789D01*
X11343Y57779D01*
X11369Y57767D01*
X11392Y57751D01*
X11413Y57732D01*
X11432Y57711D01*
X11448Y57688D01*
X11460Y57662D01*
X11470Y57635D01*
X11475Y57607D01*
X11477Y57579D01*
X11475Y57551D01*
X11470Y57523D01*
X11460Y57496D01*
X11448Y57471D01*
X11432Y57447D01*
X11413Y57426D01*
X11392Y57407D01*
X11369Y57391D01*
X11343Y57379D01*
X11316Y57369D01*
X11288Y57364D01*
X11260Y57362D01*
D11*
X9756Y60681D02*
X10063Y61141D01*
X9756Y61141D02*
X10063Y60681D01*
X10232Y61090D02*
X10232Y61141D01*
X10487Y61141D01*
X10360Y60681D01*
D10*
X15906Y61614D02*
X17953Y61614D01*
X17953Y58976D01*
X17953Y58543D02*
X17953Y57913D01*
X15906Y57913D01*
X15906Y61614D01*
X17953Y58977D02*
X17981Y58975D01*
X18009Y58970D01*
X18036Y58960D01*
X18062Y58948D01*
X18085Y58932D01*
X18106Y58913D01*
X18125Y58892D01*
X18141Y58869D01*
X18153Y58843D01*
X18163Y58816D01*
X18168Y58788D01*
X18170Y58760D01*
X18168Y58732D01*
X18163Y58704D01*
X18153Y58677D01*
X18141Y58652D01*
X18125Y58628D01*
X18106Y58607D01*
X18085Y58588D01*
X18062Y58572D01*
X18036Y58560D01*
X18009Y58550D01*
X17981Y58545D01*
X17953Y58543D01*
D11*
X16449Y61863D02*
X16756Y62323D01*
X16449Y62323D02*
X16756Y61863D01*
X16924Y61990D02*
X16926Y62011D01*
X16931Y62032D01*
X16939Y62051D01*
X16951Y62069D01*
X16965Y62084D01*
X16982Y62097D01*
X17001Y62107D01*
X17021Y62114D01*
X17041Y62118D01*
X17063Y62118D01*
X17083Y62114D01*
X17103Y62107D01*
X17122Y62097D01*
X17139Y62084D01*
X17153Y62069D01*
X17165Y62051D01*
X17173Y62032D01*
X17178Y62011D01*
X17180Y61990D01*
X17178Y61969D01*
X17173Y61948D01*
X17165Y61929D01*
X17153Y61911D01*
X17139Y61896D01*
X17122Y61883D01*
X17103Y61873D01*
X17083Y61866D01*
X17063Y61862D01*
X17041Y61862D01*
X17021Y61866D01*
X17001Y61873D01*
X16982Y61883D01*
X16965Y61896D01*
X16951Y61911D01*
X16939Y61929D01*
X16931Y61948D01*
X16926Y61969D01*
X16924Y61990D01*
X16950Y62220D02*
X16952Y62239D01*
X16957Y62257D01*
X16965Y62274D01*
X16977Y62289D01*
X16991Y62301D01*
X17007Y62311D01*
X17024Y62318D01*
X17043Y62322D01*
X17061Y62322D01*
X17080Y62318D01*
X17097Y62311D01*
X17113Y62301D01*
X17127Y62289D01*
X17139Y62274D01*
X17147Y62257D01*
X17152Y62239D01*
X17154Y62220D01*
X17152Y62201D01*
X17147Y62183D01*
X17139Y62166D01*
X17127Y62151D01*
X17113Y62139D01*
X17097Y62129D01*
X17080Y62122D01*
X17061Y62118D01*
X17043Y62118D01*
X17024Y62122D01*
X17007Y62129D01*
X16991Y62139D01*
X16977Y62151D01*
X16965Y62166D01*
X16957Y62183D01*
X16952Y62201D01*
X16950Y62220D01*
D10*
X6929Y48622D02*
X4882Y48622D01*
X6929Y48622D02*
X6929Y45984D01*
X6929Y45551D02*
X6929Y44921D01*
X4882Y44921D01*
X4882Y48622D01*
X6929Y45985D02*
X6957Y45983D01*
X6985Y45978D01*
X7012Y45968D01*
X7038Y45956D01*
X7061Y45940D01*
X7082Y45921D01*
X7101Y45900D01*
X7117Y45877D01*
X7129Y45851D01*
X7139Y45824D01*
X7144Y45796D01*
X7146Y45768D01*
X7144Y45740D01*
X7139Y45712D01*
X7129Y45685D01*
X7117Y45660D01*
X7101Y45636D01*
X7082Y45615D01*
X7061Y45596D01*
X7038Y45580D01*
X7012Y45568D01*
X6985Y45558D01*
X6957Y45553D01*
X6929Y45551D01*
D11*
X5426Y48870D02*
X5426Y49330D01*
X5579Y49075D01*
X5732Y49330D01*
X5732Y48870D01*
X5946Y48998D02*
X5946Y49203D01*
X5948Y49224D01*
X5953Y49245D01*
X5961Y49264D01*
X5973Y49282D01*
X5987Y49297D01*
X6004Y49310D01*
X6023Y49320D01*
X6043Y49327D01*
X6063Y49331D01*
X6085Y49331D01*
X6105Y49327D01*
X6125Y49320D01*
X6144Y49310D01*
X6161Y49297D01*
X6175Y49282D01*
X6187Y49264D01*
X6195Y49245D01*
X6200Y49224D01*
X6202Y49203D01*
X6202Y48998D01*
X6200Y48977D01*
X6195Y48956D01*
X6187Y48937D01*
X6175Y48919D01*
X6161Y48904D01*
X6144Y48891D01*
X6125Y48881D01*
X6105Y48874D01*
X6085Y48870D01*
X6063Y48870D01*
X6043Y48874D01*
X6023Y48881D01*
X6004Y48891D01*
X5987Y48904D01*
X5973Y48919D01*
X5961Y48937D01*
X5953Y48956D01*
X5948Y48977D01*
X5946Y48998D01*
X6411Y48998D02*
X6411Y49330D01*
X6411Y48998D02*
X6413Y48977D01*
X6418Y48956D01*
X6426Y48937D01*
X6438Y48919D01*
X6452Y48904D01*
X6469Y48891D01*
X6488Y48881D01*
X6508Y48874D01*
X6528Y48870D01*
X6550Y48870D01*
X6570Y48874D01*
X6590Y48881D01*
X6609Y48891D01*
X6626Y48904D01*
X6640Y48919D01*
X6652Y48937D01*
X6660Y48956D01*
X6665Y48977D01*
X6667Y48998D01*
X6667Y49330D01*
X6974Y49330D02*
X6974Y48870D01*
X6846Y49330D02*
X7102Y49330D01*
X7266Y48870D02*
X7419Y48870D01*
X7419Y48871D02*
X7437Y48873D01*
X7454Y48877D01*
X7470Y48885D01*
X7485Y48895D01*
X7497Y48907D01*
X7507Y48922D01*
X7515Y48938D01*
X7519Y48955D01*
X7521Y48973D01*
X7522Y48973D02*
X7522Y49024D01*
X7521Y49024D02*
X7519Y49042D01*
X7515Y49059D01*
X7507Y49075D01*
X7497Y49090D01*
X7485Y49102D01*
X7470Y49112D01*
X7454Y49120D01*
X7437Y49124D01*
X7419Y49126D01*
X7266Y49126D01*
X7266Y49330D01*
X7522Y49330D01*
D10*
X6929Y54134D02*
X4882Y54134D01*
X6929Y54134D02*
X6929Y51496D01*
X6929Y51063D02*
X6929Y50433D01*
X4882Y50433D01*
X4882Y54134D01*
X6929Y51497D02*
X6957Y51495D01*
X6985Y51490D01*
X7012Y51480D01*
X7038Y51468D01*
X7061Y51452D01*
X7082Y51433D01*
X7101Y51412D01*
X7117Y51389D01*
X7129Y51363D01*
X7139Y51336D01*
X7144Y51308D01*
X7146Y51280D01*
X7144Y51252D01*
X7139Y51224D01*
X7129Y51197D01*
X7117Y51172D01*
X7101Y51148D01*
X7082Y51127D01*
X7061Y51108D01*
X7038Y51092D01*
X7012Y51080D01*
X6985Y51070D01*
X6957Y51065D01*
X6929Y51063D01*
D11*
X5426Y54382D02*
X5426Y54842D01*
X5579Y54587D01*
X5732Y54842D01*
X5732Y54382D01*
X5946Y54510D02*
X5946Y54714D01*
X5948Y54735D01*
X5953Y54756D01*
X5961Y54775D01*
X5973Y54793D01*
X5987Y54808D01*
X6004Y54821D01*
X6023Y54831D01*
X6043Y54838D01*
X6063Y54842D01*
X6085Y54842D01*
X6105Y54838D01*
X6125Y54831D01*
X6144Y54821D01*
X6161Y54808D01*
X6175Y54793D01*
X6187Y54775D01*
X6195Y54756D01*
X6200Y54735D01*
X6202Y54714D01*
X6202Y54510D01*
X6200Y54489D01*
X6195Y54468D01*
X6187Y54449D01*
X6175Y54431D01*
X6161Y54416D01*
X6144Y54403D01*
X6125Y54393D01*
X6105Y54386D01*
X6085Y54382D01*
X6063Y54382D01*
X6043Y54386D01*
X6023Y54393D01*
X6004Y54403D01*
X5987Y54416D01*
X5973Y54431D01*
X5961Y54449D01*
X5953Y54468D01*
X5948Y54489D01*
X5946Y54510D01*
X6411Y54510D02*
X6411Y54842D01*
X6411Y54510D02*
X6413Y54489D01*
X6418Y54468D01*
X6426Y54449D01*
X6438Y54431D01*
X6452Y54416D01*
X6469Y54403D01*
X6488Y54393D01*
X6508Y54386D01*
X6528Y54382D01*
X6550Y54382D01*
X6570Y54386D01*
X6590Y54393D01*
X6609Y54403D01*
X6626Y54416D01*
X6640Y54431D01*
X6652Y54449D01*
X6660Y54468D01*
X6665Y54489D01*
X6667Y54510D01*
X6667Y54842D01*
X6974Y54842D02*
X6974Y54382D01*
X6846Y54842D02*
X7102Y54842D01*
X7266Y54638D02*
X7419Y54638D01*
X7437Y54636D01*
X7454Y54632D01*
X7470Y54624D01*
X7485Y54614D01*
X7497Y54602D01*
X7507Y54587D01*
X7515Y54571D01*
X7519Y54554D01*
X7521Y54536D01*
X7522Y54536D02*
X7522Y54510D01*
X7520Y54489D01*
X7515Y54468D01*
X7507Y54449D01*
X7495Y54431D01*
X7481Y54416D01*
X7464Y54403D01*
X7445Y54393D01*
X7425Y54386D01*
X7405Y54382D01*
X7383Y54382D01*
X7363Y54386D01*
X7343Y54393D01*
X7324Y54403D01*
X7307Y54416D01*
X7293Y54431D01*
X7281Y54449D01*
X7273Y54468D01*
X7268Y54489D01*
X7266Y54510D01*
X7266Y54638D01*
X7267Y54638D02*
X7269Y54665D01*
X7274Y54691D01*
X7283Y54716D01*
X7294Y54740D01*
X7309Y54762D01*
X7327Y54782D01*
X7347Y54800D01*
X7369Y54815D01*
X7393Y54826D01*
X7418Y54835D01*
X7444Y54840D01*
X7471Y54842D01*
D10*
X69843Y53346D02*
X71890Y53346D01*
X69843Y53346D02*
X69843Y55984D01*
X69843Y56417D02*
X69843Y57047D01*
X71890Y57047D01*
X71890Y53346D01*
X69843Y55984D02*
X69815Y55986D01*
X69787Y55991D01*
X69760Y56001D01*
X69735Y56013D01*
X69711Y56029D01*
X69690Y56048D01*
X69671Y56069D01*
X69655Y56093D01*
X69643Y56118D01*
X69633Y56145D01*
X69628Y56173D01*
X69626Y56201D01*
X69628Y56229D01*
X69633Y56257D01*
X69643Y56284D01*
X69655Y56310D01*
X69671Y56333D01*
X69690Y56354D01*
X69711Y56373D01*
X69735Y56389D01*
X69760Y56401D01*
X69787Y56411D01*
X69815Y56416D01*
X69843Y56418D01*
D11*
X69250Y53098D02*
X69250Y52638D01*
X69403Y52843D02*
X69250Y53098D01*
X69403Y52843D02*
X69557Y53098D01*
X69557Y52638D01*
X69771Y52766D02*
X69771Y52970D01*
X69770Y52970D02*
X69772Y52991D01*
X69777Y53012D01*
X69785Y53031D01*
X69797Y53049D01*
X69811Y53064D01*
X69828Y53077D01*
X69847Y53087D01*
X69867Y53094D01*
X69887Y53098D01*
X69909Y53098D01*
X69929Y53094D01*
X69949Y53087D01*
X69968Y53077D01*
X69985Y53064D01*
X69999Y53049D01*
X70011Y53031D01*
X70019Y53012D01*
X70024Y52991D01*
X70026Y52970D01*
X70026Y52766D01*
X70024Y52745D01*
X70019Y52724D01*
X70011Y52705D01*
X69999Y52687D01*
X69985Y52672D01*
X69968Y52659D01*
X69949Y52649D01*
X69929Y52642D01*
X69909Y52638D01*
X69887Y52638D01*
X69867Y52642D01*
X69847Y52649D01*
X69828Y52659D01*
X69811Y52672D01*
X69797Y52687D01*
X69785Y52705D01*
X69777Y52724D01*
X69772Y52745D01*
X69770Y52766D01*
X70236Y52766D02*
X70236Y53098D01*
X70235Y52766D02*
X70237Y52745D01*
X70242Y52724D01*
X70250Y52705D01*
X70262Y52687D01*
X70276Y52672D01*
X70293Y52659D01*
X70312Y52649D01*
X70332Y52642D01*
X70352Y52638D01*
X70374Y52638D01*
X70394Y52642D01*
X70414Y52649D01*
X70433Y52659D01*
X70450Y52672D01*
X70464Y52687D01*
X70476Y52705D01*
X70484Y52724D01*
X70489Y52745D01*
X70491Y52766D01*
X70491Y53098D01*
X70798Y53098D02*
X70798Y52638D01*
X70671Y53098D02*
X70926Y53098D01*
X71091Y53098D02*
X71091Y53047D01*
X71091Y53098D02*
X71346Y53098D01*
X71218Y52638D01*
D10*
X71496Y47835D02*
X69449Y47835D01*
X69449Y50472D01*
X69449Y50906D02*
X69449Y51535D01*
X71496Y51535D01*
X71496Y47835D01*
X69449Y50472D02*
X69421Y50474D01*
X69393Y50479D01*
X69366Y50489D01*
X69341Y50501D01*
X69317Y50517D01*
X69296Y50536D01*
X69277Y50557D01*
X69261Y50581D01*
X69249Y50606D01*
X69239Y50633D01*
X69234Y50661D01*
X69232Y50689D01*
X69234Y50717D01*
X69239Y50745D01*
X69249Y50772D01*
X69261Y50798D01*
X69277Y50821D01*
X69296Y50842D01*
X69317Y50861D01*
X69341Y50877D01*
X69366Y50889D01*
X69393Y50899D01*
X69421Y50904D01*
X69449Y50906D01*
D11*
X68856Y47586D02*
X68856Y47126D01*
X69010Y47331D02*
X68856Y47586D01*
X69010Y47331D02*
X69163Y47586D01*
X69163Y47126D01*
X69377Y47254D02*
X69377Y47459D01*
X69379Y47480D01*
X69384Y47501D01*
X69392Y47520D01*
X69404Y47538D01*
X69418Y47553D01*
X69435Y47566D01*
X69454Y47576D01*
X69474Y47583D01*
X69494Y47587D01*
X69516Y47587D01*
X69536Y47583D01*
X69556Y47576D01*
X69575Y47566D01*
X69592Y47553D01*
X69606Y47538D01*
X69618Y47520D01*
X69626Y47501D01*
X69631Y47480D01*
X69633Y47459D01*
X69632Y47459D02*
X69632Y47254D01*
X69633Y47254D02*
X69631Y47233D01*
X69626Y47212D01*
X69618Y47193D01*
X69606Y47175D01*
X69592Y47160D01*
X69575Y47147D01*
X69556Y47137D01*
X69536Y47130D01*
X69516Y47126D01*
X69494Y47126D01*
X69474Y47130D01*
X69454Y47137D01*
X69435Y47147D01*
X69418Y47160D01*
X69404Y47175D01*
X69392Y47193D01*
X69384Y47212D01*
X69379Y47233D01*
X69377Y47254D01*
X69842Y47254D02*
X69842Y47586D01*
X69842Y47254D02*
X69844Y47233D01*
X69849Y47212D01*
X69857Y47193D01*
X69869Y47175D01*
X69883Y47160D01*
X69900Y47147D01*
X69919Y47137D01*
X69939Y47130D01*
X69959Y47126D01*
X69981Y47126D01*
X70001Y47130D01*
X70021Y47137D01*
X70040Y47147D01*
X70057Y47160D01*
X70071Y47175D01*
X70083Y47193D01*
X70091Y47212D01*
X70096Y47233D01*
X70098Y47254D01*
X70097Y47254D02*
X70097Y47586D01*
X70405Y47586D02*
X70405Y47126D01*
X70277Y47586D02*
X70532Y47586D01*
X70697Y47254D02*
X70699Y47275D01*
X70704Y47296D01*
X70712Y47315D01*
X70724Y47333D01*
X70738Y47348D01*
X70755Y47361D01*
X70774Y47371D01*
X70794Y47378D01*
X70814Y47382D01*
X70836Y47382D01*
X70856Y47378D01*
X70876Y47371D01*
X70895Y47361D01*
X70912Y47348D01*
X70926Y47333D01*
X70938Y47315D01*
X70946Y47296D01*
X70951Y47275D01*
X70953Y47254D01*
X70951Y47233D01*
X70946Y47212D01*
X70938Y47193D01*
X70926Y47175D01*
X70912Y47160D01*
X70895Y47147D01*
X70876Y47137D01*
X70856Y47130D01*
X70836Y47126D01*
X70814Y47126D01*
X70794Y47130D01*
X70774Y47137D01*
X70755Y47147D01*
X70738Y47160D01*
X70724Y47175D01*
X70712Y47193D01*
X70704Y47212D01*
X70699Y47233D01*
X70697Y47254D01*
X70723Y47484D02*
X70725Y47503D01*
X70730Y47521D01*
X70738Y47538D01*
X70750Y47553D01*
X70764Y47565D01*
X70780Y47575D01*
X70797Y47582D01*
X70816Y47586D01*
X70834Y47586D01*
X70853Y47582D01*
X70870Y47575D01*
X70886Y47565D01*
X70900Y47553D01*
X70912Y47538D01*
X70920Y47521D01*
X70925Y47503D01*
X70927Y47484D01*
X70925Y47465D01*
X70920Y47447D01*
X70912Y47430D01*
X70900Y47415D01*
X70886Y47403D01*
X70870Y47393D01*
X70853Y47386D01*
X70834Y47382D01*
X70816Y47382D01*
X70797Y47386D01*
X70780Y47393D01*
X70764Y47403D01*
X70750Y47415D01*
X70738Y47430D01*
X70730Y47447D01*
X70725Y47465D01*
X70723Y47484D01*
M02*
